<svg xmlns="http://www.w3.org/2000/svg" viewBox="0 0 12.18 12.18"><defs><style>.cls-1{fill:#ffb600}</style></defs><g id="Layer_2" data-name="Layer 2"><g id="Layer_1-2" data-name="Layer 1"><path class="cls-1" d="M10.91 12.18H1.27A1.27 1.27 0 010 10.91V2.29A1.28 1.28 0 011.27 1h9.64a1.28 1.28 0 011.27 1.28v8.62a1.27 1.27 0 01-1.27 1.28zM1.27 2a.26.26 0 00-.27.29v8.62a.26.26 0 00.26.25h9.64a.25.25 0 00.25-.25V2.29a.26.26 0 00-.24-.29zm10.4 2H.51a.51.51 0 110-1h11.16a.51.51 0 110 1zM2.54 2.54A.51.51 0 012 2V.51A.51.51 0 012.54 0 .5.5 0 013 .51V2a.5.5 0 01-.46.54zm7.1 0A.51.51 0 019.13 2V.51a.51.51 0 111 0V2a.51.51 0 01-.49.54z"/><circle class="cls-1" cx="3.04" cy="9.64" r=".51"/><circle class="cls-1" cx="3.04" cy="7.61" r=".51"/><circle class="cls-1" cx="4.57" cy="9.64" r=".51"/><circle class="cls-1" cx="4.57" cy="7.61" r=".51"/><circle class="cls-1" cx="4.57" cy="5.58" r=".51"/><circle class="cls-1" cx="7.61" cy="9.64" r=".51"/><circle class="cls-1" cx="7.61" cy="7.61" r=".51"/><circle class="cls-1" cx="7.61" cy="5.58" r=".51"/><circle class="cls-1" cx="9.13" cy="7.61" r=".51"/><circle class="cls-1" cx="9.13" cy="5.58" r=".51"/><circle class="cls-1" cx="6.09" cy="9.64" r=".51"/><circle class="cls-1" cx="6.09" cy="7.61" r=".51"/><circle class="cls-1" cx="6.09" cy="5.58" r=".51"/></g></g></svg>