<svg xmlns="http://www.w3.org/2000/svg" viewBox="0 0 147.69 38.95"><defs><style>.cls-1{fill:#404c55;fill-rule:evenodd;}</style></defs><g id="Layer_2" data-name="Layer 2"><g id="Layer_1-2" data-name="Layer 1"><path class="cls-1" d="M33.53,22.1c0-.29,0-.58,0-.88a15.84,15.84,0,0,0-31.67,0c0,.3,0,.59,0,.88L0,22.27q0-.52,0-1.05A17.65,17.65,0,0,1,4.75,9.15l-.93-.92-.44.43a.27.27,0,0,1-.37,0L2.38,8a.27.27,0,0,1,0-.37C3,7.06,3.57,6.47,4.16,5.88a.25.25,0,0,1,.37,0l.63.63a.25.25,0,0,1,0,.37l-.43.44.92.92A17.65,17.65,0,0,1,16.73,3.53V2.26h-.84a.59.59,0,0,1-.59-.59V.59A.6.6,0,0,1,15.89,0h3.67a.59.59,0,0,1,.59.59V1.67a.58.58,0,0,1-.59.59h-.83V3.53A17.63,17.63,0,0,1,29.79,8.24l.93-.92-.44-.44a.27.27,0,0,1,0-.37l.64-.63a.25.25,0,0,1,.37,0l1.78,1.78a.27.27,0,0,1,0,.37l-.63.63a.28.28,0,0,1-.38,0l-.43-.43-.93.92a17.65,17.65,0,0,1,4.75,12.07q0,.53,0,1.05Z"/><path class="cls-1" d="M17.72,9.35a13.46,13.46,0,0,0-2.88,4.48,18.45,18.45,0,0,0-1.29,6.88,18.46,18.46,0,0,0,1.29,6.89A22.19,22.19,0,0,0,16.65,31l.36.63a12.4,12.4,0,0,1,.71,1.47,14.26,14.26,0,0,1,.72-1.47L18.8,31a30.69,30.69,0,0,0,1.81-3.37A17.7,17.7,0,0,0,21.76,23a15,15,0,0,1,2-2.22l0,0A21.25,21.25,0,0,1,23,26.39a33.07,33.07,0,0,1,4.5-2.48,12.67,12.67,0,0,0-.38-6.32,12.39,12.39,0,0,0-4,2.52c-3.55,3.23-4.27,6.16-5.38,10.56-.27-.34-1.44-5.63-3.12-8h0v0h0v0h0v0h0v0h0v0h0v0h0v0h0v0h0v0h0a19.54,19.54,0,0,1-.05-2.65h0v0h0v0h0v0h0v0h0v0a19.12,19.12,0,0,1,3.19,4.65,18.73,18.73,0,0,1,4.06-5.5,17.74,17.74,0,0,0-1.17-4.93,13.33,13.33,0,0,0-2.89-4.48ZM28.66,32.67c-.23.21-.47.42-.72.62a16.69,16.69,0,0,1-2.73,1.77,14,14,0,0,1-2.32.93,8.3,8.3,0,0,1-.82.22A15.61,15.61,0,0,0,23.59,35a16.84,16.84,0,0,0,1.54-1.61h0A17.19,17.19,0,0,0,26.86,31a19.35,19.35,0,0,0,2-4.53,14.11,14.11,0,0,0-2.36,1c-.13.33-.28.65-.43,1A17.54,17.54,0,0,1,24.62,31a15.29,15.29,0,0,1-2.08,2.41l-.22.21a12.58,12.58,0,0,1-3.48,2.29A4.93,4.93,0,0,1,19,35a13.24,13.24,0,0,1,1.05-2.49,13,13,0,0,1,1-1.54,16,16,0,0,1,2.72-2.81,14.89,14.89,0,0,1,5.05-2.7A10.91,10.91,0,0,1,33,25c0,.31-.1.62-.17.93a15.9,15.9,0,0,1-3.93,6.51l-.26.25Zm.84-9.33a12.06,12.06,0,0,1,4.7-.1l1.13.25a20.62,20.62,0,0,1-2,6.36,16.63,16.63,0,0,1-3.21,4.06,17.71,17.71,0,0,1-24.74,0,16.49,16.49,0,0,1-3.22-4.07,18.63,18.63,0,0,1-2-6.07l0-.33.33-.06.79-.15a12,12,0,0,1,4.68.1c0-.31-.07-.61-.09-.91a13.64,13.64,0,0,1,1-6.38l.32-.73.78.2a12.41,12.41,0,0,1,3.06,1.29c.29.17.58.36.87.55a19.59,19.59,0,0,1,1.17-4.24,14.81,14.81,0,0,1,4-5.78l.61-.51.61.51a14.93,14.93,0,0,1,4,5.78,17,17,0,0,1,1.19,4.23h0a12.72,12.72,0,0,1,3.91-1.83l.77-.2.33.73a13.68,13.68,0,0,1,.94,7.29ZM6.79,32.67c.23.21.47.42.72.62A15,15,0,0,0,12.56,36a8.3,8.3,0,0,0,.82.22A15.61,15.61,0,0,1,11.86,35a19.3,19.3,0,0,1-5.57-9.62A10.88,10.88,0,0,0,2.43,25c.34,2.7,2.43,5.85,4.36,7.69Zm5.64-6.28A16.78,16.78,0,0,0,9,24.33a15.48,15.48,0,0,0,.74,2.49,17.25,17.25,0,0,1,1.94,1.34,15.23,15.23,0,0,1,3.72,4.35,11.38,11.38,0,0,1,1.27,3.38h0a12.58,12.58,0,0,1-3.48-2.29,17.21,17.21,0,0,1-5.4-11.27,12.27,12.27,0,0,1,.57-4.73,11.69,11.69,0,0,1,2.48,1.28c.31.21.61.43.91.67q0,.59,0,1.17A20.84,20.84,0,0,0,12.43,26.39Z"/><path class="cls-1" d="M51,14.78V26.6h8.3V24.55H53.23V14.78Zm18.6-.22a6,6,0,0,0-6.12,6.23,5.75,5.75,0,0,0,6.07,6.08c4.15,0,6-3.05,6.06-6.1a5.89,5.89,0,0,0-6-6.21Zm-3.93,6.26a3.88,3.88,0,1,1,7.74,0c0,1.94-1.08,4-3.86,4s-3.83-2.07-3.88-4ZM83.49,26.6h2.23V16.8h3.74v-2H79.75v2h3.74v9.8Zm19.06-11.79v6.77c0,2-1,3.25-2.89,3.25s-3-1.13-3-3.25V14.81H94.4v6.77a4.93,4.93,0,0,0,5.25,5.28c3,0,5.11-1.79,5.11-5.28V14.81Zm17.07,1.93c-.9-1.82-2.8-2.35-4.64-2.35-2.18,0-4.57,1-4.57,3.44,0,2.65,2.22,3.29,4.63,3.58,1.57.17,2.74.62,2.74,1.74,0,1.28-1.32,1.77-2.72,1.77a3.37,3.37,0,0,1-3.32-1.87l-1.86,1c.88,2.16,2.74,2.9,5.15,2.9,2.63,0,5-1.13,5-3.76,0-2.82-2.3-3.46-4.76-3.76-1.42-.17-2.63-.46-2.63-1.49,0-.88.79-1.57,2.44-1.57a3.35,3.35,0,0,1,2.8,1.32Z"/><path class="cls-1" d="M138.2,26.6h2.43l-5.3-11.82H132.9L127.61,26.6H130l1-2.22h6.18l1,2.22Zm-1.89-4.3h-4.38l2.19-5,2.19,5Zm11.38,4.3V14.78h-2.2V26.6Z"/></g></g></svg>