<svg xmlns="http://www.w3.org/2000/svg" viewBox="0 0 24.31 24.31"><defs><style>.cls-1{fill:#f5af00;}</style></defs><g id="Layer_2" data-name="Layer 2"><g id="Layer_1-2" data-name="Layer 1"><path class="cls-1" d="M9.12,9c0,1,.81,1.51,2.22,2V7.27C10.15,7.47,9.12,8.1,9.12,9Z"/><path class="cls-1" d="M13,13.27V17c1.2-.2,2.22-.83,2.22-1.76S14.37,13.77,13,13.27Z"/><path class="cls-1" d="M12.15,0A12.16,12.16,0,1,0,24.31,12.15,12.15,12.15,0,0,0,12.15,0ZM13,18.67V20a.81.81,0,1,1-1.62,0v-1.3a8,8,0,0,1-3.27-1L8,17.68a.81.81,0,0,1-.36-1.09l0,0a.85.85,0,0,1,1.11-.3l.1.05a6.25,6.25,0,0,0,2.52.76V12.74C9.51,12.15,7.5,11.31,7.5,9c0-2,1.86-3.14,3.84-3.4V4.32a.81.81,0,1,1,1.62,0v1.3a8,8,0,0,1,3.28,1l.12.06a.8.8,0,0,1,.36,1.08l0,0a.84.84,0,0,1-1.11.3l-.1,0A6.42,6.42,0,0,0,13,7.24v4.33c1.84.59,3.84,1.43,3.84,3.71C16.8,17.25,15,18.42,13,18.67Z"/></g></g></svg>