<svg xmlns="http://www.w3.org/2000/svg" viewBox="0 0 28.67 38.26"><defs><style>.cls-1{fill:#f5af00;}</style></defs><g id="Layer_2" data-name="Layer 2"><g id="Layer_1-2" data-name="Layer 1"><path class="cls-1" d="M14.36,38.26A4.31,4.31,0,0,1,13.17,38L13,38A18.36,18.36,0,0,1,0,21.3c0-.16,0-.32,0-.48v-13A1.53,1.53,0,0,1,1.45,6.39h1.4a14.15,14.15,0,0,0,4-.42A10.29,10.29,0,0,0,13,.75L13.1.63A1.48,1.48,0,0,1,14.34,0a1.41,1.41,0,0,1,1.3.78l.07.12a10.37,10.37,0,0,0,9.05,5.49h2.47a1.5,1.5,0,0,1,1.28,1,1.32,1.32,0,0,1-.22,1.45,1.39,1.39,0,0,1-.8.44l-.22,0h-1a18.54,18.54,0,0,1-5-.49,13.21,13.21,0,0,1-6.74-4.51l-.14-.17-.13.17a13.44,13.44,0,0,1-10.29,5h-1v4c0,2.52,0,5.05,0,7.57a15.38,15.38,0,0,0,11,14.42l.11,0a1,1,0,0,0,.37.08l.22,0A15.54,15.54,0,0,0,25.79,20.72V14.27a1,1,0,0,1,0-.26,1.51,1.51,0,0,1,1.5-1.13,1.29,1.29,0,0,1,.89.33,1.52,1.52,0,0,1,.47,1.07v6.44A18.32,18.32,0,0,1,15.72,38l-.65.18-.39.09A1.58,1.58,0,0,1,14.36,38.26ZM12.73,25.38a1.49,1.49,0,0,1-.93-.33L11.7,25,8.48,21.74a1.52,1.52,0,0,1-.38-1.21,1.39,1.39,0,0,1,.63-1,1.35,1.35,0,0,1,.75-.22,1.51,1.51,0,0,1,1,.41l2.2,2.2,5.43-5.42a2.34,2.34,0,0,1,1.07-.42,1.52,1.52,0,0,1,1.26,1,1.33,1.33,0,0,1-.25,1.45L13.74,25a1.25,1.25,0,0,1-.39.28A1.41,1.41,0,0,1,12.73,25.38Z"/></g></g></svg>