<?xml version="1.0" encoding="utf-8"?>
<!-- Generator: Adobe Illustrator 24.2.1, SVG Export Plug-In . SVG Version: 6.00 Build 0)  -->
<svg version="1.1" id="Layer_1" xmlns="http://www.w3.org/2000/svg" xmlns:xlink="http://www.w3.org/1999/xlink" x="0px" y="0px"
	 viewBox="0 0 37.4 37.4" style="enable-background:new 0 0 37.4 37.4;" xml:space="preserve">
<style type="text/css">
	.st0{fill:#F5AF00;}
</style>
<g>
	<path class="st0" d="M35.9,33.2H1.4c-0.8,0-1.4,0.6-1.4,1.4C0,35.4,0.6,36,1.4,36h34.5c0.8,0,1.4-0.6,1.4-1.4
		C37.3,33.8,36.7,33.2,35.9,33.2z"/>
	<path class="st0" d="M33.4,0.2c-2.1,0-3.9,1.7-3.9,3.9c0,1.1,0.5,2.1,1.2,2.8l-7,16.4c0,0-0.1,0-0.1,0c-0.2,0-0.3,0-0.5,0
		l-6.5-12.1c0.6-0.7,0.9-1.6,0.9-2.5c0-2.1-1.7-3.9-3.9-3.9c-2.1,0-3.9,1.7-3.9,3.9c0,0.5,0.1,1,0.3,1.4l-4.6,4.3
		C5,14.2,4.4,14,3.8,14c-2.1,0-3.9,1.7-3.9,3.9c0,2.1,1.7,3.9,3.9,3.9c2.1,0,3.9-1.7,3.9-3.9c0-0.5-0.1-1-0.3-1.4l4.6-4.3
		c0.5,0.2,1.1,0.4,1.7,0.4c0.2,0,0.3,0,0.5,0l6.5,12.1c-0.6,0.7-0.9,1.6-0.9,2.5c0,2.1,1.7,3.9,3.9,3.9c2.1,0,3.9-1.7,3.9-3.9
		c0-1.1-0.5-2.1-1.2-2.8l7-16.4c0,0,0.1,0,0.1,0c2.1,0,3.9-1.7,3.9-3.9C37.3,1.9,35.6,0.2,33.4,0.2z M23.6,28.1
		c-0.6,0-1.1-0.5-1.1-1.1c0-0.6,0.5-1.1,1.1-1.1c0.6,0,1.1,0.5,1.1,1.1C24.7,27.6,24.2,28.1,23.6,28.1z M12.6,8.6
		c0-0.6,0.5-1.1,1.1-1.1s1.1,0.5,1.1,1.1c0,0.6-0.5,1.1-1.1,1.1S12.6,9.2,12.6,8.6z M4.9,17.8c0,0.6-0.5,1.1-1.1,1.1
		s-1.1-0.5-1.1-1.1c0-0.6,0.5-1.1,1.1-1.1S4.9,17.2,4.9,17.8z M33.4,5.1c-0.6,0-1.1-0.5-1.1-1.1s0.5-1.1,1.1-1.1s1.1,0.5,1.1,1.1
		S34,5.1,33.4,5.1z"/>
</g>
</svg>
