<svg xmlns="http://www.w3.org/2000/svg" viewBox="0 0 36.43 33.79"><defs><style>.cls-1{fill:#f5af00;}</style></defs><g id="Layer_2" data-name="Layer 2"><g id="Layer_1-2" data-name="Layer 1"><path class="cls-1" d="M19.57,33.79A16.82,16.82,0,0,1,2.75,18l0-.29H0l4.33-7.2,4.33,7.2H5.72l0,.32A13.74,13.74,0,0,0,19.63,30.81,13.91,13.91,0,0,0,20.28,3H20c-1.11,0-1.58-.46-1.58-1.49A1.39,1.39,0,0,1,19.79,0h.11a16.89,16.89,0,0,1-.33,33.78Z"/><path class="cls-1" d="M14.87,24a1.28,1.28,0,0,1-.95-.4,1.4,1.4,0,0,1,0-1.94l4.5-4.5V8.06a1.24,1.24,0,0,1,1.21-1.27H20a1.26,1.26,0,0,1,1.22,1.27v9.72a1.24,1.24,0,0,1-.34.86l-.08.08-4.9,4.92A1.38,1.38,0,0,1,14.87,24Z"/></g></g></svg>