<svg xmlns="http://www.w3.org/2000/svg" viewBox="0 0 21.86 26.82"><defs><style>.cls-1{opacity:0.25;}.cls-2{fill:#404c55;}</style></defs><g id="Layer_2" data-name="Layer 2"><g id="Layer_1-2" data-name="Layer 1"><g class="cls-1"><circle class="cls-2" cx="10.93" cy="3.03" r="3.03"/><path class="cls-2" d="M7.12,8.1c0,1.48,1.7,1.45,3.81,1.45s3.81,0,3.81-1.45a2.53,2.53,0,0,0-1.58-2.17,3.65,3.65,0,0,1-4.46,0A2.53,2.53,0,0,0,7.12,8.1Z"/><path class="cls-2" d="M2,17.13v3.29a.55.55,0,1,0,1.09,0V17.13a1,1,0,0,1,1-1h6.27v4.31a.55.55,0,0,0,1.1,0V16.11h6.27a1,1,0,0,1,1,1v3.29a.55.55,0,0,0,.55.55.54.54,0,0,0,.55-.55V17.13A2.12,2.12,0,0,0,17.75,15H11.48V11.1a.55.55,0,1,0-1.1,0V15H4.11A2.12,2.12,0,0,0,2,17.13Z"/><circle class="cls-2" cx="2.55" cy="24.27" r="2.55"/><circle class="cls-2" cx="10.93" cy="24.27" r="2.55"/><circle class="cls-2" cx="19.31" cy="24.27" r="2.55"/></g></g></g></svg>