<svg xmlns="http://www.w3.org/2000/svg" viewBox="0 0 37.4 37.4"><defs><style>.cls-1{fill:#f5af00;}</style></defs><g id="Layer_2" data-name="Layer 2"><g id="Layer_1-2" data-name="Layer 1"><path class="cls-1" d="M23.89,20.15a4.83,4.83,0,0,0-1-1.41,4.34,4.34,0,0,0-1.41-.87,20,20,0,0,0-2.08-.67V12.84a2.48,2.48,0,0,1,1.71,1.74,1.33,1.33,0,0,0,1.33,1.13,1.38,1.38,0,0,0,.95-.38,1.29,1.29,0,0,0,.38-.91,2.63,2.63,0,0,0-.25-1,4.57,4.57,0,0,0-.75-1.12,3.81,3.81,0,0,0-1.41-1,6.34,6.34,0,0,0-2-.46V9.6c0-.58-.2-.87-.66-.87s-.67.29-.67.87v1.12a5.18,5.18,0,0,0-3.36,1.37,4,4,0,0,0-1.16,3,4.18,4.18,0,0,0,.58,2.29,4.37,4.37,0,0,0,1.53,1.37,11.42,11.42,0,0,0,2.37.87v4.91a2.7,2.7,0,0,1-1.12-.59,2.26,2.26,0,0,1-.62-.83c-.13-.29-.29-.75-.5-1.33a1.33,1.33,0,0,0-.46-.62,1.24,1.24,0,0,0-.79-.21,1.29,1.29,0,0,0-1,.42,1.42,1.42,0,0,0-.42.91,3.49,3.49,0,0,0,.29,1.41,4.69,4.69,0,0,0,.92,1.38,5.66,5.66,0,0,0,1.53,1.12,6.58,6.58,0,0,0,2.16.58v1a1,1,0,0,0,.17.7.56.56,0,0,0,.54.25c.29,0,.46-.08.54-.29a2.62,2.62,0,0,0,.12-.91v-.75A5.8,5.8,0,0,0,22,26a4.64,4.64,0,0,0,1.66-1.7A4.72,4.72,0,0,0,24.27,22,4.27,4.27,0,0,0,23.89,20.15Zm-5.82-3.24a4.41,4.41,0,0,1-1.41-.79,1.58,1.58,0,0,1-.45-1.29,1.71,1.71,0,0,1,.49-1.33,3.43,3.43,0,0,1,1.42-.7v4.11Zm3,6.94a3.14,3.14,0,0,1-1.67.87V20.07a4.26,4.26,0,0,1,1.67.87,1.93,1.93,0,0,1,.58,1.41A2.18,2.18,0,0,1,21.07,23.85Z"/><path class="cls-1" d="M18.7,2.49A16.21,16.21,0,1,1,2.49,18.7,16.22,16.22,0,0,1,18.7,2.49M18.7,0A18.7,18.7,0,1,0,37.4,18.7,18.67,18.67,0,0,0,18.7,0Z"/></g></g></svg>