<?xml version="1.0" encoding="utf-8"?>
<!-- Generator: Adobe Illustrator 24.2.1, SVG Export Plug-In . SVG Version: 6.00 Build 0)  -->
<svg version="1.1" id="Layer_1" xmlns="http://www.w3.org/2000/svg" xmlns:xlink="http://www.w3.org/1999/xlink" x="0px" y="0px"
	 viewBox="0 0 37.4 37.4" style="enable-background:new 0 0 37.4 37.4;" xml:space="preserve">
<style type="text/css">
	.st0{fill:#F5AF00;}
</style>
<g>
	<path class="st0" d="M18.4,2.2h-1C16.9,0.9,15.7,0,14.2,0c-1.4,0-2.6,0.9-3.1,2.2h-1c-0.9,0-1.7,0.7-1.7,1.7v2.9
		c0,0.9,0.7,1.7,1.7,1.7h8.3c0.9,0,1.7-0.7,1.7-1.7V3.8C20,2.9,19.3,2.2,18.4,2.2z M14.2,4.8c-0.8,0-1.4-0.6-1.4-1.4
		c0-0.8,0.6-1.4,1.4-1.4c0.8,0,1.4,0.6,1.4,1.4C15.7,4.1,15,4.8,14.2,4.8z"/>
	<path class="st0" d="M6.6,11.6h0.7c1.1,0,2,0.9,2,2v0c0,1.1-0.9,2-2,2H6.6c-1.1,0-2-0.9-2-2v0C4.5,12.5,5.4,11.6,6.6,11.6z"/>
	<rect x="12.2" y="12.9" class="st0" width="11.7" height="1.6"/>
	<path class="st0" d="M6.6,19.8h0.7c1.1,0,2,0.9,2,2v0c0,1.1-0.9,2-2,2H6.6c-1.1,0-2-0.9-2-2v0C4.5,20.7,5.4,19.8,6.6,19.8z"/>
	<path class="st0" d="M6.6,27.9h0.7c1.1,0,2,0.9,2,2v0c0,1.1-0.9,2-2,2H6.6c-1.1,0-2-0.9-2-2v0C4.5,28.8,5.4,27.9,6.6,27.9z"/>
	<path class="st0" d="M26.2,34.9c0,0.1-0.1,0.1-0.1,0.1H2.4c-0.1,0-0.1-0.1-0.1-0.1V6.8c0-0.1,0.1-0.1,0.1-0.1h4.3V4.4H2.4
		C1.1,4.4,0,5.5,0,6.8v28.1c0,1.3,1.1,2.4,2.4,2.4H26c1.3,0,2.4-1.1,2.4-2.4v-9.4l-2.3,2.3L26.2,34.9L26.2,34.9z"/>
	<path class="st0" d="M26,4.4h-4.3v2.3H26c0.1,0,0.1,0.1,0.1,0.1v9.6l2.3-2.3V6.8C28.4,5.5,27.4,4.4,26,4.4z"/>
	<polygon class="st0" points="12.2,21 12.2,22.6 20,22.6 21.5,21 	"/>
	<path class="st0" d="M15.8,29.2L15.8,29.2l-3.6-0.1v1.6h3.5C15.5,30.2,15.6,29.7,15.8,29.2z"/>
	<path class="st0" d="M37.2,13.2L35,11.1c-0.1-0.1-0.3-0.2-0.6-0.2s-0.4,0.1-0.6,0.2l-2.3,2.3L19,26c-0.1,0.1-0.1,0.2-0.2,0.3
		l-1.5,3.6c-0.1,0.3-0.1,0.6,0.2,0.9c0.2,0.2,0.4,0.2,0.6,0.2c0.1,0,0.2,0,0.3-0.1l3.6-1.5v0c0.1,0,0.2-0.1,0.3-0.2l12.7-12.7
		l2.3-2.3C37.5,14,37.5,13.5,37.2,13.2z M19,29.2l0.7-1.7l1,1L19,29.2z M34.3,14.9l-1-1l1.2-1.2l1,1L34.3,14.9z"/>
</g>
</svg>
