<svg xmlns="http://www.w3.org/2000/svg" viewBox="0 0 26.42 23.12"><defs><style>.cls-1{fill:#f5af00;fill-rule:evenodd;}</style></defs><g id="Layer_2" data-name="Layer 2"><g id="Layer_1-2" data-name="Layer 1"><path class="cls-1" d="M13.23,23.12a.83.83,0,0,0,.43-.13l1.43-.91c.52-.34,1.09-.7,1.67-1.1s1.18-.83,1.79-1.3,1.22-1,1.83-1.55,1.2-1.16,1.77-1.81a20.42,20.42,0,0,0,1.62-2.12,18,18,0,0,0,1.38-2.44,17,17,0,0,0,1-2.78h0a7,7,0,0,0,.23-1.42,7.34,7.34,0,0,0-.05-1.41A7.61,7.61,0,0,0,26,4.81a7.7,7.7,0,0,0-.56-1.24,7.36,7.36,0,0,0-.8-1.12,6.87,6.87,0,0,0-1-.94A6.55,6.55,0,0,0,22.49.76,7.11,7.11,0,0,0,21.14.24,7.92,7.92,0,0,0,19.72,0a6.54,6.54,0,0,0-1.4.06A6.71,6.71,0,0,0,17,.39,7.06,7.06,0,0,0,15.73,1a7.73,7.73,0,0,0-1.11.79,7.52,7.52,0,0,0-.95,1c-.17.23-.31.48-.46.73a6,6,0,0,0-.46-.73,6.43,6.43,0,0,0-.95-1A6.76,6.76,0,0,0,10.69,1,7,7,0,0,0,9.45.39,6.71,6.71,0,0,0,8.11.07,6.54,6.54,0,0,0,6.71,0,7.64,7.64,0,0,0,5.29.24,7,7,0,0,0,3.93.76a6.55,6.55,0,0,0-1.18.75,6.87,6.87,0,0,0-1,.94A7.3,7.3,0,0,0,1,3.57,7,7,0,0,0,.39,4.81,6.78,6.78,0,0,0,.07,6.14,6.61,6.61,0,0,0,0,7.55,7.78,7.78,0,0,0,.24,9h0a19,19,0,0,0,1,2.78A18,18,0,0,0,2.65,14.2a20.42,20.42,0,0,0,1.62,2.12,23.46,23.46,0,0,0,1.78,1.81c.6.56,1.22,1.07,1.83,1.55s1.21.9,1.79,1.3,1.14.76,1.66,1.1l1.43.91A.8.8,0,0,0,13.23,23.12Z"/></g></g></svg>