<?xml version="1.0" encoding="utf-8"?>
<!-- Generator: Adobe Illustrator 24.2.1, SVG Export Plug-In . SVG Version: 6.00 Build 0)  -->
<svg version="1.1" id="Layer_1" xmlns="http://www.w3.org/2000/svg" xmlns:xlink="http://www.w3.org/1999/xlink" x="0px" y="0px"
	 viewBox="0 0 37.4 37.4" style="enable-background:new 0 0 37.4 37.4;" xml:space="preserve">
<style type="text/css">
	.st0{fill:#F5AF00;}
</style>
<g>
	<path class="st0" d="M18.6,8C8.3,8-0.1,16.4-0.1,26.7v1.2h14.6c0.7,2.3,3,3.5,5.3,2.9c1.4-0.4,2.5-1.5,2.9-2.9h14.6v-1.2
		C37.4,16.4,29,8,18.6,8z M18.6,28.5c-1-0.1-1.8-0.9-1.7-2c0.1-0.9,0.8-1.7,1.7-1.7c0.2,0,0.3,0,0.5,0.1c0.4,0.1,0.7,0.3,0.9,0.6
		c0.3,0.3,0.5,0.8,0.5,1.2c0,0.1,0,0.1,0,0.2C20.4,27.9,19.6,28.6,18.6,28.5z M22.7,25.5C22.7,25.4,22.7,25.4,22.7,25.5l6.4-4.5
		l-1.4-2l-6.4,4.4c-0.8-0.6-1.7-1-2.7-1c-1.9,0-3.5,1.2-4.1,3H2.4c0.1-1.4,0.4-2.7,0.8-4l3,1.3l0.9-2.2l-3-1.3
		c0.6-1.1,1.3-2.2,2.1-3.2l2.3,2.3l1.7-1.7L8,14.4c1-0.9,2.1-1.6,3.2-2.2l1.3,3.1l2.2-0.9l-1.3-3c1.3-0.4,2.6-0.7,3.9-0.7v3.3h2.4
		v-3.3c1.3,0.1,2.6,0.3,3.9,0.7l-1.3,3.1l2.2,0.9l1.3-3.1c1.2,0.6,2.3,1.3,3.2,2.2l-2.3,2.3l1.7,1.7l2.3-2.3c0.9,1,1.6,2.1,2.2,3.3
		l-3.1,1.3l0.9,2.2l3.1-1.3c0.4,1.3,0.7,2.5,0.8,3.9H22.7z"/>
</g>
</svg>
