<svg xmlns="http://www.w3.org/2000/svg" viewBox="0 0 134.67 35.51"><defs><style>.cls-1{fill:#404c55;fill-rule:evenodd;}</style></defs><g id="Layer_2" data-name="Layer 2"><g id="Layer_1-2" data-name="Layer 1"><path class="cls-1" d="M30.57,20.15c0-.26,0-.53,0-.8a14.44,14.44,0,0,0-28.88,0c0,.27,0,.54,0,.8L0,20.31q0-.48,0-1a16.1,16.1,0,0,1,4.33-11L3.48,7.5l-.4.4a.24.24,0,0,1-.33,0l-.58-.58a.25.25,0,0,1,0-.34L3.79,5.36a.24.24,0,0,1,.34,0l.58.57a.25.25,0,0,1,0,.34l-.4.4.85.85A16.06,16.06,0,0,1,15.25,3.21V2.06h-.76A.54.54,0,0,1,14,1.52v-1A.54.54,0,0,1,14.49,0h3.35a.54.54,0,0,1,.54.54v1a.54.54,0,0,1-.54.54h-.76V3.21a16.18,16.18,0,0,1,10.09,4.3L28,6.67l-.4-.4a.25.25,0,0,1,0-.34l.58-.57a.24.24,0,0,1,.34,0L30.15,7a.25.25,0,0,1,0,.34l-.57.58a.25.25,0,0,1-.34,0l-.4-.4L28,8.34a16.1,16.1,0,0,1,4.33,11q0,.48,0,1Z"/><path class="cls-1" d="M16.16,8.52a12.37,12.37,0,0,0-2.63,4.09,16.77,16.77,0,0,0-1.18,6.28,16.75,16.75,0,0,0,1.18,6.27,19.63,19.63,0,0,0,1.65,3.07l.33.58a12.68,12.68,0,0,1,.65,1.34c.19-.45.41-.9.65-1.34.1-.18.21-.38.33-.58a28.55,28.55,0,0,0,1.65-3.07A16.06,16.06,0,0,0,19.84,21a13.47,13.47,0,0,1,1.81-2l0,0a18.85,18.85,0,0,1-.7,5.12,31.17,31.17,0,0,1,4.1-2.26A11.6,11.6,0,0,0,24.75,16a11.19,11.19,0,0,0-3.68,2.29c-3.24,3-3.9,5.62-4.91,9.64-.25-.31-1.32-5.14-2.85-7.3h0v0h0v0h0v0h0v0h0v0h0v0h0v0h0v0h0v0h0a16.17,16.17,0,0,1,0-2.41h0v0h0v0h0v0h0v0h0v0a17.19,17.19,0,0,1,2.91,4.24,16.79,16.79,0,0,1,3.7-5,16.15,16.15,0,0,0-1.07-4.5,12.37,12.37,0,0,0-2.63-4.09Zm10,21.27c-.22.19-.44.38-.67.56A14.13,14.13,0,0,1,23,32a12.58,12.58,0,0,1-2.11.85l-.75.2a14.5,14.5,0,0,0,1.39-1.12,15.06,15.06,0,0,0,1.41-1.46h0a16.56,16.56,0,0,0,1.58-2.21,17.38,17.38,0,0,0,.84-1.54,17.81,17.81,0,0,0,1-2.58,11.77,11.77,0,0,0-2.15.94c-.13.3-.26.6-.4.9a15.84,15.84,0,0,1-1.33,2.28,15.23,15.23,0,0,1-1.89,2.21l-.21.19a11.55,11.55,0,0,1-3.17,2.09,4.14,4.14,0,0,1,.18-.81,11.91,11.91,0,0,1,.95-2.27,14.75,14.75,0,0,1,.92-1.41,14.18,14.18,0,0,1,2.48-2.55,13.7,13.7,0,0,1,4.6-2.47,9.93,9.93,0,0,1,3.79-.43,6.6,6.6,0,0,1-.15.85,14.43,14.43,0,0,1-3.58,5.93,2.5,2.5,0,0,0-.23.23Zm.76-8.51a11.07,11.07,0,0,1,4.28-.09l1,.23a19.14,19.14,0,0,1-1.84,5.8,15.06,15.06,0,0,1-2.93,3.7,16.16,16.16,0,0,1-22.55,0A15.34,15.34,0,0,1,2,27.22,16.75,16.75,0,0,1,.17,21.69l-.05-.31.3-.05.72-.14a11,11,0,0,1,4.26.09c0-.28-.05-.56-.07-.83a12.52,12.52,0,0,1,1-5.82l.3-.66.7.18a11.3,11.3,0,0,1,2.8,1.18c.26.16.53.32.79.5A18.2,18.2,0,0,1,11.93,12,13.52,13.52,0,0,1,15.6,6.7l.56-.48.56.48A13.52,13.52,0,0,1,20.39,12a15.55,15.55,0,0,1,1.08,3.86h0A11.68,11.68,0,0,1,25,14.15l.7-.18.3.66a12.44,12.44,0,0,1,.85,6.66ZM6.19,29.79c.21.19.43.38.66.56a13.7,13.7,0,0,0,4.6,2.47l.75.2a14.5,14.5,0,0,1-1.39-1.12A17.08,17.08,0,0,1,7,26.69a17.83,17.83,0,0,1-1.26-3.56,10,10,0,0,0-3.51-.35c.31,2.46,2.22,5.33,4,7Zm5.15-5.73a16.21,16.21,0,0,0-3.17-1.88,14.92,14.92,0,0,0,.67,2.28,13.62,13.62,0,0,1,1.77,1.22,13.79,13.79,0,0,1,3.4,4,10.55,10.55,0,0,1,1.15,3.08h0A11.55,11.55,0,0,1,12,30.63,15.66,15.66,0,0,1,7.05,20.35,11.12,11.12,0,0,1,7.57,16a10.14,10.14,0,0,1,2.26,1.17c.28.19.56.39.83.61,0,.35,0,.71,0,1.07A18.77,18.77,0,0,0,11.34,24.06Z"/><path class="cls-1" d="M46.51,13.48V24.26h7.57V22.38H48.54v-8.9Zm17-.2A5.44,5.44,0,0,0,57.89,19a5.24,5.24,0,0,0,5.53,5.55c3.79,0,5.49-2.78,5.53-5.56a5.36,5.36,0,0,0-5.48-5.66ZM59.89,19A3.54,3.54,0,1,1,67,19a3.41,3.41,0,0,1-3.53,3.67c-2.53,0-3.49-1.89-3.53-3.66Zm16.24,5.28h2V15.32h3.41V13.48H72.71v1.84h3.42v8.94ZM93.5,13.51v6.16c0,1.85-1,3-2.63,3a2.64,2.64,0,0,1-2.78-3V13.51h-2v6.16a4.49,4.49,0,0,0,4.78,4.82c2.7,0,4.66-1.63,4.66-4.82V13.51Zm15.56,1.75c-.81-1.66-2.55-2.14-4.22-2.14-2,0-4.17.93-4.17,3.14,0,2.41,2,3,4.23,3.26,1.43.15,2.49.57,2.49,1.58,0,1.17-1.2,1.62-2.48,1.62a3.06,3.06,0,0,1-3-1.71l-1.69.88c.8,2,2.49,2.64,4.69,2.64,2.4,0,4.52-1,4.52-3.43,0-2.56-2.09-3.15-4.33-3.42-1.3-.16-2.4-.42-2.4-1.36s.72-1.43,2.23-1.43a3.09,3.09,0,0,1,2.55,1.2Z"/><path class="cls-1" d="M126,24.26h2.21L123.4,13.48h-2.22l-4.83,10.78h2.2l.92-2h5.63l.91,2Zm-1.72-3.92h-4l2-4.6,2,4.6Zm10.38,3.92V13.48h-2V24.26Z"/></g></g></svg>