<?xml version="1.0" encoding="utf-8"?>
<!-- Generator: Adobe Illustrator 24.1.2, SVG Export Plug-In . SVG Version: 6.00 Build 0)  -->
<svg version="1.1" id="Layer_1" xmlns="http://www.w3.org/2000/svg" xmlns:xlink="http://www.w3.org/1999/xlink" x="0px" y="0px"
	 viewBox="0 0 2516.9 2759.6" style="enable-background:new 0 0 2516.9 2759.6;" xml:space="preserve">
<style type="text/css">
	.st0{fill-rule:evenodd;clip-rule:evenodd;fill:#F2F2F4;}
</style>
<g id="Group_11852-2">
	<path id="Path_15245" class="st0" d="M1294.1,456.9c-27.1-121.1-29.8-246.3-8-368.5L1305.4,0c184.4,40.1,329.1,63.6,498.8,158.3
		c118.4,66.8,225.6,151.7,317.8,251.6c526.1,539.4,526.5,1400.1,0.8,1939.9C2030.4,2450,1923,2535,1804.3,2602
		c-148.5,78.3-309.5,130.1-475.7,153.3l-25.9,4.3l-4.7-25.9l-11.8-61.5c-21.7-121.6-19.1-246.3,7.6-366.9c-24,2.8-47.7,5-71.1,6.5
		C1052,2325,880.5,2297,722.8,2230l-57.3-25.9l16-60.6c22.7-84.3,56.8-165.1,101.2-240.2c13.4-23,27.9-45.7,43.3-68.2
		c-114-17.9-225.5-48.6-332.6-91.6c-174.1-67.4-329.5-175.6-452.9-315.7L0,1380.1l40.5-47.8c123.4-140,278.8-248.3,452.9-315.7
		c105.9-45.4,217.3-76.8,331.3-93.3l0,0C760,830,711.5,726.4,681.6,616.8l-16-60.6l57.3-25.9c180.3-76.3,378-101.7,571.7-73.3
		L1294.1,456.9z"/>
</g>
</svg>
