<svg xmlns="http://www.w3.org/2000/svg"><defs><font id="CircularStd-MediumItalic" horiz-adv-x="570"><font-face font-family="CircularStd" font-weight="500" font-style="italic" panose-1="2 11 6 4 2 1 1 1 1 2" ascent="809" descent="-191" x-height="487" cap-height="709" bbox="-134 -234 1577 979" underline-thickness="80" underline-position="-195" slope="-12" stemh="104" stemv="91" unicode-range="U+000D-FEFF"/><glyph glyph-name="f_f" unicode="ff" horiz-adv-x="652" d="M144 0L27.001.002l82 387h-82l21 100h83l18 86c27 128 110 157 184 157 38 0 66-11 73-15l-21-96c0-.053-.042-.078-.124-.078-1.485 0-16.244 8.077-40.876 8.077-38 0-70-17-81-69l-16-71h187l18 86c27 128 110 157 184 157 38 0 66-11 73-15l-21-96c0-.053-.042-.078-.125-.078-1.485 0-16.244 8.077-40.876 8.077-38 0-70-17-81-69l-15-71h106l-21-100H529L448 0H330l82 387H226z"/><glyph glyph-name="f_f_i" unicode="ffi" horiz-adv-x="909" d="M762 653c0 46 40 82 83 82 40 0 68-29 68-66 0-48-41-83-83-83-40 0-68 30-68 67zM144 0L27.001.002l82 387h-82l21 100h83l18 86c27 128 110 157 184 157 38 0 66-11 73-15l-21-96c0-.053-.042-.078-.124-.078-1.485 0-16.244 8.077-40.876 8.077-38 0-70-17-81-69l-16-71h187l18 86c27 128 110 157 184 157 38 0 66-11 73-15l-21-96c0-.053-.042-.078-.125-.078-1.485 0-16.244 8.077-40.876 8.077-38 0-70-17-81-69l-15-71h309L756 0H641l83 387H529L448 0H330l82 387H226z"/><glyph glyph-name="f_f_l" unicode="ffl" horiz-adv-x="914" d="M144 0L27.001.002l82 387h-82l21 100h83l18 86c27 128 110 157 184 157 38 0 66-11 73-15l-21-96c0-.053-.042-.078-.124-.078-1.485 0-16.244 8.077-40.876 8.077-38 0-70-17-81-69l-16-71h187l18 86c27 128 110 157 184 157 38 0 66-11 73-15l-21-96c0-.053-.042-.078-.125-.078-1.485 0-16.244 8.077-40.876 8.077-38 0-70-17-81-69l-15-71h200l51 237h115L763 0H648l82 387H529L448 0H330l82 387H226z"/><glyph glyph-name="f_i" unicode="fi" horiz-adv-x="612" d="M226 387L144 .001H27l82 387H27l21 100h83l19 89c26 125 109 154 183 154 38 0 66-11 73-15l-21-96c0-.053-.044-.078-.132-.078-1.58 0-17.236 8.077-41.868 8.077-40 0-70-20-81-72l-15-68h316L459 0H344l82 387H226zm239 266.001c0 46 40 82 83 82 40 0 68-29 68-66 0-48-41-83-83-83-40 0-68 30-68 67z"/><glyph glyph-name="f_l" unicode="fl" horiz-adv-x="610" d="M226 387L144 .001H27l82 387H27l21 100h83l19 89c26 125 109 154 183 154 38 0 66-11 73-15l-21-96c0-.053-.044-.078-.132-.078-1.58 0-17.236 8.077-41.868 8.077-40 0-70-20-81-72l-15-68h200l51 237h115L459 0H344l82 387H226z"/><glyph glyph-name=".notdef" horiz-adv-x="569" d="M2 0v709h565V0H2zm96 96h373v517H98V96z"/><glyph glyph-name=".null" horiz-adv-x="0"/><glyph glyph-name=".null" horiz-adv-x="0"/><glyph glyph-name="uni000D" horiz-adv-x="261"/><glyph glyph-name="space" horiz-adv-x="261"/><glyph glyph-name="exclam" unicode="!" horiz-adv-x="311" d="M80 210l75 499h143L164 210H80zM22 58c0 44 35 82 80 82 41 0 67-29 67-65 0-46-39-82-80-82-40 0-67 29-67 65z"/><glyph glyph-name="quotedbl" unicode="&quot;" horiz-adv-x="413" d="M128 383H86l-4 200c0 44 30 76 74 76 38 0 64-25 64-60 0-12-5-28-10-39zm181 0h-42l-4 200c0 44 30 76 74 76 38 0 64-25 64-60 0-12-5-28-10-39z"/><glyph glyph-name="numbersign" unicode="#" horiz-adv-x="724" d="M83 400v87h143l35 161h96l-35-161h136l35 161h95l-35-161h131v-87H535l-32-149h131v-87H484L449 0h-95l35 164H253L218 0h-96l35 164H33v87h143l32 149H83zm221 0l-32-149h135l33 149H304z"/><glyph glyph-name="dollar" unicode="$" d="M149-117L173-4C60 27 14 121 14 199c0 8 0 19 1 19l108 18c-1-6-1-12-1-18 0-49 22-99 72-121l40 190-12 6c-78 38-122 91-122 171 0 112 94 194 214 199l22 103h94l-24-114c105-30 139-119 139-176l-107-20c0 22-8 70-54 94l-40-192 7-3c90-44 132-100 132-174 0-101-84-192-218-196l-21-102h-95zm64 592c0-33 15-57 45-75l34 161c-48-9-79-45-79-86zm154-303c0 29-15 52-47 72L287 88c50 9 79 40 80 84z"/><glyph glyph-name="percent" unicode="%" horiz-adv-x="781" d="M202 425c39 0 78 32 78 85 0 37-24 62-63 62s-77-34-77-84c0-37 23-63 62-63zm-8-87c-85 0-146 64-146 144 0 100 83 177 178 177 84 0 146-64 146-145 0-102-89-176-178-176zM566 80c39 0 78 32 78 85 0 37-24 62-63 62s-77-34-77-84c0-37 23-63 62-63zm-8-87c-85 0-146 64-146 144 0 100 83 177 178 177 84 0 146-64 146-145C736 67 647-7 558-7zm185 655L145 0H35l599 648h109z"/><glyph glyph-name="ampersand" unicode="&amp;" horiz-adv-x="680" d="M598 0H463l-56 80-11-9C337 21 282-8 206-8 84-8 10 76 10 171c0 106 72 166 164 215l15 8-11 15c-23 32-50 76-50 130 0 124 104 185 202 185 111 0 178-72 178-159 0-93-72-144-139-181l-28-16 94-135 211 180-33-157-122-104zM128 178c0-44 37-82 91-82 43 0 86 27 124 59l8 6-107 153-35-19c-56-31-81-62-81-117zm158 268l34 18c57 30 75 63 75 97 0 39-29 65-73 65-35 0-81-23-81-83 0-26 12-50 25-68z"/><glyph glyph-name="quotesingle" unicode="'" horiz-adv-x="225" d="M128 383H86l-4 200c0 44 30 76 74 76 38 0 64-25 64-60 0-12-5-28-10-39z"/><glyph glyph-name="parenleft" unicode="(" horiz-adv-x="305" d="M32 204c0 249 109 459 316 600l53-72C249 621 131 452 131 210c0-117 36-225 94-318l-79-49C84-65 32 60 32 204z"/><glyph glyph-name="parenright" unicode=")" horiz-adv-x="306" d="M272 436c0-246-114-452-317-597l-53 71C53 24 173 191 173 435c0 115-35 223-93 315l79 49c65-97 113-221 113-363z"/><glyph glyph-name="asterisk" unicode="*" horiz-adv-x="444" d="M336 709l-25-130 126 40 12-88-128-40 60-100-79-53-61 106-99-106-66 54 100 105-113 39 41 83 112-40 21 130h99z"/><glyph glyph-name="plus" unicode="+" horiz-adv-x="576" d="M330 244V47h-99v197H43v95h188v195h99V339h189v-95H330z"/><glyph glyph-name="comma" unicode="," horiz-adv-x="286" d="M4 63c0 50 40 86 90 86s85-36 85-91c0-117-93-216-214-223l13 61C29-96 85-54 96-1c-4-2-14-4-23-4C33-5 4 23 4 63z"/><glyph glyph-name="hyphen" unicode="-" horiz-adv-x="362" d="M297 241H15l22 103h281z"/><glyph glyph-name="period" unicode="." horiz-adv-x="272" d="M75-6C30-6 0 28 0 67c0 48 41 89 91 89 46 0 74-33 74-72 0-50-41-90-90-90z"/><glyph glyph-name="slash" unicode="/" horiz-adv-x="465" d="M550 724L33-15H-80l516 739h114z"/><glyph glyph-name="zero" unicode="0" horiz-adv-x="607" d="M147 239c0-86 35-147 119-147 136 0 184 205 184 321 0 84-31 143-119 143-136 0-184-200-184-317zM259-15C94-15 28 109 28 238c0 174 87 425 310 425 169 0 231-123 231-250 0-183-93-428-310-428z"/><glyph glyph-name="one" unicode="1" horiz-adv-x="356" d="M192 0H73l97 453H30l17 78c82 5 150 51 178 117h104z"/><glyph glyph-name="two" unicode="2" horiz-adv-x="544" d="M-32 0c1 6 4 21 4 27 22 113 81 203 207 261l120 55c52 24 109 60 109 126 0 46-30 90-100 90-78 0-125-56-125-145v-8L69 417v6c0 133 93 240 245 240 146 0 214-84 214-186 0-105-67-174-170-222l-140-64c-32-15-70-43-89-85h334L440 0H-32z"/><glyph glyph-name="three" unicode="3" horiz-adv-x="542" d="M209 305l-42 98 216 140H83l21 105h450l-26-125-204-133c82-9 151-73 151-172 0-120-98-233-252-233C73-15-8 87-8 192c0 7 0 14 2 23l117 13c-1-8-2-15-2-22 0-62 41-117 115-117s129 50 129 123c0 70-54 99-106 99-13 0-27-3-38-6z"/><glyph glyph-name="four" unicode="4" horiz-adv-x="592" d="M-10 142l27 132 362 374h149l-86-400h115l-22-106H419L391 0H273l28 142H-10zm334 106l59 271-261-271h202z"/><glyph glyph-name="five" unicode="5" horiz-adv-x="538" d="M-5 193v6l114 22c-1-6-1-12-1-14 0-60 37-119 116-119 67 0 130 46 130 133 0 66-45 105-110 105-42 0-73-14-97-34L44 348l137 300h357l-22-105H245l-68-145c28 17 63 25 99 25 121 0 200-71 200-189C476 98 374-15 222-15 87-15-5 77-5 193z"/><glyph glyph-name="six" unicode="6" horiz-adv-x="566" d="M575 625l-47-93c-34 17-76 26-119 26-117 0-211-70-245-185 32 33 84 57 145 57 126 0 202-77 202-189C511 86 390-15 251-15 125-15 22 76 22 231c0 228 151 429 391 429 65 0 127-12 162-35zM276 331c-75 0-133-54-133-131 0-65 47-112 113-112 68 0 132 50 132 136 0 65-43 107-112 107z"/><glyph glyph-name="seven" unicode="7" horiz-adv-x="506" d="M549 648l-22-105C463 500 245 335 146 0H20c92 353 343 526 367 543H44l22 105h483z"/><glyph glyph-name="eight" unicode="8" horiz-adv-x="557" d="M292 376c68 0 117 44 117 105 0 43-33 84-95 84-77 0-119-48-119-105 0-43 32-84 97-84zM121 175c0-56 46-92 113-92 73 0 127 48 127 110 0 50-35 93-111 93s-129-48-129-111zm358 11C479 61 363-15 226-15S2 57 2 163c0 84 61 152 160 173-43 19-83 72-83 130 0 119 106 197 238 197 137 0 212-75 212-167 0-79-53-146-142-170 58-21 92-80 92-140z"/><glyph glyph-name="nine" unicode="9" horiz-adv-x="562" d="M165 428c0-64 44-107 111-107 75 0 129 54 129 130 0 66-47 109-110 109-66 0-130-47-130-132zM-22 38l48 92c42-28 89-38 135-38 121 0 211 78 231 196-29-39-78-65-145-65-115 0-203 78-203 196 0 152 121 244 257 244 131 0 230-84 230-245 0-255-143-433-371-433C95-15 25 1-22 38z"/><glyph glyph-name="colon" unicode=":" horiz-adv-x="294" d="M79-6C35-6 5 28 5 66c0 48 41 88 90 88 46 0 73-32 73-71 0-49-40-89-89-89zm74 338c-44 0-74 34-74 72 0 48 41 88 90 88 46 0 73-32 73-71 0-49-40-89-89-89z"/><glyph glyph-name="semicolon" unicode=";" horiz-adv-x="294" d="M-1 61c0 48 38 83 86 83s81-35 81-88c0-111-89-206-204-213l12 59C23-91 76-51 87 0c-4-2-14-4-22-4C27-4-1 23-1 61zm154 273c-44 0-74 34-74 72 0 48 41 88 90 88 46 0 73-32 73-71 0-49-40-89-89-89z"/><glyph glyph-name="less" unicode="&lt;" horiz-adv-x="495" d="M23 244v94l422 212V439L143 292l302-148V33z"/><glyph glyph-name="equal" unicode="=" horiz-adv-x="618" d="M62 343v94h475v-94H62zm0-197v95h475v-95H62z"/><glyph glyph-name="greater" unicode="&gt;" horiz-adv-x="495" d="M452 338v-94L30 33v110l303 148L30 438v112z"/><glyph glyph-name="question" unicode="?" horiz-adv-x="505" d="M252 209h-97c3 71 32 143 113 190l54 31c45 26 68 62 68 104 0 43-30 85-96 85-87 0-128-68-128-142L55 491c3 134 101 233 248 233 138 0 208-84 208-173 0-100-60-163-139-208l-50-28c-44-26-66-62-70-106zM115 58c0 44 35 82 80 82 41 0 67-29 67-65 0-46-39-82-80-82-40 0-67 29-67 65z"/><glyph glyph-name="at" unicode="@" horiz-adv-x="810" d="M431-47C197-47 30 105 30 332c0 233 178 392 391 392 205 0 359-140 359-327 0-151-94-258-199-259-49 0-84 24-95 60-27-40-75-62-119-62-88 0-152 70-152 172 0 132 92 229 198 229 39 0 86-19 102-58l8 45h88l-53-248c-1-9-2-16-2-24 0-18 10-35 34-35 52 0 103 80 103 179 0 143-110 246-271 246-171 0-299-124-299-310 0-170 114-298 308-298 67 0 136 20 194 64l44-61c-55-52-156-84-238-84zm62 415c0 53-27 85-75 85-66 0-109-65-109-135 0-56 20-99 77-99 61 0 104 62 107 149z"/><glyph glyph-name="A" unicode="A" horiz-adv-x="668" d="M477 0l-27 178H165L63 0H-72l419 709h135L600 0H477zm-87 574L228 289h205z"/><glyph glyph-name="B" unicode="B" horiz-adv-x="607" d="M160 709h226c124 0 186-71 186-165 0-84-57-162-139-185 53-17 99-70 99-142C532 92 431 0 288 0H10zm55-300h102c81 0 134 48 134 116 0 50-33 82-99 82h-95zm-65-307h121c81 0 140 49 140 120 0 50-31 86-103 86H194z"/><glyph glyph-name="C" unicode="C" horiz-adv-x="719" d="M416 724c184 0 272-112 294-227l-115-35c-16 77-74 149-188 149-148 0-251-132-251-300 0-129 74-213 195-213 101 0 168 60 206 145l106-43C614 83 508-15 340-15 159-15 33 118 33 304c0 271 193 420 383 420z"/><glyph glyph-name="D" unicode="D" horiz-adv-x="699" d="M152 111h136c119 0 255 100 255 303 0 117-75 186-196 186h-91zM286 0H10l149 709h203c187 0 303-116 303-290C665 145 477 0 286 0z"/><glyph glyph-name="E" unicode="E" horiz-adv-x="578" d="M445 0H10l150 709h435l-24-112H257l-40-188h285l-24-109H194l-41-188h315z"/><glyph glyph-name="F" unicode="F" horiz-adv-x="562" d="M130 0H10l150 709h437l-24-113H256l-42-199h284l-23-111H191z"/><glyph glyph-name="G" unicode="G" horiz-adv-x="749" d="M408 612c-146 0-253-129-253-301 0-130 74-216 196-216 101 0 187 62 213 159H333l22 105h344L623 0h-92l5 76c-46-56-113-90-201-90C164-14 33 110 33 304c0 271 192 420 385 420 181 0 272-109 294-224l-116-34c-16 76-74 146-188 146z"/><glyph glyph-name="H" unicode="H" horiz-adv-x="717" d="M557 0H436l64 303H194L130 0H10l150 709h120l-62-293h306l62 293h121z"/><glyph glyph-name="I" unicode="I" horiz-adv-x="292" d="M132 0H10l150 709h122z"/><glyph glyph-name="J" unicode="J" horiz-adv-x="549" d="M428 709h121L440 197C413 70 331-14 207-14 77-14 5 68 5 178c0 21 3 47 7 67l5 24 119 18-11-54c-2-12-5-27-5-39 0-56 30-98 92-98 59 0 95 43 109 110z"/><glyph glyph-name="K" unicode="K" horiz-adv-x="677" d="M452 0L288 311 174 210 130 0H10l150 709h120l-68-319 359 319h166L381 394 591 0H452z"/><glyph glyph-name="L" unicode="L" horiz-adv-x="546" d="M446 0H10l150 709h120L154 114h316z"/><glyph glyph-name="M" unicode="M" horiz-adv-x="937" d="M776 0H658l109 516L446 0h-93L235 512 126 0H10l150 709h145l124-536 331 536h167z"/><glyph glyph-name="N" unicode="N" horiz-adv-x="744" d="M583 0H461L243 534 130 0H10l150 709h140l205-509 108 509h121z"/><glyph glyph-name="O" unicode="O" horiz-adv-x="756" d="M33 299c0 275 191 425 379 425s310-126 310-314c0-275-190-425-378-425C157-15 33 112 33 299zm567 102c0 132-79 210-194 210-148 0-249-135-250-303 0-132 79-210 194-210 148 0 248 136 250 303z"/><glyph glyph-name="P" unicode="P" horiz-adv-x="590" d="M160 709h228c126 0 207-79 207-189 0-148-115-240-268-240H189L130 0H10zm204-105H259l-48-219h115c84 0 145 44 146 127 0 55-36 92-108 92z"/><glyph glyph-name="Q" unicode="Q" horiz-adv-x="758" d="M33 299c0 275 191 425 379 425s310-126 310-314c0-145-53-255-131-327l75-103-90-59-73 101C453-2 398-15 344-15 157-15 33 112 33 299zm297-37l90 59 102-143c48 56 77 135 78 223 0 132-79 210-194 210-148 0-249-135-250-303 0-132 79-210 194-210 31 0 59 6 86 17z"/><glyph glyph-name="R" unicode="R" horiz-adv-x="622" d="M400 0L298 283H190L130 0H10l150 709h239c128 0 200-78 200-181 0-120-77-204-184-232L528 0H400zM212 388h121c85 0 143 49 143 127 0 53-33 89-101 89H258z"/><glyph glyph-name="S" unicode="S" horiz-adv-x="583" d="M264 91c74 0 121 40 121 97 0 35-16 67-67 90l-89 40c-85 38-134 97-134 187 0 126 109 219 246 219 181 0 237-127 237-204l-113-20c0 32-15 118-130 118-74 0-118-45-118-100 0-42 24-70 60-86l89-40c101-45 144-111 144-192 0-111-95-215-245-215C74-15 2 116 2 219c0 6 1 12 1 18l116 20c-1-7-1-14-1-21 0-72 42-145 146-145z"/><glyph glyph-name="T" unicode="T" horiz-adv-x="581" d="M619 597H407L280 0H160l126 597H65l24 112h554z"/><glyph glyph-name="U" unicode="U" horiz-adv-x="671" d="M550 709h121L568 220C536 68 430-15 292-15 147-15 51 68 51 204c0 25 3 47 8 72l91 433h118l-91-442c-4-18-6-34-6-50 0-71 40-117 129-117 79 0 132 48 151 137z"/><glyph glyph-name="V" unicode="V" horiz-adv-x="637" d="M197 709l74-552 307 552h131L302 0H181L75 709h122z"/><glyph glyph-name="W" unicode="W" horiz-adv-x="976" d="M496 709h124l59-522 236 522h125L707 0H588l-59 536L262 0H137L87 709h118l33-518z"/><glyph glyph-name="X" unicode="X" horiz-adv-x="645" d="M302 250L90 0H-60l311 357L89 709h135l113-253 214 253h150L388 349 549 0H413z"/><glyph glyph-name="Y" unicode="Y" horiz-adv-x="619" d="M246 302L87 709h127l110-292 211 292h144L365 298 303 0H182z"/><glyph glyph-name="Z" unicode="Z" horiz-adv-x="625" d="M507 0H-30l25 116 475 481H106l24 112h523l-24-112-481-484h383z"/><glyph glyph-name="bracketleft" unicode="[" horiz-adv-x="305" d="M192-157H-22l203 956h213l-19-89H257L92-67h119z"/><glyph glyph-name="backslash" unicode="\" horiz-adv-x="438" d="M274-15L60 724h102L375-15H274z"/><glyph glyph-name="bracketright" unicode="]" horiz-adv-x="308" d="M110-157h-213l19 90H34l165 777H80l19 89h214z"/><glyph glyph-name="asciicircum" unicode="^" horiz-adv-x="561" d="M246 710h94l196-358H423L294 596 164 352H50z"/><glyph glyph-name="underscore" unicode="_" horiz-adv-x="521" d="M-65-96V0h511v-96H-65z"/><glyph glyph-name="grave" unicode="`" horiz-adv-x="275" d="M90 548L-9 696h132l57-148H90z"/><glyph glyph-name="a" unicode="a" horiz-adv-x="574" d="M268 398c-94 0-144-101-144-189 0-71 37-119 104-119 78 0 142 79 142 195 0 66-35 113-102 113zm150 89h113l-79-371c-6-30-10-60-10-92 0-5 0-13 1-24H335c-1 9-1 14-1 20 0 12 0 18 2 40-28-36-73-69-134-69C78-9 8 84 8 206c0 162 106 294 251 294 87 0 130-40 146-71z"/><glyph glyph-name="b" unicode="b" horiz-adv-x="581" d="M104 0H-8l152 724h114l-58-277c30 33 81 52 138 52 126 0 189-93 189-208 0-173-107-304-257-304-74 0-130 39-150 86zm193 398c-79 0-145-75-145-185 0-73 43-123 109-123 71 0 149 66 149 186 0 79-43 122-113 122z"/><glyph glyph-name="c" unicode="c" horiz-adv-x="511" d="M483 343l-105-33c-10 45-44 87-110 87-73 0-148-61-148-183 0-77 48-125 119-125 65 0 101 41 122 81l96-39C421 56 348-15 233-15 94-15 5 82 5 212c0 174 125 290 271 290 133 0 191-85 207-159z"/><glyph glyph-name="d" unicode="d" horiz-adv-x="576" d="M581 724L452 116c-8-40-11-70-11-92 0-3 0-17 1-24H335c-1 9-1 19-1 25 0 14 1 26 2 35-28-36-73-69-134-69C78-9 8 84 8 206c0 162 106 294 251 294 83 0 127-37 145-69l62 293h115zM268 398c-94 0-144-101-144-189 0-71 37-119 104-119 78 0 142 79 142 195 0 66-35 113-102 113z"/><glyph glyph-name="e" unicode="e" horiz-adv-x="534" d="M133 297h234c0 2 1 10 1 15 0 42-25 93-99 93-73 0-119-51-136-108zm334-85H120c-1-5-1-7-1-11 0-69 48-117 115-117 64 0 105 34 124 71l89-49C414 42 339-15 231-15 110-15 8 67 8 208c0 183 131 294 264 294 134 0 209-84 209-201 0-33-7-67-14-89z"/><glyph glyph-name="f" unicode="f" horiz-adv-x="349" d="M333 387l-107 .001-82-387H27l82 387H27l21 100h83l19 89c26 125 109 154 183 154 38 0 66-11 73-15l-21-96c0-.053-.044-.078-.132-.078-1.58 0-17.236 8.077-41.868 8.077-40 0-70-20-81-72l-15-68h107z"/><glyph glyph-name="g" unicode="g" horiz-adv-x="573" d="M371 290c0 54-35 106-106 106-79 0-139-61-139-159 0-66 37-115 108-115 79 0 137 64 137 168zM-49-23L56 0c0-72 52-105 109-105 86 0 135 55 156 148l8 36c-20-28-63-53-121-53C84 26 10 114 10 229c0 150 103 268 247 268 73 0 124-30 147-70l12 60h115L439 44C412-84 336-205 165-205 20-205-49-112-49-23z"/><glyph glyph-name="h" unicode="h" horiz-adv-x="569" d="M426 0H311l62 288c2 11 4 22 4 31 0 49-29 79-82 79-66 0-104-56-117-115L117 0H2l153 724h116l-59-277c33 38 81 54 133 54 95 0 151-60 151-149 0-18-2-39-5-51z"/><glyph glyph-name="i" unicode="i" horiz-adv-x="268" d="M121 653c0 46 40 82 83 82 40 0 68-29 68-66 0-48-41-83-83-83-40 0-68 30-68 67zM115 0H0l104 487h115z"/><glyph glyph-name="j" unicode="j" horiz-adv-x="267" d="M-8-43l114 530h114L102-70C83-158 24-205-54-205c-46 0-75 15-80 19l19 90c6-2 23-7 42-7 38 0 56 16 65 60zm131 696c0 46 40 82 83 82 40 0 68-29 68-66 0-48-42-83-83-83-40 0-68 30-68 67z"/><glyph glyph-name="k" unicode="k" horiz-adv-x="545" d="M331 0L231 211l-86-72L116 0H2l153 724h115l-90-421 216 184h164L319 285 459 0H331z"/><glyph glyph-name="l" unicode="l" horiz-adv-x="266" d="M115 0H0l154 724h115z"/><glyph glyph-name="m" unicode="m" horiz-adv-x="853" d="M414 0H299l62 295c2 10 3 21 3 30 0 43-24 74-77 74-59 0-95-45-109-109L116 0H2l85 403c10 46 11 80 11 84h112c0-7-1-30-4-49 34 42 80 63 137 63 60 0 104-31 125-76 45 58 106 76 165 76 82 0 147-57 147-148 0-18-2-33-5-47L710 0H595l63 295c2 10 3 19 3 28 0 44-24 76-77 76-59 0-95-47-108-109z"/><glyph glyph-name="n" unicode="n" horiz-adv-x="569" d="M426 0H311l62 288c2 11 4 22 4 31 0 49-29 79-82 79-66 0-104-56-117-115L117 0H2l85 403c10 46 11 80 11 84h112c0-6-1-32-5-51 35 47 90 65 144 65 91 0 147-62 147-151 0-16-2-37-6-54z"/><glyph glyph-name="o" unicode="o" horiz-adv-x="551" d="M270 398c-78 0-146-72-146-183 0-77 45-126 111-126 72 0 146 63 146 184 0 77-42 124-111 125zm228-121c0-161-113-292-269-292C92-15 8 86 8 211c0 170 120 291 270 291 140 0 220-100 220-225z"/><glyph glyph-name="p" unicode="p" horiz-adv-x="581" d="M299 396c-79 0-146-73-146-183 0-79 44-123 110-123 70 0 147 66 147 186 0 78-44 120-111 120zm-104 38c31 40 87 65 145 65 126 0 187-92 187-208 0-173-106-304-255-304-70 0-128 33-154 79L64-190H-50L76 403c10 46 11 80 11 84h112c0-6-1-34-4-53z"/><glyph glyph-name="q" unicode="q" horiz-adv-x="574" d="M530 487L386-190H271l49 230C291 11 250-9 199-9 77-9 5 88 5 206c0 162 106 293 252 293 85 0 130-38 148-69l12 57h113zm-265-90c-94 0-145-99-145-188 0-70 39-119 109-119 79 0 141 78 141 191 0 70-35 116-105 116z"/><glyph glyph-name="r" unicode="r" horiz-adv-x="383" d="M360 369c-14 3-28 5-41 5-68 0-130-36-154-146L116 0H2l85 403c10 46 11 80 11 84h112c0-14-2-48-7-67 37 56 100 72 147 72 13 0 25-1 35-3z"/><glyph glyph-name="s" unicode="s" horiz-adv-x="443" d="M-13 151l100 19c0-51 30-94 89-94 47 0 69 28 69 56 0 20-12 39-41 52l-62 27c-66 29-96 74-96 131 0 84 71 160 182 160 138 0 175-92 178-145l-101-21c-2 30-19 76-83 76-41 0-66-25-66-55 0-24 13-39 34-48l64-28c71-31 105-81 105-139 0-70-56-157-184-157C23-15-13 93-13 151z"/><glyph glyph-name="t" unicode="t" horiz-adv-x="357" d="M57 110c0 12 2 33 8 59l46 215H23l22 103h18c56 0 86 30 97 79l15 70h105l-33-149h97l-22-103h-96l-48-227c-2-8-3-16-3-22 0-23 13-41 53-41 12 0 22 1 34 3L243 4c-9-4-29-10-58-10C106-6 57 38 57 110z"/><glyph glyph-name="u" unicode="u" horiz-adv-x="557" d="M93 487h116l-60-280c-3-14-5-27-5-39 0-46 23-79 80-79 62 0 100 53 113 114l60 284h114l-78-376c-6-30-11-58-11-89 0-6 0-11 1-22H311c-1 6-2 16-2 29 0 7 0 15 1 24-28-43-80-64-125-64C83-11 26 55 26 148c0 17 2 35 6 54z"/><glyph glyph-name="v" unicode="v" horiz-adv-x="500" d="M518 487L233 0H119L33 487h119l48-348 189 348h129z"/><glyph glyph-name="w" unicode="w" horiz-adv-x="788" d="M351 487h122l41-335 165 335h122L547 0H431l-44 348L206 0H86L38 487h111l28-334z"/><glyph glyph-name="x" unicode="x" horiz-adv-x="507" d="M216 161L73 0H-70l234 249L37 487h126c19-38 58-118 78-155l137 155h144c-51-54-178-190-229-243C322 189 394 54 424 0H298z"/><glyph glyph-name="y" unicode="y" horiz-adv-x="515" d="M95-190H-34L141 80 28 487h123l75-288 175 288h132z"/><glyph glyph-name="z" unicode="z" horiz-adv-x="483" d="M368 0H-32l22 102 303 284H58l22 101h385l-22-100-307-285h253z"/><glyph glyph-name="braceleft" unicode="{" horiz-adv-x="362" d="M24 272l21 101c56 0 112 25 126 95l29 142c29 141 95 189 218 189h33l-19-89h-22c-66 0-98-27-113-97l-36-166c-14-66-57-114-127-125 46-13 76-48 76-99 0-11-2-22-4-33L175 40c-3-14-4-26-4-36 0-48 27-69 78-69h20l-19-88h-22C126-153 73-105 73-16c0 17 2 37 7 58l29 135c2 10 3 19 3 27 0 52-42 68-88 68z"/><glyph glyph-name="bar" unicode="|" horiz-adv-x="272" d="M76-153h-98l202 952h98z"/><glyph glyph-name="braceright" unicode="}" horiz-adv-x="364" d="M325 372l-21-101c-52 0-110-20-126-94L148 36C120-95 46-153-77-153h-25l19 88h21C2-65 40-27 54 38l35 166c13 63 60 107 128 121-50 12-78 48-78 95 0 9 1 19 3 29l34 163c3 14 4 27 4 38 0 42-23 60-75 60H81l19 89h28c94 0 150-42 150-131 0-17-2-36-6-56l-32-144c-2-10-3-19-3-27 0-50 39-69 88-69z"/><glyph glyph-name="asciitilde" unicode="~" horiz-adv-x="647" d="M501 360l66-53c-37-65-94-99-158-99-35 0-67 9-102 28l-47 25c-18 10-35 14-52 14-35 0-67-20-92-54l-66 53c37 64 94 100 159 100 33 0 66-8 101-27l46-25c17-9 36-15 52-15 37 0 69 15 93 53z"/><glyph glyph-name="uni00A0" horiz-adv-x="261"/><glyph glyph-name="exclamdown" unicode="¡" horiz-adv-x="255" d="M161 285L86-214H-57L78 285h83zm59 152c0-44-36-81-81-81-40 0-66 29-66 65 0 45 38 81 79 81 40 0 68-28 68-65z"/><glyph glyph-name="cent" unicode="¢" horiz-adv-x="553" d="M160 0l19 92C92 120 38 198 38 293c0 154 110 260 241 271l18 84h90l-19-91c83-22 121-85 134-141l-103-31c-6 29-23 55-53 70l-58-275c49 8 77 40 95 73l93-36C443 148 374 82 267 79L250 0h-90zm-10 295c0-47 19-82 51-100l56 266c-58-16-107-71-107-166z"/><glyph glyph-name="sterling" unicode="£" horiz-adv-x="597" d="M57 273l20 95h71c-5 23-9 47-9 75 0 120 82 220 218 220 125 0 187-72 187-165 0-13-2-26-4-30l-108-14c2 7 3 17 3 27 0 44-27 82-83 82-57 0-101-38-101-117 0-25 5-52 10-78h184l-20-95H271c-5-73-47-139-120-170h184c62 0 98 44 106 97l103-20C525 70 446 0 340 0H-5l23 113c90 21 135 89 140 160H57z"/><glyph glyph-name="currency" unicode="¤" horiz-adv-x="599" d="M74 242c0 42 12 81 33 114l-74 75 72 71 74-76c32 19 70 30 110 30 38 0 75-10 106-28l73 74 71-71-70-72c22-33 35-74 35-117s-13-83-34-116l69-70-70-70-72 72c-32-19-69-29-108-29-41 0-79 11-112 31l-73-74-71 70 73 74c-21 32-32 71-32 112zm99 0c0-68 50-117 116-117s115 49 115 117-49 117-115 117-116-49-116-117z"/><glyph glyph-name="yen" unicode="¥" horiz-adv-x="603" d="M67 302l18 83h115L98 648h129l87-252 187 252h133L426 385h118l-18-83H352l-16-74h175l-19-85H319L289 0H174l30 143H33l18 85h171l15 74H67z"/><glyph glyph-name="brokenbar" unicode="¦" horiz-adv-x="272" d="M194 400H96l84 399h98zM76-154h-98l85 399h98z"/><glyph glyph-name="section" unicode="§" d="M-1-4l112 8c-2-9-4-20-4-34 0-52 32-85 91-85 48 0 94 32 94 89 0 25-13 48-35 64l-91 64c-57 40-106 86-106 156 0 82 60 126 111 145-38 34-56 76-56 124 0 122 113 197 222 197 128 0 194-76 194-167 0-13-1-26-4-39l-113-9c3 12 4 24 4 34 0 52-32 84-89 84-50 0-96-35-96-88 0-26 13-47 37-64l90-64c56-40 106-83 106-153 0-83-60-130-110-149 36-34 55-78 55-122 0-124-112-199-223-199C63-212-4-137-4-44c0 12 0 26 3 40zm318 300l-89 64c-30-14-56-42-56-80 0-24 11-44 37-63l89-64c30 14 56 42 56 80 0 24-11 44-37 63z"/><glyph glyph-name="dieresis" unicode="¨" horiz-adv-x="383" d="M-26 618c0 38 32 72 72 72 35 0 59-28 59-59 0-41-37-71-74-71-33 0-57 26-57 58zm203 0c0 38 33 72 72 72 35 0 59-28 59-59 0-41-37-71-73-71-34 0-58 26-58 58z"/><glyph glyph-name="copyright" unicode="©" horiz-adv-x="818" d="M35 355c0 203 163 369 366 369 204 0 369-166 369-369 0-204-165-370-369-370C198-15 35 151 35 355zm82 0c0-166 125-294 284-294 160 0 285 128 285 294 0 165-125 293-285 293-159 0-284-128-284-293zm470 78l-81-26c-8 36-35 71-87 71-58 0-118-49-118-146 0-61 39-99 95-99 51 0 80 32 97 64l74-31c-34-69-92-114-180-114-98 0-175 71-175 178 0 137 98 228 213 228 104 0 150-66 162-125z"/><glyph glyph-name="ordfeminine" unicode="ª" horiz-adv-x="459" d="M238 577c-61 0-94-65-94-122 0-49 26-79 69-79 50 0 92 48 92 126 0 46-24 75-67 75zm102 72h87l-56-267c-4-21-6-44-6-59v-18h-83c-1 11-1 13-1 18 0 6 0 13 1 24-16-24-47-48-93-48-84 0-134 68-134 152 0 116 75 206 176 206 63 0 91-29 100-48z"/><glyph glyph-name="guillemotleft" unicode="«" horiz-adv-x="501" d="M217 100H109L10 296l174 191h119L123 287zm208 0H317l-99 196 174 191h119L331 287z"/><glyph glyph-name="logicalnot" unicode="¬" horiz-adv-x="623" d="M533 142H432v195H55v97h478V142z"/><glyph glyph-name="uni00AD" unicode="­" horiz-adv-x="362" d="M297 241H15l22 103h281z"/><glyph glyph-name="registered" unicode="®" horiz-adv-x="818" d="M35 355c0 203 163 369 366 369 204 0 369-166 369-369 0-204-165-370-369-370C198-15 35 151 35 355zm82 0c0-166 125-294 284-294 160 0 285 128 285 294 0 165-125 293-285 293-159 0-284-128-284-293zm328-198l-51 142h-35l-30-143h-85l85 400h140c70 0 116-53 116-113 0-68-46-121-111-137l58-149h-87zm-72 212h47c46 0 80 24 80 70 0 29-19 46-56 46h-45z"/><glyph glyph-name="macron" unicode="¯" horiz-adv-x="328" d="M243 577H-34l19 90h277z"/><glyph glyph-name="degree" unicode="°" horiz-adv-x="394" d="M204 429c39 0 78 32 78 85 0 37-24 62-63 62s-77-34-77-84c0-37 23-63 62-63zm-8-87c-85 0-146 64-146 144 0 100 83 177 178 177 84 0 146-64 146-145 0-102-89-176-178-176z"/><glyph glyph-name="plusminus" unicode="±" horiz-adv-x="604" d="M341 311V183h-99v128H65v94h177v129h99V405h178v-94H341zM65 47v96h454V47H65z"/><glyph glyph-name="twosuperior" unicode="²" horiz-adv-x="382" d="M168 514l64 28c36 16 52 34 52 59 0 19-14 42-45 42-37 0-60-24-60-69l-84 3c0 85 60 139 147 139 88 0 133-51 133-110 0-60-40-100-102-127l-76-33c-20-9-27-24-28-27h171l-16-76H46c5 80 46 138 122 171z"/><glyph glyph-name="threesuperior" unicode="³" horiz-adv-x="427" d="M198 509l-27 64 111 62H119l16 74h272l-17-85-108-59c48-10 82-48 82-99 0-68-61-130-153-130-82 0-141 49-141 119 0 5 1 12 2 16l82 6c-1-5-1-8-1-10 0-29 23-56 58-56 38 0 63 20 63 57 0 29-24 46-51 46-10 0-18-2-25-5z"/><glyph glyph-name="acute" unicode="´" horiz-adv-x="276" d="M220 696L58 548H-42L75 696h145z"/><glyph glyph-name="mu" unicode="µ" horiz-adv-x="589" d="M58-190v677h117V201c0-60 28-111 98-111 67 0 102 45 102 109v288h116V89c0-45 4-81 5-89H385c-2 10-4 36-4 55-26-47-85-69-138-69-26 0-49 5-69 14v-190H58z"/><glyph glyph-name="paragraph" unicode="¶" horiz-adv-x="649" d="M393 616L220-197h-95l108 507h-9c-97 0-169 71-169 165 0 153 142 234 278 234h366l-19-93h-98L410-197h-95l172 813h-94z"/><glyph glyph-name="periodcentered" unicode="·" horiz-adv-x="278" d="M50 290c0 45 39 86 87 86 43 0 71-32 71-69 0-50-40-87-86-87-43 0-72 32-72 70z"/><glyph glyph-name="cedilla" unicode="¸" horiz-adv-x="286" d="M90 13h89l-74-65c47-6 73-38 73-75 0-49-43-96-121-96-74 0-117 47-128 69l54 40c7-14 27-46 72-46 23 0 43 10 43 31 0 20-18 31-40 31-2 0-10 0-17-1L18-53z"/><glyph glyph-name="onesuperior" unicode="¹" horiz-adv-x="298" d="M190 343H99l53 238H67l12 59c55 2 95 34 110 69h80z"/><glyph glyph-name="ordmasculine" unicode="º" horiz-adv-x="441" d="M240 577c-53 0-95-50-95-119 0-51 30-82 72-82 46 0 96 40 96 120 0 51-28 81-73 81zm163-77c0-112-79-205-191-205-96 0-157 70-157 159 0 121 86 205 192 205 98 0 156-71 156-159z"/><glyph glyph-name="guillemotright" unicode="»" horiz-adv-x="506" d="M46 487h108l99-196L79 100H-40l181 200zm216 0h108l99-196-174-191H176l181 200z"/><glyph glyph-name="onequarter" unicode="¼" horiz-adv-x="805" d="M193 282h-91l53 238H70l12 59c55 2 95 34 110 69h80zM377 74l19 96 204 196h101l-47-219h63l-16-73h-62c0-1-6-26-16-74h-89l15 74H377zm187 73l28 122-127-122h99zm157 501L123 0H13l599 648h109z"/><glyph glyph-name="onehalf" unicode="½" horiz-adv-x="829" d="M193 282h-91l53 238H70l12 59c55 2 95 34 110 69h80zm528 366L123 0H13l599 648h109zM554 171l64 28c36 16 52 34 52 59 0 19-14 42-45 42-37 0-60-24-60-69l-84 3c0 85 60 139 147 139 88 0 133-51 133-110 0-60-40-100-102-127l-76-33c-20-9-27-24-28-27h171L710 0H432c5 80 46 138 122 171z"/><glyph glyph-name="threequarters" unicode="¾" horiz-adv-x="902" d="M178 448l-27 64 111 62H99l16 74h272l-17-85-108-59c48-10 82-48 82-99 0-68-61-130-153-130-82 0-141 49-141 119 0 5 1 12 2 16l82 6c-1-5-1-8-1-10 0-29 23-56 58-56 38 0 63 20 63 57 0 29-24 46-51 46-10 0-18-2-25-5zM474 74l19 96 204 196h101l-47-219h63l-16-73h-62c0-1-6-26-16-74h-89l15 74H474zm187 73l28 122-127-122h99zm158 501L221 0H111l599 648h109z"/><glyph glyph-name="questiondown" unicode="¿" horiz-adv-x="451" d="M189 286h97c-3-71-28-141-113-190l-54-31C74 40 53 4 53-38c0-44 28-86 96-86 87 0 128 69 128 142L388 5c-3-134-101-234-248-234C2-229-68-144-68-56c0 101 58 163 137 208l50 29c46 26 66 61 70 105zm137 151c0-44-35-81-80-81-41 0-67 29-67 65 0 45 39 81 80 81 40 0 67-28 67-65z"/><glyph glyph-name="Agrave" unicode="À" horiz-adv-x="668" d="M477 0l-27 178H165L63 0H-72l419 709h135L600 0H477zm-87 574L228 289h205zm-19 185L259 883h138l75-124H371z"/><glyph glyph-name="Aacute" unicode="Á" horiz-adv-x="668" d="M477 0l-27 178H165L63 0H-72l419 709h135L600 0H477zm-87 574L228 289h205zm241 309L469 759H355l123 124h153z"/><glyph glyph-name="Acircumflex" unicode="Â" horiz-adv-x="668" d="M477 0l-27 178H165L63 0H-72l419 709h135L600 0H477zm-87 574L228 289h205zm-48 185H234l141 124h129l92-124H496l-64 64z"/><glyph glyph-name="Atilde" unicode="Ã" horiz-adv-x="668" d="M477 0l-27 178H165L63 0H-72l419 709h135L600 0H477zm-87 574L228 289h205zm212 312c-16-98-61-132-119-132-29 0-53 12-72 24l-8 5c-14 9-27 17-42 17-19 0-33-12-38-43h-78c10 96 63 131 121 131 29 0 53-11 71-23l8-6c14-9 26-17 41-17 19 0 32 13 38 44h78z"/><glyph glyph-name="Adieresis" unicode="Ä" horiz-adv-x="668" d="M206 814c0 40 32 74 74 74 35 0 59-27 59-59 0-44-35-74-73-74-35 0-60 25-60 59zm308 0c0 40 32 74 74 74 35 0 59-27 59-59 0-44-35-74-73-74-35 0-60 25-60 59zM477 0l-27 178H165L63 0H-72l419 709h135L600 0H477zm-87 574L228 289h205z"/><glyph glyph-name="Aring" unicode="Å" horiz-adv-x="668" d="M390 574L228 289h205zm34 228c-26 0-52-21-52-51 0-26 18-42 44-42 27 0 52 20 52 51 0 25-18 42-44 42zm-126-59c0 75 64 131 133 131 64 0 113-47 113-108 0-42-22-79-55-103L600 0H477l-27 178H165L63 0H-72l398 673c-17 19-28 42-28 70z"/><glyph glyph-name="AE" unicode="Æ" horiz-adv-x="1039" d="M615 112h315L906 0H471l38 177H231L80 0H-74l618 709h512l-24-112H718l-40-188h285l-23-109H655zM319 280h212l70 330z"/><glyph glyph-name="Ccedilla" unicode="Ç" horiz-adv-x="719" d="M367-14l-43-38c47-6 73-38 73-75 0-49-43-96-121-96-74 0-117 47-128 69l54 40c7-14 27-46 72-46 23 0 43 10 43 31 0 20-18 31-40 31-2 0-6 0-11-1h-6l-23 46 47 43C134 14 33 138 33 304c0 271 193 420 383 420 184 0 272-112 294-227l-115-35c-16 77-74 149-188 149-148 0-251-132-251-300 0-129 74-213 195-213 101 0 168 60 206 145l106-43C616 89 519-4 367-14z"/><glyph glyph-name="Egrave" unicode="È" horiz-adv-x="578" d="M357 759L245 883h138l75-124H357zM445 0H10l150 709h435l-24-112H257l-40-188h285l-24-109H194l-41-188h315z"/><glyph glyph-name="Eacute" unicode="É" horiz-adv-x="578" d="M582 883L420 759H306l123 124h153zM445 0H10l150 709h435l-24-112H257l-40-188h285l-24-109H194l-41-188h315z"/><glyph glyph-name="Ecircumflex" unicode="Ê" horiz-adv-x="578" d="M312 759H204l141 124h129l92-124H466l-64 64zM445 0H10l150 709h435l-24-112H257l-40-188h285l-24-109H194l-41-188h315z"/><glyph glyph-name="Edieresis" unicode="Ë" horiz-adv-x="578" d="M217 814c0 40 33 73 74 73 35 0 58-26 58-58 0-43-34-73-72-73-35 0-60 24-60 58zm222 0c0 40 33 73 73 73 35 0 59-26 59-58 0-43-34-73-72-73-35 0-60 24-60 58zm6-814H10l150 709h435l-24-112H257l-40-188h285l-24-109H194l-41-188h315z"/><glyph glyph-name="Igrave" unicode="Ì" horiz-adv-x="292" d="M132 0H10l150 709h122zm58 759L78 883h138l75-124H190z"/><glyph glyph-name="Iacute" unicode="Í" horiz-adv-x="292" d="M132 0H10l150 709h122zm318 883L288 759H174l123 124h153z"/><glyph glyph-name="Icircumflex" unicode="Î" horiz-adv-x="292" d="M132 0H10l150 709h122zm24 759H48l141 124h129l92-124H310l-64 64z"/><glyph glyph-name="Idieresis" unicode="Ï" horiz-adv-x="292" d="M132 0H10l150 709h122zM90 814c0 38 31 69 69 69 33 0 55-25 55-54 0-41-32-69-68-69-32 0-56 23-56 54zm172 0c0 38 30 69 69 69 32 0 55-25 55-54 0-41-32-69-69-69-32 0-55 23-55 54z"/><glyph glyph-name="Eth" unicode="Ð" horiz-adv-x="710" d="M12 316l19 93h77l63 300h203c187 0 303-116 303-290C677 145 489 0 298 0H22l66 316H12zm152-205h136c119 0 255 100 255 303 0 117-75 186-196 186h-91l-41-191h150l-19-93H207z"/><glyph glyph-name="Ntilde" unicode="Ñ" horiz-adv-x="744" d="M648 886c-16-98-61-132-119-132-29 0-53 12-72 24l-8 5c-14 9-27 17-42 17-19 0-33-12-38-43h-78c10 96 63 131 121 131 29 0 53-11 71-23l8-6c14-9 26-17 41-17 19 0 32 13 38 44h78zM583 0H461L243 534 130 0H10l150 709h140l205-509 108 509h121z"/><glyph glyph-name="Ograve" unicode="Ò" horiz-adv-x="756" d="M402 759L290 883h138l75-124H402zM33 299c0 275 191 425 379 425s310-126 310-314c0-275-190-425-378-425C157-15 33 112 33 299zm567 102c0 132-79 210-194 210-148 0-249-135-250-303 0-132 79-210 194-210 148 0 248 136 250 303z"/><glyph glyph-name="Oacute" unicode="Ó" horiz-adv-x="756" d="M654 883L492 759H378l123 124h153zM33 299c0 275 191 425 379 425s310-126 310-314c0-275-190-425-378-425C157-15 33 112 33 299zm567 102c0 132-79 210-194 210-148 0-249-135-250-303 0-132 79-210 194-210 148 0 248 136 250 303z"/><glyph glyph-name="Ocircumflex" unicode="Ô" horiz-adv-x="756" d="M365 759H257l141 124h129l92-124H519l-64 64zM33 299c0 275 191 425 379 425s310-126 310-314c0-275-190-425-378-425C157-15 33 112 33 299zm567 102c0 132-79 210-194 210-148 0-249-135-250-303 0-132 79-210 194-210 148 0 248 136 250 303z"/><glyph glyph-name="Otilde" unicode="Õ" horiz-adv-x="756" d="M636 886c-16-98-61-132-119-132-29 0-53 12-72 24l-8 5c-14 9-27 17-42 17-19 0-33-12-38-43h-78c10 96 63 131 121 131 29 0 53-11 71-23l8-6c14-9 26-17 41-17 19 0 32 13 38 44h78zM33 299c0 275 191 425 379 425s310-126 310-314c0-275-190-425-378-425C157-15 33 112 33 299zm567 102c0 132-79 210-194 210-148 0-249-135-250-303 0-132 79-210 194-210 148 0 248 136 250 303z"/><glyph glyph-name="Odieresis" unicode="Ö" horiz-adv-x="756" d="M215 814c0 40 32 74 74 74 35 0 59-27 59-59 0-44-35-74-73-74-35 0-60 25-60 59zm336 0c0 40 32 74 74 74 35 0 59-27 59-59 0-44-35-74-73-74-35 0-60 25-60 59zM33 299c0 275 191 425 379 425s310-126 310-314c0-275-190-425-378-425C157-15 33 112 33 299zm567 102c0 132-79 210-194 210-148 0-249-135-250-303 0-132 79-210 194-210 148 0 248 136 250 303z"/><glyph glyph-name="multiply" unicode="×" horiz-adv-x="558" d="M112 51l-69 69 168 172L44 463l69 69 166-171 166 171 69-69-167-171 168-172-69-69-167 171z"/><glyph glyph-name="Oslash" unicode="Ø" horiz-adv-x="756" d="M33 299c0 275 191 425 379 425 76 0 145-22 193-59l75 81 71-64-80-86c33-51 51-114 51-186 0-275-190-425-378-425-75 0-140 20-190 56L82-36 11 28l76 82c-35 51-54 115-54 189zm123 9c0-40 7-74 20-103l346 371c-32 23-71 35-116 35-148 0-249-135-250-303zm444 93c0 37-6 70-18 99L237 130c31-21 69-32 113-32 148 0 248 136 250 303z"/><glyph glyph-name="Ugrave" unicode="Ù" horiz-adv-x="671" d="M385 759L273 883h138l75-124H385zm165-50h121L568 220C536 68 430-15 292-15 147-15 51 68 51 204c0 25 3 47 8 72l91 433h118l-91-442c-4-18-6-34-6-50 0-71 40-117 129-117 79 0 132 48 151 137z"/><glyph glyph-name="Uacute" unicode="Ú" horiz-adv-x="671" d="M611 883L449 759H335l123 124h153zm-61-174h121L568 220C536 68 430-15 292-15 147-15 51 68 51 204c0 25 3 47 8 72l91 433h118l-91-442c-4-18-6-34-6-50 0-71 40-117 129-117 79 0 132 48 151 137z"/><glyph glyph-name="Ucircumflex" unicode="Û" horiz-adv-x="671" d="M342 759H234l141 124h129l92-124H496l-64 64zm208-50h121L568 220C536 68 430-15 292-15 147-15 51 68 51 204c0 25 3 47 8 72l91 433h118l-91-442c-4-18-6-34-6-50 0-71 40-117 129-117 79 0 132 48 151 137z"/><glyph glyph-name="Udieresis" unicode="Ü" horiz-adv-x="671" d="M244 814c0 40 32 74 74 74 35 0 59-27 59-59 0-44-35-74-73-74-35 0-60 25-60 59zm226 0c0 40 32 74 74 74 35 0 59-27 59-59 0-44-35-74-73-74-35 0-60 25-60 59zm80-105h121L568 220C536 68 430-15 292-15 147-15 51 68 51 204c0 25 3 47 8 72l91 433h118l-91-442c-4-18-6-34-6-50 0-71 40-117 129-117 79 0 132 48 151 137z"/><glyph glyph-name="Yacute" unicode="Ý" horiz-adv-x="619" d="M246 302L87 709h127l110-292 211 292h144L365 298 303 0H182zm339 581L423 759H309l123 124h153z"/><glyph glyph-name="Thorn" unicode="Þ" horiz-adv-x="589" d="M340 470H231l-47-218h118c84 0 145 44 146 126 0 55-36 92-108 92zM130 0H10l150 709h121l-29-133h112c125 0 207-79 207-189 0-148-115-240-268-240H162z"/><glyph glyph-name="germandbls" unicode="ß" horiz-adv-x="587" d="M378 330c0-17 13-26 31-39l26-20c42-33 75-75 75-127 0-65-49-160-175-160-96 0-157 61-157 137 0 8 0 16 2 24l99 11c-2-5-2-11-2-17 0-28 13-64 62-64 43 0 60 31 60 54 0 25-13 37-37 55l-25 19c-39 29-75 67-75 115 0 69 43 108 84 129l28 14c42 21 70 44 70 86 0 35-31 76-98 76-53 0-109-32-129-128L113 0H-2l108 514c31 148 135 210 246 210 134 0 207-81 207-168 0-98-65-146-121-172l-26-12c-19-9-34-20-34-42z"/><glyph glyph-name="agrave" unicode="à" horiz-adv-x="574" d="M268 398c-94 0-144-101-144-189 0-71 37-119 104-119 78 0 142 79 142 195 0 66-35 113-102 113zm150 89h113l-79-371c-6-30-10-60-10-92 0-5 0-13 1-24H335c-1 9-1 14-1 20 0 12 0 18 2 40-28-36-73-69-134-69C78-9 8 84 8 206c0 162 106 294 251 294 87 0 130-40 146-71zm-163 61l-99 148h132l57-148h-90z"/><glyph glyph-name="aacute" unicode="á" horiz-adv-x="574" d="M268 398c-94 0-144-101-144-189 0-71 37-119 104-119 78 0 142 79 142 195 0 66-35 113-102 113zm150 89h113l-79-371c-6-30-10-60-10-92 0-5 0-13 1-24H335c-1 9-1 14-1 20 0 12 0 18 2 40-28-36-73-69-134-69C78-9 8 84 8 206c0 162 106 294 251 294 87 0 130-40 146-71zm85 209L341 548H241l117 148h145z"/><glyph glyph-name="acircumflex" unicode="â" horiz-adv-x="574" d="M232 549H129l138 143h123l76-143h-95l-53 77zm36-151c-94 0-144-101-144-189 0-71 37-119 104-119 78 0 142 79 142 195 0 66-35 113-102 113zm150 89h113l-79-371c-6-30-10-60-10-92 0-5 0-13 1-24H335c-1 9-1 14-1 20 0 12 0 18 2 40-28-36-73-69-134-69C78-9 8 84 8 206c0 162 106 294 251 294 87 0 130-40 146-71z"/><glyph glyph-name="atilde" unicode="ã" horiz-adv-x="574" d="M268 398c-94 0-144-101-144-189 0-71 37-119 104-119 78 0 142 79 142 195 0 66-35 113-102 113zm150 89h113l-79-371c-6-30-10-60-10-92 0-5 0-13 1-24H335c-1 9-1 14-1 20 0 12 0 18 2 40-28-36-73-69-134-69C78-9 8 84 8 206c0 162 106 294 251 294 87 0 130-40 146-71zm-201 68h-79c11 98 65 135 124 135 30 0 54-13 71-24l6-4c13-9 26-18 42-18 21 0 34 15 40 44h78c-15-99-63-135-121-135-29 0-52 12-70 24l-8 5c-15 9-26 17-43 17-19 0-34-13-40-44z"/><glyph glyph-name="adieresis" unicode="ä" horiz-adv-x="574" d="M151 618c0 38 32 72 72 72 35 0 59-28 59-59 0-41-37-71-74-71-33 0-57 26-57 58zm203 0c0 38 33 72 72 72 35 0 59-28 59-59 0-41-37-71-73-71-34 0-58 26-58 58zm-86-220c-94 0-144-101-144-189 0-71 37-119 104-119 78 0 142 79 142 195 0 66-35 113-102 113zm150 89h113l-79-371c-6-30-10-60-10-92 0-5 0-13 1-24H335c-1 9-1 14-1 20 0 12 0 18 2 40-28-36-73-69-134-69C78-9 8 84 8 206c0 162 106 294 251 294 87 0 130-40 146-71z"/><glyph glyph-name="aring" unicode="å" horiz-adv-x="574" d="M268 398c-94 0-144-101-144-189 0-71 37-119 104-119 78 0 142 79 142 195 0 66-35 113-102 113zm150 89h113l-79-371c-6-30-10-60-10-92 0-5 0-13 1-24H335c-1 9-1 14-1 20 0 12 0 18 2 40-28-36-73-69-134-69C78-9 8 84 8 206c0 162 106 294 251 294 87 0 130-40 146-71zm-92 271c59 0 105-43 105-100 0-65-58-120-122-120-59 0-106 43-106 99 0 72 62 121 123 121zm-54-114c0-24 16-39 40-39 26 0 48 19 48 47 0 22-16 39-40 39s-48-19-48-47z"/><glyph glyph-name="ae" unicode="æ" horiz-adv-x="848" d="M167 285l134 4c30 1 46 19 46 47 0 35-25 72-94 72-56 0-97-32-110-77l-97 32c24 78 107 139 214 139 78 0 131-28 160-66 46 43 105 66 166 66 134 0 208-84 208-201 0-33-7-67-14-89H434c0-75 40-128 115-128 63 0 104 34 124 71l87-49C727 42 653-15 545-15c-79 0-147 34-184 98-35-49-94-97-188-97C57-14-6 50-6 127c0 92 75 155 173 158zm-57-150c0-39 33-60 74-60 53 0 126 37 139 138l-136-6c-39-2-77-24-77-72zm473 270c-74 0-119-51-136-108h234c0 2 1 10 1 15 0 42-25 93-99 93z"/><glyph glyph-name="ccedilla" unicode="ç" horiz-adv-x="511" d="M121-53l49 45C68 17 5 103 5 212c0 174 125 290 271 290 133 0 191-85 207-159l-105-33c-10 45-44 87-110 87-73 0-148-61-148-183 0-77 48-125 119-125 65 0 101 41 122 81l96-39C423 60 356-7 251-14l-43-38c47-6 73-38 73-75 0-49-43-96-121-96-74 0-117 47-128 69l54 40c7-14 27-46 72-46 23 0 43 10 43 31 0 20-18 31-40 31-7 0-12-1-17-2z"/><glyph glyph-name="egrave" unicode="è" horiz-adv-x="534" d="M133 297h234c0 2 1 10 1 15 0 42-25 93-99 93-73 0-119-51-136-108zm334-85H120c-1-5-1-7-1-11 0-69 48-117 115-117 64 0 105 34 124 71l89-49C414 42 339-15 231-15 110-15 8 67 8 208c0 183 131 294 264 294 134 0 209-84 209-201 0-33-7-67-14-89zM267 548l-99 148h132l57-148h-90z"/><glyph glyph-name="eacute" unicode="é" horiz-adv-x="534" d="M491 696L329 548H229l117 148h145zM133 297h234c0 2 1 10 1 15 0 42-25 93-99 93-73 0-119-51-136-108zm334-85H120c-1-5-1-7-1-11 0-69 48-117 115-117 64 0 105 34 124 71l89-49C414 42 339-15 231-15 110-15 8 67 8 208c0 183 131 294 264 294 134 0 209-84 209-201 0-33-7-67-14-89z"/><glyph glyph-name="ecircumflex" unicode="ê" horiz-adv-x="534" d="M231 549H128l138 143h123l76-143h-95l-53 77zm-98-252h234c0 2 1 10 1 15 0 42-25 93-99 93-73 0-119-51-136-108zm334-85H120c-1-5-1-7-1-11 0-69 48-117 115-117 64 0 105 34 124 71l89-49C414 42 339-15 231-15 110-15 8 67 8 208c0 183 131 294 264 294 134 0 209-84 209-201 0-33-7-67-14-89z"/><glyph glyph-name="edieresis" unicode="ë" horiz-adv-x="534" d="M142 618c0 38 32 72 72 72 35 0 59-28 59-59 0-41-37-71-74-71-33 0-57 26-57 58zm203 0c0 38 33 72 72 72 35 0 59-28 59-59 0-41-37-71-73-71-34 0-58 26-58 58zM133 297h234c0 2 1 10 1 15 0 42-25 93-99 93-73 0-119-51-136-108zm334-85H120c-1-5-1-7-1-11 0-69 48-117 115-117 64 0 105 34 124 71l89-49C414 42 339-15 231-15 110-15 8 67 8 208c0 183 131 294 264 294 134 0 209-84 209-201 0-33-7-67-14-89z"/><glyph glyph-name="igrave" unicode="ì" horiz-adv-x="268" d="M116 0H0l104 487h116zm12 548L29 696h132l57-148h-90z"/><glyph glyph-name="iacute" unicode="í" horiz-adv-x="268" d="M380 696L218 548H118l117 148h145zM116 0H0l104 487h116z"/><glyph glyph-name="icircumflex" unicode="î" horiz-adv-x="268" d="M105 549H2l138 143h123l76-143h-95l-53 77zM116 0H0l104 487h116z"/><glyph glyph-name="idieresis" unicode="ï" horiz-adv-x="268" d="M116 0H0l104 487h116zM48 618c0 36 29 68 67 68 33 0 56-24 56-55 0-39-34-66-68-66s-55 23-55 53zm156 0c0 36 29 68 67 68 33 0 56-24 56-55 0-39-34-66-68-66s-55 23-55 53z"/><glyph glyph-name="eth" unicode="ð" horiz-adv-x="550" d="M528 617l-92-37c42-58 70-134 70-231 0-215-112-364-280-364C85-15 4 84 4 202c0 142 103 259 249 259 66 0 119-27 143-64-7 56-29 104-61 142l-129-53-29 72 92 38c-32 20-68 34-105 41l38 91c54-8 121-36 179-86l117 48zM375 250c0 72-48 115-115 115-72 0-140-56-140-162 0-61 39-117 111-117 70 0 144 56 144 164z"/><glyph glyph-name="ntilde" unicode="ñ" horiz-adv-x="569" d="M229 555h-79c11 98 65 135 124 135 30 0 54-13 71-24l6-4c13-9 26-18 42-18 21 0 34 15 40 44h78c-15-99-63-135-121-135-29 0-52 12-70 24l-8 5c-15 9-26 17-43 17-19 0-34-13-40-44zM426 0H311l62 288c2 11 4 22 4 31 0 49-29 79-82 79-66 0-104-56-117-115L117 0H2l85 403c10 46 11 80 11 84h112c0-6-1-32-5-51 35 47 90 65 144 65 91 0 147-62 147-151 0-16-2-37-6-54z"/><glyph glyph-name="ograve" unicode="ò" horiz-adv-x="551" d="M263 548l-99 148h132l57-148h-90zm7-150c-78 0-146-72-146-183 0-77 45-126 111-126 72 0 146 63 146 184 0 77-42 124-111 125zm228-121c0-161-113-292-269-292C92-15 8 86 8 211c0 170 120 291 270 291 140 0 220-100 220-225z"/><glyph glyph-name="oacute" unicode="ó" horiz-adv-x="551" d="M503 696L341 548H241l117 148h145zM270 398c-78 0-146-72-146-183 0-77 45-126 111-126 72 0 146 63 146 184 0 77-42 124-111 125zm228-121c0-161-113-292-269-292C92-15 8 86 8 211c0 170 120 291 270 291 140 0 220-100 220-225z"/><glyph glyph-name="ocircumflex" unicode="ô" horiz-adv-x="551" d="M237 549H134l138 143h123l76-143h-95l-53 77zm33-151c-78 0-146-72-146-183 0-77 45-126 111-126 72 0 146 63 146 184 0 77-42 124-111 125zm228-121c0-161-113-292-269-292C92-15 8 86 8 211c0 170 120 291 270 291 140 0 220-100 220-225z"/><glyph glyph-name="otilde" unicode="õ" horiz-adv-x="551" d="M270 398c-78 0-146-72-146-183 0-77 45-126 111-126 72 0 146 63 146 184 0 77-42 124-111 125zm228-121c0-161-113-292-269-292C92-15 8 86 8 211c0 170 120 291 270 291 140 0 220-100 220-225zM202 555h-79c11 98 65 135 124 135 30 0 54-13 71-24l6-4c13-9 26-18 42-18 21 0 34 15 40 44h78c-15-99-63-135-121-135-29 0-52 12-70 24l-8 5c-15 9-26 17-43 17-19 0-34-13-40-44z"/><glyph glyph-name="odieresis" unicode="ö" horiz-adv-x="551" d="M149 618c0 38 32 72 72 72 35 0 59-28 59-59 0-41-37-71-74-71-33 0-57 26-57 58zm203 0c0 38 33 72 72 72 35 0 59-28 59-59 0-41-37-71-73-71-34 0-58 26-58 58zm-82-220c-78 0-146-72-146-183 0-77 45-126 111-126 72 0 146 63 146 184 0 77-42 124-111 125zm228-121c0-161-113-292-269-292C92-15 8 86 8 211c0 170 120 291 270 291 140 0 220-100 220-225z"/><glyph glyph-name="divide" unicode="÷" horiz-adv-x="575" d="M198 473c0 39 33 71 73 71 39 0 71-32 71-71s-32-73-71-73c-40 0-73 34-73 73zm0-362c0 39 33 72 73 72 39 0 71-33 71-72s-32-72-71-72c-40 0-73 33-73 72zM35 243v98h474v-98H35z"/><glyph glyph-name="oslash" unicode="ø" horiz-adv-x="551" d="M21-31l-54 55 71 68C19 123 8 167 8 211c0 170 120 291 270 291 57 0 105-17 141-46l65 63 54-55-70-67c20-35 30-76 30-120 0-161-113-292-269-292-57 0-105 18-142 47zm360 304c0 13-1 24-4 37L168 110c18-14 41-21 67-21 72 0 146 63 146 184zM270 398c-78 0-146-72-146-183 0-14 1-26 4-37l208 199c-17 13-40 20-66 21z"/><glyph glyph-name="ugrave" unicode="ù" horiz-adv-x="557" d="M93 487h116l-60-280c-3-14-5-27-5-39 0-46 23-79 80-79 62 0 100 53 113 114l60 284h114l-78-376c-6-30-11-58-11-89 0-6 0-11 1-22H311c-1 6-2 16-2 29 0 7 0 15 1 24-28-43-80-64-125-64C83-11 26 55 26 148c0 17 2 35 6 54zm178 61l-99 148h132l57-148h-90z"/><glyph glyph-name="uacute" unicode="ú" horiz-adv-x="557" d="M503 696L341 548H241l117 148h145zM93 487h116l-60-280c-3-14-5-27-5-39 0-46 23-79 80-79 62 0 100 53 113 114l60 284h114l-78-376c-6-30-11-58-11-89 0-6 0-11 1-22H311c-1 6-2 16-2 29 0 7 0 15 1 24-28-43-80-64-125-64C83-11 26 55 26 148c0 17 2 35 6 54z"/><glyph glyph-name="ucircumflex" unicode="û" horiz-adv-x="557" d="M245 549H142l138 143h123l76-143h-95l-53 77zM93 487h116l-60-280c-3-14-5-27-5-39 0-46 23-79 80-79 62 0 100 53 113 114l60 284h114l-78-376c-6-30-11-58-11-89 0-6 0-11 1-22H311c-1 6-2 16-2 29 0 7 0 15 1 24-28-43-80-64-125-64C83-11 26 55 26 148c0 17 2 35 6 54z"/><glyph glyph-name="udieresis" unicode="ü" horiz-adv-x="557" d="M163 618c0 38 32 72 72 72 35 0 59-28 59-59 0-41-37-71-74-71-33 0-57 26-57 58zm203 0c0 38 33 72 72 72 35 0 59-28 59-59 0-41-37-71-73-71-34 0-58 26-58 58zM93 487h116l-60-280c-3-14-5-27-5-39 0-46 23-79 80-79 62 0 100 53 113 114l60 284h114l-78-376c-6-30-11-58-11-89 0-6 0-11 1-22H311c-1 6-2 16-2 29 0 7 0 15 1 24-28-43-80-64-125-64C83-11 26 55 26 148c0 17 2 35 6 54z"/><glyph glyph-name="yacute" unicode="ý" horiz-adv-x="515" d="M95-190H-34L141 80 28 487h123l75-288 175 288h132zm376 886L309 548H209l117 148h145z"/><glyph glyph-name="thorn" unicode="þ" horiz-adv-x="593" d="M-38-190l194 914h115l-60-284c33 37 86 59 140 59 127 0 188-92 188-208 0-173-106-304-255-304-70 0-129 33-154 78L76-190H-38zm348 586c-78 0-145-73-145-183 0-79 44-123 109-123 72 0 147 66 147 186 0 78-42 120-111 120z"/><glyph glyph-name="ydieresis" unicode="ÿ" horiz-adv-x="515" d="M126 618c0 38 32 72 72 72 35 0 59-28 59-59 0-41-37-71-74-71-33 0-57 26-57 58zm203 0c0 38 33 72 72 72 35 0 59-28 59-59 0-41-37-71-73-71-34 0-58 26-58 58zM95-190H-34L141 80 28 487h123l75-288 175 288h132z"/><glyph glyph-name="dotlessi" unicode="ı" horiz-adv-x="267" d="M116 0H0l104 487h116z"/><glyph glyph-name="Lslash" unicode="Ł" horiz-adv-x="555" d="M456 0H20l61 288-99-40L3 349l99 40 68 320h120l-56-266 164 67-21-100-165-68-48-228h316z"/><glyph glyph-name="lslash" unicode="ł" horiz-adv-x="304" d="M121 0H6l63 297-96-39 22 100 95 39 70 327h115l-59-276 103 42-22-100-102-42z"/><glyph glyph-name="OE" unicode="Œ" horiz-adv-x="1091" d="M600 401c0 132-79 210-194 210-148 0-249-135-250-303 0-132 79-210 194-210 148 0 248 136 250 303zM958 0H523l12 58c-54-47-124-73-197-73C156-15 33 113 33 299c0 275 191 425 379 425 115 0 196-46 238-125l23 110h435l-24-112H770l-40-188h285l-24-109H707l-41-188h315z"/><glyph glyph-name="oe" unicode="œ" horiz-adv-x="904" d="M601-15c-75 0-141 31-181 87-47-53-113-87-191-87C92-15 8 86 8 211c0 170 120 291 270 291 82 0 141-34 175-87 50 56 120 87 189 87 134 0 209-84 209-201 0-33-7-67-14-89H490c-1-4-1-7-1-11 0-69 48-117 115-117 64 0 105 34 125 71l88-49C784 42 709-15 601-15zm-98 312h234c0 2 1 10 1 15 0 42-25 93-99 93-73 0-119-51-136-108zm-122-24c0 76-42 125-111 125-78 0-146-72-146-183 0-77 45-126 111-126 72 0 146 63 146 184z"/><glyph glyph-name="Scaron" unicode="Š" horiz-adv-x="583" d="M470 883h112L437 759H308l-89 124h100l60-65zM264 91c74 0 121 40 121 97 0 35-16 67-67 90l-89 40c-85 38-134 97-134 187 0 126 109 219 246 219 181 0 237-127 237-204l-113-20c0 32-15 118-130 118-74 0-118-45-118-100 0-42 24-70 60-86l89-40c101-45 144-111 144-192 0-111-95-215-245-215C74-15 2 116 2 219c0 6 1 12 1 18l116 20c-1-7-1-14-1-21 0-72 42-145 146-145z"/><glyph glyph-name="scaron" unicode="š" horiz-adv-x="443" d="M356 694h104L323 549H198l-74 145h94l53-77zM-13 151l100 19c0-51 30-94 89-94 47 0 69 28 69 56 0 20-12 39-41 52l-62 27c-66 29-96 74-96 131 0 84 71 160 182 160 138 0 175-92 178-145l-101-21c-2 30-19 76-83 76-41 0-66-25-66-55 0-24 13-39 34-48l64-28c71-31 105-81 105-139 0-70-56-157-184-157C23-15-13 93-13 151z"/><glyph glyph-name="Ydieresis" unicode="Ÿ" horiz-adv-x="619" d="M216 814c0 40 32 74 74 74 35 0 59-27 59-59 0-44-35-74-73-74-35 0-60 25-60 59zm206 0c0 40 32 74 74 74 35 0 59-27 59-59 0-44-35-74-73-74-35 0-60 25-60 59zM246 302L87 709h127l110-292 211 292h144L365 298 303 0H182z"/><glyph glyph-name="Zcaron" unicode="Ž" horiz-adv-x="625" d="M495 883h112L462 759H333l-89 124h100l60-65zM507 0H-30l25 116 475 481H106l24 112h523l-24-112-481-484h383z"/><glyph glyph-name="zcaron" unicode="ž" horiz-adv-x="483" d="M369 694h104L336 549H211l-74 145h94l53-77zM368 0H-32l22 102 303 284H58l22 101h385l-22-100-307-285h253z"/><glyph glyph-name="florin" unicode="ƒ" horiz-adv-x="489" d="M99 24l73 364H69v99h123l21 101c22 107 100 152 177 152 44 0 64-6 83-12V627c-17 5-33 8-57 8-31 0-76-12-91-84l-13-64h122v-99H292L212-13C190-120 111-165 34-165c-44 0-61 5-85 12v101c16-4 36-7 61-7 31 0 75 10 89 83z"/><glyph glyph-name="circumflex" unicode="ˆ" horiz-adv-x="386" d="M61 549H-42L96 692h123l76-143h-95l-53 77z"/><glyph glyph-name="caron" unicode="ˇ" horiz-adv-x="386" d="M223 694h104L190 549H65L-9 694h94l53-77z"/><glyph glyph-name="uni02C9" unicode="ˉ" horiz-adv-x="328" d="M243 577H-34l19 90h277z"/><glyph glyph-name="breve" unicode="˘" horiz-adv-x="359" d="M158 547c-86 0-131 58-131 121 0 9 1 20 3 27h79c-1-4-1-6-1-8 0-26 14-54 59-54 50 0 74 35 83 62h88c-17-75-74-148-180-148z"/><glyph glyph-name="dotaccent" unicode="˙" horiz-adv-x="191" d="M-29 614c0 41 35 81 80 81 39 0 66-29 66-64 0-46-37-82-80-82-39 0-66 29-66 65z"/><glyph glyph-name="ring" unicode="˚" horiz-adv-x="277" d="M98 755c59 0 105-43 105-100 0-65-58-120-122-120-59 0-106 43-106 99 0 72 62 121 123 121zM44 641c0-24 16-39 40-39 26 0 48 19 48 47 0 22-16 39-40 39s-48-19-48-47z"/><glyph glyph-name="ogonek" unicode="˛" horiz-adv-x="218" d="M56-220c-58 0-102 35-102 92C-46-42 32 2 83 21l65-21C104-18 45-53 45-104c0-26 20-38 45-39 15 0 26 2 28 2l-15-72c-13-4-25-7-47-7z"/><glyph glyph-name="tilde" unicode="˜" horiz-adv-x="375" d="M80 555H1c11 98 65 135 124 135 30 0 54-13 71-24l6-4c13-9 26-18 42-18 21 0 34 15 40 44h78c-15-99-63-135-121-135-29 0-52 12-70 24l-8 5c-15 9-26 17-43 17-19 0-34-13-40-44z"/><glyph glyph-name="hungarumlaut" unicode="˝" horiz-adv-x="373" d="M161 696L35 548h-80l84 148h122zm157 0L179 548H99l96 148h123z"/><glyph glyph-name="uni0394" unicode="Δ" horiz-adv-x="663" d="M480 111L308 576 137 111h343zM-30 0l274 709h130L648 0H-30z"/><glyph glyph-name="uni03A9" unicode="Ω" horiz-adv-x="801" d="M399 614c-112 0-226-79-226-223 0-127 95-208 187-227V0H56v109h185C141 148 50 251 50 396c0 204 166 328 349 328s349-124 349-328c0-145-91-248-191-287h185V0H438v164c92 19 187 100 187 227 0 144-114 223-226 223z"/><glyph glyph-name="uni03BC" unicode="μ" horiz-adv-x="589" d="M58-190v677h117V201c0-60 28-111 98-111 67 0 102 45 102 109v288h116V89c0-45 4-81 5-89H385c-2 10-4 36-4 55-26-47-85-69-138-69-26 0-49 5-69 14v-190H58z"/><glyph glyph-name="pi" unicode="π" horiz-adv-x="638" d="M500 387V139c0-36 24-48 51-48 14 0 22 1 31 4V5c-8-3-29-13-65-13-90 0-132 59-132 133v262H238V0H123v387H40v100h540V387h-80z"/><glyph glyph-name="uni2007" horiz-adv-x="607"/><glyph glyph-name="uni2008" horiz-adv-x="272"/><glyph glyph-name="uni200B" unicode="​" horiz-adv-x="0"/><glyph glyph-name="endash" unicode="–" horiz-adv-x="633" d="M549 242H35l21 101h514z"/><glyph glyph-name="emdash" unicode="—" horiz-adv-x="1085" d="M991 242H45l21 101h946z"/><glyph glyph-name="quoteleft" unicode="‘" horiz-adv-x="225" d="M224 515c0-43-35-78-81-78s-76 34-76 81c0 102 86 194 193 199l-12-57c-49-6-95-44-107-89 2 1 12 4 21 4 37 0 62-26 62-60z"/><glyph glyph-name="quoteright" unicode="’" horiz-adv-x="215" d="M92 639c0 43 36 78 82 78 45 0 76-34 76-81 0-102-87-194-193-199l11 57c47 6 96 44 107 89-2-1-12-4-21-4-37 0-62 26-62 60z"/><glyph glyph-name="quotesinglbase" unicode="‚" horiz-adv-x="223" d="M-24 55c0 44 35 78 81 78s76-33 76-81c0-101-86-194-193-198l12 56C-2-84 47-46 58 0c-2-2-11-4-21-4C0-4-24 22-24 55z"/><glyph glyph-name="quotedblleft" unicode="“" horiz-adv-x="411" d="M411 520c0-42-33-75-80-75-44 0-74 32-74 79 0 98 84 187 189 193l-12-55c-46-7-93-45-104-87 2 1 11 3 20 3 37 0 61-25 61-58zm-191 0c0-42-33-75-79-75-45 0-74 32-74 79 0 98 83 187 188 193l-12-55c-46-7-92-45-104-87 2 1 11 3 21 3 36 0 60-25 60-58z"/><glyph glyph-name="quotedblright" unicode="”" horiz-adv-x="402" d="M92 639c0 43 34 76 79 76 44 0 74-33 74-79 0-99-84-189-188-193l11 55c45 6 93 42 104 87-2-2-11-4-20-4-36 0-60 25-60 58zm191 0c0 43 34 76 80 76 44 0 74-33 74-79 0-99-84-189-189-193l12 55c45 6 93 42 104 87-2-2-11-4-20-4-37 0-61 25-61 58z"/><glyph glyph-name="quotedblbase" unicode="„" horiz-adv-x="403" d="M-25 54c0 43 34 76 79 76s74-33 74-79c0-99-83-189-188-193l12 55C-4-81 45-45 56 0c-2-2-11-4-21-4-36 0-60 25-60 58zm185 0c0 43 34 76 79 76 44 0 74-33 74-79 0-99-84-189-188-193l11 55c45 6 93 42 104 87-2-2-11-4-20-4-36 0-60 25-60 58z"/><glyph glyph-name="dagger" unicode="†" horiz-adv-x="418" d="M231 709h98l-31-145h125l-20-94H278l-65-308h-99l66 308H55l20 94h124z"/><glyph glyph-name="daggerdbl" unicode="‡" horiz-adv-x="436" d="M187 0H89l30 146H-5l19 93h125l49 231H63l21 93h124l31 146h98l-31-146h125l-20-93H286l-49-231h125l-20-93H218z"/><glyph glyph-name="bullet" unicode="•" horiz-adv-x="550" d="M55 294c0 116 93 209 208 209 114 0 207-93 207-209 0-113-93-207-207-207-115 0-208 94-208 207z"/><glyph glyph-name="ellipsis" unicode="…" horiz-adv-x="870" d="M75-8C34-8 7 22 7 57c0 44 37 82 83 82 41 0 68-30 68-66 0-45-38-81-83-81zm294 0c-41 0-68 30-68 65 0 44 37 82 83 82 41 0 68-30 68-66 0-45-38-81-83-81zm295 0c-41 0-68 30-68 65 0 44 37 82 83 82 41 0 68-30 68-66 0-45-38-81-83-81z"/><glyph glyph-name="perthousand" unicode="‰" horiz-adv-x="1017" d="M790-6c-46 0-85 18-111 48-33-30-77-48-120-48-85 0-146 64-146 144 0 100 83 177 178 177 45 0 84-19 110-48 32 30 75 48 121 48 84 0 146-64 146-145C968 68 879-6 790-6zM194 338c-85 0-146 64-146 144 0 100 83 177 178 177 84 0 146-64 146-145 0-102-89-176-178-176zm548 310L144 0H34l599 648h109zM567 81c39 0 78 32 78 85 0 37-24 62-63 62s-77-34-77-84c0-37 23-63 62-63zM202 425c39 0 78 32 78 85 0 37-24 62-63 62s-77-34-77-84c0-37 23-63 62-63zM798 81c39 0 78 32 78 85 0 37-24 62-63 62s-77-34-77-84c0-37 23-63 62-63z"/><glyph glyph-name="guilsinglleft" unicode="‹" horiz-adv-x="293" d="M217 100H109L10 296l174 191h119L123 287z"/><glyph glyph-name="guilsinglright" unicode="›" horiz-adv-x="290" d="M46 487h108l99-196L79 100H-40l181 200z"/><glyph glyph-name="uni2042" unicode="⁂" horiz-adv-x="813" d="M514 709l-22-115 112 36 10-78-113-36 53-88-70-47-54 94-87-94-59 48 89 93-100 34 36 74 99-36 19 115h87zM241 317l-22-115 112 36 10-78-113-36 53-88-70-47-54 94-87-94-59 48 89 93L0 164l36 74 99-36 19 115h87zm411 0l-22-115 112 36 10-78-113-36 53-88-70-47-54 94-87-94-59 48 89 93-100 34 36 74 99-36 19 115h87z"/><glyph glyph-name="fraction" unicode="⁄" horiz-adv-x="538" d="M623 648L25 0H-85l599 648h109z"/><glyph glyph-name="uni2051" unicode="⁑" horiz-adv-x="434" d="M334 709l-22-115 112 36 10-78-113-36 53-88-70-47-54 94-87-94-59 48 89 93-100 34 36 74 99-36 19 115h87zm-92-391l-22-115 112 36 10-78-113-36 53-88-70-47-54 94-87-94-59 48 89 93L1 165l36 74 99-36 19 115h87z"/><glyph glyph-name="uni2070" unicode="⁰" horiz-adv-x="415" d="M55 477c0 103 53 240 186 240 97 0 144-64 144-141 0-116-57-241-186-241-83 0-144 56-144 142zm87 2c0-34 18-66 61-66 68 0 95 99 95 161 0 34-14 66-61 66-75 0-95-116-95-161z"/><glyph glyph-name="uni2074" unicode="⁴" horiz-adv-x="433" d="M56 417l19 96 204 196h101l-47-219h63l-16-73h-62c0-1-6-26-16-74h-89l15 74H56zm187 73l28 122-127-122h99z"/><glyph glyph-name="uni2075" unicode="⁵" horiz-adv-x="402" d="M52 459l85 8c0-30 19-55 55-55 30 0 61 19 61 59 0 32-24 49-53 49-19 0-35-7-46-16l-73 37 74 168h219l-16-75H203l-28-62c15 9 38 12 54 12 68 0 114-39 114-106 0-78-64-142-152-142-82 0-139 52-139 123z"/><glyph glyph-name="uni2076" unicode="⁶" horiz-adv-x="391" d="M384 692l-31-67c-18 10-41 17-75 17-47 0-98-26-118-76 18 17 49 23 73 23 72 0 116-44 116-109 0-90-75-145-156-145-76 0-141 53-141 149 0 133 98 232 227 232 41 0 78-7 105-24zM207 520c-33 0-64-23-64-60 0-31 23-51 54-51 30 0 62 21 62 63 0 28-21 48-52 48z"/><glyph glyph-name="uni2077" unicode="⁷" horiz-adv-x="364" d="M394 709l-16-74c-51-36-161-119-213-292H70c43 175 183 281 198 290H82l15 76h297z"/><glyph glyph-name="uni2078" unicode="⁸" horiz-adv-x="398" d="M193 600c0-20 17-37 41-37 28 0 55 16 55 46 0 18-13 37-44 37-32 0-52-20-52-46zm-42-154c0-26 25-41 53-41 38 0 61 21 61 51 0 21-16 41-53 41s-61-24-61-51zm52-111c-95 0-143 44-143 101 0 46 38 85 95 98-29 11-48 43-48 70 0 64 56 113 144 113 80 0 127-41 127-96 0-40-29-78-78-94 30-10 54-43 54-74 0-70-66-118-151-118z"/><glyph glyph-name="uni2079" unicode="⁹" horiz-adv-x="409" d="M47 367l32 67c22-15 51-23 83-23 45 0 98 25 112 79-18-18-47-27-71-27-71 0-121 45-121 111 0 87 72 142 155 142 77 0 139-50 139-144 0-141-85-237-217-237-43 0-84 13-112 32zm175 163c34 0 61 26 61 63 0 30-23 50-50 50-32 0-61-23-61-63 0-30 21-50 50-50z"/><glyph glyph-name="uni2080" unicode="₀" horiz-adv-x="415" d="M20 61c0 103 53 240 186 240 97 0 144-64 144-141 0-116-57-241-186-241C81-81 20-25 20 61zm87 2c0-34 18-66 61-66 68 0 95 99 95 161 0 34-14 66-61 66-75 0-95-116-95-161z"/><glyph glyph-name="uni2081" unicode="₁" horiz-adv-x="298" d="M142-90H51l53 238H19l12 59c55 2 95 34 110 69h80z"/><glyph glyph-name="uni2082" unicode="₂" horiz-adv-x="382" d="M109 81l64 28c36 16 52 34 52 59 0 19-14 42-45 42-37 0-60-24-60-69l-84 3c0 85 60 139 147 139 88 0 133-51 133-110 0-60-40-100-102-127l-76-33c-20-9-27-24-28-27h171l-16-76H-13C-8-10 33 48 109 81z"/><glyph glyph-name="uni2083" unicode="₃" horiz-adv-x="427" d="M138 77l-27 64 111 62H59l16 74h272l-17-85-108-59c48-10 82-48 82-99 0-68-61-130-153-130C69-96 10-47 10 23c0 5 1 12 2 16l82 6c-1-5-1-8-1-10 0-29 23-56 58-56 38 0 63 20 63 57 0 29-24 46-51 46-10 0-18-2-25-5z"/><glyph glyph-name="uni2084" unicode="₄" horiz-adv-x="430" d="M-7-16l19 96 204 196h101L270 57h63l-16-73h-62c0-1-6-26-16-74h-89l15 74H-7zm187 73l28 122L81 57h99z"/><glyph glyph-name="uni2085" unicode="₅" horiz-adv-x="402" d="M-7 26l85 8c0-30 19-55 55-55 30 0 61 19 61 59 0 32-24 49-53 49-19 0-35-7-46-16l-73 37 74 168h219l-16-75H144l-28-62c15 9 38 12 54 12 68 0 114-39 114-106 0-78-64-142-152-142C50-97-7-45-7 26z"/><glyph glyph-name="uni2086" unicode="₆" horiz-adv-x="391" d="M325 260l-31-67c-18 10-41 17-75 17-47 0-98-26-118-76 18 17 49 23 73 23 72 0 116-44 116-109 0-90-75-145-156-145C58-97-7-44-7 52c0 133 98 232 227 232 41 0 78-7 105-24zM148 88c-33 0-64-23-64-60 0-31 23-51 54-51 30 0 62 21 62 63 0 28-21 48-52 48z"/><glyph glyph-name="uni2087" unicode="₇" horiz-adv-x="364" d="M337 276l-16-74C270 166 160 83 108-90H13C56 85 196 191 211 200H25l15 76h297z"/><glyph glyph-name="uni2088" unicode="₈" horiz-adv-x="398" d="M136 167c0-20 17-37 41-37 28 0 55 16 55 46 0 18-13 37-44 37-32 0-52-20-52-46zM94 13c0-26 25-41 53-41 38 0 61 21 61 51 0 21-16 41-53 41S94 40 94 13zm52-111C51-98 3-54 3 3c0 46 38 85 95 98-29 11-48 43-48 70 0 64 56 113 144 113 80 0 127-41 127-96 0-40-29-78-78-94 30-10 54-43 54-74 0-70-66-118-151-118z"/><glyph glyph-name="uni2089" unicode="₉" horiz-adv-x="409" d="M3-65L35 2c22-15 51-23 83-23 45 0 98 25 112 79-18-18-47-27-71-27C88 31 38 76 38 142c0 87 72 142 155 142 77 0 139-50 139-144C332-1 247-97 115-97 72-97 31-84 3-65zM178 98c34 0 61 26 61 63 0 30-23 50-50 50-32 0-61-23-61-63 0-30 21-50 50-50z"/><glyph glyph-name="Euro" unicode="€" horiz-adv-x="680" d="M49 360l19 85h84c63 144 207 218 340 218 87 0 155-26 198-66l-65-86c-32 31-86 49-143 49-73 0-155-36-204-115h299l-57-85H245c-5-23-8-47-8-74h241l-57-87H252c29-73 99-111 183-111 46 0 87 11 122 34l37-90C547 3 486-15 420-15c-137 0-257 80-291 214H15l19 87h85c0 26 2 50 7 74H49z"/><glyph glyph-name="uni2113" unicode="ℓ" horiz-adv-x="479" d="M100 131c0 26 12 85 13 89-24-5-48-10-73-12l21 103c23 3 48 9 73 17l46 218c20 95 84 148 159 148 84 0 130-50 130-125 0-112-95-242-240-312l-14-68c-2-9-5-25-5-32 0-54 44-62 75-62 43 0 67 16 73 19l-21-99c-6-5-33-22-79-22-107 0-158 56-158 138zm189 407l-31-147c55 41 102 102 102 170 0 20-9 31-28 31s-35-13-43-54z"/><glyph glyph-name="trademark" unicode="™" horiz-adv-x="875" d="M361 632H254l-61-288h-85l61 288H61l16 77h300zm415-288h-83l48 228-139-228h-64l-49 227-48-227h-84l77 365h108l50-232 141 232h120z"/><glyph glyph-name="Omega" unicode="Ω" horiz-adv-x="801" d="M399 614c-112 0-226-79-226-223 0-127 95-208 187-227V0H56v109h185C141 148 50 251 50 396c0 204 166 328 349 328s349-124 349-328c0-145-91-248-191-287h185V0H438v164c92 19 187 100 187 227 0 144-114 223-226 223z"/><glyph glyph-name="uni2160" unicode="Ⅰ" horiz-adv-x="488" d="M107 648h401l-21-104H345l-93-440h140L371 0H-30l21 104h142l93 440H85z"/><glyph glyph-name="uni2161" unicode="Ⅱ" horiz-adv-x="765" d="M107 648h678l-21-104H626l-93-440h137L648 0H-30l21 104h139l93 440H85zm142-544h165l93 440H342z"/><glyph glyph-name="uni2162" unicode="Ⅲ" horiz-adv-x="1039" d="M688 104l93 440H620l-92-440h160zm-279 0l93 440H341l-92-440h160zM-30 0l21 104h139l93 440H85l22 104h952l-21-104H899l-92-440h137L922 0H-30z"/><glyph glyph-name="uni2163" unicode="Ⅳ" horiz-adv-x="1008" d="M85 544l22 104h931l-21-104H904L665 104h258L902 0H-30l21 104h132l93 440H85zm249 0l-93-440h225l-53 440h-79zm201 0l40-389 205 389H535z"/><glyph glyph-name="uni2164" unicode="Ⅴ" horiz-adv-x="772" d="M-15 104h249l-53 440H75l22 104h705l-21-104H671L432 104h252L663 0H-37zm318 440l40-389 205 389H303z"/><glyph glyph-name="uni2165" unicode="Ⅵ" horiz-adv-x="1010" d="M79 544l21 104h930l-22-104H877l-93-440h131L893 0H-37l22 104h255l-53 440H79zm599 0L439 104h227l93 440h-81zm-368 0l39-389 206 389H310z"/><glyph glyph-name="uni2166" unicode="Ⅶ" horiz-adv-x="1293" d="M349 155l207 389H310zm317-51l92 440h-79L439 104h227zm276 0l93 440H876l-92-440h158zM1176 0H-37l22 104h255l-53 440H78l21 104h1213l-21-104h-138l-92-440h136z"/><glyph glyph-name="uni2167" unicode="Ⅷ" horiz-adv-x="1557" d="M85 544l22 104h1470l-22-104h-134l-93-440h133L1440 0H-30l21 104h254l-51 440H85zm594 0L442 104h226l93 440h-82zm200 0l-93-440h153l93 440H879zm271 0l-93-440h152l93 440h-152zm-834 0l37-389 202 389H316z"/><glyph glyph-name="uni2168" unicode="Ⅸ" horiz-adv-x="980" d="M85 544l22 104h903l-22-104H883L675 318l109-214h111L873 0H-30l21 104h132l93 440H85zm446-225L417 544h-83l-93-440h87zm22 225l66-138 125 138H553zm33-311L467 104h181z"/><glyph glyph-name="uni2169" unicode="Ⅹ" horiz-adv-x="744" d="M295 319L181 544H79l21 104h674l-22-104H647L439 318l109-214h110L637 0H-37l22 104H92zm22 225l66-138 125 138H317zm33-311L231 104h181z"/><glyph glyph-name="uni216C" unicode="Ⅼ" horiz-adv-x="631" d="M107 648h374l-21-104H326l-93-440h192l39 183h116L519 0H-30l21 104h124l93 440H85z"/><glyph glyph-name="uni216D" unicode="Ⅽ" horiz-adv-x="718" d="M608 648h117l-51-238H558c-3 72-66 146-174 146-106 0-228-85-228-276 0-119 80-189 184-189 113 0 165 71 181 128l3 14h117L591 0H476l11 55c-36-40-91-70-166-70C168-15 40 102 40 275c0 248 182 388 353 388 107 0 167-39 198-93z"/><glyph glyph-name="uni216E" unicode="Ⅾ" horiz-adv-x="742" d="M333 544l-94-440h70c126 0 253 94 253 281 0 105-66 159-161 159h-68zM-30 0l21 104h130l92 440H86l20 104h316c156 0 260-93 260-256C682 139 504 0 315 0H-30z"/><glyph glyph-name="uni216F" unicode="Ⅿ" horiz-adv-x="1032" d="M312 104L291 0H-30l21 104h116l92 440H85l22 104h275l90-469 286 469h294l-21-104H913l-92-440h116L915 0H590l22 104h91l79 376L485 3h-89l-95 474-79-373h90z"/><glyph glyph-name="arrowleft" unicode="←" horiz-adv-x="1046" d="M239 86L-5 292l244 208V343h742V242H239V86z"/><glyph glyph-name="arrowup" unicode="↑" horiz-adv-x="469" d="M252 800l215-257H302v-690H202v690H35z"/><glyph glyph-name="arrowright" unicode="→" horiz-adv-x="1058" d="M1019 292L745 68v174H29v100h716v175z"/><glyph glyph-name="arrowdown" unicode="↓" horiz-adv-x="465" d="M443 105L219-157-6 105h174v686h101V105h174z"/><glyph glyph-name="uni2196" unicode="↖" horiz-adv-x="875" d="M60 709h314L253 587 780 61l-71-71-527 526L60 393v316z"/><glyph glyph-name="uni2197" unicode="↗" horiz-adv-x="764" d="M355 709h314V393L546 516 20-10l-71 71 527 526z"/><glyph glyph-name="uni2198" unicode="↘" horiz-adv-x="865" d="M770 0H456l121 122L50 648l71 71 526-527 123 124V0z"/><glyph glyph-name="uni2199" unicode="↙" horiz-adv-x="755" d="M354 0H40v316l122-124 527 527 71-71-527-526z"/><glyph glyph-name="uni21A9" unicode="↩" horiz-adv-x="848" d="M401 557v100h193c137 0 233-93 233-214s-97-214-230-214H231V73L-13 280l244 208V330h363c74 0 131 47 131 113 0 71-57 114-135 114H401z"/><glyph glyph-name="uni21B0" unicode="↰" horiz-adv-x="791" d="M288 310L43 517l245 207V567h418V0H606v467H288V310z"/><glyph glyph-name="uni21B1" unicode="↱" horiz-adv-x="736" d="M135 0H35v567h452v157l244-207-244-207v157H135V0z"/><glyph glyph-name="uni21B2" unicode="↲" horiz-adv-x="766" d="M584 709h101V142H232V-15L-12 192l244 207V242h352v467z"/><glyph glyph-name="uni21B3" unicode="↳" horiz-adv-x="846" d="M531 399l244-207L531-15v157H78v567h101V242h352v157z"/><glyph glyph-name="uni21B4" unicode="↴" horiz-adv-x="806" d="M58 609v100h572V225h157L581-16 374 225h156v384H58z"/><glyph glyph-name="uni21C6" unicode="⇆" horiz-adv-x="1139" d="M304 342L60 549l244 208V599h756V498H304V342zm780-176L840-41v157H85v100h755v157z"/><glyph glyph-name="partialdiff" unicode="∂" horiz-adv-x="658" d="M275 617c-31 0-86-5-143-33l-40 92c63 35 135 46 191 46 124 0 314-63 314-374 0-214-93-363-283-363C189-15 66 66 66 227c0 145 120 232 244 232 79 0 136-27 165-54-18 155-93 212-200 212zm58-257c-100 0-150-62-150-139 0-84 68-130 136-130 128 0 158 130 159 206-32 40-87 63-145 63z"/><glyph glyph-name="Delta" unicode="∆" horiz-adv-x="663" d="M480 111L308 576 137 111h343zM-30 0l274 709h130L648 0H-30z"/><glyph glyph-name="product" unicode="∏" horiz-adv-x="686" d="M598 0H480v600H202V0H82v709h516V0z"/><glyph glyph-name="summation" unicode="∑" horiz-adv-x="567" d="M35 0v107l263 248L35 602v107h507V598H198l260-243-269-244h353V0H35z"/><glyph glyph-name="minus" unicode="−" horiz-adv-x="552" d="M40 244v96h451v-96H40z"/><glyph glyph-name="uni2215" unicode="∕" horiz-adv-x="403" d="M376 653h111L31-5H-80z"/><glyph glyph-name="uni2219" unicode="∙" horiz-adv-x="278" d="M50 290c0 45 39 86 87 86 43 0 71-32 71-69 0-50-40-87-86-87-43 0-72 32-72 70z"/><glyph glyph-name="radical" unicode="√" horiz-adv-x="673" d="M725 773H599L338 0H232L42 534h120l123-364 232 704h208V773z"/><glyph glyph-name="infinity" unicode="∞" horiz-adv-x="821" d="M40 290c0 102 77 179 184 179 66 0 128-36 184-104 57 67 115 104 179 104 107 0 184-77 184-179s-77-178-184-178c-67 0-128 34-183 103-58-66-114-103-180-103-107 0-184 76-184 178zm186 79c-51 0-83-35-83-80s32-79 83-79c44 0 80 32 117 77-39 47-72 82-117 82zm359-159c51 0 83 34 83 79s-32 80-83 80c-45 0-78-34-117-79 38-46 73-80 117-80z"/><glyph glyph-name="integral" unicode="∫" horiz-adv-x="322" d="M86-24v560c0 107 66 173 173 173h45V606h-38c-39 0-64-24-64-71V-26c0-107-64-174-171-174h-49v103h39c38 0 65 26 65 73z"/><glyph glyph-name="approxequal" unicode="≈" horiz-adv-x="660" d="M516 447l62-52c-36-59-93-92-155-92-35 0-68 10-104 30l-48 26c-19 10-39 15-57 15-33 0-64-15-89-46l-63 54c37 61 92 93 153 93 34 0 69-10 106-30l46-25c21-12 43-18 63-18 32 0 62 15 86 45zm0-197l62-53c-36-59-93-92-155-92-35 0-68 10-104 30l-48 26c-19 10-39 15-57 15-33 0-64-15-89-46l-63 54c37 61 92 93 153 93 34 0 69-10 106-30l46-25c21-12 42-18 63-18 32 0 62 15 86 46z"/><glyph glyph-name="notequal" unicode="≠" horiz-adv-x="619" d="M62 343v94h292l66 95h109l-66-95h74v-94H398l-70-102h209v-95H263l-68-98H86l68 98H62v95h157l70 102H62z"/><glyph glyph-name="lessequal" unicode="≤" horiz-adv-x="572" d="M65 47v96h422V47H65zm0 264v97l422 141v-99l-292-89 292-91v-99z"/><glyph glyph-name="greaterequal" unicode="≥" horiz-adv-x="572" d="M487 143V47H65v96h422zm0 265v-97L65 171v98l292 90-292 90v100z"/><glyph glyph-name="dotmath" unicode="⋅" horiz-adv-x="278" d="M50 290c0 45 39 86 87 86 43 0 71-32 71-69 0-50-40-87-86-87-43 0-72 32-72 70z"/><glyph glyph-name="uni24C5" unicode="Ⓟ" horiz-adv-x="818" d="M35 355c0 203 163 369 366 369 204 0 369-166 369-369 0-204-165-370-369-370C198-15 35 151 35 355zm82 0c0-166 125-294 284-294 160 0 285 128 285 294 0 165-125 293-285 293-159 0-284-128-284-293zm263 14h47c46 0 79 24 79 70 0 29-19 46-55 46h-46zm62-72h-78l-29-141h-84l85 400h139c70 0 117-53 117-113 0-81-64-146-150-146z"/><glyph glyph-name="filledbox" unicode="■" horiz-adv-x="882" d="M87 0v709h709V0H87z"/><glyph glyph-name="H22073" unicode="□" horiz-adv-x="882" d="M796 0H87v709h709V0zM186 613V95h509v518H186z"/><glyph glyph-name="triagup" unicode="▲" horiz-adv-x="834" d="M355 724L773 0H-65z"/><glyph glyph-name="uni25B3" unicode="△" horiz-adv-x="834" d="M-65 0l420 724L772 0H-65zm419 525L104 95h498z"/><glyph glyph-name="lozenge" unicode="◊" horiz-adv-x="586" d="M293 123l134 231-134 232-134-232zM351 0H235L30 354l205 355h116l205-355z"/><glyph glyph-name="circle" unicode="○" horiz-adv-x="831" d="M784 354c0-205-165-370-370-370S43 149 43 354s166 371 371 371 370-166 370-371zm-101 0c0 151-120 273-269 273-150 0-271-122-271-273S264 81 414 81c149 0 269 122 269 273z"/><glyph glyph-name="H18533" unicode="●" horiz-adv-x="831" d="M43 354c0 205 165 371 370 371s371-166 371-371S618-16 413-16 43 149 43 354z"/><glyph glyph-name="uni262E" unicode="☮" horiz-adv-x="818" d="M771 355c0-204-164-370-368-370C200-15 37 151 37 355c0 203 163 369 366 369 204 0 368-166 368-369zm-99 0c0 138-95 249-221 272V412l195-178c16 36 26 77 26 121zm-539 0c0-43 9-84 26-120l193 177v215c-125-24-219-135-219-272zM451 81c53 10 101 35 138 71L451 280V81zm-236 73c37-37 84-62 137-72v198z"/><glyph glyph-name="uni2713" unicode="✓" horiz-adv-x="816" d="M886 656L259-17-29 304l73 68 219-239 551 594z"/><glyph glyph-name="uni2715" unicode="✕" horiz-adv-x="781" d="M105-5L35 65l285 289L35 642l71 70 283-287 283 287 71-70-284-288L746 65 676-5 390 284z"/><glyph glyph-name="uni2780" unicode="➀" horiz-adv-x="818" d="M37 355c0 203 163 369 366 369s368-166 368-369c0-204-165-370-368-370S37 151 37 355zm82 0c0-166 124-294 284-294 159 0 284 128 284 294 0 165-125 293-284 293-160 0-284-128-284-293zm342-182h-91v232h-89v60c57 1 91 37 98 74h82V173z"/><glyph glyph-name="uni2781" unicode="➁" horiz-adv-x="818" d="M403 724c203 0 368-166 368-369 0-204-165-370-368-370S37 151 37 355c0 203 163 369 366 369zM119 355c0-166 124-294 284-294 159 0 284 128 284 294 0 165-125 293-284 293-160 0-284-128-284-293zm229-11l60 36c26 16 40 35 40 57 0 21-15 44-48 44-32 0-52-21-53-51 0-6 1-17 3-26h-84c-2 9-3 20-3 29 0 65 50 121 138 121 87 0 138-55 138-118 0-47-29-84-75-112l-71-43c-10-6-19-15-21-25h169v-76H260v15c0 62 25 112 88 149z"/><glyph glyph-name="uni2782" unicode="➂" horiz-adv-x="818" d="M37 355c0 203 163 369 366 369s368-166 368-369c0-204-165-370-368-370S37 151 37 355zm82 0c0-166 124-294 284-294 159 0 284 128 284 294 0 165-125 293-284 293-160 0-284-128-284-293zm128-83l80 23c5-33 32-57 69-57s61 21 61 48c0 37-30 51-61 51-12 0-24-2-34-6l-32 61 94 70H260v75h279v-73l-94-68c59-7 103-45 103-110 0-67-58-124-151-124-89 0-140 54-150 110z"/><glyph glyph-name="uni2783" unicode="➃" horiz-adv-x="818" d="M37 355c0 203 163 369 366 369s368-166 368-369c0-204-165-370-368-370S37 151 37 355zm82 0c0-166 124-294 284-294 159 0 284 128 284 294 0 165-125 293-284 293-160 0-284-128-284-293zm107-106v85l173 210h98V322h62v-73h-62v-71h-90v71H226zm181 73v121l-98-121h98z"/><glyph glyph-name="uni2784" unicode="➄" horiz-adv-x="818" d="M37 355c0 203 163 369 366 369s368-166 368-369c0-204-165-370-368-370S37 151 37 355zm82 0c0-166 124-294 284-294 159 0 284 128 284 294 0 165-125 293-284 293-160 0-284-128-284-293zm128-92l79 26c6-33 33-53 66-53 35 0 59 19 59 53 0 38-25 56-60 56-24 0-44-10-58-24l-74 25 47 188h214v-75H362l-19-74c17 18 45 25 72 25 76 0 126-45 126-119 0-71-53-130-149-130-77 0-134 48-145 102z"/><glyph glyph-name="uni2785" unicode="➅" horiz-adv-x="818" d="M37 355c0 203 163 369 366 369s368-166 368-369c0-204-165-370-368-370S37 151 37 355zm82 0c0-166 124-294 284-294 159 0 284 128 284 294 0 165-125 293-284 293-160 0-284-128-284-293zm410 174l-18-68c-19 8-41 12-64 12-57 0-106-29-120-92 19 22 53 37 88 37 75 0 130-43 130-122 0-78-65-131-152-131-81 0-156 57-156 168 0 132 88 214 204 214 32 0 64-7 88-18zM333 294c0-35 29-55 60-55s60 20 60 55-29 56-60 56-60-21-60-56z"/><glyph glyph-name="uni2786" unicode="➆" horiz-adv-x="818" d="M37 355c0 203 163 369 366 369s368-166 368-369c0-204-165-370-368-370S37 151 37 355zm82 0c0-166 124-294 284-294 159 0 284 128 284 294 0 165-125 293-284 293-160 0-284-128-284-293zm435 177v-78c-35-26-130-109-147-289h-96c15 190 131 291 131 291H251v76h303z"/><glyph glyph-name="uni2787" unicode="➇" horiz-adv-x="818" d="M37 355c0 203 163 369 366 369s368-166 368-369c0-204-165-370-368-370S37 151 37 355zm82 0c0-166 124-294 284-294 159 0 284 128 284 294 0 165-125 293-284 293-160 0-284-128-284-293zm284 37c32 0 50 19 50 43 0 21-17 40-50 40s-51-19-51-40c0-24 19-43 51-43zm0-154c41 0 60 20 60 46 0 24-20 44-60 44s-61-20-61-44c0-26 20-46 61-46zm0-73c-96 0-151 46-151 109 0 39 28 73 71 87-39 14-60 47-60 81 0 61 55 105 140 105s139-44 139-105c0-34-21-67-59-81 42-14 71-48 71-85 0-64-54-111-151-111z"/><glyph glyph-name="uni2788" unicode="➈" horiz-adv-x="818" d="M37 355c0 203 163 369 366 369s368-166 368-369c0-204-165-370-368-370S37 151 37 355zm82 0c0-166 124-294 284-294 159 0 284 128 284 294 0 165-125 293-284 293-160 0-284-128-284-293zm154-174l17 70c19-8 41-13 64-13 58 0 109 26 119 92-18-23-53-37-88-37-72 0-131 44-131 122 0 77 63 131 152 131 80 0 155-57 155-165 0-141-83-217-200-217-32 0-64 6-88 17zm191 235c0 35-28 56-61 56-32 0-60-21-60-56s28-56 60-56c33 0 61 21 61 56z"/><glyph glyph-name="uniE000" unicode="" horiz-adv-x="776" d="M222-16L15 225h157v484h572V609H273V225h156z"/><glyph glyph-name="uni21B5" unicode="" horiz-adv-x="1097" d="M239 122L40 355h143c1 205 166 369 370 369 64 0 125-16 177-44l-45-90c-40 22-84 34-131 34-150 0-270-120-270-269h153zm682 232C920 150 755-15 551-15c-64 0-124 16-177 44l45 90c40-22 84-34 132-34 149 0 268 120 268 269H669l199 232 199-232H921z"/><glyph glyph-name="uniE002" unicode="" horiz-adv-x="953" d="M531 354l198 232 199-232H786c0-204-165-369-370-369C212-15 47 150 47 354c0 205 165 370 369 370 61 0 118-14 169-40l-42-91c-38 20-81 31-126 31-150 0-269-120-269-270S267 83 417 83c149 0 268 121 268 271H531z"/><glyph glyph-name="uniFB00" unicode="ﬀ" horiz-adv-x="652" d="M144 0H27l82 387H27l21 100h83l18 86c27 128 110 157 184 157 38 0 66-11 73-15l-21-96c-2 0-16 8-41 8-38 0-70-17-81-69l-16-71h187l18 86c27 128 110 157 184 157 38 0 66-11 73-15l-21-96c-2 0-16.368 8-41 8-38 0-70-17-81-69l-15-71h106l-21-100H529L448 0H330l82 387H226z"/><glyph glyph-name="fi" unicode="ﬁ" horiz-adv-x="612" d="M226 387L144 .001H27l82 387H27l21 100h83l19 89c26 125 109 154 183 154 38 0 66-11 73-15l-21-96c0-.053-.044-.078-.132-.078-1.58 0-17.236 8.077-41.868 8.077-40 0-70-20-81-72l-15-68h316L459 0H344l82 387H226zm239 266.001c0 46 40 82 83 82 40 0 68-29 68-66 0-48-41-83-83-83-40 0-68 30-68 67z"/><glyph glyph-name="fl" unicode="ﬂ" horiz-adv-x="610" d="M226 387L144 .001H27l82 387H27l21 100h83l19 89c26 125 109 154 183 154 38 0 66-11 73-15l-21-96c0-.053-.044-.078-.132-.078-1.58 0-17.236 8.077-41.868 8.077-40 0-70-20-81-72l-15-68h200l51 237h115L459 0H344l82 387H226z"/><glyph glyph-name="uniFB03" unicode="ﬃ" horiz-adv-x="909" d="M762 653c0 46 40 82 83 82 40 0 68-29 68-66 0-48-41-83-83-83-40 0-68 30-68 67zM144 0L27.001.002l82 387h-82l21 100h83l18 86c27 128 110 157 184 157 38 0 66-11 73-15l-21-96c0-.053-.042-.078-.124-.078-1.485 0-16.244 8.077-40.876 8.077-38 0-70-17-81-69l-16-71h187l18 86c27 128 110 157 184 157 38 0 66-11 73-15l-21-96c0-.053-.042-.078-.125-.078-1.485 0-16.244 8.077-40.876 8.077-38 0-70-17-81-69l-15-71h309L756 0H641l83 387H529L448 0H330l82 387H226z"/><glyph glyph-name="uniFB04" unicode="ﬄ" horiz-adv-x="914" d="M144 0L27.001.002l82 387h-82l21 100h83l18 86c27 128 110 157 184 157 38 0 66-11 73-15l-21-96c0-.053-.042-.078-.124-.078-1.485 0-16.244 8.077-40.876 8.077-38 0-70-17-81-69l-16-71h187l18 86c27 128 110 157 184 157 38 0 66-11 73-15l-21-96c0-.053-.042-.078-.125-.078-1.485 0-16.244 8.077-40.876 8.077-38 0-70-17-81-69l-15-71h200l51 237h115L763 0H648l82 387H529L448 0H330l82 387H226z"/><glyph glyph-name="uniFEFF" horiz-adv-x="0"/><glyph glyph-name="zero.numr" horiz-adv-x="415" d="M50 416c0 103 53 240 186 240 97 0 144-64 144-141 0-116-57-241-186-241-83 0-144 56-144 142zm87 2c0-34 18-66 61-66 68 0 95 99 95 161 0 34-14 66-61 66-75 0-95-116-95-161z"/><glyph glyph-name="one.numr" horiz-adv-x="298" d="M179 282H88l53 238H56l12 59c55 2 95 34 110 69h80z"/><glyph glyph-name="two.numr" horiz-adv-x="389" d="M162 453l64 28c36 16 52 34 52 59 0 19-14 42-45 42-37 0-60-24-60-69l-84 3c0 85 60 139 147 139 88 0 133-51 133-110 0-60-40-100-102-127l-76-33c-20-9-27-24-28-27h171l-16-76H40c5 80 46 138 122 171z"/><glyph glyph-name="three.numr" horiz-adv-x="427" d="M188 448l-27 64 111 62H109l16 74h272l-17-85-108-59c48-10 82-48 82-99 0-68-61-130-153-130-82 0-141 49-141 119 0 5 1 12 2 16l82 6c-1-5-1-8-1-10 0-29 23-56 58-56 38 0 63 20 63 57 0 29-24 46-51 46-10 0-18-2-25-5z"/><glyph glyph-name="four.numr" horiz-adv-x="430" d="M50 356l19 96 204 196h101l-47-219h63l-16-73h-62c0-1-6-26-16-74h-89l15 74H50zm187 73l28 122-127-122h99z"/><glyph glyph-name="five.numr" horiz-adv-x="402" d="M50 398l85 8c0-30 19-55 55-55 30 0 61 19 61 59 0 32-24 49-53 49-19 0-35-7-46-16l-73 37 74 168h219l-16-75H201l-28-62c15 9 38 12 54 12 68 0 114-39 114-106 0-78-64-142-152-142-82 0-139 52-139 123z"/><glyph glyph-name="six.numr" horiz-adv-x="391" d="M382 631l-31-67c-18 10-41 17-75 17-47 0-98-26-118-76 18 17 49 23 73 23 72 0 116-44 116-109 0-90-75-145-156-145-76 0-141 53-141 149 0 133 98 232 227 232 41 0 78-7 105-24zM205 459c-33 0-64-23-64-60 0-31 23-51 54-51 30 0 62 21 62 63 0 28-21 48-52 48z"/><glyph glyph-name="seven.numr" horiz-adv-x="364" d="M385 648l-16-74c-51-36-161-119-213-292H61c43 175 183 281 198 290H73l15 76h297z"/><glyph glyph-name="eight.numr" horiz-adv-x="398" d="M183 539c0-20 17-37 41-37 28 0 55 16 55 46 0 18-13 37-44 37-32 0-52-20-52-46zm-42-154c0-26 25-41 53-41 38 0 61 21 61 51 0 21-16 41-53 41s-61-24-61-51zm52-111c-95 0-143 44-143 101 0 46 38 85 95 98-29 11-48 43-48 70 0 64 56 113 144 113 80 0 127-41 127-96 0-40-29-78-78-94 30-10 54-43 54-74 0-70-66-118-151-118z"/><glyph glyph-name="nine.numr" horiz-adv-x="409" d="M45 305l32 67c22-15 51-23 83-23 45 0 98 25 112 79-18-18-47-27-71-27-71 0-121 45-121 111 0 87 72 142 155 142 77 0 139-50 139-144 0-141-85-237-217-237-43 0-84 13-112 32zm175 163c34 0 61 26 61 63 0 30-23 50-50 50-32 0-61-23-61-63 0-30 21-50 50-50z"/><glyph glyph-name="zero.dnom" horiz-adv-x="415" d="M30 134c0 103 53 240 186 240 97 0 144-64 144-141C360 117 303-8 174-8 91-8 30 48 30 134zm87 2c0-34 18-66 61-66 68 0 95 99 95 161 0 34-14 66-61 66-75 0-95-116-95-161z"/><glyph glyph-name="one.dnom" horiz-adv-x="298" d="M149 0H58l53 238H26l12 59c55 2 95 34 110 69h80z"/><glyph glyph-name="two.dnom" horiz-adv-x="382" d="M122 171l64 28c36 16 52 34 52 59 0 19-14 42-45 42-37 0-60-24-60-69l-84 3c0 85 60 139 147 139 88 0 133-51 133-110 0-60-40-100-102-127l-76-33c-20-9-27-24-28-27h171L278 0H0c5 80 46 138 122 171z"/><glyph glyph-name="three.dnom" horiz-adv-x="427" d="M148 167l-27 64 111 62H69l16 74h272l-17-85-108-59c48-10 82-48 82-99C314 56 253-6 161-6 79-6 20 43 20 113c0 5 1 12 2 16l82 6c-1-5-1-8-1-10 0-29 23-56 58-56 38 0 63 20 63 57 0 29-24 46-51 46-10 0-18-2-25-5z"/><glyph glyph-name="four.dnom" horiz-adv-x="430" d="M5 74l19 96 204 196h101l-47-219h63l-16-73h-62c0-1-6-26-16-74h-89l15 74H5zm187 73l28 122L93 147h99z"/><glyph glyph-name="five.dnom" horiz-adv-x="402" d="M10 116l85 8c0-30 19-55 55-55 30 0 61 19 61 59 0 32-24 49-53 49-19 0-35-7-46-16l-73 37 74 168h219l-16-75H161l-28-62c15 9 38 12 54 12 68 0 114-39 114-106C301 57 237-7 149-7 67-7 10 45 10 116z"/><glyph glyph-name="six.dnom" horiz-adv-x="391" d="M342 350l-31-67c-18 10-41 17-75 17-47 0-98-26-118-76 18 17 49 23 73 23 72 0 116-44 116-109C307 48 232-7 151-7 75-7 10 46 10 142c0 133 98 232 227 232 41 0 78-7 105-24zM165 178c-33 0-64-23-64-60 0-31 23-51 54-51 30 0 62 21 62 63 0 28-21 48-52 48z"/><glyph glyph-name="seven.dnom" horiz-adv-x="364" d="M343 366l-16-74C276 256 166 173 114 0H19c43 175 183 281 198 290H31l15 76h297z"/><glyph glyph-name="eight.dnom" horiz-adv-x="398" d="M143 257c0-20 17-37 41-37 28 0 55 16 55 46 0 18-13 37-44 37-32 0-52-20-52-46zm-42-154c0-26 25-41 53-41 38 0 61 21 61 51 0 21-16 41-53 41s-61-24-61-51zM153-8C58-8 10 36 10 93c0 46 38 85 95 98-29 11-48 43-48 70 0 64 56 113 144 113 80 0 127-41 127-96 0-40-29-78-78-94 30-10 54-43 54-74C304 40 238-8 153-8z"/><glyph glyph-name="nine.dnom" horiz-adv-x="409" d="M10 24l32 67c22-15 51-23 83-23 45 0 98 25 112 79-18-18-47-27-71-27-71 0-121 45-121 111 0 87 72 142 155 142 77 0 139-50 139-144C339 88 254-8 122-8 79-8 38 5 10 24zm175 163c34 0 61 26 61 63 0 30-23 50-50 50-32 0-61-23-61-63 0-30 21-50 50-50z"/><glyph glyph-name="space.frac" horiz-adv-x="52"/><glyph glyph-name="a.ordn" horiz-adv-x="459" d="M238 577c-61 0-94-65-94-122 0-49 26-79 69-79 50 0 92 48 92 126 0 46-24 75-67 75zm102 72h87l-56-267c-4-21-6-44-6-59v-18h-83c-1 11-1 13-1 18 0 6 0 13 1 24-16-24-47-48-93-48-84 0-134 68-134 152 0 116 75 206 176 206 63 0 91-29 100-48z"/><glyph glyph-name="b.ordn" horiz-adv-x="487" d="M168 305H81l106 507h89l-40-191c19 21 54 35 94 35 87 0 133-64 133-143 0-126-76-216-180-216-54 0-91 28-105 57zm130 272c-53 0-95-51-95-120 0-50 29-81 71-81 46 0 98 42 98 122 0 53-29 79-74 79z"/><glyph glyph-name="c.ordn" horiz-adv-x="426" d="M395 544l-81-24c-6 29-29 57-73 57-47 0-98-40-98-119 0-52 33-82 79-82 42 0 66 26 80 52l74-29c-29-62-86-105-159-105-92 0-163 65-163 161 0 124 91 204 194 204 93 0 137-60 147-115z"/><glyph glyph-name="d.ordn" horiz-adv-x="456" d="M238 577c-61 0-94-65-94-122 0-49 26-79 69-79 50 0 92 48 92 126 0 46-24 75-67 75zm44-230c-16-24-47-48-93-48-84 0-134 68-134 152 0 116 75 206 176 206 58 0 87-26 99-45l42 200h90l-91-430c-4-21-6-44-6-59v-18h-83c-1 9-1 15-1 18 0 4 0 11 1 24z"/><glyph glyph-name="e.ordn" horiz-adv-x="419" d="M143 516h154c1 0 1 6 1 9 0 26-17 60-66 60-48 0-77-32-89-69zm231-63H134c0-59 38-83 77-83 40 0 67 22 80 46l69-35c-23-45-75-86-153-86-86 0-158 60-158 158 0 127 92 206 185 206 96 0 149-60 149-144 0-21-4-45-9-62z"/><glyph glyph-name="f.ordn" horiz-adv-x="335" d="M313 572h-74l-56-267H92l57 267H91l17 77h58l13 57c18 85 74 111 133 111 24 0 46-7 55-12l-16-74c-7 3-18 6-31 6-28 0-48-15-55-48l-9-40h74z"/><glyph glyph-name="g.ordn" horiz-adv-x="463" d="M338 507c0 37-25 70-69 70-52 0-91-41-91-104 0-43 24-74 70-74 50 0 90 41 90 108zM46 292l80 16c0-36 23-69 75-69 54 0 89 35 102 97l5 24c-13-19-42-36-81-36-87 0-140 61-140 143 0 105 74 189 174 189 54 0 87-23 101-48l9 41h89l-66-314c-19-92-77-173-193-173-106 0-155 67-155 130z"/><glyph glyph-name="h.ordn" horiz-adv-x="456" d="M367 305h-90l43 200c1 7 2 14 2 20 0 32-18 53-54 53-41 0-67-34-75-74l-42-199H61l107 507h90l-40-191c22 26 56 37 91 37 69 0 107-45 107-108 0-12-2-24-4-36z"/><glyph glyph-name="i.ordn" horiz-adv-x="261" d="M155 759c0 35 29 61 62 61 30 0 50-22 50-49 0-36-30-61-61-61-30 0-51 22-51 49zm4-454H70l73 344h90z"/><glyph glyph-name="j.ordn" horiz-adv-x="271" d="M93 281l79 368h89l-82-389c-14-65-58-98-114-98-33 0-56 11-61 14l15 71c1 0 14-6 32-6 23 0 37 12 42 40zm91 478c0 35 28 61 62 61 29 0 50-22 50-49 0-36-30-61-62-61-29 0-50 22-50 49z"/><glyph glyph-name="k.ordn" horiz-adv-x="432" d="M287 305l-67 140-54-46-20-94H57l107 507h90l-61-286 140 123h126L289 504l98-199H287z"/><glyph glyph-name="l.ordn" horiz-adv-x="246" d="M150 305H61l108 507h89z"/><glyph glyph-name="m.ordn" horiz-adv-x="665" d="M363 305h-90l43 204c1 7 2 13 2 20 0 28-17 50-51 50-39 0-62-30-71-72l-44-202H63l59 285c7 32 8 54 8 59h88c0-3-1-21-3-35 23 30 57 44 94 44 44 0 75-21 90-52 36 45 83 52 118 52 61 0 105-45 105-108 0-14-2-23-4-34l-45-211h-90l43 204c1 7 2 13 2 20 0 28-17 50-51 50-39 0-62-30-71-71z"/><glyph glyph-name="n.ordn" horiz-adv-x="456" d="M374 305h-90l43 200c1 7 2 14 2 20 0 32-18 53-54 53-41 0-67-34-75-74l-42-199H68l59 285c7 32 8 54 8 59h88c0-4-1-22-3-35 23 31 61 44 97 44 68 0 105-45 105-108 0-11-1-24-3-36z"/><glyph glyph-name="o.ordn" horiz-adv-x="441" d="M240 577c-53 0-95-50-95-119 0-51 30-82 72-82 46 0 96 40 96 120 0 51-28 81-73 81zm163-77c0-112-79-205-191-205-96 0-157 70-157 159 0 121 86 205 192 205 98 0 156-71 156-159z"/><glyph glyph-name="p.ordn" horiz-adv-x="479" d="M288 577c-53 0-95-51-95-120 0-53 29-81 72-81 45 0 97 42 97 122 0 52-31 79-74 79zm-66 35c20 26 57 44 98 44 89 0 133-65 133-148 0-117-73-211-180-211-51 0-89 23-106 51l-37-176H41l89 418c7 32 7 54 7 59h87c0-3 0-24-2-37z"/><glyph glyph-name="q.ordn" horiz-adv-x="469" d="M431 649L330 171h-90l34 160c-19-19-46-32-81-32-84 0-136 68-136 152 0 116 76 205 176 205 62 0 91-28 102-47l9 40h87zm-190-72c-61 0-94-64-94-122 0-49 27-79 71-79 49 0 91 48 91 124 0 47-24 77-68 77z"/><glyph glyph-name="r.ordn" horiz-adv-x="289" d="M310 557c-10 3-20 4-30 4-44 0-88-20-104-97l-34-159H53l60 285c7 32 7 54 7 59h88c0-7-1-30-5-44 26 36 64 46 97 46 11 0 21-1 29-3z"/><glyph glyph-name="s.ordn" horiz-adv-x="377" d="M56 411l76 14c0-34 18-62 56-62 31 0 45 18 45 36 0 12-7 24-27 33l-40 18c-50 22-71 54-71 95 0 60 51 114 130 114 101 0 126-66 127-105l-77-13c0 21-14 50-53 50-26 0-43-16-43-35 0-15 9-25 23-31l44-19c52-23 75-58 75-100 0-51-42-111-131-111-112 0-134 76-134 116z"/><glyph glyph-name="t.ordn" horiz-adv-x="310" d="M226 569l-31-148c-1-5-2-10-2-14 0-21 14-29 37-29 9 0 19 1 24 2l-15-72c-5-2-20-7-43-7-58 0-95 33-95 86 0 8 1 18 3 28l32 154H75l17 80h14c39 0 59 21 67 55l11 48h81l-22-103h67l-17-80h-67z"/><glyph glyph-name="u.ordn" horiz-adv-x="428" d="M109 649h89l-42-197c-2-9-3-16-3-24 0-31 16-52 53-52 39 0 65 33 73 72l42 201h89l-56-272c-8-40-8-65-8-72h-86c-1 9-1 16-1 18 0 4 0 8 1 18-19-29-55-44-87-44-73 0-112 48-112 113 0 12 1 24 4 37z"/><glyph glyph-name="v.ordn" horiz-adv-x="380" d="M411 649L210 305h-88L61 649h93l31-233 126 233h100z"/><glyph glyph-name="w.ordn" horiz-adv-x="587" d="M281 649h96l27-225 108 225h93L428 305h-89l-30 237-122-237H94L60 649h88l17-224z"/><glyph glyph-name="x.ordn" horiz-adv-x="414" d="M232 410l-94-105H29l163 176c-13 26-76 141-90 168h99c9-19 41-84 51-102l90 102h110c-25-27-135-147-161-173l92-171h-98z"/><glyph glyph-name="y.ordn" horiz-adv-x="399" d="M144 172H44l120 188-77 289h96l47-196 118 196h101z"/><glyph glyph-name="z.ordn" horiz-adv-x="409" d="M333 305H49l17 80 202 186H111l16 78h275l-16-77-207-189h171z"/><glyph glyph-name="space.tf"/><glyph glyph-name="numbersign.tf" d="M46 400v87h105l34 161h95l-35-161h108l35 161h95l-35-161h91v-87H430l-32-149h91v-87H379L344 0h-95l35 164H176L141 0H46l35 164H-3v87h103l32 149H46zm181 0l-32-149h108l32 149H227z"/><glyph glyph-name="dollar.tf" d="M148-109L172 2C61 32 16 125 16 201c0 8 0 19 1 19l106 17c-1-6-1-12-1-17 0-48 21-97 70-119l39 186-11 6c-77 37-120 89-120 168 0 109 92 190 210 195l21 101h92l-23-112c103-30 136-117 136-173l-105-19c0 21-8 68-53 92l-39-188 7-3c88-43 129-98 129-171C475 84 393-5 262-9l-21-100h-93zm63 580c0-32 14-55 44-73l33 158c-47-9-77-44-77-85zm151-296c0 28-15 50-46 70L283 92c49 9 78 39 79 83z"/><glyph glyph-name="percent.tf" d="M238 530c0 31-20 52-52 52-33 0-65-28-65-70 0-29 20-53 52-53 33 0 65 27 65 71zm-45 128c71 0 125-55 125-124 0-87-76-149-152-149-72 0-124 53-124 122 0 85 71 151 151 151zm352-115l-21-99L24 120l21 98zM434 140c0 31-19 52-51 52-33 0-65-28-65-69 0-31 19-53 51-53 33 0 65 27 65 70zm80 4C514 58 439-5 362-5c-71 0-123 53-123 123 0 84 70 150 151 150 71 0 124-55 124-124z"/><glyph glyph-name="plus.tf" d="M313 244V47h-99v197H26v95h188v195h99V339h189v-95H313z"/><glyph glyph-name="comma.tf" d="M154 71c0 57 45 98 102 98 56 0 96-41 96-103 0-133-106-245-243-253l15 69c58 9 121 57 134 117-5-2-16-5-26-5-46 0-78 32-78 77z"/><glyph glyph-name="period.tf" d="M226-7c-51 0-85 39-85 83 0 54 46 101 103 101 52 0 84-38 84-82C328 39 282-7 226-7z"/><glyph glyph-name="zero.tf" d="M129 228c0-71 22-136 109-136 130 0 174 223 174 332 0 70-21 133-109 133-146 0-174-254-174-329zM231-15C78-14 11 93 11 222c0 167 75 441 300 441 153 0 220-110 220-238 0-184-85-440-300-440z"/><glyph glyph-name="one.tf" d="M27 104h165l75 349H117l17 78c82 5 160 51 188 117h104L311 104h180L469 0H6z"/><glyph glyph-name="two.tf" d="M-30 0c1 6 4 21 4 27 22 113 81 203 207 261l120 55c52 24 109 60 109 126 0 46-30 90-100 90-78 0-125-56-125-145v-8L71 417v6c0 133 93 240 245 240 146 0 214-84 214-186 0-105-67-174-170-222l-140-64c-32-15-70-43-89-85h334L442 0H-30z"/><glyph glyph-name="three.tf" d="M208 305l-42 98 216 140H82l21 105h450l-26-125-204-133c82-9 151-73 151-172 0-120-98-233-252-233C72-15-9 87-9 192c0 7 0 14 2 23l117 13c-1-8-2-15-2-22 0-62 41-117 115-117s129 50 129 123c0 70-54 99-106 99-13 0-27-3-38-6z"/><glyph glyph-name="four.tf" d="M-14 142l27 132 352 374h149l-87-400h99l-22-106h-99L377 0H259l28 142H-14zm324 106l59 271-252-271h193z"/><glyph glyph-name="five.tf" d="M8 193v6l114 22c-1-6-1-12-1-14 0-60 37-119 116-119 67 0 130 46 130 133 0 66-45 105-110 105-42 0-73-14-97-34L57 348l137 300h357l-22-105H258l-68-145c28 17 63 25 99 25 121 0 200-71 200-189C489 98 387-15 235-15 100-15 8 77 8 193z"/><glyph glyph-name="six.tf" d="M574 625l-47-93c-34 17-76 26-119 26-117 0-211-70-245-185 32 33 84 57 145 57 126 0 202-77 202-189C510 86 389-15 250-15 124-15 21 76 21 231c0 228 151 429 391 429 65 0 127-12 162-35zM275 331c-75 0-133-54-133-131 0-65 47-112 113-112 68 0 132 50 132 136 0 65-43 107-112 107z"/><glyph glyph-name="seven.tf" d="M43 543l22 105h509l-22-105C488 500 270 335 171 0H45c92 353 343 526 367 543H43z"/><glyph glyph-name="eight.tf" d="M298 376c68 0 117 44 117 105 0 43-33 84-95 84-77 0-119-48-119-105 0-43 32-84 97-84zM127 175c0-56 46-92 113-92 73 0 127 48 127 110 0 50-35 93-111 93s-129-48-129-111zm358 11C485 61 369-15 232-15S8 57 8 163c0 84 61 152 160 173-43 19-83 72-83 130 0 119 106 197 238 197 137 0 212-75 212-167 0-79-53-146-142-170 58-21 92-80 92-140z"/><glyph glyph-name="nine.tf" d="M152 428c0-64 44-107 111-107 75 0 129 54 129 130 0 66-47 109-110 109-66 0-130-47-130-132zM-35 38l48 92c42-28 89-38 135-38 121 0 211 78 231 196-29-39-78-65-145-65-115 0-203 78-203 196 0 152 121 244 257 244 131 0 230-84 230-245 0-255-143-433-371-433C82-15 12 1-35 38z"/><glyph glyph-name="colon.tf" d="M210-10c-48 0-79 36-79 77 0 51 42 95 96 95 47 0 78-34 78-77 0-52-44-95-95-95zm71 334c-48 0-79 35-79 77 0 51 42 94 96 94 48 0 78-34 78-76 0-53-43-95-95-95z"/><glyph glyph-name="semicolon.tf" d="M140 67c0 52 42 89 94 89s88-37 88-95c0-121-97-224-222-232l13 64c53 8 111 52 123 107-4-2-15-4-24-4-42 0-72 29-72 71zm150 258c-48 0-80 36-80 77 0 52 44 95 97 95 49 0 79-35 79-76 0-54-44-96-96-96z"/><glyph glyph-name="less.tf" d="M61 244v94l422 212V439L181 292l302-148V33z"/><glyph glyph-name="equal.tf" d="M29 343v94h475v-94H29zm0-197v95h475v-95H29z"/><glyph glyph-name="greater.tf" d="M483 338v-94L61 33v110l303 148L61 438v112z"/><glyph glyph-name="cent.tf" d="M171 0l20 97C105 126 53 201 53 295c0 153 106 257 237 268l18 86h90l-20-93c81-22 120-85 132-139l-100-31c-7 28-24 55-53 69l-58-273c48 8 76 42 94 75l92-37C452 152 384 88 279 85L261 0h-90zm-8 297c0-45 18-80 49-99l56 264c-56-17-105-72-105-165z"/><glyph glyph-name="sterling.tf" horiz-adv-x="595" d="M44 273l20 95h71c-5 23-9 47-9 75 0 120 82 220 218 220 125 0 187-72 187-165 0-13-2-26-4-30l-108-14c2 7 3 17 3 27 0 44-27 82-83 82-57 0-101-38-101-117 0-25 5-52 10-78h184l-20-95H258c-5-73-47-139-120-170h184c62 0 98 44 106 97l103-20C512 70 433 0 327 0H-18L5 113c90 21 135 89 140 160H44z"/><glyph glyph-name="currency.tf" d="M57 242c0 42 12 81 33 114l-74 75 72 71 74-76c32 19 70 30 110 30 38 0 75-10 106-28l73 74 71-71-70-72c22-33 35-74 35-117s-13-83-34-116l69-70-70-70-72 72c-32-19-69-29-108-29-41 0-79 11-112 31L87-14 16 56l73 74c-21 32-32 71-32 112zm99 0c0-68 50-117 116-117s115 49 115 117-49 117-115 117-116-49-116-117z"/><glyph glyph-name="yen.tf" d="M36 302l18 83h108L66 648h128l82-252 183 252h134L389 385h112l-17-83H315l-16-74h169l-19-85H282L252 0H137l30 143H2l19 85h163l16 74H36z"/><glyph glyph-name="section.tf" d="M7 1l111 8c-2-9-4-20-4-34 0-51 32-84 90-84 48 0 94 32 94 88 0 25-13 48-35 64l-90 63c-57 40-105 86-105 155 0 81 59 125 110 144-38 34-56 75-56 123 0 121 112 195 220 195 127 0 193-75 193-165 0-13-1-26-4-39l-112-9c3 12 4 24 4 34 0 51-32 83-89 83-49 0-95-35-95-87 0-26 13-47 37-64l89-63c56-40 105-83 105-152 0-82-59-129-109-148 36-34 55-77 55-121 0-123-111-197-222-197C70-205 4-131 4-39 4-27 4-13 7 1zm315 298l-88 63c-30-14-55-41-55-79 0-24 10-44 36-63l89-63c29 14 55 41 55 79 0 24-11 44-37 63z"/><glyph glyph-name="logicalnot.tf" d="M495 142H394v195H38v97h457V142z"/><glyph glyph-name="plusminus.tf" d="M317 311V183h-99v128H41v94h177v129h99V405h178v-94H317zM41 47v96h454V47H41z"/><glyph glyph-name="multiply.tf" d="M111 51l-69 69 168 172L43 463l69 69 166-171 166 171 69-69-167-171 168-172-69-69-167 171z"/><glyph glyph-name="divide.tf" d="M23 243v98h474v-98H23zm163-132c0 39 33 72 73 72 39 0 71-33 71-72s-32-72-71-72c-40 0-73 33-73 72zm0 362c0 39 33 71 73 71 39 0 71-32 71-71s-32-73-71-73c-40 0-73 34-73 73z"/><glyph glyph-name="florin.tf" d="M147 24l73 364H117v99h123l21 101c22 107 100 152 177 152 44 0 64-6 83-12V627c-17 5-33 8-57 8-31 0-76-12-91-84l-13-64h122v-99H340L260-13C238-120 159-165 82-165c-44 0-61 5-85 12v101c16-4 36-7 61-7 31 0 75 10 89 83z"/><glyph glyph-name="uni2007.tf"/><glyph glyph-name="uni2008.tf"/><glyph glyph-name="perthousand.tf" d="M174 105c0-25 17-44 43-44 24 0 53 21 53 54 0 27-12 48-43 48-27 0-53-24-53-58zM40 527c0 74 60 131 131 131 64 0 110-48 110-109 0-76-63-131-132-131-64 0-109 48-109 109zM210-8c-63 0-109 47-109 108 0 74 62 133 133 133 34 0 61-14 78-37 22 23 53 37 88 37 63 0 110-48 110-109C510 47 446-8 379-8c-36 0-64 14-81 36-24-23-55-36-88-36zm326 594l-21-101L17 175l21 100zM436 120c0 25-16 43-43 43-26 0-50-22-52-53 0-2 0-4-1-6 1-25 17-43 43-43 27 0 53 22 53 59zM165 589c-27 0-53-24-53-58 0-25 16-44 42-44 27 0 54 22 54 59 0 25-17 42-43 43z"/><glyph glyph-name="Euro.tf" d="M45 359l19 87h73c58 128 182 218 332 218 77 0 113-16 146-32l-50-95c-19 10-53 23-106 23-70 0-151-35-199-114h258l-45-87H227c-5-22-8-46-8-72h223l-44-88H234c31-72 102-107 185-107 24 0 42 3 56 6l6-101c-21-6-47-11-77-11-136 0-257 79-292 213H11l19 88h72c0 24 3 48 7 72H45z"/><glyph glyph-name="minus.tf" d="M39 244v96h451v-96H39z"/><glyph glyph-name="approxequal.tf" d="M426 250l61-53c-36-59-93-92-155-92-34 0-68 10-104 30l-47 26c-19 10-39 15-58 15-32 0-63-15-88-46l-64 54c38 61 92 93 153 93 35 0 69-10 106-30l47-25c21-11 42-18 63-18 32 0 62 15 86 46zm0 197l61-52c-36-59-93-92-155-92-34 0-68 10-104 30l-47 26c-19 10-39 15-58 15-32 0-63-15-88-46l-64 54c38 61 92 93 153 93 35 0 69-10 106-30l47-25c21-12 42-18 63-18 32 0 62 15 86 45z"/><glyph glyph-name="notequal.tf" d="M32 343v94h292l66 95h109l-66-95h74v-94H369l-71-102h209v-95H233l-68-98H56l68 98H32v95h157l71 102H32z"/><glyph glyph-name="lessequal.tf" d="M62 47v96h422V47H62zm0 264v97l422 141v-99l-292-89 292-91v-99z"/><glyph glyph-name="greaterequal.tf" d="M472 143V47H50v96h422zm0 265v-97L50 171v98l292 90-292 90v100z"/><glyph glyph-name="parenleft.case" horiz-adv-x="304" d="M29 247c0 231 103 429 306 556l53-68C229 621 125 478 125 247c0-110 37-215 94-302l-75-53C84-25 29 104 29 247z"/><glyph glyph-name="parenright.case" horiz-adv-x="305" d="M275 448c0-231-108-425-306-556l-53 68C68 78 179 217 179 448c0 110-37 215-94 302l75 53c60-83 115-212 115-355z"/><glyph glyph-name="hyphen.case" horiz-adv-x="362" d="M307 291H25l22 103h281z"/><glyph glyph-name="bracketleft.case" horiz-adv-x="305" d="M204-100H-10l193 910h213l-18-90H262L107-10h115z"/><glyph glyph-name="bracketright.case" horiz-adv-x="308" d="M122-100H-91l18 90H43l155 730H82l19 90h214z"/><glyph glyph-name="braceleft.case" horiz-adv-x="362" d="M31 306l21 100c57 0 112 24 127 95l25 117c30 146 107 190 225 190h25l-19-89h-22c-57 0-95-27-110-96l-31-144c-14-66-58-116-129-127 50-12 76-52 76-103 0-11-2-25-4-35L189 88c-2-10-4-22-4-32 0-47 28-66 75-66h20l-19-89h-21C145-99 87-47 87 43c0 16 3 40 6 53l23 112c1 6 3 18 3 26 0 51-39 72-88 72z"/><glyph glyph-name="braceright.case" horiz-adv-x="363" d="M331 403l-21-100c-56 0-113-24-127-95L159 91C129-55 50-99-67-99h-25l19 89h22C6-10 45 15 60 86l31 144c14 66 58 117 128 127-49 13-76 53-76 104 0 11 1 22 4 34l26 126c2 9 4 23 4 33 0 46-28 65-75 65H82l19 89h22c94 0 152-52 152-142 0-16-2-34-6-53l-23-112c-2-10-3-18-3-26 0-51 39-72 88-72z"/><glyph glyph-name="exclamdown.case" horiz-adv-x="307" d="M223 499L148 0H5l135 499h83zm59 152c0-44-36-81-81-81-40 0-66 29-66 65 0 45 38 81 79 81 40 0 68-28 68-65z"/><glyph glyph-name="guillemotleft.case" horiz-adv-x="501" d="M217 150H109L10 346l174 191h119L123 337zm208 0H317l-99 196 174 191h119L331 337z"/><glyph glyph-name="uni00AD.case" horiz-adv-x="362" d="M310 302H28l22 103h281z"/><glyph glyph-name="guillemotright.case" horiz-adv-x="506" d="M49 537h108l99-196L82 150H-37l181 200zm217 0h108l99-196-174-191H180l181 200z"/><glyph glyph-name="questiondown.case" horiz-adv-x="503" d="M248 501h97c-3-71-28-141-113-190l-54-31c-45-25-66-61-66-103 0-44 28-86 96-86 87 0 128 69 128 142l111-13C444 86 346-14 199-14 61-14-9 71-9 159c0 101 58 163 137 208l50 29c46 26 66 61 70 105zm137 151c0-44-35-81-80-81-41 0-67 29-67 65 0 45 39 81 80 81 40 0 67-28 67-65z"/><glyph glyph-name="endash.case" horiz-adv-x="633" d="M552 292H38l21 101h514z"/><glyph glyph-name="emdash.case" horiz-adv-x="1085" d="M994 292H48l21 101h946z"/><glyph glyph-name="guilsinglleft.case" horiz-adv-x="293" d="M217 150H109L10 346l174 191h119L123 337z"/><glyph glyph-name="guilsinglright.case" horiz-adv-x="290" d="M49 537h108l99-196L82 150H-37l181 200z"/><glyph glyph-name="G.ss01" horiz-adv-x="745" d="M418 725c178 0 272-109 294-224l-116-34c-16 78-75 144-189 144-148 0-252-132-252-300 0-129 77-214 200-214 112 0 187 67 209 151H312l22 106h369C694 151 570-15 348-15 166-15 33 119 33 304c0 271 193 420 385 421z"/><glyph glyph-name="r.ss03" horiz-adv-x="380" d="M215 461l-6-29c12 35 47 61 87 61 45 0 74-33 74-72 0-50-41-90-91-90-45 0-75 33-75 72v7L117 0H2l97 460c3 15 3 23 3 27h116c0-7-1-17-3-26z"/><glyph glyph-name="ampersand.ss04" horiz-adv-x="681" d="M638 217h-85C527 88 423-15 273-15 113-15 22 78 22 188c0 140 112 206 197 217-46 23-78 70-78 126 0 115 106 193 215 193 127 0 202-77 202-171 0-7-1-26-2-33l-117-8c1 6 2 19 2 27 0 47-28 82-88 82-46 0-95-34-95-93 0-53 44-79 94-79l-22-103h-24c-58 0-161-29-161-142 0-55 43-112 136-112 72 0 134 47 154 125h-93l21 102h296z"/><glyph glyph-name="one.ss05" horiz-adv-x="441" d="M-15 104h136l75 349H56l17 78c82 5 150 51 178 117h104L240 104h158L376 0H-37z"/><glyph glyph-name="registered.ss06" horiz-adv-x="416" d="M50 526c0 105 85 190 190 190s191-85 191-190-86-190-191-190S50 421 50 526zm51 0c0-79 61-142 139-142s140 63 140 142-62 142-140 142-139-63-139-142zm151-95l-16 66h-14l-14-66h-53l41 196h74c39 0 61-25 61-55 0-33-21-59-48-67l23-74h-54zm-21 109h16c17 0 30 9 30 23 0 13-7 20-23 20h-13z"/><glyph glyph-name="caron.alt" horiz-adv-x="198" d="M147 709L39 520h-83l68 189h123z"/><glyph glyph-name="commaaccent" horiz-adv-x="191" d="M-36 535l9 45h9c28 0 60 8 74 39-4-2-13-4-21-4-35 0-54 23-54 51 0 37 31 63 69 63s68-24 68-68c0-77-63-127-135-127-6 0-13 0-19 1z"/><glyph glyph-name="commaturn" horiz-adv-x="170" d="M102 606c0-36-30-66-69-66-41 0-68 35-68 69 0 89 76 128 137 128 4 0 9 0 17-1l-9-45c-6 1-10 1-11 1-34 0-66-17-72-40 5 2 11 4 21 4 36 0 54-24 54-50z"/><glyph glyph-name="dieresis.narrow" horiz-adv-x="305" d="M-37 618c0 36 29 68 67 68 33 0 56-24 56-55 0-39-34-66-68-66s-55 23-55 53zm156 0c0 36 29 68 67 68 33 0 56-24 56-55 0-39-34-66-68-66s-55 23-55 53z"/><glyph glyph-name="dieresis.uc.narrow" horiz-adv-x="324" d="M-36 814c0 38 31 69 69 69 33 0 55-25 55-54 0-41-32-69-68-69-32 0-56 23-56 54zm172 0c0 38 30 69 69 69 32 0 55-25 55-54 0-41-32-69-69-69-32 0-55 23-55 54z"/><glyph glyph-name="grave.uc" horiz-adv-x="273" d="M92 759L-20 883h138l75-124H92z"/><glyph glyph-name="dieresis.uc" horiz-adv-x="418" d="M-31 814c0 40 32 74 74 74 35 0 59-27 59-59 0-44-35-74-73-74-35 0-60 25-60 59zm246 0c0 40 32 74 74 74 35 0 59-27 59-59 0-44-35-74-73-74-35 0-60 25-60 59z"/><glyph glyph-name="macron.uc" horiz-adv-x="330" d="M256 776H-43l20 93h299z"/><glyph glyph-name="acute.uc" horiz-adv-x="273" d="M228 883L66 759H-48L75 883h153z"/><glyph glyph-name="circumflex.uc" horiz-adv-x="398" d="M63 759H-45L96 883h129l92-124H217l-64 64z"/><glyph glyph-name="caron.uc" horiz-adv-x="398" d="M234 883h112L201 759H72l-89 124H83l60-65z"/><glyph glyph-name="breve.uc" horiz-adv-x="359" d="M122 754c-86 0-141 47-141 114 0 7 1 15 2 19h87c-1-4-1-6-1-8 0-23 16-45 59-45 49 0 74 27 80 53h93c-18-65-77-133-179-133z"/><glyph glyph-name="dotaccent.uc" horiz-adv-x="177" d="M-34 821c0 42 36 79 80 79 39 0 67-29 67-64 0-45-38-82-81-82-39 0-66 30-66 67z"/><glyph glyph-name="ring.uc" horiz-adv-x="275" d="M90 907c-26 0-52-21-52-51 0-26 18-42 44-42 27 0 52 20 52 51 0 25-18 42-44 42zm-126-59c0 75 64 131 133 131 64 0 113-47 113-108 0-71-63-130-132-130-64 0-114 47-114 107z"/><glyph glyph-name="tilde.uc" horiz-adv-x="362" d="M317 886c-16-98-61-132-119-132-29 0-53 12-72 24l-8 5c-14 9-27 17-42 17-19 0-33-12-38-43h-78c10 96 63 131 121 131 29 0 53-11 71-23l8-6c14-9 26-17 41-17 19 0 32 13 38 44h78z"/><glyph glyph-name="hungarumlaut.uc" horiz-adv-x="366" d="M152 883L32 759h-81l79 124h122zm163 0L184 759h-83l92 124h122z"/><glyph glyph-name="caron.alt.uc" horiz-adv-x="198" d="M147 709L35 509h-88l69 200h131z"/><glyph glyph-name="undercommaaccent" horiz-adv-x="221" d="M16-102c0 36 31 63 71 63 38 0 68-26 68-69 0-87-71-126-133-126-6 0-16 1-22 2l10 45c4-1 13-1 14-1 28 0 56 8 68 39-2-1-10-4-20-4-35 0-56 23-56 51z"/></font>
</defs>
</svg>
