<?xml version="1.0" encoding="utf-8"?>
<!-- Generator: Adobe Illustrator 24.1.2, SVG Export Plug-In . SVG Version: 6.00 Build 0)  -->
<svg version="1.1" id="Layer_1" xmlns="http://www.w3.org/2000/svg" xmlns:xlink="http://www.w3.org/1999/xlink" x="0px" y="0px"
	 viewBox="0 0 42 42" style="enable-background:new 0 0 42 42;" xml:space="preserve">
<style type="text/css">
	.st0{fill:#FFFFFF;}
</style>
<path id="Path_15268" class="st0" d="M31.016,30.127h-0.968V20.058l0,0c0-0.009,0-0.018,0-0.027c0-0.501-0.406-0.908-0.908-0.908
	c-0.501,0-0.908,0.406-0.908,0.908c0,0.023,0,0.047,0.004,0.07h-0.004v10.025h-1.816V11.873h1.816v3.567h0.003
	c0,0.02-0.003,0.04-0.003,0.059c0,0.501,0.406,0.908,0.908,0.908c0.501,0,0.908-0.406,0.908-0.908c0-0.01,0-0.019,0-0.029l0,0
	v-4.505c0.001-0.501-0.405-0.907-0.906-0.908c0,0,0,0-0.001,0h-3.627c-0.501,0-0.907,0.406-0.907,0.907c0,0,0,0,0,0v19.162h-1.816
	V16.405c0-0.501-0.406-0.907-0.907-0.907c0,0,0,0,0,0H18.26c-0.501,0-0.907,0.406-0.907,0.907c0,0,0,0,0,0v13.722h-1.816v-6.468
	c0-0.501-0.406-0.907-0.907-0.907c0,0,0,0,0,0h-3.627c-0.501,0-0.907,0.406-0.907,0.907c0,0,0,0,0,0v6.468H10.08v1.816h20.933
	c0.501,0,0.908-0.406,0.908-0.908c0-0.501-0.406-0.908-0.908-0.908H31.016z M13.728,30.127h-1.816v-5.562h1.816V30.127z
	 M20.982,30.127h-1.816V17.311h1.816V30.127z"/>
</svg>
