<?xml version="1.0" encoding="utf-8"?>
<!-- Generator: Adobe Illustrator 24.1.2, SVG Export Plug-In . SVG Version: 6.00 Build 0)  -->
<svg version="1.1" id="Layer_1" xmlns="http://www.w3.org/2000/svg" xmlns:xlink="http://www.w3.org/1999/xlink" x="0px" y="0px"
	 viewBox="0 0 42 42" style="enable-background:new 0 0 42 42;" xml:space="preserve">
<style type="text/css">
	.st0{fill:#FFFFFF;}
</style>
<path id="Path_15266" class="st0" d="M29.624,15.831c-0.452,0.219-0.642,0.763-0.423,1.215c0.598,1.234,0.906,2.588,0.902,3.959
	c0,5.027-4.075,9.102-9.102,9.102s-9.102-4.075-9.102-9.102s4.075-9.102,9.102-9.102c0,0,0,0,0,0
	c2.052-0.009,4.046,0.684,5.651,1.964c0.394,0.313,0.967,0.247,1.28-0.147c0.313-0.394,0.247-0.967-0.147-1.28
	c-4.728-3.747-11.599-2.951-15.345,1.777s-2.951,11.599,1.777,15.345s11.599,2.951,15.345-1.777
	c1.529-1.929,2.361-4.318,2.362-6.779c0.005-1.646-0.365-3.271-1.083-4.752c-0.219-0.452-0.763-0.642-1.215-0.423
	C29.625,15.83,29.624,15.83,29.624,15.831z"/>
<path id="Path_15267" class="st0" d="M21,13.723c-0.502,0-0.91,0.408-0.91,0.91v6.372c0,0.502,0.408,0.91,0.91,0.91h4.552
	c0.503,0,0.91-0.408,0.91-0.91c0-0.503-0.408-0.91-0.91-0.91h-3.641v-5.462C21.911,14.13,21.503,13.723,21,13.723z"/>
</svg>
