<?xml version="1.0" encoding="utf-8"?>
<!-- Generator: Adobe Illustrator 24.1.2, SVG Export Plug-In . SVG Version: 6.00 Build 0)  -->
<svg version="1.1" id="Layer_1" xmlns="http://www.w3.org/2000/svg" xmlns:xlink="http://www.w3.org/1999/xlink" x="0px" y="0px"
	 viewBox="0 0 21.825 21.781" style="enable-background:new 0 0 21.825 21.781;" xml:space="preserve">
<style type="text/css">
	.st0{fill:#E8B95A;}
</style>
<path id="Path_15271" class="st0" d="M19.525,5.725c-0.5,0.2-0.6,0.8-0.4,1.2c0.6,1.2,0.9,2.6,0.9,4c0,5-4.1,9.1-9.1,9.1
	s-9.1-4.1-9.1-9.1s4.1-9.1,9.1-9.1c2.1,0,4.1,0.7,5.7,2c0.4,0.3,0.9,0.3,1.3-0.1s0.3-0.9-0.1-1.3c0,0-0.1,0-0.1-0.1
	c-4.8-3.7-11.7-2.9-15.4,1.8s-2.9,11.6,1.8,15.3s11.6,3,15.3-1.8c1.5-1.9,2.4-4.3,2.4-6.8c0-1.7-0.4-3.3-1.1-4.7
	C20.525,5.725,19.925,5.625,19.525,5.725z"/>
<g id="Group_11884" transform="translate(11.016 11.043)">
	<g id="Group_11883">
		<path id="Path_15272" class="st0" d="M3.625,2.425l-2.5-2.5l2.5-2.5c0.3-0.3,0.3-0.9,0-1.2c-0.3-0.3-0.9-0.3-1.2,0l-2.6,2.5
			l-2.5-2.5c-0.3-0.3-0.9-0.3-1.2,0s-0.3,0.9,0,1.2l0,0l2.5,2.5l-2.5,2.5c-0.3,0.3-0.3,0.9,0,1.2s0.9,0.3,1.2,0l2.5-2.5l2.5,2.5
			c0.3,0.3,0.9,0.3,1.2,0C3.925,3.325,3.925,2.825,3.625,2.425L3.625,2.425z"/>
	</g>
</g>
</svg>
