<?xml version="1.0" encoding="utf-8"?>
<!-- Generator: Adobe Illustrator 24.1.2, SVG Export Plug-In . SVG Version: 6.00 Build 0)  -->
<svg version="1.1" id="Layer_1" xmlns="http://www.w3.org/2000/svg" xmlns:xlink="http://www.w3.org/1999/xlink" x="0px" y="0px"
	 viewBox="0 0 42 42" style="enable-background:new 0 0 42 42;" xml:space="preserve">
<style type="text/css">
	.st0{fill:#FFFFFF;}
</style>
<g>
	<path class="st0" d="M31.137,30.29h-4.084H15.41h-3.667V10.872c0.001-0.486-0.393-0.88-0.879-0.88c-0.001,0-0.001,0-0.001,0
		c-0.486,0-0.88,0.394-0.88,0.88v21.192h1.76V32.05h3.632H26.91h4.226c0.486,0,0.88-0.394,0.88-0.88
		C32.017,30.684,31.622,30.29,31.137,30.29z"/>
	<path class="st0" d="M20.713,20.76c0,0.489,0.397,0.886,0.886,0.886h6.225c0.488,0.039,0.915-0.324,0.954-0.812
		c0.039-0.488-0.324-0.915-0.812-0.954c-0.048-0.004-0.095-0.004-0.142,0h-6.225C21.112,19.879,20.716,20.273,20.713,20.76z"/>
	<path class="st0" d="M15.591,17.36c0,0.489,0.397,0.886,0.886,0.886h8.257c0.487-0.039,0.851-0.466,0.812-0.954
		c-0.035-0.433-0.379-0.777-0.812-0.812h-8.257C15.99,16.48,15.594,16.873,15.591,17.36z"/>
	<path class="st0" d="M14.708,14.799h3.709c0.487-0.037,0.853-0.462,0.816-0.95c-0.033-0.437-0.38-0.783-0.816-0.816h-3.709
		c-0.488,0.037-0.853,0.462-0.816,0.95C13.925,14.419,14.272,14.766,14.708,14.799z"/>
	<path class="st0" d="M27.38,24.204c0-0.489-0.397-0.886-0.886-0.886H19.12c-0.488,0.039-0.852,0.466-0.812,0.954
		c0.035,0.433,0.379,0.777,0.812,0.812h7.374C26.981,25.084,27.377,24.691,27.38,24.204z"/>
	<path class="st0" d="M25.747,28.531h1.943c0.488-0.039,0.852-0.466,0.812-0.954c-0.035-0.433-0.379-0.777-0.812-0.812h-1.943
		c-0.488,0.039-0.852,0.466-0.812,0.954C24.969,28.152,25.313,28.496,25.747,28.531z"/>
</g>
</svg>
