<?xml version="1.0" encoding="utf-8"?>
<!-- Generator: Adobe Illustrator 24.1.2, SVG Export Plug-In . SVG Version: 6.00 Build 0)  -->
<svg version="1.1" id="Layer_1" xmlns="http://www.w3.org/2000/svg" xmlns:xlink="http://www.w3.org/1999/xlink" x="0px" y="0px"
	 viewBox="0 0 42 42" style="enable-background:new 0 0 42 42;" xml:space="preserve">
<style type="text/css">
	.st0{fill:#FFFFFF;}
</style>
<g>
	<path class="st0" d="M28.337,17.098h-3.029V13.98c0-0.46-0.089-0.915-0.262-1.34c-0.707-1.593-2.303-2.604-4.046-2.562
		c-1.742-0.041-3.338,0.97-4.045,2.562c-0.173,0.426-0.262,0.881-0.262,1.34v3.118h-3.029c-0.354,0-0.64,0.287-0.64,0.64v8.402
		c0,0.04,0.003,0.08,0.005,0.12c0,0.017,0,0.034,0.003,0.052c0,0.04,0.005,0.08,0.009,0.12c0,0.015,0,0.029,0.004,0.044
		c0.004,0.044,0.008,0.088,0.014,0.132l0.003,0.029c0.082,0.689,0.283,1.358,0.595,1.977l0.006,0.013
		c0.472,0.93,1.176,1.722,2.045,2.299h0.003c0.124,0.083,0.252,0.16,0.383,0.234l0.011,0.006c0.129,0.072,0.26,0.139,0.395,0.202
		l0.014,0.007c0.067,0.031,0.134,0.06,0.202,0.089l0.008,0.004c0.067,0.028,0.134,0.054,0.202,0.08l0.01,0.004
		c0.068,0.025,0.136,0.049,0.204,0.072l0.027,0.009c0.136,0.044,0.275,0.084,0.415,0.118l0.036,0.009
		c0.069,0.017,0.138,0.032,0.21,0.047l0.015,0.003c0.066,0.013,0.132,0.025,0.198,0.036l0.038,0.006
		c0.07,0.011,0.14,0.021,0.21,0.029l0.038,0.004c0.064,0.007,0.128,0.014,0.193,0.019l0.03,0.003c0.07,0.006,0.14,0.009,0.21,0.013
		h0.048c0.072,0,0.145,0.004,0.218,0.004h3.95c0.073,0,0.145,0,0.218-0.004h0.048c0.071-0.003,0.141-0.007,0.21-0.013l0.03-0.003
		c0.065-0.005,0.129-0.012,0.193-0.019l0.038-0.004c0.07-0.009,0.14-0.019,0.21-0.029l0.038-0.006
		c0.066-0.011,0.132-0.023,0.198-0.036l0.015-0.003c0.07-0.014,0.139-0.03,0.21-0.047l0.036-0.009
		c0.14-0.035,0.278-0.074,0.415-0.118l0.027-0.009c0.07-0.023,0.138-0.047,0.204-0.072l0.01-0.004
		c0.068-0.026,0.136-0.052,0.202-0.08l0.008-0.004c0.068-0.028,0.136-0.058,0.202-0.089l0.014-0.007
		c0.134-0.063,0.266-0.13,0.395-0.202l0.011-0.006c0.131-0.073,0.258-0.151,0.383-0.234h0.003c0.868-0.577,1.573-1.369,2.045-2.299
		l0.006-0.013c0.312-0.619,0.513-1.289,0.595-1.977l0.003-0.029l0.014-0.132c0-0.015,0.003-0.029,0.004-0.044l0.009-0.12
		c0-0.017,0-0.034,0.003-0.052c0-0.04,0.004-0.08,0.005-0.12v-0.048v-8.354C28.975,17.386,28.69,17.099,28.337,17.098z
		 M18.534,14.026c0-0.037,0.001-0.073,0.003-0.11c0.163-1.217,1.238-2.102,2.464-2.028c1.226-0.074,2.301,0.811,2.464,2.028
		c0.002,0.035,0.003,0.072,0.003,0.11v3.041h-4.934l0-0.5V14.026z M27.139,25.807v0.014c0,0.06,0,0.121-0.005,0.18v0.043
		c-0.003,0.06-0.008,0.119-0.014,0.178c0,0.017-0.003,0.034-0.005,0.052c-0.006,0.058-0.014,0.115-0.022,0.172
		c0,0.017-0.005,0.034-0.008,0.052c-0.008,0.051-0.017,0.101-0.027,0.151l-0.013,0.06c-0.01,0.047-0.02,0.093-0.032,0.139
		l-0.015,0.061c-0.013,0.05-0.027,0.099-0.042,0.148l-0.022,0.07c-0.015,0.047-0.031,0.094-0.047,0.14l-0.027,0.072
		c-0.013,0.033-0.026,0.066-0.039,0.098c-0.013,0.032-0.028,0.067-0.045,0.105l-0.04,0.089c-0.011,0.025-0.024,0.052-0.036,0.075
		c-0.304,0.62-0.751,1.159-1.305,1.573c-0.074,0.03-0.142,0.074-0.198,0.131l-0.013,0.015c-0.3,0.198-0.624,0.357-0.963,0.475
		h-0.005c-0.131,0.045-0.266,0.084-0.403,0.116l-0.074,0.017l-0.099,0.02l-0.109,0.019l-0.073,0.013
		c-0.06,0.009-0.12,0.016-0.181,0.023l-0.064,0.006c-0.046,0.004-0.093,0.008-0.14,0.01l-0.061,0.004
		c-0.066,0.003-0.132,0.005-0.198,0.005h-3.623c-0.067,0-0.132,0-0.198-0.005l-0.061-0.004c-0.047-0.003-0.094-0.006-0.14-0.01
		l-0.064-0.006c-0.061-0.006-0.121-0.014-0.181-0.023l-0.073-0.013l-0.109-0.019l-0.099-0.02l-0.074-0.017
		c-0.137-0.032-0.271-0.071-0.403-0.116h-0.005c-0.339-0.118-0.663-0.277-0.963-0.475l-0.013-0.015
		c-0.056-0.057-0.124-0.101-0.198-0.131c-0.553-0.413-1.001-0.952-1.305-1.573c-0.012-0.025-0.024-0.052-0.036-0.075
		c-0.011-0.023-0.027-0.059-0.04-0.089s-0.03-0.07-0.045-0.105l-0.039-0.098l-0.027-0.072c-0.017-0.046-0.032-0.093-0.047-0.14
		l-0.022-0.07c-0.015-0.049-0.029-0.099-0.042-0.148l-0.015-0.061c-0.012-0.046-0.022-0.092-0.032-0.139l-0.013-0.06
		c-0.01-0.05-0.019-0.1-0.027-0.151l-0.008-0.052c-0.008-0.057-0.016-0.114-0.022-0.172c0-0.017-0.004-0.034-0.005-0.052
		c-0.006-0.059-0.01-0.118-0.014-0.178v-0.043c-0.003-0.06-0.004-0.12-0.005-0.18V18.89h12.273V25.807z"/>
	<path class="st0" d="M21.001,26.478c0.508,0,0.919-0.412,0.919-0.92v-2.093c0-0.508-0.412-0.919-0.919-0.919
		c-0.508,0-0.92,0.412-0.92,0.919v2.093C20.081,26.067,20.493,26.478,21.001,26.478z"/>
</g>
</svg>
