<?xml version="1.0" encoding="utf-8"?>
<!-- Generator: Adobe Illustrator 24.1.2, SVG Export Plug-In . SVG Version: 6.00 Build 0)  -->
<svg version="1.1" id="Layer_1" xmlns="http://www.w3.org/2000/svg" xmlns:xlink="http://www.w3.org/1999/xlink" x="0px" y="0px"
	 viewBox="0 0 42 42" style="enable-background:new 0 0 42 42;" xml:space="preserve">
<style type="text/css">
	.st0{fill:#FFFFFF;}
</style>
<path id="Path_15281" class="st0" d="M21,10.077c-3.575,0.004-6.472,2.901-6.476,6.476v9.065c0,3.577,2.899,6.476,6.476,6.476
	c3.577,0,6.476-2.899,6.476-6.476v-9.065C27.472,12.978,24.575,10.08,21,10.077z M25.66,25.335c0.098,2.574-1.909,4.739-4.483,4.837
	c-2.574,0.098-4.739-1.909-4.837-4.483c-0.004-0.118-0.004-0.236,0-0.354v-8.501c-0.098-2.574,1.909-4.739,4.483-4.837
	c2.574-0.098,4.739,1.909,4.837,4.483c0.004,0.118,0.004,0.236,0,0.354V25.335z"/>
<path id="Path_15282" class="st0" d="M21,14.456c-0.502,0-0.908,0.407-0.908,0.908v2.507c-0.013,0.501,0.383,0.918,0.884,0.932
	c0.501,0.013,0.918-0.383,0.932-0.884c0-0.016,0-0.032,0-0.047v-2.507C21.908,14.863,21.501,14.457,21,14.456z"/>
</svg>
