<?xml version="1.0" encoding="utf-8"?>
<!-- Generator: Adobe Illustrator 24.1.2, SVG Export Plug-In . SVG Version: 6.00 Build 0)  -->
<svg version="1.1" id="Layer_1" xmlns="http://www.w3.org/2000/svg" xmlns:xlink="http://www.w3.org/1999/xlink" x="0px" y="0px"
	 viewBox="0 0 42 42" style="enable-background:new 0 0 42 42;" xml:space="preserve">
<style type="text/css">
	.st0{fill:#FFFFFF;}
</style>
<g id="plugin-icon" transform="translate(0)">
	<path id="Path_15289" class="st0" d="M30.786,12.471l0.923-0.934c0.352-0.357,0.349-0.932-0.008-1.284
		c-0.357-0.352-0.932-0.349-1.284,0.008c0,0,0,0,0,0l-0.923,0.929c-1.915-1.68-4.806-1.582-6.603,0.224l-2.487,2.487l-0.16-0.16
		c-0.354-0.354-0.928-0.354-1.282,0s-0.354,0.928,0,1.282l8.018,8.008c0.354,0.354,0.928,0.354,1.282,0
		c0.354-0.354,0.354-0.928,0-1.282l-0.16-0.16l2.487-2.487C32.396,17.292,32.482,14.388,30.786,12.471z M29.31,17.823l-2.492,2.487
		l-5.126-5.126l2.489-2.484c1.182-1.18,3.097-1.18,4.279,0l0.847,0.846c1.178,1.182,1.178,3.094,0,4.277H29.31z"/>
	<path class="st0" d="M23.355,22.647c-0.352-0.357-0.927-0.36-1.284-0.008l-0.001,0.002l-1.697,1.681l-2.692-2.692l1.681-1.697
		c0.352-0.357,0.349-0.932-0.008-1.284c-0.357-0.352-0.932-0.349-1.284,0.008l-1.675,1.691l-1.377-1.377
		c-0.354-0.354-0.928-0.354-1.282,0s-0.354,0.928,0,1.282l0.16,0.16l-2.486,2.487c-1.8,1.805-1.894,4.696-0.215,6.614l-0.938,0.947
		c-0.352,0.357-0.349,0.932,0.008,1.284c0.357,0.352,0.932,0.349,1.284-0.008l0.931-0.94c0.763,0.675,1.712,1.076,2.704,1.177
		c-0.002,0.002-0.003,0.004-0.005,0.006c0.04,0.004,0.081,0.003,0.121,0.007c0.08,0.006,0.159,0.011,0.239,0.013
		c0.128,0.004,0.255,0.003,0.382-0.002c0.029-0.002,0.057-0.003,0.086-0.005c1.132-0.069,2.24-0.527,3.1-1.391l2.487-2.487
		l0.16,0.16c0.354,0.354,0.928,0.354,1.282,0c0.267-0.267,0.332-0.659,0.195-0.988c-0.044-0.111-0.11-0.215-0.2-0.304l-1.377-1.377
		l1.691-1.675C23.704,23.578,23.707,23.003,23.355,22.647z M16.261,30.135c-0.024,0.005-0.048,0.006-0.071,0.013
		c-0.966,0.165-1.952-0.148-2.645-0.84l-0.846-0.846c-1.18-1.183-1.18-3.097,0-4.28l2.487-2.487l5.118,5.134l-1.529,1.529
		c-0.006,0.006-0.955,0.959-0.955,0.959C17.377,29.759,16.831,30.027,16.261,30.135z"/>
</g>
</svg>
