<?xml version="1.0" encoding="utf-8"?>
<!-- Generator: Adobe Illustrator 24.1.2, SVG Export Plug-In . SVG Version: 6.00 Build 0)  -->
<svg version="1.1" id="Layer_1" xmlns="http://www.w3.org/2000/svg" xmlns:xlink="http://www.w3.org/1999/xlink" x="0px" y="0px"
	 viewBox="0 0 42 42" style="enable-background:new 0 0 42 42;" xml:space="preserve">
<style type="text/css">
	.st0{fill:#FFFFFF;}
</style>
<g id="Group_11881">
	<path id="Path_15265" class="st0" d="M23.6,10.1c-3.5,0-6.7,2.3-7.9,5.7c-4.4,1.5-6.7,6.2-5.2,10.5s6.2,6.7,10.6,5.2
		c2.4-0.8,4.4-2.8,5.2-5.2c0.4-0.2,0.8-0.3,1.1-0.5c1.1-0.6,2.1-1.5,2.9-2.5c0.3-0.4,0.2-0.9-0.2-1.2c-0.4-0.3-0.9-0.2-1.2,0.2
		c0,0,0,0-0.1,0.1c-0.6,0.8-1.4,1.5-2.2,2c0-0.2,0-0.4,0-0.6c0-4.6-3.7-8.3-8.3-8.3c-0.2,0-0.4,0-0.6,0c1.7-3.2,5.7-4.5,8.9-2.8
		c2.2,1.1,3.5,3.4,3.5,5.9c0,0.5,0.4,0.8,0.9,0.8s0.8-0.4,0.8-0.8C31.9,13.8,28.2,10.1,23.6,10.1z M18.4,30.2c-3.6,0-6.6-3-6.6-6.6
		c0-2.4,1.4-4.7,3.5-5.8c0,0.2,0,0.4,0,0.6c0,4.6,3.7,8.3,8.3,8.3c0.2,0,0.4,0,0.6,0C23.2,28.8,20.9,30.2,18.4,30.2z M25,23.6
		c0,0.4-0.1,0.9-0.1,1.3C24.5,25,24.1,25,23.6,25c-0.2,0-0.3,0-0.5,0l1.9-1.9C25,23.3,25,23.4,25,23.6z M24.6,21.1l-3.4,3.4
		c-0.5-0.2-1-0.5-1.5-0.8l4.1-4.1C24,20.1,24.4,20.6,24.6,21.1L24.6,21.1z M22.5,18.4l-4.1,4.1c-0.4-0.5-0.6-1-0.9-1.5l3.5-3.5
		C21.5,17.7,22.1,18,22.5,18.4L22.5,18.4z M18.4,17c0.2,0,0.5,0,0.7,0.1l-2,2c0-0.2-0.1-0.4-0.1-0.7c0-0.4,0.1-0.9,0.1-1.3
		C17.6,17,18,17,18.4,17z"/>
</g>
</svg>
