<?xml version="1.0" encoding="utf-8"?>
<!-- Generator: Adobe Illustrator 24.1.2, SVG Export Plug-In . SVG Version: 6.00 Build 0)  -->
<svg version="1.1" id="Layer_1" xmlns="http://www.w3.org/2000/svg" xmlns:xlink="http://www.w3.org/1999/xlink" x="0px" y="0px"
	 viewBox="0 0 42 42" style="enable-background:new 0 0 42 42;" xml:space="preserve">
<style type="text/css">
	.st0{fill:#FFFFFF;}
</style>
<path class="st0" d="M30.211,25.903L30.108,25.8c0.002,0,0.004,0,0.006,0l-6.839-6.839c0.185-0.615,0.284-1.272,0.284-1.898
	c0-1.656-0.674-3.298-1.849-4.507l-0.003-0.003c-1.741-1.775-4.374-2.341-6.71-1.443c-0.286,0.11-0.496,0.358-0.559,0.658
	c-0.063,0.3,0.031,0.611,0.249,0.826l2.095,2.069l-0.489,1.45l-1.325,0.453l-2.097-2.148c-0.213-0.218-0.519-0.313-0.818-0.255
	c-0.298,0.058-0.547,0.263-0.662,0.544c-0.353,0.864-0.518,1.612-0.518,2.356c0,1.656,0.674,3.299,1.849,4.507
	c1.172,1.205,2.81,1.896,4.495,1.896c0.482,0,0.957-0.054,1.419-0.161l1.531,1.531c-0.002,0-0.004,0-0.006,0l5.569,5.569
	c0.623,0.602,1.434,0.904,2.242,0.904c0.817,0,1.632-0.308,2.25-0.926C31.433,29.131,31.428,27.121,30.211,25.903z M28.935,29.12
	c-0.526,0.526-1.402,0.521-1.942,0l-0.906-0.906c0.001-0.002,0.001-0.003,0.002-0.005l-6.551-6.551
	c-0.172-0.172-0.403-0.265-0.639-0.265c-0.095,0-0.191,0.015-0.285,0.046c-0.446,0.149-0.917,0.224-1.399,0.224
	c-1.2,0-2.367-0.492-3.202-1.35c-0.85-0.875-1.338-2.059-1.338-3.25c0-0.083,0.004-0.166,0.01-0.251l1.389,1.422
	c0.243,0.249,0.608,0.336,0.937,0.223l2.285-0.782c0.265-0.091,0.473-0.299,0.562-0.565l0.812-2.405
	c0.11-0.327,0.025-0.688-0.221-0.93l-1.297-1.281c1.209-0.02,2.393,0.433,3.264,1.32c0.85,0.875,1.337,2.058,1.337,3.248
	c0,0.599-0.126,1.236-0.354,1.793c-0.138,0.336-0.06,0.722,0.197,0.979l2.532,2.532c-0.001,0.002-0.001,0.003-0.002,0.005
	l4.806,4.806C29.461,27.705,29.456,28.58,28.935,29.12z"/>
</svg>
