<svg xmlns="http://www.w3.org/2000/svg" viewBox="0 0 15.47 15.49"><defs><style>.cls-1{fill:#404c55;fill-rule:evenodd;}</style></defs><g id="Layer_2" data-name="Layer 2"><g id="Layer_1-2" data-name="Layer 1"><path class="cls-1" d="M9.27,1.38a34.38,34.38,0,0,0-6,5.07A34.36,34.36,0,0,1,6.32,9.17,35.88,35.88,0,0,1,9,12.26a34.85,34.85,0,0,0,5.08-6A8.86,8.86,0,0,0,15.35.14,8.6,8.6,0,0,0,9.27,1.38ZM6,12.31a.56.56,0,0,1,.65,0,.45.45,0,0,1,0,.64l-2.4,2.4a.45.45,0,0,1-.64,0,.39.39,0,0,1,0-.6ZM4.29,10.6a.45.45,0,0,1,.64,0,.56.56,0,0,1,0,.65L1.29,14.84a.48.48,0,0,1-.6,0,.45.45,0,0,1,0-.64ZM2.54,8.85a.39.39,0,0,1,.59,0,.39.39,0,0,1,0,.6L.74,11.89a.48.48,0,0,1-.6,0,.43.43,0,0,1,0-.64Zm0-2.9C3.64,4.79,4.75,3.73,5.81,2.86A5.1,5.1,0,0,0,3,2.67,7.28,7.28,0,0,0,0,4.33,17.15,17.15,0,0,1,2.49,6ZM12.63,9.68A40,40,0,0,1,9.54,13a22.19,22.19,0,0,1,1.62,2.54,7.31,7.31,0,0,0,1.65-3A5,5,0,0,0,12.63,9.68ZM9.08,6.41a1.69,1.69,0,0,0,2.4,0,1.7,1.7,0,0,0,.5-1.2,1.71,1.71,0,0,0-3.41,0A1.71,1.71,0,0,0,9.08,6.41Z"/></g></g></svg>