<svg xmlns="http://www.w3.org/2000/svg" viewBox="0 0 164 164"><defs><style>.cls-1,.cls-2{fill:#ffb600;}.cls-1{opacity:0.15;}.cls-2{fill-rule:evenodd;}</style></defs><g id="Layer_2" data-name="Layer 2"><g id="Layer_1-2" data-name="Layer 1"><circle class="cls-1" cx="82" cy="82" r="82"/><path class="cls-2" d="M121.25,88.52c0-.72.06-1.45.06-2.18a39.31,39.31,0,0,0-78.62,0c0,.73,0,1.46.06,2.18L38.08,89c0-.87-.08-1.73-.08-2.61a43.83,43.83,0,0,1,11.78-30l-2.3-2.3L46.4,55.16a.64.64,0,0,1-.92,0l-1.57-1.57a.64.64,0,0,1,0-.92l4.42-4.42a.64.64,0,0,1,.92,0l1.57,1.57a.66.66,0,0,1,0,.92l-1.08,1.08,2.3,2.3A43.84,43.84,0,0,1,79.52,42.41V39.27H77.46A1.47,1.47,0,0,1,76,37.81V35.13a1.47,1.47,0,0,1,1.47-1.47h9.1A1.47,1.47,0,0,1,88,35.13v2.68a1.47,1.47,0,0,1-1.47,1.46H84.5v3.14A43.84,43.84,0,0,1,112,54.12l2.3-2.3-1.08-1.08a.66.66,0,0,1,0-.92l1.57-1.57a.64.64,0,0,1,.92,0q2.22,2.2,4.42,4.42a.64.64,0,0,1,0,.92l-1.57,1.57a.64.64,0,0,1-.92,0l-1.08-1.08-2.3,2.3a43.83,43.83,0,0,1,11.78,30c0,.88,0,1.74-.08,2.61Z"/><path class="cls-2" d="M82,56.86A33.42,33.42,0,0,0,74.84,68a47.24,47.24,0,0,0,0,34.18,54.52,54.52,0,0,0,4.49,8.36c.29.5.59,1,.9,1.57A35,35,0,0,1,82,115.75a35,35,0,0,1,1.77-3.65c.28-.5.58-1,.9-1.57a77.68,77.68,0,0,0,4.49-8.36A44.37,44.37,0,0,0,92,90.83,37.41,37.41,0,0,1,97,85.31l.11-.09a51.94,51.94,0,0,1-1.92,14C98.45,96.65,106.37,93,106.32,93a31.62,31.62,0,0,0-.93-15.69,30.43,30.43,0,0,0-10,6.24c-8.82,8-10.61,15.3-13.36,26.23-.69-.84-3.6-14-7.75-19.85h0v-.08h0V89.8h0v-.08h0v-.08h0v-.07h0v-.08h0v-.07h0v-.08h0v-.08h0a46.47,46.47,0,0,1-.13-6.57h0v0h0v0h0v0h0v0h0v0h0v0h0v0h0v0A46.92,46.92,0,0,1,82,93.9,46,46,0,0,1,92.06,80.24,44.32,44.32,0,0,0,89.16,68,33.42,33.42,0,0,0,82,56.86Zm27.16,57.9c-.58.52-1.18,1-1.81,1.54a38.86,38.86,0,0,1-6.77,4.39A34.26,34.26,0,0,1,94.83,123c-.69.21-1.37.39-2,.55a40.78,40.78,0,0,0,3.77-3,44,44,0,0,0,3.83-4h0a46.27,46.27,0,0,0,4.3-6q1.22-2,2.27-4.2a48.12,48.12,0,0,0,2.72-7,33.89,33.89,0,0,0-5.86,2.56c-.33.82-.69,1.63-1.08,2.45a44.34,44.34,0,0,1-3.63,6.21,39.8,39.8,0,0,1-5.14,6l-.56.52a31.43,31.43,0,0,1-8.64,5.69,12.78,12.78,0,0,1,.5-2.2,32.18,32.18,0,0,1,2.59-6.17,35.41,35.41,0,0,1,2.5-3.84,38.79,38.79,0,0,1,6.75-7,37.4,37.4,0,0,1,12.53-6.72A27.66,27.66,0,0,1,120,95.67c-.1.77-.24,1.54-.42,2.32a39.28,39.28,0,0,1-9.76,16.15l-.63.62Zm2.07-23.15a29.56,29.56,0,0,1,11.67-.25l2.8.61c-1.27,5.84-2,10.42-5,15.8a41.47,41.47,0,0,1-8,10.07,44,44,0,0,1-61.42,0,41.46,41.46,0,0,1-8-10.09A45.74,45.74,0,0,1,38.46,92.7l-.14-.82.83-.15,2-.37a29.44,29.44,0,0,1,11.61.24c-.09-.76-.15-1.51-.2-2.26A33.82,33.82,0,0,1,55.1,73.5l.81-1.81,1.92.5a30.45,30.45,0,0,1,7.6,3.21c.73.42,1.45.88,2.16,1.37a49.2,49.2,0,0,1,2.9-10.54,36.79,36.79,0,0,1,10-14.34L82,50.61l1.51,1.28a36.79,36.79,0,0,1,10,14.34,41.91,41.91,0,0,1,2.95,10.5h0a31.7,31.7,0,0,1,9.7-4.53l1.92-.5.81,1.81a33.82,33.82,0,0,1,2.32,18.11ZM54.86,114.77c.58.53,1.17,1,1.79,1.53A37.42,37.42,0,0,0,69.17,123c.69.21,1.37.39,2,.55a40.78,40.78,0,0,1-3.77-3A46.19,46.19,0,0,1,57,106.33a48.87,48.87,0,0,1-3.44-9.69,26.92,26.92,0,0,0-9.57-1c.85,6.71,6,14.54,10.83,19.1Zm14-15.6a42.82,42.82,0,0,0-8.62-5.12,40.34,40.34,0,0,0,1.83,6.19,39.53,39.53,0,0,1,4.82,3.33,37.41,37.41,0,0,1,9.25,10.8,28.5,28.5,0,0,1,3.13,8.39l0,0a31.43,31.43,0,0,1-8.64-5.69,42.78,42.78,0,0,1-13.41-28,30.47,30.47,0,0,1,1.43-11.73,28.42,28.42,0,0,1,6.16,3.18c.76.52,1.51,1.07,2.25,1.67,0,1-.08,1.93-.08,2.9A51.69,51.69,0,0,0,68.86,99.17Z"/></g></g></svg>