<svg xmlns="http://www.w3.org/2000/svg" viewBox="0 0 25.87 16.81"><defs><style>.cls-1{fill:#ffb600}</style></defs><g id="Layer_2" data-name="Layer 2"><g id="Layer_1-2" data-name="Layer 1"><path class="cls-1" d="M1.94 0a1.94 1.94 0 101.94 1.94A1.94 1.94 0 001.94 0zm0 2.59a.65.65 0 11.65-.65.65.65 0 01-.65.65zM1.94 6.47a1.94 1.94 0 101.94 1.94 1.94 1.94 0 00-1.94-1.94zm0 2.58a.65.65 0 11.65-.64.65.65 0 01-.65.64zM1.94 12.93a1.94 1.94 0 101.94 1.94 1.94 1.94 0 00-1.94-1.94zm0 2.59a.65.65 0 11.65-.65.65.65 0 01-.65.65zM6.47 3.23h18.1a1.29 1.29 0 100-2.58H6.47a1.29 1.29 0 100 2.58zM24.57 7.11H6.47a1.3 1.3 0 100 2.59h18.1a1.3 1.3 0 100-2.59zM24.57 13.58H6.47a1.3 1.3 0 100 2.59h18.1a1.3 1.3 0 100-2.59z"/></g></g></svg>