<svg xmlns="http://www.w3.org/2000/svg"><defs><font id="CircularStd-Black" horiz-adv-x="587"><font-face font-family="CircularStd" font-weight="900" panose-1="2 11 10 4 2 1 1 1 1 2" ascent="809" descent="-191" x-height="497" cap-height="709" bbox="-60 -268 1578 1017" underline-thickness="80" underline-position="-195" stemh="131" stemv="152" unicode-range="U+000D-FEFF"/><glyph glyph-name="f_f" unicode="ff" horiz-adv-x="690" d="M677 369H569V0H417v369H242V0H90v369H11v128h79v43c0 114 69 192 190 192 25 0 58-4 72-11V597c-8 2-22 5-45 5-26 0-65-12-65-62v-43h175v43c0 114 69 192 189 192 26 0 59-3 73-10V597c-8 2-23 5-45 5-27 0-65-12-65-62v-43h108V369z"/><glyph glyph-name="f_f_i" unicode="ffi" horiz-adv-x="973" d="M280 732c25 0 58-5 72-12V597c-8 2-22 5-45 5-29 0-65-12-65-62v-43h175v43c0 114 69 192 189 192 26 0 59-4 73-11V597c-8 2-23 5-45 5-27 0-65-12-65-62v-43h339V0H755v369H569V0H417v369H242V0H90v369H11v128h79v43c0 114 69 192 190 192zm462-83c0 50 40 89 89 89 50 0 89-39 89-89 0-49-39-89-89-89-49 0-89 40-89 89z"/><glyph glyph-name="f_f_l" unicode="ffl" horiz-adv-x="975" d="M307 602c-26 0-65-12-65-62v-43h175v43c0 114 69 192 189 192 26 0 59-4 73-11V597c-8 2-23 5-45 5-27 0-65-12-65-62v-43h187v227h152V0H756v369H569V0H417v369H242V0H90v369H11v128h79v43c0 114 69 192 190 192 25 0 58-4 72-11V597c-8 2-22 5-45 5z"/><glyph glyph-name="f_i" unicode="fi" horiz-adv-x="643" d="M425 369H242V0H90v369H11v128h79v43c0 114 69 192 190 192 25 0 56-4 70-11V597c-7 2-21 5-43 5-26 0-65-12-65-62v-43h335V0H425v369zm-13 280c0 50 40 89 88 89 50 0 90-39 90-89 0-49-40-89-90-89-48 0-88 40-88 89z"/><glyph glyph-name="f_l" unicode="fl" horiz-adv-x="644" d="M307 602c-26 0-65-12-65-62v-43h182v227h153V0H424v369H242V0H90v369H11v128h79v43c0 114 69 192 190 192 25 0 56-4 70-11V597c-7 2-21 5-43 5z"/><glyph glyph-name=".notdef" horiz-adv-x="595" d="M67 0v709h461V0H67zm124 124h213v461H191V124z"/><glyph glyph-name=".null" horiz-adv-x="0"/><glyph glyph-name=".null" horiz-adv-x="0"/><glyph glyph-name="uni000D" horiz-adv-x="246"/><glyph glyph-name="space" horiz-adv-x="246"/><glyph glyph-name="exclam" unicode="!" horiz-adv-x="345" d="M264 709l-35-487H117L82 709h182zM86 76c0 48 38 87 86 87s87-39 87-87c0-47-39-86-87-86S86 29 86 76z"/><glyph glyph-name="quotedbl" unicode="&quot;" horiz-adv-x="416" d="M31 577c0 47 35 83 82 83 46 0 81-36 81-83 0-9-2-23-4-30l-50-181H86L36 547c-1 6-5 19-5 30zm191 0c0 47 35 83 82 83 46 0 81-36 81-83 0-9-2-23-4-30l-50-181h-54l-50 181c-1 6-5 19-5 30z"/><glyph glyph-name="numbersign" unicode="#" horiz-adv-x="744" d="M86 392v105h144l33 152h114l-33-152h126l33 152h115l-33-152h123V392H563l-28-130h122V156H512L479 0H364l33 156H271L238 0H124l33 156H37v106h143l28 130H86zm236 0l-28-130h126l28 130H322z"/><glyph glyph-name="dollar" unicode="$" horiz-adv-x="596" d="M368-117H253v107C112 13 48 117 41 199l138 31c5-58 45-110 131-110 50 0 86 24 86 63 0 29-22 48-62 57l-89 21C133 288 64 356 64 451c0 112 84 189 189 207v108h115V655c110-24 160-103 174-171l-139-37c-6 31-23 83-102 83-56 0-84-33-84-65 0-27 20-48 59-57l87-19c134-30 187-108 187-198 0-92-66-178-182-199v-109z"/><glyph glyph-name="percent" unicode="%" horiz-adv-x="872" d="M147 495c0-40 26-66 61-66s60 27 60 66c0 38-25 64-60 64s-61-26-61-64zm-108 0c0 93 77 166 169 166s169-73 169-166c0-96-77-166-170-166S39 402 39 495zm565-342c0-40 26-66 61-66s60 27 60 66c0 38-25 64-60 64s-61-26-61-64zm-108 0c0 93 77 166 169 166s169-73 169-166c0-96-77-166-170-166S496 60 496 153zM274 0H146l454 649h129z"/><glyph glyph-name="ampersand" unicode="&amp;" horiz-adv-x="727" d="M535 0l-64 69c-49-50-111-83-186-83C145-14 66 83 66 181c0 87 45 138 121 193l-10 11c-34 37-74 88-74 152 0 121 102 188 201 188 117 0 203-75 203-182 0-71-48-126-100-164l-23-17 95-100 189 193V269L568 168 727 0H535zM289 116c35 0 65 17 94 47L273 281l-5-4c-33-24-55-49-55-88 0-37 30-73 76-73zm-45 426c0-28 19-51 36-69l17-18 28 20c29 21 41 45 41 68 0 34-27 60-62 60-30 0-60-19-60-61z"/><glyph glyph-name="quotesingle" unicode="'" horiz-adv-x="225" d="M31 577c0 47 35 83 82 83 46 0 81-36 81-83 0-9-2-23-4-30l-50-181H86L36 547c-1 6-5 19-5 30z"/><glyph glyph-name="parenleft" unicode="(" horiz-adv-x="343" d="M37 324c0 234 97 390 220 507l86-81C234 636 164 507 164 324c0-182 70-312 179-426l-86-81C134-65 37 90 37 324z"/><glyph glyph-name="parenright" unicode=")" horiz-adv-x="343" d="M306 324c0-234-97-389-219-507L0-102C109 12 180 142 180 324c0 183-71 312-180 426l87 81c122-117 219-273 219-507z"/><glyph glyph-name="asterisk" unicode="*" horiz-adv-x="463" d="M291 709V586l114 37 38-110-115-38 70-97-94-69-73 98-72-98-94 69 70 97-115 38 37 110 114-37v123h120z"/><glyph glyph-name="plus" unicode="+" horiz-adv-x="599" d="M46 360h190v195h128V360h189V236H364V41H236v195H46v124z"/><glyph glyph-name="comma" unicode="," horiz-adv-x="321" d="M57 88c0 53 43 93 100 93 70 0 108-59 108-125 0-155-110-221-190-230v71c43 8 98 48 100 108-5-4-16-7-28-7-55 0-90 40-90 90z"/><glyph glyph-name="hyphen" unicode="-" horiz-adv-x="390" d="M345 233H45v137h300V233z"/><glyph glyph-name="period" unicode="." horiz-adv-x="327" d="M61 94c0 56 46 102 102 102s103-46 103-102C266 39 219-9 163-9S61 39 61 94z"/><glyph glyph-name="slash" unicode="/" horiz-adv-x="495" d="M495 723L135-14H0l359 737h136z"/><glyph glyph-name="zero" unicode="0" horiz-adv-x="628" d="M195 324c0-52 6-103 24-141 18-36 47-60 95-60 49 0 77 24 95 60 19 38 25 89 25 141s-6 103-25 141c-18 36-46 60-95 60-48 0-77-24-95-60-18-38-24-89-24-141zm-158 0c0 80 12 161 57 229 43 65 115 111 220 111 106 0 178-46 221-111 45-68 57-149 57-229s-12-161-57-229C492 31 420-16 314-16 209-16 137 31 94 95c-45 68-57 149-57 229z"/><glyph glyph-name="one" unicode="1" horiz-adv-x="417" d="M346 0H189v422H34v105c97 1 166 56 177 122h135V0z"/><glyph glyph-name="two" unicode="2" horiz-adv-x="551" d="M189 389l-148 1c-3 8-6 34-6 54 0 116 87 220 243 220 149 0 241-97 241-213 0-84-45-153-128-202l-123-73c-19-12-35-25-44-44h300V0H31c0 119 34 217 153 286l106 62c51 30 71 57 71 100 0 41-29 77-87 77-61 0-91-42-91-96 0-13 2-27 6-40z"/><glyph glyph-name="three" unicode="3" horiz-adv-x="547" d="M209 282l-68 104 160 131H30v132h468V527L338 403c100-7 182-87 182-198 0-115-95-219-255-219C114-14 18 83 8 194l152 28c2-57 43-102 104-102s97 41 97 89c0 62-48 88-94 88-21 0-43-7-58-15z"/><glyph glyph-name="four" unicode="4" horiz-adv-x="608" d="M31 135v160l270 354h188V267h104V135H489V0H331v135H31zm300 132v214L168 267h163z"/><glyph glyph-name="five" unicode="5" horiz-adv-x="557" d="M26 185l146 30c3-50 41-97 105-97 53 0 97 35 97 94 0 65-49 96-101 96-44 0-75-22-91-42-3 1-138 44-141 46l73 337h377V517H223l-26-122c25 22 73 35 110 35 133 0 224-77 224-217 0-121-92-229-254-229C133-16 34 83 26 185z"/><glyph glyph-name="six" unicode="6" horiz-adv-x="584" d="M545 637l-42-128c-30 11-66 21-102 21-107 0-191-53-210-165 23 37 78 68 154 68 132 0 217-90 217-216C562 84 457-15 306-15 152-15 37 97 37 283c0 230 148 381 373 381 61 0 109-12 135-27zM203 211c0-55 45-94 101-94s102 37 102 94c0 58-46 95-102 95s-101-37-101-95z"/><glyph glyph-name="seven" unicode="7" horiz-adv-x="514" d="M509 649V523C464 484 283 320 255 0H91c27 336 232 517 232 517H5v132h504z"/><glyph glyph-name="eight" unicode="8" horiz-adv-x="573" d="M286 388c57 1 83 37 83 76 0 34-29 70-83 70s-83-36-83-70c0-39 27-75 83-76zm0-275c64 0 97 42 97 81 0 40-30 83-97 83-66 0-96-43-96-83 0-39 33-81 96-81zm0-128C139-15 36 62 36 176c0 67 42 131 110 158-67 24-98 91-98 142 0 109 98 188 238 188 141 0 239-79 239-188 0-51-32-118-99-142 68-27 111-91 111-158C537 62 434-15 286-15z"/><glyph glyph-name="nine" unicode="9" horiz-adv-x="585" d="M51 19l34 127c21-11 68-26 114-26 99 0 187 45 197 160-27-40-83-63-141-63-125 0-224 88-224 218 0 132 102 229 254 229 148 0 263-105 263-312 0-230-123-367-346-367C144-15 85-1 51 19zm324 421c0 54-42 92-97 92s-97-38-97-92 42-92 97-92 97 39 97 92z"/><glyph glyph-name="colon" unicode=":" horiz-adv-x="322" d="M61 91c0 55 45 100 100 100 54 0 100-45 100-100C261 38 215-9 161-9 106-9 61 38 61 91zm0 315c0 55 45 100 100 100 54 0 100-45 100-100 0-53-46-100-100-100-55 0-100 47-100 100z"/><glyph glyph-name="semicolon" unicode=";" horiz-adv-x="323" d="M64 82c0 50 41 88 95 88 67 0 103-56 103-119 0-147-105-210-181-218v67c41 8 93 46 95 103-5-4-15-7-26-7-53 0-86 38-86 86zm-3 324c0 55 45 100 100 100 54 0 100-45 100-100 0-53-46-100-100-100-55 0-100 47-100 100z"/><glyph glyph-name="less" unicode="&lt;" horiz-adv-x="505" d="M35 244v108l439 224V438L186 301l288-139V22z"/><glyph glyph-name="equal" unicode="=" horiz-adv-x="607" d="M551 339H56v122h495V339zm0-201H56v122h495V138z"/><glyph glyph-name="greater" unicode="&gt;" horiz-adv-x="505" d="M470 353V245L31 22v137l288 138L31 436v140z"/><glyph glyph-name="question" unicode="?" horiz-adv-x="538" d="M313 222H194c-3 14-4 28-4 44 0 47 19 98 76 141l51 38c27 20 36 44 36 70 0 39-29 77-89 77-58 0-92-47-92-94 0-23 2-33 3-37l-140 5c-3 14-4 29-4 42 0 117 87 216 233 216 162 0 243-97 243-197 0-80-37-135-97-180l-38-28c-35-26-59-52-59-97zM171 76c0 48 38 87 86 87s87-39 87-87c0-47-39-86-87-86s-86 39-86 86z"/><glyph glyph-name="at" unicode="@" horiz-adv-x="827" d="M583 141h-4c-55 0-84 30-92 58-23-40-69-60-115-60-84 0-151 71-151 172 0 130 91 223 196 223 35 0 76-17 91-53l8 40h103l-52-243c-1-4-1-8-1-12 0-15 11-29 28-29 47 0 94 63 94 158 0 138-107 231-255 231-163 0-286-117-286-293 0-162 109-284 293-284 56 0 119 14 173 52l51-73c-52-46-149-76-224-76C206-48 36 103 36 330c0 234 179 395 396 395 208 0 360-141 360-329 0-153-106-253-209-255zm-97 224c0 42-21 70-59 70-55 0-92-51-92-115 0-49 19-83 63-83 49 0 87 53 88 128z"/><glyph glyph-name="A" unicode="A" horiz-adv-x="734" d="M552 0l-51 144H227L176 0H10l267 709h183L724 0H552zM366 533l-87-245h172z"/><glyph glyph-name="B" unicode="B" horiz-adv-x="617" d="M77 709h265c140 0 221-81 221-190 0-73-46-133-104-152 64-15 126-74 126-166C585 85 497 0 363 0H77v709zm154-284h86c55 0 91 29 91 77 0 46-31 76-93 76h-84V425zm0-296h99c61 0 98 32 98 83 0 49-36 83-98 83h-99V129z"/><glyph glyph-name="C" unicode="C" horiz-adv-x="772" d="M404-15C200-15 36 132 36 353s168 371 366 371c213 0 307-137 330-239l-149-47c-11 49-56 132-181 132-95 0-202-68-202-217 0-133 98-210 204-210 123 0 172 82 186 133l151-43C718 135 624-15 404-15z"/><glyph glyph-name="D" unicode="D" horiz-adv-x="726" d="M235 149h92c109 0 198 63 198 205s-89 206-198 206h-92V149zM333 0H77v709h257c213 0 356-136 356-355S547 0 333 0z"/><glyph glyph-name="E" unicode="E" horiz-adv-x="583" d="M527 0H77v709h449V560H235V425h264V286H235V150h292V0z"/><glyph glyph-name="F" unicode="F" horiz-adv-x="568" d="M236 0H77v709h457V559H235V409h263V265H236V0z"/><glyph glyph-name="G" unicode="G" horiz-adv-x="788" d="M732 0H604l-10 72c-31-45-98-87-199-87C198-15 36 130 36 354c0 223 169 370 369 370 203 0 297-120 328-219l-152-53c-11 44-58 124-176 124-96 0-209-64-209-222 0-148 98-225 213-225 117 0 166 76 175 116H371v134h361V0z"/><glyph glyph-name="H" unicode="H" horiz-adv-x="753" d="M677 0H518v282H235V0H77v709h158V431h283v278h159V0z"/><glyph glyph-name="I" unicode="I" horiz-adv-x="313" d="M237 0H77v709h160V0z"/><glyph glyph-name="J" unicode="J" horiz-adv-x="568" d="M20 219v47l150 26v-65c0-63 40-92 86-92 52 0 83 38 83 91v483h158V222c0-129-99-237-240-237C117-15 20 78 20 219z"/><glyph glyph-name="K" unicode="K" horiz-adv-x="713" d="M506 0L315 279l-80-89V0H77v709h158V411l259 298h208L426 402 703 0H506z"/><glyph glyph-name="L" unicode="L" horiz-adv-x="566" d="M541 0H77v709h158V151h306V0z"/><glyph glyph-name="M" unicode="M" horiz-adv-x="957" d="M880 0H725v470L540 0H412L227 464V0H77v709h206l195-479 185 479h217V0z"/><glyph glyph-name="N" unicode="N" horiz-adv-x="769" d="M693 0H526L234 466V0H77v709h192l266-431v431h158V0z"/><glyph glyph-name="O" unicode="O" horiz-adv-x="809" d="M200 355c0-148 106-214 205-214 98 0 204 66 204 214S503 570 405 570c-99 0-205-67-205-215zm-164-1c0 225 169 370 369 370 199 0 368-145 368-370 0-224-169-369-368-369C205-15 36 130 36 354z"/><glyph glyph-name="P" unicode="P" horiz-adv-x="613" d="M236 391h92c60 0 101 35 101 90 0 57-41 91-101 91h-92V391zm108-136H235V0H77v709h267c144 0 243-95 243-227 0-134-99-227-243-227z"/><glyph glyph-name="Q" unicode="Q" horiz-adv-x="809" d="M36 354c0 225 169 370 369 370 199 0 368-145 368-370 0-95-30-175-80-236l87-95-104-88-87 96C535 1 471-15 405-15 205-15 36 130 36 354zm164 1c0-148 106-214 205-214 24 0 48 4 72 12L373 267l105 88 104-114c17 31 27 68 27 114 0 148-106 215-204 215-99 0-205-67-205-215z"/><glyph glyph-name="R" unicode="R" horiz-adv-x="628" d="M418 0L291 264h-56V0H77v709h281c140 0 230-96 230-222 0-96-53-169-140-200L592 0H418zM235 400h93c65 0 100 36 100 86 0 53-35 86-100 86h-93V400z"/><glyph glyph-name="S" unicode="S" horiz-adv-x="609" d="M565 535l-142-40c-5 33-32 89-118 89-59 0-97-37-97-76 0-34 21-59 70-68l95-18c135-25 205-112 205-213 0-111-93-224-262-224C120-15 36 112 26 212l145 35c6-65 50-122 147-122 62 0 100 30 100 74 0 36-29 62-76 71l-97 18C125 311 52 391 52 496c0 134 118 228 254 228 177 0 244-106 259-189z"/><glyph glyph-name="T" unicode="T" horiz-adv-x="633" d="M614 558H395V0H237v558H19v151h595V558z"/><glyph glyph-name="U" unicode="U" horiz-adv-x="704" d="M352-16C196-16 71 78 71 256v453h158V269c0-86 48-129 123-129s123 43 123 129v440h158V256C633 78 508-16 352-16z"/><glyph glyph-name="V" unicode="V" horiz-adv-x="702" d="M355 210l169 499h168L433 0H270L10 709h174z"/><glyph glyph-name="W" unicode="W" horiz-adv-x="1039" d="M752 254l115 455h162L836 0H673L522 470 370 0H204L11 709h168l117-454 147 454h162z"/><glyph glyph-name="X" unicode="X" horiz-adv-x="695" d="M674 709L446 353 676 0H484L344 230 205 0H19l229 355L19 709h190l140-230 140 230h185z"/><glyph glyph-name="Y" unicode="Y" horiz-adv-x="673" d="M256 296L10 709h185l145-263 147 263h176L414 296V0H256v296z"/><glyph glyph-name="Z" unicode="Z" horiz-adv-x="644" d="M599 0H36v152l342 406H51v151h544V563L245 151h354V0z"/><glyph glyph-name="bracketleft" unicode="[" horiz-adv-x="331" d="M326-171H77v994h249V709H203V-55h123v-116z"/><glyph glyph-name="backslash" unicode="\" horiz-adv-x="497" d="M360-14L0 723h138L497-14H360z"/><glyph glyph-name="bracketright" unicode="]" horiz-adv-x="331" d="M255-171H5v116h124v764H5v114h250v-994z"/><glyph glyph-name="asciicircum" unicode="^" horiz-adv-x="535" d="M523 350H385L269 567 152 350H12l199 359h112z"/><glyph glyph-name="underscore" unicode="_" horiz-adv-x="513" d="M512-124H2V0h510v-124z"/><glyph glyph-name="grave" unicode="`" horiz-adv-x="308" d="M163 556L21 707h173l93-151H163z"/><glyph glyph-name="a" unicode="a" horiz-adv-x="546" d="M37 137c0 88 65 138 147 150l117 18c27 4 36 17 36 34 0 29-25 54-73 54-53 0-82-36-85-73L47 347c6 71 72 165 218 165 161 0 220-90 220-192V77c0-39 5-72 6-77H354c-1 4-5 22-5 56-26-42-74-70-140-70C100-14 37 58 37 137zm209-41c45 0 91 22 91 99v22l-94-15c-32-5-56-20-56-55 0-26 17-51 59-51z"/><glyph glyph-name="b" unicode="b" horiz-adv-x="622" d="M214 0H67v724h149V450c21 31 76 59 144 59 144 0 231-110 231-259 0-152-98-261-237-261-66 0-117 29-140 67V0zm225 249c0 84-53 123-112 123s-113-39-113-123c0-82 54-124 113-124s112 41 112 124z"/><glyph glyph-name="c" unicode="c" horiz-adv-x="561" d="M296 372c-63 0-114-44-114-124 0-79 53-123 116-123 59 0 92 37 103 74l134-41C513 71 431-15 298-15 150-15 31 94 31 248c0 155 116 264 262 264 137 0 217-84 239-173l-136-41c-11 38-41 74-100 74z"/><glyph glyph-name="d" unicode="d" horiz-adv-x="626" d="M556 724V89c0-45 3-78 4-89H414c-1 6-4 28-4 48-23-34-73-59-133-59C137-11 31 97 31 250c0 148 100 259 241 259 85 0 122-32 134-51v266h150zM184 249c0-82 53-124 112-124s112 42 112 124c0 83-53 123-112 123s-112-40-112-123z"/><glyph glyph-name="e" unicode="e" horiz-adv-x="559" d="M182 308h199c-2 38-28 84-100 84-64 0-96-47-99-84zm210-129l127-36C495 57 416-15 290-15 153-15 31 83 31 250c0 160 119 262 248 262 154 0 249-95 249-255 0-21-2-44-3-47H179c3-56 54-96 113-96 55 0 86 26 100 65z"/><glyph glyph-name="f" unicode="f" horiz-adv-x="363" d="M350 369H242V0H90v369H11v128h79v43c0 114 69 192 190 192 31 0 58-4 72-11V597c-8 2-21 5-45 5-27 0-65-12-65-67v-38h108V369z"/><glyph glyph-name="g" unicode="g" horiz-adv-x="607" d="M32-28l134 38c10-48 50-83 107-83 76 0 123 37 123 127v23c-18-27-61-56-133-56C131 21 32 125 32 263c0 131 95 243 231 243 81 0 124-36 138-62v53h145V62c0-143-80-267-266-267-143 0-234 88-248 177zm259 181c62 0 106 42 106 110s-49 110-106 110-107-42-107-110 46-110 107-110z"/><glyph glyph-name="h" unicode="h" horiz-adv-x="595" d="M219 292V0H67v724h152V465c31 31 83 45 127 45 130 0 188-89 188-198V0H382v286c0 49-26 86-81 86-48 0-79-34-82-80z"/><glyph glyph-name="i" unicode="i" horiz-adv-x="285" d="M219 0H67v497h152V0zM54 649c0 49 40 89 88 89 50 0 90-40 90-89s-40-89-90-89c-48 0-88 40-88 89z"/><glyph glyph-name="j" unicode="j" horiz-adv-x="286" d="M67-20v517h152V-36c0-100-63-169-164-169-53 0-77 11-84 14v126c7-2 22-6 45-6 35 0 51 20 51 51zM54 649c0 50 40 89 88 89 50 0 90-39 90-89 0-49-40-89-90-89-48 0-88 40-88 89z"/><glyph glyph-name="k" unicode="k" horiz-adv-x="576" d="M567 497L373 288 571 0H385L268 175l-49-53V0H67v724h152V330l151 167h197z"/><glyph glyph-name="l" unicode="l" horiz-adv-x="286" d="M219 0H67v724h152V0z"/><glyph glyph-name="m" unicode="m" horiz-adv-x="901" d="M219 0H67v497h145v-57c25 44 89 72 143 72 71 0 122-29 147-78 39 56 87 78 154 78 94 0 184-55 184-190V0H693v288c0 47-25 84-79 84s-83-41-83-85V0H381v288c0 47-25 84-80 84-53 0-82-41-82-86V0z"/><glyph glyph-name="n" unicode="n" horiz-adv-x="595" d="M219 285V0H67v497h147v-57c27 47 88 70 139 70 125 0 181-89 181-198V0H382v286c0 49-26 86-81 86-50 0-82-37-82-87z"/><glyph glyph-name="o" unicode="o" horiz-adv-x="590" d="M295 125c58 0 112 40 112 124s-54 123-112 123c-57 0-112-39-112-123 0-83 55-124 112-124zm0 387c149 0 264-109 264-263S444-15 295-15C147-15 31 95 31 249s116 263 264 263z"/><glyph glyph-name="p" unicode="p" horiz-adv-x="622" d="M219-190H67v687h147v-51c21 32 75 63 146 63 144 0 231-110 231-259 0-152-98-261-237-261-64 0-112 22-135 50v-229zm223 439c0 83-53 123-113 123-59 0-112-40-112-123 0-82 53-124 112-124 60 0 113 41 113 124z"/><glyph glyph-name="q" unicode="q" horiz-adv-x="622" d="M556-190H407V40c-22-31-68-51-130-51C135-11 31 98 31 250c0 148 98 259 240 259 88 0 129-40 140-61v49h145v-687zM185 249c0-82 53-124 112-124s112 41 112 124-53 123-112 123-112-40-112-123z"/><glyph glyph-name="r" unicode="r" horiz-adv-x="403" d="M383 497V347c-17 4-33 5-48 5-61 0-116-36-116-135V0H67v497h147v-67c26 56 89 72 129 72 15 0 30-2 40-5z"/><glyph glyph-name="s" unicode="s" horiz-adv-x="466" d="M26 141l129 23c2-34 26-67 78-67 39 0 58 21 58 43 0 18-12 33-49 41l-57 13C79 217 37 277 37 347c0 91 80 165 191 165 144 0 194-90 199-148l-126-23c-4 33-25 61-71 61-29 0-54-17-54-43 0-21 17-33 39-37l66-13c103-21 153-83 153-156 0-85-65-168-198-168C80-15 30 86 26 141z"/><glyph glyph-name="t" unicode="t" horiz-adv-x="382" d="M249 642V497h97V364h-97V178c0-41 22-52 55-52 16 0 31 3 40 5V5c-6-3-31-14-79-14C162-9 99 52 99 151v213H11v133h25c52 0 77 35 77 81v64h136z"/><glyph glyph-name="u" unicode="u" horiz-adv-x="596" d="M388 0c-2 9-4 37-4 50-26-43-83-61-133-61C130-11 62 77 62 183v314h152V215c0-48 26-86 80-86 51 0 83 35 83 85v283h152V89c0-45 4-81 5-89H388z"/><glyph glyph-name="v" unicode="v" horiz-adv-x="566" d="M556 497L367 0H214L10 497h165l115-309 106 309h160z"/><glyph glyph-name="w" unicode="w" horiz-adv-x="851" d="M350 497h161l97-295 83 295h149L686 0H535L427 321 321 0H167L11 497h158l83-294z"/><glyph glyph-name="x" unicode="x" horiz-adv-x="552" d="M14 0l171 248L11 497h179l89-136 87 136h170L364 254C420 174 485 80 542 0H364l-92 140c-27-40-64-99-91-140H14z"/><glyph glyph-name="y" unicode="y" horiz-adv-x="578" d="M262-191H102L215 67 6 497h170l121-266 110 266h161z"/><glyph glyph-name="z" unicode="z" horiz-adv-x="489" d="M453 0H36v134l219 233H42v130h407V372L220 131h233V0z"/><glyph glyph-name="braceleft" unicode="{" horiz-adv-x="385" d="M45 269v124c56 0 96 24 96 88v145c0 134 79 197 199 197h40V709h-37c-37 0-76-19-76-81V458c0-61-35-108-99-127 63-19 99-66 99-128V33c0-62 39-82 76-82h37v-113h-40c-120 0-199 62-199 196v146c0 64-40 89-96 89z"/><glyph glyph-name="bar" unicode="|" horiz-adv-x="279" d="M203-162H77v985h126v-985z"/><glyph glyph-name="braceright" unicode="}" horiz-adv-x="385" d="M340 393V269c-56 0-95-25-95-89V34c0-134-79-196-200-196H5v113h37c37 0 77 20 77 82v170c0 62 35 109 98 128-64 19-98 66-98 127v170c0 62-40 81-77 81H5v114h40c121 0 200-63 200-197V481c0-64 39-88 95-88z"/><glyph glyph-name="asciitilde" unicode="~" horiz-adv-x="589" d="M285 230l-47 26c-16 9-33 13-49 13-33 0-63-17-85-50l-82 65c37 71 100 110 172 110 35 0 72-9 109-29l48-26c17-9 34-14 51-14 32 0 63 17 85 50l80-65c-37-71-100-110-171-110-36 0-74 10-111 30z"/><glyph glyph-name="uni00A0" horiz-adv-x="246"/><glyph glyph-name="exclamdown" unicode="¡" horiz-adv-x="315" d="M213 281l35-487H66l35 487h112zM71 426c0 48 38 86 86 86s87-38 87-86c0-47-39-86-87-86s-86 39-86 86z"/><glyph glyph-name="cent" unicode="¢" horiz-adv-x="553" d="M341 0H226v84C117 110 37 200 37 319c0 121 80 212 189 237v93h115v-91c97-18 155-85 173-155l-129-38c-11 35-39 69-96 69-59 0-108-41-108-115 0-72 50-113 110-113 57 0 88 34 98 68l128-37c-18-70-79-138-176-156V0z"/><glyph glyph-name="sterling" unicode="£" horiz-adv-x="592" d="M59 383h57c-8 24-13 51-13 84 0 98 80 197 220 197 159 0 213-110 214-193l-132-19c-1 53-28 88-80 88-40 0-77-25-77-78 0-30 7-53 17-79h176V273H300c1-6 1-12 1-18 0-47-17-95-62-125h131c42 0 74 29 74 74l132-8C576 83 501 0 390 0H56v118c63 22 104 63 104 122 0 11-2 22-4 33H59v110z"/><glyph glyph-name="currency" unicode="¤" horiz-adv-x="589" d="M77 248c0 37 9 71 25 101l-71 72 91 90 74-74c30 15 63 23 99 23 35 0 71-8 98-23l74 74 91-90-71-72c16-27 26-64 26-101 0-38-10-72-26-102l71-70-91-91-73 74c-30-15-64-23-99-23-36 0-69 8-99 23l-74-74-91 91 72 71c-16 27-26 64-26 101zm125 0c0-53 38-91 93-91s93 38 93 91-38 91-93 91-93-38-93-91z"/><glyph glyph-name="yen" unicode="¥" horiz-adv-x="631" d="M569 125H387V0H241v125H69v106h172v63H69v106h98L21 649h169l129-236 129 236h162L461 400h108V294H387v-63h182V125z"/><glyph glyph-name="brokenbar" unicode="¦" horiz-adv-x="279" d="M77 823h126V425H77v398zm0-588h126v-398H77v398z"/><glyph glyph-name="section" unicode="§" horiz-adv-x="555" d="M494 257c0-62-34-102-73-126 48-37 72-87 72-140 0-121-107-197-216-197-131 0-213 75-219 188L201 4c0-58 34-80 76-80 38 0 63 24 63 57 0 20-13 41-36 51L203 83c-75 38-142 85-142 177 0 63 33 103 73 126-48 38-71 88-71 142 0 120 106 196 216 196 130 0 213-76 218-188l-143-22c0 59-33 80-75 80-39 0-64-25-64-57 0-20 13-40 36-50l101-52c75-39 142-84 142-178zm-170 25l-102 54c-14-13-24-28-24-45 0-25 7-41 33-55l102-54c13 12 25 27 25 45 0 23-8 41-34 55z"/><glyph glyph-name="dieresis" unicode="¨" horiz-adv-x="418" d="M22 632c0 43 33 77 76 77s77-34 77-77-34-76-77-76-76 33-76 76zm221 0c0 43 33 77 76 77s77-34 77-77-34-76-77-76-76 33-76 76z"/><glyph glyph-name="copyright" unicode="©" horiz-adv-x="813" d="M125 354c0-161 122-288 281-288s282 127 282 288-123 289-282 289-281-128-281-289zm-89 0c0 204 166 371 370 371s371-167 371-371S610-16 406-16 36 150 36 354zm375 88c-46 0-83-32-83-91 0-58 38-90 85-90 43 0 67 27 75 54l99-30c-17-64-77-127-174-127-109 0-196 80-196 193 0 114 85 194 192 194 101 0 159-62 175-127l-99-30c-8 28-30 54-74 54z"/><glyph glyph-name="ordfeminine" unicode="ª" horiz-adv-x="422" d="M50 397c0 61 47 96 104 105l81 12c18 3 25 12 25 24 0 19-17 35-49 35-36 0-56-25-58-49l-96 20c5 47 49 116 155 116 114 0 156-64 156-136V354c0-26 3-47 4-54H272c-1 5-3 18-3 38-19-30-52-48-97-48-77 0-122 51-122 107zm150-28c29 0 60 15 60 67v15l-62-10c-22-3-38-14-38-37 0-18 11-35 40-35z"/><glyph glyph-name="guillemotleft" unicode="«" horiz-adv-x="550" d="M306 102H164L26 297l140 200h141L168 296zm228 0H391L253 297l140 200h142L396 296z"/><glyph glyph-name="logicalnot" unicode="¬" horiz-adv-x="599" d="M548 129H418v195H45v125h503V129z"/><glyph glyph-name="uni00AD" unicode="­" horiz-adv-x="390" d="M345 233H45v137h300V233z"/><glyph glyph-name="registered" unicode="®" horiz-adv-x="813" d="M36 354c0 204 166 371 370 371s371-167 371-371S610-16 406-16 36 150 36 354zm89 0c0-161 122-288 281-288s282 127 282 288-123 289-282 289-281-128-281-289zm338-197l-61 134h-30V157H268v398h167c77 0 137-58 137-131 0-51-29-94-71-115l76-152H463zm-91 218h43c32 0 52 19 52 48 0 30-20 48-52 48h-43v-96z"/><glyph glyph-name="macron" unicode="¯" horiz-adv-x="330" d="M308 577H22v105h286V577z"/><glyph glyph-name="degree" unicode="°" horiz-adv-x="374" d="M126 498c0-40 26-66 61-66s60 27 60 66c0 38-25 64-60 64s-61-26-61-64zm-108 0c0 93 77 166 169 166s169-73 169-166c0-96-77-166-170-166S18 405 18 498z"/><glyph glyph-name="plusminus" unicode="±" horiz-adv-x="605" d="M61 438h177v117h128V438h178V314H366V198H238v116H61v124zm0-274h483V40H61v124z"/><glyph glyph-name="twosuperior" unicode="²" horiz-adv-x="396" d="M154 563H54c-2 8-4 19-4 27 0 68 49 128 149 128 94 0 148-57 148-125 0-48-31-83-84-114l-67-39c-3-2-5-3-5-5h159v-95H48v13c0 68 22 123 91 162l60 34c23 13 36 28 36 45 0 13-9 34-39 34s-45-22-45-48c0-9 2-15 3-17z"/><glyph glyph-name="threesuperior" unicode="³" horiz-adv-x="411" d="M47 452l103 18c1-25 21-46 52-46 29 0 47 16 47 37 0 28-22 40-46 40-10 0-20-2-29-6l-35 75 79 47H60v92h291v-93l-85-51c63-10 98-50 98-107 0-66-60-127-162-127-93 0-150 60-155 121z"/><glyph glyph-name="acute" unicode="´" horiz-adv-x="306" d="M284 707L143 556H22l92 151h170z"/><glyph glyph-name="mu" unicode="µ" horiz-adv-x="606" d="M394 0c-2 9-4 37-4 50-26-43-83-61-133-61-13 0-25 1-37 3v-182H68v687h152V215c0-48 26-86 80-86 51 0 83 35 83 85v283h152V89c0-45 4-80 5-89H394z"/><glyph glyph-name="paragraph" unicode="¶" horiz-adv-x="686" d="M363 597v-788H248v482h-18c-113 0-208 90-208 205 0 138 111 213 243 213h410V597h-97v-788H461v788h-98z"/><glyph glyph-name="periodcentered" unicode="·" horiz-adv-x="293" d="M57 322c0 51 42 91 94 91s94-40 94-91c0-53-42-92-94-92s-94 39-94 92z"/><glyph glyph-name="cedilla" unicode="¸" horiz-adv-x="299" d="M120-112L83-63l48 75h90l-40-61c59-2 97-38 97-88 0-45-34-98-133-98-58 0-106 31-124 55l47 59c15-15 40-38 76-38 24 0 38 9 38 26 0 13-13 25-35 25-8 0-19-1-27-4z"/><glyph glyph-name="onesuperior" unicode="¹" horiz-adv-x="307" d="M241 341H126v212H32v74c70 0 101 47 108 82h101V341z"/><glyph glyph-name="ordmasculine" unicode="º" horiz-adv-x="482" d="M241 392c39 0 76 26 76 83s-37 83-76 83c-38 0-75-26-75-83 0-56 37-83 75-83zm0 268c104 0 186-77 186-185 0-109-82-185-186-185S55 366 55 475c0 108 82 185 186 185z"/><glyph glyph-name="guillemotright" unicode="»" horiz-adv-x="550" d="M386 102H244l138 194-139 201h142l140-200zm-227 0H16l139 194L16 497h141l140-200z"/><glyph glyph-name="onequarter" unicode="¼" horiz-adv-x="822" d="M251 281H136v212H42v74c70 0 101 47 108 82h101V281zM441 71v112l164 186h121V156h59V71h-59V0H615v71H441zm174 85v102l-91-102h91zM233 0H105l454 649h129z"/><glyph glyph-name="onehalf" unicode="½" horiz-adv-x="849" d="M251 281H136v212H42v74c70 0 101 47 108 82h101V281zM232 0H104l454 649h129zm376 223H508c-2 8-4 19-4 27 0 68 49 128 149 128 94 0 148-57 148-125 0-48-31-83-84-114l-67-39c-3-2-5-3-5-5h159V0H502v13c0 68 22 123 91 162l60 34c23 13 36 28 36 45 0 13-9 34-39 34s-45-22-45-48c0-9 2-15 3-17z"/><glyph glyph-name="threequarters" unicode="¾" horiz-adv-x="901" d="M47 392l103 18c1-25 21-46 52-46 29 0 47 16 47 37 0 28-22 40-46 40-10 0-20-2-29-6l-35 75 79 47H60v92h291v-93l-85-51c63-10 98-50 98-107 0-66-60-127-162-127-93 0-150 60-155 121zM520 71v112l164 186h121V156h59V71h-59V0H694v71H520zm174 85v102l-91-102h91zM314 0H186l454 649h129z"/><glyph glyph-name="questiondown" unicode="¿" horiz-adv-x="499" d="M203 282h119c2-14 4-28 4-44 0-47-17-98-74-141l-50-38c-27-21-37-45-37-70 0-39 29-75 89-75 61 0 92 44 92 94 0 13-2 26-5 38l143-12c3-14 4-29 4-43 0-122-97-212-234-212C91-221 11-123 11-23c0 80 37 136 95 180l38 28c36 27 59 54 59 97zm-28 145c0 48 39 86 86 86 48 0 86-38 86-86 0-47-38-86-86-86-47 0-86 39-86 86z"/><glyph glyph-name="Agrave" unicode="À" horiz-adv-x="734" d="M552 0l-51 144H227L176 0H10l267 709h183L724 0H552zM366 533l-87-245h172zm-52 226L164 891h181l104-132H314z"/><glyph glyph-name="Aacute" unicode="Á" horiz-adv-x="734" d="M552 0l-51 144H227L176 0H10l267 709h183L724 0H552zM366 533l-87-245h172zm210 358L426 759H291l104 132h181z"/><glyph glyph-name="Acircumflex" unicode="Â" horiz-adv-x="734" d="M552 0l-51 144H227L176 0H10l267 709h183L724 0H552zM366 533l-87-245h172zm-61 226H170l122 132h145l124-132H420l-58 65z"/><glyph glyph-name="Atilde" unicode="Ã" horiz-adv-x="734" d="M552 0l-51 144H227L176 0H10l267 709h183L724 0H552zM366 533l-87-245h172zm169 362v-34c0-73-49-110-104-110-31 0-57 12-79 25l-5 3c-18 11-33 20-47 20-13 0-26-9-26-29v-13h-87v33c0 73 49 108 103 108 32 0 57-11 79-24 20-11 37-22 52-22s27 9 27 29v14h87z"/><glyph glyph-name="Adieresis" unicode="Ä" horiz-adv-x="734" d="M120 824c0 45 34 80 78 80 45 0 80-35 80-80 0-44-35-77-80-77-44 0-78 33-78 77zm333 0c0 45 33 80 78 80 44 0 79-35 79-80 0-44-35-77-79-77-45 0-78 33-78 77zM552 0l-51 144H227L176 0H10l267 709h183L724 0H552zM366 533l-87-245h172z"/><glyph glyph-name="Aring" unicode="Å" horiz-adv-x="734" d="M413 757c0 31-22 49-47 49-27 0-49-18-49-49s22-48 49-48c25 0 47 17 47 48zm-47-226l-87-243h172zM552 0l-51 144H227L176 0H10l250 664c-23 24-37 56-37 93 0 81 67 138 142 138s142-57 142-138c0-35-12-65-32-88L724 0H552z"/><glyph glyph-name="AE" unicode="Æ" horiz-adv-x="1076" d="M1021 0H570v153H296L199 0H10l468 709h542V560H728V425h265V286H728V150h293V0zM379 282h191v299z"/><glyph glyph-name="Ccedilla" unicode="Ç" horiz-adv-x="772" d="M369-112l-37 49 32 50C179 5 36 146 36 353c0 221 168 371 366 371 213 0 307-137 330-239l-149-47c-11 49-56 132-181 132-95 0-202-68-202-217 0-133 98-210 204-210 123 0 172 82 186 133l151-43C720 143 638 8 454-12l-24-37c59-2 97-38 97-88 0-45-34-98-133-98-58 0-106 31-124 55l47 59c15-15 40-38 76-38 24 0 38 9 38 26 0 13-13 25-35 25-8 0-19-1-27-4z"/><glyph glyph-name="Egrave" unicode="È" horiz-adv-x="583" d="M267 759L117 891h181l104-132H267zM527 0H77v709h449V560H235V425h264V286H235V150h292V0z"/><glyph glyph-name="Eacute" unicode="É" horiz-adv-x="583" d="M489 891L339 759H204l104 132h181zM527 0H77v709h449V560H235V425h264V286H235V150h292V0z"/><glyph glyph-name="Ecircumflex" unicode="Ê" horiz-adv-x="583" d="M239 759H104l122 132h145l124-132H354l-58 65zM527 0H77v709h449V560H235V425h264V286H235V150h292V0z"/><glyph glyph-name="Edieresis" unicode="Ë" horiz-adv-x="583" d="M114 824c0 45 34 80 78 80 45 0 80-35 80-80 0-44-35-77-80-77-44 0-78 33-78 77zm216 0c0 45 34 80 78 80 45 0 80-35 80-80 0-44-35-77-80-77-44 0-78 33-78 77zM527 0H77v709h449V560H235V425h264V286H235V150h292V0z"/><glyph glyph-name="Igrave" unicode="Ì" horiz-adv-x="313" d="M237 0H77v709h160V0zM100 759L-50 891h181l104-132H100z"/><glyph glyph-name="Iacute" unicode="Í" horiz-adv-x="313" d="M237 0H77v709h160V0zm126 891L213 759H78l104 132h181z"/><glyph glyph-name="Icircumflex" unicode="Î" horiz-adv-x="313" d="M237 0H77v709h160V0zM98 759H-37L85 891h145l124-132H213l-58 65z"/><glyph glyph-name="Idieresis" unicode="Ï" horiz-adv-x="313" d="M-24 824c0 45 33 80 77 80 45 0 79-35 79-80 0-44-34-77-79-77-44 0-77 33-77 77zm207 0c0 45 33 80 77 80 45 0 79-35 79-80 0-44-34-77-79-77-44 0-77 33-77 77zM237 0H77v709h160V0z"/><glyph glyph-name="Eth" unicode="Ð" horiz-adv-x="759" d="M365 0H109v310H15v111h94v288h257c213 0 356-136 356-355S579 0 365 0zm-98 149h92c109 0 198 63 198 205s-89 206-198 206h-92V421h144V310H267V149z"/><glyph glyph-name="Ntilde" unicode="Ñ" horiz-adv-x="769" d="M562 895v-34c0-73-49-110-104-110-31 0-57 12-79 25l-5 3c-18 11-33 20-47 20-13 0-26-9-26-29v-13h-87v33c0 73 49 108 103 108 32 0 57-11 79-24 20-11 37-22 52-22s27 9 27 29v14h87zM693 0H526L234 466V0H77v709h192l266-431v431h158V0z"/><glyph glyph-name="Ograve" unicode="Ò" horiz-adv-x="809" d="M338 759L188 891h181l104-132H338zM200 355c0-148 106-214 205-214 98 0 204 66 204 214S503 570 405 570c-99 0-205-67-205-215zm-164-1c0 225 169 370 369 370 199 0 368-145 368-370 0-224-169-369-368-369C205-15 36 130 36 354z"/><glyph glyph-name="Oacute" unicode="Ó" horiz-adv-x="809" d="M610 891L460 759H325l104 132h181zM200 355c0-148 106-214 205-214 98 0 204 66 204 214S503 570 405 570c-99 0-205-67-205-215zm-164-1c0 225 169 370 369 370 199 0 368-145 368-370 0-224-169-369-368-369C205-15 36 130 36 354z"/><glyph glyph-name="Ocircumflex" unicode="Ô" horiz-adv-x="809" d="M344 759H209l122 132h145l124-132H459l-58 65zM200 355c0-148 106-214 205-214 98 0 204 66 204 214S503 570 405 570c-99 0-205-67-205-215zm-164-1c0 225 169 370 369 370 199 0 368-145 368-370 0-224-169-369-368-369C205-15 36 130 36 354z"/><glyph glyph-name="Otilde" unicode="Õ" horiz-adv-x="809" d="M573 895v-34c0-73-49-110-104-110-31 0-57 12-79 25l-5 3c-18 11-33 20-47 20-13 0-26-9-26-29v-13h-87v33c0 73 49 108 103 108 32 0 57-11 79-24 20-11 37-22 52-22s27 9 27 29v14h87zM200 355c0-148 106-214 205-214 98 0 204 66 204 214S503 570 405 570c-99 0-205-67-205-215zm-164-1c0 225 169 370 369 370 199 0 368-145 368-370 0-224-169-369-368-369C205-15 36 130 36 354z"/><glyph glyph-name="Odieresis" unicode="Ö" horiz-adv-x="809" d="M150 824c0 45 33 80 78 80 44 0 79-35 79-80 0-44-35-77-79-77-45 0-78 33-78 77zm353 0c0 45 33 80 78 80s80-35 80-80c0-44-35-77-80-77s-78 33-78 77zM200 355c0-148 106-214 205-214 98 0 204 66 204 214S503 570 405 570c-99 0-205-67-205-215zm-164-1c0 225 169 370 369 370 199 0 368-145 368-370 0-224-169-369-368-369C205-15 36 130 36 354z"/><glyph glyph-name="multiply" unicode="×" horiz-adv-x="580" d="M454 43L290 208 126 43l-90 92 163 164L36 464l90 90 164-165 164 165 90-90-164-165 164-164z"/><glyph glyph-name="Oslash" unicode="Ø" horiz-adv-x="809" d="M36 354c0 225 169 370 369 370 63 0 123-15 175-42l70 90 96-74-69-89c59-63 96-151 96-255 0-224-169-369-368-369-64 0-125 15-178 42l-69-89-98 73 70 90c-58 63-94 150-94 253zm573 1c0 50-12 92-33 124L326 155c25-10 52-14 79-14 98 0 204 66 204 214zm-409 0c0-50 12-90 32-122l250 322c-25 10-51 15-77 15-99 0-205-67-205-215z"/><glyph glyph-name="Ugrave" unicode="Ù" horiz-adv-x="704" d="M300 759L150 891h181l104-132H300zm52-775C196-16 71 78 71 256v453h158V269c0-86 48-129 123-129s123 43 123 129v440h158V256C633 78 508-16 352-16z"/><glyph glyph-name="Uacute" unicode="Ú" horiz-adv-x="704" d="M545 891L395 759H260l104 132h181zM352-16C196-16 71 78 71 256v453h158V269c0-86 48-129 123-129s123 43 123 129v440h158V256C633 78 508-16 352-16z"/><glyph glyph-name="Ucircumflex" unicode="Û" horiz-adv-x="704" d="M292 759H157l122 132h145l124-132H407l-58 65zm60-775C196-16 71 78 71 256v453h158V269c0-86 48-129 123-129s123 43 123 129v440h158V256C633 78 508-16 352-16z"/><glyph glyph-name="Udieresis" unicode="Ü" horiz-adv-x="704" d="M152 824c0 45 33 80 78 80s80-35 80-80c0-44-35-77-80-77s-78 33-78 77zm245 0c0 45 33 80 77 80 45 0 80-35 80-80 0-44-35-77-80-77-44 0-77 33-77 77zM352-16C196-16 71 78 71 256v453h158V269c0-86 48-129 123-129s123 43 123 129v440h158V256C633 78 508-16 352-16z"/><glyph glyph-name="Yacute" unicode="Ý" horiz-adv-x="673" d="M256 296L10 709h185l145-263 147 263h176L414 296V0H256v296zm284 595L390 759H255l104 132h181z"/><glyph glyph-name="Thorn" unicode="Þ" horiz-adv-x="610" d="M236 264h92c60 0 99 37 99 92 0 57-39 93-99 93h-92V264zm104-134H235V0H77v709h158V584h105c139 0 245-98 245-227 0-130-106-227-245-227z"/><glyph glyph-name="germandbls" unicode="ß" horiz-adv-x="611" d="M424 343c1-15 10-21 31-29l28-11c71-28 117-84 117-157 0-68-53-161-186-161-122 0-170 87-171 145l119 20c1-22 14-52 53-52 27 0 44 18 44 39s-12 35-47 48l-26 10c-52 19-113 57-113 135 0 70 41 102 69 121l15 10c29 19 44 38 44 65 0 31-24 64-87 64-50 0-99-31-99-118V0H67v483c0 169 120 241 247 241 148 0 237-87 237-190 0-78-41-121-88-150l-16-10c-15-10-23-17-23-31z"/><glyph glyph-name="agrave" unicode="à" horiz-adv-x="546" d="M37 137c0 88 65 138 147 150l117 18c27 4 36 17 36 34 0 29-25 54-73 54-53 0-82-36-85-73L47 347c6 71 72 165 218 165 161 0 220-90 220-192V77c0-39 5-72 6-77H354c-1 4-5 22-5 56-26-42-74-70-140-70C100-14 37 58 37 137zm209-41c45 0 91 22 91 99v22l-94-15c-32-5-56-20-56-55 0-26 17-51 59-51zm-23 460L81 707h173l93-151H223z"/><glyph glyph-name="aacute" unicode="á" horiz-adv-x="546" d="M37 137c0 88 65 138 147 150l117 18c27 4 36 17 36 34 0 29-25 54-73 54-53 0-82-36-85-73L47 347c6 71 72 165 218 165 161 0 220-90 220-192V77c0-39 5-72 6-77H354c-1 4-5 22-5 56-26-42-74-70-140-70C100-14 37 58 37 137zm209-41c45 0 91 22 91 99v22l-94-15c-32-5-56-20-56-55 0-26 17-51 59-51zm206 611L311 556H190l92 151h170z"/><glyph glyph-name="acircumflex" unicode="â" horiz-adv-x="546" d="M37 137c0 88 65 138 147 150l117 18c27 4 36 17 36 34 0 29-25 54-73 54-53 0-82-36-85-73L47 347c6 71 72 165 218 165 161 0 220-90 220-192V77c0-39 5-72 6-77H354c-1 4-5 22-5 56-26-42-74-70-140-70C100-14 37 58 37 137zm209-41c45 0 91 22 91 99v22l-94-15c-32-5-56-20-56-55 0-26 17-51 59-51zm-52 460H81l113 151h143l114-151H335l-71 71z"/><glyph glyph-name="atilde" unicode="ã" horiz-adv-x="546" d="M37 137c0 88 65 138 147 150l117 18c27 4 36 17 36 34 0 29-25 54-73 54-53 0-82-36-85-73L47 347c6 71 72 165 218 165 161 0 220-90 220-192V77c0-39 5-72 6-77H354c-1 4-5 22-5 56-26-42-74-70-140-70C100-14 37 58 37 137zm209-41c45 0 91 22 91 99v22l-94-15c-32-5-56-20-56-55 0-26 17-51 59-51zm208 610v-20c0-88-47-130-112-130-30 0-53 11-76 23-20 10-37 21-56 21-20 0-33-13-34-43H90v23c0 86 50 127 113 127 31 0 54-11 76-23 20-12 37-22 55-22 22 0 34 15 35 44h85z"/><glyph glyph-name="adieresis" unicode="ä" horiz-adv-x="546" d="M37 137c0 88 65 138 147 150l117 18c27 4 36 17 36 34 0 29-25 54-73 54-53 0-82-36-85-73L47 347c6 71 72 165 218 165 161 0 220-90 220-192V77c0-39 5-72 6-77H354c-1 4-5 22-5 56-26-42-74-70-140-70C100-14 37 58 37 137zm209-41c45 0 91 22 91 99v22l-94-15c-32-5-56-20-56-55 0-26 17-51 59-51zM81 632c0 43 33 77 76 77s77-34 77-77-34-76-77-76-76 33-76 76zm221 0c0 43 33 77 76 77s77-34 77-77-34-76-77-76-76 33-76 76z"/><glyph glyph-name="aring" unicode="å" horiz-adv-x="546" d="M37 137c0 88 65 138 147 150l117 18c27 4 36 17 36 34 0 29-25 54-73 54-53 0-82-36-85-73L47 347c6 71 72 165 218 165 161 0 220-90 220-192V77c0-39 5-72 6-77H354c-1 4-5 22-5 56-26-42-74-70-140-70C100-14 37 58 37 137zm209-41c45 0 91 22 91 99v22l-94-15c-32-5-56-20-56-55 0-26 17-51 59-51zm131 564c0-66-54-111-116-111s-116 45-116 111 54 113 116 113 116-47 116-113zm-79 0c0 23-16 38-37 38s-37-15-37-38 16-38 37-38 37 15 37 38z"/><glyph glyph-name="ae" unicode="æ" horiz-adv-x="870" d="M699 181l126-38C800 57 719-15 594-15c-73 0-139 28-185 79-36-42-96-79-180-79C102-15 37 56 37 137c0 88 65 138 147 150l120 18c28 4 37 17 37 34 0 29-25 54-74 54-56 0-85-36-89-73L47 347c6 71 74 165 221 165 80 0 133-22 165-57 44 36 99 57 157 57 152 0 244-95 244-255 0-21-2-44-3-47H482c4-60 55-97 114-97 56 0 88 28 103 68zM248 96c44 0 93 22 93 99v22l-98-15c-32-5-57-21-57-56 0-24 20-50 62-50zm237 212h202c-2 38-28 84-102 84-65 0-97-47-100-84z"/><glyph glyph-name="ccedilla" unicode="ç" horiz-adv-x="561" d="M296 372c-63 0-114-44-114-124 0-79 53-123 116-123 59 0 92 37 103 74l134-41C515 82 450 6 345-11l-25-38c59-2 97-38 97-88 0-45-34-98-133-98-58 0-106 31-124 55l47 59c15-15 40-38 76-38 24 0 38 9 38 26 0 13-13 25-35 25-8 0-19-1-27-4l-37 49 33 51C128 7 31 109 31 248c0 155 116 264 262 264 137 0 217-84 239-173l-136-41c-11 38-41 74-100 74z"/><glyph glyph-name="egrave" unicode="è" horiz-adv-x="559" d="M182 308h199c-2 38-28 84-100 84-64 0-96-47-99-84zm210-129l127-36C495 57 416-15 290-15 153-15 31 83 31 250c0 160 119 262 248 262 154 0 249-95 249-255 0-21-2-44-3-47H179c3-56 54-96 113-96 55 0 86 26 100 65zM235 556L93 707h173l93-151H235z"/><glyph glyph-name="eacute" unicode="é" horiz-adv-x="559" d="M470 707L329 556H208l92 151h170zM182 308h199c-2 38-28 84-100 84-64 0-96-47-99-84zm210-129l127-36C495 57 416-15 290-15 153-15 31 83 31 250c0 160 119 262 248 262 154 0 249-95 249-255 0-21-2-44-3-47H179c3-56 54-96 113-96 55 0 86 26 100 65z"/><glyph glyph-name="ecircumflex" unicode="ê" horiz-adv-x="559" d="M211 556H98l113 151h143l114-151H352l-71 71zm-29-248h199c-2 38-28 84-100 84-64 0-96-47-99-84zm210-129l127-36C495 57 416-15 290-15 153-15 31 83 31 250c0 160 119 262 248 262 154 0 249-95 249-255 0-21-2-44-3-47H179c3-56 54-96 113-96 55 0 86 26 100 65z"/><glyph glyph-name="edieresis" unicode="ë" horiz-adv-x="559" d="M97 632c0 43 33 77 76 77s77-34 77-77-34-76-77-76-76 33-76 76zm221 0c0 43 33 77 76 77s77-34 77-77-34-76-77-76-76 33-76 76zM182 308h199c-2 38-28 84-100 84-64 0-96-47-99-84zm210-129l127-36C495 57 416-15 290-15 153-15 31 83 31 250c0 160 119 262 248 262 154 0 249-95 249-255 0-21-2-44-3-47H179c3-56 54-96 113-96 55 0 86 26 100 65z"/><glyph glyph-name="igrave" unicode="ì" horiz-adv-x="285" d="M219 0H67v497h152V0zM89 556L-53 707h173l93-151H89z"/><glyph glyph-name="iacute" unicode="í" horiz-adv-x="285" d="M331 707L190 556H69l92 151h170zM219 0H67v497h152V0z"/><glyph glyph-name="icircumflex" unicode="î" horiz-adv-x="285" d="M71 556H-42L71 707h143l114-151H212l-71 71zM219 0H67v497h152V0z"/><glyph glyph-name="idieresis" unicode="ï" horiz-adv-x="285" d="M-33 632c0 42 33 76 76 76 42 0 76-34 76-76 0-43-34-76-76-76-43 0-76 33-76 76zm199 0c0 42 33 76 75 76 43 0 77-34 77-76 0-43-34-76-77-76-42 0-75 33-75 76zM219 0H67v497h152V0z"/><glyph glyph-name="eth" unicode="ð" d="M530 613l-75-29c64-77 101-178 101-299 0-157-85-300-263-300C146-15 31 89 31 231c0 154 127 230 246 230 38 0 86-12 105-33-12 41-34 75-61 104l-139-53-34 88 83 33c-36 20-74 34-109 44l46 112c80-20 154-54 211-98l116 45zM293 122c58 0 112 39 112 110 0 75-54 112-112 112-56 0-111-39-111-111 0-70 55-111 111-111z"/><glyph glyph-name="ntilde" unicode="ñ" horiz-adv-x="595" d="M219 285V0H67v497h147v-57c27 47 88 70 139 70 125 0 181-89 181-198V0H382v286c0 49-26 86-81 86-50 0-82-37-82-87zm267 421v-20c0-88-47-130-112-130-30 0-53 11-76 23-20 10-37 21-56 21-20 0-33-13-34-43h-86v23c0 86 50 127 113 127 31 0 54-11 76-23 20-12 37-22 55-22 22 0 34 15 35 44h85z"/><glyph glyph-name="ograve" unicode="ò" horiz-adv-x="590" d="M295 125c58 0 112 40 112 124s-54 123-112 123c-57 0-112-39-112-123 0-83 55-124 112-124zm0 387c149 0 264-109 264-263S444-15 295-15C147-15 31 95 31 249s116 263 264 263zm-54 44L99 707h173l93-151H241z"/><glyph glyph-name="oacute" unicode="ó" horiz-adv-x="590" d="M484 707L343 556H222l92 151h170zM295 125c58 0 112 40 112 124s-54 123-112 123c-57 0-112-39-112-123 0-83 55-124 112-124zm0 387c149 0 264-109 264-263S444-15 295-15C147-15 31 95 31 249s116 263 264 263z"/><glyph glyph-name="ocircumflex" unicode="ô" horiz-adv-x="590" d="M225 556H112l113 151h143l114-151H366l-71 71zm70-431c58 0 112 40 112 124s-54 123-112 123c-57 0-112-39-112-123 0-83 55-124 112-124zm0 387c149 0 264-109 264-263S444-15 295-15C147-15 31 95 31 249s116 263 264 263z"/><glyph glyph-name="otilde" unicode="õ" horiz-adv-x="590" d="M295 125c58 0 112 40 112 124s-54 123-112 123c-57 0-112-39-112-123 0-83 55-124 112-124zm0 387c149 0 264-109 264-263S444-15 295-15C147-15 31 95 31 249s116 263 264 263zm184 194v-20c0-88-47-130-112-130-30 0-53 11-76 23-20 10-37 21-56 21-20 0-33-13-34-43h-86v23c0 86 50 127 113 127 31 0 54-11 76-23 20-12 37-22 55-22 22 0 34 15 35 44h85z"/><glyph glyph-name="odieresis" unicode="ö" horiz-adv-x="590" d="M108 632c0 43 33 77 76 77s77-34 77-77-34-76-77-76-76 33-76 76zm221 0c0 43 33 77 76 77s77-34 77-77-34-76-77-76-76 33-76 76zm-34-507c58 0 112 40 112 124s-54 123-112 123c-57 0-112-39-112-123 0-83 55-124 112-124zm0 387c149 0 264-109 264-263S444-15 295-15C147-15 31 95 31 249s116 263 264 263z"/><glyph glyph-name="divide" unicode="÷" horiz-adv-x="597" d="M210 113c0 46 38 84 85 84 46 0 84-38 84-84s-38-85-84-85c-47 0-85 39-85 85zm0 372c0 46 38 84 85 84 46 0 84-38 84-84s-38-85-84-85c-47 0-85 39-85 85zM46 236v125h505V236H46z"/><glyph glyph-name="oslash" unicode="ø" horiz-adv-x="590" d="M295 512c50 0 96-12 135-34l54 65 68-57-53-64c38-45 60-105 60-173C559 95 444-15 295-15c-48 0-92 12-130 32l-51-62-69 57 50 60c-40 46-64 107-64 177 0 154 116 263 264 263zM183 249c0-22 4-41 10-57l143 172c-13 5-27 8-41 8-57 0-112-39-112-123zm112-124c58 0 112 40 112 124 0 19-3 36-8 51L259 131c11-4 23-6 36-6z"/><glyph glyph-name="ugrave" unicode="ù" horiz-adv-x="596" d="M388 0c-2 9-4 37-4 50-26-43-83-61-133-61C130-11 62 77 62 183v314h152V215c0-48 26-86 80-86 51 0 83 35 83 85v283h152V89c0-45 4-81 5-89H388zM259 556L117 707h173l93-151H259z"/><glyph glyph-name="uacute" unicode="ú" horiz-adv-x="596" d="M467 707L326 556H205l92 151h170zM388 0c-2 9-4 37-4 50-26-43-83-61-133-61C130-11 62 77 62 183v314h152V215c0-48 26-86 80-86 51 0 83 35 83 85v283h152V89c0-45 4-81 5-89H388z"/><glyph glyph-name="ucircumflex" unicode="û" horiz-adv-x="596" d="M226 556H113l113 151h143l114-151H367l-71 71zM388 0c-2 9-4 37-4 50-26-43-83-61-133-61C130-11 62 77 62 183v314h152V215c0-48 26-86 80-86 51 0 83 35 83 85v283h152V89c0-45 4-81 5-89H388z"/><glyph glyph-name="udieresis" unicode="ü" horiz-adv-x="596" d="M113 632c0 43 33 77 76 77s77-34 77-77-34-76-77-76-76 33-76 76zm221 0c0 43 33 77 76 77s77-34 77-77-34-76-77-76-76 33-76 76zM388 0c-2 9-4 37-4 50-26-43-83-61-133-61C130-11 62 77 62 183v314h152V215c0-48 26-86 80-86 51 0 83 35 83 85v283h152V89c0-45 4-81 5-89H388z"/><glyph glyph-name="yacute" unicode="ý" horiz-adv-x="578" d="M262-191H102L215 67 6 497h170l121-266 110 266h161zm207 898L328 556H207l92 151h170z"/><glyph glyph-name="thorn" unicode="þ" horiz-adv-x="622" d="M219-190H67v914h152V452c23 30 75 57 141 57 144 0 231-110 231-259 0-152-98-261-237-261-64 0-112 22-135 50v-229zm223 439c0 83-53 123-113 123-59 0-112-40-112-123 0-82 53-124 112-124 60 0 113 41 113 124z"/><glyph glyph-name="ydieresis" unicode="ÿ" horiz-adv-x="578" d="M262-191H102L215 67 6 497h170l121-266 110 266h161zM105 632c0 43 33 77 76 77s77-34 77-77-34-76-77-76-76 33-76 76zm221 0c0 43 33 77 76 77s77-34 77-77-34-76-77-76-76 33-76 76z"/><glyph glyph-name="dotlessi" unicode="ı" horiz-adv-x="285" d="M219 0H67v497h152V0z"/><glyph glyph-name="Lslash" unicode="Ł" horiz-adv-x="594" d="M569 0H105v244l-91-42v123l91 42v342h158V440l161 74V392l-161-75V151h306V0z"/><glyph glyph-name="lslash" unicode="ł" horiz-adv-x="347" d="M249 0H97v250l-83-38v123l83 38v351h152V443l84 39V360l-84-39V0z"/><glyph glyph-name="OE" unicode="Œ" horiz-adv-x="1116" d="M200 355c0-148 106-214 205-214 98 0 204 66 204 214S503 570 405 570c-99 0-205-67-205-215zM1060 0H609v60c-49-49-115-75-204-75C205-15 36 130 36 354c0 225 169 370 369 370 89 0 157-27 204-75v60h450V560H768V425h264V286H768V150h292V0z"/><glyph glyph-name="oe" unicode="œ" horiz-adv-x="937" d="M560 308h199c-2 38-28 84-100 84-64 0-96-47-99-84zM295 125c58 0 112 40 112 124s-54 123-112 123c-57 0-112-39-112-123 0-83 55-124 112-124zm0 387c74 0 140-27 187-73 46 47 109 73 175 73 154 0 249-95 249-255 0-21-2-44-3-47H557c3-56 54-96 113-96 55 0 86 26 100 65l127-36C873 57 794-15 668-15c-71 0-138 26-186 74-47-46-113-74-187-74C147-15 31 95 31 249s116 263 264 263z"/><glyph glyph-name="Scaron" unicode="Š" horiz-adv-x="609" d="M116 891h140l58-65 58 65h135L384 759H239zm449-356l-142-40c-5 33-32 89-118 89-59 0-97-37-97-76 0-34 21-59 70-68l95-18c135-25 205-112 205-213 0-111-93-224-262-224C120-15 36 112 26 212l145 35c6-65 50-122 147-122 62 0 100 30 100 74 0 36-29 62-76 71l-97 18C125 311 52 391 52 496c0 134 118 228 254 228 177 0 244-106 259-189z"/><glyph glyph-name="scaron" unicode="š" horiz-adv-x="466" d="M48 707h116l71-72 70 72h113L306 556H161zM26 141l129 23c2-34 26-67 78-67 39 0 58 21 58 43 0 18-12 33-49 41l-57 13C79 217 37 277 37 347c0 91 80 165 191 165 144 0 194-90 199-148l-126-23c-4 33-25 61-71 61-29 0-54-17-54-43 0-21 17-33 39-37l66-13c103-21 153-83 153-156 0-85-65-168-198-168C80-15 30 86 26 141z"/><glyph glyph-name="Ydieresis" unicode="Ÿ" horiz-adv-x="673" d="M139 824c0 45 33 80 78 80s80-35 80-80c0-44-35-77-80-77s-78 33-78 77zm245 0c0 45 33 80 77 80 45 0 80-35 80-80 0-44-35-77-80-77-44 0-77 33-77 77zM256 296L10 709h185l145-263 147 263h176L414 296V0H256v296z"/><glyph glyph-name="Zcaron" unicode="Ž" horiz-adv-x="644" d="M131 891h140l58-65 58 65h135L399 759H254zM599 0H36v152l342 406H51v151h544V563L245 151h354V0z"/><glyph glyph-name="zcaron" unicode="ž" horiz-adv-x="489" d="M64 707h116l71-72 70 72h113L322 556H177zM453 0H36v134l219 233H42v130h407V372L220 131h233V0z"/><glyph glyph-name="florin" unicode="ƒ" horiz-adv-x="529" d="M118 30l69 340H94v126h118l17 82c23 114 115 163 198 163 50 0 65-5 97-16V595c-21 5-41 8-67 8-23 0-66-10-78-68l-8-39h110V370H345L268-13C245-128 152-176 70-176c-50 0-68 5-100 15v131c20-5 44-8 70-8 23 0 66 11 78 68z"/><glyph glyph-name="circumflex" unicode="ˆ" horiz-adv-x="414" d="M135 556H22l113 151h143l114-151H276l-71 71z"/><glyph glyph-name="caron" unicode="ˇ" horiz-adv-x="414" d="M22 707h116l71-72 70 72h113L280 556H135z"/><glyph glyph-name="uni02C9" unicode="ˉ" horiz-adv-x="330" d="M308 577H22v105h286V577z"/><glyph glyph-name="breve" unicode="˘" horiz-adv-x="380" d="M190 551C80 551 24 625 22 707h96c2-26 22-56 72-56s70 30 72 56h97c-3-82-58-156-169-156z"/><glyph glyph-name="dotaccent" unicode="˙" horiz-adv-x="201" d="M12 633c0 49 39 87 89 87 49 0 89-38 89-87s-40-86-89-86c-50 0-89 37-89 86z"/><glyph glyph-name="ring" unicode="˚" horiz-adv-x="276" d="M254 652c0-66-54-111-116-111S22 586 22 652s54 113 116 113 116-47 116-113zm-79 0c0 23-16 38-37 38s-37-15-37-38 16-38 37-38 37 15 37 38z"/><glyph glyph-name="ogonek" unicode="˛" horiz-adv-x="220" d="M145-226c-75 0-126 43-126 109C19-40 77-4 122 16l76-16c-38-18-76-53-76-93 0-28 20-43 47-43 13 0 22 1 29 2v-84c-13-5-30-8-53-8z"/><glyph glyph-name="tilde" unicode="˜" horiz-adv-x="398" d="M381 706v-20c0-88-47-130-112-130-30 0-53 11-76 23-20 10-37 21-56 21-20 0-33-13-34-43H17v23c0 86 50 127 113 127 31 0 54-11 76-23 20-12 37-22 55-22 22 0 34 15 35 44h85z"/><glyph glyph-name="hungarumlaut" unicode="˝" horiz-adv-x="410" d="M213 707L111 556H19l53 151h141zm178 0L273 556h-93l69 151h142z"/><glyph glyph-name="uni0394" unicode="Δ" horiz-adv-x="705" d="M0 0l266 709h173L705 0H0zm352 539L216 148h273z"/><glyph glyph-name="uni03A9" unicode="Ω" horiz-adv-x="774" d="M387 575c-93 0-178-65-178-178 0-97 67-162 145-178V0H54v145h162C121 184 45 278 45 411c0 191 160 314 342 314s342-123 342-314c0-133-75-227-171-266h163V0H420v219c79 16 146 81 146 178 0 113-85 178-179 178z"/><glyph glyph-name="uni03BC" unicode="μ" horiz-adv-x="606" d="M394 0c-2 9-4 37-4 50-26-43-83-61-133-61-13 0-25 1-37 3v-182H68v687h152V215c0-48 26-86 80-86 51 0 83 35 83 85v283h152V89c0-45 4-80 5-89H394z"/><glyph glyph-name="pi" unicode="π" horiz-adv-x="649" d="M613 5c-1 0-28-14-75-14-102 0-154 60-154 156v221H268V0H115v368H32v129h579V368h-75V168c0-36 24-45 46-45 20 0 22 1 31 3V5z"/><glyph glyph-name="uni2007" horiz-adv-x="628"/><glyph glyph-name="uni2008" horiz-adv-x="327"/><glyph glyph-name="uni200B" unicode="​" horiz-adv-x="0"/><glyph glyph-name="endash" unicode="–" horiz-adv-x="638" d="M578 236H61v132h517V236z"/><glyph glyph-name="emdash" unicode="—" horiz-adv-x="1074" d="M1004 236H71v132h933V236z"/><glyph glyph-name="quoteleft" unicode="‘" horiz-adv-x="241" d="M210 499c0-42-36-77-86-77-60 0-93 50-93 101 0 138 98 187 164 192v-68c-35-4-82-32-85-78 2 1 12 5 22 5 50 0 78-31 78-75z"/><glyph glyph-name="quoteright" unicode="’" horiz-adv-x="241" d="M31 637c0 42 35 77 86 77 60 0 93-49 93-101 0-138-98-187-164-192v68c35 4 81 30 85 77 0-1-12-5-22-5-50 0-78 33-78 76z"/><glyph glyph-name="quotesinglbase" unicode="‚" horiz-adv-x="241" d="M31 73c0 42 35 77 86 77 60 0 93-50 93-101 0-139-98-187-164-192v67c35 4 81 30 85 77-4-2-13-5-22-5-50 0-78 33-78 77z"/><glyph glyph-name="quotedblleft" unicode="“" horiz-adv-x="451" d="M210 499c0-42-36-77-86-77-60 0-93 50-93 101 0 138 98 187 164 192v-68c-35-4-82-31-85-77 2 1 12 5 22 5 50 0 78-32 78-76zm210 0c0-42-36-77-86-77-60 0-92 50-92 101 0 138 97 187 163 192v-68c-35-4-82-31-85-77 2 1 12 5 22 5 50 0 78-32 78-76z"/><glyph glyph-name="quotedblright" unicode="”" horiz-adv-x="448" d="M31 637c0 42 35 77 86 77 59 0 93-49 93-101 0-138-98-186-164-191v67c35 4 81 30 85 77-2-1-10-5-22-5-50 0-78 33-78 76zm208 0c0 42 35 77 86 77 59 0 92-49 92-101 0-138-97-186-163-191v67c35 4 81 30 85 77-4-2-11-5-22-5-50 0-78 33-78 76z"/><glyph glyph-name="quotedblbase" unicode="„" horiz-adv-x="448" d="M31 73c0 42 35 77 86 77 60 0 93-50 93-101 0-139-98-187-164-192v67c35 4 81 30 85 77-4-2-13-5-22-5-50 0-78 33-78 77zm207 0c0 42 35 77 86 77 60 0 93-50 93-101 0-139-98-187-164-192v67c35 4 81 30 85 77-4-2-13-5-22-5-50 0-78 33-78 77z"/><glyph glyph-name="dagger" unicode="†" horiz-adv-x="427" d="M276 163H150v293H30v114h120v139h126V570h121V456H276V163z"/><glyph glyph-name="daggerdbl" unicode="‡" horiz-adv-x="467" d="M50 255h120v199H50v114h120v141h126V568h121V454H296V255h121V141H296V0H170v141H50v114z"/><glyph glyph-name="bullet" unicode="•" horiz-adv-x="522" d="M52 303c0 116 94 210 209 210s209-94 209-210c0-113-94-208-209-208S52 190 52 303z"/><glyph glyph-name="ellipsis" unicode="…" horiz-adv-x="916" d="M848 75c0-47-39-88-89-88-48 0-88 41-88 88 0 50 40 90 88 90 50 0 89-40 89-90zm-302 0c0-47-39-88-89-88-49 0-88 41-88 88 0 50 39 90 88 90 50 0 89-40 89-90zm-301 0c0-47-40-88-89-88S68 28 68 75c0 50 39 90 88 90s89-40 89-90z"/><glyph glyph-name="perthousand" unicode="‰" horiz-adv-x="1128" d="M147 494c0-39 26-65 61-65s60 27 60 65c0 39-25 65-60 65s-61-26-61-65zm-108 0c0 94 77 167 169 167s169-73 169-167c0-95-77-165-170-165S39 402 39 494zm563-339c0-40 28-66 63-66s62 27 62 66c0 38-27 64-62 64s-63-26-63-64zM274 0H146l454 649h129zm575 155c0-40 28-66 63-66s62 27 62 66c0 38-27 64-62 64s-63-26-63-64zm-355 0c0 93 79 166 171 166 51 0 94-22 123-57 29 35 73 57 124 57 92 0 171-73 171-166 0-96-79-166-172-166-51 0-94 21-123 55-29-35-73-55-124-55-93 0-170 73-170 166z"/><glyph glyph-name="guilsinglleft" unicode="‹" horiz-adv-x="323" d="M306 102H164L26 297l140 200h141L168 296z"/><glyph glyph-name="guilsinglright" unicode="›" horiz-adv-x="323" d="M159 102H16l139 194L16 497h142l139-200z"/><glyph glyph-name="uni2042" unicode="⁂" horiz-adv-x="839" d="M467 708V603l97 32 33-94-99-33 60-83-80-59-62 84-62-84-80 59 59 83-98 33 32 94 97-32v105h103zM266 327V222l97 32 33-94-99-33 60-83-80-59-62 84-62-84-80 59 59 83-98 33 32 94 97-32v105h103zm410 0V222l97 32 33-94-99-33 60-83-80-59-62 84-62-84-80 59 59 83-98 33 32 94 97-32v105h103z"/><glyph glyph-name="fraction" unicode="⁄" horiz-adv-x="583" d="M128 0H0l454 649h129z"/><glyph glyph-name="uni2051" unicode="⁑" horiz-adv-x="430" d="M267 708V603l97 32 33-94-99-33 60-83-80-59-62 84-62-84-80 59 59 83-98 33 32 94 97-32v105h103zm0-377V226l97 32 33-94-99-33 60-83-80-59-62 84-62-84-80 59 59 83-98 33 32 94 97-32v105h103z"/><glyph glyph-name="uni2070" unicode="⁰" horiz-adv-x="439" d="M163 525c0-49 7-100 56-100s56 51 56 100-7 100-56 100-56-51-56-100zm-116 0c0 45 8 92 36 130s73 63 136 63c64 0 109-25 137-63s36-85 36-130-8-92-36-130c-28-37-73-63-137-63-63 0-108 26-136 64-28 37-36 84-36 129z"/><glyph glyph-name="uni2074" unicode="⁴" horiz-adv-x="438" d="M47 411v112l164 186h121V496h59v-85h-59v-71H221v71H47zm174 85v102l-91-102h91z"/><glyph glyph-name="uni2075" unicode="⁵" horiz-adv-x="405" d="M47 454l100 18c2-27 26-45 55-45 27 0 46 15 46 40 0 32-21 46-50 46-19 0-36-8-47-20l-92 26 44 190h231v-90H169l-12-52c17 13 45 20 71 20 80 0 130-44 130-119 0-73-55-134-156-134-86 0-148 53-155 120z"/><glyph glyph-name="uni2076" unicode="⁶" horiz-adv-x="419" d="M360 701l-19-88c-17 6-41 11-67 11-46 0-96-17-114-71 21 18 51 28 82 28 72 0 130-39 130-116 0-79-65-135-161-135-93 0-164 66-164 170 0 136 98 215 221 215 31 0 61-5 92-14zM165 461c0-24 20-42 46-42s47 18 47 42c0 26-21 44-47 44s-46-18-46-44z"/><glyph glyph-name="uni2077" unicode="⁷" horiz-adv-x="405" d="M359 709v-92c-34-29-121-112-136-277H103c11 175 123 276 123 276H47v93h312z"/><glyph glyph-name="uni2078" unicode="⁸" horiz-adv-x="424" d="M212 563c27 1 40 18 40 34 0 14-12 32-40 32s-40-18-40-32c0-16 13-33 40-34zm0-145c36 0 49 21 49 39 0 17-14 36-49 36s-49-19-49-36c0-18 13-39 49-39zm0-86c-101 0-161 44-161 110 0 43 33 77 76 88-42 12-65 47-65 83 0 58 52 104 150 104 99 0 150-46 150-104 0-36-22-71-65-83 41-11 76-44 76-84 0-68-57-114-161-114z"/><glyph glyph-name="uni2079" unicode="⁹" horiz-adv-x="419" d="M66 345l17 88c16-7 39-11 62-11 50 0 103 15 118 72-21-18-52-28-84-28-65 0-132 39-132 116 0 79 61 136 161 136 94 0 163-68 163-171 0-139-94-217-214-217-30 0-61 6-91 15zm185 241c0 24-20 42-46 42s-46-18-46-42c0-26 20-43 46-43s46 17 46 43z"/><glyph glyph-name="uni2080" unicode="₀" horiz-adv-x="439" d="M163 110c0-49 7-100 56-100s56 51 56 100-7 100-56 100-56-51-56-100zm-116 0c0 45 8 92 36 130s73 63 136 63c64 0 109-25 137-63s36-85 36-130-8-92-36-130c-28-37-73-63-137-63-63 0-108 26-136 64-28 37-36 84-36 129z"/><glyph glyph-name="uni2081" unicode="₁" horiz-adv-x="308" d="M241-120H126V92H32v74c70 0 101 47 108 82h101v-368z"/><glyph glyph-name="uni2082" unicode="₂" horiz-adv-x="396" d="M154 103H54c-2 8-4 19-4 27 0 68 49 128 149 128 94 0 148-57 148-125 0-48-31-83-84-114l-67-39c-3-2-5-3-5-5h159v-95H48v13c0 68 22 123 91 162l60 34c23 13 36 28 36 45 0 13-9 34-39 34s-45-22-45-48c0-9 2-15 3-17z"/><glyph glyph-name="uni2083" unicode="₃" horiz-adv-x="411" d="M47-7l103 18c1-25 21-46 52-46 29 0 47 16 47 37 0 28-22 40-46 40-10 0-20-2-29-6l-35 75 79 47H60v92h291v-93l-85-51c63-10 98-50 98-107 0-66-60-127-162-127C109-128 52-68 47-7z"/><glyph glyph-name="uni2084" unicode="₄" horiz-adv-x="438" d="M47-49V63l164 186h121V36h59v-85h-59v-71H221v71H47zm174 85v102L130 36h91z"/><glyph glyph-name="uni2085" unicode="₅" horiz-adv-x="405" d="M47-6l100 18c2-27 26-45 55-45 27 0 46 15 46 40 0 32-21 46-50 46-19 0-36-8-47-20L59 59l44 190h231v-90H169l-12-52c17 13 45 20 71 20 80 0 130-44 130-119 0-73-55-134-156-134C116-126 54-73 47-6z"/><glyph glyph-name="uni2086" unicode="₆" horiz-adv-x="419" d="M360 243l-19-88c-17 6-41 11-67 11-46 0-96-17-114-71 21 18 51 28 82 28 72 0 130-39 130-116 0-79-65-135-161-135-93 0-164 66-164 170 0 136 98 215 221 215 31 0 61-5 92-14zM165 3c0-24 20-42 46-42s47 18 47 42c0 26-21 44-47 44s-46-18-46-44z"/><glyph glyph-name="uni2087" unicode="₇" horiz-adv-x="405" d="M359 248v-92c-34-29-121-112-136-277H103c11 175 123 276 123 276H47v93h312z"/><glyph glyph-name="uni2088" unicode="₈" horiz-adv-x="424" d="M212 103c27 1 40 18 40 34 0 14-12 32-40 32s-40-18-40-32c0-16 13-33 40-34zm0-145c36 0 49 21 49 39 0 17-14 36-49 36s-49-19-49-36c0-18 13-39 49-39zm0-86C111-128 51-84 51-18c0 43 33 77 76 88-42 12-65 47-65 83 0 58 52 104 150 104 99 0 150-46 150-104 0-36-22-71-65-83 41-11 76-44 76-84 0-68-57-114-161-114z"/><glyph glyph-name="uni2089" unicode="₉" horiz-adv-x="419" d="M66-113l17 88c16-7 39-11 62-11 50 0 103 15 118 72-21-18-52-28-84-28C114 8 47 47 47 124c0 79 61 136 161 136 94 0 163-68 163-171 0-139-94-217-214-217-30 0-61 6-91 15zm185 241c0 24-20 42-46 42s-46-18-46-42c0-26 20-43 46-43s46 17 46 43z"/><glyph glyph-name="Euro" unicode="€" horiz-adv-x="674" d="M593 161l69-114c-44-35-111-63-191-63-148 0-270 78-319 209H61v102h70c-1 10-1 16-1 28 0 8 0 16 1 26H61v101h91c49 131 174 214 317 214 76 0 127-17 172-45l-56-120c-29 20-70 29-116 29-57 0-115-23-150-78h244l-47-101H289c-1-10-1-17-1-26 0-8 0-18 1-28h206l-45-102H325c34-47 87-70 146-70 51 0 93 15 122 38z"/><glyph glyph-name="uni2113" unicode="ℓ" horiz-adv-x="439" d="M26 277c19 5 43 12 70 22v193c0 107 69 171 160 171 95 0 157-59 157-164 0-97-69-203-182-275v-21c0-60 43-77 69-77 51 0 75 12 92 22V24C380 14 349-5 281-5 172-5 102 58 96 162c-22-7-46-12-70-16v131zm253 229c0 20-11 31-23 31-11 0-25-7-25-37V386c28 32 48 72 48 120z"/><glyph glyph-name="trademark" unicode="™" horiz-adv-x="884" d="M336 618h-99V344H135v274H35v91h301v-91zm488-274H724v222l-82-222h-76l-83 218V344h-99v365h142l80-194 76 194h142V344z"/><glyph glyph-name="Omega" unicode="Ω" horiz-adv-x="774" d="M387 575c-93 0-178-65-178-178 0-97 67-162 145-178V0H54v145h162C121 184 45 278 45 411c0 191 160 314 342 314s342-123 342-314c0-133-75-227-171-266h163V0H420v219c79 16 146 81 146 178 0 113-85 178-179 178z"/><glyph glyph-name="uni2160" unicode="Ⅰ" horiz-adv-x="493" d="M452 649V518H326V131h126V0H42v131h127v387H42v131h410z"/><glyph glyph-name="uni2161" unicode="Ⅱ" horiz-adv-x="793" d="M752 131V0H42v131h135v387H42v131h710V518H618V131h134zM334 518V131h127v387H334z"/><glyph glyph-name="uni2162" unicode="Ⅲ" horiz-adv-x="1067" d="M1026 131V0H42v131h135v387H42v131h984V518H892V131h134zM334 518V131h122v387H334zm279 0V131h122v387H613z"/><glyph glyph-name="uni2163" unicode="Ⅳ" horiz-adv-x="1077" d="M1036 131V0H42v131h132v387H42v131h994V518H932L811 131h225zM331 518V131h200L407 518h-76zm342-339l99 339H572z"/><glyph glyph-name="uni2164" unicode="Ⅴ" horiz-adv-x="810" d="M769 649V518H665L545 131h223V0H42v131h223L141 518H42v131h727zM407 179l99 339H306z"/><glyph glyph-name="uni2165" unicode="Ⅵ" horiz-adv-x="1073" d="M1031 131V0H42v131h223L141 518H42v131h989V518H898V131h133zM666 518L546 131h195v387h-75zM407 179l99 339H306z"/><glyph glyph-name="uni2166" unicode="Ⅶ" horiz-adv-x="1348" d="M1306 131V0H42v131h223L141 518H42v131h1264V518h-133V131h133zm-290 0v387H898V131h118zM666 518L546 131h195v387h-75zM407 179l99 339H306z"/><glyph glyph-name="uni2167" unicode="Ⅷ" horiz-adv-x="1619" d="M1578 131V0H42v131h223L141 518H42v131h1535V518h-132V131h133zM665 518L545 131h196v387h-76zm506 0V131h117v387h-117zm-273 0V131h116v387H898zM407 179l99 339H306z"/><glyph glyph-name="uni2168" unicode="Ⅸ" horiz-adv-x="1052" d="M1010 131V0H42v131h132v387H42v131h968V518H907L762 321l143-190h105zM555 322L409 518h-78V131h80zm41 196l63-89 64 89H596zm61-302l-62-85h123z"/><glyph glyph-name="uni2169" unicode="Ⅹ" horiz-adv-x="787" d="M745 649V518H642L497 321l143-190h105V0H42v131h104l144 191-146 196H42v131h703zM332 518l63-89 63 89H332zm60-302l-61-85h122z"/><glyph glyph-name="uni216C" unicode="Ⅼ" horiz-adv-x="660" d="M619 297V0H42v131h111v387H42v131h389V518H310V131h161v166h148z"/><glyph glyph-name="uni216D" unicode="Ⅽ" horiz-adv-x="743" d="M701 252V0H549v55c-37-40-92-71-177-71C185-16 42 123 42 323s145 341 327 341c84 0 138-30 174-69v54h153V402H543c-9 44-48 125-166 125-87 0-184-64-184-204 0-125 88-198 187-198 116 0 158 82 169 127h152z"/><glyph glyph-name="uni216E" unicode="Ⅾ" horiz-adv-x="747" d="M382 649c199 0 323-127 323-325C705 125 580 0 381 0H42v131h117v387H42v131h340zm-66-518h53c99 1 177 64 177 193s-78 194-178 194h-52V131z"/><glyph glyph-name="uni216F" unicode="Ⅿ" horiz-adv-x="1042" d="M373 131V0H42v131h111v387H42v131h324l155-391 146 391h334V518H891V131h110V0H660v131h75v282L577 9H463L305 409V131h68z"/><glyph glyph-name="arrowleft" unicode="←" horiz-adv-x="1080" d="M271 57L-14 301l285 246V367h753V236H271V57z"/><glyph glyph-name="arrowup" unicode="↑" horiz-adv-x="504" d="M273 800l243-277H339v-669H208v669H27z"/><glyph glyph-name="arrowright" unicode="→" horiz-adv-x="1114" d="M1084 301L770 54v182H21v131h749v182z"/><glyph glyph-name="arrowdown" unicode="↓" horiz-adv-x="492" d="M479 131L234-148-14 131h183v668h131V131h179z"/><glyph glyph-name="uni2196" unicode="↖" horiz-adv-x="877" d="M69 708h352L291 577 790 79l-92-92-499 498L69 354v354z"/><glyph glyph-name="uni2197" unicode="↗" horiz-adv-x="749" d="M310 708h352V354L532 485 33-13l-93 92 499 499z"/><glyph glyph-name="uni2198" unicode="↘" horiz-adv-x="850" d="M763 1H411l129 130L42 630l92 92 499-498 130 131V1z"/><glyph glyph-name="uni2199" unicode="↙" horiz-adv-x="740" d="M384 1H32v354l130-131 499 498 92-92-499-498z"/><glyph glyph-name="uni21A9" unicode="↩" horiz-adv-x="874" d="M252 24L-32 268l284 246V332h359c72 0 115 43 115 92 0 53-43 91-115 91H407v131h210c146 0 246-95 246-222 0-129-97-224-246-224H252V24z"/><glyph glyph-name="uni21B0" unicode="↰" horiz-adv-x="819" d="M316 235L32 480l284 245V545h427V0H612v414H316V235z"/><glyph glyph-name="uni21B1" unicode="↱" horiz-adv-x="764" d="M166 0H35v545h432v180l284-245-284-245v179H166V0z"/><glyph glyph-name="uni21B2" unicode="↲" horiz-adv-x="777" d="M570 709h131V164H270V-16L-15 230l285 244V295h300v414z"/><glyph glyph-name="uni21B3" unicode="↳" horiz-adv-x="857" d="M499 474l284-244L499-16v180H67v545h131V295h301v179z"/><glyph glyph-name="uni21B4" unicode="↴" horiz-adv-x="792" d="M64 578v131h558V260h180L560-15 314 260h177v318H64z"/><glyph glyph-name="uni21C6" unicode="⇆" horiz-adv-x="1197" d="M1142 158L858-86V93H101v131h757v180zM353 320L69 564l284 246V627h756V496H353V320z"/><glyph glyph-name="partialdiff" unicode="∂" horiz-adv-x="626" d="M255 580c-28 0-82-3-148-35L53 668c76 41 152 52 210 52 130 0 327-61 327-372 0-199-91-364-297-364C158-16 32 68 32 232c0 150 129 230 242 230 99 0 138-34 156-55-12 131-87 173-175 173zm56-245c-85 0-125-48-125-109 0-64 58-102 112-102 97 0 130 83 136 163-28 28-66 48-123 48z"/><glyph glyph-name="Delta" unicode="∆" horiz-adv-x="705" d="M0 0l266 709h173L705 0H0zm352 539L216 148h273z"/><glyph glyph-name="product" unicode="∏" horiz-adv-x="685" d="M609 0H450v563H235V0H77v709h532V0z"/><glyph glyph-name="summation" unicode="∑" horiz-adv-x="571" d="M32 0v145l246 208L32 565v144h523V562H250l242-209-251-206h314V0H32z"/><glyph glyph-name="minus" unicode="−" horiz-adv-x="593" d="M547 237H46v124h501V237z"/><glyph glyph-name="uni2215" unicode="∕" horiz-adv-x="464" d="M464 662L135-14H0l328 676h136z"/><glyph glyph-name="uni2219" unicode="∙" horiz-adv-x="293" d="M57 322c0 51 42 91 94 91s94-40 94-91c0-53-42-92-94-92s-94 39-94 92z"/><glyph glyph-name="radical" unicode="√" horiz-adv-x="714" d="M744 762H606L353 0H221L31 542h140l117-346 225 689h231V762z"/><glyph glyph-name="infinity" unicode="∞" horiz-adv-x="846" d="M422 188c-58-60-114-92-180-92-117 0-201 83-201 194s84 195 201 195c66 0 127-34 183-95 56 58 116 95 180 95 116 0 201-84 201-195S721 96 605 96c-69 0-126 31-183 92zM244 353c-40 0-66-28-66-64s26-63 66-63c33 0 66 25 96 61-32 38-63 66-96 66zm359-127c39 0 66 27 66 63s-27 64-66 64c-34 0-65-27-97-64 31-36 63-63 97-63z"/><glyph glyph-name="integral" unicode="∫" horiz-adv-x="370" d="M109-9v520c0 122 75 199 198 199h58V577h-53c-30 0-50-21-50-58V-1c0-122-75-199-198-199H5v133h54c29 0 50 21 50 58z"/><glyph glyph-name="approxequal" unicode="≈" horiz-adv-x="607" d="M497 479l79-65c-36-70-99-108-169-109-37 0-75 10-113 31l-48 26c-16 9-34 13-50 13-32 0-63-18-84-49l-81 65c36 70 99 109 169 109 36 0 74-8 112-29l47-26c16-9 34-14 51-14 33 0 64 15 87 48zm0-204l79-66c-37-70-100-108-170-108-37 0-74 9-112 30l-48 26c-16 8-32 13-49 13-31 0-62-16-85-48l-81 65c37 70 100 108 171 108 34 0 73-9 110-29l47-26c17-9 34-14 51-14 33 0 64 15 87 49z"/><glyph glyph-name="notequal" unicode="≠" horiz-adv-x="607" d="M551 138H276l-59-96H85l59 96H56v122h163l48 79H56v122h286l54 88h132l-54-88h77V339H399l-48-79h200V138z"/><glyph glyph-name="lessequal" unicode="≤" horiz-adv-x="547" d="M52 164h439V40H52v124zm0 158v120l439 130V449l-266-65 266-66V192z"/><glyph glyph-name="greaterequal" unicode="≥" horiz-adv-x="547" d="M56 164h439V40H56v124zm439 278V322L56 192v123l266 65-266 67v125z"/><glyph glyph-name="dotmath" unicode="⋅" horiz-adv-x="293" d="M57 322c0 51 42 91 94 91s94-40 94-91c0-53-42-92-94-92s-94 39-94 92z"/><glyph glyph-name="uni24C5" unicode="Ⓟ" horiz-adv-x="813" d="M125 354c0-161 122-288 281-288s282 127 282 288-123 289-282 289-281-128-281-289zm-89 0c0 204 166 371 370 371s371-167 371-371S610-16 406-16 36 150 36 354zm349 18h44c32 0 53 18 53 48s-21 49-53 49h-44v-97zm65-84h-65V154H281v399h169c77 0 137-60 137-133s-60-132-137-132z"/><glyph glyph-name="filledbox" unicode="■" horiz-adv-x="901" d="M97 0v709h708V0H97z"/><glyph glyph-name="H22073" unicode="□" horiz-adv-x="901" d="M805 0H97v709h708V0zM227 579V129h444v450H227z"/><glyph glyph-name="triagup" unicode="▲" horiz-adv-x="839" d="M421 725L839 0H0z"/><glyph glyph-name="uni25B3" unicode="△" horiz-adv-x="838" d="M419 725L838 0H0zm192-595L419 463 227 130h384z"/><glyph glyph-name="lozenge" unicode="◊" horiz-adv-x="648" d="M201 354l123-212 123 212-123 213zm-175 0l210 355h176l210-355L412 0H236z"/><glyph glyph-name="circle" unicode="○" horiz-adv-x="804" d="M32 354c0 205 165 371 370 371s371-166 371-371S607-16 402-16 32 149 32 354zm130 0c0-132 108-241 240-241s238 109 238 241-106 242-238 242-240-110-240-242z"/><glyph glyph-name="H18533" unicode="●" horiz-adv-x="804" d="M32 354c0 205 165 371 370 371s371-166 371-371S607-16 402-16 32 149 32 354z"/><glyph glyph-name="uni262E" unicode="☮" horiz-adv-x="812" d="M776 354c0-205-165-370-370-370C202-16 36 149 36 354s166 371 370 371c205 0 370-166 370-371zm-130 0c0 113-77 208-179 236V420l169-132c7 21 10 43 10 66zm-482 0c0-23 3-44 9-64l167 130v169c-101-29-176-124-176-235zm303-236c40 10 76 32 106 60l-106 87V118zm-232 63c30-29 65-51 105-62v146z"/><glyph glyph-name="uni2713" unicode="✓" horiz-adv-x="928" d="M916 633L310-16 12 313l95 89 207-226 510 549z"/><glyph glyph-name="uni2715" unicode="✕" horiz-adv-x="755" d="M649-5L376 265 107-5 16 86l268 269L16 621l91 90 268-265 264 265 91-90-264-265L739 86z"/><glyph glyph-name="uni2780" unicode="➀" horiz-adv-x="822" d="M129 354c0-161 123-288 282-288 158 0 281 127 281 288S569 643 411 643c-159 0-282-128-282-289zm-88 0c0 204 165 371 370 371 204 0 370-167 370-371S615-16 411-16C206-16 41 150 41 354zm447-182H373v212h-94v74c70 0 101 47 108 82h101V172z"/><glyph glyph-name="uni2781" unicode="➁" horiz-adv-x="822" d="M129 354c0-161 123-288 282-288 158 0 281 127 281 288S569 643 411 643c-159 0-282-128-282-289zm-88 0c0 204 165 371 370 371 204 0 370-167 370-371S615-16 411-16C206-16 41 150 41 354zm322 53H263c-2 8-4 19-4 27 0 68 49 128 149 128 94 0 148-57 148-125 0-48-31-83-84-114l-67-39c-3-2-5-3-5-5h159v-95H257v13c0 68 22 123 91 162l60 34c23 13 36 28 36 45 0 13-9 34-39 34s-45-22-45-48c0-9 2-15 3-17z"/><glyph glyph-name="uni2782" unicode="➂" horiz-adv-x="822" d="M129 354c0-161 123-288 282-288 158 0 281 127 281 288S569 643 411 643c-159 0-282-128-282-289zm-88 0c0 204 165 371 370 371 204 0 370-167 370-371S615-16 411-16C206-16 41 150 41 354zm213-77l103 18c1-25 21-46 52-46 29 0 47 16 47 37 0 28-22 40-46 40-10 0-20-2-29-6l-35 75 79 47H267v92h291v-93l-85-51c63-10 98-50 98-107 0-66-60-127-162-127-93 0-150 60-155 121z"/><glyph glyph-name="uni2783" unicode="➃" horiz-adv-x="822" d="M129 354c0-161 123-288 282-288 158 0 281 127 281 288S569 643 411 643c-159 0-282-128-282-289zm-88 0c0 204 165 371 370 371 204 0 370-167 370-371S615-16 411-16C206-16 41 150 41 354zm189-105v112l164 186h121V334h59v-85h-59v-71H404v71H230zm174 85v102l-91-102h91z"/><glyph glyph-name="uni2784" unicode="➄" horiz-adv-x="822" d="M129 354c0-161 123-288 282-288 158 0 281 127 281 288S569 643 411 643c-159 0-282-128-282-289zm-88 0c0 204 165 371 370 371 204 0 370-167 370-371S615-16 411-16C206-16 41 150 41 354zm208-78l100 18c2-27 26-45 55-45 27 0 46 15 46 40 0 32-21 46-50 46-19 0-36-8-47-20l-92 26 44 190h231v-90H371l-12-52c17 13 45 20 71 20 80 0 130-44 130-119 0-73-55-134-156-134-86 0-148 53-155 120z"/><glyph glyph-name="uni2785" unicode="➅" horiz-adv-x="822" d="M129 354c0-161 123-288 282-288 158 0 281 127 281 288S569 643 411 643c-159 0-282-128-282-289zm-88 0c0 204 165 371 370 371 204 0 370-167 370-371S615-16 411-16C206-16 41 150 41 354zm508 180l-19-88c-17 6-41 11-67 11-46 0-96-17-114-71 21 18 51 28 82 28 72 0 130-39 130-116 0-79-65-135-161-135-93 0-164 66-164 170 0 136 98 215 221 215 31 0 61-5 92-14zM354 294c0-24 20-42 46-42s47 18 47 42c0 26-21 44-47 44s-46-18-46-44z"/><glyph glyph-name="uni2786" unicode="➆" horiz-adv-x="822" d="M129 354c0-161 123-288 282-288 158 0 281 127 281 288S569 643 411 643c-159 0-282-128-282-289zm-88 0c0 204 165 371 370 371 204 0 370-167 370-371S615-16 411-16C206-16 41 150 41 354zm523 175v-92c-34-29-121-112-136-277H308c11 175 123 276 123 276H252v93h312z"/><glyph glyph-name="uni2787" unicode="➇" horiz-adv-x="822" d="M129 354c0-161 123-288 282-288 158 0 281 127 281 288S569 643 411 643c-159 0-282-128-282-289zm-88 0c0 204 165 371 370 371 204 0 370-167 370-371S615-16 411-16C206-16 41 150 41 354zm370 42c27 1 40 18 40 34 0 14-12 32-40 32s-40-18-40-32c0-16 13-33 40-34zm0-145c36 0 49 21 49 39 0 17-14 36-49 36s-49-19-49-36c0-18 13-39 49-39zm0-86c-101 0-161 44-161 110 0 43 33 77 76 88-42 12-65 47-65 83 0 58 52 104 150 104 99 0 150-46 150-104 0-36-22-71-65-83 41-11 76-44 76-84 0-68-57-114-161-114z"/><glyph glyph-name="uni2788" unicode="➈" horiz-adv-x="822" d="M129 354c0-161 123-288 282-288 158 0 281 127 281 288S569 643 411 643c-159 0-282-128-282-289zm-88 0c0 204 165 371 370 371 204 0 370-167 370-371S615-16 411-16C206-16 41 150 41 354zm235-176l17 88c16-7 39-11 62-11 50 0 103 15 118 72-21-18-52-28-84-28-65 0-132 39-132 116 0 79 61 136 161 136 94 0 163-68 163-171 0-139-94-217-214-217-30 0-61 6-91 15zm185 241c0 24-20 42-46 42s-46-18-46-42c0-26 20-43 46-43s46 17 46 43z"/><glyph glyph-name="uniE000" unicode="" horiz-adv-x="711" d="M223-15L-19 260h180v449h558V578H292V260h176z"/><glyph glyph-name="uni21B5" unicode="" horiz-adv-x="1125" d="M265 83L32 354h164c0 205 166 371 371 371 60 0 119-14 169-41l-60-116c-33 18-70 27-109 27-132 0-240-109-240-241h170zm667 271c0-205-165-370-370-370-60 0-118 15-169 41l60 115c33-17 70-27 109-27 131 0 237 109 237 241H630l232 271 233-271H932z"/><glyph glyph-name="uniE002" unicode="" horiz-adv-x="960" d="M478 354l232 271 233-271H782c0-205-165-370-370-370S41 149 41 354s166 371 371 371c51 0 100-10 145-29l-51-121c-28 13-60 20-94 20-132 0-240-109-240-241s108-241 240-241c131 0 237 109 237 241H478z"/><glyph glyph-name="uniFB00" unicode="ﬀ" horiz-adv-x="690" d="M677 369H569V0H417v369H242V0H90v369H11v128h79v43c0 114 69 192 190 192 25 0 58-4 72-11V597c-8 2-22 5-45 5-26 0-65-12-65-62v-43h175v43c0 114 69 192 189 192 26 0 59-3 73-10V597c-8 2-23 5-45 5-27 0-65-12-65-62v-43h108V369z"/><glyph glyph-name="fi" unicode="ﬁ" horiz-adv-x="643" d="M425 369H242V0H90v369H11v128h79v43c0 114 69 192 190 192 25 0 56-4 70-11V597c-7 2-21 5-43 5-26 0-65-12-65-62v-43h335V0H425v369zm-13 280c0 50 40 89 88 89 50 0 90-39 90-89 0-49-40-89-90-89-48 0-88 40-88 89z"/><glyph glyph-name="fl" unicode="ﬂ" horiz-adv-x="644" d="M307 602c-26 0-65-12-65-62v-43h182v227h153V0H424v369H242V0H90v369H11v128h79v43c0 114 69 192 190 192 25 0 56-4 70-11V597c-7 2-21 5-43 5z"/><glyph glyph-name="uniFB03" unicode="ﬃ" horiz-adv-x="973" d="M280 732c25 0 58-5 72-12V597c-8 2-22 5-45 5-29 0-65-12-65-62v-43h175v43c0 114 69 192 189 192 26 0 59-4 73-11V597c-8 2-23 5-45 5-27 0-65-12-65-62v-43h339V0H755v369H569V0H417v369H242V0H90v369H11v128h79v43c0 114 69 192 190 192zm462-83c0 50 40 89 89 89 50 0 89-39 89-89 0-49-39-89-89-89-49 0-89 40-89 89z"/><glyph glyph-name="uniFB04" unicode="ﬄ" horiz-adv-x="975" d="M307 602c-26 0-65-12-65-62v-43h175v43c0 114 69 192 189 192 26 0 59-4 73-11V597c-8 2-23 5-45 5-27 0-65-12-65-62v-43h187v227h152V0H756v369H569V0H417v369H242V0H90v369H11v128h79v43c0 114 69 192 190 192 25 0 58-4 72-11V597c-8 2-22 5-45 5z"/><glyph glyph-name="uniFEFF" horiz-adv-x="0"/><glyph glyph-name="zero.numr" horiz-adv-x="439" d="M163 465c0-49 7-100 56-100s56 51 56 100-7 100-56 100-56-51-56-100zm-116 0c0 45 8 92 36 130s73 63 136 63c64 0 109-25 137-63s36-85 36-130-8-92-36-130c-28-37-73-63-137-63-63 0-108 26-136 64-28 37-36 84-36 129z"/><glyph glyph-name="one.numr" horiz-adv-x="317" d="M241 281H126v212H32v74c70 0 101 47 108 82h101V281z"/><glyph glyph-name="two.numr" horiz-adv-x="396" d="M154 503H54c-2 8-4 19-4 27 0 68 49 128 149 128 94 0 148-57 148-125 0-48-31-83-84-114l-67-39c-3-2-5-3-5-5h159v-95H48v13c0 68 22 123 91 162l60 34c23 13 36 28 36 45 0 13-9 34-39 34s-45-22-45-48c0-9 2-15 3-17z"/><glyph glyph-name="three.numr" horiz-adv-x="411" d="M47 392l103 18c1-25 21-46 52-46 29 0 47 16 47 37 0 28-22 40-46 40-10 0-20-2-29-6l-35 75 79 47H60v92h291v-93l-85-51c63-10 98-50 98-107 0-66-60-127-162-127-93 0-150 60-155 121z"/><glyph glyph-name="four.numr" horiz-adv-x="438" d="M47 351v112l164 186h121V436h59v-85h-59v-71H221v71H47zm174 85v102l-91-102h91z"/><glyph glyph-name="five.numr" horiz-adv-x="402" d="M47 394l100 18c2-27 26-45 55-45 27 0 46 15 46 40 0 32-21 46-50 46-19 0-36-8-47-20l-92 26 44 190h231v-90H169l-12-52c17 13 45 20 71 20 80 0 130-44 130-119 0-73-55-134-156-134-86 0-148 53-155 120z"/><glyph glyph-name="six.numr" horiz-adv-x="419" d="M360 641l-19-88c-17 6-41 11-67 11-46 0-96-17-114-71 21 18 51 28 82 28 72 0 130-39 130-116 0-79-65-135-161-135-93 0-164 66-164 170 0 136 98 215 221 215 31 0 61-5 92-14zM165 401c0-24 20-42 46-42s47 18 47 42c0 26-21 44-47 44s-46-18-46-44z"/><glyph glyph-name="seven.numr" horiz-adv-x="405" d="M359 649v-92c-34-29-121-112-136-277H103c11 175 123 276 123 276H47v93h312z"/><glyph glyph-name="eight.numr" horiz-adv-x="424" d="M212 503c27 1 40 18 40 34 0 14-12 32-40 32s-40-18-40-32c0-16 13-33 40-34zm0-145c36 0 49 21 49 39 0 17-14 36-49 36s-49-19-49-36c0-18 13-39 49-39zm0-86c-101 0-161 44-161 110 0 43 33 77 76 88-42 12-65 47-65 83 0 58 52 104 150 104 99 0 150-46 150-104 0-36-22-71-65-83 41-11 76-44 76-84 0-68-57-114-161-114z"/><glyph glyph-name="nine.numr" horiz-adv-x="419" d="M66 285l17 88c16-7 39-11 62-11 50 0 103 15 118 72-21-18-52-28-84-28-65 0-132 39-132 116 0 79 61 136 161 136 94 0 163-68 163-171 0-139-94-217-214-217-30 0-61 6-91 15zm185 241c0 24-20 42-46 42s-46-18-46-42c0-26 20-43 46-43s46 17 46 43z"/><glyph glyph-name="zero.dnom" horiz-adv-x="439" d="M163 184c0-49 7-100 56-100s56 51 56 100-7 100-56 100-56-51-56-100zm-116 0c0 45 8 92 36 130s73 63 136 63c64 0 109-25 137-63s36-85 36-130-8-92-36-130C328 17 283-9 219-9 156-9 111 17 83 55c-28 37-36 84-36 129z"/><glyph glyph-name="one.dnom" horiz-adv-x="308" d="M241 0H126v212H32v74c70 0 101 47 108 82h101V0z"/><glyph glyph-name="two.dnom" horiz-adv-x="396" d="M154 223H54c-2 8-4 19-4 27 0 68 49 128 149 128 94 0 148-57 148-125 0-48-31-83-84-114l-67-39c-3-2-5-3-5-5h159V0H48v13c0 68 22 123 91 162l60 34c23 13 36 28 36 45 0 13-9 34-39 34s-45-22-45-48c0-9 2-15 3-17z"/><glyph glyph-name="three.dnom" horiz-adv-x="411" d="M47 112l103 18c1-25 21-46 52-46 29 0 47 16 47 37 0 28-22 40-46 40-10 0-20-2-29-6l-35 75 79 47H60v92h291v-93l-85-51c63-10 98-50 98-107C364 52 304-9 202-9 109-9 52 51 47 112z"/><glyph glyph-name="four.dnom" horiz-adv-x="438" d="M47 71v112l164 186h121V156h59V71h-59V0H221v71H47zm174 85v102l-91-102h91z"/><glyph glyph-name="five.dnom" horiz-adv-x="405" d="M47 113l100 18c2-27 26-45 55-45 27 0 46 15 46 40 0 32-21 46-50 46-19 0-36-8-47-20l-92 26 44 190h231v-90H169l-12-52c17 13 45 20 71 20 80 0 130-44 130-119C358 54 303-7 202-7 116-7 54 46 47 113z"/><glyph glyph-name="six.dnom" horiz-adv-x="419" d="M360 362l-19-88c-17 6-41 11-67 11-46 0-96-17-114-71 21 18 51 28 82 28 72 0 130-39 130-116C372 47 307-9 211-9 118-9 47 57 47 161c0 136 98 215 221 215 31 0 61-5 92-14zM165 122c0-24 20-42 46-42s47 18 47 42c0 26-21 44-47 44s-46-18-46-44z"/><glyph glyph-name="seven.dnom" horiz-adv-x="405" d="M359 369v-92C325 248 238 165 223 0H103c11 175 123 276 123 276H47v93h312z"/><glyph glyph-name="eight.dnom" horiz-adv-x="424" d="M212 223c27 1 40 18 40 34 0 14-12 32-40 32s-40-18-40-32c0-16 13-33 40-34zm0-145c36 0 49 21 49 39 0 17-14 36-49 36s-49-19-49-36c0-18 13-39 49-39zm0-86C111-8 51 36 51 102c0 43 33 77 76 88-42 12-65 47-65 83 0 58 52 104 150 104 99 0 150-46 150-104 0-36-22-71-65-83 41-11 76-44 76-84C373 38 316-8 212-8z"/><glyph glyph-name="nine.dnom" horiz-adv-x="419" d="M66 5l17 88c16-7 39-11 62-11 50 0 103 15 118 72-21-18-52-28-84-28-65 0-132 39-132 116 0 79 61 136 161 136 94 0 163-68 163-171 0-139-94-217-214-217-30 0-61 6-91 15zm185 241c0 24-20 42-46 42s-46-18-46-42c0-26 20-43 46-43s46 17 46 43z"/><glyph glyph-name="space.frac" horiz-adv-x="49"/><glyph glyph-name="a.ordn" horiz-adv-x="422" d="M50 397c0 61 47 96 104 105l81 12c18 3 25 12 25 24 0 19-17 35-49 35-36 0-56-25-58-49l-96 20c5 47 49 116 155 116 114 0 156-64 156-136V354c0-26 3-47 4-54H272c-1 5-3 18-3 38-19-30-52-48-97-48-77 0-122 51-122 107zm150-28c29 0 60 15 60 67v15l-62-10c-22-3-38-14-38-37 0-18 11-35 40-35z"/><glyph glyph-name="b.ordn" horiz-adv-x="506" d="M188 300H80v507h110V618c14 21 52 40 99 40 101 0 162-77 162-182 0-107-70-184-166-184-46 0-81 21-97 46v-38zm153 175c0 57-37 83-76 83-40 0-77-26-77-83 0-56 37-83 77-83 39 0 76 26 76 83z"/><glyph glyph-name="c.ordn" horiz-adv-x="461" d="M243 558c-44 0-78-31-78-84s36-82 79-82c38 0 62 23 69 49l98-28c-15-63-73-123-167-123-104 0-189 76-189 184 0 109 82 186 185 186 96 0 154-60 169-123l-99-29c-8 26-28 50-67 50z"/><glyph glyph-name="d.ordn" horiz-adv-x="509" d="M427 807V362c0-26 1-47 2-62H323c-1 3-3 19-3 31-16-22-51-39-91-39-98 0-174 76-174 184 0 104 71 182 169 182 60 0 85-22 93-34v183h110zM166 475c0-56 37-83 77-83 39 0 76 26 76 83s-37 83-76 83c-40 0-77-26-77-83z"/><glyph glyph-name="e.ordn" horiz-adv-x="451" d="M159 517h135c-2 24-18 56-68 56-43 0-65-32-67-56zm142-91l93-25c-17-60-72-111-161-111-97 0-183 68-183 186 0 112 84 184 175 184 108 0 176-66 176-179 0-15-2-32-2-35H157c3-36 37-63 77-63 36 0 57 17 67 43z"/><glyph glyph-name="f.ordn" horiz-adv-x="341" d="M290 556h-75V300H105v256H50v93h55v28c0 79 48 136 135 136 17 0 41-2 51-7v-91c-7 2-16 4-31 4-19 0-45-9-45-42v-28h75v-93z"/><glyph glyph-name="g.ordn" horiz-adv-x="467" d="M55 280l97 28c8-32 35-53 74-53 51 0 84 25 84 87v10c-13-18-42-37-92-37-93 0-163 72-163 170 0 91 67 171 163 171 57 0 86-26 95-43v36h106V345c0-101-57-188-188-188-102 0-166 62-176 123zm183 131c42 0 72 28 72 74 0 45-34 73-72 73-37 0-72-28-72-73 0-46 32-74 72-74z"/><glyph glyph-name="h.ordn" horiz-adv-x="492" d="M192 505V300H80v507h112V628c21 21 57 30 87 30 92 0 133-63 133-139V300H301v200c0 33-18 58-54 58-32 0-53-23-55-53z"/><glyph glyph-name="i.ordn" horiz-adv-x="288" d="M200 300H88v349h112V300zM80 753c0 36 29 64 64 64s64-28 64-64c0-35-29-64-64-64s-64 29-64 64z"/><glyph glyph-name="j.ordn" horiz-adv-x="337" d="M137 289v360h112V276c0-70-46-119-118-119-32 0-55 7-61 9v93c4-1 17-4 33-4 24 0 34 13 34 34zm-8 464c0 36 29 64 64 64s64-28 64-64c0-35-29-64-64-64s-64 29-64 64z"/><glyph glyph-name="k.ordn" horiz-adv-x="474" d="M436 649L301 503l138-203H304l-80 120-32-35v-85H80v507h112V536l101 113h143z"/><glyph glyph-name="l.ordn" horiz-adv-x="272" d="M192 300H80v507h112V300z"/><glyph glyph-name="m.ordn" horiz-adv-x="707" d="M192 300H80v349h107v-40c17 31 62 51 99 51 51 0 86-21 104-54 27 38 59 54 107 54 66 0 130-39 130-134V300H520v200c0 32-17 57-54 57-36 0-55-27-55-57V300H301v200c0 32-17 57-54 57-36 0-55-27-55-57V300z"/><glyph glyph-name="n.ordn" horiz-adv-x="492" d="M192 500V300H80v349h108v-39c18 32 61 48 97 48 88 0 127-63 127-139V300H301v200c0 33-18 58-54 58-34 0-55-25-55-58z"/><glyph glyph-name="o.ordn" horiz-adv-x="482" d="M241 392c39 0 76 26 76 83s-37 83-76 83c-38 0-75-26-75-83 0-56 37-83 75-83zm0 268c104 0 186-77 186-185 0-109-82-185-186-185S55 366 55 475c0 108 82 185 186 185z"/><glyph glyph-name="p.ordn" horiz-adv-x="506" d="M192 167H80v482h108v-34c14 22 52 43 101 43 101 0 162-77 162-182 0-107-70-184-166-184-44 0-77 15-93 33V167zm151 308c0 57-37 83-76 83-40 0-77-26-77-83 0-56 37-83 77-83 39 0 76 26 76 83z"/><glyph glyph-name="q.ordn" horiz-adv-x="507" d="M427 167H318v159c-15-20-47-34-89-34-100 0-174 76-174 184 0 104 69 182 169 182 62 0 90-28 97-41v32h106V167zM167 475c0-56 37-83 76-83s77 26 77 83-38 83-77 83-76-26-76-83z"/><glyph glyph-name="r.ordn" horiz-adv-x="311" d="M306 649V540c-11 3-21 4-31 4-43 0-83-22-83-94V300H80v349h108v-45c15 33 53 48 83 48 16 0 24-1 35-3z"/><glyph glyph-name="s.ordn" horiz-adv-x="399" d="M55 400l94 15c1-22 17-44 52-44 27 0 39 13 39 28 0 12-8 21-33 27l-38 8C92 451 63 494 63 543c0 64 56 117 135 117 102 0 137-64 140-105l-91-16c-3 23-17 41-47 41-19 0-36-11-36-28 0-14 11-22 26-25l45-9c73-14 109-58 109-110 0-60-46-118-141-118-110 0-145 71-148 110z"/><glyph glyph-name="t.ordn" horiz-adv-x="328" d="M206 750V649h67v-97h-67V427c0-28 15-35 37-35 11 0 22 1 30 2v-91c-5-2-24-9-58-9-74 0-119 43-119 113v145H35v97h17c37 0 54 25 54 57v44h100z"/><glyph glyph-name="u.ordn" horiz-adv-x="470" d="M284 300c-2 7-3 22-3 35-18-30-58-43-92-43-86 0-134 63-134 136v221h111V453c0-33 18-58 54-58 34 0 55 23 55 56v198h112V362c0-28 2-52 3-62H284z"/><glyph glyph-name="v.ordn" horiz-adv-x="427" d="M407 649L275 300H163L20 649h120l79-211 72 211h116z"/><glyph glyph-name="w.ordn" horiz-adv-x="636" d="M263 649h118l65-200 56 200h109L503 300H393l-74 221-73-221H134L25 649h115l56-199z"/><glyph glyph-name="x.ordn" horiz-adv-x="427" d="M28 300l119 174L25 649h131l59-91 59 91h124L278 478l124-178H273l-63 94-60-94H28z"/><glyph glyph-name="y.ordn" horiz-adv-x="438" d="M206 167H89l79 181L21 649h124l83-181 74 181h118z"/><glyph glyph-name="z.ordn" horiz-adv-x="405" d="M350 300H55v98l151 157H60v94h287v-91L189 395h161v-95z"/><glyph glyph-name="space.tf"/><glyph glyph-name="numbersign.tf" d="M527 649l-33-152h83V391H472l-28-128h82V156H421L388 0H273l33 156H205L172 0H57l33 156H10v107h103l28 128H60v106h103l33 152h115l-33-152h101l33 152h115zM256 391l-28-128h101l28 128H256z"/><glyph glyph-name="dollar.tf" d="M365-116H250V-9C110 14 46 118 39 199l137 31c5-58 45-109 131-109 50 0 86 24 86 62 0 29-22 48-62 57l-89 21C131 288 62 356 62 451c0 111 84 188 188 206v108h115V654c110-24 159-103 173-170l-138-37c-6 31-23 82-102 82-56 0-84-32-84-64 0-27 20-48 59-57l87-19c134-30 186-108 186-198 0-91-65-177-181-198v-109z"/><glyph glyph-name="percent.tf" d="M525 536V435L43 107v100zm-408-19c0-33 21-54 51-54 29 0 50 22 50 54 0 34-21 55-50 55-30 0-51-21-51-55zm-94 0c0 80 66 142 145 142 78 0 143-62 143-142s-65-140-144-140c-80 0-144 62-144 140zm345-384c0-33 21-54 51-54 29 0 50 22 50 54 0 34-21 55-50 55-30 0-51-21-51-55zm-94 0c0 80 66 142 145 142 78 0 143-62 143-142S497-7 418-7c-80 0-144 62-144 140z"/><glyph glyph-name="plus.tf" d="M39 360h190v195h128V360h189V236H357V41H229v195H39v124z"/><glyph glyph-name="comma.tf" d="M179 97c0 59 48 103 110 103 78 0 120-65 120-138 0-171-122-244-210-254v78c47 9 108 53 110 120-5-5-17-8-31-8-60 0-99 44-99 99z"/><glyph glyph-name="period.tf" d="M180 104c0 62 51 113 113 113s114-51 114-113c0-61-52-114-114-114S180 43 180 104z"/><glyph glyph-name="zero.tf" d="M188 324c0-98 4-202 106-202 101 0 105 104 105 202 0 99-4 201-105 201-102 0-106-102-106-201zm-159 0c0 80 8 167 52 233 43 65 118 107 213 107 94 0 168-40 212-106 43-66 52-154 52-234s-9-169-52-234C462 24 388-16 294-16 199-16 125 24 81 90c-43 65-52 154-52 234z"/><glyph glyph-name="one.tf" d="M74 131h163v291H91v105c97 1 157 56 168 122h136V131h148V0H74v131z"/><glyph glyph-name="two.tf" d="M205 389l-148 1c-3 8-6 34-6 54 0 116 87 220 243 220 149 0 241-97 241-213 0-84-45-153-128-202l-123-73c-19-12-35-25-44-44h300V0H47c0 119 34 217 153 286l106 62c51 30 71 57 71 100 0 41-29 77-87 77-61 0-91-42-91-96 0-13 2-27 6-40z"/><glyph glyph-name="three.tf" d="M226 282l-68 104 160 131H47v132h468V527L355 403c100-7 182-87 182-198 0-115-95-219-255-219C131-14 35 83 25 194l152 28c2-57 43-102 104-102s97 41 97 89c0 62-48 88-94 88-21 0-43-7-58-15z"/><glyph glyph-name="four.tf" d="M29 135v160l266 354h187V267h91V135h-91V0H325v135H29zm296 132v214L167 267h158z"/><glyph glyph-name="five.tf" d="M49 185l146 30c3-50 41-97 105-97 53 0 97 35 97 94 0 65-49 96-101 96-44 0-75-22-91-42-3 1-138 44-141 46l73 337h377V517H246l-26-122c25 22 73 35 110 35 133 0 224-77 224-217 0-121-92-229-254-229C156-16 57 83 49 185z"/><glyph glyph-name="six.tf" d="M544 637l-41-128c-31 12-69 20-107 20-97 0-190-50-207-168 22 37 73 71 150 71 127 0 214-89 214-215C553 84 449-15 301-15 151-15 36 96 36 281c0 231 148 383 374 383 61 0 109-12 134-27zM202 211c0-55 45-94 97-94 53 0 97 37 97 94 0 58-44 95-97 95-52 0-97-37-97-95z"/><glyph glyph-name="seven.tf" d="M552 649V523C507 484 316 320 289 0H125c26 336 242 517 242 517H24v132h528z"/><glyph glyph-name="eight.tf" d="M293 388c57 1 83 37 83 76 0 34-29 70-83 70s-83-36-83-70c0-39 27-75 83-76zm0-275c64 0 97 42 97 81 0 40-30 83-97 83-66 0-96-43-96-83 0-39 33-81 96-81zm0-128C146-15 43 62 43 176c0 67 42 131 110 158-67 24-98 91-98 142 0 109 98 188 238 188 141 0 239-79 239-188 0-51-32-118-99-142 68-27 111-91 111-158C544 62 441-15 293-15z"/><glyph glyph-name="nine.tf" d="M43 19l35 127c21-11 68-26 113-26 99 0 187 45 197 160-27-40-82-63-138-63-122 0-219 88-219 218 0 132 101 229 249 229 144 0 259-107 259-312 0-226-122-367-345-367C136-15 78-1 43 19zm324 421c0 54-42 91-93 91s-93-37-93-91 42-91 93-91 93 38 93 91z"/><glyph glyph-name="colon.tf" d="M185 86c0 59 49 108 108 108s109-49 109-108c0-58-50-108-109-108S185 28 185 86zm0 319c0 59 49 108 108 108s109-49 109-108c0-58-50-108-109-108s-108 50-108 108z"/><glyph glyph-name="semicolon.tf" d="M185 94c0 55 44 96 103 96 72 0 112-61 112-129 0-160-114-228-197-238v74c45 8 102 49 104 111-5-4-17-7-29-7-57 0-93 41-93 93zm0 310c0 59 49 108 108 108s109-49 109-108c0-58-50-108-109-108s-108 50-108 108z"/><glyph glyph-name="less.tf" d="M71 244v108l439 224V438L222 301l288-139V22z"/><glyph glyph-name="equal.tf" d="M540 339H45v122h495V339zm0-201H45v122h495V138z"/><glyph glyph-name="greater.tf" d="M516 353V245L77 22v137l288 138L77 436v140z"/><glyph glyph-name="cent.tf" d="M366 0H251v84C141 110 61 199 61 319c0 122 80 213 190 237v93h115v-92c96-19 154-85 172-154l-130-38c-10 35-38 69-94 69-60 0-108-42-108-115s49-113 110-113c55 0 87 34 97 68l128-38c-18-70-79-137-175-155V0z"/><glyph glyph-name="sterling.tf" d="M64 383h57c-8 24-14 51-14 84 0 98 76 197 217 197 156 0 208-106 208-188v-5l-131-19v5c0 49-23 83-75 83-41 0-74-25-74-78 0-30 7-53 17-79h176V273H304c1-6 1-12 1-18 0-47-17-95-62-125h112c42 0 74 29 74 74l132-8C561 83 486 0 375 0H60v118c63 22 104 63 104 122 0 11-1 22-3 33H64v110z"/><glyph glyph-name="currency.tf" d="M76 248c0 37 9 71 25 101l-71 72 91 90 74-74c30 15 63 23 99 23 35 0 71-8 98-23l74 74 91-90-71-72c16-27 26-64 26-101 0-38-10-72-26-102l71-70-91-91-73 74c-30-15-64-23-99-23-36 0-69 8-99 23l-74-74-91 91 72 71c-16 27-26 64-26 101zm125 0c0-53 38-91 93-91s93 38 93 91-38 91-93 91-93-38-93-91z"/><glyph glyph-name="yen.tf" d="M533 125H366V0H219v125H62v106h157v63H62v106h85L12 649h170l115-236 115 236h163L437 400h96V294H366v-63h167V125z"/><glyph glyph-name="section.tf" horiz-adv-x="590" d="M511 258c0-62-34-102-73-126 48-37 72-87 72-140 0-121-106-197-215-197-131 0-213 75-219 188L219 5c0-58 34-80 76-80 38 0 63 24 63 57 0 20-13 41-36 51L221 84c-75 38-142 85-142 177 0 63 33 103 73 126-48 38-71 87-71 141 0 120 106 196 216 196 129 0 212-76 217-188l-142-22c0 59-33 80-75 80-39 0-64-25-64-57 0-20 13-40 36-50l101-52c74-38 141-83 141-177zm-169 25l-102 54c-14-13-24-28-24-45 0-25 7-41 33-55l102-54c13 12 25 27 25 45 0 23-8 41-34 55z"/><glyph glyph-name="logicalnot.tf" d="M535 129H405v195H32v125h503V129z"/><glyph glyph-name="plusminus.tf" d="M52 438h177v117h128V438h178V314H357V198H229v116H52v124zm0-274h483V40H52v124z"/><glyph glyph-name="multiply.tf" d="M457 43L293 208 129 43l-90 92 163 164L39 464l90 90 164-165 164 165 90-90-164-165 164-164z"/><glyph glyph-name="divide.tf" d="M205 486c0 46 38 84 85 84s85-38 85-84-38-85-85-85-85 39-85 85zM41 237v124h505V237H41zm164-123c0 45 38 83 85 83s85-38 85-83c0-46-38-85-85-85s-85 39-85 85z"/><glyph glyph-name="florin.tf" d="M151 30l69 340h-93v126h118l17 82c23 114 115 163 198 163 50 0 65-5 97-16V595c-21 5-41 8-67 8-23 0-66-10-78-68l-8-39h110V370H378L301-13c-23-115-116-163-198-163-50 0-68 5-100 15v131c20-5 44-8 70-8 23 0 66 11 78 68z"/><glyph glyph-name="uni2007.tf"/><glyph glyph-name="uni2008.tf"/><glyph glyph-name="perthousand.tf" d="M535 606V505L42 168v100zm-430-70c0-29 19-49 45-49s45 20 45 49c0 28-19 48-45 48s-45-20-45-48zm-82 0c0 70 58 125 127 125s127-55 127-125c0-71-58-124-127-124-71 0-127 54-127 124zm108-420c0 70 58 125 126 125 35 0 66-14 89-36 23 22 55 36 89 36 69 0 127-55 127-125C562 45 504-8 435-8c-35 0-66 13-89 35-23-22-54-35-89-35-70 0-126 54-126 124zm304 48c-26 0-45-19-45-48s19-49 45-49 45 20 45 49c0 28-19 48-45 48zm-178 0c-25 0-45-20-45-48 0-29 20-49 45-49 27 0 45 20 45 49 0 28-18 48-45 48z"/><glyph glyph-name="Euro.tf" d="M108 295c-1 13-1 23-1 28s0 13 1 26H46v101h83c49 131 174 214 317 214 58 0 92-8 127-22l-38-129c-24 10-53 15-89 15-57 0-115-23-150-78h222l-28-101H265c-1-13-1-21-1-26 0-8 0-14 1-28h210l-27-102H301c34-47 88-69 146-69 36 0 66 5 90 15l36-128c-27-14-77-27-126-27-147 0-269 78-318 209H46v102h62z"/><glyph glyph-name="minus.tf" d="M544 237H43v124h501V237z"/><glyph glyph-name="approxequal.tf" d="M486 479l80-65c-37-70-99-108-170-109-36 0-74 10-112 31l-48 26c-17 9-34 13-50 13-32 0-62-17-84-49l-82 65c37 70 100 109 171 109 36 0 73-9 110-29l48-26c17-9 34-14 51-14 32 0 64 14 86 48zm0-204l80-66c-37-70-100-108-171-108-37 0-72 9-111 30l-48 26c-17 9-34 13-51 13-31 0-61-17-83-48l-82 65c36 67 98 108 168 108 36 0 75-9 113-29l48-26c17-9 34-14 51-14 33 0 63 15 86 49z"/><glyph glyph-name="notequal.tf" d="M540 138H265l-59-96H74l59 96H45v122h163l48 79H45v122h286l54 88h132l-54-88h77V339H388l-48-79h200V138z"/><glyph glyph-name="lessequal.tf" d="M75 164h439V40H75v124zm0 158v120l439 130V449l-266-65 266-66V192z"/><glyph glyph-name="greaterequal.tf" d="M74 164h439V40H74v124zm439 278V322L74 192v123l266 65-266 67v125z"/><glyph glyph-name="parenleft.case" horiz-adv-x="324" d="M37 355c0 222 90 367 197 478l90-75c-99-118-161-229-161-403S225 69 324-48l-90-75C127-11 37 133 37 355z"/><glyph glyph-name="parenright.case" horiz-adv-x="324" d="M287 355c0-222-89-366-197-478L0-48C99 69 161 181 161 355S99 640 0 758l90 75c108-111 197-256 197-478z"/><glyph glyph-name="hyphen.case" horiz-adv-x="390" d="M345 283H45v137h300V283z"/><glyph glyph-name="bracketleft.case" horiz-adv-x="331" d="M326-118H77v942h249V711H203V-2h123v-116z"/><glyph glyph-name="bracketright.case" horiz-adv-x="331" d="M255-118H5V-2h124v713H5v113h250v-942z"/><glyph glyph-name="braceleft.case" horiz-adv-x="385" d="M45 293v124c56 0 96 24 96 88v123c0 133 79 196 199 196h40V711h-37c-37 0-76-20-76-82V482c0-61-35-108-99-127 63-18 99-66 99-128V80c0-62 39-82 76-82h37v-113h-40c-120 0-199 63-199 197v123c0 64-40 88-96 88z"/><glyph glyph-name="braceright.case" horiz-adv-x="385" d="M340 417V293c-56 0-95-24-95-88V82c0-134-79-197-200-197H5V-2h37c37 0 77 20 77 82v147c0 62 35 110 98 128-64 19-98 66-98 127v147c0 62-40 82-77 82H5v113h40c121 0 200-63 200-196V505c0-64 39-88 95-88z"/><glyph glyph-name="exclamdown.case" horiz-adv-x="318" d="M215 487L250 0H68l35 487h112zM73 632c0 48 38 86 86 86s87-38 87-86c0-47-39-86-87-86s-86 39-86 86z"/><glyph glyph-name="guillemotleft.case" horiz-adv-x="550" d="M306 152H164L26 347l140 200h141L168 346zm228 0H391L253 347l140 200h142L396 346z"/><glyph glyph-name="uni00AD.case" horiz-adv-x="390" d="M345 285H45v137h300V285z"/><glyph glyph-name="guillemotright.case" horiz-adv-x="550" d="M386 152H244l138 194-139 201h142l140-200zm-227 0H16l139 194L16 547h141l140-200z"/><glyph glyph-name="questiondown.case" horiz-adv-x="520" d="M214 488h119c2-14 4-28 4-44 0-47-17-98-74-141l-50-38c-27-21-37-45-37-70 0-39 29-75 89-75 61 0 92 44 92 94 0 13-2 26-5 38l143-12c3-14 4-29 4-43 0-122-97-212-234-212C102-15 22 83 22 183c0 80 37 136 95 180l38 28c36 27 59 54 59 97zm-28 145c0 48 39 86 86 86 48 0 86-38 86-86 0-47-38-86-86-86-47 0-86 39-86 86z"/><glyph glyph-name="endash.case" horiz-adv-x="636" d="M577 286H60v132h517V286z"/><glyph glyph-name="emdash.case" horiz-adv-x="1072" d="M1003 286H70v132h933V286z"/><glyph glyph-name="guilsinglleft.case" horiz-adv-x="323" d="M306 152H164L26 347l140 200h141L168 346z"/><glyph glyph-name="guilsinglright.case" horiz-adv-x="323" d="M159 152H16l139 194L16 547h142l139-200z"/><glyph glyph-name="G.ss01" horiz-adv-x="777" d="M407-15C198-15 36 136 36 354c0 217 166 370 367 370 206 0 306-130 332-232l-156-42c-10 42-53 126-176 126-98 0-205-64-205-222 0-145 94-222 209-222 75 0 153 35 170 110H344v137h399c3-21 3-43 3-65-2-181-133-329-339-329z"/><glyph glyph-name="a.ss02" horiz-adv-x="627" d="M184 249c0-82 51-132 114-132 61 0 113 48 113 132 0 86-51 131-113 131-65 0-114-45-114-131zM412 59v5c-22-48-72-78-134-78C132-14 31 97 31 250c0 148 95 262 242 262 89 0 128-49 138-72v57h147V89c0-46 3-78 4-89H416c-2 11-4 38-4 59z"/><glyph glyph-name="agrave.ss02" horiz-adv-x="627" d="M184 249c0-82 51-132 114-132 61 0 113 48 113 132 0 86-51 131-113 131-65 0-114-45-114-131zM412 59v5c-22-48-72-78-134-78C132-14 31 97 31 250c0 148 95 262 242 262 89 0 128-49 138-72v57h147V89c0-46 3-78 4-89H416c-2 11-4 38-4 59zM262 556L120 707h173l93-151H262z"/><glyph glyph-name="aacute.ss02" horiz-adv-x="627" d="M469 707L328 556H207l92 151h170zM184 249c0-82 51-132 114-132 61 0 113 48 113 132 0 86-51 131-113 131-65 0-114-45-114-131zM412 59v5c-22-48-72-78-134-78C132-14 31 97 31 250c0 148 95 262 242 262 89 0 128-49 138-72v57h147V89c0-46 3-78 4-89H416c-2 11-4 38-4 59z"/><glyph glyph-name="acircumflex.ss02" horiz-adv-x="627" d="M235 556H122l113 151h143l114-151H376l-71 71zm-51-307c0-82 51-132 114-132 61 0 113 48 113 132 0 86-51 131-113 131-65 0-114-45-114-131zM412 59v5c-22-48-72-78-134-78C132-14 31 97 31 250c0 148 95 262 242 262 89 0 128-49 138-72v57h147V89c0-46 3-78 4-89H416c-2 11-4 38-4 59z"/><glyph glyph-name="atilde.ss02" horiz-adv-x="627" d="M184 249c0-82 51-132 114-132 61 0 113 48 113 132 0 86-51 131-113 131-65 0-114-45-114-131zM412 59v5c-22-48-72-78-134-78C132-14 31 97 31 250c0 148 95 262 242 262 89 0 128-49 138-72v57h147V89c0-46 3-78 4-89H416c-2 11-4 38-4 59zm82 647v-20c0-88-47-130-112-130-30 0-53 11-76 23-20 10-37 21-56 21-20 0-33-13-34-43h-86v23c0 86 50 127 113 127 31 0 54-11 76-23 20-12 37-22 55-22 22 0 34 15 35 44h85z"/><glyph glyph-name="adieresis.ss02" horiz-adv-x="627" d="M117 632c0 43 33 77 76 77s77-34 77-77-34-76-77-76-76 33-76 76zm221 0c0 43 33 77 76 77s77-34 77-77-34-76-77-76-76 33-76 76zM184 249c0-82 51-132 114-132 61 0 113 48 113 132 0 86-51 131-113 131-65 0-114-45-114-131zM412 59v5c-22-48-72-78-134-78C132-14 31 97 31 250c0 148 95 262 242 262 89 0 128-49 138-72v57h147V89c0-46 3-78 4-89H416c-2 11-4 38-4 59z"/><glyph glyph-name="aring.ss02" horiz-adv-x="627" d="M413 652c0-66-54-111-116-111s-116 45-116 111 54 113 116 113 116-47 116-113zm-79 0c0 23-16 38-37 38s-37-15-37-38 16-38 37-38 37 15 37 38zM184 249c0-82 51-132 114-132 61 0 113 48 113 132 0 86-51 131-113 131-65 0-114-45-114-131zM412 59v5c-22-48-72-78-134-78C132-14 31 97 31 250c0 148 95 262 242 262 89 0 128-49 138-72v57h147V89c0-46 3-78 4-89H416c-2 11-4 38-4 59z"/><glyph glyph-name="r.ss03" horiz-adv-x="431" d="M219 497V0H67v497h152zm1-90c0 56 43 99 98 99 56 0 99-43 99-99 0-55-43-98-99-98-55 0-98 43-98 98z"/><glyph glyph-name="ampersand.ss04" horiz-adv-x="722" d="M383 228v127h297V228h-66C608 97 509-15 330-15 155-15 52 79 52 203c0 97 74 165 144 182-61 19-109 81-109 149 0 109 95 190 230 190 167 0 234-97 240-197l-151-16c-1 49-28 88-88 88-38 0-79-26-79-71 0-57 52-78 84-78h11V323h-4c-54 0-119-29-119-106 0-49 37-101 123-101 70 0 118 39 122 112h-73z"/><glyph glyph-name="one.ss05" horiz-adv-x="498" d="M36 131h147v291H37v105c97 1 156 56 168 122h135V131h144V0H36v131z"/><glyph glyph-name="registered.ss06" horiz-adv-x="429" d="M22 526c0 106 86 192 192 192s193-86 193-192-87-192-193-192S22 420 22 526zm55 0c0-78 60-139 137-139s137 61 137 139-60 139-137 139S77 604 77 526zm159-95l-26 65h-11v-65h-58v196h86c39 0 69-28 69-66 0-24-13-44-34-55l36-75h-62zm-37 111h14c15 0 25 8 25 19 0 15-10 19-25 19h-14v-38z"/><glyph glyph-name="caron.alt" horiz-adv-x="217" d="M196 709l-75-207H22l29 207h145z"/><glyph glyph-name="commaaccent" horiz-adv-x="213" d="M22 698c0 38 32 70 79 70 54 0 90-43 90-93 0-113-88-135-147-135h-8v52c56 0 85 17 88 45 0-1-12-7-31-7-47 0-71 30-71 68z"/><glyph glyph-name="commaturn" horiz-adv-x="193" d="M181 614c0-38-32-69-79-69-53 0-90 41-90 92 0 100 88 134 147 134h8v-51c-56 0-85-24-88-45 4 2 14 7 31 7 47 0 71-31 71-68z"/><glyph glyph-name="dieresis.narrow" horiz-adv-x="352" d="M11 633c0 41 32 74 75 74 41 0 74-33 74-74 0-43-33-75-74-75-43 0-75 32-75 75zm181 0c0 41 32 74 73 74 42 0 75-33 75-74 0-43-33-75-75-75-41 0-73 32-73 75z"/><glyph glyph-name="dieresis.uc.narrow" horiz-adv-x="375" d="M12 824c0 44 32 78 75 78 44 0 77-34 77-78 0-43-33-75-77-75-43 0-75 32-75 75zm198 0c0 44 33 78 76 78 44 0 77-34 77-78 0-43-33-75-77-75-43 0-76 32-76 75z"/><glyph glyph-name="grave.uc" horiz-adv-x="301" d="M155 759L5 891h181l104-132H155z"/><glyph glyph-name="dieresis.uc" horiz-adv-x="463" d="M16 824c0 45 34 80 78 80 45 0 80-35 80-80 0-44-35-77-80-77-44 0-78 33-78 77zm273 0c0 45 33 80 78 80 44 0 79-35 79-80 0-44-35-77-79-77-45 0-78 33-78 77z"/><glyph glyph-name="macron.uc" horiz-adv-x="334" d="M323 771H12v109h311V771z"/><glyph glyph-name="acute.uc" horiz-adv-x="301" d="M296 891L146 759H11l104 132h181z"/><glyph glyph-name="circumflex.uc" horiz-adv-x="416" d="M150 759H15l122 132h145l124-132H265l-58 65z"/><glyph glyph-name="caron.uc" horiz-adv-x="416" d="M15 891h140l58-65 58 65h135L283 759H138z"/><glyph glyph-name="breve.uc" horiz-adv-x="367" d="M183 753C71 753 19 824 16 891h113c1-29 20-50 54-50 35 0 54 21 55 50h112c-2-67-54-138-167-138z"/><glyph glyph-name="dotaccent.uc" horiz-adv-x="201" d="M12 841c0 49 39 87 89 87 49 0 89-38 89-87 0-50-40-87-89-87-50 0-89 37-89 87z"/><glyph glyph-name="ring.uc" horiz-adv-x="305" d="M293 880c0-79-66-136-141-136-74 0-140 57-140 136 0 80 66 137 140 137 75 0 141-57 141-137zm-93 0c0 31-22 48-47 48-27 0-49-17-49-48 0-30 22-47 49-47 25 0 47 17 47 47z"/><glyph glyph-name="tilde.uc" horiz-adv-x="371" d="M360 895v-34c0-73-49-110-104-110-31 0-57 12-79 25l-5 3c-18 11-33 20-47 20-13 0-26-9-26-29v-13H12v33c0 73 49 108 103 108 32 0 57-11 79-24 20-11 37-22 52-22s27 9 27 29v14h87z"/><glyph glyph-name="hungarumlaut.uc" horiz-adv-x="391" d="M199 891l-93-132H12l48 132h139zm181 0L270 759h-96l65 132h141z"/><glyph glyph-name="caron.alt.uc" horiz-adv-x="217" d="M205 709l-79-217H22l31 217h152z"/><glyph glyph-name="undercommaaccent" horiz-adv-x="193" d="M12-109c0 38 32 69 79 69 53 0 90-42 90-92 0-106-83-136-143-136-2 0-6 0-12 1v52c56 0 85 18 88 46-4-2-14-7-31-7-47 0-71 30-71 67z"/></font>
</defs>
</svg>
