<svg xmlns="http://www.w3.org/2000/svg"><defs><font id="CircularStd-Medium" horiz-adv-x="570"><font-face font-family="CircularStd" font-weight="500" panose-1="2 11 6 4 2 1 1 1 1 2" ascent="809" descent="-191" x-height="487" cap-height="709" bbox="-51 -238 1520 979" underline-thickness="80" underline-position="-195" stemh="104" stemv="116" unicode-range="U+000D-FEFF"/><glyph glyph-name="f_f" unicode="ff" horiz-adv-x="670" d="M611 625c-30 0-72-14-72-74v-64h113V386H539V0H422v386H219V0H102v386H17v101h85v67c0 109 70 175 170 175 29 0 53-6 61-10v-99c-7 2-20 5-42 5-30 0-72-14-72-74v-64h203v67c0 109 70 175 170 175 29 0 53-6 61-10v-99c-7 2-20 5-42 5z"/><glyph glyph-name="f_f_i" unicode="ffi" horiz-adv-x="940" d="M732 659c0 42 34 76 75 76 42 0 76-34 76-76 0-41-34-75-76-75-41 0-75 34-75 75zm-121-34c-30 0-72-14-72-74v-64h326V0H750v386H539V0H422v386H219V0H102v386H17v101h85v67c0 109 70 175 170 175 29 0 53-6 61-10v-99c-7 2-20 5-42 5-31 0-72-14-72-74v-64h203v67c0 109 70 175 170 175 29 0 53-6 61-10v-99c-7 2-20 5-42 5z"/><glyph glyph-name="f_f_l" unicode="ffl" horiz-adv-x="940" d="M611 625c-30 0-72-14-72-74v-64h211v237h115V0H750v386H539V0H422v386H219V0H102v386H17v101h85v67c0 109 70 175 170 175 29 0 53-6 61-10v-99c-7 2-20 5-42 5-30 0-72-14-72-74v-64h203v67c0 109 70 175 170 175 29 0 53-6 61-10v-99c-7 2-20 5-42 5z"/><glyph glyph-name="f_i" unicode="fi" horiz-adv-x="619" d="M272 729c29 0 53-6 61-10v-99c-7 2-20 5-42 5-30 0-72-14-72-74v-64h324V0H429v386H219V0H102v386H17v101h85v67c0 109 70 175 170 175zm139-70c0 42 33 76 75 76s76-34 76-76c0-41-34-75-76-75s-75 34-75 75z"/><glyph glyph-name="f_l" unicode="fl" horiz-adv-x="617" d="M291 625c-30 0-72-14-72-74v-64h208v237h115V0H427v386H219V0H102v386H17v101h85v67c0 109 70 175 170 175 29 0 53-6 61-10v-99c-7 2-20 5-42 5z"/><glyph glyph-name=".notdef" horiz-adv-x="574" d="M75 0v709h424V0H75zm96 96h232v517H171V96z"/><glyph glyph-name=".null" horiz-adv-x="0"/><glyph glyph-name=".null" horiz-adv-x="0"/><glyph glyph-name="uni000D" horiz-adv-x="248"/><glyph glyph-name="space" horiz-adv-x="248"/><glyph glyph-name="exclam" unicode="!" horiz-adv-x="324" d="M232 709l-28-499h-84L91 709h141zM89 66c0 40 32 74 72 74 41 0 74-34 74-74S202-7 161-7c-40 0-72 33-72 73z"/><glyph glyph-name="quotedbl" unicode="&quot;" horiz-adv-x="390" d="M37 591c0 40 28 69 68 69s68-29 68-69c0-7-1-17-3-23l-45-185H84L40 568c-1 5-3 16-3 23zm180 0c0 40 28 69 68 69s68-29 68-69c0-7-1-17-3-23l-45-185h-41l-44 185c-1 5-3 16-3 23z"/><glyph glyph-name="numbersign" unicode="#" horiz-adv-x="740" d="M94 400v87h144l35 161h95l-35-161h136l35 161h96l-35-161h130v-87H546l-32-149h132v-87H496L461 0h-96l35 164H264L229 0h-95l35 164H45v87h142l32 149H94zm220 0l-32-149h136l32 149H314z"/><glyph glyph-name="dollar" unicode="$" horiz-adv-x="595" d="M354-117h-92v105C123 5 56 104 47 190l112 31c5-57 36-113 103-129v184l-18 4C138 304 72 366 72 464c0 99 80 181 190 196v106h92V659c118-19 168-101 182-167l-108-34c-5 30-24 76-74 95V374l9-2c119-26 180-101 180-190 0-90-66-176-189-193v-106zM189 471c0-36 23-68 73-78v164c-48-12-73-48-73-86zm238-295c0 36-23 66-73 80V92c50 10 73 46 73 84z"/><glyph glyph-name="percent" unicode="%" horiz-adv-x="837" d="M142 496c0-43 31-74 71-74s70 31 70 74-30 73-70 73-71-30-71-73zm-93 0c0 90 75 161 164 161 88 0 164-71 164-161 0-91-76-160-165-160-88 0-163 70-163 160zm511-345c0-43 31-74 71-74s70 31 70 74-30 73-70 73-71-30-71-73zm-93 0c0 90 75 161 164 161 88 0 164-71 164-161C795 60 719-9 630-9c-88 0-163 70-163 160zM244 0H139l462 648h104z"/><glyph glyph-name="ampersand" unicode="&amp;" horiz-adv-x="708" d="M553 0l-80 84c-55-59-117-97-194-97C142-13 68 80 68 173c0 91 49 141 123 196l7 5-12 13c-34 35-81 90-81 156 0 117 98 181 190 181 111 0 194-70 194-176 0-70-50-122-100-160l-31-23 118-123 169 182V274l-97-107L708 0H553zM281 92c47 0 82 28 118 67l1 1-131 139-24-18c-34-25-58-54-58-100 0-44 36-89 94-89zm-62 458c0-34 22-62 47-89l20-22 41 30c37 28 48 54 48 81 0 42-33 76-79 76-37 0-77-25-77-76z"/><glyph glyph-name="quotesingle" unicode="'" horiz-adv-x="210" d="M37 591c0 40 28 69 68 69s68-29 68-69c0-7-1-17-3-23l-45-185H84L40 568c-1 5-3 16-3 23z"/><glyph glyph-name="parenleft" unicode="(" horiz-adv-x="317" d="M48 320c0 224 89 376 201 488l68-62C213 632 146 498 146 320c0-179 67-313 171-427l-68-61C137-56 48 96 48 320z"/><glyph glyph-name="parenright" unicode=")" horiz-adv-x="317" d="M269 320c0-224-88-376-201-488L0-107C105 7 171 141 171 320c0 178-66 312-171 426l68 62c113-112 201-264 201-488z"/><glyph glyph-name="asterisk" unicode="*" horiz-adv-x="448" d="M271 709V579l119 40 29-86-121-40 78-102-73-54-80 105-75-104-74 54 76 101-121 40 29 86 119-41v131h94z"/><glyph glyph-name="plus" unicode="+" horiz-adv-x="579" d="M52 339h188v195h99V339h188v-95H339V47h-99v197H52v95z"/><glyph glyph-name="comma" unicode="," horiz-adv-x="304" d="M65 73c0 42 36 76 83 76 53 0 91-42 91-106 0-140-95-199-163-208v59c46 10 88 56 89 108-4-2-11-5-24-5-44 0-76 30-76 76z"/><glyph glyph-name="hyphen" unicode="-" horiz-adv-x="372" d="M327 241H45v103h282V241z"/><glyph glyph-name="period" unicode="." horiz-adv-x="296" d="M67 75c0 45 36 82 81 82s82-37 82-82-37-81-82-81-81 36-81 81z"/><glyph glyph-name="slash" unicode="/" horiz-adv-x="456" d="M456 714L107-5H0l349 719h107z"/><glyph glyph-name="zero" unicode="0" horiz-adv-x="619" d="M164 324c0-82 15-145 46-185 22-29 53-48 100-48s77 19 100 48c31 40 45 103 45 185s-14 145-45 185c-23 29-53 48-100 48s-78-19-100-48c-32-40-46-103-46-185zm-119 0c0 86 14 167 58 233 42 63 110 106 207 106s164-43 206-106c44-66 58-147 58-233s-14-167-58-233C474 28 407-15 310-15S145 28 103 91c-44 66-58 147-58 233z"/><glyph glyph-name="one" unicode="1" horiz-adv-x="376" d="M303 0H185v444H28v82c93 2 157 54 171 122h104V0z"/><glyph glyph-name="two" unicode="2" horiz-adv-x="537" d="M158 405l-116 8c-1 9-3 24-3 37 0 112 84 213 231 213 143 0 228-93 228-204 0-84-47-153-125-201l-126-78c-31-19-57-42-66-74h321V0H33c2 111 41 198 154 268l107 67c58 36 83 75 83 122 0 53-36 101-109 101-76 0-113-53-113-120 0-10 2-22 3-33z"/><glyph glyph-name="three" unicode="3" horiz-adv-x="551" d="M219 294l-55 89 179 160H48v105h450V548L322 394c97-2 194-72 194-197 0-111-89-212-243-212C123-15 34 82 26 190l117 24c3-75 57-126 129-126 79 0 123 51 123 110 0 75-60 107-115 107-31 0-51-6-61-11z"/><glyph glyph-name="four" unicode="4" horiz-adv-x="587" d="M33 142v130l276 376h154V248h109V142H463V0H345v142H33zm312 106v279L141 248h204z"/><glyph glyph-name="five" unicode="5" horiz-adv-x="551" d="M32 179l113 29c5-69 56-121 131-121 68 0 123 46 123 118 0 80-59 120-125 120-46 0-85-19-108-45L53 321l80 327h355V543H214l-40-164c28 29 78 45 124 45 129 0 222-80 222-216 0-122-94-224-244-224C136-16 40 77 32 179z"/><glyph glyph-name="six" unicode="6" horiz-adv-x="581" d="M532 631l-34-98c-24 13-58 26-111 26-122 0-210-81-221-207 34 52 96 77 165 77 129 0 220-86 220-219C551 75 441-15 305-15 140-15 46 120 46 286c0 235 147 377 348 377 60 0 110-14 138-32zM179 208c0-74 60-121 126-121 68 0 126 46 126 121 0 76-58 121-126 121s-126-45-126-121z"/><glyph glyph-name="seven" unicode="7" horiz-adv-x="494" d="M489 648V543C435 498 252 334 223 0H99c28 362 254 543 254 543H5v105h484z"/><glyph glyph-name="eight" unicode="8" horiz-adv-x="565" d="M282 378c65 1 107 41 107 95 0 49-41 92-107 92s-106-43-106-92c0-54 42-94 106-95zm0-292c79 0 122 46 122 99s-43 100-122 100c-78 0-121-47-121-100s43-99 121-99zm0-101C134-15 42 65 42 173c0 74 51 135 120 159-62 23-105 84-105 148 0 108 95 183 225 183s226-75 226-183c0-63-43-125-105-148 68-24 120-85 120-159 0-108-92-188-241-188z"/><glyph glyph-name="nine" unicode="9" horiz-adv-x="582" d="M55 22l33 98c25-16 73-30 116-30 136 0 209 82 215 204-24-42-81-75-158-75-117 0-224 80-224 218 0 134 108 226 244 226 135 0 256-96 256-303 0-235-112-375-332-375C152-15 88 0 55 22zm348 419c0 72-59 120-124 120-66 0-124-47-124-120 0-76 57-121 124-121 65 0 124 47 124 121z"/><glyph glyph-name="colon" unicode=":" horiz-adv-x="302" d="M71 74c0 45 36 81 81 81 44 0 81-36 81-81 0-44-37-80-81-80-45 0-81 36-81 80zm-1 338c0 45 36 81 81 81 44 0 81-36 81-81 0-44-37-80-81-80-45 0-81 36-81 80z"/><glyph glyph-name="semicolon" unicode=";" horiz-adv-x="307" d="M71 69c0 40 34 73 79 73 50 0 86-40 86-101 0-133-90-189-155-198v56c44 10 84 54 85 103-4-2-11-5-23-5-42 0-72 29-72 72zm-1 343c0 45 36 81 81 81 44 0 81-36 81-81 0-44-37-80-81-80-45 0-81 36-81 80z"/><glyph glyph-name="less" unicode="&lt;" horiz-adv-x="490" d="M35 244v94l422 212V439L155 292l302-148V33z"/><glyph glyph-name="equal" unicode="=" horiz-adv-x="598" d="M537 343H62v94h475v-94zm0-197H62v95h475v-95z"/><glyph glyph-name="greater" unicode="&gt;" horiz-adv-x="490" d="M455 338v-94L33 33v110l304 148L33 438v112z"/><glyph glyph-name="question" unicode="?" horiz-adv-x="520" d="M295 210H195c-1 13-2 24-2 38 0 60 23 109 81 151l46 33c33 24 47 53 47 87 0 52-35 101-108 101-74 0-113-57-113-114 0-15 2-34 6-45l-113 8c-4 14-6 30-6 46 0 100 75 209 226 209 148 0 228-98 228-200 0-79-42-135-100-176l-43-30c-33-23-50-56-50-95 0-2 0-7 1-13zM173 66c0 40 32 74 73 74 40 0 73-34 73-74S286-7 246-7c-41 0-73 33-73 73z"/><glyph glyph-name="at" unicode="@" horiz-adv-x="826" d="M594 138c-51 0-88 24-98 62-27-42-73-64-117-64-88 0-152 70-152 172 0 132 91 229 198 229 40 0 86-19 101-61l9 48h88l-53-248c-1-5-3-15-3-21 0-20 9-38 34-38 53 0 103 80 103 179 0 143-109 246-270 246-172 0-300-124-300-310 0-170 115-298 309-298 67 0 135 20 193 64l45-61c-56-52-156-84-238-84C209-47 42 105 42 332c0 233 177 392 391 392 204 0 358-140 358-327 0-151-93-258-197-259zm-90 230c0 53-26 85-75 85-69 0-109-73-109-138 0-54 23-96 77-96 61 0 105 62 107 149z"/><glyph glyph-name="A" unicode="A" horiz-adv-x="711" d="M570 0l-67 178H203L137 0H10l276 709h139L701 0H570zM353 579L245 289h216z"/><glyph glyph-name="B" unicode="B" horiz-adv-x="607" d="M85 709h244c136 0 216-80 216-191 0-75-44-131-105-153 75-20 127-85 127-169C567 82 479 0 347 0H85v709zm119-300h109c70 0 112 40 112 99 0 60-42 99-115 99H204V409zm0-307h122c72 0 119 39 119 102 0 61-41 104-115 104H204V102z"/><glyph glyph-name="C" unicode="C" horiz-adv-x="758" d="M400-15C209-15 42 123 42 354s173 370 357 370c180 0 287-106 319-230l-113-38c-21 86-87 155-206 155-117 0-234-85-234-257 0-166 114-254 235-254 119 0 187 76 211 156l110-36C689 100 581-15 400-15z"/><glyph glyph-name="D" unicode="D" horiz-adv-x="722" d="M205 110h126c123 0 225 79 225 243 0 166-101 246-224 246H205V110zM335 0H85v709h251c193 0 345-128 345-356C681 126 527 0 335 0z"/><glyph glyph-name="E" unicode="E" horiz-adv-x="582" d="M523 0H85v709h438V597H205V409h288V300H205V112h318V0z"/><glyph glyph-name="F" unicode="F" horiz-adv-x="557" d="M205 0H85v709h441V596H205V397h288V286H205V0z"/><glyph glyph-name="G" unicode="G" horiz-adv-x="774" d="M714 0h-97l-9 90C577 38 504-15 391-15 206-15 42 121 42 355c0 233 173 369 357 369 172 0 282-99 320-216l-113-43c-24 80-94 148-207 148-115 0-235-82-235-258 0-173 112-260 234-260 143 0 197 98 203 159H367v105h347V0z"/><glyph glyph-name="H" unicode="H" horiz-adv-x="744" d="M659 0H538v303H205V0H85v709h120V416h333v293h121V0z"/><glyph glyph-name="I" unicode="I" horiz-adv-x="292" d="M207 0H85v709h122V0z"/><glyph glyph-name="J" unicode="J" horiz-adv-x="547" d="M20 214v46l117 24v-66c0-83 47-120 109-120 64 0 104 43 104 115v496h120V216c0-126-88-231-223-231C108-15 20 76 20 214z"/><glyph glyph-name="K" unicode="K" horiz-adv-x="685" d="M520 0L299 307l-94-103V0H85v709h120V369l305 340h158L381 396 671 0H520z"/><glyph glyph-name="L" unicode="L" horiz-adv-x="555" d="M530 0H85v709h120V114h325V0z"/><glyph glyph-name="M" unicode="M" horiz-adv-x="950" d="M865 0H746v522L525 0H421L202 520V0H85v709h160l230-541 227 541h163V0z"/><glyph glyph-name="N" unicode="N" horiz-adv-x="765" d="M680 0H555L205 537V0H85v709h153l322-503v503h120V0z"/><glyph glyph-name="O" unicode="O" horiz-adv-x="805" d="M165 355c0-171 118-256 237-256 120 0 238 85 238 256S522 611 402 611c-119 0-237-85-237-256zm-123 0c0 232 174 369 360 369s361-137 361-369c0-233-175-370-361-370S42 122 42 355z"/><glyph glyph-name="P" unicode="P" horiz-adv-x="602" d="M205 383h125c76 0 122 42 122 109 0 68-46 111-122 111H205V383zm143-106H205V0H85v709h263c136 0 226-92 226-216 0-125-90-216-226-216z"/><glyph glyph-name="Q" unicode="Q" horiz-adv-x="805" d="M42 355c0 232 174 369 360 369s361-137 361-369c0-105-36-191-92-253l84-94-81-69-87 95C532 2 467-15 402-15 216-15 42 122 42 355zm123 0c0-171 118-256 237-256 36 0 73 7 106 23L391 252l82 70 118-131c30 41 49 95 49 164 0 171-118 256-238 256-119 0-237-85-237-256z"/><glyph glyph-name="R" unicode="R" horiz-adv-x="622" d="M443 0L294 280h-88V0H85v709h272c137 0 222-95 222-215 0-101-61-178-160-202L579 0H443zM206 386h129c74 0 122 43 122 108 0 66-48 109-122 109H206V386z"/><glyph glyph-name="S" unicode="S" horiz-adv-x="599" d="M551 543l-108-34c-7 44-44 109-139 109-72 0-122-48-122-102 0-45 28-79 83-91l102-21c125-25 192-104 192-204 0-110-89-215-251-215C128-15 45 101 34 203l112 32c7-74 60-142 162-142 85 0 129 43 129 98 0 46-34 83-95 96l-100 21C134 330 62 401 62 507c0 119 109 217 241 217 167 0 232-102 248-181z"/><glyph glyph-name="T" unicode="T" horiz-adv-x="607" d="M594 596H363V0H243v596H13v113h581V596z"/><glyph glyph-name="U" unicode="U" horiz-adv-x="683" d="M341-15C193-15 77 76 77 247v462h119V254c0-100 55-155 145-155 91 0 145 55 145 155v455h120V247C606 76 490-15 341-15z"/><glyph glyph-name="V" unicode="V" horiz-adv-x="674" d="M338 157l199 552h127L396 0H274L10 709h130z"/><glyph glyph-name="W" unicode="W" horiz-adv-x="1017" d="M741 187l139 522h124L805 0H681L509 536 337 0H214L13 709h126l142-518 166 518h125z"/><glyph glyph-name="X" unicode="X" horiz-adv-x="646" d="M631 709L395 354 630 0H486L321 259 154 0H13l237 355L15 709h144l165-260 166 260h141z"/><glyph glyph-name="Y" unicode="Y" horiz-adv-x="638" d="M258 300L10 709h142l170-297 171 297h135L378 300V0H258v300z"/><glyph glyph-name="Z" unicode="Z" horiz-adv-x="636" d="M595 0H42v118l393 478H53v113h537V595L192 114h403V0z"/><glyph glyph-name="bracketleft" unicode="[" horiz-adv-x="304" d="M299-157H85v956h214v-90H183V-66h116v-91z"/><glyph glyph-name="backslash" unicode="\" horiz-adv-x="457" d="M348-5L0 714h110L457-5H348z"/><glyph glyph-name="bracketright" unicode="]" horiz-adv-x="304" d="M219-157H5v91h116v775H5v90h214v-956z"/><glyph glyph-name="asciicircum" unicode="^" horiz-adv-x="526" d="M506 352H393L264 596 134 352H20l196 358h94z"/><glyph glyph-name="underscore" unicode="_" horiz-adv-x="531" d="M521-96H10V0h511v-96z"/><glyph glyph-name="grave" unicode="`" horiz-adv-x="285" d="M161 548L29 696h139l88-148h-95z"/><glyph glyph-name="a" unicode="a" horiz-adv-x="532" d="M45 132c0 87 64 135 147 147l125 19c28 4 36 18 36 35 0 41-28 74-92 74-61 0-95-39-100-88L55 343c9 84 85 159 205 159 150 0 207-85 207-182V78c0-44 5-73 6-78H365c-1 3-5 23-5 62-23-37-71-77-150-77C108-15 45 55 45 132zm187-56c65 0 121 31 121 126v22l-127-19c-36-6-65-26-65-66 0-33 25-63 71-63z"/><glyph glyph-name="b" unicode="b" horiz-adv-x="604" d="M188 0H75v724h114V427c22 38 78 73 153 73 146 0 225-111 225-254 0-147-87-258-229-258-69 0-122 30-150 77V0zm262 245c0 97-54 152-131 152-74 0-131-55-131-152 0-96 57-154 131-154 76 0 131 58 131 154z"/><glyph glyph-name="c" unicode="c" horiz-adv-x="541" d="M287 395c-71 0-134-53-134-151S216 91 289 91c76 0 111 53 122 90l102-37C490 68 417-15 289-15 146-15 37 96 37 244c0 150 109 258 249 258 131 0 203-82 223-160l-104-38c-11 43-44 91-118 91z"/><glyph glyph-name="d" unicode="d" horiz-adv-x="602" d="M153 245c0-93 52-155 131-155 76 0 129 63 129 156s-52 151-128 151-132-59-132-152zm372 479V89c0-44 4-81 5-89H419c-2 11-5 43-5 63-23-41-74-75-143-75C131-12 37 98 37 245c0 140 95 255 232 255 85 0 128-39 143-70v294h113z"/><glyph glyph-name="e" unicode="e" horiz-adv-x="548" d="M156 297h239c-2 57-40 108-120 108-73 0-115-56-119-108zm252-127l98-31C480 54 403-15 286-15 154-15 37 81 37 246c0 154 114 256 237 256 150 0 238-99 238-253 0-19-2-35-3-37H153c3-74 61-127 133-127 70 0 106 37 122 85z"/><glyph glyph-name="f" unicode="f" horiz-adv-x="350" d="M291 625c-31 0-72-14-72-74v-64h113V386H219V0H102v386H17v101h85v67c0 109 70 175 170 175 29 0 53-6 61-10v-99c-7 2-20 5-42 5z"/><glyph glyph-name="g" unicode="g" horiz-adv-x="589" d="M40-27L147 1c8-60 55-105 122-105 92 0 138 47 138 146v51c-21-38-70-71-141-71C136 22 41 122 41 259c0 130 91 237 225 237 76 0 123-31 144-71v62h112V46c0-130-67-251-250-251-129 0-219 80-232 178zm245 148c74 0 125 54 125 138 0 83-53 137-125 137-74 0-127-54-127-137 0-85 51-138 127-138z"/><glyph glyph-name="h" unicode="h" horiz-adv-x="574" d="M191 286V0H75v724h116V440c33 43 88 61 139 61 120 0 178-86 178-193V0H392v288c0 60-27 108-100 108-64 0-99-48-101-110z"/><glyph glyph-name="i" unicode="i" horiz-adv-x="265" d="M190 0H75v487h115V0zM57 658c0 42 34 76 75 76 42 0 76-34 76-76s-34-75-76-75c-41 0-75 33-75 75z"/><glyph glyph-name="j" unicode="j" horiz-adv-x="266" d="M75-40v527h116V-49c0-91-55-156-145-156-39 0-61 7-66 9v96c5-1 22-3 35-3 44 0 60 23 60 63zM57 659c0 42 34 76 75 76 42 0 76-34 76-76 0-41-34-75-76-75-41 0-75 34-75 75z"/><glyph glyph-name="k" unicode="k" horiz-adv-x="544" d="M531 487L331 281 535 0H393L250 199l-60-63V0H75v724h115V290l187 197h154z"/><glyph glyph-name="l" unicode="l" horiz-adv-x="266" d="M191 0H75v724h116V0z"/><glyph glyph-name="m" unicode="m" horiz-adv-x="873" d="M190 0H75v487h111v-62c28 50 89 76 144 76 64 0 120-29 146-86 38 64 95 86 158 86 88 0 172-56 172-185V0H694v297c0 57-29 100-94 100-61 0-101-48-101-108V0H385v297c0 56-28 100-94 100-62 0-101-46-101-108V0z"/><glyph glyph-name="n" unicode="n" horiz-adv-x="574" d="M191 281V0H75v487h113v-65c32 56 90 79 144 79 119 0 176-86 176-193V0H392v288c0 60-27 108-100 108-66 0-101-51-101-115z"/><glyph glyph-name="o" unicode="o" horiz-adv-x="579" d="M289 89c72 0 136 53 136 155 0 101-64 153-136 153-71 0-136-52-136-153S218 89 289 89zm0 413c146 0 253-109 253-258C542 94 435-15 289-15 144-15 37 94 37 244c0 149 107 258 252 258z"/><glyph glyph-name="p" unicode="p" horiz-adv-x="604" d="M190-190H75v677h112v-66c24 42 80 77 155 77 144 0 225-110 225-254 0-146-89-256-229-256-70 0-123 30-148 67v-245zm261 434c0 91-53 151-131 151-76 0-131-60-131-151 0-93 55-153 131-153 77 0 131 60 131 153z"/><glyph glyph-name="q" unicode="q" horiz-adv-x="596" d="M528-190H414V58c-24-43-75-70-143-70C132-12 37 100 37 245c0 140 89 254 231 254 85 0 132-42 149-77v65h111v-677zM154 245c0-93 54-155 130-155s131 62 131 155-55 151-131 151c-77 0-130-58-130-151z"/><glyph glyph-name="r" unicode="r" horiz-adv-x="380" d="M360 490V372c-13 2-26 3-38 3-90 0-131-52-131-143V0H75v487h113v-78c23 53 77 84 141 84 14 0 26-2 31-3z"/><glyph glyph-name="s" unicode="s" horiz-adv-x="457" d="M32 132l101 28c4-44 37-83 99-83 48 0 73 26 73 56 0 26-18 46-57 54l-72 16C90 222 45 278 45 345c0 85 78 157 179 157 136 0 180-88 188-136l-98-28c-4 28-25 73-90 73-41 0-70-26-70-56 0-26 19-45 49-51l74-15c92-20 140-76 140-148 0-74-60-156-184-156C92-15 38 77 32 132z"/><glyph glyph-name="t" unicode="t" horiz-adv-x="365" d="M222 636V487h101V384H222V158c0-43 19-61 62-61 16 0 35 3 40 4V5c-7-3-29-11-71-11-90 0-146 54-146 145v245H17v103h25c52 0 75 33 75 76v73h105z"/><glyph glyph-name="u" unicode="u" horiz-adv-x="577" d="M392 54c-24-44-81-68-138-68C138-14 70 72 70 180v307h116V201c0-60 28-111 98-111 67 0 102 45 102 109v288h116V89c0-40 3-71 5-89H396c-2 11-4 34-4 54z"/><glyph glyph-name="v" unicode="v" horiz-adv-x="525" d="M515 487L324 0H208L10 487h128l129-348 126 348h122z"/><glyph glyph-name="w" unicode="w" horiz-adv-x="814" d="M351 487h120l115-337 97 337h118L645 0H529L408 350 290 0H171L13 487h124l99-337z"/><glyph glyph-name="x" unicode="x" horiz-adv-x="513" d="M11 0l177 246L14 487h138c9-15 98-142 107-156l106 156h132L326 248 503 0H367L254 163C244 148 153 15 144 0H11z"/><glyph glyph-name="y" unicode="y" horiz-adv-x="543" d="M223-197H99L216 58 8 487h131l140-308 131 308h123z"/><glyph glyph-name="z" unicode="z" horiz-adv-x="474" d="M436 0H38v101l247 284H43v102h388v-98L181 102h255V0z"/><glyph glyph-name="braceleft" unicode="{" horiz-adv-x="365" d="M45 273v100c57 0 105 26 105 96v140c0 128 69 190 187 190h23v-89h-22c-60 0-90-28-90-97V447c0-65-38-110-102-124 64-15 102-60 102-125V32c0-69 30-96 90-96h22v-89h-23c-118 0-187 62-187 190v139c0 71-48 97-105 97z"/><glyph glyph-name="bar" unicode="|" horiz-adv-x="268" d="M183-153H85v952h98v-952z"/><glyph glyph-name="braceright" unicode="}" horiz-adv-x="365" d="M320 373V273c-57 0-105-26-105-97V37c0-128-69-190-187-190H5v89h22c60 0 90 27 90 96v166c0 65 38 110 102 125-64 14-102 59-102 124v166c0 69-30 97-90 97H5v89h23c118 0 187-62 187-190V469c0-70 48-96 105-96z"/><glyph glyph-name="asciitilde" unicode="~" horiz-adv-x="577" d="M287 236l-47 25c-18 9-35 14-52 14-35 0-67-20-92-54l-66 53c37 65 95 100 159 100 33 0 67-8 101-27l46-25c18-10 37-15 55-15 35 0 68 19 90 53l66-53c-37-65-94-99-158-99-33 0-67 9-102 28z"/><glyph glyph-name="uni00A0" horiz-adv-x="248"/><glyph glyph-name="exclamdown" unicode="¡" horiz-adv-x="291" d="M187 285l29-498H74l30 498h83zM72 429c0 40 33 73 73 73s74-33 74-73c0-41-34-73-74-73s-73 32-73 73z"/><glyph glyph-name="cent" unicode="¢" horiz-adv-x="546" d="M325 0h-91v90C124 112 45 206 45 325c0 121 80 212 189 234v90h91v-88c99-15 155-82 172-145l-100-35c-8 31-30 65-72 78V188c46 13 70 51 78 79l98-35c-20-63-77-131-176-145V0zM154 325c0-67 33-113 80-132v262c-47-19-80-63-80-130z"/><glyph glyph-name="sterling" unicode="£" horiz-adv-x="593" d="M67 368h64c-13 30-23 63-23 105 0 104 84 190 206 190 156 0 206-102 209-183l-110-18c-1 66-39 101-97 101-48 0-93-31-93-92 0-37 13-70 27-103h188v-95H279c1-8 2-16 2-24 0-61-28-115-83-146h177c58 0 88 43 88 94l108-12C571 78 504 0 398 0H62v104c66 25 107 76 107 133 0 12-2 24-4 36H67v95z"/><glyph glyph-name="currency" unicode="¤" horiz-adv-x="585" d="M80 242c0 42 12 81 33 114l-74 75 72 71 74-76c32 19 70 30 110 30 38 0 75-10 106-28l73 74 71-71-70-72c22-33 35-74 35-117s-13-83-34-116l69-70-70-70-71 72c-32-19-70-29-109-29-41 0-79 11-112 31l-73-74-71 70 73 74c-21 32-32 71-32 112zm99 0c0-68 50-117 116-117s115 49 115 117-49 117-115 117-116-49-116-117z"/><glyph glyph-name="yen" unicode="¥" horiz-adv-x="600" d="M535 144H361V0H245v144H74v84h171v74H74v84h111L23 648h135l146-251 142 251h130L418 386h117v-84H361v-74h174v-84z"/><glyph glyph-name="brokenbar" unicode="¦" horiz-adv-x="268" d="M85 799h98V400H85v399zm0-554h98v-399H85v399z"/><glyph glyph-name="section" unicode="§" horiz-adv-x="566" d="M488 246c0-61-41-105-80-125 53-37 82-90 82-144 0-115-100-189-209-189-129 0-202 76-205 187L185-5c0-68 34-109 97-109 53 0 90 30 90 81 0 31-19 58-50 74L219 94c-75 38-140 82-140 173 0 61 41 105 80 125-54 37-82 88-82 144 0 115 100 188 209 188 129 0 203-80 205-186l-110-20c0 69-35 108-96 108-54 0-91-33-91-81 0-30 18-56 51-73l102-53c74-38 141-83 141-173zm-161 55l-102 54c-22-15-38-39-38-67 0-32 13-56 52-76l101-54c22 15 39 38 39 67 0 32-14 55-52 76z"/><glyph glyph-name="dieresis" unicode="¨" horiz-adv-x="393" d="M32 625c0 36 28 65 64 65 37 0 66-29 66-65 0-37-29-65-66-65-36 0-64 28-64 65zm200 0c0 36 28 65 64 65s65-29 65-65c0-37-29-65-65-65s-64 28-64 65z"/><glyph glyph-name="copyright" unicode="©" horiz-adv-x="818" d="M124 355c0-166 124-294 284-294 159 0 284 128 284 294 0 165-125 293-284 293-160 0-284-128-284-293zm-82 0c0 203 163 369 366 369s368-166 368-369c0-204-165-370-368-370S42 151 42 355zm370 118c-56 0-106-41-106-118s50-120 107-120c60 0 87 41 96 70l80-29c-18-60-75-125-176-125-112 0-198 87-198 204 0 118 86 203 196 203 103 0 159-65 175-126l-82-30c-8 34-34 71-92 71z"/><glyph glyph-name="ordfeminine" unicode="ª" horiz-adv-x="425" d="M59 399c0 61 46 95 103 103l86 13c19 3 26 13 26 24 0 26-20 47-61 47-40 0-63-26-66-57l-81 17c6 56 57 113 147 113 108 0 148-61 148-130V360c0-28 3-51 4-55h-82c-1 3-4 20-4 42-17-27-50-52-102-52-73 0-118 49-118 104zm137-36c40 0 78 20 78 82v15l-82-12c-24-4-43-17-43-44 0-21 15-41 47-41z"/><glyph glyph-name="guillemotleft" unicode="«" horiz-adv-x="500" d="M274 100H163L28 293l136 194h111L141 292zm207 0H370L235 293l136 194h111L348 292z"/><glyph glyph-name="logicalnot" unicode="¬" horiz-adv-x="583" d="M523 142H422v195H45v97h478V142z"/><glyph glyph-name="uni00AD" unicode="­" horiz-adv-x="372" d="M327 241H45v103h282V241z"/><glyph glyph-name="registered" unicode="®" horiz-adv-x="818" d="M42 355c0 203 163 369 366 369s368-166 368-369c0-204-165-370-368-370S42 151 42 355zm82 0c0-166 124-294 284-294 159 0 284 128 284 294 0 165-125 293-284 293-160 0-284-128-284-293zm347-198l-76 144h-29V157h-86v401h149c78 0 137-57 137-128 0-55-33-99-82-118l85-155h-98zM366 374h49c40 0 63 21 63 55 0 35-23 56-63 56h-49V374z"/><glyph glyph-name="macron" unicode="¯" horiz-adv-x="338" d="M308 577H30v90h278v-90z"/><glyph glyph-name="degree" unicode="°" horiz-adv-x="372" d="M115 500c0-43 31-74 71-74s70 31 70 74-30 73-70 73-71-30-71-73zm-93 0c0 90 75 161 164 161 88 0 164-71 164-161 0-91-76-160-165-160-88 0-163 70-163 160z"/><glyph glyph-name="plusminus" unicode="±" horiz-adv-x="581" d="M63 405h178v129h99V405h178v-94H340V183h-99v128H63v94zm0-262h455V47H63v96z"/><glyph glyph-name="twosuperior" unicode="²" horiz-adv-x="392" d="M146 567l-84-1c-2 10-3 21-3 30 0 65 49 121 138 121 87 0 137-55 137-119 0-47-28-83-75-111l-71-43c-10-7-18-16-20-25h169v-76H56v12c0 63 24 114 87 152l60 36c27 16 41 35 41 56 0 22-16 44-49 44-32 0-52-21-52-52 0-5 1-16 3-24z"/><glyph glyph-name="threesuperior" unicode="³" horiz-adv-x="412" d="M55 444l80 24c5-33 32-58 69-58s61 22 61 49c0 37-30 51-61 51-12 0-21-2-31-6l-32 61 91 69H68v75h279v-72l-94-69c59-6 103-45 103-110 0-67-58-123-151-123-89 0-140 54-150 109z"/><glyph glyph-name="acute" unicode="´" horiz-adv-x="286" d="M256 696L125 548H30l89 148h137z"/><glyph glyph-name="mu" unicode="µ" horiz-adv-x="584" d="M397 54c-24-44-81-68-138-68-25 0-48 4-68 12v-188H75v677h116V201c0-60 28-111 98-111 67 0 102 45 102 109v288h116V89c0-31 2-62 5-89H401c-2 11-4 34-4 54z"/><glyph glyph-name="paragraph" unicode="¶" horiz-adv-x="648" d="M341 616v-813h-95v507h-17c-108 0-199 85-199 195 0 132 106 204 232 204h366v-93h-97v-813h-95v813h-95z"/><glyph glyph-name="periodcentered" unicode="·" horiz-adv-x="284" d="M65 298c0 43 35 78 78 78 44 0 79-35 79-78 0-44-35-77-79-77-43 0-78 33-78 77z"/><glyph glyph-name="cedilla" unicode="¸" horiz-adv-x="296" d="M117-105L82-62l48 75h78l-39-60c57-1 97-34 97-84 0-47-35-92-123-92-53 0-96 24-115 48l41 50c13-13 38-35 73-35 24 0 44 9 44 30 0 16-15 30-41 30-9 0-20-2-28-5z"/><glyph glyph-name="onesuperior" unicode="¹" horiz-adv-x="298" d="M223 343h-91v233H43v60c57 1 91 37 98 73h82V343z"/><glyph glyph-name="ordmasculine" unicode="º" horiz-adv-x="483" d="M242 376c47 0 89 34 89 101s-42 100-89 100-89-33-89-100c0-66 42-101 89-101zm0 283c103 0 180-76 180-182s-77-182-180-182S62 371 62 477s77 182 180 182z"/><glyph glyph-name="guillemotright" unicode="»" horiz-adv-x="500" d="M337 100H226l133 192-134 195h111l136-194zm-207 0H19l133 192L18 487h111l136-194z"/><glyph glyph-name="onequarter" unicode="¼" horiz-adv-x="796" d="M230 282h-91v233H50v60c57 1 91 37 98 73h82V282zM417 71v88l172 207h99V144h62V71h-62V0h-90v71H417zm181 73v125L495 144h103zM195 0H90l462 648h104z"/><glyph glyph-name="onehalf" unicode="½" horiz-adv-x="805" d="M230 282h-91v233H50v60c57 1 91 37 98 73h82V282zM194 0H89l462 648h104zm373 224l-84-1c-2 10-3 21-3 30 0 65 49 121 138 121 87 0 137-55 137-119 0-47-28-83-75-111l-71-43c-10-7-18-16-20-25h169V0H477v12c0 63 24 114 87 152l60 36c27 16 41 35 41 56 0 22-16 44-49 44-32 0-52-21-52-52 0-5 1-16 3-24z"/><glyph glyph-name="threequarters" unicode="¾" horiz-adv-x="869" d="M52 383l80 24c5-33 32-58 69-58s61 22 61 49c0 37-30 51-61 51-12 0-21-2-31-6l-32 61 91 69H65v75h279v-72l-94-69c59-6 103-45 103-110 0-67-58-123-151-123-89 0-140 54-150 109zM491 71v88l172 207h99V144h62V71h-62V0h-90v71H491zm181 73v125L569 144h103zM280 0H175l462 648h104z"/><glyph glyph-name="questiondown" unicode="¿" horiz-adv-x="487" d="M208 286h99c2-12 3-24 3-38 0-60-22-109-80-150l-46-33c-33-24-47-54-47-88 0-52 35-100 108-100 77 0 112 58 112 116 0 15-2 33-6 45l114-12c4-14 5-30 5-46 0-100-74-208-225-208C96-228 17-129 17-28c0 80 41 135 99 176l43 30c32 23 49 58 49 98v10zm-24 143c0 40 32 73 73 73 40 0 73-33 73-73s-33-73-73-73c-41 0-73 33-73 73z"/><glyph glyph-name="Agrave" unicode="À" horiz-adv-x="711" d="M570 0l-67 178H203L137 0H10l276 709h139L701 0H570zM353 579L245 289h216zm-47 180L163 883h148l103-124H306z"/><glyph glyph-name="Aacute" unicode="Á" horiz-adv-x="711" d="M570 0l-67 178H203L137 0H10l276 709h139L701 0H570zM353 579L245 289h216zm193 304L404 759H295l102 124h149z"/><glyph glyph-name="Acircumflex" unicode="Â" horiz-adv-x="711" d="M570 0l-67 178H203L137 0H10l276 709h139L701 0H570zM353 579L245 289h216zm-75 180H171l116 124h129l119-124H425l-75 64z"/><glyph glyph-name="Atilde" unicode="Ã" horiz-adv-x="711" d="M570 0l-67 178H203L137 0H10l276 709h139L701 0H570zM353 579L245 289h216zm164 307v-23c0-73-44-110-99-110-29 0-53 11-73 23l-10 7c-16 10-30 17-45 17s-30-11-30-33v-10h-75v22c0 74 45 110 100 110 29 0 54-11 74-23l10-6c16-9 30-17 43-17 17 0 31 9 31 33v10h74z"/><glyph glyph-name="Adieresis" unicode="Ä" horiz-adv-x="711" d="M134 821c0 37 29 67 66 67 38 0 67-30 67-67s-29-66-67-66c-37 0-66 29-66 66zm307 0c0 37 28 67 65 67 38 0 67-30 67-67s-29-66-67-66c-37 0-65 29-65 66zM570 0l-67 178H203L137 0H10l276 709h139L701 0H570zM353 579L245 289h216z"/><glyph glyph-name="Aring" unicode="Å" horiz-adv-x="711" d="M353 579L245 289h216zm0 130c28 0 50 20 50 50 0 29-22 49-50 49s-50-20-50-49c0-30 22-50 50-50zm130 50c0-38-16-70-42-93L701 0H570l-67 178H203L137 0H10l258 663c-27 23-44 57-44 96 0 72 60 126 129 126 70 0 130-54 130-126z"/><glyph glyph-name="AE" unicode="Æ" horiz-adv-x="1044" d="M986 0H548v180H271L156 0H7l470 709h509V597H668V409h288V300H668V112h318V0zM337 283h211v328z"/><glyph glyph-name="Ccedilla" unicode="Ç" horiz-adv-x="758" d="M370-105l-35 43 31 49C189 2 42 137 42 354c0 231 173 370 357 370 180 0 287-106 319-230l-113-38c-21 86-87 155-206 155-117 0-234-85-234-257 0-166 114-254 235-254 119 0 187 76 211 156l110-36C691 110 598 4 444-12l-22-35c57-1 97-34 97-84 0-47-35-92-123-92-53 0-96 24-115 48l41 50c13-13 38-35 73-35 24 0 44 9 44 30 0 16-15 30-41 30-9 0-20-2-28-5z"/><glyph glyph-name="Egrave" unicode="È" horiz-adv-x="582" d="M280 759L137 883h148l103-124H280zM523 0H85v709h438V597H205V409h288V300H205V112h318V0z"/><glyph glyph-name="Eacute" unicode="É" horiz-adv-x="582" d="M474 883L332 759H223l102 124h149zM523 0H85v709h438V597H205V409h288V300H205V112h318V0z"/><glyph glyph-name="Ecircumflex" unicode="Ê" horiz-adv-x="582" d="M228 759H121l116 124h129l119-124H375l-75 64zM523 0H85v709h438V597H205V409h288V300H205V112h318V0z"/><glyph glyph-name="Edieresis" unicode="Ë" horiz-adv-x="582" d="M125 821c0 37 29 67 66 67s67-30 67-67-30-66-67-66-66 29-66 66zm228 0c0 37 28 67 66 67 37 0 66-30 66-67s-29-66-66-66c-38 0-66 29-66 66zM523 0H85v709h438V597H205V409h288V300H205V112h318V0z"/><glyph glyph-name="Igrave" unicode="Ì" horiz-adv-x="292" d="M207 0H85v709h122V0zM96 759L-47 883h148l103-124H96z"/><glyph glyph-name="Iacute" unicode="Í" horiz-adv-x="292" d="M207 0H85v709h122V0zm132 883L197 759H88l102 124h149z"/><glyph glyph-name="Icircumflex" unicode="Î" horiz-adv-x="292" d="M207 0H85v709h122V0zM76 759H-31L85 883h129l119-124H223l-75 64z"/><glyph glyph-name="Idieresis" unicode="Ï" horiz-adv-x="292" d="M-2 821c0 35 27 63 62 63s63-28 63-63-28-63-63-63-62 28-62 63zm173 0c0 35 27 63 63 63 35 0 62-28 62-63s-27-63-62-63c-36 0-63 28-63 63zM207 0H85v709h122V0z"/><glyph glyph-name="Eth" unicode="Ð" horiz-adv-x="740" d="M349 0H99v319H17v93h82v297h251c193 0 345-128 345-356C695 126 541 0 349 0zM219 110h126c123 0 225 79 225 243 0 166-101 246-224 246H219V412h131v-93H219V110z"/><glyph glyph-name="Ntilde" unicode="Ñ" horiz-adv-x="765" d="M550 886v-23c0-73-44-110-99-110-29 0-53 11-73 23l-10 7c-16 10-30 17-45 17s-30-11-30-33v-10h-75v22c0 74 45 110 100 110 29 0 54-11 74-23l10-6c16-9 30-17 43-17 17 0 31 9 31 33v10h74zM680 0H555L205 537V0H85v709h153l322-503v503h120V0z"/><glyph glyph-name="Ograve" unicode="Ò" horiz-adv-x="805" d="M353 759L210 883h148l103-124H353zM165 355c0-171 118-256 237-256 120 0 238 85 238 256S522 611 402 611c-119 0-237-85-237-256zm-123 0c0 232 174 369 360 369s361-137 361-369c0-233-175-370-361-370S42 122 42 355z"/><glyph glyph-name="Oacute" unicode="Ó" horiz-adv-x="805" d="M590 883L448 759H339l102 124h149zM165 355c0-171 118-256 237-256 120 0 238 85 238 256S522 611 402 611c-119 0-237-85-237-256zm-123 0c0 232 174 369 360 369s361-137 361-369c0-233-175-370-361-370S42 122 42 355z"/><glyph glyph-name="Ocircumflex" unicode="Ô" horiz-adv-x="805" d="M328 759H221l116 124h129l119-124H475l-75 64zM165 355c0-171 118-256 237-256 120 0 238 85 238 256S522 611 402 611c-119 0-237-85-237-256zm-123 0c0 232 174 369 360 369s361-137 361-369c0-233-175-370-361-370S42 122 42 355z"/><glyph glyph-name="Otilde" unicode="Õ" horiz-adv-x="805" d="M569 887v-23c0-73-44-110-99-110-29 0-53 11-73 23l-10 7c-16 10-30 17-45 17s-30-11-30-33v-10h-75v22c0 74 45 110 100 110 29 0 54-11 74-23l10-6c16-9 30-17 43-17 17 0 31 9 31 33v10h74zM165 355c0-171 118-256 237-256 120 0 238 85 238 256S522 611 402 611c-119 0-237-85-237-256zm-123 0c0 232 174 369 360 369s361-137 361-369c0-233-175-370-361-370S42 122 42 355z"/><glyph glyph-name="Odieresis" unicode="Ö" horiz-adv-x="805" d="M175 821c0 37 29 67 66 67s67-30 67-67-30-66-67-66-66 29-66 66zm323 0c0 37 29 67 66 67s67-30 67-67-30-66-67-66-66 29-66 66zM165 355c0-171 118-256 237-256 120 0 238 85 238 256S522 611 402 611c-119 0-237-85-237-256zm-123 0c0 232 174 369 360 369s361-137 361-369c0-233-175-370-361-370S42 122 42 355z"/><glyph glyph-name="multiply" unicode="×" horiz-adv-x="548" d="M441 51L274 222 107 51l-69 69 168 172L39 463l69 69 166-171 166 171 69-69-167-171 168-172z"/><glyph glyph-name="Oslash" unicode="Ø" horiz-adv-x="805" d="M42 355c0 232 174 369 360 369 66 0 130-18 186-50l71 91 78-60-72-92c60-63 98-150 98-258 0-233-175-370-361-370-65 0-129 16-185 48l-68-88L69 4l71 91c-60 63-98 151-98 260zm123 0c0-69 18-123 49-164l303 391c-35 19-75 29-115 29-119 0-237-85-237-256zm475 0c0 67-19 121-48 162L289 126c35-18 74-27 113-27 120 0 238 85 238 256z"/><glyph glyph-name="Ugrave" unicode="Ù" horiz-adv-x="683" d="M307 759L164 883h148l103-124H307zm34-774C193-15 77 76 77 247v462h119V254c0-100 55-155 145-155 91 0 145 55 145 155v455h120V247C606 76 490-15 341-15z"/><glyph glyph-name="Uacute" unicode="Ú" horiz-adv-x="683" d="M513 883L371 759H262l102 124h149zM341-15C193-15 77 76 77 247v462h119V254c0-100 55-155 145-155 91 0 145 55 145 155v455h120V247C606 76 490-15 341-15z"/><glyph glyph-name="Ucircumflex" unicode="Û" horiz-adv-x="683" d="M267 759H160l116 124h129l119-124H414l-75 64zm74-774C193-15 77 76 77 247v462h119V254c0-100 55-155 145-155 91 0 145 55 145 155v455h120V247C606 76 490-15 341-15z"/><glyph glyph-name="Udieresis" unicode="Ü" horiz-adv-x="683" d="M158 821c0 37 28 67 66 67 37 0 66-30 66-67s-29-66-66-66c-38 0-66 29-66 66zm236 0c0 37 28 67 66 67 37 0 66-30 66-67s-29-66-66-66c-38 0-66 29-66 66zM341-15C193-15 77 76 77 247v462h119V254c0-100 55-155 145-155 91 0 145 55 145 155v455h120V247C606 76 490-15 341-15z"/><glyph glyph-name="Yacute" unicode="Ý" horiz-adv-x="638" d="M258 300L10 709h142l170-297 171 297h135L378 300V0H258v300zm236 583L352 759H243l102 124h149z"/><glyph glyph-name="Thorn" unicode="Þ" horiz-adv-x="599" d="M205 251h125c76 0 122 43 122 109 0 69-46 112-122 112H205V251zm138-104H205V0H85v709h120V576h137c134 0 232-92 232-215s-98-214-231-214z"/><glyph glyph-name="germandbls" unicode="ß" horiz-adv-x="583" d="M381 343c1-22 15-30 41-41l33-15c61-27 108-80 108-151 0-67-52-151-171-151-121 0-166 84-167 142l96 22c1-29 18-73 71-73 41 0 61 28 61 52 0 29-16 48-50 63l-32 14c-49 21-107 53-107 130 0 55 31 91 65 113l25 17c32 20 53 44 53 77 0 42-34 80-102 80-61 0-116-44-116-140V0H75v489c0 155 106 235 230 235 132 0 217-79 217-177 0-78-43-120-88-149l-24-15c-17-10-29-21-29-40z"/><glyph glyph-name="agrave" unicode="à" horiz-adv-x="532" d="M45 132c0 87 64 135 147 147l125 19c28 4 36 18 36 35 0 41-28 74-92 74-61 0-95-39-100-88L55 343c9 84 85 159 205 159 150 0 207-85 207-182V78c0-44 5-73 6-78H365c-1 3-5 23-5 62-23-37-71-77-150-77C108-15 45 55 45 132zm187-56c65 0 121 31 121 126v22l-127-19c-36-6-65-26-65-66 0-33 25-63 71-63zm-2 472L98 696h139l88-148h-95z"/><glyph glyph-name="aacute" unicode="á" horiz-adv-x="532" d="M45 132c0 87 64 135 147 147l125 19c28 4 36 18 36 35 0 41-28 74-92 74-61 0-95-39-100-88L55 343c9 84 85 159 205 159 150 0 207-85 207-182V78c0-44 5-73 6-78H365c-1 3-5 23-5 62-23-37-71-77-150-77C108-15 45 55 45 132zm187-56c65 0 121 31 121 126v22l-127-19c-36-6-65-26-65-66 0-33 25-63 71-63zm190 620L291 548h-95l89 148h137z"/><glyph glyph-name="acircumflex" unicode="â" horiz-adv-x="532" d="M45 132c0 87 64 135 147 147l125 19c28 4 36 18 36 35 0 41-28 74-92 74-61 0-95-39-100-88L55 343c9 84 85 159 205 159 150 0 207-85 207-182V78c0-44 5-73 6-78H365c-1 3-5 23-5 62-23-37-71-77-150-77C108-15 45 55 45 132zm187-56c65 0 121 31 121 126v22l-127-19c-36-6-65-26-65-66 0-33 25-63 71-63zm-39 473H96l107 143h121l108-143h-99l-70 77z"/><glyph glyph-name="atilde" unicode="ã" horiz-adv-x="532" d="M45 132c0 87 64 135 147 147l125 19c28 4 36 18 36 35 0 41-28 74-92 74-61 0-95-39-100-88L55 343c9 84 85 159 205 159 150 0 207-85 207-182V78c0-44 5-73 6-78H365c-1 3-5 23-5 62-23-37-71-77-150-77C108-15 45 55 45 132zm187-56c65 0 121 31 121 126v22l-127-19c-36-6-65-26-65-66 0-33 25-63 71-63zM102 556l-1 18c0 78 45 115 103 115 29 0 50-10 70-22l10-6c15-9 28-17 43-17 20 0 31 13 31 44h76v-17c0-78-44-117-102-117-29 0-51 11-71 23l-10 6c-15 9-28 16-43 16-20 0-30-12-30-43h-76z"/><glyph glyph-name="adieresis" unicode="ä" horiz-adv-x="532" d="M45 132c0 87 64 135 147 147l125 19c28 4 36 18 36 35 0 41-28 74-92 74-61 0-95-39-100-88L55 343c9 84 85 159 205 159 150 0 207-85 207-182V78c0-44 5-73 6-78H365c-1 3-5 23-5 62-23-37-71-77-150-77C108-15 45 55 45 132zm187-56c65 0 121 31 121 126v22l-127-19c-36-6-65-26-65-66 0-33 25-63 71-63zM99 625c0 36 28 65 64 65 37 0 66-29 66-65 0-37-29-65-66-65-36 0-64 28-64 65zm200 0c0 36 28 65 64 65s65-29 65-65c0-37-29-65-65-65s-64 28-64 65z"/><glyph glyph-name="aring" unicode="å" horiz-adv-x="532" d="M45 132c0 87 64 135 147 147l125 19c28 4 36 18 36 35 0 41-28 74-92 74-61 0-95-39-100-88L55 343c9 84 85 159 205 159 150 0 207-85 207-182V78c0-44 5-73 6-78H365c-1 3-5 23-5 62-23-37-71-77-150-77C108-15 45 55 45 132zm187-56c65 0 121 31 121 126v22l-127-19c-36-6-65-26-65-66 0-33 25-63 71-63zm141 572c0-63-53-110-114-110-60 0-113 47-113 110 0 64 53 111 113 111 61 0 114-47 114-111zm-70 0c0 26-19 45-45 45-24 0-43-19-43-45 0-25 19-44 43-44 26 0 45 19 45 44z"/><glyph glyph-name="ae" unicode="æ" horiz-adv-x="872" d="M731 171l98-32C803 54 720-15 607-15c-78 0-150 34-195 95-31-47-88-95-188-95C108-15 45 55 45 132c0 87 64 135 147 147l132 19c30 4 37 20 37 35 0 40-32 75-97 75-63 0-102-40-107-86L55 343c8 87 98 159 210 159 81 0 136-29 168-71 43 45 103 71 165 71 150 0 236-99 236-253 0-11-1-28-2-37H474c3-75 62-127 134-127 70 0 106 37 123 86zM236 76c59 0 125 31 125 125v23l-135-19c-38-5-65-28-65-68 0-31 26-61 75-61zm241 221h241c-2 57-41 108-121 108-74 0-116-56-120-108z"/><glyph glyph-name="ccedilla" unicode="ç" horiz-adv-x="541" d="M255-106l-35 43 33 51C129 4 37 109 37 244c0 150 109 258 249 258 131 0 203-82 223-160l-104-38c-11 43-44 91-118 91-71 0-134-53-134-151S216 91 289 91c76 0 111 53 122 90l102-37C492 76 433 3 330-12l-23-36c57-1 97-34 97-84 0-47-35-92-123-92-53 0-96 24-115 48l41 50c13-13 38-35 73-35 24 0 44 9 44 30 0 16-15 30-41 30-9 0-20-2-28-5z"/><glyph glyph-name="egrave" unicode="è" horiz-adv-x="548" d="M156 297h239c-2 57-40 108-120 108-73 0-115-56-119-108zm252-127l98-31C480 54 403-15 286-15 154-15 37 81 37 246c0 154 114 256 237 256 150 0 238-99 238-253 0-19-2-35-3-37H153c3-74 61-127 133-127 70 0 106 37 122 85zM244 548L112 696h139l88-148h-95z"/><glyph glyph-name="eacute" unicode="é" horiz-adv-x="548" d="M448 696L317 548h-95l89 148h137zM156 297h239c-2 57-40 108-120 108-73 0-115-56-119-108zm252-127l98-31C480 54 403-15 286-15 154-15 37 81 37 246c0 154 114 256 237 256 150 0 238-99 238-253 0-19-2-35-3-37H153c3-74 61-127 133-127 70 0 106 37 122 85z"/><glyph glyph-name="ecircumflex" unicode="ê" horiz-adv-x="548" d="M210 549h-97l107 143h121l108-143h-99l-70 77zm-54-252h239c-2 57-40 108-120 108-73 0-115-56-119-108zm252-127l98-31C480 54 403-15 286-15 154-15 37 81 37 246c0 154 114 256 237 256 150 0 238-99 238-253 0-19-2-35-3-37H153c3-74 61-127 133-127 70 0 106 37 122 85z"/><glyph glyph-name="edieresis" unicode="ë" horiz-adv-x="548" d="M115 625c0 36 28 65 64 65 37 0 66-29 66-65 0-37-29-65-66-65-36 0-64 28-64 65zm200 0c0 36 28 65 64 65s65-29 65-65c0-37-29-65-65-65s-64 28-64 65zM156 297h239c-2 57-40 108-120 108-73 0-115-56-119-108zm252-127l98-31C480 54 403-15 286-15 154-15 37 81 37 246c0 154 114 256 237 256 150 0 238-99 238-253 0-19-2-35-3-37H153c3-74 61-127 133-127 70 0 106 37 122 85z"/><glyph glyph-name="igrave" unicode="ì" horiz-adv-x="265" d="M190 0H75v487h115V0zM93 548L-39 696h139l88-148H93z"/><glyph glyph-name="iacute" unicode="í" horiz-adv-x="265" d="M307 696L176 548H81l89 148h137zM190 0H75v487h115V0z"/><glyph glyph-name="icircumflex" unicode="î" horiz-adv-x="265" d="M62 549h-97L72 692h121l108-143h-99l-70 77zM190 0H75v487h115V0z"/><glyph glyph-name="idieresis" unicode="ï" horiz-adv-x="265" d="M-10 625c0 35 26 62 61 62s62-27 62-62-27-61-62-61-61 26-61 61zm162 0c0 35 27 62 61 62 35 0 62-27 62-62s-27-61-62-61c-34 0-61 26-61 61zM190 0H75v487h115V0z"/><glyph glyph-name="eth" unicode="ð" horiz-adv-x="576" d="M495 629l-78-35c71-74 123-179 123-324 0-157-89-284-252-284C143-14 37 89 37 228c0 151 119 235 236 235 52 0 102-15 127-44-18 53-48 95-85 129l-135-61-31 72 92 42c-37 21-77 35-113 46l36 89c56-14 124-40 187-85l112 51zM288 89c72 0 135 49 135 140 0 92-63 140-135 140-71 0-136-50-136-140S217 89 288 89z"/><glyph glyph-name="ntilde" unicode="ñ" horiz-adv-x="574" d="M191 281V0H75v487h113v-65c32 56 90 79 144 79 119 0 176-86 176-193V0H392v288c0 60-27 108-100 108-66 0-101-51-101-115zm-58 275l-1 18c0 78 45 115 103 115 29 0 50-10 70-22l10-6c15-9 28-17 43-17 20 0 31 13 31 44h76v-17c0-78-44-117-102-117-29 0-51 11-71 23l-10 6c-15 9-28 16-43 16-20 0-30-12-30-43h-76z"/><glyph glyph-name="ograve" unicode="ò" horiz-adv-x="579" d="M289 89c72 0 136 53 136 155 0 101-64 153-136 153-71 0-136-52-136-153S218 89 289 89zm0 413c146 0 253-109 253-258C542 94 435-15 289-15 144-15 37 94 37 244c0 149 107 258 252 258zm-42 46L115 696h139l88-148h-95z"/><glyph glyph-name="oacute" unicode="ó" horiz-adv-x="579" d="M458 696L327 548h-95l89 148h137zM289 89c72 0 136 53 136 155 0 101-64 153-136 153-71 0-136-52-136-153S218 89 289 89zm0 413c146 0 253-109 253-258C542 94 435-15 289-15 144-15 37 94 37 244c0 149 107 258 252 258z"/><glyph glyph-name="ocircumflex" unicode="ô" horiz-adv-x="579" d="M220 549h-97l107 143h121l108-143h-99l-70 77zm69-460c72 0 136 53 136 155 0 101-64 153-136 153-71 0-136-52-136-153S218 89 289 89zm0 413c146 0 253-109 253-258C542 94 435-15 289-15 144-15 37 94 37 244c0 149 107 258 252 258z"/><glyph glyph-name="otilde" unicode="õ" horiz-adv-x="579" d="M289 89c72 0 136 53 136 155 0 101-64 153-136 153-71 0-136-52-136-153S218 89 289 89zm0 413c146 0 253-109 253-258C542 94 435-15 289-15 144-15 37 94 37 244c0 149 107 258 252 258zm-163 54l-1 18c0 78 45 115 103 115 29 0 50-10 70-22l10-6c15-9 28-17 43-17 20 0 31 13 31 44h76v-17c0-78-44-117-102-117-29 0-51 11-71 23l-10 6c-15 9-28 16-43 16-20 0-30-12-30-43h-76z"/><glyph glyph-name="odieresis" unicode="ö" horiz-adv-x="579" d="M124 625c0 36 28 65 64 65 37 0 66-29 66-65 0-37-29-65-66-65-36 0-64 28-64 65zm200 0c0 36 28 65 64 65s65-29 65-65c0-37-29-65-65-65s-64 28-64 65zM289 89c72 0 136 53 136 155 0 101-64 153-136 153-71 0-136-52-136-153S218 89 289 89zm0 413c146 0 253-109 253-258C542 94 435-15 289-15 144-15 37 94 37 244c0 149 107 258 252 258z"/><glyph glyph-name="divide" unicode="÷" horiz-adv-x="578" d="M215 111c0 39 33 71 72 71 40 0 72-32 72-71s-32-72-72-72c-39 0-72 33-72 72zm0 361c0 39 33 72 72 72 40 0 72-33 72-72s-32-72-72-72c-39 0-72 33-72 72zM52 242v99h474v-99H52z"/><glyph glyph-name="oslash" unicode="ø" horiz-adv-x="579" d="M289 502c48 0 92-12 129-33l52 65 62-51-52-65c39-45 62-106 62-174C542 94 435-15 289-15c-50 0-91 12-126 32l-50-63L50 5l50 63c-40 45-63 106-63 176 0 149 107 258 252 258zM153 244c0-34 7-62 19-85l178 224c-19 9-40 14-61 14-71 0-136-52-136-153zM289 89c72 0 136 53 136 155 0 32-7 60-18 82L230 102c18-9 38-13 59-13z"/><glyph glyph-name="ugrave" unicode="ù" horiz-adv-x="577" d="M392 54c-24-44-81-68-138-68C138-14 70 72 70 180v307h116V201c0-60 28-111 98-111 67 0 102 45 102 109v288h116V89c0-40 3-71 5-89H396c-2 11-4 34-4 54zM257 548L125 696h139l88-148h-95z"/><glyph glyph-name="uacute" unicode="ú" horiz-adv-x="577" d="M435 696L304 548h-95l89 148h137zM392 54c-24-44-81-68-138-68C138-14 70 72 70 180v307h116V201c0-60 28-111 98-111 67 0 102 45 102 109v288h116V89c0-40 3-71 5-89H396c-2 11-4 34-4 54z"/><glyph glyph-name="ucircumflex" unicode="û" horiz-adv-x="577" d="M216 549h-97l107 143h121l108-143h-99l-70 77zM392 54c-24-44-81-68-138-68C138-14 70 72 70 180v307h116V201c0-60 28-111 98-111 67 0 102 45 102 109v288h116V89c0-40 3-71 5-89H396c-2 11-4 34-4 54z"/><glyph glyph-name="udieresis" unicode="ü" horiz-adv-x="577" d="M122 625c0 36 28 65 64 65 37 0 66-29 66-65 0-37-29-65-66-65-36 0-64 28-64 65zm200 0c0 36 28 65 64 65s65-29 65-65c0-37-29-65-65-65s-64 28-64 65zm70-571c-24-44-81-68-138-68C138-14 70 72 70 180v307h116V201c0-60 28-111 98-111 67 0 102 45 102 109v288h116V89c0-40 3-71 5-89H396c-2 11-4 34-4 54z"/><glyph glyph-name="yacute" unicode="ý" horiz-adv-x="543" d="M223-197H99L216 58 8 487h131l140-308 131 308h123zm208 893L300 548h-95l89 148h137z"/><glyph glyph-name="thorn" unicode="þ" horiz-adv-x="604" d="M190-190H75v914h116V427c26 39 80 71 151 71 144 0 225-110 225-254 0-146-89-256-229-256-70 0-123 30-148 67v-245zm261 434c0 91-53 151-131 151-76 0-131-60-131-151 0-93 55-153 131-153 77 0 131 60 131 153z"/><glyph glyph-name="ydieresis" unicode="ÿ" horiz-adv-x="543" d="M223-197H99L216 58 8 487h131l140-308 131 308h123zM108 625c0 36 28 65 64 65 37 0 66-29 66-65 0-37-29-65-66-65-36 0-64 28-64 65zm200 0c0 36 28 65 64 65s65-29 65-65c0-37-29-65-65-65s-64 28-64 65z"/><glyph glyph-name="dotlessi" unicode="ı" horiz-adv-x="265" d="M190 0H75v487h115V0z"/><glyph glyph-name="Lslash" unicode="Ł" horiz-adv-x="572" d="M547 0H102v273L8 231v100l94 42v336h120V427l159 71V398l-159-71V114h325V0z"/><glyph glyph-name="lslash" unicode="ł" horiz-adv-x="309" d="M211 0H95v264L8 225v101l87 39v359h116V417l90 40V357l-90-41V0z"/><glyph glyph-name="OE" unicode="Œ" horiz-adv-x="1136" d="M1078 0H640v81c-60-62-144-96-238-96C216-15 42 122 42 355c0 232 174 369 360 369 94 0 178-34 238-97v82h437V597H760V409h288V300H760V112h318V0zM165 355c0-171 118-256 237-256 120 0 238 85 238 256S522 611 402 611c-119 0-237-85-237-256z"/><glyph glyph-name="oe" unicode="œ" horiz-adv-x="937" d="M289 502c80 0 148-32 194-87 43 53 110 87 180 87 150 0 238-99 238-253 0-19-2-35-3-37H542c3-74 61-127 133-127 70 0 106 37 122 85l98-31C869 54 792-15 675-15c-75 0-145 31-192 88-45-55-114-88-194-88C144-15 37 94 37 244c0 149 107 258 252 258zm0-413c72 0 136 53 136 155 0 101-64 153-136 153-71 0-136-52-136-153S218 89 289 89zm256 208h239c-2 57-40 108-120 108-73 0-115-56-119-108z"/><glyph glyph-name="Scaron" unicode="Š" horiz-adv-x="599" d="M127 883h109l72-65 75 65h108L372 759H243zm424-340l-108-34c-7 44-44 109-139 109-72 0-122-48-122-102 0-45 28-79 83-91l102-21c125-25 192-104 192-204 0-110-89-215-251-215C128-15 45 101 34 203l112 32c7-74 60-142 162-142 85 0 129 43 129 98 0 46-34 83-95 96l-100 21C134 330 62 401 62 507c0 119 109 217 241 217 167 0 232-102 248-181z"/><glyph glyph-name="scaron" unicode="š" horiz-adv-x="457" d="M61 694h98l70-77 70 77h98L291 549H167zM32 132l101 28c4-44 37-83 99-83 48 0 73 26 73 56 0 26-18 46-57 54l-72 16C90 222 45 278 45 345c0 85 78 157 179 157 136 0 180-88 188-136l-98-28c-4 28-25 73-90 73-41 0-70-26-70-56 0-26 19-45 49-51l74-15c92-20 140-76 140-148 0-74-60-156-184-156C92-15 38 77 32 132z"/><glyph glyph-name="Ydieresis" unicode="Ÿ" horiz-adv-x="638" d="M135 821c0 37 28 67 66 67 37 0 66-30 66-67s-29-66-66-66c-38 0-66 29-66 66zm239 0c0 37 29 67 66 67s67-30 67-67-30-66-67-66-66 29-66 66zM258 300L10 709h142l170-297 171 297h135L378 300V0H258v300z"/><glyph glyph-name="Zcaron" unicode="Ž" horiz-adv-x="636" d="M143 883h109l72-65 75 65h108L388 759H259zM595 0H42v118l393 478H53v113h537V595L192 114h403V0z"/><glyph glyph-name="zcaron" unicode="ž" horiz-adv-x="474" d="M73 694h98l70-77 70 77h98L303 549H179zM436 0H38v101l247 284H43v102h388v-98L181 102h255V0z"/><glyph glyph-name="florin" unicode="ƒ" horiz-adv-x="498" d="M120 24l73 364H90v99h123l21 101c22 107 100 152 177 152 43 0 59-5 82-12V627c-16 5-35 8-57 8-31 0-75-10-90-84l-13-64h122v-99H313L232-13C211-120 132-165 55-165c-44 0-61 5-85 12v101c16-4 36-7 61-7 31 0 75 10 89 83z"/><glyph glyph-name="circumflex" unicode="ˆ" horiz-adv-x="396" d="M127 549H30l107 143h121l108-143h-99l-70 77z"/><glyph glyph-name="caron" unicode="ˇ" horiz-adv-x="396" d="M30 694h98l70-77 70 77h98L260 549H136z"/><glyph glyph-name="uni02C9" unicode="ˉ" horiz-adv-x="338" d="M308 577H30v90h278v-90z"/><glyph glyph-name="breve" unicode="˘" horiz-adv-x="369" d="M184 547C84 547 32 619 30 694h82c2-29 22-61 72-61 51 0 71 33 73 61h82c-2-75-53-147-155-147z"/><glyph glyph-name="dotaccent" unicode="˙" horiz-adv-x="184" d="M20 622c0 40 32 72 72 72s72-32 72-72c0-39-32-71-72-71s-72 32-72 71z"/><glyph glyph-name="ring" unicode="˚" horiz-adv-x="287" d="M257 645c0-63-53-110-114-110-60 0-113 47-113 110 0 64 53 111 113 111 61 0 114-47 114-111zm-70 0c0 26-19 45-45 45-24 0-43-19-43-45 0-25 19-44 43-44 26 0 45 19 45 44z"/><glyph glyph-name="ogonek" unicode="˛" horiz-adv-x="228" d="M147-220c-67 0-119 40-119 104C28-41 85-4 130 16l68-16c-38-18-82-50-82-95 0-32 24-46 51-46 11 0 21 1 31 3v-74c-13-5-27-8-51-8z"/><glyph glyph-name="tilde" unicode="˜" horiz-adv-x="385" d="M27 556l-1 18c0 78 45 115 103 115 29 0 50-10 70-22l10-6c15-9 28-17 43-17 20 0 31 13 31 44h76v-17c0-78-44-117-102-117-29 0-51 11-71 23l-10 6c-15 9-28 16-43 16-20 0-30-12-30-43H27z"/><glyph glyph-name="hungarumlaut" unicode="˝" horiz-adv-x="383" d="M199 696l-94-148H29l52 148h118zm155 0L247 548h-76l64 148h119z"/><glyph glyph-name="uni0394" unicode="Δ" horiz-adv-x="678" d="M0 0l274 709h129L678 0H0zm338 576L167 111h343z"/><glyph glyph-name="uni03A9" unicode="Ω" horiz-adv-x="788" d="M394 614c-112 0-226-79-226-223 0-127 95-208 187-227V0H51v109h189C140 148 45 251 45 396c0 204 166 328 349 328s349-124 349-328c0-145-95-248-195-287h189V0H433v164c92 19 187 100 187 227 0 144-114 223-226 223z"/><glyph glyph-name="uni03BC" unicode="μ" horiz-adv-x="584" d="M397 54c-24-44-81-68-138-68-25 0-48 4-68 12v-188H75v677h116V201c0-60 28-111 98-111 67 0 102 45 102 109v288h116V89c0-31 2-62 5-89H401c-2 11-4 34-4 54z"/><glyph glyph-name="pi" unicode="π" horiz-adv-x="628" d="M582 5c-8-3-29-13-65-13-90 0-132 59-132 133v262H238V0H123v387H40v100h540V387h-80V139c0-36 24-48 51-48 14 0 22 1 31 4V5z"/><glyph glyph-name="uni2007" horiz-adv-x="619"/><glyph glyph-name="uni2008" horiz-adv-x="296"/><glyph glyph-name="uni200B" unicode="​" horiz-adv-x="0"/><glyph glyph-name="endash" unicode="–" horiz-adv-x="641" d="M577 242H63v101h514V242z"/><glyph glyph-name="emdash" unicode="—" horiz-adv-x="1092" d="M1019 242H73v101h946V242z"/><glyph glyph-name="quoteleft" unicode="‘" horiz-adv-x="226" d="M190 509c0-36-31-66-73-66-47 0-80 36-80 91 0 125 84 175 144 181v-55c-41-8-77-46-79-89 2 1 11 5 21 5 39 0 67-27 67-67z"/><glyph glyph-name="quoteright" unicode="’" horiz-adv-x="230" d="M37 649c0 36 31 68 74 68 48 0 83-38 83-93 0-130-87-180-148-186v55c41 8 78 47 80 92-2-1-11-5-21-5-40 0-68 28-68 69z"/><glyph glyph-name="quotesinglbase" unicode="‚" horiz-adv-x="230" d="M37 65c0 37 31 68 74 68 48 0 83-37 83-93 0-129-87-179-148-186v56c41 7 78 46 80 92-2-2-11-5-21-5-40 0-68 27-68 68z"/><glyph glyph-name="quotedblleft" unicode="“" horiz-adv-x="412" d="M375 512c0-36-31-66-73-66-46 0-80 36-80 91 0 125 85 175 144 181v-55c-40-7-76-46-78-89 2 1 10 5 20 5 40 0 67-27 67-67zm-185 0c0-36-31-66-73-66-47 0-80 36-80 91 0 125 84 175 144 181v-55c-41-7-77-46-79-89 2 1 11 5 21 5 39 0 67-27 67-67z"/><glyph glyph-name="quotedblright" unicode="”" horiz-adv-x="411" d="M37 648c0 37 30 67 72 67 47 0 81-36 81-91 0-126-85-174-145-181v54c41 8 77 45 79 90-2-2-11-5-21-5-39 0-66 26-66 66zm184 0c0 37 31 67 73 67 46 0 80-36 80-91 0-126-85-174-144-181v54c41 8 77 45 78 90-2-2-10-5-20-5-39 0-67 26-67 66z"/><glyph glyph-name="quotedblbase" unicode="„" horiz-adv-x="411" d="M37 63c0 37 30 67 72 67 47 0 81-36 81-91 0-126-85-174-145-181v54c41 8 77 45 79 90-2-2-11-5-21-5-39 0-66 26-66 66zm184 0c0 37 31 67 73 67 46 0 80-36 80-91 0-126-85-174-144-181v54c41 8 77 45 78 90-2-2-10-5-20-5-39 0-67 26-67 66z"/><glyph glyph-name="dagger" unicode="†" horiz-adv-x="401" d="M250 162h-99v308H27v94h124v145h99V564h124v-94H250V162z"/><glyph glyph-name="daggerdbl" unicode="‡" horiz-adv-x="441" d="M47 239h124v231H47v93h124v146h99V563h124v-93H270V239h124v-93H270V0h-99v146H47v93z"/><glyph glyph-name="bullet" unicode="•" horiz-adv-x="542" d="M63 294c0 116 94 209 208 209s208-93 208-209c0-113-94-207-208-207S63 181 63 294z"/><glyph glyph-name="ellipsis" unicode="…" horiz-adv-x="926" d="M844 65c0-40-32-73-73-73s-74 33-74 73c0 41 33 74 74 74s73-33 73-74zm-308 0c0-40-32-73-73-73s-74 33-74 73c0 41 33 74 74 74s73-33 73-74zm-307 0c0-40-33-73-74-73-40 0-73 33-73 73 0 41 33 74 73 74 41 0 74-33 74-74z"/><glyph glyph-name="perthousand" unicode="‰" horiz-adv-x="1070" d="M141 497c0-44 31-74 71-74 41 0 71 30 71 74 0 42-30 73-71 73-40 0-71-31-71-73zm-92 0c0 90 75 160 163 160 89 0 164-70 164-160 0-92-75-161-164-161S49 406 49 497zm510-345c0-44 32-74 72-74 41 0 71 30 71 74 0 42-30 73-71 73-40 0-72-31-72-73zM244 0H139l462 648h104zm548 152c0-44 31-74 71-74 41 0 72 30 72 74 0 42-31 73-72 73-40 0-71-31-71-73zm-325 0c0 90 75 160 164 160 49 0 89-21 116-55 27 34 67 55 116 55 89 0 165-70 165-160 0-92-76-161-165-161-49 0-89 21-116 55-27-34-68-55-117-55-88 0-163 70-163 161z"/><glyph glyph-name="guilsinglleft" unicode="‹" horiz-adv-x="293" d="M274 100H163L28 293l136 194h111L141 292z"/><glyph glyph-name="guilsinglright" unicode="›" horiz-adv-x="293" d="M130 100H19l133 192L18 487h112l135-194z"/><glyph glyph-name="uni2042" unicode="⁂" horiz-adv-x="836" d="M458 708V594l106 35 25-76-107-35 69-91-64-47-71 93-66-92-66 47 68 90-107 35 25 76 105-36v115h83zM248 317V203l106 35 25-76-107-35 69-91-64-47-71 93-66-92-66 47 68 90-107 35 25 76 105-36v115h83zm424 0V203l106 35 25-76-107-35 69-91-64-47-71 93-66-92-66 47 68 90-107 35 25 76 105-36v115h83z"/><glyph glyph-name="fraction" unicode="⁄" horiz-adv-x="566" d="M105 0H0l462 648h104z"/><glyph glyph-name="uni2051" unicode="⁑" horiz-adv-x="426" d="M254 708V594l106 35 25-76-107-35 69-91-64-47-71 93-66-92-66 47 68 90-107 35 25 76 105-36v115h83zm0-389V205l106 35 25-76-107-35 69-91-64-47-71 93-66-92-66 47 68 90-107 35 25 76 105-36v115h83z"/><glyph glyph-name="uni2070" unicode="⁰" horiz-adv-x="431" d="M147 526c0-52 9-114 68-114 60 0 68 62 68 114s-8 115-68 115c-59 0-68-62-68-115zm-92 0c0 91 37 191 160 191 125 0 161-102 161-191 0-87-35-190-161-190C90 336 55 437 55 526z"/><glyph glyph-name="uni2074" unicode="⁴" horiz-adv-x="443" d="M55 414v88l172 207h99V487h62v-73h-62v-71h-90v71H55zm181 73v125L133 487h103z"/><glyph glyph-name="uni2075" unicode="⁵" horiz-adv-x="404" d="M55 439l79 25c6-32 33-52 66-52 35 0 59 19 59 53 0 38-25 56-60 56-24 0-44-10-58-24l-74 24 47 188h214v-75H170l-19-73c17 17 45 25 72 25 76 0 126-45 126-119 0-72-53-131-149-131-77 0-134 48-145 103z"/><glyph glyph-name="uni2076" unicode="⁶" horiz-adv-x="418" d="M347 699l-18-68c-19 8-41 12-64 12-57 0-106-29-119-92 18 22 52 37 87 37 75 0 130-43 130-122 0-78-64-131-152-131-81 0-156 57-156 168 0 132 89 214 204 214 32 0 64-7 88-18zM151 464c0-35 30-55 61-55s60 20 60 55-29 56-60 56-61-21-61-56z"/><glyph glyph-name="uni2077" unicode="⁷" horiz-adv-x="413" d="M358 709v-77c-35-26-131-109-148-289h-96c16 189 132 290 132 290H55v76h303z"/><glyph glyph-name="uni2078" unicode="⁸" horiz-adv-x="415" d="M208 562c32 0 50 19 50 43 0 21-17 40-50 40s-51-19-51-40c0-24 19-43 51-43zm0-154c41 0 60 20 60 46 0 24-20 44-60 44s-61-20-61-44c0-26 20-46 61-46zm0-73c-96 0-151 46-151 109 0 39 28 73 71 87-39 14-60 47-60 81 0 61 55 105 140 105s139-44 139-105c0-34-21-67-59-81 42-14 71-48 71-85 0-64-54-111-151-111z"/><glyph glyph-name="uni2079" unicode="⁹" horiz-adv-x="417" d="M74 352l17 70c19-7 40-13 62-13 59 0 111 26 121 92-18-22-53-37-88-37-71 0-131 44-131 122 0 77 63 131 152 131 80 0 155-55 155-163 0-141-83-219-199-219-32 0-65 6-89 17zm191 235c0 35-28 56-61 56-32 0-60-21-60-56s28-56 60-56c33 0 61 21 61 56z"/><glyph glyph-name="uni2080" unicode="₀" horiz-adv-x="431" d="M147 110c0-52 9-114 68-114 60 0 68 62 68 114s-8 115-68 115c-59 0-68-62-68-115zm-92 0c0 91 37 191 160 191 125 0 161-102 161-191 0-87-35-190-161-190C90-80 55 21 55 110z"/><glyph glyph-name="uni2081" unicode="₁" horiz-adv-x="305" d="M223-90h-91v233H43v60c57 1 91 37 98 73h82V-90z"/><glyph glyph-name="uni2082" unicode="₂" horiz-adv-x="392" d="M146 134l-84-1c-2 10-3 21-3 30 0 65 49 121 138 121 87 0 137-55 137-119 0-47-28-83-75-111l-71-43c-10-7-18-16-20-25h169v-76H56v12c0 63 24 114 87 152l60 36c27 16 41 35 41 56 0 22-16 44-49 44-32 0-52-21-52-52 0-5 1-16 3-24z"/><glyph glyph-name="uni2083" unicode="₃" horiz-adv-x="412" d="M55 12l80 24c5-33 32-58 69-58s61 22 61 49c0 37-30 51-61 51-12 0-21-2-31-6l-32 61 91 69H68v75h279v-72l-94-69c59-6 103-45 103-110 0-67-58-123-151-123C116-97 65-43 55 12z"/><glyph glyph-name="uni2084" unicode="₄" horiz-adv-x="443" d="M55-19v88l172 207h99V54h62v-73h-62v-71h-90v71H55zm181 73v125L133 54h103z"/><glyph glyph-name="uni2085" unicode="₅" horiz-adv-x="404" d="M55 6l79 25c6-32 33-52 66-52 35 0 59 19 59 53 0 38-25 56-60 56-24 0-44-10-58-24L67 88l47 188h214v-75H170l-19-73c17 17 45 25 72 25 76 0 126-45 126-119 0-72-53-131-149-131C123-97 66-49 55 6z"/><glyph glyph-name="uni2086" unicode="₆" horiz-adv-x="418" d="M347 267l-18-68c-19 8-41 12-64 12-57 0-106-29-119-92 18 22 52 37 87 37 75 0 130-43 130-122 0-78-64-131-152-131C130-97 55-40 55 71c0 132 89 214 204 214 32 0 64-7 88-18zM151 32c0-35 30-55 61-55s60 20 60 55-29 56-60 56-61-21-61-56z"/><glyph glyph-name="uni2087" unicode="₇" horiz-adv-x="413" d="M358 276v-77C323 173 227 90 210-90h-96c16 189 132 290 132 290H55v76h303z"/><glyph glyph-name="uni2088" unicode="₈" horiz-adv-x="415" d="M208 129c32 0 50 19 50 43 0 21-17 40-50 40s-51-19-51-40c0-24 19-43 51-43zm0-154c41 0 60 20 60 46 0 24-20 44-60 44s-61-20-61-44c0-26 20-46 61-46zm0-73C112-98 57-52 57 11c0 39 28 73 71 87-39 14-60 47-60 81 0 61 55 105 140 105s139-44 139-105c0-34-21-67-59-81 42-14 71-48 71-85 0-64-54-111-151-111z"/><glyph glyph-name="uni2089" unicode="₉" horiz-adv-x="417" d="M74-80l17 70c19-7 40-13 62-13 59 0 111 26 121 92-18-22-53-37-88-37-71 0-131 44-131 122 0 77 63 131 152 131 80 0 155-55 155-163 0-141-83-219-199-219-32 0-65 6-89 17zm191 235c0 35-28 56-61 56-32 0-60-21-60-56s28-56 60-56c33 0 61 21 61 56z"/><glyph glyph-name="Euro" unicode="€" horiz-adv-x="683" d="M63 287h77c-1 9-2 23-2 36 0 16 1 26 2 36H63v87h94c48 140 178 217 312 217 70 0 126-15 171-46l-46-93c-33 24-76 35-125 35-77 0-150-36-187-113h275l-42-87H259c-1-8-2-19-2-35 0-18 1-30 2-37h226l-41-88H283c37-73 107-108 185-108 56 0 105 16 139 48l56-86c-47-40-115-68-195-68-135 0-262 76-310 214H63v88z"/><glyph glyph-name="uni2113" unicode="ℓ" horiz-adv-x="419" d="M32 266c7 1 34 8 68 24v211c0 101 60 163 144 163 89 0 143-57 143-156 0-100-65-209-177-280v-52c0-56 34-78 68-78 58 0 85 23 90 27V25c-3-4-28-30-100-30-110 0-168 67-168 161v22c-22-7-44-12-68-16v104zm246 245c0 35-10 52-33 52-18 0-35-14-35-59V359c38 37 68 86 68 152z"/><glyph glyph-name="trademark" unicode="™" horiz-adv-x="868" d="M332 632H225V344h-86v288H32v77h300v-77zm476-288h-82v227l-95-227h-64l-93 224V344h-84v365h115l97-232 95 232h111V344z"/><glyph glyph-name="Omega" unicode="Ω" horiz-adv-x="788" d="M394 614c-112 0-226-79-226-223 0-127 95-208 187-227V0H51v109h189C140 148 45 251 45 396c0 204 166 328 349 328s349-124 349-328c0-145-95-248-195-287h189V0H433v164c92 19 187 100 187 227 0 144-114 223-226 223z"/><glyph glyph-name="uni2160" unicode="Ⅰ" horiz-adv-x="501" d="M451 648V544H310V104h141V0H50v104h142v440H50v104h401z"/><glyph glyph-name="uni2161" unicode="Ⅱ" horiz-adv-x="779" d="M729 104V0H50v104h138v440H50v104h679V544H591V104h138zm-257 0v440H307V104h165z"/><glyph glyph-name="uni2162" unicode="Ⅲ" horiz-adv-x="1053" d="M1003 104V0H50v104h138v440H50v104h953V544H865V104h138zm-257 0v440H586V104h160zM307 544V104h160v440H307z"/><glyph glyph-name="uni2163" unicode="Ⅳ" horiz-adv-x="1032" d="M982 104V0H50v104h131v440H50v104h931V544H869L723 104h259zM299 544V104h226L379 544h-80zm327-389l122 389H504z"/><glyph glyph-name="uni2164" unicode="Ⅴ" horiz-adv-x="806" d="M756 648V544H647L501 104h252V0H53v104h250L156 544H50v104h706zM404 155l122 389H282z"/><glyph glyph-name="uni2165" unicode="Ⅵ" horiz-adv-x="1030" d="M980 104V0H50v104h256L159 544H50v104h930V544H849V104h131zM652 544L504 104h227v440h-79zM407 155l123 389H284z"/><glyph glyph-name="uni2166" unicode="Ⅶ" horiz-adv-x="1313" d="M1263 104V0H50v104h255L159 544H50v104h1213V544h-138V104h138zm-256 0v440H849V104h158zM651 544L503 104h227v440h-79zM406 155l123 389H284z"/><glyph glyph-name="uni2167" unicode="Ⅷ" horiz-adv-x="1570" d="M1520 104V0H50v104h253L160 544H50v104h1470V544h-134V104h134zM644 544L500 104h226v440h-82zm471 0V104h153v440h-153zm-270 0V104h152v440H845zM404 155l119 389H284z"/><glyph glyph-name="uni2168" unicode="Ⅸ" horiz-adv-x="1004" d="M954 104V0H50v104h131v440H50v104h903V544H849L688 318l155-214h111zM544 319L382 544h-83V104h87zm-23 225l95-138 96 138H521zm93-311l-91-129h181z"/><glyph glyph-name="uni2169" unicode="Ⅹ" horiz-adv-x="774" d="M724 648V544H619L458 318l155-214h111V0H50v104h107l158 215-162 225H50v104h674zM292 544l95-138 96 138H292zm93-311l-92-129h182z"/><glyph glyph-name="uni216C" unicode="Ⅼ" horiz-adv-x="656" d="M606 287V0H50v104h123v440H50v104h375V544H292V104h199v183h115z"/><glyph glyph-name="uni216D" unicode="Ⅽ" horiz-adv-x="730" d="M680 239V0H563v64c-39-46-97-79-187-79C204-15 50 114 50 324c0 212 156 340 325 340 88 0 146-31 184-75v61h117V416H559c-9 74-65 142-181 142-109 0-211-74-211-234 0-154 99-231 212-231 126 0 177 83 184 146h117z"/><glyph glyph-name="uni216E" unicode="Ⅾ" horiz-adv-x="739" d="M381 648c175-2 308-120 308-325C689 116 552 0 374 0H50v104h128v440H50v104h331zm-84-544h76c108 0 196 75 196 219 0 147-90 221-200 221h-72V104z"/><glyph glyph-name="uni216F" unicode="Ⅿ" horiz-adv-x="1059" d="M377 104V0H50v104h121v440H50v104h288l189-469 188 469h294V544H885V104h124V0H678v104h91v374L572 3h-90L287 477V104h90z"/><glyph glyph-name="arrowleft" unicode="←" horiz-adv-x="1046" d="M239 86L-5 292l244 208V343h742V242H239V86z"/><glyph glyph-name="arrowup" unicode="↑" horiz-adv-x="469" d="M252 800l215-257H302v-690H202v690H35z"/><glyph glyph-name="arrowright" unicode="→" horiz-adv-x="1058" d="M1019 292L745 68v174H29v100h716v175z"/><glyph glyph-name="arrowdown" unicode="↓" horiz-adv-x="465" d="M443 105L219-157-6 105h174v686h101V105h174z"/><glyph glyph-name="uni2196" unicode="↖" horiz-adv-x="875" d="M60 709h314L253 587 780 61l-71-71-527 526L60 393v316z"/><glyph glyph-name="uni2197" unicode="↗" horiz-adv-x="764" d="M355 709h314V393L546 516 20-10l-71 71 527 526z"/><glyph glyph-name="uni2198" unicode="↘" horiz-adv-x="865" d="M770 0H456l121 122L50 648l71 71 526-527 123 124V0z"/><glyph glyph-name="uni2199" unicode="↙" horiz-adv-x="755" d="M354 0H40v316l122-124 527 527 71-71-527-526z"/><glyph glyph-name="uni21A9" unicode="↩" horiz-adv-x="848" d="M401 557v100h193c137 0 233-93 233-214 0-118-94-214-230-214H231V73L-13 280l244 208V330h362c77 0 132 47 132 113 0 71-57 114-135 114H401z"/><glyph glyph-name="uni21B0" unicode="↰" horiz-adv-x="791" d="M288 310L43 517l245 207V567h418V0H606v467H288V310z"/><glyph glyph-name="uni21B1" unicode="↱" horiz-adv-x="736" d="M135 0H35v567h452v157l244-207-244-207v157H135V0z"/><glyph glyph-name="uni21B2" unicode="↲" horiz-adv-x="766" d="M584 709h101V142H232V-15L-12 192l244 207V242h352v467z"/><glyph glyph-name="uni21B3" unicode="↳" horiz-adv-x="846" d="M531 399l244-207L531-15v157H78v567h101V242h352v157z"/><glyph glyph-name="uni21B4" unicode="↴" horiz-adv-x="806" d="M58 609v100h572V225h157L581-16 374 225h156v384H58z"/><glyph glyph-name="uni21C6" unicode="⇆" horiz-adv-x="1139" d="M304 342L60 549l244 208V599h756V498H304V342zm780-176L840-41v157H85v100h755v157z"/><glyph glyph-name="partialdiff" unicode="∂" horiz-adv-x="617" d="M250 617c-31 0-86-5-143-33l-40 92c63 35 135 46 191 46 124 0 314-63 314-374 0-214-93-363-283-363C162-15 41 65 41 225c0 146 119 231 244 231 86 0 139-28 165-57-16 160-92 218-200 218zm58-261c-100 0-150-61-150-137 0-82 68-128 136-128 112 0 158 105 158 202-32 41-85 63-144 63z"/><glyph glyph-name="Delta" unicode="∆" horiz-adv-x="678" d="M0 0l274 709h129L678 0H0zm338 576L167 111h343z"/><glyph glyph-name="product" unicode="∏" horiz-adv-x="686" d="M601 0H483v600H205V0H85v709h516V0z"/><glyph glyph-name="summation" unicode="∑" horiz-adv-x="568" d="M40 0v107l263 248L40 602v107h507V598H203l260-243-269-244h353V0H40z"/><glyph glyph-name="minus" unicode="−" horiz-adv-x="555" d="M503 244H52v96h451v-96z"/><glyph glyph-name="uni2215" unicode="∕" horiz-adv-x="426" d="M426 653L107-5H0l319 658h107z"/><glyph glyph-name="uni2219" unicode="∙" horiz-adv-x="284" d="M65 298c0 43 35 78 78 78 44 0 79-35 79-78 0-44-35-77-79-77-43 0-78 33-78 77z"/><glyph glyph-name="radical" unicode="√" horiz-adv-x="683" d="M716 773H590L329 0H223L33 534h120l124-364 231 704h208V773z"/><glyph glyph-name="infinity" unicode="∞" horiz-adv-x="818" d="M408 213c-60-66-114-101-181-101-106 0-184 76-184 178s78 179 184 179c66 0 128-36 183-103 58 66 116 103 181 103 107 0 183-77 183-179s-77-178-184-178c-67 0-126 33-182 101zM229 369c-50 0-83-35-83-80s33-79 83-79c44 0 80 32 117 77-39 47-72 82-117 82zm359-159c51 0 83 34 83 79s-32 80-83 80c-44 0-77-34-117-79 38-46 73-80 117-80z"/><glyph glyph-name="integral" unicode="∫" horiz-adv-x="332" d="M109-24v560c0 107 66 173 173 173h45V606h-38c-39 0-65-24-65-71V-26c0-107-63-174-170-174H5v103h39c38 0 65 26 65 73z"/><glyph glyph-name="approxequal" unicode="≈" horiz-adv-x="583" d="M488 447l62-52c-37-59-93-92-155-92-35 0-68 9-105 30l-47 26c-19 10-39 15-58 15-32 0-63-15-88-46l-64 54c38 60 92 93 153 93 39 0 68-10 106-30l47-25c26-14 44-18 65-18 31 0 60 15 84 45zm0-197l62-53c-38-59-92-92-153-92-36 0-70 9-107 30l-47 26c-18 10-37 14-55 15-34 0-65-14-91-46l-64 54c38 60 92 93 154 93 34 0 68-10 105-30l47-25c21-11 39-18 63-18 32 0 62 14 86 46z"/><glyph glyph-name="notequal" unicode="≠" horiz-adv-x="598" d="M537 146H256l-67-98H79l67 98H62v95h150l70 102H62v94h285l66 95h109l-66-95h81v-94H392l-70-102h215v-95z"/><glyph glyph-name="lessequal" unicode="≤" horiz-adv-x="544" d="M60 143h422V47H60v96zm0 168v97l422 141v-99l-292-89 292-91v-99z"/><glyph glyph-name="greaterequal" unicode="≥" horiz-adv-x="544" d="M62 143h422V47H62v96zm422 265v-97L62 171v98l292 90-292 90v100z"/><glyph glyph-name="dotmath" unicode="⋅" horiz-adv-x="284" d="M65 298c0 43 35 78 78 78 44 0 79-35 79-78 0-44-35-77-79-77-43 0-78 33-78 77z"/><glyph glyph-name="uni24C5" unicode="Ⓟ" horiz-adv-x="818" d="M124 355c0-166 124-294 284-294 159 0 284 128 284 294 0 165-125 293-284 293-160 0-284-128-284-293zm-82 0c0 203 163 369 366 369s368-166 368-369c0-204-165-370-368-370S42 151 42 355zm329 14h61c40 0 64 22 64 57s-24 58-64 58h-61V369zm76-73h-76V156h-86v401h162c78 0 137-59 137-131s-59-130-137-130z"/><glyph glyph-name="filledbox" unicode="■" horiz-adv-x="914" d="M105 0v709h704V0H105z"/><glyph glyph-name="H22073" unicode="□" horiz-adv-x="914" d="M809 0H105v709h704V0zM205 613V95h503v518H205z"/><glyph glyph-name="triagup" unicode="▲" horiz-adv-x="838" d="M420 724L838 0H0z"/><glyph glyph-name="uni25B3" unicode="△" horiz-adv-x="837" d="M420 724L837 0H0zM665 95L419 525 172 95h493z"/><glyph glyph-name="lozenge" unicode="◊" horiz-adv-x="590" d="M160 354l135-231 134 231-134 232zm-128 0l205 355h116l205-355L353 0H237z"/><glyph glyph-name="circle" unicode="○" horiz-adv-x="821" d="M40 354c0 205 165 371 370 371s371-166 371-371S615-16 410-16 40 149 40 354zm101 0c0-151 120-273 269-273 150 0 269 122 269 273S560 627 410 627c-149 0-269-122-269-273z"/><glyph glyph-name="H18533" unicode="●" horiz-adv-x="821" d="M40 354c0 205 165 371 370 371s371-166 371-371S615-16 410-16 40 149 40 354z"/><glyph glyph-name="uni262E" unicode="☮" horiz-adv-x="818" d="M776 355c0-204-164-370-368-370C205-15 42 151 42 355c0 203 163 369 366 369 204 0 368-166 368-369zm-99 0c0 138-95 249-221 272V412l192-179c18 36 29 77 29 122zm-539 0c0-44 10-85 28-120l191 177v214c-126-23-219-134-219-271zM456 82c52 9 99 34 136 70L456 282V82zm-235 71c36-37 83-62 136-71v200z"/><glyph glyph-name="uni2713" unicode="✓" horiz-adv-x="954" d="M934 656L308-17 20 304l73 68 219-239 551 594z"/><glyph glyph-name="uni2715" unicode="✕" horiz-adv-x="756" d="M663-5L377 284 92-5 22 66l284 289L22 642l72 71 283-287 282 287 71-71-283-287L734 66z"/><glyph glyph-name="uni2780" unicode="➀" horiz-adv-x="821" d="M125 355c0-166 125-294 285-294 159 0 284 128 284 294 0 165-125 293-284 293-160 0-285-128-285-293zm-82 0c0 203 164 369 367 369s368-166 368-369c0-204-165-370-368-370S43 151 43 355zm428-183h-91v233h-89v60c57 1 91 37 98 73h82V172z"/><glyph glyph-name="uni2781" unicode="➁" horiz-adv-x="821" d="M125 355c0-166 125-294 285-294 159 0 284 128 284 294 0 165-125 293-284 293-160 0-285-128-285-293zm-82 0c0 203 164 369 367 369s368-166 368-369c0-204-165-370-368-370S43 151 43 355zm312 49l-84-1c-2 10-3 21-3 30 0 65 49 121 138 121 87 0 137-55 137-119 0-47-28-83-75-111l-71-43c-10-7-18-16-20-25h169v-76H265v12c0 63 24 114 87 152l60 36c27 16 41 35 41 56 0 22-16 44-49 44-32 0-52-21-52-52 0-5 1-16 3-24z"/><glyph glyph-name="uni2782" unicode="➂" horiz-adv-x="821" d="M125 355c0-166 125-294 285-294 159 0 284 128 284 294 0 165-125 293-284 293-160 0-285-128-285-293zm-82 0c0 203 164 369 367 369s368-166 368-369c0-204-165-370-368-370S43 151 43 355zm211-84l80 24c5-33 32-58 69-58s61 22 61 49c0 37-30 51-61 51-12 0-21-2-31-6l-32 61 91 69H267v75h279v-72l-94-69c59-6 103-45 103-110 0-67-58-123-151-123-89 0-140 54-150 109z"/><glyph glyph-name="uni2783" unicode="➃" horiz-adv-x="821" d="M125 355c0-166 125-294 285-294 159 0 284 128 284 294 0 165-125 293-284 293-160 0-285-128-285-293zm-82 0c0 203 164 369 367 369s368-166 368-369c0-204-165-370-368-370S43 151 43 355zm190-106v88l172 207h99V322h62v-73h-62v-71h-90v71H233zm181 73v125L311 322h103z"/><glyph glyph-name="uni2784" unicode="➄" horiz-adv-x="821" d="M125 355c0-166 125-294 285-294 159 0 284 128 284 294 0 165-125 293-284 293-160 0-285-128-285-293zm-82 0c0 203 164 369 367 369s368-166 368-369c0-204-165-370-368-370S43 151 43 355zm211-92l79 25c6-32 33-52 66-52 35 0 59 19 59 53 0 38-25 56-60 56-24 0-44-10-58-24l-74 24 47 188h214v-75H369l-19-73c17 17 45 25 72 25 76 0 126-45 126-119 0-72-53-131-149-131-77 0-134 48-145 103z"/><glyph glyph-name="uni2785" unicode="➅" horiz-adv-x="821" d="M125 355c0-166 125-294 285-294 159 0 284 128 284 294 0 165-125 293-284 293-160 0-285-128-285-293zm-82 0c0 203 164 369 367 369s368-166 368-369c0-204-165-370-368-370S43 151 43 355zm492 174l-18-68c-19 8-41 12-64 12-57 0-106-29-119-92 18 22 52 37 87 37 75 0 130-43 130-122 0-78-64-131-152-131-81 0-156 57-156 168 0 132 89 214 204 214 32 0 64-7 88-18zM339 294c0-35 30-55 61-55s60 20 60 55-29 56-60 56-61-21-61-56z"/><glyph glyph-name="uni2786" unicode="➆" horiz-adv-x="821" d="M125 355c0-166 125-294 285-294 159 0 284 128 284 294 0 165-125 293-284 293-160 0-285-128-285-293zm-82 0c0 203 164 369 367 369s368-166 368-369c0-204-165-370-368-370S43 151 43 355zm518 176v-77c-35-26-131-109-148-289h-96c16 189 132 290 132 290H258v76h303z"/><glyph glyph-name="uni2787" unicode="➇" horiz-adv-x="821" d="M125 355c0-166 125-294 285-294 159 0 284 128 284 294 0 165-125 293-284 293-160 0-285-128-285-293zm-82 0c0 203 164 369 367 369s368-166 368-369c0-204-165-370-368-370S43 151 43 355zm367 37c32 0 50 19 50 43 0 21-17 40-50 40s-51-19-51-40c0-24 19-43 51-43zm0-154c41 0 60 20 60 46 0 24-20 44-60 44s-61-20-61-44c0-26 20-46 61-46zm0-73c-96 0-151 46-151 109 0 39 28 73 71 87-39 14-60 47-60 81 0 61 55 105 140 105s139-44 139-105c0-34-21-67-59-81 42-14 71-48 71-85 0-64-54-111-151-111z"/><glyph glyph-name="uni2788" unicode="➈" horiz-adv-x="821" d="M125 355c0-166 125-294 285-294 159 0 284 128 284 294 0 165-125 293-284 293-160 0-285-128-285-293zm-82 0c0 203 164 369 367 369s368-166 368-369c0-204-165-370-368-370S43 151 43 355zm237-174l17 70c19-7 40-13 62-13 59 0 111 26 121 92-18-22-53-37-88-37-71 0-131 44-131 122 0 77 63 131 152 131 80 0 155-55 155-163 0-141-83-219-199-219-32 0-65 6-89 17zm191 235c0 35-28 56-61 56-32 0-60-21-60-56s28-56 60-56c33 0 61 21 61 56z"/><glyph glyph-name="uniE020" unicode="" horiz-adv-x="776" d="M222-16L15 225h157v484h572V609H273V225h156z"/><glyph glyph-name="uni21B5" unicode="" horiz-adv-x="1097" d="M239 122L40 355h143c1 205 166 369 370 369 64 0 125-16 177-44l-45-90c-40 22-84 34-131 34-150 0-270-120-270-269h153zm682 231C920 149 755-15 551-15c-64 0-124 16-177 44l45 90c40-22 84-34 132-34 149 0 268 120 268 269H669l199 232 199-233H921z"/><glyph glyph-name="uniE022" unicode="" horiz-adv-x="953" d="M531 354l198 232 199-232H786c0-204-165-369-370-369C212-15 47 150 47 354c0 205 165 370 369 370 61 0 118-14 169-40l-42-91c-38 20-81 31-126 31-150 0-269-120-269-270S267 83 417 83c149 0 268 121 268 271H531z"/><glyph glyph-name="uniFB00" unicode="ﬀ" horiz-adv-x="670" d="M611 625c-30 0-72-14-72-74v-64h113V386H539V0H422v386H219V0H102v386H17v101h85v67c0 109 70 175 170 175 29 0 53-6 61-10v-99c-7 2-20 5-42 5-30 0-72-14-72-74v-64h203v67c0 109 70 175 170 175 29 0 53-6 61-10v-99c-7 2-20 5-42 5z"/><glyph glyph-name="fi" unicode="ﬁ" horiz-adv-x="619" d="M272 729c29 0 53-6 61-10v-99c-7 2-20 5-42 5-30 0-72-14-72-74v-64h324V0H429v386H219V0H102v386H17v101h85v67c0 109 70 175 170 175zm139-70c0 42 33 76 75 76s76-34 76-76c0-41-34-75-76-75s-75 34-75 75z"/><glyph glyph-name="fl" unicode="ﬂ" horiz-adv-x="617" d="M291 625c-30 0-72-14-72-74v-64h208v237h115V0H427v386H219V0H102v386H17v101h85v67c0 109 70 175 170 175 29 0 53-6 61-10v-99c-7 2-20 5-42 5z"/><glyph glyph-name="uniFB03" unicode="ﬃ" horiz-adv-x="940" d="M732 659c0 42 34 76 75 76 42 0 76-34 76-76 0-41-34-75-76-75-41 0-75 34-75 75zm-121-34c-30 0-72-14-72-74v-64h326V0H750v386H539V0H422v386H219V0H102v386H17v101h85v67c0 109 70 175 170 175 29 0 53-6 61-10v-99c-7 2-20 5-42 5-31 0-72-14-72-74v-64h203v67c0 109 70 175 170 175 29 0 53-6 61-10v-99c-7 2-20 5-42 5z"/><glyph glyph-name="uniFB04" unicode="ﬄ" horiz-adv-x="940" d="M611 625c-30 0-72-14-72-74v-64h211v237h115V0H750v386H539V0H422v386H219V0H102v386H17v101h85v67c0 109 70 175 170 175 29 0 53-6 61-10v-99c-7 2-20 5-42 5-30 0-72-14-72-74v-64h203v67c0 109 70 175 170 175 29 0 53-6 61-10v-99c-7 2-20 5-42 5z"/><glyph glyph-name="uniFEFF" horiz-adv-x="0"/><glyph glyph-name="zero.numr" horiz-adv-x="431" d="M147 465c0-52 9-114 68-114 60 0 68 62 68 114s-8 115-68 115c-59 0-68-62-68-115zm-92 0c0 91 37 191 160 191 125 0 161-102 161-191 0-87-35-190-161-190C90 275 55 376 55 465z"/><glyph glyph-name="one.numr" horiz-adv-x="308" d="M223 282h-91v233H43v60c57 1 91 37 98 73h82V282z"/><glyph glyph-name="two.numr" horiz-adv-x="392" d="M146 506l-84-1c-2 10-3 21-3 30 0 65 49 121 138 121 87 0 137-55 137-119 0-47-28-83-75-111l-71-43c-10-7-18-16-20-25h169v-76H56v12c0 63 24 114 87 152l60 36c27 16 41 35 41 56 0 22-16 44-49 44-32 0-52-21-52-52 0-5 1-16 3-24z"/><glyph glyph-name="three.numr" horiz-adv-x="412" d="M55 383l80 24c5-33 32-58 69-58s61 22 61 49c0 37-30 51-61 51-12 0-21-2-31-6l-32 61 91 69H68v75h279v-72l-94-69c59-6 103-45 103-110 0-67-58-123-151-123-89 0-140 54-150 109z"/><glyph glyph-name="four.numr" horiz-adv-x="443" d="M55 353v88l172 207h99V426h62v-73h-62v-71h-90v71H55zm181 73v125L133 426h103z"/><glyph glyph-name="five.numr" horiz-adv-x="388" d="M55 378l79 25c6-32 33-52 66-52 35 0 59 19 59 53 0 38-25 56-60 56-24 0-44-10-58-24l-74 24 47 188h214v-75H170l-19-73c17 17 45 25 72 25 76 0 126-45 126-119 0-72-53-131-149-131-77 0-134 48-145 103z"/><glyph glyph-name="six.numr" horiz-adv-x="418" d="M347 638l-18-68c-19 8-41 12-64 12-57 0-106-29-119-92 18 22 52 37 87 37 75 0 130-43 130-122 0-78-64-131-152-131-81 0-156 57-156 168 0 132 89 214 204 214 32 0 64-7 88-18zM151 403c0-35 30-55 61-55s60 20 60 55-29 56-60 56-61-21-61-56z"/><glyph glyph-name="seven.numr" horiz-adv-x="413" d="M358 648v-77c-35-26-131-109-148-289h-96c16 189 132 290 132 290H55v76h303z"/><glyph glyph-name="eight.numr" horiz-adv-x="415" d="M208 501c32 0 50 19 50 43 0 21-17 40-50 40s-51-19-51-40c0-24 19-43 51-43zm0-154c41 0 60 20 60 46 0 24-20 44-60 44s-61-20-61-44c0-26 20-46 61-46zm0-73c-96 0-151 46-151 109 0 39 28 73 71 87-39 14-60 47-60 81 0 61 55 105 140 105s139-44 139-105c0-34-21-67-59-81 42-14 71-48 71-85 0-64-54-111-151-111z"/><glyph glyph-name="nine.numr" horiz-adv-x="417" d="M74 290l17 70c19-7 40-13 62-13 59 0 111 26 121 92-18-22-53-37-88-37-71 0-131 44-131 122 0 77 63 131 152 131 80 0 155-55 155-163 0-141-83-219-199-219-32 0-65 6-89 17zm191 235c0 35-28 56-61 56-32 0-60-21-60-56s28-56 60-56c33 0 61 21 61 56z"/><glyph glyph-name="zero.dnom" horiz-adv-x="431" d="M147 183c0-52 9-114 68-114 60 0 68 62 68 114s-8 115-68 115c-59 0-68-62-68-115zm-92 0c0 91 37 191 160 191 125 0 161-102 161-191C376 96 341-7 215-7 90-7 55 94 55 183z"/><glyph glyph-name="one.dnom" horiz-adv-x="305" d="M223 0h-91v233H43v60c57 1 91 37 98 73h82V0z"/><glyph glyph-name="two.dnom" horiz-adv-x="392" d="M146 224l-84-1c-2 10-3 21-3 30 0 65 49 121 138 121 87 0 137-55 137-119 0-47-28-83-75-111l-71-43c-10-7-18-16-20-25h169V0H56v12c0 63 24 114 87 152l60 36c27 16 41 35 41 56 0 22-16 44-49 44-32 0-52-21-52-52 0-5 1-16 3-24z"/><glyph glyph-name="three.dnom" horiz-adv-x="412" d="M55 102l80 24c5-33 32-58 69-58s61 22 61 49c0 37-30 51-61 51-12 0-21-2-31-6l-32 61 91 69H68v75h279v-72l-94-69c59-6 103-45 103-110C356 49 298-7 205-7 116-7 65 47 55 102z"/><glyph glyph-name="four.dnom" horiz-adv-x="443" d="M55 71v88l172 207h99V144h62V71h-62V0h-90v71H55zm181 73v125L133 144h103z"/><glyph glyph-name="five.dnom" horiz-adv-x="404" d="M55 96l79 25c6-32 33-52 66-52 35 0 59 19 59 53 0 38-25 56-60 56-24 0-44-10-58-24l-74 24 47 188h214v-75H170l-19-73c17 17 45 25 72 25 76 0 126-45 126-119C349 52 296-7 200-7 123-7 66 41 55 96z"/><glyph glyph-name="six.dnom" horiz-adv-x="418" d="M347 357l-18-68c-19 8-41 12-64 12-57 0-106-29-119-92 18 22 52 37 87 37 75 0 130-43 130-122C363 46 299-7 211-7 130-7 55 50 55 161c0 132 89 214 204 214 32 0 64-7 88-18zM151 122c0-35 30-55 61-55s60 20 60 55-29 56-60 56-61-21-61-56z"/><glyph glyph-name="seven.dnom" horiz-adv-x="413" d="M358 366v-77C323 263 227 180 210 0h-96c16 189 132 290 132 290H55v76h303z"/><glyph glyph-name="eight.dnom" horiz-adv-x="415" d="M208 219c32 0 50 19 50 43 0 21-17 40-50 40s-51-19-51-40c0-24 19-43 51-43zm0-154c41 0 60 20 60 46 0 24-20 44-60 44s-61-20-61-44c0-26 20-46 61-46zm0-73C112-8 57 38 57 101c0 39 28 73 71 87-39 14-60 47-60 81 0 61 55 105 140 105s139-44 139-105c0-34-21-67-59-81 42-14 71-48 71-85C359 39 305-8 208-8z"/><glyph glyph-name="nine.dnom" horiz-adv-x="417" d="M74 9l17 70c19-7 40-13 62-13 59 0 111 26 121 92-18-22-53-37-88-37-71 0-131 44-131 122 0 77 63 131 152 131 80 0 155-55 155-163C362 70 279-8 163-8 131-8 98-2 74 9zm191 235c0 35-28 56-61 56-32 0-60-21-60-56s28-56 60-56c33 0 61 21 61 56z"/><glyph glyph-name="space.frac" horiz-adv-x="49"/><glyph glyph-name="a.ordn" horiz-adv-x="425" d="M59 399c0 61 46 95 103 103l86 13c19 3 26 13 26 24 0 26-20 47-61 47-40 0-63-26-66-57l-81 17c6 56 57 113 147 113 108 0 148-61 148-130V360c0-28 3-51 4-55h-82c-1 3-4 20-4 42-17-27-50-52-102-52-73 0-118 49-118 104zm137-36c40 0 78 20 78 82v15l-82-12c-24-4-43-17-43-44 0-21 15-41 47-41z"/><glyph glyph-name="b.ordn" horiz-adv-x="499" d="M173 305H85v507h89V609c15 26 53 48 105 48 101 0 158-77 158-179 0-104-63-181-161-181-49 0-85 21-103 51v-43zm174 173c0 64-38 99-87 99-48 0-87-35-87-99 0-65 39-101 87-101 49 0 87 36 87 101z"/><glyph glyph-name="c.ordn" horiz-adv-x="461" d="M241 576c-48 0-89-35-89-100 0-63 41-99 90-99s73 33 81 59l80-27c-16-56-70-114-161-114-101 0-180 76-180 181 0 107 78 183 178 183 93 0 145-58 160-115l-81-28c-7 29-30 60-78 60z"/><glyph glyph-name="d.ordn" horiz-adv-x="501" d="M413 812V367c0-30 3-54 4-62h-87c-2 7-3 24-3 40-17-27-51-48-98-48-98 0-167 77-167 181 0 100 68 179 165 179 59 0 88-25 98-44v199h88zM153 477c0-62 36-101 87-101 49 0 86 40 86 102 0 63-37 99-86 99s-87-37-87-100z"/><glyph glyph-name="e.ordn" horiz-adv-x="457" d="M150 516h158c-1 35-25 70-79 70-49 0-76-37-79-70zm167-90l76-22c-19-61-73-109-157-109-94 0-177 67-177 184 0 109 81 180 169 180 106 0 169-68 169-178 0-14-2-27-2-28H148c2-47 41-82 89-82 45 0 69 24 80 55z"/><glyph glyph-name="f.ordn" horiz-adv-x="346" d="M286 572h-78V305h-90v267H60v77h58v41c0 78 49 127 123 127 21 0 39-4 46-7v-76c-4 1-13 4-30 4-21 0-49-10-49-49v-40h78v-77z"/><glyph glyph-name="g.ordn" horiz-adv-x="466" d="M62 286l81 22c7-39 38-67 83-67 60 0 92 30 92 97v28c-14-24-47-46-97-46-91 0-158 71-158 167 0 92 64 168 158 168 55 0 87-23 100-48v42h86V341c0-94-50-179-179-179-93 0-156 58-166 124zm175 111c49 0 83 35 83 90s-36 90-83 90c-48 0-84-35-84-90s34-90 84-90z"/><glyph glyph-name="h.ordn" horiz-adv-x="481" d="M176 507V305H85v507h91V619c22 28 60 39 93 39 87 0 128-61 128-137V305h-90v201c0 40-19 71-66 71-40 0-64-31-65-70z"/><glyph glyph-name="i.ordn" horiz-adv-x="282" d="M186 305H96v344h90V305zM85 763c0 31 25 56 56 56s56-25 56-56c0-30-25-56-56-56s-56 26-56 56z"/><glyph glyph-name="j.ordn" horiz-adv-x="314" d="M137 282v367h91V274c0-66-41-112-107-112-28 0-46 5-50 7v75c4-1 14-3 27-3 29 0 39 15 39 41zm-11 481c0 32 25 57 56 57s56-25 56-57c0-30-25-55-56-55s-56 25-56 55z"/><glyph glyph-name="k.ordn" horiz-adv-x="448" d="M416 649L277 504l142-199H308l-94 134-39-42v-92H85v507h90V518l122 131h119z"/><glyph glyph-name="l.ordn" horiz-adv-x="260" d="M176 305H85v507h91V305z"/><glyph glyph-name="m.ordn" horiz-adv-x="692" d="M175 305H85v344h86v-43c19 34 63 52 101 52 46 0 84-20 102-58 27 43 65 58 110 58 63 0 124-39 124-130V305h-88v206c0 38-19 66-62 66-41 0-65-32-65-70V305h-90v206c0 37-19 66-62 66-42 0-66-31-66-70V305z"/><glyph glyph-name="n.ordn" horiz-adv-x="481" d="M176 502V305H85v344h88v-44c21 37 62 53 100 53 84 0 124-61 124-137V305h-90v201c0 40-19 71-66 71-42 0-65-33-65-75z"/><glyph glyph-name="o.ordn" horiz-adv-x="483" d="M242 376c47 0 89 34 89 101s-42 100-89 100-89-33-89-100c0-66 42-101 89-101zm0 283c103 0 180-76 180-182s-77-182-180-182S62 371 62 477s77 182 180 182z"/><glyph glyph-name="p.ordn" horiz-adv-x="499" d="M175 172H85v477h87v-44c16 28 55 51 107 51 100 0 158-77 158-179 0-103-64-180-161-180-48 0-84 19-101 43V172zm174 305c0 62-38 99-88 99-49 0-87-37-87-99s38-100 87-100c50 0 88 37 88 100z"/><glyph glyph-name="q.ordn" horiz-adv-x="490" d="M415 172h-89v169c-16-27-51-44-97-44-98 0-167 77-167 181 0 100 65 179 164 179 60 0 92-29 102-50v42h87V172zM153 477c0-62 38-101 87-101s87 39 87 101c0 63-38 100-87 100s-87-37-87-100z"/><glyph glyph-name="r.ordn" horiz-adv-x="297" d="M283 650v-91c-9 2-18 3-26 3-45 0-91-20-91-98V305H75v344h88v-52c21 45 68 55 98 55 8 0 15-1 22-2z"/><glyph glyph-name="s.ordn" horiz-adv-x="400" d="M63 399l78 19c2-28 23-54 64-54 32 0 47 17 47 35 0 17-11 30-38 36l-47 10c-65 14-95 54-95 102 0 61 55 112 127 112 98 0 130-62 135-99l-76-18c-3 21-17 49-58 49-26 0-45-17-45-37 0-17 13-28 32-32l45-9c64-12 106-52 106-107 0-54-43-111-132-111-102 0-139 66-143 104z"/><glyph glyph-name="t.ordn" horiz-adv-x="326" d="M198 752V649h70v-80h-70V420c0-29 14-40 42-40 11 0 23 2 28 3v-75c-5-2-24-8-52-8-66 0-107 39-107 105v164H46v80h18c36 0 53 23 53 54v49h81z"/><glyph glyph-name="u.ordn" horiz-adv-x="452" d="M291 305c-2 7-3 23-3 36-20-31-60-45-96-45-83 0-130 61-130 136v217h90V449c0-39 19-71 65-71 42 0 66 28 66 70v201h90V367c0-32 2-52 3-62h-85z"/><glyph glyph-name="v.ordn" horiz-adv-x="413" d="M388 649L254 305h-90L24 649h99l86-235 84 235h95z"/><glyph glyph-name="w.ordn" horiz-adv-x="617" d="M263 649h94l77-226 64 226h90L480 305h-90l-82 238-79-238h-93L26 649h96l65-226z"/><glyph glyph-name="x.ordn" horiz-adv-x="419" d="M33 305l123 173L34 649h107c10-17 60-88 70-105l69 105h103L263 480c31-44 92-131 124-175H281l-74 108c-11-17-62-91-72-108H33z"/><glyph glyph-name="y.ordn" horiz-adv-x="426" d="M186 169H90l81 179L25 649h101l93-206 87 206h95z"/><glyph glyph-name="z.ordn" horiz-adv-x="407" d="M345 305H62v79l166 186H66v79h276v-76L172 383h173v-78z"/><glyph glyph-name="space.tf"/><glyph glyph-name="numbersign.tf" d="M504 648l-35-161h92v-90H450l-31-142h93v-91H400L365 0h-98l35 164H192L157 0H59l35 164H9v91h104l31 142H58v90h105l35 161h98l-35-161h110l35 161h98zM242 397l-31-142h110l31 142H242z"/><glyph glyph-name="dollar.tf" d="M341-109h-90V-6C115 11 49 108 40 192l110 31c5-56 35-111 101-127v180l-18 4C129 304 65 365 65 461c0 97 78 177 186 192v104h90V652c116-19 165-99 178-164l-106-33c-5 29-23 74-72 93V372l9-1c116-26 176-99 176-187S461 12 341-5v-104zM179 468c0-36 23-67 72-77v161c-47-12-72-47-72-84zm233-290c0 36-22 65-71 79V96c49 10 71 45 71 82z"/><glyph glyph-name="percent.tf" d="M526 538v-95L44 116v93zm-424-19c0-35 25-59 57-59 33 0 57 24 57 59 0 34-24 58-57 58-32 0-57-24-57-58zm-82 0c0 76 64 136 139 136s139-60 139-136c0-78-64-137-139-137-76 0-139 60-139 137zm333-390c0-35 25-59 57-59 33 0 57 25 57 59 0 35-24 58-57 58-32 0-57-23-57-58zm-82 0c0 76 64 137 139 137s139-61 139-137C549 52 485-8 410-8c-76 0-139 60-139 137z"/><glyph glyph-name="plus.tf" d="M48 339h188v195h99V339h188v-95H335V47h-99v197H48v95z"/><glyph glyph-name="comma.tf" d="M187 83c0 47 40 86 94 86 60 0 103-48 103-120 0-159-108-226-185-236v67c52 11 100 63 101 122-5-2-12-5-27-5-50 0-86 34-86 86z"/><glyph glyph-name="period.tf" d="M193 85c0 51 41 93 92 93s93-42 93-93-42-92-93-92-92 41-92 92z"/><glyph glyph-name="zero.tf" d="M152 324c0-99 8-234 133-234 124 0 133 135 133 234 0 100-9 233-133 233-125 0-133-133-133-233zm-120 0c0 86 10 172 52 236 42 63 112 103 201 103s159-39 201-103 52-150 52-236-10-173-52-237C444 24 374-15 285-15S126 24 84 87c-42 64-52 151-52 237z"/><glyph glyph-name="one.tf" d="M94 104h163v340H104v82c92 2 153 54 167 122h104V104h153V0H94v104z"/><glyph glyph-name="two.tf" d="M175 405l-116 8c-1 9-3 24-3 37 0 112 84 213 231 213 143 0 228-93 228-204 0-84-47-153-125-201l-126-78c-31-19-57-42-66-74h321V0H50c2 111 41 198 154 268l107 67c58 36 83 75 83 122 0 53-36 101-109 101-76 0-113-53-113-120 0-10 2-22 3-33z"/><glyph glyph-name="three.tf" d="M221 294l-55 89 179 160H50v105h450V548L324 394c97-2 194-72 194-197 0-111-89-212-243-212C125-15 36 82 28 190l117 24c3-75 57-126 129-126 79 0 123 51 123 110 0 75-60 107-115 107-31 0-51-6-61-11z"/><glyph glyph-name="four.tf" d="M34 142v130l274 376h154V248h97V142h-97V0H344v142H34zm310 106v279L142 248h202z"/><glyph glyph-name="five.tf" d="M44 179l113 29c5-69 56-121 131-121 68 0 123 46 123 118 0 80-59 120-125 120-46 0-85-19-108-45L65 321l80 327h355V543H226l-40-164c28 29 78 45 124 45 129 0 222-80 222-216 0-122-94-224-244-224C148-16 52 77 44 179z"/><glyph glyph-name="six.tf" d="M524 631l-34-98c-27 13-68 25-113 25-121 0-208-81-219-206 25 40 81 77 162 77 128 0 220-85 220-219C540 75 429-15 295-15 160-15 37 80 37 283c0 238 147 380 349 380 60 0 110-14 138-32zM170 208c0-74 61-121 125-121 67 0 124 46 124 121 0 76-58 121-124 121-67 0-125-45-125-121z"/><glyph glyph-name="seven.tf" d="M536 648V543C481 498 289 334 259 0H135c28 362 264 543 264 543H30v105h506z"/><glyph glyph-name="eight.tf" d="M285 378c65 1 107 41 107 95 0 49-41 92-107 92s-106-43-106-92c0-54 42-94 106-95zm0-292c79 0 122 46 122 99s-43 100-122 100c-78 0-121-47-121-100s43-99 121-99zm0-101C137-15 45 65 45 173c0 74 51 135 120 159-62 23-105 84-105 148 0 108 95 183 225 183s226-75 226-183c0-63-43-125-105-148 68-24 120-85 120-159 0-108-92-188-241-188z"/><glyph glyph-name="nine.tf" d="M44 22l33 98c25-16 73-30 116-30 136 0 209 82 215 204-24-42-84-75-157-75-116 0-223 80-223 218 0 134 108 226 243 226 133 0 255-97 255-303 0-233-112-375-332-375C141-15 77 0 44 22zm348 419c0 72-59 119-123 119s-123-46-123-119c0-76 57-120 123-120 64 0 123 46 123 120z"/><glyph glyph-name="colon.tf" d="M196 412c0 49 39 89 87 89 49 0 89-40 89-89 0-48-40-88-89-88-48 0-87 40-87 88zm0-338c0 49 39 89 87 89 49 0 89-40 89-89 0-48-40-88-89-88-48 0-87 40-87 88z"/><glyph glyph-name="semicolon.tf" d="M195 79c0 44 38 79 87 79 56 0 96-44 96-111 0-147-100-209-171-218v62c48 10 92 58 93 113-4-2-11-5-25-5-46 0-80 31-80 80zm3 333c0 49 39 89 87 89 49 0 89-40 89-89 0-48-40-88-89-88-48 0-87 40-87 88z"/><glyph glyph-name="less.tf" d="M73 244v94l422 212V439L193 292l302-148V33z"/><glyph glyph-name="equal.tf" d="M523 343H48v94h475v-94zm0-197H48v95h475v-95z"/><glyph glyph-name="greater.tf" d="M497 338v-94L75 33v110l304 148L75 438v112z"/><glyph glyph-name="cent.tf" d="M342 0h-91v90C141 112 62 206 62 325c0 121 80 212 189 234v90h91v-88c99-15 155-82 172-145l-100-35c-8 31-30 65-72 78V188c46 13 70 51 78 79l98-35c-20-63-77-131-176-145V0zM171 325c0-67 33-113 80-132v262c-47-19-80-63-80-130z"/><glyph glyph-name="sterling.tf" d="M61 368h64c-12 30-22 63-22 105 0 104 80 190 203 190 155 0 203-102 205-183l-111-18c0 66-35 101-92 101-50 0-90-31-90-92 0-37 13-70 26-103h182v-95H274c1-8 2-16 2-24 0-61-29-115-83-146h149c59 0 88 43 88 94l108-12C538 78 471 0 365 0H56v104c66 25 108 76 108 133 0 12-1 24-4 36H61v95z"/><glyph glyph-name="currency.tf" d="M73 242c0 42 12 81 33 114l-74 75 72 71 74-76c32 19 70 30 110 30 38 0 75-10 106-28l73 74 71-71-70-72c22-33 35-74 35-117s-13-83-34-116l69-70-70-70-71 72c-32-19-70-29-109-29-41 0-79 11-112 31l-73-74-71 70 73 74c-21 32-32 71-32 112zm99 0c0-68 50-117 116-117s115 49 115 117-49 117-115 117-116-49-116-117z"/><glyph glyph-name="yen.tf" d="M513 144H346V0H230v144H66v84h164v74H66v84h105L13 648h135l141-251 137 251h131L403 386h110v-84H346v-74h167v-84z"/><glyph glyph-name="section.tf" d="M488 249c0-60-41-104-79-124 52-37 81-89 81-143 0-114-99-187-207-187-128 0-201 75-204 185L187 0c0-67 34-108 97-108 52 0 89 30 89 80 0 31-19 58-50 74L221 98c-74 38-139 82-139 172 0 60 41 104 80 124-54 37-82 87-82 143 0 114 100 186 208 186 128 0 201-79 203-184l-109-20c0 68-35 107-95 107-54 0-91-33-91-80 0-30 18-56 51-73l101-52c74-38 140-83 140-172zm-160 55l-101 53c-22-15-38-38-38-66 0-32 13-56 52-76l100-53c22 15 39 37 39 66 0 32-14 55-52 76z"/><glyph glyph-name="logicalnot.tf" d="M508 142H407v195H30v97h478V142z"/><glyph glyph-name="plusminus.tf" d="M58 405h178v129h99V405h178v-94H335V183h-99v128H58v94zm0-262h455V47H58v96z"/><glyph glyph-name="multiply.tf" d="M452 51L285 222 118 51l-69 69 168 172L50 463l69 69 166-171 166 171 69-69-167-171 168-172z"/><glyph glyph-name="divide.tf" d="M211 473c0 39 33 71 72 71s72-32 72-71-33-73-72-73-72 34-72 73zM47 243v98h475v-98H47zm164-132c0 39 33 72 72 72s72-33 72-72-33-72-72-72-72 33-72 72z"/><glyph glyph-name="florin.tf" d="M168 24l73 364H138v99h123l21 101c22 107 100 152 177 152 43 0 59-5 82-12V627c-16 5-35 8-57 8-31 0-75-10-90-84l-13-64h122v-99H361L280-13c-21-107-100-152-177-152-44 0-61 5-85 12v101c16-4 36-7 61-7 31 0 75 10 89 83z"/><glyph glyph-name="uni2007.tf"/><glyph glyph-name="uni2008.tf"/><glyph glyph-name="perthousand.tf" d="M531 622v-95L45 165v94zM90 536c0-31 23-53 52-53s50 22 50 53-21 52-50 52-52-21-52-52zm-71 0c0 67 56 121 123 121 66 0 122-54 122-121 0-68-56-120-122-120-67 0-123 53-123 120zm113-426c0 68 56 121 122 121 34 0 65-15 86-37 22 22 53 37 87 37 66 0 123-53 123-121S493-10 427-10c-35 0-65 14-87 37-21-23-52-37-86-37-67 0-122 53-122 120zm122 53c-29 0-51-22-51-53s22-52 51-52 50 21 50 52-21 53-50 53zm173 0c-29 0-51-22-51-53s22-52 51-52 50 21 50 52-21 53-50 53z"/><glyph glyph-name="Euro.tf" d="M44 287h70c-1 11-2 22-2 37s1 28 2 35H44v87h87c48 140 178 217 312 217 56 0 84-7 115-19l-28-99c-18 7-46 14-87 14-77 0-149-36-186-113h244l-26-87H234c-1-6-2-17-2-35 0-15 1-28 2-37h225l-25-88H259c37-72 108-107 185-107 41 0 68 7 87 13l27-98c-28-12-62-21-114-21-135 0-264 74-312 213H44v88z"/><glyph glyph-name="minus.tf" d="M510 244H59v96h451v-96z"/><glyph glyph-name="approxequal.tf" d="M481 447l62-52c-37-59-93-92-155-92-35 0-68 9-105 30l-47 26c-19 10-39 15-58 15-32 0-63-15-88-46l-64 54c38 60 92 93 154 93 34 0 68-10 105-30l47-25c21-11 42-18 63-18 32 0 62 14 86 45zm0-197l62-53c-37-59-93-92-155-92-35 0-69 10-105 30l-47 26c-20 11-39 14-58 15-32 0-64-15-88-46l-64 54c38 60 91 93 152 93 36 0 69-10 107-30l47-25c21-11 42-18 63-18 32 0 62 14 86 46z"/><glyph glyph-name="notequal.tf" d="M522 146H248l-68-98H71l68 98H47v95h157l71 102H47v94h292l66 95h109l-66-95h74v-94H384l-71-102h209v-95z"/><glyph glyph-name="lessequal.tf" d="M74 143h422V47H74v96zm0 168v97l422 141v-99l-292-89 292-91v-99z"/><glyph glyph-name="greaterequal.tf" d="M74 143h422V47H74v96zm422 265v-97L74 171v98l292 90-292 90v100z"/><glyph glyph-name="parenleft.case" horiz-adv-x="307" d="M48 353c0 206 87 350 191 455l68-58C207 636 146 521 146 353S207 70 307-44l-68-58C135 3 48 147 48 353z"/><glyph glyph-name="parenright.case" horiz-adv-x="307" d="M259 353c0-206-87-350-191-455L0-44C100 70 161 185 161 353S100 636 0 750l68 58c104-105 191-249 191-455z"/><glyph glyph-name="hyphen.case" horiz-adv-x="372" d="M327 291H45v103h282V291z"/><glyph glyph-name="bracketleft.case" horiz-adv-x="304" d="M299-100H85v909h214v-90H183V-10h116v-90z"/><glyph glyph-name="bracketright.case" horiz-adv-x="304" d="M219-100H5v90h116v729H5v90h214v-909z"/><glyph glyph-name="braceleft.case" horiz-adv-x="365" d="M45 304v100c57 0 105 26 105 97v118c0 128 69 190 187 190h23v-89h-22c-60 0-90-28-90-97V479c0-65-38-110-102-125 64-14 102-59 102-124V86c0-69 30-96 90-96h22v-89h-23C219-99 150-37 150 91v117c0 70-48 96-105 96z"/><glyph glyph-name="braceright.case" horiz-adv-x="365" d="M320 404V304c-57 0-105-26-105-96V91C215-37 146-99 28-99H5v89h22c60 0 90 27 90 96v144c0 65 38 110 102 124-64 15-102 60-102 125v144c0 69-30 97-90 97H5v89h23c118 0 187-62 187-190V501c0-71 48-97 105-97z"/><glyph glyph-name="exclamdown.case" horiz-adv-x="314" d="M198 498L227 0H85l30 498h83zM83 642c0 40 33 73 73 73s74-33 74-73c0-41-34-73-74-73s-73 32-73 73z"/><glyph glyph-name="guillemotleft.case" horiz-adv-x="500" d="M274 150H163L28 343l136 194h111L141 342zm207 0H370L235 343l136 194h111L348 342z"/><glyph glyph-name="uni00AD.case" horiz-adv-x="372" d="M327 302H45v103h282V302z"/><glyph glyph-name="guillemotright.case" horiz-adv-x="500" d="M337 150H226l133 192-134 195h111l136-194zm-207 0H19l133 192L18 537h111l136-194z"/><glyph glyph-name="questiondown.case" horiz-adv-x="514" d="M221 500h99c2-12 3-24 3-38 0-60-22-109-80-150l-46-33c-33-24-47-54-47-88 0-52 35-100 108-100 77 0 112 58 112 116 0 15-2 33-6 45l114-12c4-14 5-30 5-46 0-100-74-208-225-208C109-14 30 85 30 186c0 80 41 135 99 176l43 30c32 23 49 58 49 98v10zm-24 143c0 40 32 73 73 73 40 0 73-33 73-73s-33-73-73-73c-41 0-73 33-73 73z"/><glyph glyph-name="endash.case" horiz-adv-x="627" d="M570 292H56v101h514V292z"/><glyph glyph-name="emdash.case" horiz-adv-x="1079" d="M1012 292H66v101h946V292z"/><glyph glyph-name="guilsinglleft.case" horiz-adv-x="293" d="M274 150H163L28 343l136 194h111L141 342z"/><glyph glyph-name="guilsinglright.case" horiz-adv-x="293" d="M130 150H19l133 192L18 537h112l135-194z"/><glyph glyph-name="G.ss01" horiz-adv-x="771" d="M403-15C214-15 42 125 42 355c0 229 173 369 360 369 175 0 289-104 321-228l-115-35c-23 85-89 152-206 152-120 0-238-81-238-258 0-172 114-260 239-260 111 0 191 64 206 153H342v106h390c2-13 2-27 2-40-1-180-119-329-331-329z"/><glyph glyph-name="a.ss02" horiz-adv-x="599" d="M153 246c0-93 51-159 132-159 76 0 129 65 129 159s-52 154-129 154c-78 0-132-60-132-154zM415 70c-22-47-73-83-143-83C129-13 37 100 37 246c0 141 93 255 233 255 86 0 130-45 143-78v64h113V89c0-40 4-79 5-89H420c-2 11-5 37-5 70z"/><glyph glyph-name="agrave.ss02" horiz-adv-x="599" d="M153 246c0-93 51-159 132-159 76 0 129 65 129 159s-52 154-129 154c-78 0-132-60-132-154zM415 70c-22-47-73-83-143-83C129-13 37 100 37 246c0 141 93 255 233 255 86 0 130-45 143-78v64h113V89c0-40 4-79 5-89H420c-2 11-5 37-5 70zM247 548L115 696h139l88-148h-95z"/><glyph glyph-name="aacute.ss02" horiz-adv-x="599" d="M437 696L306 548h-95l89 148h137zM153 246c0-93 51-159 132-159 76 0 129 65 129 159s-52 154-129 154c-78 0-132-60-132-154zM415 70c-22-47-73-83-143-83C129-13 37 100 37 246c0 141 93 255 233 255 86 0 130-45 143-78v64h113V89c0-40 4-79 5-89H420c-2 11-5 37-5 70z"/><glyph glyph-name="acircumflex.ss02" horiz-adv-x="599" d="M222 549h-97l107 143h121l108-143h-99l-70 77zm-69-303c0-93 51-159 132-159 76 0 129 65 129 159s-52 154-129 154c-78 0-132-60-132-154zM415 70c-22-47-73-83-143-83C129-13 37 100 37 246c0 141 93 255 233 255 86 0 130-45 143-78v64h113V89c0-40 4-79 5-89H420c-2 11-5 37-5 70z"/><glyph glyph-name="atilde.ss02" horiz-adv-x="599" d="M153 246c0-93 51-159 132-159 76 0 129 65 129 159s-52 154-129 154c-78 0-132-60-132-154zM415 70c-22-47-73-83-143-83C129-13 37 100 37 246c0 141 93 255 233 255 86 0 130-45 143-78v64h113V89c0-40 4-79 5-89H420c-2 11-5 37-5 70zM126 556l-1 18c0 78 45 115 103 115 29 0 50-10 70-22l10-6c15-9 28-17 43-17 20 0 31 13 31 44h76v-17c0-78-44-117-102-117-29 0-51 11-71 23l-10 6c-15 9-28 16-43 16-20 0-30-12-30-43h-76z"/><glyph glyph-name="adieresis.ss02" horiz-adv-x="599" d="M120 625c0 36 28 65 64 65 37 0 66-29 66-65 0-37-29-65-66-65-36 0-64 28-64 65zm200 0c0 36 28 65 64 65s65-29 65-65c0-37-29-65-65-65s-64 28-64 65zM153 246c0-93 51-159 132-159 76 0 129 65 129 159s-52 154-129 154c-78 0-132-60-132-154zM415 70c-22-47-73-83-143-83C129-13 37 100 37 246c0 141 93 255 233 255 86 0 130-45 143-78v64h113V89c0-40 4-79 5-89H420c-2 11-5 37-5 70z"/><glyph glyph-name="aring.ss02" horiz-adv-x="599" d="M153 246c0-93 51-159 132-159 76 0 129 65 129 159s-52 154-129 154c-78 0-132-60-132-154zM415 70c-22-47-73-83-143-83C129-13 37 100 37 246c0 141 93 255 233 255 86 0 130-45 143-78v64h113V89c0-40 4-79 5-89H420c-2 11-5 37-5 70zm-21 568c0-63-53-110-114-110-60 0-113 47-113 110 0 64 53 111 113 111 61 0 114-47 114-111zm-70 0c0 26-19 45-45 45-24 0-43-19-43-45 0-25 19-44 43-44 26 0 45 19 45 44z"/><glyph glyph-name="r.ss03" horiz-adv-x="367" d="M191 487V0H75v487h116zm1-75c0 46 35 81 80 81 46 0 81-35 81-81 0-45-35-80-81-80-45 0-80 35-80 80z"/><glyph glyph-name="ampersand.ss04" horiz-adv-x="694" d="M386 237v103h283V237h-79v-6C588 97 494-15 324-15 163-15 60 75 60 197c0 102 72 168 145 189-61 21-110 76-110 152 0 105 91 186 216 186 158 0 221-96 228-195l-117-16c-3 66-38 109-110 109-51 0-98-35-98-89 0-65 59-94 100-94h12V336c-63 0-144-33-144-128 0-59 46-118 144-118 87 0 142 53 143 141v6h-83z"/><glyph glyph-name="one.ss05" horiz-adv-x="477" d="M42 104h157v340H46v82c92 2 153 54 167 122h104V104h152V0H42v104z"/><glyph glyph-name="registered.ss06" horiz-adv-x="429" d="M24 526c0 105 85 190 190 190s191-85 191-190-86-190-191-190S24 421 24 526zm51 0c0-79 61-142 139-142s140 63 140 142-62 142-140 142S75 605 75 526zm165-96l-29 65h-13v-65h-54v196h84c38 0 68-29 68-65 0-24-14-45-35-56l36-75h-57zm-42 109h17c15 0 26 8 26 22s-11 21-26 21h-17v-43z"/><glyph glyph-name="caron.alt" horiz-adv-x="208" d="M178 709l-68-189H30l29 189h119z"/><glyph glyph-name="commaaccent" horiz-adv-x="201" d="M30 673c0 35 30 59 67 59 39 0 74-28 74-80 0-95-74-121-129-121v45c42 0 71 20 73 46-2-1-12-6-25-6-36 0-60 23-60 57z"/><glyph glyph-name="commaturn" horiz-adv-x="180" d="M161 596c0-34-28-58-67-58-36 0-74 28-74 80 0 85 74 120 129 120v-44c-42 0-71-24-73-47 2 2 12 7 25 7 37 0 60-24 60-58z"/><glyph glyph-name="dieresis.narrow" horiz-adv-x="315" d="M19 625c0 34 26 62 61 62 34 0 61-28 61-62s-27-61-61-61c-35 0-61 27-61 61zm155 0c0 34 27 62 60 62 35 0 62-28 62-62s-27-61-62-61c-33 0-60 27-60 61z"/><glyph glyph-name="dieresis.uc.narrow" horiz-adv-x="334" d="M20 821c0 35 26 62 61 62s63-27 63-62-28-62-63-62-61 27-61 62zm170 0c0 35 27 62 62 62s62-27 62-62-27-62-62-62-62 27-62 62z"/><glyph glyph-name="grave.uc" horiz-adv-x="283" d="M156 759L13 883h148l103-124H156z"/><glyph glyph-name="dieresis.uc" horiz-adv-x="427" d="M24 821c0 37 29 67 66 67 38 0 67-30 67-67s-29-66-67-66c-37 0-66 29-66 66zm247 0c0 37 28 67 65 67 38 0 67-30 67-67s-29-66-67-66c-37 0-65 29-65 66z"/><glyph glyph-name="macron.uc" horiz-adv-x="340" d="M320 776H20v93h300v-93z"/><glyph glyph-name="acute.uc" horiz-adv-x="283" d="M270 883L128 759H19l102 124h149z"/><glyph glyph-name="circumflex.uc" horiz-adv-x="408" d="M131 759H24l116 124h129l119-124H278l-75 64z"/><glyph glyph-name="caron.uc" horiz-adv-x="408" d="M24 883h109l72-65 75 65h108L269 759H140z"/><glyph glyph-name="breve.uc" horiz-adv-x="369" d="M185 754C80 754 28 821 24 886h93c2-25 21-54 68-54s66 29 67 54h93c-3-65-55-132-160-132z"/><glyph glyph-name="dotaccent.uc" horiz-adv-x="186" d="M20 826c0 41 33 73 73 73s73-32 73-73c0-39-33-71-73-71s-73 32-73 71z"/><glyph glyph-name="ring.uc" horiz-adv-x="285" d="M265 860c0-68-57-119-123-119-65 0-122 51-122 119s57 119 122 119c66 0 123-51 123-119zm-76 0c0 28-21 47-47 47-27 0-47-19-47-47s20-47 47-47c26 0 47 19 47 47z"/><glyph glyph-name="tilde.uc" horiz-adv-x="372" d="M353 886v-23c0-73-44-110-99-110-29 0-53 11-73 23l-10 7c-16 10-30 17-45 17s-30-11-30-33v-10H21v22c0 74 45 110 100 110 29 0 54-11 74-23l10-6c16-9 30-17 43-17 17 0 31 9 31 33v10h74z"/><glyph glyph-name="hungarumlaut.uc" horiz-adv-x="376" d="M194 883L99 759H20l56 124h118zm162 0L249 759h-80l69 124h118z"/><glyph glyph-name="caron.alt.uc" horiz-adv-x="208" d="M187 709l-72-200H30l31 200h126z"/><glyph glyph-name="undercommaaccent" horiz-adv-x="181" d="M20-96c0 33 30 59 67 59s74-28 74-81c0-91-73-120-129-120v44c42 0 71 23 73 48-2-2-12-7-25-7-36 0-60 23-60 57z"/></font>
</defs>
</svg>
