<?xml version="1.0" encoding="utf-8"?>
<!-- Generator: Adobe Illustrator 24.1.2, SVG Export Plug-In . SVG Version: 6.00 Build 0)  -->
<svg version="1.1" id="Layer_1" xmlns="http://www.w3.org/2000/svg" xmlns:xlink="http://www.w3.org/1999/xlink" x="0px" y="0px"
	 width="540px" height="438.99px" viewBox="0 0 540 438.99" enable-background="new 0 0 540 438.99" xml:space="preserve">
<g>
	<ellipse opacity="0.05" cx="286.3" cy="424.3" rx="65.45" ry="14.69"/>
	<ellipse opacity="0.05" cx="84.75" cy="421.43" rx="43.65" ry="9.8"/>
	<g>
		<g>
			<g>
				<g>
					<g>
						<g>
							<g>
								<g>
									<path fill="#B3494C" d="M279.17,264.74v115.73c0,3.63,3.48,6.58,7.77,6.58h75c4.29,0,7.77-2.95,7.77-6.58v-99.13
										c0-9.17-7.43-16.6-16.6-16.6H279.17z"/>
									<path fill="#D46171" d="M333.78,289.82v97.22h28.16c4.29,0,7.77-2.95,7.77-6.58V275.59c0-5.99-4.86-10.85-10.85-10.85h0
										C345.01,264.74,333.78,275.97,333.78,289.82z"/>
								</g>
								<g>
									<path fill="#BF5058" d="M131.21,181.96h124.42l16.57,144.2H147.78c-9.85,0-17.83-6.75-17.83-15.09l-16.57-114.02
										C113.38,188.71,121.36,181.96,131.21,181.96z"/>
									<path fill="#CA5965" d="M160.64,311.07c0,8.33,7.98,15.09,17.83,15.09h109.05c9.85,0,17.83-6.75,17.83-15.09l-16.57-114.02
										c0-8.33-7.99-15.09-17.83-15.09H161.9c-9.85,0-17.83,6.75-17.83,15.09L160.64,311.07z"/>
								</g>
								<g>
									<rect x="161.27" y="311.33" fill="#B3494C" width="172.51" height="75.71"/>
									<rect x="161.27" y="364.54" fill="#D46171" width="172.52" height="22.5"/>
									<g>
										<g>
											<g>
												<path fill="#DF677D" d="M331.75,360.38H169.11c-4.32,0-7.83-2.59-7.83-5.79v-45.15c0-2.16,3.63-4.63,7.83-5.8
													c64.31-9.06,156.84,0,156.84,0c4.82,1.23,6.29,2.58,7.83,5.8v48.9C333.78,358.33,333.99,360.38,331.75,360.38z"/>
											</g>
										</g>
										<g>
											<path fill="#CA5965" d="M333.78,309.93H161.27v44.65c0,3.2,3.51,5.79,7.83,5.79h162.64c2.24,0,2.04-2.04,2.04-2.04
												V309.93z"/>
										</g>
									</g>
								</g>
								<g>
									<g>
										<path fill="#976B45" d="M361.28,387.12H348.8l14.96,22.83c0,0,1.62,2.82,5.42,2.8c0,0,3.89,0.52,2.18-3.17L361.28,387.12z
											"/>
										<path fill="#845C3D" d="M348.8,387.12l14.96,22.83c0,0,1.62,2.82,5.42,2.8c0,0,3.18,0.42,2.51-2.25
											c-0.27,0.37-0.6,0.68-1.01,0.86c-1.69,0.72-3.6-0.02-4.78-1.36l-11.63-22.86H348.8z"/>
									</g>
									<g>
										<path fill="#976B45" d="M176.8,387.12h12.49l-14.96,22.83c0,0-1.62,2.82-5.42,2.8c0,0-3.9,0.52-2.18-3.17L176.8,387.12z"
											/>
										<path fill="#845C3D" d="M189.28,387.12l-14.96,22.83c0,0-1.62,2.82-5.42,2.8c0,0-3.19,0.42-2.51-2.25
											c0.27,0.37,0.6,0.68,1.01,0.86c1.68,0.72,3.6-0.02,4.78-1.36l11.62-22.86H189.28z"/>
									</g>
								</g>
								<g>
									<path fill="#976B45" d="M112.57,387.12h12.49l-14.96,22.83c0,0-1.62,2.82-5.42,2.8c0,0-3.9,0.52-2.18-3.17L112.57,387.12z"
										/>
									<path fill="#845C3D" d="M125.06,387.12l-14.96,22.83c0,0-1.62,2.82-5.42,2.8c0,0-3.19,0.42-2.51-2.25
										c0.27,0.37,0.6,0.68,1.01,0.86c1.69,0.72,3.6-0.02,4.78-1.36l11.62-22.86H125.06z"/>
								</g>
								<g>
									<path fill="#B3494C" d="M118.6,264.74c-6.6,0-11.94,5.35-11.94,11.94v103.78c0,3.63,3.48,6.58,7.77,6.58h75
										c4.29,0,7.77-2.95,7.77-6.58v-90.14c0-14.13-11.46-25.59-25.59-25.59H118.6z"/>
									<path fill="#D46171" d="M161.27,264.74V380.4c0,6.65,6.36,6.65,6.36,6.65h21.79c4.29,0,7.77-2.95,7.77-6.58v-93.59
										c0-12.23-9.91-22.14-22.14-22.14H161.27z"/>
								</g>
							</g>
						</g>
						<g>
							<path fill="#2C4367" d="M235.31,301.11"/>
							<g>
								<g>
									<path fill="#66B2E2" d="M309.79,267.11c0.94,0,3.16-0.25,3.2-1.57c0.04-1.3-2.38-1.57-3.2-1.57c-0.94,0-3.16,0.25-3.2,1.57
										C306.56,266.84,308.98,267.11,309.79,267.11L309.79,267.11z"/>
								</g>
							</g>
						</g>
					</g>
					<g>
						<path fill="#4A4756" d="M275.46,407.6c-0.73-2.56-4.12-6.88-5.57-8.66c0.06-0.14-2.98-4.16-2.98-4.16l-11.49,5.01
							c0,0,0.37,2.84,1.11,4.79c-0.23,2.02-0.76,6.14-1.48,8.29c-0.98,2.91-6.56,9.71-3.96,16.03c0.66,1.61,1.8,2.46,3.2,2.78
							c10.47-0.76,14.47-10.27,14.47-10.27s2.07-5.45,3.01-7.7C271.77,413.71,276.14,409.98,275.46,407.6z"/>
						<path fill="#4A4756" d="M303.77,422.79c6.44,6.39,15.73,11.26,24.89,8.45c1.31-1.02,2.05-2.4,1.9-4.22
							c-0.58-7.03-9.71-7.05-13.29-12.12c-3.58-5.06-7.5-8.31-7.5-8.31l-0.73-4.67l-13.54,0.68l0.26,4.17c0,0-2.1,5.51-2.32,8.87
							c-0.22,3.36,1.92,4.7,6.03,6.31c0,0,1.52-0.1,1.66-1.11c0.03-0.24,0.45,0.17,1.11,0.98
							C302.48,422.01,303.54,422.56,303.77,422.79z"/>
						<g>
							<path fill="#FCBEAD" d="M258.58,217.16c0,0,2.99,15.24,5.34,25.3l0,0c0.95,4.08,1.8,7.31,2.3,8.32
								c0.63,1.27,5.6,6.33,11.68,12.26c10.67,10.4,24.74,23.49,24.74,23.49l5.09-10.32c0,0-12.57-13.95-21.08-23.25
								c-3.94-4.31-7.01-7.62-7.57-8.09c-1.77-1.5-4.18-16.66-7.34-29.12c-3.16-12.46-8.99-19.24-8.99-19.24L258.58,217.16z"/>
							<path fill="#6CB9D9" d="M271.74,215.74c-3.16-12.46-8.99-19.24-8.99-19.24l-4.17,20.66c0,0,2.23,11.36,4.35,20.94l14.64-5.8
								L271.74,215.74z"/>
						</g>
						<g>
							<path fill="#FCBEAD" d="M277.9,263.04c10.67,10.4,24.74,23.49,24.74,23.49l5.09-10.32c0,0-12.57-13.95-21.08-23.25
								C284.15,254.26,279.58,257.34,277.9,263.04z"/>
						</g>
						<path fill="#6CB9D9" d="M225.62,287.13c20.62-0.47,56.25-2.12,56.25-2.12s-20.01-13.75-21.38-17.53
							c-1.38-3.78,4.27-26.85,4.89-34.32c0.49-5.98,1.41-32.69-2.63-36.66c-4.22-4.15-19.13-8.21-19.13-8.21l-21.54,1.38
							c0,0-3.54,0.84-6.05,2.09c-2.51,1.25-16.92,6.83-19.08,14.16c-2.16,7.33,15.34,30.24,15.34,30.24s0.06,1.05,0.16,2.77l0,0
							c0.13,2.29,0.32,5.78,0.51,9.56c0.25,4.9,0.49,10.29,0.6,14.23c0.1,3.83-0.2,8.38-0.62,12.51l0,0c0,0-3.73,12.03,1.46,12.02
							c1.23,0,2.51-0.01,3.74-0.02c0,0.01,0.01,0.01,0.01,0.02C220.28,287.24,222.81,287.2,225.62,287.13L225.62,287.13
							L225.62,287.13z"/>
						<g>
							<path fill="#2D3D54" d="M202.18,311.03c0.13,9.68,18.26,41.62,21,46.18c8.23,13.72,30.57,43.2,30.57,43.2s3.71-0.2,15.17-5
								c0,0-15.4-39.32-17.33-43.39c-8.17-17.27-12.81-29.56-10.3-32.63c2.51-3.07,9.48-6.27,11.48-8.09
								c2-1.83,37.84,5.71,41.59,6.58c9.73,2.24,5.78,19.17,3.85,26.77c-3.24,12.7-5.13,58.33-5.13,58.33s6.96,2.74,18.42-0.04
								c0,0,20.41-82.83,20.92-91.03c0.51-8.19,0.5-21.69-55.56-30.43L213,286.78C213,286.78,202.05,301.35,202.18,311.03z"/>
						</g>
						<g>
							<path fill="#FCBEAD" d="M236.44,141.61c0,0,18.6-4.73,14.96,18.94c-3.64,23.67-8.09,25.64-19.51,21.08
								c-11.43-4.57-10.82-19.69-11.59-27.07C219.53,147.17,230.47,142.02,236.44,141.61z"/>
						</g>
						<g>
							<path fill="#FCBEAD" d="M242.82,194.36c0,0-8.05,9.01-21.37,1.38c0,0,2.41-19.12,0.62-28.36
								c-1.79-9.23,17.48,13.91,17.48,13.91c-0.24,0.13-0.38,1.02-0.38,2.28c0,1.07,0.09,2.4,0.3,3.77
								C239.94,190.43,240.98,193.66,242.82,194.36z"/>
						</g>
						<g>
							<path fill="#E9B0A2" d="M239.47,187.35c-13.63-3.8-14.86-11.91-14.88-12.04c4.66,7.53,14.59,8.27,14.59,8.27
								C239.17,184.65,239.26,185.98,239.47,187.35z"/>
						</g>
						<path fill="#6CB9D9" d="M257.58,267.34l-16.48-1.8l-25.66,15.27l-3.07,4.55c0,0.01,0,0.02,0,0.03c0,0.51,0.02,1.02,0.13,1.5
							c6.86-0.11,41.6-0.83,45.09-3.8C261.45,279.81,257.58,267.34,257.58,267.34z"/>
						<g>
							<polygon fill="#686868" points="241.78,289.44 311.1,282.52 277.57,303.29 							"/>
							<g>
								<polygon fill="#808080" points="266.53,288.37 294.29,285.59 280.86,293.91 								"/>
							</g>
						</g>
						<g>
							<polygon fill="#474747" points="277.57,303.29 242.07,292.9 241.78,289.44 280,299.67 							"/>
						</g>
						<g>
							<path fill="#5AA1B8" d="M212.45,238.94c0.13,2.29,0.32,5.78,0.51,9.56c6.21-16.48,2.02-29.38,1.94-29.6
								C215.74,223.29,212.49,238.72,212.45,238.94L212.45,238.94z"/>
							<path fill="#FCBEAD" d="M280.34,290.57c-0.52-0.36-2.41-3.95-4.2-7.2c3.34,0.79,4.4-0.31,3.81-0.72
								c-0.73-0.5-3.75-2.63-4.49-3.21c-0.6-0.47-2.56-1.39-3.29-1.73c-0.08-0.04-0.17-0.08-0.26-0.12
								c-0.02-0.01-0.03-0.01-0.03-0.01s0,0,0,0c-2.27-0.96-6.62-1.29-8.55-0.79c-2.21,0.58-5.15,1.16-6.53,1.43l-3.7-1.75
								c0,0-17.82-9.07-29.86-15.44c-5.69-3.01-10.09-5.41-10.72-5.98c-1.96-1.77-2.53-4.67-1.26-9.79
								c1.27-5.12,3.86-28.56,4.16-31.3c0.29-2.73-1.18-9.97-8-10.15c-6.82-0.18-10.24,1.84-10.24,1.84s-1.69,0.76-2.52,17.33
								c-0.82,16.57-0.34,41.19,1.44,43.15c0.75,0.83,10.49,4.44,21.48,8.34l0,0c15.02,5.32,31.93,10.29,31.93,10.29l0,0
								c0.35,0.1,0.55,0.16,0.55,0.16l4.12,0.94c0,0,0,0,0,0c2.95,0.82,9.93,2.78,11.39,3.25c1.87,0.6,4.36,4.26,7.93,5.87
								c3.57,1.61,4.88-2.98,4.88-2.98C279.95,292.68,281.25,291.18,280.34,290.57z"/>
						</g>
						<g>
							<path fill="#5B5B5B" d="M277.57,303.29l14.29-52.37c0.94-3.44,3.96-5.91,7.52-6.16l55.36-3.8c2.6-0.18,4.59,2.28,3.88,4.79
								l-12.41,43.62c-0.84,2.94-3.34,5.11-6.37,5.52L277.57,303.29z"/>
						</g>
						<g>
							<path fill="#474747" d="M318.07,268.79c-1.29,3.24-0.53,6.58,1.69,7.47c2.22,0.89,5.07-1.02,6.36-4.26
								c1.29-3.24,0.53-6.58-1.69-7.47C322.21,263.64,319.36,265.55,318.07,268.79z"/>
						</g>
						<path fill="#4A4756" d="M248.63,138.6c-3.98-1.7-14.94-5.45-22.74,0.14c0,0-6.22-0.54-7,4.49c-0.78,5.03,0.87,19.7,2.65,23.38
							c0,0,0.16-4.23,1.4-6.44c-0.05-0.48-0.07-0.94-0.03-1.36c0.25-3.12,4.37-2.47,4.68-0.4c0.13,0.91,0.23,2.04,0.26,3.16
							l2.64,0.42c0,0-1.04-6.48,1.64-7.69c2.68-1.21,17.63,3.11,19.75,1.14C253.99,153.47,252.61,140.3,248.63,138.6z"/>
						<path fill="#5AA1B8" d="M266.89,236.59c-0.3-6.14-1.12-10.89-1.12-10.89c-0.07,3.77-0.64,8.57-1.13,12.07L266.89,236.59z"/>
					</g>
				</g>
			</g>
			<g>
				<g>
					<path fill="#F1F1F3" d="M539.48,137.57L539.48,137.57c0.16,2.08,0.27,4.16,0.36,6.22c0.11,2.52,0.16,5.02,0.16,7.5
						c0.01,1.12,0,2.23-0.02,3.34l0,0c-0.02,1.39-0.05,2.77-0.1,4.14c-0.05,1.37-0.11,2.73-0.18,4.08
						c-0.07,1.22-0.14,2.43-0.24,3.63c-0.09,1.25-0.19,2.48-0.31,3.7c-0.14,1.51-0.3,3.01-0.47,4.48
						c-0.83,7.06-2.03,13.57-3.47,19.27c-2.2,8.71-4.99,15.5-7.96,19.36c-11.57,15-36.6,23.16-66.95,22.81
						c-4.37-0.05-8.86-0.27-13.43-0.68c-0.81-0.07-1.62-0.15-2.44-0.24c-1.16-0.12-2.32-0.25-3.48-0.39l0,0
						c-2.84-0.34-5.7-0.76-8.59-1.24c-2.69-0.45-5.39-0.96-8.12-1.53c-2.03-0.42-4.07-0.89-6.12-1.38c-0.21-0.05-0.41-0.1-0.62-0.15
						c-5.54-1.35-11.12-2.97-16.71-4.84c-2.09-0.7-4.18-1.43-6.27-2.21c-0.38-0.14-0.76-0.28-1.14-0.42
						c-3.48-1.31-6.96-2.72-10.43-4.23c-1.93-0.84-3.85-1.71-5.76-2.62c-4.11-1.94-7.64-4.28-10.65-6.95c0,0-0.01,0-0.01,0
						c-0.06-0.05-0.11-0.1-0.16-0.15c-1.15-1.03-2.22-2.11-3.21-3.23c-7.77-8.75-11.08-20.25-11.52-32.89
						c-0.39-10.97,1.39-22.78,4.3-34.38c3.46-13.8,8.52-27.29,13.45-38.68c0.73-1.7,1.47-3.36,2.19-4.96
						c1.59-3.52,3.14-6.79,4.59-9.74c2.09-4.27,3.96-7.87,5.43-10.6c2.01-3.74,3.25-5.86,3.25-5.86s0.56-0.85,1.68-2.27
						c8.5-10.88,49.01-55.41,113.62-11.49c0.61,0.41,1.22,0.84,1.84,1.27c6.72,4.71,12.39,10.55,17.12,17.18
						c2.87,4.02,5.39,8.32,7.6,12.84c4.84,9.9,8.16,20.85,10.28,32.06C538.19,124.69,539,131.15,539.48,137.57z"/>
				</g>
				<g>
					<path fill="none" d="M456.62,131.79c-2.2,2.96-7.81,16.3-13.66,22.65c-1.45,1.58-5.32,2.89-9.55,3.9h17.47v2.77h-39.43v0.05
						h45.52c0.44-3.85,0.74-6.5,0.8-7.05C458.17,150.14,456.62,131.79,456.62,131.79z"/>
					<path fill="none" d="M444.62,168.34v22.34c3.47-0.84,6.65-1.59,9.25-2.16c0.74-6.67,1.58-13.99,2.29-20.17H444.62z"/>
					<path fill="none" d="M440.48,225.43c-1.25,0-2.27-1.02-2.27-2.27v-6.15c-3.25,0.22-6.66,0.33-10.27,0.24l-0.27,15.46
						c1.57,0.3,3.13,0.58,4.68,0.84c2.75,0.46,5.46,0.86,8.16,1.19v-9.31H440.48z"/>
					<path fill="none" d="M407.83,201.32c3.03-1.84,19.08-6.25,32.69-9.64v-23.34H351.6c-0.03,1.55-0.02,3.08,0.04,4.6
						c0.44,12.63,3.76,24.14,11.52,32.89c1,1.12,2.06,2.2,3.21,3.23c0.05,0.05,0.11,0.1,0.16,0.15c0,0,0,0,0.01,0
						c3.01,2.67,6.54,5.01,10.65,6.95c1.91,0.9,3.83,1.78,5.76,2.62c3.46,1.51,6.94,2.93,10.43,4.23c0.38,0.14,0.75,0.28,1.14,0.42
						c2.09,0.77,4.18,1.51,6.27,2.21c2.11,0.71,4.22,1.38,6.33,2.01C406.29,213.52,406.14,202.35,407.83,201.32z"/>
					<path fill="#65462C" d="M440.52,168.34v23.34c1.4-0.35,2.77-0.69,4.1-1.01v-22.34H440.52z"/>
					<path fill="#65462C" d="M440.52,225.43v9.31c0.14,0.02,0.28,0.04,0.43,0.05l0,0c1.16,0.14,2.32,0.27,3.48,0.39
						c0.06,0.01,0.12,0.01,0.18,0.02v-9.77H440.52z"/>
					<path fill="#C4B9B3" d="M411.45,161.05c-0.54,0.04-1.07,0.08-1.6,0.12h1.6v-0.05V161.05z"/>
					<path fill="#C5C3C2" d="M400.11,156.86c0.02-1.58,0.16-2.73,0.5-2.82c0.19-0.05,1.54-0.14,3.68-0.29v-30.01h-18.17v27.74
						c2.85-0.09,11.11,4.26,12.57,4.95C399.05,156.59,399.55,156.74,400.11,156.86z"/>
					<path fill="#7B5737" d="M456.97,161.16H419.3h-1.6h-6.25h-1.6c-0.98,0.07-1.94,0.14-2.87,0.21c-0.01-0.03-0.02-0.07-0.02-0.11
						h-6.79c-0.33,0.09-0.65,0.19-0.97,0.28c0-0.01-0.01-0.01-0.01-0.02c-0.02-0.03-0.05-0.12-0.07-0.26h-6.79
						c-0.06,0.02-0.12,0.04-0.19,0.05c-0.02-0.02-0.03-0.04-0.05-0.05h-7.85h-3.17v-0.1h-7.85h-13.37h-7.85
						c-0.21,2.42-0.34,4.81-0.38,7.18h7.85h81.07h4.1h3.75h4.1h3.68H464c0.3-2.65,0.58-5.09,0.82-7.18H456.97z"/>
					<path fill="#1A3E6F" d="M514.02,123.81l-5.13,10.82c0,0-0.19,1.36-0.48,3.55h8.27c-0.5-12.27-2.3-30.81-4.86-31.98
						C512.41,106.46,512.41,120.2,514.02,123.81z"/>
					<path fill="#1A3E6F" d="M437.69,192.4c-12.92,3.28-27.04,7.22-29.86,8.93c-1.69,1.02-1.54,12.2-0.72,26.33
						c3.47,1.04,6.94,1.99,10.38,2.83c0.21,0.05,0.41,0.1,0.62,0.15c2.05,0.5,4.09,0.96,6.12,1.38c1.15,0.24,2.3,0.47,3.44,0.69
						l0.27-15.46c3.61,0.09,7.02-0.02,10.27-0.24v-0.29c0-1.25,1.02-2.27,2.27-2.27h15.79h6.14h11.36v-31.43L437.69,192.4z"/>
					<path fill="#1A3E6F" d="M452.88,201.6c-9.44,2.55-17.78,5.05-19.87,6.32c-1.66,1.01-1.55,11.82-0.76,25.62
						c0.04,0.01,0.07,0.01,0.11,0.02c2.89,0.49,5.75,0.9,8.59,1.24l0,0c1.16,0.14,2.32,0.27,3.48,0.39
						c0.81,0.08,1.63,0.16,2.44,0.24c2.03,0.18,4.04,0.33,6.04,0.44l0.21-12.01c2.34,0.06,4.6,0.03,6.78-0.05
						c-0.43-3.05-1.01-6.07-2.06-9.02C456.26,210.36,454.09,206.13,452.88,201.6z"/>
					<path fill="#1A3E6F" d="M496.36,214.46c1.17-0.75,2.24-1.66,3.21-2.74c0.82-0.91,1.55-1.9,2.19-2.95
						c-1.97,0.31-4.8,0.69-8.86,1.14c-7.16,0.79-20.91,0.44-30.51-0.27c-0.02,1.46-0.01,3.07,0.03,4.82H496.36z"/>
					<path fill="#FCBEAD" d="M490.5,101.5l-6.96,6.15l-10.64-1.79c0.09-1.03,0.55-5.31,0.97-9.19c0.03-0.23,0.05-0.46,0.08-0.68
						c0.36-3.3,0.68-6.14,0.68-6.14l9.53-5.76l3.55-2.15c-0.01,0.07-0.09,3.65-0.1,4.17C487.43,95.38,490.5,101.5,490.5,101.5z"/>
					<path fill="#E9B0A2" d="M487.92,86.25c-2.06,4.53-10.44,8.81-13.94,10.41c0.03-0.23,0.06-0.46,0.08-0.68
						c0.4-3.3,0.75-6.14,0.75-6.14l10.2-5.8C487.33,83.88,488.77,84.39,487.92,86.25z"/>
					<path fill="#FCBEAD" d="M471.44,90.26c0,0,15.79,4,18.13-5.87c2.34-9.87,5.95-16.01-4.03-18.97
						c-9.98-2.97-12.84,0.33-14.42,3.44C469.53,71.96,467.39,88.97,471.44,90.26z"/>
					<path fill="#4A4756" d="M486.33,58.83L486.33,58.83c-0.5-0.08-0.99-0.15-1.49-0.21c-2.68-0.29-5.46-0.17-7.96-1.15
						c-0.61-0.24-1.21-0.56-1.6-1.08c-0.39-0.52-0.51-1.29-0.13-1.82c-2.56,0.04-5.14,1.44-6.32,3.7l0,0c0,0-0.01,0.01-0.01,0.03
						c-0.02,0.03-0.03,0.07-0.05,0.1c0,0.01-0.01,0.02-0.01,0.03c-0.06,0.12-0.11,0.23-0.16,0.36c-0.13,0.32-0.22,0.66-0.29,1
						c-0.44,1.91-0.48,5.29,3.37,8.11c0,0,1.61,11.25,3.92,10.63c2.31-0.62,4.41-1.1,4.26,2.33c-0.16,3.43-3.18,7.54,4.05,7.75
						c6.59,0.19,14.92-15.66,14.73-21.08c0,0,0,0,0-0.01C499.45,60.24,486.33,58.83,486.33,58.83z"/>
					<path fill="#3E4148" d="M490.67,83.8c-0.2,0.39-0.4,0.78-0.61,1.18C490.28,84.62,490.48,84.23,490.67,83.8z"/>
					<path fill="#FFFFFF" d="M489.93,99.94l-0.68-3.75c-0.09-0.04-0.22-0.06-0.37-0.08c-2.51-0.34-12.98,1.09-14.62,1.4
						c-0.04,0.01-0.08,0.01-0.11,0.02c-1.28,0.27-1.33,3.08-1.33,3.11L489.93,99.94z"/>
					<path fill="#818B9C" d="M471.75,228.33v7.49c1.74-0.11,3.45-0.25,5.14-0.42v-7.07H471.75z"/>
					<polygon fill="#4E5460" points="459.17,225.43 459.17,228.33 463.03,228.33 471.75,228.33 476.89,228.33 483.54,228.33 
						489.48,228.33 489.48,225.43 					"/>
					<path fill="#5E6574" d="M486.06,222.7c-1.52,0-2.76-1.23-2.76-2.76c0-1.52,1.23-2.76,2.76-2.76c4.07,0,7.47-0.9,10.3-2.73
						h-33.95h-21.93c-1.25,0-2.27,1.02-2.27,2.27v0.29v6.15c0,1.25,1.02,2.27,2.27,2.27h0.04h4.1h14.55h30.32h18.28
						c1.25,0,2.27-1.02,2.27-2.27v-6.43c0-1.25-1.02-2.27-2.27-2.27h-3.28c-0.26,0.32-0.53,0.64-0.82,0.95
						C499.29,220.25,493.36,222.7,486.06,222.7z"/>
					<path fill="#DACEC6" d="M398.88,159.5c-1.06,0.13-3.86,0.98-6.57,1.76h6.79C399.04,160.92,398.96,160.3,398.88,159.5z"/>
					<path fill="#D6D6D6" d="M384.23,161.26c-0.41-0.48-0.72-0.98-1.01-1.29c-0.67-0.71-2.17-1.17-2.14-3.04
						c0.03-1.87,7.07-4.44,7.07-4.44c-0.63-0.25-7.8,1.25-8.5,1.51c-0.45,0.16-0.99,0.28-1.41-0.05c-4.23,2.45-5.03,5.98-5.03,5.98
						v1.24v0.1H384.23z"/>
					<path fill="#FCBEAD" d="M379.65,153.99c0.7-0.26,7.87-1.76,8.5-1.51c0,0-7.04,2.57-7.07,4.44c-0.03,1.87,1.47,2.33,2.14,3.04
						c0.29,0.31,0.6,0.81,1.01,1.29c0.54,0.64,1.24,1.24,2.27,1.32c0.86,0.06,3.29-0.59,5.81-1.32c2.71-0.78,5.52-1.63,6.57-1.76
						c-0.19-1.99-0.38-5.01-0.36-7.12c-0.38-0.1-0.72-0.23-0.96-0.38c-0.99-0.6-6.59-4.36-8.51-4.28c-0.13,0.01-0.25,0.03-0.34,0.07
						c-1.48,0.68-11.36,3.7-11.01,5.15c0.12,0.51,0.31,0.82,0.54,1C378.66,154.27,379.2,154.16,379.65,153.99z"/>
					<path fill="#1F4787" d="M511.82,106.19c-6.19-2.79-21.89-6.25-21.89-6.25l0,0l-17.11,0.7c0,0-9.67,2.32-18.86,3.93
						c-5.07,2.28-15.81,24.92-15.81,24.92s-6.63,14.46-8.85,15.64c-4.94,2.62-21.58,4.01-27.94,4.56c-1.44,0.13-2.36,0.21-2.49,0.25
						c-0.23,0.08-0.33,1.07-0.34,2.44c-0.02,2.12,0.17,5.14,0.36,7.12c0.08,0.79,0.15,1.42,0.22,1.76c0.03,0.14,0.05,0.23,0.07,0.26
						c0.23,0.42,5.24,0.05,10.67-0.36c0.53-0.04,1.07-0.08,1.6-0.12c2.8-0.2,5.61-0.4,7.83-0.47c1.86-0.06,8.33-0.85,14.13-2.23
						c4.23-1.01,8.1-2.32,9.55-3.9c5.85-6.35,11.46-19.7,13.66-22.65c0,0,1.54,18.36,1.15,22.33v45.82l-0.21,0.06
						c1.02,4.22,2.55,7.78,4.83,9.64c9.6,0.71,23.35,1.06,30.51,0.27c4.06-0.45,6.89-0.83,8.86-1.14c0.39-0.65,0.76-1.32,1.09-2
						h-20.42c-2.84,0-5.14-2.3-5.14-5.14v-58.32c0-2.84,2.3-5.14,5.14-5.14h25.99c0.29-2.19,0.48-3.55,0.48-3.55l5.13-10.82
						C512.41,120.2,512.41,106.46,511.82,106.19z"/>
					<path fill="#5E6574" d="M482.43,138.17c-2.84,0-5.14,2.3-5.14,5.14v58.32c0,2.84,2.3,5.14,5.14,5.14h20.42
						c4.51-9.32,3.39-21.6,3.38-21.78c-0.15-1.51,0.96-2.86,2.47-3.01c1.51-0.15,2.86,0.96,3.02,2.47
						c0.06,0.62,1.12,12.08-2.86,22.32h12.82c2.84,0,5.14-2.3,5.14-5.14v-58.31c0-2.84-2.3-5.14-5.14-5.14h-4.98h-8.27H482.43z"/>
					<path fill="#DACEC6" d="M511.71,184.45c-0.15-1.51-1.5-2.62-3.02-2.47c-1.51,0.15-2.62,1.5-2.47,3.01
						c0.02,0.18,1.13,12.46-3.38,21.78c-0.33,0.69-0.69,1.35-1.09,2c-0.64,1.05-1.36,2.04-2.19,2.95c-0.97,1.07-2.05,1.98-3.21,2.74
						c-2.83,1.83-6.23,2.73-10.3,2.73c-1.52,0-2.76,1.24-2.76,2.76c0,1.52,1.23,2.76,2.76,2.76c7.3,0,13.22-2.45,17.61-7.29
						c0.28-0.31,0.55-0.63,0.82-0.95c1.89-2.32,3.31-4.96,4.37-7.69C512.83,196.53,511.77,185.07,511.71,184.45z"/>
				</g>
				<g>
					<g>
						<g>
							<path fill="#363957" d="M421.58,134.17c0.01,0,0.01,0,0.02,0C421.51,134.2,421.5,134.21,421.58,134.17z"/>
						</g>
					</g>
				</g>
				<g>
					<path fill="#D6D6D6" d="M345.67,141.75h99.07c1.98,0,3.59-1.61,3.59-3.59V70.38c0-1.99-1.61-3.6-3.6-3.6h-99.07
						c-1.98,0-3.59,1.61-3.59,3.59v67.77C342.08,140.14,343.69,141.75,345.67,141.75z"/>
				</g>
				<g>
					<path fill="#F7F7F7" d="M350.84,130h88.72c2.54,0,4.61-2.06,4.61-4.61V75.45c0-2.54-2.06-4.61-4.61-4.61h-88.72
						c-2.54,0-4.61,2.06-4.61,4.61v49.95C346.24,127.94,348.3,130,350.84,130z"/>
				</g>
				<g>
					<path fill="#C5C3C2" d="M391.78,135.59c0,1.89,1.53,3.43,3.43,3.43c1.89,0,3.43-1.53,3.43-3.43c0-1.89-1.53-3.43-3.43-3.43
						C393.31,132.17,391.78,133.7,391.78,135.59z"/>
				</g>
				<g>
					<g>
						<g>
							<path fill="#EDEDF3" d="M410,78.68h25.77c0.81,0,1.46-0.65,1.46-1.46v-0.21c0-0.81-0.65-1.46-1.46-1.46H410
								c-0.81,0-1.46,0.65-1.46,1.46v0.21C408.54,78.02,409.19,78.68,410,78.68z"/>
						</g>
					</g>
				</g>
				<g>
					<g>
						<g>
							<path fill="#DFDFE3" d="M410,85.38h25.76c0.81,0,1.46-0.65,1.46-1.46v-0.21c0-0.81-0.65-1.46-1.46-1.46H410
								c-0.81,0-1.46,0.65-1.46,1.46v0.21C408.54,84.73,409.19,85.38,410,85.38z"/>
						</g>
					</g>
				</g>
				<g>
					<g>
						<g>
							<path fill="#EDEDF3" d="M411.59,125.29h22.59c1.68,0,3.05-1.36,3.05-3.05V92.99c0-1.68-1.37-3.05-3.05-3.05h-22.59
								c-1.68,0-3.05,1.36-3.05,3.05v29.25C408.54,123.92,409.91,125.29,411.59,125.29z"/>
						</g>
					</g>
				</g>
				<g>
					<g>
						<g>
							<path fill="#DFDFE3" d="M354.67,125.29h45.06c1.66,0,3.01-1.35,3.01-3.01V78.56c0-1.66-1.35-3.01-3.01-3.01h-45.06
								c-1.66,0-3.01,1.35-3.01,3.01v43.71C351.66,123.94,353.01,125.29,354.67,125.29z"/>
						</g>
					</g>
				</g>
				<path fill="#1F4787" d="M457.51,144.04c1.81-2,3.6-4.02,5.4-6.03c4.06-4.52,8.16-9.01,12.6-13.16c2.07-1.93,4.19-3.85,6.45-5.54
					c2.43-1.82,5.01-3.46,7.56-5.11c5.38-3.48,10.88-6.77,16.33-10.14c-7.04-2.16-15.92-4.11-15.92-4.11l0,0l-17.11,0.7
					c0,0-9.67,2.32-18.86,3.93c-5.07,2.28-15.81,24.92-15.81,24.92s-6.63,14.46-8.85,15.64c-4.94,2.62-21.58,4.01-27.94,4.56
					c-1.44,0.13-2.36,0.21-2.49,0.25c-0.23,0.08-0.33,1.07-0.34,2.44c-0.02,2.12,0.17,5.14,0.36,7.12c0.08,0.79,0.15,1.42,0.22,1.76
					c0.03,0.14,0.05,0.23,0.07,0.26c0.23,0.42,5.24,0.05,10.67-0.36c0.53-0.04,1.07-0.08,1.6-0.12c2.8-0.2,5.61-0.4,7.83-0.47
					c1.86-0.06,8.33-0.85,14.13-2.23c4.23-1.01,8.1-2.32,9.55-3.9c5.85-6.35,11.46-19.7,13.66-22.65
					C456.62,131.79,457.15,138.04,457.51,144.04z"/>
				<g>
					<g>
						<g>
							<g>
								<polygon fill="#D2D2D2" points="202.17,164.51 113.38,114.86 143.9,112.85 								"/>
							</g>
						</g>
					</g>
					<g>
						<g>
							<g>
								<polygon fill="#E4E4E4" points="202.17,164.51 174.85,120.57 151.92,119.96 								"/>
							</g>
						</g>
					</g>
					<g>
						<g>
							<g>
								<polygon fill="#BEBEBE" points="133.8,126.28 132.02,137.46 202.17,164.51 								"/>
							</g>
						</g>
					</g>
				</g>
				<g>
					<path fill="#BEBEBE" d="M115.39,126.33l0.36-0.77c1.86,1.55,3.19,2.34,3.21,2.35l-0.28,0.83
						C118.63,128.7,117.3,127.91,115.39,126.33z M109.5,120.26l0.47-0.66c0.85,1.09,1.79,2.16,2.77,3.17l-0.42,0.72
						C111.32,122.47,110.37,121.38,109.5,120.26z M104.86,112.49l0.59-0.45c0.58,1.36,1.28,2.7,2.05,3.99l-0.53,0.57
						C106.17,115.27,105.46,113.89,104.86,112.49z M102.38,103.11l0.68-0.13c0.17,1.58,0.46,3.15,0.87,4.67l-0.64,0.3
						C102.86,106.38,102.56,104.75,102.38,103.11z M102.21,98.12c0.06-1.62,0.24-3.28,0.53-4.94l0.67,0.21
						c-0.28,1.61-0.45,3.22-0.51,4.78L102.21,98.12z M103.86,88.43c0.44-1.48,0.97-3,1.58-4.5l0.6,0.43
						c-0.6,1.47-1.12,2.96-1.54,4.4L103.86,88.43z M107.36,79.69l0.11-0.22c0.66-1.29,1.4-2.52,2.21-3.66l0.5,0.63
						c-0.78,1.1-1.5,2.3-2.14,3.55l-0.11,0.21L107.36,79.69z M112.44,72.49c0.95-0.97,2-1.89,3.11-2.73l0.34,0.79
						c-1.08,0.82-2.1,1.72-3.03,2.66L112.44,72.49z M118.88,67.56c1.09-0.62,2.25-1.21,3.47-1.75l0.22,0.86
						c-1.2,0.53-2.35,1.11-3.42,1.72L118.88,67.56z M125.92,64.42c1.14-0.39,2.35-0.77,3.61-1.11l0.14,0.89
						c-1.25,0.34-2.45,0.71-3.58,1.1L125.92,64.42z M373.98,59.29l0.55-0.53c0.72,1.32,1.43,2.69,2.11,4.05l-0.57,0.51
						C375.4,61.96,374.69,60.61,373.98,59.29z M133.17,62.4c1.15-0.26,2.38-0.5,3.66-0.74l0.09,0.9c-1.27,0.23-2.5,0.48-3.64,0.73
						L133.17,62.4z M140.5,61.05c1.15-0.18,2.35-0.35,3.68-0.53l0.07,0.91c-1.32,0.18-2.52,0.35-3.67,0.53L140.5,61.05z
						 M147.86,60.04c1.21-0.15,2.44-0.3,3.68-0.45l0.06,0.91c-1.24,0.15-2.46,0.29-3.68,0.45L147.86,60.04z M155.22,59.16
						c1.22-0.15,2.44-0.29,3.68-0.45l0.06,0.91c-1.23,0.15-2.46,0.3-3.68,0.45L155.22,59.16z M162.57,58.23
						c1.29-0.18,2.49-0.35,3.67-0.52l0.08,0.9c-1.18,0.18-2.38,0.35-3.68,0.53L162.57,58.23z M169.89,57.12
						c1.25-0.21,2.48-0.44,3.65-0.67l0.1,0.9c-1.17,0.23-2.4,0.46-3.66,0.67L169.89,57.12z M177.17,55.68
						c1.23-0.28,2.45-0.58,3.62-0.89l0.13,0.89c-1.18,0.31-2.4,0.61-3.64,0.89L177.17,55.68z M369.48,51.55l0.52-0.58
						c0.78,1.25,1.56,2.55,2.32,3.84l-0.54,0.56C371.03,54.08,370.25,52.8,369.48,51.55z M184.4,53.78
						c1.21-0.37,2.42-0.76,3.58-1.17l0.17,0.88c-1.17,0.41-2.38,0.81-3.6,1.18L184.4,53.78z M191.51,51.27
						c1.19-0.48,2.36-0.99,3.49-1.52l0.23,0.86c-1.14,0.53-2.33,1.05-3.52,1.54L191.51,51.27z M198.45,48.02
						c1.14-0.62,2.28-1.27,3.36-1.94l0.29,0.83c-1.1,0.68-2.24,1.34-3.4,1.96L198.45,48.02z M364.57,44.25l0.49-0.63
						c0.85,1.18,1.7,2.4,2.51,3.62l-0.51,0.61C366.26,46.63,365.42,45.42,364.57,44.25z M205.09,43.91
						c1.08-0.77,2.16-1.58,3.19-2.41l0.36,0.78c-1.04,0.84-2.12,1.66-3.22,2.44L205.09,43.91z M359.3,37.43l0.46-0.68
						c0.91,1.1,1.82,2.23,2.7,3.37l-0.48,0.65C361.11,39.64,360.2,38.52,359.3,37.43z M211.34,38.83c1-0.93,1.99-1.91,2.94-2.91
						l0.42,0.71c-0.96,1.01-1.96,2-2.98,2.94L211.34,38.83z M353.67,31.13l0.42-0.72c0.97,1.01,1.94,2.05,2.88,3.1l-0.44,0.7
						C355.59,33.17,354.63,32.13,353.67,31.13z M217.09,32.77c0.91-1.09,1.86-2.17,2.81-3.21l0.43,0.7
						c-0.95,1.03-1.89,2.11-2.79,3.19L217.09,32.77z M347.71,25.38l0.38-0.76c1.02,0.91,2.04,1.86,3.04,2.82l-0.4,0.74
						C349.74,27.23,348.73,26.29,347.71,25.38z M222.81,26.51c0.98-0.98,1.99-1.95,3.01-2.88l0.39,0.75
						c-1.01,0.92-2.01,1.88-2.99,2.85L222.81,26.51z M341.47,20.21l0.34-0.79c1.07,0.82,2.14,1.67,3.18,2.53l-0.36,0.77
						C343.59,21.87,342.53,21.02,341.47,20.21z M228.92,20.93c1.03-0.87,2.1-1.72,3.17-2.54l0.34,0.79
						c-1.06,0.81-2.12,1.66-3.15,2.52L228.92,20.93z M334.97,15.64l0.3-0.82c1.11,0.71,2.22,1.46,3.3,2.23l-0.32,0.81
						C337.17,17.09,336.07,16.35,334.97,15.64z M235.33,16.02c1.08-0.75,2.2-1.49,3.31-2.2l0.29,0.82c-1.11,0.7-2.21,1.44-3.29,2.19
						L235.33,16.02z M328.25,11.68l0.26-0.84c1.14,0.61,2.28,1.25,3.4,1.91l-0.28,0.83C330.52,12.92,329.38,12.28,328.25,11.68z
						 M242.02,11.79c1.12-0.64,2.28-1.27,3.42-1.87l0.25,0.85c-1.14,0.59-2.28,1.21-3.4,1.86L242.02,11.79z M321.36,8.34l0.21-0.87
						c1.17,0.51,2.34,1.05,3.49,1.6l-0.23,0.86C323.68,9.38,322.52,8.84,321.36,8.34z M248.91,8.22c1.16-0.54,2.34-1.06,3.51-1.54
						l0.2,0.87c-1.17,0.48-2.34,1-3.49,1.53L248.91,8.22z M314.31,5.61l0.17-0.88c1.19,0.4,2.39,0.84,3.56,1.29l-0.19,0.88
						C316.68,6.45,315.49,6.01,314.31,5.61z M255.98,5.3c1.18-0.43,2.39-0.84,3.58-1.22l0.16,0.89c-1.19,0.38-2.39,0.78-3.56,1.21
						L255.98,5.3z M307.14,3.51l0.13-0.9c1.21,0.3,2.42,0.63,3.62,0.98l-0.15,0.89C309.55,4.13,308.34,3.81,307.14,3.51z
						 M263.18,3.02c1.2-0.32,2.43-0.63,3.64-0.9l0.11,0.9c-1.2,0.27-2.42,0.57-3.62,0.89L263.18,3.02z M299.88,2.02l0.08-0.9
						c1.22,0.2,2.45,0.42,3.66,0.67l-0.1,0.9C302.31,2.44,301.09,2.22,299.88,2.02z M270.47,1.39c1.21-0.22,2.45-0.41,3.67-0.58
						l0.07,0.91c-1.21,0.17-2.44,0.36-3.65,0.58L270.47,1.39z M292.57,1.16l0.04-0.91c1.22,0.09,2.46,0.21,3.68,0.36l-0.06,0.91
						C295.01,1.37,293.78,1.25,292.57,1.16z M277.83,0.38c1.22-0.11,2.47-0.2,3.69-0.27l0.03,0.91c-1.22,0.06-2.46,0.15-3.67,0.26
						L277.83,0.38z M285.23,0.91l0-0.91c1.22-0.01,2.47,0,3.69,0.05l-0.02,0.91C287.68,0.92,286.44,0.9,285.23,0.91z"/>
				</g>
			</g>
		</g>
		<g>
			<g>
				<g>
					<path fill="#409877" d="M73.33,354.1c0,0,10.9-12.72,0.67-20.8c0,0-7.47-4.52-13.57-4.16c0,0,8.63,14.48,5.84,15.92
						c-2.79,1.44-8.46-16.83-8.46-16.83s-17-1.65-22.48,0.98c0,0,14.54,11.9,11.48,12.6c-3.06,0.71-18.76-10.97-18.76-10.97
						s-15.83,2.69-14.98,12.35c0.84,9.66,6.3,12.64,8.69,12.38c2.4-0.26,16.42-5.61,16.72-3.65c0.31,1.96-8.13,8.38-14.04,8.68
						c0,0,11.16,12.31,18.57,8.75c7.42-3.55,8.05-9.18,12.67-11.29c4.62-2.11,8.57-2.11,6.66,0.05c-1.91,2.15-10.27,4.25-12.92,8.92
						c-2.64,4.68-5.02,7.83,2.66,6.68c7.67-1.15,20.14-6.77,20.69-13.2C73.33,354.1,73.33,354.1,73.33,354.1z"/>
					<g>
						<path fill="#388769" d="M20.85,343.46c0,0,42.99-1.66,52.48,10.64c0,0,2.1,6.29,8.56,12.01l1.01,2.74
							c0,0-7.45-7.85-10.11-8.33C72.78,360.53,76.95,345.3,20.85,343.46z"/>
						<path fill="#388769" d="M81.89,366.12c0,0,9.23,6.82,9.87,19.02l-1.67,0.15c0,0-2.95-12.61-8.27-17.54
							C76.48,362.81,81.89,366.12,81.89,366.12z"/>
					</g>
				</g>
				<g>
					<path fill="#409877" d="M111.45,338.11c0,0-17.34-9.71-9.25-22.89c0,0,6.47-8.09,13.41-10.17c0,0-3.7,19.66,0,20.12
						c3.7,0.46,2.54-22.2,2.54-22.2s18.27-8.79,25.44-8.09c0,0-11.33,19.19-7.63,18.73c3.7-0.46,16.42-19.89,16.42-19.89
						s18.73-3.47,21.74,7.63c3.01,11.1-1.85,16.65-4.62,17.34c-2.78,0.69-20.58,0.46-20.12,2.77c0.46,2.31,12.49,6.01,19.19,3.93
						c0,0-7.4,18.27-17.11,17.34c-9.71-0.92-12.72-6.94-18.73-7.4c-6.01-0.46-10.41,1.16-7.4,2.77c3.01,1.62,13.18,0.53,18.04,4.66
						c4.86,4.13,8.79,6.67-0.23,8.52c-9.02,1.85-25.21,0.69-28.44-6.24C111.45,338.11,111.45,338.11,111.45,338.11z"/>
					<path fill="#388769" d="M165.56,304.81c0,0-48.56,15.72-54.11,33.3c0,0,0.23,7.86-4.62,16.88c0,0-7.49,11.37-3.22,25.21
						l1.93-0.52c0,0-1.68-13.73,1.49-21.69c0.13-0.29,0.32-0.71,0.55-1.23c0.58-1.13,0.97-1.97,1.22-2.57
						c1.73-3.55,4.23-8.18,5.89-9.15C114.68,345.04,103.82,329.78,165.56,304.81z"/>
				</g>
				<g>
					<path fill="#56C092" d="M83.86,324.71c0,0,22.86-12.8,12.19-30.18c0,0-8.53-10.67-17.68-13.41c0,0,4.88,25.91,0,26.52
						c-4.88,0.61-3.35-29.26-3.35-29.26s-24.08-11.58-33.53-10.67c0,0,14.94,25.3,10.06,24.69c-4.88-0.61-21.64-26.21-21.64-26.21
						s-24.69-4.57-28.65,10.06c-3.96,14.63,2.44,21.95,6.1,22.86c3.66,0.91,27.13,0.61,26.52,3.66c-0.61,3.05-16.46,7.93-25.3,5.18
						c0,0,9.75,24.08,22.56,22.86c12.8-1.22,16.76-9.14,24.69-9.75c7.93-0.61,13.72,1.52,9.75,3.66c-3.96,2.13-17.37,0.7-23.78,6.14
						c-6.4,5.44-11.58,8.8,0.3,11.23c11.89,2.44,33.22,0.91,37.49-8.23C83.86,324.71,83.86,324.71,83.86,324.71z"/>
					<g>
						<path fill="#409877" d="M12.53,280.82c0,0,64.01,20.73,71.33,43.89c0,0-0.3,10.36,6.1,22.25v4.57c0,0-6.71-15.55-10.36-17.68
							C79.59,333.86,93.91,313.74,12.53,280.82z"/>
						<path fill="#409877" d="M89.95,346.96c0,0,9.87,14.99,4.24,33.24l-2.54-0.68c0,0,2.47-20.1-2.7-30.21
							C83.79,339.2,89.95,346.96,89.95,346.96z"/>
					</g>
				</g>
				<path fill="#976B45" d="M64.89,415.2h39.47c14.84-7.3,25.05-22.56,25.05-40.21H69.32H39.84
					C39.84,392.64,50.06,407.9,64.89,415.2z"/>
				<path fill="#A67550" d="M98.91,415.2c14.83-7.3,25.04-22.56,25.04-40.21h-11.13c0,17.42-3.54,32.7-15.01,40.21H98.91z"/>
				
					<rect x="38.83" y="374.99" transform="matrix(-1 3.940148e-14 -3.940148e-14 -1 169.7054 751.3551)" fill="#845C3D" width="92.05" height="1.37"/>
			</g>
			<path fill="#845C3D" d="M104.14,420.14H63.83c-1.27,0-2.31-1.04-2.31-2.31v-0.33c0-1.27,1.04-2.31,2.31-2.31h40.31
				c1.27,0,2.31,1.04,2.31,2.31v0.33C106.45,419.1,105.41,420.14,104.14,420.14z"/>
		</g>
		<path fill="#6CB9D9" d="M207.4,203.82c-6.82-0.18-10.24,1.84-10.24,1.84s-0.97,0.44-1.79,7.8l-3.28,28.06l10.58,2.01l8.58,1.74
			c0.01-0.04,0.02-0.07,0.03-0.11l0.59,0.11l2.27-15.58l-0.5-0.48c0.87-7.01,1.62-13.83,1.77-15.23
			C215.69,211.23,214.22,204,207.4,203.82z"/>
	</g>
</g>
</svg>
