<?xml version="1.0" encoding="utf-8"?>
<!-- Generator: Adobe Illustrator 24.1.2, SVG Export Plug-In . SVG Version: 6.00 Build 0)  -->
<svg version="1.1" id="Layer_1" xmlns="http://www.w3.org/2000/svg" xmlns:xlink="http://www.w3.org/1999/xlink" x="0px" y="0px"
	 width="605.77px" height="453.09px" viewBox="0 0 605.77 453.09" enable-background="new 0 0 605.77 453.09" xml:space="preserve">
<g>
	<ellipse opacity="0.05" enable-background="new    " cx="96.94" cy="372.09" rx="65.29" ry="9.59"/>
	<ellipse opacity="0.05" enable-background="new    " cx="490.18" cy="443.5" rx="30.7" ry="9.59"/>
	<ellipse opacity="0.05" enable-background="new    " cx="586.06" cy="406.87" rx="7.72" ry="2.41"/>
	<g>
		<g>
			<path fill="#6CB9D9" d="M112.81,114.04L112.81,114.04c4.59-22.04,4.62-44.31,4.62-44.31H54.87c0,0-0.06,36.78-9.75,62.58h40.35
				h10.66h12.82l3.63-17.16C112.66,114.77,112.74,114.41,112.81,114.04L112.81,114.04z"/>
			<g>
				<g>
					<path fill="#FFFFFF" d="M84.02,112.52c-0.8,0-1.45-0.65-1.45-1.46V90.95c0-0.8,0.65-1.46,1.45-1.46c0.8,0,1.45,0.65,1.45,1.46
						v20.12C85.47,111.87,84.82,112.52,84.02,112.52z"/>
				</g>
				<g>
					<path fill="#FFFFFF" d="M94.08,102.47H73.96c-0.8,0-1.45-0.65-1.45-1.45c0-0.8,0.65-1.46,1.45-1.46h20.11
						c0.8,0,1.45,0.65,1.45,1.46S94.88,102.47,94.08,102.47z"/>
				</g>
			</g>
		</g>
		<g>
			<g>
				<rect x="261.59" y="269.57" fill="#C5C3C2" width="67.11" height="82.76"/>
				<path fill="#D6D6D6" d="M376.18,362.47H214.12l0,0c0-7.48,6.06-13.54,13.54-13.54h134.98
					C370.12,348.92,376.18,354.99,376.18,362.47L376.18,362.47z"/>
				<path fill="#D6D6D6" d="M490.2,44.14v247.38c0,9.78-8.12,17.69-18.16,17.69H118.26c-10.04,0-18.16-7.91-18.16-17.69V44.14
					c0-9.78,8.12-17.69,18.16-17.69h353.78C482.08,26.45,490.2,34.36,490.2,44.14z"/>
				<rect x="119.8" y="44.83" fill="#F7F7F7" width="350.7" height="220.1"/>
				<rect x="119.8" y="44.83" fill="#DFDFE3" width="350.7" height="10.98"/>
				<g>
					<path fill="#C5C3C2" d="M128.76,50.32c0,1.5-1.25,2.72-2.8,2.72c-1.54,0-2.8-1.22-2.8-2.72c0-1.51,1.25-2.72,2.8-2.72
						C127.51,47.6,128.76,48.82,128.76,50.32z"/>
					<path fill="#C5C3C2" d="M140.18,50.32c0,1.5-1.25,2.72-2.8,2.72s-2.8-1.22-2.8-2.72c0-1.51,1.25-2.72,2.8-2.72
						S140.18,48.82,140.18,50.32z"/>
					<path fill="#C5C3C2" d="M151.6,50.32c0,1.5-1.25,2.72-2.8,2.72c-1.54,0-2.8-1.22-2.8-2.72c0-1.51,1.25-2.72,2.8-2.72
						C150.35,47.6,151.6,48.82,151.6,50.32z"/>
				</g>
				<path fill="#C5C3C2" d="M301.91,285.55c0,3.71-3.08,6.71-6.89,6.71c-3.8,0-6.89-3-6.89-6.71s3.08-6.71,6.89-6.71
					C298.83,278.84,301.91,281.85,301.91,285.55z"/>
			</g>
			<path opacity="0.05" enable-background="new    " d="M452.71,171.17c0,79.3-64.26,143.58-143.54,143.58
				c-31.67,0-60.94-10.26-84.69-27.64c-35.68-26.12-58.85-68.32-58.85-115.94c0-79.29,64.26-143.57,143.54-143.57
				c33.2,0,63.78,11.28,88.1,30.22C431.01,84.09,452.71,125.09,452.71,171.17z"/>
		</g>
		<g>
			<path fill-rule="evenodd" clip-rule="evenodd" fill="#D5A855" d="M438.45,172.98c0.01-0.38,0.01-0.76,0.01-1.15
				c0-0.22,0-0.44,0-0.66c0-0.02,0-0.04,0-0.05c0-0.02,0-0.04,0-0.06c0-0.13,0-0.26,0-0.39c0-0.47,0-0.93-0.01-1.39
				c0-0.11,0-0.22-0.01-0.33c-0.01-0.49-0.02-0.98-0.03-1.48c0-0.13-0.01-0.27-0.01-0.4c-0.01-0.45-0.03-0.9-0.04-1.35
				c-0.01-0.19-0.02-0.38-0.02-0.57c-0.02-0.38-0.03-0.75-0.05-1.13c-0.01-0.27-0.03-0.54-0.04-0.81c-0.02-0.28-0.03-0.55-0.05-0.83
				c-0.02-0.37-0.05-0.73-0.07-1.1c-0.01-0.15-0.02-0.3-0.03-0.45c-2.37-33.54-16.31-63.89-37.86-87.07l7.41-7.41l3.51,3.52
				c0.83,0.82,2.17,0.82,3,0l5.1-5.1c0.82-0.83,0.82-2.17,0-3L404.9,47.4c-0.83-0.82-2.17-0.82-3,0l-5.1,5.1
				c-0.82,0.83-0.82,2.17,0,3l3.52,3.51l-7.41,7.41c-23.68-22.05-54.86-36.16-89.29-38.08V18.25h6.7c2.63-0.01,4.76-2.14,4.77-4.77
				V4.77c-0.01-2.63-2.14-4.76-4.77-4.77h-29.58c-2.63,0.01-4.76,2.14-4.77,4.77v8.71c0.01,2.63,2.14,4.76,4.77,4.77h6.7v10.08
				c-34.45,1.92-65.65,16.04-89.34,38.11l-7.42-7.42l3.52-3.51c0.82-0.83,0.82-2.17,0-3l-5.1-5.1c-0.83-0.82-2.17-0.82-3,0
				l-14.37,14.37c-0.82,0.83-0.82,2.17,0,3l5.1,5.1c0.83,0.82,2.17,0.82,3,0l3.52-3.52l7.42,7.42
				c-16.84,18.13-29.04,40.63-34.68,65.62c-0.03,0.14-0.06,0.28-0.09,0.42c-0.07,0.33-0.15,0.67-0.22,1
				c-0.1,0.45-0.19,0.9-0.29,1.35c-0.01,0.04-0.02,0.07-0.02,0.11c-1.94,9.45-2.94,19.13-2.93,28.91c0,2.84,0.09,5.66,0.25,8.47
				l0.03,0c0.19,3.21,0.48,6.38,0.88,9.53l-0.13,0.02l0.45,2.66c2.38,17.11,7.72,33.67,15.77,48.96
				c6.88,12.21,15.64,23.27,25.94,32.78c55.54,54.1,144.08,54.07,199.58-0.08c10.28-9.49,19.01-20.52,25.88-32.7
				c5.18-9.29,8.29-17.85,10.68-26.68c2.29-7.26,4.02-14.77,5.13-22.47c0.16-0.72,0.31-1.45,0.47-2.19l-0.17-0.04
				c0.42-3.23,0.72-6.5,0.92-9.8l0.01,0c0.09-1.61,0.16-3.24,0.2-4.86c0-0.04,0-0.09,0-0.13
				C438.44,174.09,438.45,173.54,438.45,172.98z"/>
			<path fill="#E6B759" d="M439.27,171.17c0,79.3-64.26,143.58-143.54,143.58c-31.67,0-60.94-10.26-84.69-27.64
				c-35.68-26.12-58.85-68.32-58.85-115.94c0-79.29,64.26-143.57,143.54-143.57c33.2,0,63.78,11.28,88.1,30.22
				C417.57,84.09,439.27,125.09,439.27,171.17z"/>
			<ellipse fill="#E6EEFD" cx="295.73" cy="171.17" rx="123.72" ry="123.75"/>
			<g id="Group_11852-2_3_" transform="translate(131.412 146.827)" opacity="0.05">
				<path id="Path_15245_3_" fill-rule="evenodd" clip-rule="evenodd" d="M164.07-40.73c-5.85,6.02-10.44,13.15-13.49,20.97
					c-8.05,20.7-8.05,43.67,0,64.37c2.37,5.48,5.21,10.74,8.48,15.73c0.55,0.93,1.11,1.9,1.69,2.94c1.24,2.22,2.36,4.52,3.34,6.87
					c0.98-2.35,2.1-4.64,3.34-6.87c0.52-0.93,1.09-1.93,1.68-2.94c3.14-5.07,5.97-10.33,8.48-15.75c2.74-6.85,4.55-14.03,5.4-21.35
					c2.73-3.76,5.84-7.24,9.27-10.39l0.2-0.19c0,8.88-1.22,17.72-3.62,26.28c6.72-4.39,13.76-8.26,21.06-11.58
					c1.91-9.84,1.3-19.99-1.76-29.53c-7,2.64-13.42,6.63-18.89,11.74c-16.6,15.14-19.98,28.81-25.15,49.4
					c-1.3-1.58-6.77-26.32-14.6-37.39l0,0v-0.14l0,0v-0.14l0,0v-0.14l0,0V21l0,0v-0.14l0,0v-0.14l0,0v-0.14l0,0v-0.14l0,0v-0.14l0,0
					c-0.37-4.11-0.45-8.25-0.24-12.38l0,0V7.83l0,0V7.76l0,0V7.68l0,0V7.59l0,0V7.51l0,0V7.43l0,0V7.35l0,0V7.27
					c6.03,6.46,11.06,13.79,14.93,21.74c4.67-9.67,11.09-18.4,18.95-25.73c-0.71-7.91-2.55-15.67-5.47-23.05
					c-3.05-7.82-7.64-14.95-13.49-20.97L164.07-40.73z M215.21,68.3c-1.09,0.99-2.23,1.96-3.4,2.91c-3.95,3.19-8.23,5.96-12.76,8.28
					c-3.48,1.77-7.1,3.24-10.83,4.37c-1.29,0.39-2.57,0.73-3.85,1.02c2.48-1.76,4.86-3.67,7.11-5.72c2.56-2.34,4.97-4.85,7.21-7.51
					l0,0c2.99-3.55,5.7-7.32,8.09-11.3c1.53-2.53,2.95-5.16,4.27-7.91c2.05-4.27,3.76-8.69,5.13-13.23
					c-3.82,1.25-7.52,2.87-11.03,4.83c-0.62,1.54-1.3,3.07-2.04,4.6c-1.95,4.08-4.24,8-6.83,11.71c-2.85,4.08-6.09,7.86-9.69,11.3
					c-0.35,0.33-0.7,0.66-1.05,0.98c-4.79,4.44-10.29,8.06-16.27,10.71c0.2-1.41,0.51-2.79,0.94-4.14
					c1.22-4.03,2.86-7.92,4.88-11.61c1.4-2.51,2.97-4.92,4.7-7.23c3.68-4.88,7.95-9.28,12.72-13.1c6.98-5.69,14.99-9.98,23.59-12.65
					c6.28-1.97,12.88-2.73,19.45-2.23c-0.18,1.47-0.44,2.93-0.77,4.37c-3.57,11.47-9.87,21.91-18.37,30.4
					c-0.4,0.39-0.8,0.78-1.2,1.16L215.21,68.3z M219.11,24.71c7.22-1.61,14.69-1.78,21.97-0.48l5.27,1.16
					c-2.39,11-3.79,19.63-9.44,29.75c-3.98,7.06-9.04,13.45-15,18.95c-32.16,31.38-83.48,31.4-115.66,0.05
					c-5.97-5.51-11.04-11.92-15.03-19c-4.67-8.86-7.76-18.46-9.14-28.37l-0.26-1.54l1.54-0.28l3.67-0.7
					c7.25-1.3,14.68-1.14,21.87,0.46c-0.17-1.43-0.3-2.84-0.39-4.24c-0.79-10.19,0.88-20.41,4.87-29.82l1.54-3.42l3.61,0.95
					c5.02,1.36,9.84,3.39,14.32,6.04c1.37,0.8,2.72,1.66,4.07,2.58c1.07-6.8,2.9-13.45,5.46-19.84
					c4.02-10.38,10.47-19.65,18.82-27.01l2.85-2.42l2.85,2.42c8.35,7.36,14.81,16.63,18.82,27.01c2.71,6.32,4.58,12.96,5.57,19.76
					l0,0c5.56-3.86,11.74-6.75,18.27-8.54l3.61-0.95l1.54,3.42c4.55,10.75,6.06,22.55,4.37,34.1L219.11,24.71z M112.96,68.33
					c1.08,0.98,2.21,1.94,3.37,2.87c6.98,5.68,14.99,9.98,23.59,12.64c1.29,0.39,2.57,0.73,3.85,1.02
					c-2.48-1.76-4.86-3.67-7.11-5.72c-8.18-7.57-14.82-16.64-19.58-26.71c-2.81-5.84-4.98-11.96-6.48-18.26
					c-5.85-1.68-11.95-2.29-18.02-1.82c1.59,12.63,11.38,27.37,20.39,35.97L112.96,68.33z M139.33,38.95
					c-5.02-3.83-10.47-7.07-16.24-9.64c0.84,3.97,2,7.88,3.47,11.66c3.18,1.86,6.21,3.95,9.07,6.26
					c7.05,5.6,12.97,12.51,17.41,20.34c2.8,4.92,4.79,10.26,5.9,15.8l-0.08-0.03c-5.98-2.65-11.47-6.26-16.27-10.71
					c-14.72-13.79-23.73-32.6-25.25-52.71c-0.55-7.47,0.37-14.97,2.7-22.08c4.1,1.51,7.99,3.52,11.6,5.98
					c1.43,0.97,2.84,2.01,4.24,3.14c-0.1,1.8-0.15,3.62-0.15,5.47c-0.02,8.96,1.19,17.88,3.61,26.5L139.33,38.95z"/>
			</g>
			<g>
				<rect x="293.97" y="56.9" fill="#FFCA80" width="3.53" height="12.82"/>
				<rect x="293.97" y="272.63" fill="#FFCA80" width="3.53" height="12.82"/>
				<rect x="397.16" y="169.41" fill="#FFCA80" width="12.82" height="3.53"/>
				<rect x="181.49" y="169.41" fill="#FFCA80" width="12.82" height="3.53"/>
				
					<rect x="370.23" y="241.05" transform="matrix(0.707 -0.7072 0.7072 0.707 -66.0102 335.5784)" fill="#FFCA80" width="3.53" height="12.82"/>
				
					<rect x="217.72" y="88.5" transform="matrix(0.707 -0.7072 0.7072 0.707 -2.8115 183.0304)" fill="#FFCA80" width="3.53" height="12.82"/>
				
					<rect x="213.08" y="245.68" transform="matrix(0.7072 -0.707 0.707 0.7072 -110.6828 227.6327)" fill="#FFCA80" width="12.82" height="3.53"/>
				
					<rect x="365.59" y="93.14" transform="matrix(0.7072 -0.707 0.707 0.7072 41.8226 290.7917)" fill="#FFCA80" width="12.82" height="3.53"/>
			</g>
			<g>
				<path fill="#E6B759" d="M295.73,279.2c-28.85,0-55.97-11.24-76.37-31.64c-20.4-20.4-31.63-47.53-31.63-76.39
					s11.23-55.98,31.63-76.39s47.52-31.64,76.37-31.64c28.85,0,55.97,11.24,76.37,31.64c20.4,20.4,31.63,47.53,31.63,76.39
					s-11.23,55.98-31.63,76.39C351.7,267.97,324.58,279.2,295.73,279.2z M295.73,63.48c-59.37,0-107.67,48.31-107.67,107.7
					s48.3,107.7,107.67,107.7s107.67-48.31,107.67-107.7S355.1,63.48,295.73,63.48z"/>
			</g>
			<g>
				<polygon fill="#D5A855" points="287.15,188.78 281.16,184.28 351.17,94.35 354.13,96.58 				"/>
				<path fill="#FFCB68" d="M286.13,185.37l-1.41-1.06c-0.4-0.3-0.47-0.86-0.17-1.26l46.5-60.36c0.3-0.39,0.85-0.46,1.24-0.17l0,0
					c0.39,0.29,0.47,0.85,0.18,1.24l-45.1,61.42C287.09,185.58,286.53,185.67,286.13,185.37z"/>
			</g>
			<path fill="#FFD186" d="M303.42,171.17c0,4.25-3.44,7.69-7.69,7.69c-4.25,0-7.69-3.44-7.69-7.69c0-4.25,3.44-7.69,7.69-7.69
				S303.42,166.93,303.42,171.17z"/>
			<path fill="#D5A855" d="M300.36,171.17c0,2.56-2.07,4.63-4.63,4.63c-2.56,0-4.63-2.07-4.63-4.63c0-2.56,2.07-4.63,4.63-4.63
				C298.29,166.54,300.36,168.62,300.36,171.17z"/>
			<path opacity="0.05" enable-background="new    " d="M439.27,171.17c0,79.3-64.26,143.58-143.54,143.58
				c-31.67,0-60.94-10.26-84.69-27.64L383.83,57.82C417.57,84.09,439.27,125.09,439.27,171.17z"/>
		</g>
		<g>
			<g>
				<path fill="#56C092" d="M459.35,277.34c0,0-0.04,24.67-5.82,45.59l-12.32,7.71h-43.45c8.26-21.98,8.31-53.31,8.31-53.31
					L459.35,277.34L459.35,277.34z"/>
				<polygon fill="#409877" points="441.2,330.65 441.2,322.75 453.53,322.75 				"/>
			</g>
			<g>
				<path fill="#FFFFFF" d="M426.63,311.08l-9.04-10.33c-0.49-0.56-0.43-1.4,0.13-1.89s1.4-0.43,1.89,0.13l7.29,8.33l15.05-12.96
					c0.56-0.48,1.41-0.42,1.89,0.14c0.48,0.56,0.42,1.41-0.14,1.89L426.63,311.08z"/>
			</g>
		</g>
		<g>
			<path fill="#4A4756" d="M72.38,366.48c-3.19-0.67-7.74-2.5-11.29-5.52c-0.71-0.61-0.77-1.76-0.77-1.76v-1.03v-5.26l-8.1-3.92
				c0,0-3.77,5.2-4.93,8.4l0,0c0,0.01,0,0.01-0.01,0.02c-0.01,0.04-0.03,0.08-0.04,0.11c-1.99,5.58-1.27,11.54-1.14,12.52
				c-0.01,0.03-0.01,0.06-0.02,0.09c0.01,0.02,0.03,0.04,0.04,0.06c0.31,1.06,1.26,1.85,2.43,1.89l1.06,0.04l3.18,0.11l0.06-1.71
				c0,0,12.38,2.11,14.6,2.07c8.7-0.08,9.79-1,9.79-1S77.28,367.51,72.38,366.48z"/>
			<g>
				<path fill="#22303F" d="M109.05,263.93c-1.07-11.02-37.79-34.94-39.56-24.5c-1.78,10.45,13.37,34.43,14.32,42.26
					c0.95,7.83,0.16,9.88-5.77,16.65c-5.93,6.77-30.89,56.7-30.89,56.7c0.71,3.8,13.82,4.99,14.18,4.15
					c0.36-0.83,35.69-47.56,37.6-49.34c1.9-1.78,8.9-9.73,9.97-13.65c0.68-2.49,1.85-13.32,1.13-21
					C110.01,275.21,109.2,264.83,109.05,263.93z"/>
			</g>
			<g>
				<g>
					<path fill="#FCBEAD" d="M166.74,221.66c0,0,3.94,1.36,5.6-0.34c1.41-1.45,4.28-2.3,5.16-2.57c1.18-0.35,4.4-2.79,4.86-1.31
						s-5.11,4.27-6.16,5.09s4.77,2.09,5.65,3.16c0.88,1.07-1.77,10.6-5.66,9.26c-3.89-1.33-7.18-5.33-7.91-5.43
						c-0.73-0.1-2.87-0.86-2.87-0.86L166.74,221.66z"/>
				</g>
			</g>
			<g>
				<g>
					<path fill="#FCBEAD" d="M181,225.17c0,0,11.65,4.87,12.16,5.85c0.51,0.97,0.2,1.59-0.91,1.18c-1.11-0.41-11.4-4.38-11.4-4.38
						s12.82,8.09,13.41,8.8c0.34,0.42-0.17,1.64-0.78,1.48c-0.61-0.17-13.78-7.45-13.78-7.45s11.96,7.57,12.27,8.31
						c0.28,0.65-0.48,1.65-1.4,1.15c-0.93-0.5-12.42-6.9-12.42-6.9s8.36,6.06,8.26,6.84c-0.06,0.48-0.46,1.56-2.56-0.07
						c-2.11-1.63-7.48-4.96-7.48-4.96L181,225.17z"/>
				</g>
			</g>
			<path fill="#2D3D54" d="M114.28,165.05c0,0,15.87,23.77,24.93,32.54c2.84,2.75,31.24,22.03,32.31,23.12
				c1.07,1.1-2.78,10.59-2.78,10.59s-36.31-21-38.42-22.31c-2.11-1.32-28.45-31.5-29.73-35.68c-1.29-4.19-0.82-9.12,3.44-11.08
				C109.99,159.47,114.28,165.05,114.28,165.05z"/>
			<path fill="#4A4756" d="M145.21,366.05c-3.16-0.67-7.68-2.48-11.2-5.47c-0.71-0.6-0.76-1.75-0.76-1.75v-1.02v-5.22l-8.03-3.89
				c0,0-3.74,5.16-4.89,8.33l0,0c0,0.01,0,0.01-0.01,0.02c-0.01,0.04-0.03,0.07-0.04,0.11c-1.98,5.53-1.26,11.45-1.13,12.42
				c-0.01,0.03-0.01,0.06-0.02,0.08c0.01,0.02,0.03,0.04,0.04,0.06c0.3,1.05,1.25,1.84,2.41,1.88l1.05,0.04l3.15,0.11l0.06-1.7
				c0,0,12.28,2.09,14.48,2.06c8.63-0.08,9.71-0.99,9.71-0.99S150.07,367.07,145.21,366.05z"/>
			<g>
				<path fill="#2A3B4B" d="M119.76,234.77c0,0,42.51,32.21,47.27,38.8c4.76,6.59-0.58,16.38-1.29,19.58
					c-0.71,3.2-30.47,60.39-30.83,65.91c0,0-12.99,1.82-16.37-2.45c0,0,18.9-55.1,21.93-65.42c3.03-10.33-10.5-11.93-18.87-15.67
					c-8.37-3.74-45.08-25.29-47.22-33.4c-1.95-7.4-0.02-12.98-0.02-12.98S84.64,222.49,119.76,234.77z"/>
			</g>
			<g>
				<path fill="#FFFFFF" d="M123.23,155.76c0,0,3.2,14.04,2.42,21.78c-0.78,7.74-8.73,27.44-9.32,31.75
					c-0.59,4.31,3.43,25.49,3.43,25.49L71.97,242c0,0,0.07-12.38,1.83-27.08c1.76-14.69,7.29-26.32,9.23-34.62
					c6.61-28.33,30.8-32.27,30.8-32.27L123.23,155.76z"/>
			</g>
			<path fill="#FCBEAD" d="M146.99,128.39c0,0,1.33-8.74-6.51-10.88c0,0,0,0,0,0c-7.6-5.38-18.77-3.74-21.01,1.13
				c-2.92,6.38-1.83,22.35,1.14,26.17c0.59,0.76,2.57,2.19,2.57,2.19s8.82,4.87,9.75,5.05c2.65,0.83,4.77,1.1,4.77,1.1
				c1.28,0.09,2.56-1.32,3.72-3.45c0.35-0.41,4.08-11.39,4.62-13.77c0.08-0.43,0.17-0.84,0.26-1.2l0,0l0,0
				C146.3,134.73,147.13,131.64,146.99,128.39L146.99,128.39z"/>
			<g>
				<path fill="#FCBEAD" d="M130.4,151.1c0,0-0.4,0.69-1.01,1.77c-0.25,0.45-0.54,0.97-0.85,1.53c-0.24,0.43-0.48,0.89-0.73,1.36
					c-1.58,2.96-3.38,6.58-3.78,8.42c-0.75,3.45-8.6-15.9-8.6-15.9s5.68-9.89,10.19-21.81C130.13,114.54,130.4,151.1,130.4,151.1z"
					/>
			</g>
			<g>
				<path fill="#FFFFFF" d="M116.3,146.71c0,0,4.94,11.53,9.17,15.44l-1.99,6.86l-9.65-20.97L116.3,146.71z"/>
			</g>
			<g>
				<g>
					<path fill="#845C3D" d="M41.55,257.61l-17.15-3.99c-1.74-0.41-2.83-2.15-2.43-3.89l2.51-10.82c0.41-1.74,2.15-2.83,3.89-2.43
						l17.15,3.99c1.74,0.41,2.83,2.15,2.43,3.89l-2.51,10.82C45.04,256.93,43.29,258.02,41.55,257.61z M27.89,238.61
						c-0.57-0.13-1.15,0.22-1.28,0.8l-2.51,10.82c-0.13,0.57,0.23,1.15,0.8,1.28l17.15,3.99c0.57,0.13,1.15-0.23,1.28-0.8
						l2.51-10.82c0.13-0.57-0.23-1.15-0.8-1.28L27.89,238.61z"/>
				</g>
				<g>
					<path fill="#845C3D" d="M36.68,288.1l-21.36-4.97c-10.65-2.48-17.28-13.12-14.8-23.77l0,0c2.48-10.65,13.12-17.28,23.77-14.8
						l21.36,4.97c10.65,2.48,17.28,13.12,14.8,23.77l0,0C57.97,283.95,47.33,290.58,36.68,288.1z"/>
				</g>
				<g>
					<path fill="#976B45" d="M52.39,269.15l-42.8-9.95c-4.73-1.1-7.67-5.82-6.57-10.55l0,0c1.1-4.73,5.82-7.67,10.55-6.57l42.8,9.95
						c4.73,1.1,7.67,5.82,6.57,10.55l0,0C61.84,267.31,57.12,270.25,52.39,269.15z"/>
				</g>
				<g>
					
						<rect x="30.43" y="257.08" transform="matrix(0.2265 -0.974 0.974 0.2265 -230.0588 232.9478)" fill="#845C3D" width="2.43" height="8.49"/>
				</g>
			</g>
			<g>
				<path fill="#FCBEAD" d="M28.14,238.52c0,0-0.03-1.54,0.28-2.22c0,0,0.67-1.2,1.09-2.07c0.13-0.28,0.24-0.52,0.3-0.69
					c0.23-0.7,0.52-2.29,1.54-3.81c1.02-1.52,5.15-6.5,5.15-6.5l4.87,2.77l4.73,1.13c0,0-0.43,11.08-1.21,12.6
					c-0.08,0.15-0.16,0.29-0.25,0.42c-0.79,1.22-1.89,1.8-2.38,2.4c-0.18,0.22-2.12,2.26-2.96,2.2c-1.16-0.08-1.94-0.6-2.33-1.3
					c0,0-2.27-0.25-3.35-1.36c0,0-2.1-0.17-3.05-1.92C30.59,240.16,28.47,239.75,28.14,238.52z"/>
			</g>
			<path fill="#2D3D54" d="M109.65,166.69c0,0-26.54,16.48-36.44,26.06c-3.11,3.01-23.36,34.01-24.6,35.14
				c-1.24,1.13-13.29-4.09-13.29-4.09s24.25-38.92,25.76-41.18c1.52-2.26,40.49-31.6,45.1-32.85c4.62-1.25,4.94,1.09,6.93,5.81
				C115.9,162.19,109.65,166.69,109.65,166.69z"/>
			<polygon fill="#4A4756" points="119.76,234.77 118.95,230.31 72.1,237.17 71.98,242 			"/>
			<g>
				<path fill="#2D3D54" d="M121.96,182.8c-1.21,2.47-2.36,4.98-3.45,7.51v0c-2.41,5.57-4.55,11.22-6.44,16.75
					c-0.67,1.97-1.32,3.93-1.93,5.87c-7.28,23.05-21.71,39.01-21.71,39.01s-18.74-3.5-22.81-7.09c0,0,4.07-27,12.86-52.49
					c0.68-1.97,1.39-3.93,2.12-5.86c0,0,0,0,0,0c7.77-20.48,18.73-38.47,33.22-38.47C114.07,148.39,128.3,169.81,121.96,182.8z"/>
			</g>
			<path fill="#2D3D54" d="M77.87,194.19c0,0-6.15,26.71-21.71,47.73c-2.11,2.85,20.4,7.26,20.4,7.26L77.87,194.19z"/>
			<path fill="#22303F" d="M99.16,173.44c-6.34,5.56-20.67,18.93-20.67,18.93c0.68-1.97,1.39-3.93,2.12-5.86c0,0,0,0,0,0
				C85.58,182.47,98.95,173.58,99.16,173.44z"/>
			<path fill="#E9B0A2" d="M130.4,151.1c0,0-0.4,0.69-1.01,1.77c-0.25,0.45-0.54,0.97-0.85,1.53c-6.03-5.55-7.21-9.24-7.25-9.35
				C124.12,147.58,130.4,151.1,130.4,151.1z"/>
			<g>
				<g>
					<path fill="#205F9D" d="M125.58,168.87c0,0-4.29,16.7-19.01,16.32c-13.18-0.34-32.84,4.23-39.53,8.62l-8.31,5.84l2.75-8.61
						c0,0,6.96-13.37,45.1-7.6c0,0,11.52,3.43,17.5-16.58C124.1,166.85,125.92,168.06,125.58,168.87z"/>
				</g>
			</g>
			<path fill="#1E5393" d="M125.35,162.55c0,0,0.72,4.71,0.2,6.45c-0.19,0.65-1.97-0.39-1.97-0.39L125.35,162.55z"/>
			<path fill="#4A4756" d="M148.3,110.34c-0.01,0.69-0.58,1.27-1.24,1.48c-0.66,0.2-1.38,0.1-2.04-0.08
				c-0.17-0.05-0.34-0.1-0.51-0.15c-7.24-1.78-17.7,1.59-20.74,2.68c-0.41,0.18-0.71,0.29-0.86,0.32c-1.52,0.23-9.85-0.1-7.3,15.15
				c2.22,13.25,2.91,12.82,2.91,12.82s3.01-5.58,4.74-6.99c-1.33-2.55-2.73-6.7-0.26-8.04c1.9-1.03,3-0.4,3.65,0.56v0
				c0,0,1.16,4.44,2.39,4.35c1.23-0.09,2.51-1.35,3.4-4.67c0.32-0.21,0.7-0.35,1.15-0.41c2.09-0.28,4.6-1.16,7.05-1.68c0,0,0,0,0,0
				c5.88-1.53,8.43-3.79,9.52-5.23c0.33-0.49,0.58-0.97,0.76-1.4c0.16-0.33,0.29-0.67,0.38-1.03c0.03-0.13,0.06-0.27,0.08-0.41
				c0-0.01,0.01-0.02,0.01-0.03c0.01-0.04,0.02-0.08,0.02-0.12c0-0.02,0.01-0.03,0.01-0.03h0
				C151.79,114.78,150.46,111.98,148.3,110.34z"/>
		</g>
		<g>
			<g>
				<g>
					<path fill="#FCBEAD" d="M574.79,350.71c-6.83,0.3-16.04,3.09-22.85,2.33c-9.17-1.02-14.66,0.12-19.19,0.89
						c-1.99,5.68-3.7,11.45-5.31,17.26c15.6-2.59,46.94-11.79,48.33-13.23C577.9,355.73,577.49,350.59,574.79,350.71z"/>
				</g>
				<path fill="#FCBEAD" d="M571.48,359.48c0,0,5.38-1.89,7.61-1.58c2.23,0.31,14.68-0.62,16.81,1c2.12,1.62,5.87,5.3,6.84,4.71
					c0.97-0.58,5.09-4.1,0.25-9.78c-4.85-5.68-6.26-7.05-8.83-7.19s-11.23-1.95-12.51-3.44l7.1-6.06l-1.27-1.49
					c0,0-10.02,6.09-12.69,6.41s-7.89,6.86-7.97,11.95C566.74,359.1,571.48,359.48,571.48,359.48z"/>
				<path fill="#22303F" d="M595.89,358.9c0,0-4.68-6.93-9.05-7.74s-12.35,0.4-17.14-4.74c0,0,0.72-4.03,8.96-5.86
					c0,0,7.81-3.92,8.81-4.9l1.27,1.49l-7.1,6.06c0,0,7,3.18,14.27,3.2c0,0,11.24,9.15,9.72,14.13c0,0-0.67,2.59-2.73,3.56
					C600.83,365.05,595.89,358.9,595.89,358.9z"/>
			</g>
			<g>
				<path fill="#22303F" d="M485.94,433.16c7.46-8.09,4.45-15.24,4.45-15.24s3.17-1.53,5.91-1.15c2.75,0.38,4.87,6.6,4.03,8.75
					l0.31,10.57l-1.37,0.04l-0.16-5.64c-1,5.57-1.78,12.51-5.31,13.98c-4.75,1.97-12.64,1.97-13.71,0.4
					C479,443.3,485.94,433.16,485.94,433.16z"/>
				<path fill="#FCBEAD" d="M497.08,417.66c-0.32-0.93-0.53-6.76-0.68-13.2c-3.09,0.95-6.16,1.97-9.21,3.02
					c0.93,6.43,2.09,15.26,1.95,18.48c-0.82,3.34-5.51,11.02-5.26,11.93c0.26,0.91,6.45,1.56,8.89-0.87s4.19-9.31,4.3-13.45
					c0.06-2.33,0.01-4.14-0.04-5.27C497.13,418.11,497.16,417.89,497.08,417.66z"/>
				<path fill="#2D3D54" d="M486.09,416.71l15.57-4.26c0,0,1.74-17.7-3.12-33.99c-4.86-16.29-6.26-23.31-6.26-23.31l18.27-63.2
					l-0.41-10.32h-33.31l-8.3,61.39c0,0-1.97,9.96,1.76,18.35C474.02,369.76,486.09,416.71,486.09,416.71z"/>
			</g>
			<path fill="#2D3D54" d="M556.89,348.92l-21.7,0.22c-2.53-0.94-2.3-3.51-2.3-3.54l5.74-62.78l-29.12,1.26l-4.93,13.69l8.12,61.08
				c0,0,2.04,17.08,16.65,14.27c14.61-2.81,31.18-8.28,31.18-8.28L556.89,348.92z"/>
			<path fill="#22303F" d="M492.28,355.15l13.75-47.56l-0.85-18.84l-12.48,42.59l-6.17,15.73c-1.11,1.98-1.78,3.8-2.14,5.46l0,0.01
				h0c-0.73,3.38-0.19,6.07,0.59,7.95l6.07,16.37c6.28,23.98,3.24,37.6,3.24,37.6l7.38-2.02c0,0,1.74-17.7-3.12-33.99
				C493.69,362.18,492.28,355.15,492.28,355.15z"/>
			<path fill="#22303F" d="M538.63,282.83l-6.35,0.27l-5.56,59.92c0,0-2.94,12.69,7.99,13.25c7.63,0.39,18-0.58,23.58-1.21
				l-1.41-6.15l-21.7,0.22c-2.53-0.94-2.3-3.51-2.3-3.54L538.63,282.83z"/>
			<g>
				<path fill="#FCBEAD" d="M497.59,200.22c-0.06,0.03,5.73,3.03,10.08,1.84c4.09-1.12,6.77-6.43,6.71-6.44
					c-1.73-0.34-2.23-2.73-2.2-12.97l-0.78,0.15l-13.18,2.61c0,0,0.3,4.15,0.31,8.05C498.54,196.76,498.34,199.87,497.59,200.22z"/>
				<path fill="#E4EFFB" d="M538.63,276.25c-0.36-0.81-3.56-14.38-3.91-15.13c-4.55-9.76-8-14.04-8.54-17.04
					c-1-5.6-1.02-11.4-0.52-16.86c1.31-14.47,5.22-26.48,5.22-26.48c-5.86-1.33-11.51-3.62-17.61-5.91
					c-1.4,1.75-5.55,3.52-9.27,3.43c-4.29-0.09-5.63-1.91-5.47-3.95c-4.57,2.54-8.2,4.96-8.2,4.96c-0.93,1.62-2.1,3.23-3.33,4.88
					c-0.69,0.44-1.09,0.71-1.09,0.71c-2.66,4.63-7.2,9.16-9.98,14.9c1.92,5.32,1.74,11.15,3.33,16.57c0.26,0.9-0.61,1.44-1.31,1.27
					c0.35,2.01,0.73,4.02,1.03,6.03c0.16,1.11-1.21,1.68-1.8,1.08c1.33,5.24,2.52,9.77,2.52,10.02c0.11,20.13-2.95,28.76-2.95,28.76
					s18.11,9.2,39.64,2.43c0.25-0.08,17.82-4.09,17.82-4.09c-0.12-0.28-0.58-2.07-1.15-4.32
					C536.16,276.82,538.63,276.25,538.63,276.25z"/>
				<path fill="#5F98A6" d="M520.5,251.39c1.85,2.62,5.39,18.52,14.21,20.52c-4.55-11.34-8-16.31-8.53-19.79
					c-1-6.51-1.02-13.24-0.52-19.59c-2.95-5.17-5.16-8.72-5.16-8.72c-0.23-0.84-4.69-14.63-6.12-2.3
					C512.96,233.84,518.44,248.47,520.5,251.39z"/>
				<path fill="#CA565B" d="M425.62,207.16c0,0,11.45,6.41,15.55,8.25c1.46,0.66,4.09,1.88,6.78,3.14c1.63,0.76,3.27,1.53,4.7,2.2
					c2.41,1.13,5.27,0.51,7-1.51c6.2-7.24,22.25-22.94,38.83-24.91l0.06-0.02c0,0,0,0.01-0.01,0.02c0.01,0,0.01,0,0.02,0l-0.09,0.18
					c-0.93,2.32-10.02,25.02-10.3,29.81c-0.3,5.05-1.19,82.54-1.19,82.54s0.59,3.56-6.24,2.08c-6.83-1.49-8.61-2.97-8.61-2.97
					s6.53-47.8,4.75-64.43c-0.35-3.26-0.03-6.93,0.7-10.72c-10.1,6.11-22,8.83-22,8.83s-4.44-1.94-11.34-6.21
					c-2.9-1.8-6.25-4.66-9.56-7.69c-3.99-3.66-10.87-12.51-10.87-12.51L425.62,207.16z"/>
				<path fill="#CA565B" d="M538.79,279.13c-3.56-11.88-7.64-25.89-11.03-38.52h1.1l1.48-19.39l-7.72-1.43
					c-0.94-4.36-1.58-8-1.82-10.61l-7.54-14.34c0,0-10.86,24.74-11.46,30.97c-0.59,6.24,12.47,79.57,12.47,79.57
					s2.57,9.3,11.48,8.11c8.91-1.19,21.57-6.53,21.57-6.53S543.52,294.93,538.79,279.13z"/>
				<g>
					<path fill="#FCBEAD" d="M413.34,199.55c9.75-1.25,12.21,7.61,12.21,7.61l-1.82,6.09c-3,0.42-5.63-0.37-8.06-3.83
						c-2.42-3.47-3.09-2.14-4.63-4.71C408.95,201.2,412.22,199.9,413.34,199.55z"/>
					<path fill="#FCBEAD" d="M441.17,215.41c1.46,0.66,4.09,1.88,6.78,3.14c-1.44,2.56-3.24,7.21-3.72,14.89
						c-2.9-1.8-6.65-4.79-9.84-7.93c-5.14-5.04-10.58-12.27-10.58-12.27l1.82-6.09C425.62,207.16,437.07,213.56,441.17,215.41z"/>
				</g>
				<g id="girl_2_5_">
					<path fill="#E9B0A2" d="M498.11,185.51c0,0,0.4,4.1,0.51,7.97c7.3-0.39,10.98-7.15,12.47-10.88L498.11,185.51z"/>
					<path fill="#FCBEAD" d="M505.99,160.16C505.99,160.16,505.99,160.16,505.99,160.16c-0.74-0.12-1.56-0.2-2.46-0.22
						c-1.63-0.05-3.07-0.01-4.33,0.12c-1.67-2.09-3.71-3.77-5.58-2.87c-2.5,1.21-3.93,10.02-3.96,10.16c-0.13,0.6-0.15,3.6-0.15,3.6
						l0.05,0c0.35,6.47,2.6,18.09,6.21,18.28c0,0,15.91,0.41,22.5-11.75C518.27,177.49,513.37,157.58,505.99,160.16z"/>
				</g>
			</g>
			<g>
				<path fill="#4A4756" d="M507.99,163.87c1.77,5.75,7.27,9.16,12.29,7.61c5.02-1.54,7.66-7.45,5.9-13.2
					c-1.77-5.75-7.27-9.16-12.29-7.61C508.86,152.22,506.22,158.13,507.99,163.87z"/>
			</g>
			<path fill="#4A4756" d="M504.09,150.47c-14.27,0.22-13.91,14.57-13.91,14.57c0.32-1.78,2.61-4.37,2.61-4.37
				c3.86,6.97,12.05,10.77,16.32,12.93c0.2-0.58,0.44-1.21,0.72-1.9c0.54-1.31,2.28-1.64,3.27-0.87c0.99,0.77,1.53,3.03-0.12,5.92
				c-0.07,0.12-0.15,0.25-0.23,0.37c0.88,2.71,0.54,6.4,0.54,6.4s5.99-4.4,7.33-12.93C521.96,162.06,518.35,150.25,504.09,150.47z"
				/>
			<g>
				<polygon fill="#E9E9E9" points="499.54,254.05 529.43,294.89 555.63,275.7 526.77,234.12 				"/>
				<g>
					<g>
						<g>
							<g>
								<g>
									<path fill="#FCBEAD" d="M515.16,281.63c0,0,1.14-0.12,1.62-0.42c0,0,0.82-0.6,1.43-1c0.19-0.12,0.37-0.23,0.49-0.28
										c0.49-0.23,1.65-0.6,2.67-1.49c1.03-0.89,4.47-5.88,4.47-5.88l-2.17-2.63l-1.68-2.75c0,0-8.21,1.43-9.27,2.15
										c-0.1,0.07-0.2,0.15-0.29,0.22c-0.83,0.7-1.16,1.56-1.56,1.98c-0.14,0.15-1.48,1.77-1.36,2.39
										c0.16,0.85,0.63,1.38,1.18,1.61c0,0,0.4,1.66,1.31,2.35c0,0,0.32,1.54,1.7,2.08C513.71,279.98,514.21,281.51,515.16,281.63
										z"/>
								</g>
							</g>
						</g>
					</g>
				</g>
				<path fill="#CA565B" d="M553.45,250.14L553.45,250.14L553.45,250.14c-0.12-0.63-0.29-1.29-0.48-1.95
					c-8.64-34.98-17.87-44.1-17.88-44.12c-0.58-0.67-1.18-1.24-1.79-1.73c0,0,0,0,0,0c-3-3.33-20.04-7.51-20.04-7.51l6.48,12.33
					c0,0,5.61,24.81,5.7,24.94c-0.13-0.65,6.16,8.99,6.16,8.99s0.3-3.65,0.28-7.81l5.76,16.56l-16.81,17.49l0,0
					c0,0,5.97,10.7,5.69,9.7c-0.28-0.99,24.69-17.36,26.8-22.23C553.84,253.61,553.8,251.96,553.45,250.14z"/>
			</g>
			<polygon fill="#A1474D" points="531.61,241.09 526.77,234.12 525.84,221.22 531.89,233.28 			"/>
		</g>
	</g>
</g>
</svg>
