<?xml version="1.0" encoding="utf-8"?>
<!-- Generator: Adobe Illustrator 24.1.2, SVG Export Plug-In . SVG Version: 6.00 Build 0)  -->
<svg version="1.1" id="Layer_1" xmlns="http://www.w3.org/2000/svg" xmlns:xlink="http://www.w3.org/1999/xlink" x="0px" y="0px"
	 width="540px" height="438.99px" viewBox="0 0 540 438.99" enable-background="new 0 0 540 438.99" xml:space="preserve">
<g>
	<ellipse opacity="0.05" cx="195.35" cy="388.48" rx="49.11" ry="9.26"/>
	<ellipse opacity="0.05" cx="364.54" cy="425.41" rx="49.11" ry="9.26"/>
	<g>
		<g>
			<g>
				<g>
					<polygon fill="#FFCA80" points="420.93,141.98 378.66,85.07 378.21,84.46 332.52,138.98 333.36,139.69 332.52,140.7 
						333.44,141.47 378.15,88.11 419.97,144.41 420.93,143.7 420.11,142.59 					"/>
					<g>
						<path fill="#F2B964" d="M375.3,184.49c28.05,0,50.8-22.74,50.8-50.8H324.5C324.5,161.75,347.25,184.49,375.3,184.49z"/>
						<path fill="#E1A95E" d="M370.41,184.26c2.15,0.24,4.7,0.23,6.81,0.23c21.66,0,39.22-22.74,39.22-50.8h-12.36
							C404.08,159.03,389.14,180.42,370.41,184.26z"/>
					</g>
				</g>
				<g>
					<polygon fill="#FFCA80" points="207.48,107.02 164.77,49.49 119.07,104.02 119.97,104.78 119.07,105.86 119.99,106.63 
						164.71,53.27 206.52,109.57 207.48,108.86 206.61,107.67 					"/>
					<path fill="#F2B964" d="M161.86,149.53c28.05,0,50.8-22.74,50.8-50.8H111.06C111.06,126.79,133.8,149.53,161.86,149.53z"/>
					<path fill="#E1A95E" d="M154.06,148.94c2.09,0.32,4.98,0.59,7.09,0.59c21.66,0,39.22-22.74,39.22-50.8h-12.36
						C188.01,124.06,172.79,145.1,154.06,148.94z"/>
				</g>
				<g>
					<path fill="#D49448" d="M343.27,360.02c-3.15-34.38-30.29-61.81-64.53-65.42v-0.37h-15.37v0.37
						c-34.24,3.61-61.37,31.03-64.53,65.4c-2.79,0.24-5,2.6-5,5.46l0,0c0,3.01,2.46,5.48,5.48,5.48h143.32
						c3.01,0,5.48-2.46,5.48-5.48l0,0C348.11,362.67,345.99,360.34,343.27,360.02z"/>
					<path fill="#C18441" d="M335.89,366.73c0-39.84-29.63-72.14-66.17-72.14c-2.14,0-4.26,0.11-6.35,0.33
						c31.7,3.29,56.87,30.96,59.57,65.62c-0.16,0,0.24,7.04,0.24,10.66h12.71C335.89,369.69,335.89,366.73,335.89,366.73z"/>
					<path fill="#E5A44C" d="M382.17,81.87l-95.44-14.85c-1.24-4.25-4.16-7.78-7.99-9.83V7.74c0-1.88-1.54-3.42-3.42-3.42h-8.52
						c-1.88,0-3.42,1.54-3.42,3.42v49.46c-2.36,1.26-4.37,3.08-5.86,5.28l-99.35-15.46c-1.57-0.24-3.05,0.84-3.29,2.4l-0.22,1.42
						c-0.24,1.57,0.84,3.05,2.4,3.29l97.82,15.22c-0.1,0.74-0.16,1.49-0.16,2.25c0,6.24,3.5,11.66,8.65,14.41v40.88v142.33v25.39
						c-0.29,0.03-0.58,0.07-0.88,0.1h17.12c-0.29-0.03-0.58-0.07-0.88-0.1v-25.39V126.89V86.01c4.36-2.33,7.54-6.59,8.41-11.64
						l93.92,14.61c1.57,0.24,3.05-0.84,3.29-2.4l0.22-1.42C384.82,83.59,383.74,82.11,382.17,81.87z M270.98,79.15
						c-4.29,0-7.76-3.48-7.76-7.76c0-4.29,3.48-7.76,7.76-7.76c4.29,0,7.76,3.48,7.76,7.76C278.74,75.68,275.26,79.15,270.98,79.15z
						"/>
					<rect x="202.87" y="358.18" fill="#E5A44C" width="134.73" height="1.5"/>
				</g>
			</g>
			<g>
				<polygon fill="#FCBEAD" points="156.77,358.18 160.87,375.45 167.01,375.41 167.24,358.18 				"/>
				<polygon fill="#FCBEAD" points="208.41,358.92 220.07,375.45 224.62,369.61 217.6,356.65 				"/>
				<path fill="#FCBEAD" d="M178.16,172.47c0.05,0.02-4.92,2.61-8.66,1.58c-3.52-0.96-5.82-5.52-5.77-5.53
					c1.49-0.3,1.92-2.34,1.89-11.15l0.67,0.13l11.33,2.24c0,0-0.26,3.57-0.27,6.92C177.34,169.5,177.51,172.17,178.16,172.47z"/>
				<path fill="#2D3D54" d="M222.77,365.08l-6.01,0.18l-6.5,0.2c0,0-15.01-16.72-23.44-43.52c-0.2-0.62-0.4-1.25-0.62-1.89
					c-4.61-13.44-14.16-30.31-19.2-45.58c-0.8-2.43-1.52-4.72-2.17-6.89c-0.21-0.69-0.41-1.38-0.6-2.05
					c-3.71-12.89-4.79-21.36-5.78-30.4l36.36,0.29C194.82,235.43,200.69,297.19,222.77,365.08z"/>
				<path fill="#E4EFFB" d="M189.73,214.53c-0.09,17.3,2.54,24.73,2.54,24.73s-15.57,7.91-34.07,2.09
					c-0.22-0.07-15.32-3.52-15.32-3.52c0.31-0.7,3.06-12.36,3.37-13c3.91-8.39,6.87-12.07,7.34-14.65c0.86-4.82,0.88-9.8,0.45-14.5
					c-1.13-12.44-4.49-22.77-4.49-22.77c5.04-1.15,9.89-3.11,15.14-5.08c1.21,1.5,4.77,3.02,7.97,2.95c3.69-0.08,4.84-1.64,4.7-3.4
					c3.93,2.19,7.05,4.26,7.05,4.26c3.34,5.8,10.11,11.43,10.6,20.32C195.12,194.17,189.73,214.05,189.73,214.53z"/>
				<path fill="#5F98A6" d="M158.46,216.46c-1.59,2.25-4.64,15.92-12.22,17.64c3.91-9.75,6.87-14.02,7.34-17.01
					c0.86-5.59,0.88-11.38,0.45-16.84c2.54-4.45,4.43-7.5,4.43-7.5c0.2-0.72,4.03-12.57,5.26-1.98
					C164.95,201.37,160.24,213.95,158.46,216.46z"/>
				<path fill="#FCBEAD" d="M160.67,374.48c0,0,0.49,3.42-0.78,7.08c0,0-1,4.58,3.5,4.66c4.51,0.09,5.61-0.34,5.1-3.15
					c-0.51-2.81-1.48-7.66-1.48-7.66L160.67,374.48z"/>
				<path fill="#22303F" d="M168.92,388.47c0,0,0,0-0.01,0.01h-9.33c-0.01-0.01-0.01-0.01-0.01-0.01c-0.51-2.39,0.32-6.9,0.32-6.9
					c5.11,4.88,8.3-0.12,8.3-0.12C169.01,383.53,168.92,388.47,168.92,388.47z"/>
				<path fill="#FCBEAD" d="M235.49,383.75c0,0-8.31-9.44-10.87-14.14l-6.18,3.17l13.82,12.98l3.23-0.43L235.49,383.75z"/>
				<path fill="#22303F" d="M240.58,388.45h-11.53c-1.02-0.91-1.98-2.76-3.17-5.18c-0.68-1.39-2.2-2.15-3.76-2.57v7.74h-2.39
					l-2.21-8.24c-1.47-2.76-0.37-5.29,0.67-7.47c1.2,0,4.7,0.87,10.84,7.92c2.02,2.32,4.25,3.14,6.46,3.08
					c0.03,0.02,0.06,0.04,0.09,0.05C239.07,385.4,240.21,387.37,240.58,388.45z"/>
				<path fill="#ECBF5D" d="M240.02,178.44c0,0-9.85,5.51-13.36,7.09c-1.25,0.56-3.52,1.62-5.83,2.7c-1.4,0.65-2.81,1.32-4.04,1.89
					c-2.07,0.97-4.53,0.44-6.01-1.3c-5.33-6.23-19.13-19.72-33.38-21.41l-0.05-0.02c0,0,0,0.01,0.01,0.02c-0.01,0-0.01,0-0.02,0
					l0.08,0.15c0.8,1.99,8.61,21.51,8.85,25.62c0.26,4.34,1.02,70.95,1.02,70.95s-0.51,3.06,5.36,1.79c5.87-1.28,7.4-2.55,7.4-2.55
					s-5.61-41.09-4.08-55.38c0.3-2.8,0.03-5.96-0.6-9.21c8.68,5.26,18.91,7.59,18.91,7.59s3.82-1.67,9.75-5.34
					c2.49-1.54,5.38-4.01,8.22-6.61c3.43-3.15,9.34-10.75,9.34-10.75L240.02,178.44z"/>
				<path fill="#22303F" d="M216.76,365.26l-6.5,0.2c0,0-15.01-16.72-23.44-43.52c-0.2-0.62-0.4-1.25-0.62-1.89
					c-4.61-13.44-14.16-30.31-19.2-45.58c-0.8-2.43-1.52-4.72-2.17-6.89c-0.21-0.69-0.41-1.38-0.6-2.05l5.35-4.06
					c0,0,16.08,26.03,21.05,50.53C194.97,333.29,212.28,358.9,216.76,365.26z"/>
				<path fill="#2D3D54" d="M170.15,314.29c0.09,11.91-0.51,39.3-2.06,50.64h-5.76c-3.18,0-4.77-0.05-4.77-0.05
					c-3.89-19.72-6.66-36.03-8.68-50.09c-1.65-11.54-3.12-21.43-4.25-29.94c-1.14-8.57-1.93-15.74-2.21-21.8
					c-0.04-0.95-0.08-1.88-0.09-2.78c-0.02-0.91-0.02-1.79-0.02-2.64l31.42-3.06C173.33,275.44,170.1,307.37,170.15,314.29z"/>
				<path fill="#22303F" d="M162.33,364.93c-3.18,0-4.77-0.05-4.77-0.05c-3.89-19.72-6.66-36.03-8.68-50.09
					c-1.65-11.54-3.12-21.43-4.25-29.94c-1.14-8.57-1.93-15.74-2.21-21.8l11.53,6.78c0,0-7.36,2.6-4.55,22.25
					C152.2,311.74,158.42,362.15,162.33,364.93z"/>
				<path fill="#ECBF5D" d="M163.81,262.86c0,0-2.21,8-9.87,6.98c-7.66-1.02-18.54-5.61-18.54-5.61s3.27-10.34,7.34-23.92
					c4.93-16.44,11.02-37.64,13.9-51.01c0.81-3.75,1.36-6.88,1.56-9.12l6.48-12.33c0,0,9.34,21.26,9.85,26.62
					C175.04,199.82,163.81,262.86,163.81,262.86z"/>
				<path fill="#FCBEAD" d="M191.16,200.45c-3.68,0.48-5.1,2.44-5.55,5.08c-0.25,1.43-0.98,2.83-1.6,3.83
					c-3.67,0.2-12.41,0.67-19.76,1.14l-0.61,9.63c6.03-0.75,13.45-2.28,21.98-5.2c0.66-0.11,1.48-0.52,2.5-1.36
					c5.29-4.33,8.29-11.58,8.3-12.62C196.43,199.91,194.84,199.96,191.16,200.45z"/>
				<path fill="#DDAF58" d="M163.47,205.69c-0.34,8.68-2.38,25.52-20.59,34.54c-0.05,0.02-0.1,0.05-0.15,0.07
					c4.93-16.44,11.02-37.64,13.9-51.01C159.98,194.29,163.66,200.92,163.47,205.69z"/>
				<path fill="#ECBF5D" d="M164.68,167.84c0,0-15.57,1.1-19.32,9.44c-3.74,8.34-4.93,36.07-0.17,44.24c0,0,6.56,1.87,18.16-0.3
					c0.14-0.03,0.29-0.05,0.43-0.08c0,0,3.7-9.06,0.38-10.85c0,0-9.78,0.51-8.76-2.72C156.43,204.34,164.68,167.84,164.68,167.84z"
					/>
				<g>
					<path fill="#FCBEAD" d="M250.58,171.9c-8.38-1.08-10.49,6.54-10.49,6.54l1.56,5.23c2.58,0.36,4.84-0.32,6.92-3.3
						c2.08-2.98,2.66-1.84,3.98-4.05C254.35,173.32,251.54,172.2,250.58,171.9z"/>
					<path fill="#FCBEAD" d="M226.66,185.53c-1.25,0.56-3.52,1.62-5.83,2.7c1.24,2.2,2.79,6.2,3.2,12.8
						c2.49-1.54,5.71-4.12,8.46-6.82c4.41-4.33,9.1-10.55,9.1-10.55l-1.56-5.23C240.02,178.44,230.18,183.94,226.66,185.53z"/>
				</g>
				<g id="girl_2_6_">
					<path fill="#4A4756" d="M170.1,149.79c0,0-7.94,7.41,0.01,15.16c0,0-6.28,0.91-8.5-0.74c0,0,0.46,0.83,0.87,1.2
						c0,0-7.04,0.58-10.06-1.49c-3.01-2.07-2.8-38.25,16.96-35.12c0,0,16.54-2.02,15.88,17.26c-0.66,19.28,5.6,18.99,5.6,18.99
						s-1.7,0.94-2.54,0.98c0,0-1.25-0.41-1.53-1.08c0,0,0.29,1.06,0.62,1.38c0,0-6.74,0.95-10.23-1.45
						C173.7,162.48,169.32,153.79,170.1,149.79z"/>
					<path fill="#E9B0A2" d="M177.71,159.83c0,0-0.35,3.52-0.44,6.85c-6.27-0.34-9.44-6.15-10.72-9.36L177.71,159.83z"/>
					<path fill="#FCBEAD" d="M179.73,163.03c0,0-14.85-0.14-14.63-9.38c0.23-9.25-1.54-15.5,7.96-15.8
						c9.49-0.3,11.25,3.27,11.92,6.38C185.65,147.33,183.6,162.83,179.73,163.03z"/>
					<path fill="#4A4756" d="M184.67,139.07c-2.22-2.84-3.97-2.27-4.97-1.46c-8-4.67-13.4,1.79-13.4,1.79
						c-1.16,6.61-6.05,10.29-6.05,10.29s2.66,1.74,8.94,0.3c1.92-0.44,3.65-1.75,5.14-3.36c-2.63,4.17-6.15,7.13-6.15,7.13
						c7.54-3.25,10.8-13.54,11.13-14.63c0.89,0.84,2.63,2.65,3.13,4.4c0.68,2.37,3.31,6.01,4.73,5.89
						C187.17,149.41,188,143.33,184.67,139.07z"/>
				</g>
			</g>
			<rect x="327.18" y="136.12" fill="#D29A5B" width="96.44" height="1.5"/>
			<rect x="113.63" y="101.46" fill="#D29A5B" width="96.44" height="1.5"/>
			<path fill="#D49448" d="M270.98,55.02c-9.04,0-16.37,7.33-16.37,16.37c0,9.04,7.33,16.37,16.37,16.37
				c9.04,0,16.37-7.33,16.37-16.37C287.35,62.35,280.02,55.02,270.98,55.02z M270.98,79.15c-4.29,0-7.76-3.48-7.76-7.76
				c0-4.29,3.48-7.76,7.76-7.76c4.29,0,7.76,3.48,7.76,7.76C278.74,75.68,275.26,79.15,270.98,79.15z"/>
			<g>
				<g>
					<path fill="#4A4756" d="M386.69,410.67c-2.76,6.03-10.4,9.24-14.97,10.03c-4.56,0.8-4.67,4.56-4.67,4.56s0.98,0.89,9.02,1.24
						c2.06,0.1,13.57-1.44,13.57-1.44v1.59h2.94h0.98c1.08,0,1.99-0.7,2.3-1.67c1.97-2.09,2.62-12.63,2.62-12.63
						S389.6,404.32,386.69,410.67z"/>
					<path fill="#4A4756" d="M351.94,410.67c-2.76,6.03-10.4,9.24-14.97,10.03c-4.56,0.8-4.67,4.56-4.67,4.56s0.98,0.89,9.02,1.24
						c2.06,0.1,13.57-1.44,13.57-1.44v1.59h2.94h0.98c1.08,0,1.99-0.7,2.3-1.67c1.97-2.09,2.62-12.63,2.62-12.63
						S354.85,404.32,351.94,410.67z"/>
				</g>
				<g>
					<path fill="#22303F" d="M373.72,200.19c0,0,23.32,24.08,24.44,33.15c1.12,9.08-11.1,23.28-11.1,23.28L373.72,200.19z"/>
					<path fill="#22303F" d="M346.46,277.11c0,0,4.08,26.12,19.32,72.47c15.23,46.36,17.31,66.43,17.31,66.43s4.12,0.6,8.47,0.6
						c2.75,0,7.87-1.06,7.87-1.06s0.14-50.66-6.88-73.98c-7.02-23.31-1.52-84.04-1.52-84.04L346.46,277.11z"/>
					<path fill="#354961" d="M338.51,258.97c0,0-0.58,39.35,6.23,87.67c6.81,48.32,4.5,68.83,4.5,68.83s5.61,1,7.57,1.07
						c2.11,0.07,8.73-0.53,8.73-0.53s9.75-48.34,6.95-72.52c-2.79-24.19,13.35-82.99,13.35-82.99L338.51,258.97z"/>
					<path fill="#FCBEAD" d="M370.08,202.47l-7.69,5.7l-11.12-2.34c0.15-1.01,0.89-5.22,1.56-9.02c0.04-0.22,0.08-0.45,0.12-0.67
						c0.57-3.24,1.07-6.02,1.07-6.02l10.38-5.17l3.87-1.93c-0.01,0.07-0.3,3.59-0.34,4.11C367.2,196.26,370.08,202.47,370.08,202.47
						z"/>
					<path fill="#FFFFFF" d="M352.05,199.59c0.24-0.1,15.12-4.49,16.74-3.96c1.62,0.53,2.57,3.66,2.57,3.66l-24.34,5.5
						C347.02,204.8,348.94,200.9,352.05,199.59z"/>
					<path fill="#2D3D54" d="M392.11,299.42c-2.52,11.5-44.49,12.87-55.31,2.43c-1.23-1.19-1.29-6.73-0.83-14.2
						c0.91-14.59,3.82-36.53,3.94-47.75c0.06-5.41,0.8-10.95,1.79-15.98c2.11-10.72,5.32-19.13,5.32-19.13s20.5-6.63,24.34-5.5
						C389.84,204.72,394.63,287.91,392.11,299.42z"/>
					<path fill="#22303F" d="M335.97,287.65c0.91-14.59,3.82-36.53,3.94-47.75c0.06-5.41,0.8-10.95,1.79-15.98l12.33-2.18
						C354.03,221.75,366.09,270.99,335.97,287.65z"/>
					<path fill="#FCBEAD" d="M342.65,267.31c0,0,0.84,2.01-0.92,3.36c-1.77,1.35-2.91,3.53-2.51,5.13c0.4,1.6,4.28,4.2,5.62,3.78
						c1.34-0.42,4.07-2.52,3.78-3.37c-0.29-0.84,1.84-7.39-1.43-9.92C343.91,263.78,342.65,267.31,342.65,267.31z"/>
					<path fill="#2D3D54" d="M356.44,201.84c0,0-12.03,2.25-21.61,16.37c-9.58,14.12-15.89,24.62-14.12,29.71
						c1.77,5.09,17.86,22.74,20.63,22.74c2.77,0,7.25-2.02,7.5-6.56c0,0-11.33-16.98-9.1-19.52c0.95-1.09,14.71-12.25,16.67-7.21
						C359.66,245.73,356.44,201.84,356.44,201.84z"/>
					<path fill="#E9B0A2" d="M367.15,187.28c-2.28,4.36-10.78,8.14-14.32,9.52c0.04-0.22,0.08-0.45,0.12-0.67
						c0.57-3.24,1.07-6.02,1.07-6.02l10.38-5.17C366.69,184.9,368.09,185.48,367.15,187.28z"/>
					<path fill="#FCBEAD" d="M350.67,190.35c0,0,15.37,4.79,18.21-4.82c2.84-9.62,6.73-15.48-2.96-18.94
						c-9.69-3.47-12.69-0.36-14.42,2.62C349.77,172.18,346.74,188.86,350.67,190.35z"/>
					<path fill="#4A4756" d="M367.05,160.13L367.05,160.13c-0.49-0.11-0.97-0.2-1.46-0.28c-2.63-0.43-5.38-0.46-7.8-1.56
						c-0.59-0.27-1.17-0.62-1.53-1.15c-0.36-0.54-0.43-1.3-0.03-1.81c-2.53-0.09-5.15,1.15-6.43,3.31l0,0c0,0-0.01,0.01-0.02,0.03
						c-0.02,0.03-0.04,0.07-0.05,0.1c0,0.01-0.01,0.02-0.02,0.03c-0.06,0.11-0.12,0.23-0.18,0.34c-0.15,0.31-0.25,0.64-0.34,0.97
						c-0.54,1.86-0.76,5.19,2.89,8.18c0,0,0.98,11.19,3.29,10.71c2.31-0.49,4.41-0.85,4.07,2.53c-0.34,3.37-3.55,7.27,3.58,7.87
						c6.49,0.54,15.57-14.65,15.67-20.01c0,0,0,0,0-0.01C379.92,162.23,367.05,160.13,367.05,160.13z"/>
				</g>
			</g>
		</g>
	</g>
</g>
</svg>
