<svg xmlns="http://www.w3.org/2000/svg"><defs><font id="CircularStd-BookItalic" horiz-adv-x="560"><font-face font-family="CircularStd" font-weight="450" font-style="italic" panose-1="2 11 6 4 2 1 1 2 1 2" ascent="809" descent="-191" x-height="481" cap-height="709" bbox="-131 -233 1544 958" underline-thickness="80" underline-position="-195" slope="-12" stemh="88" stemv="81" unicode-range="U+000D-FEFF"/><glyph glyph-name="f_f" unicode="ff" horiz-adv-x="618" d="M617 643c-40 0-71-18-84-77l-18-85h109l-18-83H497L413 0h-97l84 398H211L127 0H30l84 398H33l18 83h81l21 100c27 130 113 148 172 148 38 0 61-12 64-14l-18-80c-5 2-20 8-40 8-40 0-71-18-84-77l-18-85h189l21 100c27 130 113 148 172 148 38 0 61-12 64-14l-18-80c-5 2-20 8-40 8z"/><glyph glyph-name="f_f_i" unicode="ffi" horiz-adv-x="870" d="M738 659c0 42 38 74 74 74s61-27 61-60c0-41-38-74-74-74s-61 27-61 60zm-121-16c-40 0-71-18-84-77l-18-85h300L712 0h-94l85 398H497L413 0h-97l84 398H211L127 0H30l84 398H33l18 83h81l21 100c27 130 113 148 172 148 38 0 61-12 64-14l-18-80c-5 2-20 8-40 8-40 0-71-18-84-77l-18-85h189l21 100c27 130 113 148 172 148 38 0 61-12 64-14l-18-80c-5 2-20 8-40 8z"/><glyph glyph-name="f_f_l" unicode="ffl" horiz-adv-x="875" d="M617 643c-40 0-71-18-84-77l-18-85h212l52 243h94L719 0h-94l85 398H497L413 0h-97l84 398H211L127 0H30l84 398H33l18 83h81l21 100c27 130 113 148 172 148 38 0 61-12 64-14l-18-80c-5 2-20 8-40 8-40 0-71-18-84-77l-18-85h189l21 100c27 130 113 148 172 148 38 0 61-12 64-14l-18-80c-5 2-20 8-40 8z"/><glyph glyph-name="f_i" unicode="fi" horiz-adv-x="591" d="M211 398L127 0H30l84 398H33l18 83h81l21 100c27 130 113 148 172 148 38 0 61-12 64-14l-18-80c-5 2-20 8-40 8-40 0-71-18-84-77l-18-85h307L433 0h-94l85 398H211zm248 261c0 42 38 74 74 74s61-27 61-60c0-41-38-74-74-74s-61 27-61 60z"/><glyph glyph-name="f_l" unicode="fl" horiz-adv-x="590" d="M331 643c-40 0-71-18-84-77l-18-85h213l52 243h94L434 0h-94l85 398H211L127 0H30l84 398H33l18 83h81l21 100c27 130 113 148 172 148 38 0 61-12 64-14l-18-80c-5 2-20 8-40 8z"/><glyph glyph-name=".notdef" horiz-adv-x="555" d="M5 0v709h545V0H5zm79 79h387v551H84V79z"/><glyph glyph-name=".null" horiz-adv-x="0"/><glyph glyph-name=".null" horiz-adv-x="0"/><glyph glyph-name="uni000D" horiz-adv-x="261"/><glyph glyph-name="space" horiz-adv-x="261"/><glyph glyph-name="exclam" unicode="!" horiz-adv-x="304" d="M85 203l79 506h120L152 203H85zM25 53c0 39 31 73 72 73 36 0 60-25 60-58 0-41-34-73-71-73-36 0-61 25-61 58z"/><glyph glyph-name="quotedbl" unicode="&quot;" horiz-adv-x="400" d="M125 393H90v198c0 36 24 68 66 68 34 0 56-22 56-53 0-11-3-22-7-32zm173 0h-35v198c0 36 24 68 66 68 34 0 56-22 56-53 0-11-3-22-7-32z"/><glyph glyph-name="numbersign" unicode="#" horiz-adv-x="718" d="M84 405v76h144l36 167h84l-36-167h142l36 167h84l-36-167h135v-76H522l-34-160h136v-76H471L435 0h-84l36 169H245L209 0h-84l36 169H35v76h143l34 160H84zm212 0l-34-160h142l34 160H296z"/><glyph glyph-name="dollar" unicode="$" horiz-adv-x="565" d="M156-117L179-6C63 21 15 118 15 203c0 2 0 4 1 13l89 15c-1-9-1-13-1-17 0-59 28-118 92-139l47 218-23 12c-71 37-116 86-116 166 0 108 92 191 217 192l22 103h76l-24-113c103-28 140-115 140-174l-85-17c0 27-10 85-73 109l-46-221 15-7c82-43 126-96 126-168 0-102-89-190-219-190l-21-102h-76zm39 599c0-42 21-72 64-94l3-2 42 196c-63-4-109-46-109-100zm183-314c0 35-23 65-67 90L271 68c65 6 106 44 107 100z"/><glyph glyph-name="percent" unicode="%" horiz-adv-x="768" d="M208 422c44 0 85 36 85 91 0 40-27 67-70 67s-83-38-83-89c0-40 26-69 68-69zm-8-78c-83 0-143 62-143 141 0 94 79 174 175 174 82 0 144-63 144-143 0-98-88-172-176-172zM549 74c44 0 85 36 85 91 0 40-27 67-70 67s-83-38-83-89c0-40 26-69 68-69zm-8-78c-83 0-143 62-143 141 0 94 79 174 175 174 82 0 144-63 144-143C717 70 629-4 541-4zm191 652L128 0H31l606 648h95z"/><glyph glyph-name="ampersand" unicode="&amp;" horiz-adv-x="680" d="M589 0H475l-62 88-9-8C342 26 284-7 203-7 89-7 13 72 13 169c0 108 74 167 167 217l18 10-14 19c-23 32-50 75-50 129 0 122 101 180 194 180 109 0 172-70 172-155 0-93-74-141-138-177l-34-19 107-154 207 179-29-136-129-112zM113 175c0-61 47-93 101-93 50 0 102 34 145 71l5 4-119 170-45-25c-61-34-87-68-87-127zm168 265l37 20c68 36 85 70 85 109 0 44-35 71-80 71-36 0-92-25-92-92 0-28 13-55 26-74z"/><glyph glyph-name="quotesingle" unicode="'" horiz-adv-x="217" d="M125 393H90v198c0 36 24 68 66 68 34 0 56-22 56-53 0-11-3-22-7-32z"/><glyph glyph-name="parenleft" unicode="(" horiz-adv-x="285" d="M37 201c0 229 104 448 303 586l45-61C236 617 119 444 119 206c0-116 33-219 89-315l-67-37C82-54 37 62 37 201z"/><glyph glyph-name="parenright" unicode=")" horiz-adv-x="285" d="M248 432c0-234-108-442-303-583l-45 60C50 19 166 189 166 430c0 115-33 219-88 315l66 37c61-96 104-216 104-350z"/><glyph glyph-name="asterisk" unicode="*" horiz-adv-x="433" d="M325 709l-26-134 130 42 9-72-132-43 62-103-65-46-63 109-101-108-56 46 103 106-116 41 35 70 114-43 21 135h85z"/><glyph glyph-name="plus" unicode="+" horiz-adv-x="567" d="M316 248V51h-82v197H47v79h187v195h82V327h188v-79H316z"/><glyph glyph-name="comma" unicode="," horiz-adv-x="282" d="M11 55c0 43 35 76 80 76 42 0 76-29 76-82 0-104-84-203-197-209l11 54C36-96 85-51 96-2c-4-2-14-4-23-4-34 0-62 23-62 61z"/><glyph glyph-name="hyphen" unicode="-" horiz-adv-x="358" d="M291 246H20l17 82h271z"/><glyph glyph-name="period" unicode="." horiz-adv-x="262" d="M70-5C31-5 5 23 5 56c0 42 35 78 78 78 39 0 64-28 64-62 0-44-36-77-77-77z"/><glyph glyph-name="slash" unicode="/" horiz-adv-x="459" d="M539 724L21-15h-96l517 739h97z"/><glyph glyph-name="zero" unicode="0" horiz-adv-x="604" d="M127 239c0-97 39-165 134-165 148 0 201 214 201 341 0 96-35 159-134 159-149 0-201-209-201-335zM254-15C95-15 30 107 30 240c0 189 97 423 305 423 165 0 224-121 224-251 0-202-105-427-305-427z"/><glyph glyph-name="one" unicode="1" horiz-adv-x="341" d="M174 0H77l100 468H35l13 63c80 6 147 50 177 117h86z"/><glyph glyph-name="two" unicode="2" horiz-adv-x="539" d="M-30 0c13 121 81 221 209 282l121 58c77 37 119 77 119 138 0 52-32 101-110 101-84 0-141-59-141-158v-8l-95 8v7c0 127 89 235 240 235 140 0 205-79 205-175 0-106-65-175-166-223l-144-68c-38-18-86-53-106-106h354L437 0H-30z"/><glyph glyph-name="three" unicode="3" horiz-adv-x="541" d="M215 312l-37 91 231 156H93l18 89h437l-23-113-218-146c82-7 157-71 157-174 0-119-94-230-245-230C73-15-4 85-4 186c0 9 0 19 2 29l96 11c-2-9-2-18-2-27 0-65 41-128 125-128 83 0 146 55 146 137 0 79-63 108-117 108-11 0-24-2-31-4z"/><glyph glyph-name="four" unicode="4" horiz-adv-x="588" d="M-5 146l24 116 371 386h127l-90-411h121l-19-91H408L380 0h-95l28 146H-5zm337 91l67 305-292-305h225z"/><glyph glyph-name="five" unicode="5" horiz-adv-x="535" d="M-5 191c0 2 0 7 1 10l95 18c-1-6-1-11-1-16 0-66 37-132 127-132 74 0 144 52 144 149 0 71-46 117-119 117-46 0-78-14-105-36l-88 56 139 291h347l-19-90H239l-78-162c29 17 60 24 100 24 116 0 200-69 200-189C461 96 359-15 215-15 83-15-5 70-5 191z"/><glyph glyph-name="six" unicode="6" horiz-adv-x="559" d="M562 631l-36-77c-35 16-73 24-115 24-135 0-230-82-264-207 31 32 83 58 152 58 125 0 203-77 203-191C502 79 377-15 245-15 129-15 25 69 25 226c0 226 144 437 384 437 54 0 114-8 153-32zM275 345c-85 0-148-62-148-148 0-74 54-126 126-126 74 0 148 54 148 153 0 74-48 121-126 121z"/><glyph glyph-name="seven" unicode="7" horiz-adv-x="483" d="M538 648l-20-94C448 506 229 347 127 0H25c102 396 386 558 386 558H46l19 90h473z"/><glyph glyph-name="eight" unicode="8" horiz-adv-x="556" d="M289 370c76 0 135 47 135 119 0 50-38 94-105 94-87 0-139-50-139-120 0-49 40-93 109-93zM104 167c0-62 50-101 126-101 79 0 144 48 144 122 0 57-40 103-122 103-84 0-148-48-148-124zm368 20C472 63 363-15 222-15 75-15 5 66 5 160c0 82 58 153 161 175-42 17-82 72-82 128 0 123 107 200 234 200 132 0 203-73 203-162 0-81-53-149-146-173 62-21 97-78 97-141z"/><glyph glyph-name="nine" unicode="9" d="M147 429c0-73 49-121 124-121 85 0 143 61 143 146 0 75-54 123-122 123-72 0-145-51-145-148zM-20 38l40 76c43-30 93-41 140-41 137 0 230 92 243 222-26-39-76-71-155-71-108 0-201 74-201 195 0 153 123 244 253 244 123 0 220-75 220-240 0-248-123-438-360-438C96-15 23 2-20 38z"/><glyph glyph-name="colon" unicode=":" horiz-adv-x="290" d="M75-5C36-5 10 23 10 56c0 42 35 78 78 78 39 0 64-28 64-62 0-44-36-77-77-77zm78 352c-39 0-65 28-65 61 0 42 35 78 78 78 39 0 64-28 64-62 0-44-36-77-77-77z"/><glyph glyph-name="semicolon" unicode=";" horiz-adv-x="290" d="M3 55c0 41 33 73 76 73 41 0 73-28 73-79 0-100-80-195-189-201l11 52C27-90 74-47 84 0c-4-2-13-4-22-4C29-4 3 18 3 55zm150 292c-39 0-65 28-65 61 0 42 35 78 78 78 39 0 64-28 64-62 0-44-36-77-77-77z"/><glyph glyph-name="less" unicode="&lt;" horiz-adv-x="492" d="M25 244v85l412 206v-95L127 287l310-153V39z"/><glyph glyph-name="equal" unicode="=" horiz-adv-x="618" d="M65 346v77h463v-77H65zm0-195v79h463v-79H65z"/><glyph glyph-name="greater" unicode="&gt;" horiz-adv-x="492" d="M437 329v-85L25 39v95l312 153L25 440v95z"/><glyph glyph-name="question" unicode="?" horiz-adv-x="502" d="M243 203h-86c6 79 45 147 120 191l51 30c51 30 78 68 78 117s-35 95-107 95c-98 0-144-76-144-157l-95 13c5 136 101 232 249 232 129 0 198-78 198-168 0-101-63-163-141-207l-54-31c-43-25-66-70-69-115zM118 53c0 39 31 73 72 73 36 0 60-25 60-58 0-41-34-73-71-73-36 0-61 25-61 58z"/><glyph glyph-name="at" unicode="@" horiz-adv-x="816" d="M435-47C201-47 35 106 35 333c0 232 177 391 388 391 203 0 358-140 358-327 0-149-86-260-190-260-46 0-86 20-98 62-30-42-77-64-120-64-90 0-153 68-153 171 0 134 92 233 200 233 41 0 91-20 107-62l9 49h79l-54-251c-2-10-3-19-3-28 0-23 10-41 38-41 56 0 108 90 108 190 0 146-111 255-280 255-176 0-307-128-307-319 0-175 118-306 318-306 73 0 145 22 205 70l41-54c-58-55-160-89-246-89zm70 417c0 59-30 94-84 94-72 0-119-74-119-148 0-61 20-108 85-108 68 0 115 68 118 162z"/><glyph glyph-name="A" unicode="A" horiz-adv-x="654" d="M485 0l-32 198H156L41 0H-70l423 709h108L584 0h-99zm-97 599L209 289h229z"/><glyph glyph-name="B" unicode="B" horiz-adv-x="603" d="M165 709h214c121 0 184-70 184-162 0-85-56-164-142-188 59-19 103-73 103-143C524 94 423 0 282 0H15zm32-310h115c92 0 152 57 152 133 0 56-38 91-109 91H245zM131 86h137c89 0 155 56 155 134 0 55-33 95-114 95H179z"/><glyph glyph-name="C" unicode="C" horiz-adv-x="719" d="M417 724c169 0 262-101 287-225l-93-27c-19 90-88 162-204 162-174 0-272-158-272-327 0-144 79-233 209-233 100 0 181 54 228 160l86-35C600 67 488-15 335-15 160-15 35 115 35 301c0 277 194 423 382 423z"/><glyph glyph-name="D" unicode="D" horiz-adv-x="691" d="M131 87h145c132 0 281 113 281 333 0 133-84 202-217 202h-95zM276 0H15l150 709h193c181 0 297-111 297-283C655 146 464 0 276 0z"/><glyph glyph-name="E" unicode="E" horiz-adv-x="576" d="M441 0H15l150 709h426l-19-91H244l-46-218h297l-20-92H178L132 91h328z"/><glyph glyph-name="F" unicode="F" horiz-adv-x="561" d="M113 0H15l150 709h426l-19-91H244l-49-228h297l-19-92H176z"/><glyph glyph-name="G" unicode="G" horiz-adv-x="740" d="M408 634c-171 0-274-154-274-327 0-144 81-233 211-233 102 0 206 68 235 185H334l18 88h339L618 0h-76l8 80c-52-60-121-95-214-95C173-15 35 104 35 301c0 277 195 423 383 423 169 0 262-101 287-225l-93-27c-19 90-88 162-204 162z"/><glyph glyph-name="H" unicode="H" horiz-adv-x="708" d="M543 0h-98l66 315H179L113 0H15l150 709h98l-64-303h332l64 303h98z"/><glyph glyph-name="I" unicode="I" horiz-adv-x="280" d="M115 0H15l150 709h100z"/><glyph glyph-name="J" unicode="J" horiz-adv-x="544" d="M440 709h99L429 196C402 71 330-14 206-14 78-14 10 67 10 177c0 21 3 44 8 67l5 23 100 15-11-52c-4-16-5-32-5-47 0-64 33-109 102-109 67 0 105 47 122 124z"/><glyph glyph-name="K" unicode="K" horiz-adv-x="662" d="M465 0L289 334 159 220 113 0H15l150 709h98l-73-344 392 344h135L362 397 576 0H465z"/><glyph glyph-name="L" unicode="L" horiz-adv-x="538" d="M438 0H15l150 709h98L132 92h325z"/><glyph glyph-name="M" unicode="M" horiz-adv-x="926" d="M761 0h-97l115 543L434 0h-74L227 540 112 0H15l150 709h115l140-570 361 570h130z"/><glyph glyph-name="N" unicode="N" horiz-adv-x="738" d="M573 0H471L235 574 113 0H15l150 709h117l225-554 118 554h98z"/><glyph glyph-name="O" unicode="O" horiz-adv-x="753" d="M35 294c0 283 193 430 377 430 185 0 306-123 306-310 0-283-193-429-376-429C157-15 35 109 35 294zm583 110c0 148-90 230-212 230-174 0-271-161-271-330 0-148 90-229 212-229 174 0 271 160 271 329z"/><glyph glyph-name="P" unicode="P" horiz-adv-x="588" d="M165 709h225c123 0 198-77 198-180 0-144-116-235-261-235H175L113 0H15zm209-87H245l-52-241h134c93 0 162 52 162 142 0 59-41 99-115 99z"/><glyph glyph-name="Q" unicode="Q" horiz-adv-x="757" d="M35 294c0 283 193 430 377 430 185 0 306-123 306-310 0-152-56-264-135-335l78-105-72-49-77 103C458 0 400-15 342-15 157-15 35 109 35 294zm311-42l72 49 110-148c58 62 90 155 90 251 0 148-90 230-212 230-174 0-271-161-271-330 0-148 90-229 212-229 41 0 79 10 111 26z"/><glyph glyph-name="R" unicode="R" horiz-adv-x="615" d="M412 0L301 294H175L113 0H15l150 709h230c123 0 195-77 195-180 0-121-79-204-190-228L516 0H412zM193 381h139c93 0 159 52 159 142 0 59-38 99-112 99H245z"/><glyph glyph-name="S" unicode="S" horiz-adv-x="581" d="M264 73c81 1 136 45 136 111 0 41-22 79-76 103l-94 42c-79 35-129 94-129 183 0 118 102 212 238 212 173 0 232-122 232-201l-93-18c0 37-18 132-147 132-73 0-130-49-130-112 0-47 25-79 66-98l97-45c94-44 138-109 138-187 0-111-96-210-238-210C79-15 5 111 5 221c0 2 0 8 1 15l99 17c-1-9-1-16-1-20 0-80 46-160 160-160z"/><glyph glyph-name="T" unicode="T" horiz-adv-x="566" d="M612 619H392L261 0h-98l131 619H65l19 90h547z"/><glyph glyph-name="U" unicode="U" horiz-adv-x="666" d="M562 709h99L557 216C526 69 426-15 288-15 147-15 56 61 56 196c0 23 2 47 8 74l93 439h94l-92-451c-4-19-6-37-6-54 0-78 44-128 140-128 87 0 147 55 167 149z"/><glyph glyph-name="V" unicode="V" horiz-adv-x="608" d="M173 709l80-583 325 583h105L277 0h-97L75 709h98z"/><glyph glyph-name="W" unicode="W" horiz-adv-x="952" d="M495 709h103l63-561 252 561h99L685 0h-97l-63 575L245 0H145L90 709h95l39-555z"/><glyph glyph-name="X" unicode="X" horiz-adv-x="627" d="M299 270L67 0H-55l311 356L94 709h107l123-275 235 275h123L367 348 528 0H420z"/><glyph glyph-name="Y" unicode="Y" horiz-adv-x="611" d="M257 305L95 709h103l123-311 228 311h117L353 299 291 0h-98z"/><glyph glyph-name="Z" unicode="Z" horiz-adv-x="614" d="M499 0H-30l20 96 510 523H111l19 90h514l-20-93L112 91h406z"/><glyph glyph-name="bracketleft" unicode="[" horiz-adv-x="288" d="M176-148H-17l198 933h193l-16-75H242L76-74h116z"/><glyph glyph-name="backslash" unicode="\" horiz-adv-x="429" d="M278-15L65 724h86L364-15h-86z"/><glyph glyph-name="bracketright" unicode="]" horiz-adv-x="288" d="M91-148h-192l16 74H30l166 784H80l16 75h193z"/><glyph glyph-name="asciicircum" unicode="^" horiz-adv-x="556" d="M249 710h83l194-356h-99L291 612 154 354H55z"/><glyph glyph-name="underscore" unicode="_" horiz-adv-x="532" d="M-60-79V0h512v-79H-60z"/><glyph glyph-name="grave" unicode="`" horiz-adv-x="208" d="M159 543L65 689h112l56-146h-74z"/><glyph glyph-name="a" unicode="a" horiz-adv-x="567" d="M266 414c-105 0-161-115-161-212 0-76 37-131 114-131 92 0 159 95 159 219 0 69-34 124-112 124zm158 67h93l-75-356c-11-50-11-89-11-109 0-3 0-8 1-16h-89c-1 5-2 15-2 28 0 7 0 18 2 33-33-40-84-71-143-71C75-10 10 83 10 201c0 156 102 294 251 294 81 0 129-37 150-75z"/><glyph glyph-name="b" unicode="b" horiz-adv-x="564" d="M83 0h-93l153 724h93l-60-283c35 36 87 54 145 54 125 0 187-94 187-208 0-169-104-300-256-300-70 0-129 36-152 92zm203 412c-82 0-157-81-157-207 0-76 43-131 117-134 86 0 166 73 166 206 0 85-46 135-126 135z"/><glyph glyph-name="c" unicode="c" horiz-adv-x="498" d="M468 344l-87-30c-12 51-48 98-119 98-82 0-162-68-162-204 0-85 52-139 131-139 74 0 112 47 134 91l80-35C408 53 339-15 227-15 89-15 5 81 5 207c0 171 118 289 263 289 131 0 183-84 200-152z"/><glyph glyph-name="d" unicode="d" horiz-adv-x="567" d="M266 414c-105 0-161-115-161-212 0-76 37-131 114-131 92 0 159 95 159 219 0 69-34 124-112 124zm77-353c-31-40-84-71-143-71C75-10 10 83 10 201c0 156 102 294 251 294 81 0 129-37 150-75l64 304h93L442 125c-11-50-11-89-11-109 0-3 0-8 1-16h-89c-1 5-2 15-2 28 0 7 0 16 2 33z"/><glyph glyph-name="e" unicode="e" horiz-adv-x="528" d="M118 290h256c1 4 2 12 2 20 0 48-27 103-107 103-81 0-134-60-151-123zm341-76H105c-1-7-1-11-1-17 0-79 55-129 122-129 75 0 120 41 142 80l71-46C405 39 328-15 228-15 109-15 10 60 10 204c0 182 130 292 264 292 130 0 199-80 199-194 0-39-9-72-14-88z"/><glyph glyph-name="f" unicode="f" horiz-adv-x="332" d="M331 643c-40 0-71-18-84-77l-18-85h109l-18-83H211L127 0H30l84 398H33l18 83h81l21 100c27 130 113 148 172 148 38 0 61-12 64-14l-18-80c-5 2-20 8-40 8z"/><glyph glyph-name="g" unicode="g" horiz-adv-x="565" d="M378 293c0 54-34 116-118 116-86 0-153-66-153-178 0-71 38-129 119-129 91 0 152 73 152 191zM-47-29L42-8v-7c0-59 37-108 116-108 93 0 147 60 169 166l8 39c-21-32-67-59-128-59C83 23 12 112 12 225c0 149 101 266 245 266 67 0 122-27 149-74l13 64h96L425 46c-26-123-92-251-271-251C21-205-47-118-47-29z"/><glyph glyph-name="h" unicode="h" horiz-adv-x="555" d="M409 0h-94l62 291c3 13 4 25 4 37 0 53-30 84-88 84-76 0-120-67-134-132L99 0H5l154 724h94l-60-283c35 39 82 54 138 54 89 0 148-56 148-144 0-14-2-30-5-46z"/><glyph glyph-name="i" unicode="i" horiz-adv-x="257" d="M125 659c0 42 38 74 74 74s61-27 61-60c0-41-38-74-74-74s-61 27-61 60zM99 0H5l103 481h94z"/><glyph glyph-name="j" unicode="j" horiz-adv-x="256" d="M-8-57l116 538h93L82-79C65-159 10-205-63-205c-36 0-61 10-68 14l16 75c3-1 19-6 37-6 42 0 60 20 70 65zm133 716c0 42 38 74 74 74s61-27 61-60c0-41-38-74-74-74s-61 27-61 60z"/><glyph glyph-name="k" unicode="k" horiz-adv-x="527" d="M336 0L227 228l-98-80L98 0H5l154 724h93l-94-440 239 197h140L299 287 441 0H336z"/><glyph glyph-name="l" unicode="l" horiz-adv-x="255" d="M99 0H5l154 724h94z"/><glyph glyph-name="m" unicode="m" horiz-adv-x="828" d="M390 0h-94l64 302c2 11 4 22 4 32 0 45-25 79-83 79-67 0-106-51-121-123L98 0H5l84 396c9 40 12 79 12 85h92c0-2-1-26-5-50 35 42 77 64 139 64 58 0 101-31 120-77 50 63 108 77 165 77 75 0 140-48 140-138 0-14-2-29-5-45L680 0h-93l64 302c2 11 4 23 4 33 0 43-25 78-83 78-66 0-105-53-120-122z"/><glyph glyph-name="n" unicode="n" horiz-adv-x="555" d="M409 0h-94l62 291c2 10 4 22 4 37 0 53-30 84-88 84-76 0-120-67-134-132L99 0H5l84 396c10 45 12 83 12 85h92c0-4-2-31-6-53 37 50 91 67 149 67 84 0 143-56 143-144 0-14-2-30-5-46z"/><glyph glyph-name="o" unicode="o" horiz-adv-x="541" d="M267 412c-82 0-161-72-161-203 0-85 48-140 122-140 83 0 162 73 162 204 0 83-46 139-123 139zm219-137c0-162-112-290-262-290C88-15 10 86 10 207c0 165 113 289 263 289 139 0 213-100 213-221z"/><glyph glyph-name="p" unicode="p" horiz-adv-x="565" d="M291 409c-82 0-160-73-160-204 0-85 46-134 120-134 81 0 162 75 162 206 0 85-44 132-122 132zm-118 17c36 45 94 68 153 68 125 0 183-92 183-206 0-170-100-301-252-301-66 0-130 33-158 87L43-190h-93L75 396c9 43 12 77 12 85h92c0-6-1-31-6-55z"/><glyph glyph-name="q" unicode="q" horiz-adv-x="565" d="M515 481L373-190h-93l50 236c-33-34-78-56-130-56C75-10 5 86 5 201c0 156 103 293 252 293 79 0 130-35 153-72l12 59h93zm-253-69c-105 0-162-111-162-210 0-74 40-131 121-131 92 0 157 94 157 214 0 73-35 127-116 127z"/><glyph glyph-name="r" unicode="r" horiz-adv-x="364" d="M347 384c-12 2-23 3-34 3-77 0-142-47-166-159L98 0H5l84 396c9 44 12 79 12 85h92c0-21-4-58-9-75 39 64 105 83 158 83 9 0 20-1 27-2z"/><glyph glyph-name="s" unicode="s" horiz-adv-x="441" d="M-10 150l83 19c1-57 40-104 105-104 53 0 77 32 77 64 0 24-15 43-45 57l-70 32c-55 25-86 67-86 122 0 81 66 156 176 156 126 0 166-88 171-139l-84-23c-6 37-27 83-96 83-48 0-76-30-76-63 0-27 14-43 38-54l66-30c64-29 100-77 100-134 0-62-48-151-176-151C41-15-10 81-10 150z"/><glyph glyph-name="t" unicode="t" horiz-adv-x="337" d="M59 101c0 12 1 24 4 37l55 258H30l18 85h14c57 0 89 30 99 78l16 74h86l-33-152h97l-18-85h-97l-53-253c-2-9-3-16-3-23 0-30 18-43 54-43 11 0 24 1 32 2L226 2c-5-2-22-7-51-7C105-5 59 34 59 101z"/><glyph glyph-name="u" unicode="u" horiz-adv-x="544" d="M318 56c-32-45-86-66-131-66C88-10 32 52 32 145c0 17 2 36 6 55l60 281h94l-59-279c-3-16-5-31-5-46 0-49 22-86 85-86 72 0 115 62 129 130l59 281h93l-75-356c-11-50-11-89-11-109 0-3 0-8 1-16h-90c-1 5-2 15-2 28 0 5 0 15 1 28z"/><glyph glyph-name="v" unicode="v" horiz-adv-x="482" d="M497 481L212 0h-91L35 481h97l53-368 206 368h106z"/><glyph glyph-name="w" unicode="w" horiz-adv-x="768" d="M349 481h99l46-359 181 359h103L523 0h-97l-48 364L188 0H89L40 481h90l31-358z"/><glyph glyph-name="x" unicode="x" horiz-adv-x="495" d="M215 174L56 0H-65l235 246L44 481h103c28-56 57-111 86-167l152 167h120L278 243c44-81 86-162 131-243H306z"/><glyph glyph-name="y" unicode="y" horiz-adv-x="504" d="M78-190H-30L151 83 33 481h102l85-302 188 302h111z"/><glyph glyph-name="z" unicode="z" horiz-adv-x="473" d="M359 0H-30l18 84 327 312H63l18 85h372l-18-85L108 85h269z"/><glyph glyph-name="braceleft" unicode="{" horiz-adv-x="353" d="M28 274l18 87c58 0 116 26 131 100l29 138c28 136 86 186 210 186h23l-16-75h-14c-81 0-110-35-124-105l-35-165c-14-67-59-113-129-122 45-11 78-46 78-100 0-10-1-20-3-31L165 41c-4-16-5-31-5-43 0-48 25-72 85-72h13l-16-74h-14C127-148 80-104 80-23c0 18 2 38 7 60l30 138c2 10 3 19 3 28 0 56-47 71-92 71z"/><glyph glyph-name="bar" unicode="|" horiz-adv-x="262" d="M65-148h-82l198 933h82z"/><glyph glyph-name="braceright" unicode="}" horiz-adv-x="354" d="M310 360l-18-87c-52 0-114-18-131-98L131 37C104-88 36-148-87-148h-14l16 74h12C3-74 41-25 55 41l35 164c13 62 62 102 129 116-51 10-82 46-82 93 0 8 1 17 3 26l35 165c4 18 6 33 6 46 0 41-21 59-81 59H81l16 75h23c90 0 142-35 142-116 0-17-2-36-7-57l-34-151c-2-10-4-20-4-28 0-53 43-73 93-73z"/><glyph glyph-name="asciitilde" unicode="~" horiz-adv-x="640" d="M498 351l57-46c-37-61-90-93-150-93-31 0-64 9-97 27l-46 25c-19 10-37 15-54 15-37 0-70-22-96-57l-57 46c37 61 91 95 152 95 30 0 63-8 95-26l46-25c19-11 39-16 57-16 37 0 71 20 93 55z"/><glyph glyph-name="uni00A0" horiz-adv-x="261"/><glyph glyph-name="exclamdown" unicode="¡" horiz-adv-x="254" d="M154 288L75-218H-45L87 288h67zm60 150c0-39-31-73-72-73-36 0-60 25-60 58 0 41 34 73 71 73 36 0 61-25 61-58z"/><glyph glyph-name="cent" unicode="¢" horiz-adv-x="554" d="M170 0l19 92C99 119 45 198 45 293c0 157 109 268 245 274l17 81h76l-19-88c84-21 121-85 135-137l-86-29c-8 35-28 67-66 82l-66-311c63 6 96 44 117 83l78-33C440 146 372 82 263 82L246 0h-76zm-32 294c0-58 26-99 69-118l65 307c-72-12-134-74-134-189z"/><glyph glyph-name="sterling" unicode="£" horiz-adv-x="597" d="M64 273l18 86h74c-6 32-11 59-11 88 0 120 84 216 211 216 111 0 180-60 180-159 0-13-2-26-4-33l-93-14c2 11 3 21 3 32 0 47-30 88-90 88-65 0-111-43-111-124 0-31 7-62 13-94h193l-18-86H262c-4-81-53-151-134-186h210c68 0 109 50 119 110l88-18C525 66 446 0 342 0H0l20 104c98 28 142 97 146 169H64z"/><glyph glyph-name="currency" unicode="¤" horiz-adv-x="579" d="M73 239c0 45 14 86 37 120l-75 78 60 59 75-78c34 22 74 35 116 35 40 0 78-11 111-31l72 74 60-59-70-73c25-35 41-78 41-125 0-46-14-88-39-123l68-71-59-59-70 72c-33-21-73-33-114-33-44 0-85 14-119 37L94-14 35 45l73 76c-22 34-35 74-35 118zm83 0c0-78 58-132 130-132s128 54 128 132c0 77-56 131-128 131s-130-54-130-131z"/><glyph glyph-name="yen" unicode="¥" horiz-adv-x="583" d="M73 306l15 71h122L104 648h110l92-262 194 262h113L400 377h122l-15-71H338l-17-80h169l-16-72H306L274 0h-97l32 154H40l16 72h168l17 80H73z"/><glyph glyph-name="brokenbar" unicode="¦" horiz-adv-x="262" d="M179 386H97l84 399h82zM65-148h-82l85 399h82z"/><glyph glyph-name="section" unicode="§" horiz-adv-x="567" d="M4-8l92 8c-3-14-5-27-5-39 0-57 32-98 102-98 56 0 111 36 111 104 0 30-15 56-41 75l-91 65c-56 40-105 85-105 154 0 83 70 130 115 145-41 33-62 79-62 127 0 118 107 191 216 191 125 0 186-74 186-162 0-14-1-28-4-43l-93-9c3 14 5 28 5 40 0 56-33 96-100 96-59 0-114-40-114-103 0-29 15-55 43-75l90-65c55-40 106-81 106-150 0-82-67-136-114-150 39-33 61-81 61-126 0-121-107-192-217-192C63-215 0-142 0-53 0-39 1-24 4-8zm312 315l-87 64c-30-8-69-45-69-93 0-28 13-52 45-75l87-64c29 7 70 45 70 92 0 29-14 52-46 76z"/><glyph glyph-name="dieresis" unicode="¨" horiz-adv-x="352" d="M65 614c0 35 29 65 64 65 32 0 53-25 53-53 0-37-33-63-66-63-29 0-51 23-51 51zm195 0c0 35 29 65 64 65 32 0 53-25 53-53 0-37-33-63-66-63-29 0-51 23-51 51z"/><glyph glyph-name="copyright" unicode="©" horiz-adv-x="826" d="M40 355c0 203 162 369 364 369 203 0 367-166 367-369S607-15 404-15C202-15 40 152 40 355zm78 0c0-168 126-297 286-297s286 129 286 297-126 296-286 296-286-128-286-296zm475 86l-71-25c-10 42-40 81-98 81-67 0-133-56-133-167 0-70 43-114 108-114 60 0 92 38 110 74l65-29c-30-59-87-114-179-114-113 0-182 78-182 182 0 140 97 237 216 237 107 0 150-69 164-125z"/><glyph glyph-name="ordfeminine" unicode="ª" horiz-adv-x="463" d="M242 592c-69 0-106-74-106-139 0-51 26-86 76-86 59 0 104 60 104 143 0 47-24 82-74 82zm107 56h73l-53-256c-4-18-7-41-7-61v-22h-70c-1 7-1 16-1 21 0 3 0 11 1 22-21-27-54-50-97-50-87 0-134 67-134 150 0 112 73 206 176 206 59 0 90-28 104-52z"/><glyph glyph-name="guillemotleft" unicode="«" horiz-adv-x="477" d="M206 99h-93L15 293l171 188h103L113 284zm193 0h-93l-98 194 171 188h103L306 284z"/><glyph glyph-name="logicalnot" unicode="¬" horiz-adv-x="618" d="M523 149h-84v195H60v82h463V149z"/><glyph glyph-name="uni00AD" unicode="­" horiz-adv-x="358" d="M291 246H20l17 82h271z"/><glyph glyph-name="registered" unicode="®" horiz-adv-x="826" d="M40 355c0 203 162 369 364 369 203 0 367-166 367-369S607-15 404-15C202-15 40 152 40 355zm78 0c0-168 126-297 286-297s286 129 286 297-126 296-286 296-286-128-286-296zm250 12h53c53 0 89 25 89 76 0 33-21 51-63 51h-50zm89-210l-59 149h-42l-31-149h-73l85 401h132c70 0 115-54 115-112 0-71-49-122-118-134l65-155h-74z"/><glyph glyph-name="macron" unicode="¯" horiz-adv-x="330" d="M338 577H65l17 81h273z"/><glyph glyph-name="degree" unicode="°" horiz-adv-x="399" d="M206 426c44 0 85 36 85 91 0 40-27 67-70 67s-83-38-83-89c0-40 26-69 68-69zm-8-78c-83 0-143 62-143 141 0 94 79 174 175 174 82 0 144-63 144-143 0-98-88-172-176-172z"/><glyph glyph-name="plusminus" unicode="±" horiz-adv-x="592" d="M324 309V175h-82v134H65v77h177v136h82V386h178v-77H324zM65 51v79h437V51H65z"/><glyph glyph-name="twosuperior" unicode="²" horiz-adv-x="381" d="M170 510l63 28c39 17 57 37 57 65 0 23-17 48-51 48-39 0-66-24-66-77H98c0 91 60 141 143 141 84 0 127-51 127-108 0-58-38-100-96-125l-76-33c-25-11-36-26-42-40h184l-14-65H50c8 78 46 133 120 166z"/><glyph glyph-name="threesuperior" unicode="³" horiz-adv-x="425" d="M198 515l-26 60 114 69H126l14 65h260l-14-74-114-67c48-9 85-50 85-99 0-68-54-132-147-132-73 0-135 43-135 115 0 6 1 14 2 19l69 5c-1-4-1-7-1-11 0-33 26-62 64-62 40 0 72 22 72 64 0 33-28 52-59 52-8 0-19-2-24-4z"/><glyph glyph-name="acute" unicode="´" horiz-adv-x="279" d="M304 689L149 543H65l115 146h124z"/><glyph glyph-name="mu" unicode="µ" horiz-adv-x="577" d="M65-190v671h95V192c0-66 30-124 109-124 76 0 114 50 114 123v290h94V89c0-47 4-81 5-89h-90c-2 11-4 38-4 58-26-50-86-73-142-73-33 0-62 7-87 20v-195H65z"/><glyph glyph-name="paragraph" unicode="¶" horiz-adv-x="626" d="M381 628L205-201h-83l111 522h-9c-94 0-164 68-164 159 0 148 137 229 271 229h340l-17-81h-97L381-201h-83l176 829h-93z"/><glyph glyph-name="periodcentered" unicode="·" horiz-adv-x="272" d="M55 276c0 42 35 78 78 78 39 0 64-28 64-62 0-44-36-77-77-77-39 0-65 28-65 61z"/><glyph glyph-name="cedilla" unicode="¸" horiz-adv-x="294" d="M70 14h84L75-52c45-6 68-37 68-72 0-52-47-92-115-92-70 0-113 41-124 71l52 32c6-14 25-48 71-48 23 0 46 11 46 35 0 20-17 33-43 33-3 0-9 0-14-1L-6-52z"/><glyph glyph-name="onesuperior" unicode="¹" horiz-adv-x="290" d="M176 344H99l56 250H75l10 51c49 2 87 28 102 64h68z"/><glyph glyph-name="ordmasculine" unicode="º" horiz-adv-x="455" d="M243 591c-56 0-106-50-106-133 0-57 32-92 80-92 54 0 107 47 107 134 0 55-30 91-81 91zm157-89c0-113-79-203-186-203-96 0-153 70-153 156 0 118 82 204 187 204 98 0 152-71 152-157z"/><glyph glyph-name="guillemotright" unicode="»" horiz-adv-x="492" d="M48 481h93l98-194L68 99H-35l176 197zm208 0h93l98-194L276 99H173l176 197z"/><glyph glyph-name="onequarter" unicode="¼" horiz-adv-x="796" d="M369 76l16 85 206 204h88l-48-224h65l-14-65h-64c0-1-1-4-16-76h-76l16 76H369zm186 65l31 137-138-137h107zM190 283h-77l56 250H89l10 51c49 2 87 28 102 64h68zm526 365L112 0H15l606 648h95z"/><glyph glyph-name="onehalf" unicode="½" horiz-adv-x="815" d="M716 648L112 0H15l606 648h95zM190 283h-77l56 250H89l10 51c49 2 87 28 102 64h68zm357-117l63 28c39 17 57 37 57 65 0 23-17 48-51 48-39 0-66-24-66-77h-75c0 91 60 141 143 141 84 0 127-51 127-108 0-58-38-100-96-125l-76-33c-25-11-36-26-42-40h184L701 0H427c8 78 46 133 120 166z"/><glyph glyph-name="threequarters" unicode="¾" horiz-adv-x="884" d="M457 76l16 85 206 204h88l-48-224h65l-14-65h-64c0-1-1-4-16-76h-76l16 76H457zm186 65l31 137-138-137h107zm161 507L200 0h-97l606 648h95zM178 454l-26 60 114 69H106l14 65h260l-14-74-114-67c48-9 85-50 85-99 0-68-54-132-147-132-73 0-135 43-135 115 0 6 1 14 2 19l69 5c-1-4-1-7-1-11 0-33 26-62 64-62 40 0 72 22 72 64 0 33-28 52-59 52-8 0-19-2-24-4z"/><glyph glyph-name="questiondown" unicode="¿" horiz-adv-x="457" d="M201 288h86c-6-79-40-144-120-191l-51-30C66 38 41-1 41-50s32-95 107-95c98 0 144 76 144 157l95-13c-5-136-101-232-249-232C9-233-60-153-60-65-60 36 0 98 78 142l54 31c46 26 66 70 69 115zm125 150c0-39-31-73-72-73-36 0-60 25-60 58 0 41 34 73 71 73 36 0 61-25 61-58z"/><glyph glyph-name="Agrave" unicode="À" horiz-adv-x="654" d="M485 0l-32 198H156L41 0H-70l423 709h108L584 0h-99zm-97 599L209 289h229zm-15 160L266 878h118l75-119h-86z"/><glyph glyph-name="Aacute" unicode="Á" horiz-adv-x="654" d="M485 0l-32 198H156L41 0H-70l423 709h108L584 0h-99zm-97 599L209 289h229zm228 279L463 759h-97l119 119h131z"/><glyph glyph-name="Acircumflex" unicode="Â" horiz-adv-x="654" d="M485 0l-32 198H156L41 0H-70l423 709h108L584 0h-99zm-97 599L209 289h229zm-65 160h-87l135 119h120l90-119h-83l-74 64z"/><glyph glyph-name="Atilde" unicode="Ã" horiz-adv-x="654" d="M485 0l-32 198H156L41 0H-70l423 709h108L584 0h-99zm-97 599L209 289h229zm198 282c-16-95-58-126-113-126-28 0-53 12-70 24l-12 8c-12 8-23 14-38 14-19 0-33-12-39-44h-70c10 91 59 126 114 126 28 0 53-12 70-24l12-8c12-8 23-14 38-14 19 0 33 12 39 44h69z"/><glyph glyph-name="Adieresis" unicode="Ä" horiz-adv-x="654" d="M215 813c0 38 29 65 66 65 31 0 52-23 52-52 0-39-31-66-65-66-30 0-53 22-53 53zm288 0c0 38 29 65 66 65 31 0 52-23 52-52 0-39-31-66-65-66-30 0-53 22-53 53zM485 0l-32 198H156L41 0H-70l423 709h108L584 0h-99zm-97 599L209 289h229z"/><glyph glyph-name="Aring" unicode="Å" horiz-adv-x="654" d="M410 811c-27 0-56-22-56-55 0-29 19-47 48-47 30 0 57 22 57 55 0 27-20 47-49 47zm-22-212L209 289h229zM485 0l-32 198H156L41 0H-70l396 663c-26 20-42 50-42 84 0 79 67 133 134 133 64 0 113-50 113-110 0-43-25-85-62-109L584 0h-99z"/><glyph glyph-name="AE" unicode="Æ" horiz-adv-x="1019" d="M575 91h328L884 0H458l40 191H217L54 0H-70l615 709h489l-19-91H687l-46-218h297l-20-92H621zM292 279h225l74 350z"/><glyph glyph-name="Ccedilla" unicode="Ç" horiz-adv-x="719" d="M231-52l48 42C134 14 35 135 35 301c0 277 194 423 382 423 169 0 262-101 287-225l-93-27c-19 90-88 162-204 162-174 0-272-158-272-327 0-144 79-233 209-233 100 0 181 54 228 160l86-35C603 73 498-7 357-14l-45-38c45-6 68-37 68-72 0-52-47-92-115-92-70 0-112 44-124 71l52 32c6-14 25-48 71-48 23 0 46 11 46 35 0 20-19 33-43 33-3 0-9 0-14-1z"/><glyph glyph-name="Egrave" unicode="È" horiz-adv-x="576" d="M441 0H15l150 709h426l-19-91H244l-46-218h297l-20-92H178L132 91h328zm-74 759L260 878h118l75-119h-86z"/><glyph glyph-name="Eacute" unicode="É" horiz-adv-x="576" d="M441 0H15l150 709h426l-19-91H244l-46-218h297l-20-92H178L132 91h328zm121 878L409 759h-97l119 119h131z"/><glyph glyph-name="Ecircumflex" unicode="Ê" horiz-adv-x="576" d="M441 0H15l150 709h426l-19-91H244l-46-218h297l-20-92H178L132 91h328zM302 759h-87l135 119h120l90-119h-83l-74 64z"/><glyph glyph-name="Edieresis" unicode="Ë" horiz-adv-x="576" d="M221 813c0 38 29 65 66 65 31 0 52-23 52-52 0-39-31-66-65-66-30 0-53 22-53 53zm230 0c0 38 29 65 66 65 31 0 52-23 52-52 0-39-31-66-65-66-30 0-53 22-53 53zM441 0H15l150 709h426l-19-91H244l-46-218h297l-20-92H178L132 91h328z"/><glyph glyph-name="Igrave" unicode="Ì" horiz-adv-x="280" d="M196 759L89 878h118l75-119h-86zM115 0H15l150 709h100z"/><glyph glyph-name="Iacute" unicode="Í" horiz-adv-x="280" d="M428 878L275 759h-97l119 119h131zM115 0H15l150 709h100z"/><glyph glyph-name="Icircumflex" unicode="Î" horiz-adv-x="280" d="M138 759H51l135 119h120l90-119h-83l-74 64zM115 0H15l150 709h100z"/><glyph glyph-name="Idieresis" unicode="Ï" horiz-adv-x="280" d="M102 813c0 34 26 59 60 59 27 0 46-21 46-46 0-35-27-60-59-60-26 0-47 20-47 47zm155 0c0 34 26 59 60 59 27 0 46-21 46-46 0-35-27-60-59-60-26 0-47 20-47 47zM115 0H15l150 709h100z"/><glyph glyph-name="Eth" unicode="Ð" horiz-adv-x="690" d="M15 320l17 82h68l65 307h193c181 0 297-111 297-283C655 146 464 0 276 0H15l67 320H15zM131 87h145c132 0 281 113 281 333 0 133-80 202-217 202h-95l-47-220h150l-17-82H180z"/><glyph glyph-name="Ntilde" unicode="Ñ" horiz-adv-x="738" d="M639 881c-16-95-58-126-113-126-28 0-53 12-70 24l-12 8c-12 8-23 14-38 14-19 0-33-12-39-44h-70c10 91 59 126 114 126 28 0 53-12 70-24l12-8c12-8 23-14 38-14 19 0 33 12 39 44h69zM573 0H471L235 574 113 0H15l150 709h117l225-554 118 554h98z"/><glyph glyph-name="Ograve" unicode="Ò" horiz-adv-x="753" d="M35 294c0 283 193 430 377 430 185 0 306-123 306-310 0-283-193-429-376-429C157-15 35 109 35 294zm583 110c0 148-90 230-212 230-174 0-271-161-271-330 0-148 90-229 212-229 174 0 271 160 271 329zM411 759L304 878h118l75-119h-86z"/><glyph glyph-name="Oacute" unicode="Ó" horiz-adv-x="753" d="M35 294c0 283 193 430 377 430 185 0 306-123 306-310 0-283-193-429-376-429C157-15 35 109 35 294zm583 110c0 148-90 230-212 230-174 0-271-161-271-330 0-148 90-229 212-229 174 0 271 160 271 329zm21 474L486 759h-97l119 119h131z"/><glyph glyph-name="Ocircumflex" unicode="Ô" horiz-adv-x="753" d="M35 294c0 283 193 430 377 430 185 0 306-123 306-310 0-283-193-429-376-429C157-15 35 109 35 294zm583 110c0 148-90 230-212 230-174 0-271-161-271-330 0-148 90-229 212-229 174 0 271 160 271 329zM349 759h-87l135 119h120l90-119h-83l-74 64z"/><glyph glyph-name="Otilde" unicode="Õ" horiz-adv-x="753" d="M626 881c-16-95-58-126-113-126-28 0-53 12-70 24l-12 8c-12 8-23 14-38 14-19 0-33-12-39-44h-70c10 91 59 126 114 126 28 0 53-12 70-24l12-8c12-8 23-14 38-14 19 0 33 12 39 44h69zM35 294c0 283 193 430 377 430 185 0 306-123 306-310 0-283-193-429-376-429C157-15 35 109 35 294zm583 110c0 148-90 230-212 230-174 0-271-161-271-330 0-148 90-229 212-229 174 0 271 160 271 329z"/><glyph glyph-name="Odieresis" unicode="Ö" horiz-adv-x="753" d="M230 813c0 38 29 65 66 65 31 0 52-23 52-52 0-39-31-66-65-66-30 0-53 22-53 53zm320 0c0 38 29 65 66 65 31 0 52-23 52-52 0-39-31-66-65-66-30 0-53 22-53 53zM35 294c0 283 193 430 377 430 185 0 306-123 306-310 0-283-193-429-376-429C157-15 35 109 35 294zm583 110c0 148-90 230-212 230-174 0-271-161-271-330 0-148 90-229 212-229 174 0 271 160 271 329z"/><glyph glyph-name="multiply" unicode="×" horiz-adv-x="540" d="M101 56l-56 56 169 175L46 462l57 57 167-174 167 174 57-56-169-175 170-176-56-57-170 175z"/><glyph glyph-name="Oslash" unicode="Ø" horiz-adv-x="753" d="M35 294c0 283 193 430 377 430 84 0 154-25 206-70l77 77 59-57-82-83c30-48 46-109 46-177 0-283-193-429-376-429-82 0-152 24-204 68L65-21 6 36l78 78c-32 49-49 110-49 180zm100 10c0-45 8-83 23-115l391 395c-37 33-87 50-143 50-174 0-271-161-271-330zm483 100c0 43-7 80-21 112L208 123c36-32 84-48 139-48 174 0 271 160 271 329z"/><glyph glyph-name="Ugrave" unicode="Ù" horiz-adv-x="666" d="M562 709h99L557 216C526 69 426-15 288-15 147-15 56 61 56 196c0 23 2 47 8 74l93 439h94l-92-451c-4-19-6-37-6-54 0-78 44-128 140-128 87 0 147 55 167 149zm-171 50L284 878h118l75-119h-86z"/><glyph glyph-name="Uacute" unicode="Ú" horiz-adv-x="666" d="M562 709h99L557 216C526 69 426-15 288-15 147-15 56 61 56 196c0 23 2 47 8 74l93 439h94l-92-451c-4-19-6-37-6-54 0-78 44-128 140-128 87 0 147 55 167 149zm26 169L435 759h-97l119 119h131z"/><glyph glyph-name="Ucircumflex" unicode="Û" horiz-adv-x="666" d="M562 709h99L557 216C526 69 426-15 288-15 147-15 56 61 56 196c0 23 2 47 8 74l93 439h94l-92-451c-4-19-6-37-6-54 0-78 44-128 140-128 87 0 147 55 167 149zm-233 50h-87l135 119h120l90-119h-83l-74 64z"/><glyph glyph-name="Udieresis" unicode="Ü" horiz-adv-x="666" d="M257 813c0 38 29 65 66 65 31 0 52-23 52-52 0-39-31-66-65-66-30 0-53 22-53 53zm210 0c0 38 29 65 66 65 31 0 52-23 52-52 0-39-31-66-65-66-30 0-53 22-53 53zm95-104h99L557 216C526 69 426-15 288-15 147-15 56 61 56 196c0 23 2 47 8 74l93 439h94l-92-451c-4-19-6-37-6-54 0-78 44-128 140-128 87 0 147 55 167 149z"/><glyph glyph-name="Yacute" unicode="Ý" horiz-adv-x="611" d="M257 305L95 709h103l123-311 228 311h117L353 299 291 0h-98zm309 573L413 759h-97l119 119h131z"/><glyph glyph-name="Thorn" unicode="Þ" horiz-adv-x="594" d="M350 483H216l-52-241h139c93 0 162 52 162 142 0 59-41 99-115 99zM113 0H15l150 709h98l-30-139h133c123 0 198-77 198-180 0-144-116-235-261-235H146z"/><glyph glyph-name="germandbls" unicode="ß" horiz-adv-x="572" d="M359 329c0-17 17-31 33-44l28-23c39-32 70-76 70-126 0-66-50-151-167-151-82 0-153 51-153 134 0 8 0 17 2 26l87 13c-2-7-3-14-3-21 0-32 15-74 71-74 52 0 69 38 69 61 0 30-15 43-38 63l-25 21c-41 34-70 75-70 119 0 61 37 96 78 117l35 18c41 21 76 47 76 95 0 41-36 84-106 84-58 0-119-35-141-140L99 0H5l108 516c30 145 129 208 239 208 127 0 195-77 195-162 0-99-67-143-121-169l-31-15c-20-10-36-22-36-49z"/><glyph glyph-name="agrave" unicode="à" horiz-adv-x="567" d="M262 543l-94 146h112l56-146h-74zm4-129c-105 0-161-115-161-212 0-76 37-131 114-131 92 0 159 95 159 219 0 69-34 124-112 124zm158 67h93l-75-356c-11-50-11-89-11-109 0-3 0-8 1-16h-89c-1 5-2 15-2 28 0 7 0 18 2 33-33-40-84-71-143-71C75-10 10 83 10 201c0 156 102 294 251 294 81 0 129-37 150-75z"/><glyph glyph-name="aacute" unicode="á" horiz-adv-x="567" d="M488 689L333 543h-84l115 146h124zM266 414c-105 0-161-115-161-212 0-76 37-131 114-131 92 0 159 95 159 219 0 69-34 124-112 124zm158 67h93l-75-356c-11-50-11-89-11-109 0-3 0-8 1-16h-89c-1 5-2 15-2 28 0 7 0 18 2 33-33-40-84-71-143-71C75-10 10 83 10 201c0 156 102 294 251 294 81 0 129-37 150-75z"/><glyph glyph-name="acircumflex" unicode="â" horiz-adv-x="567" d="M221 545h-90l131 139h113l71-139h-85l-52 81zm45-131c-105 0-161-115-161-212 0-76 37-131 114-131 92 0 159 95 159 219 0 69-34 124-112 124zm158 67h93l-75-356c-11-50-11-89-11-109 0-3 0-8 1-16h-89c-1 5-2 15-2 28 0 7 0 18 2 33-33-40-84-71-143-71C75-10 10 83 10 201c0 156 102 294 251 294 81 0 129-37 150-75z"/><glyph glyph-name="atilde" unicode="ã" horiz-adv-x="567" d="M216 554h-70c10 91 59 126 114 126 28 0 51-12 68-24l12-8c12-8 21-14 36-14 19 0 33 12 39 44h69c-16-95-58-126-113-126-28 0-51 12-68 24l-12 8c-12 8-21 14-36 14-19 0-33-12-39-44zm50-140c-105 0-161-115-161-212 0-76 37-131 114-131 92 0 159 95 159 219 0 69-34 124-112 124zm158 67h93l-75-356c-11-50-11-89-11-109 0-3 0-8 1-16h-89c-1 5-2 15-2 28 0 7 0 18 2 33-33-40-84-71-143-71C75-10 10 83 10 201c0 156 102 294 251 294 81 0 129-37 150-75z"/><glyph glyph-name="adieresis" unicode="ä" horiz-adv-x="567" d="M156 614c0 35 29 65 64 65 32 0 53-25 53-53 0-37-33-63-66-63-29 0-51 23-51 51zm195 0c0 35 29 65 64 65 32 0 53-25 53-53 0-37-33-63-66-63-29 0-51 23-51 51zm-85-200c-105 0-161-115-161-212 0-76 37-131 114-131 92 0 159 95 159 219 0 69-34 124-112 124zm158 67h93l-75-356c-11-50-11-89-11-109 0-3 0-8 1-16h-89c-1 5-2 15-2 28 0 7 0 18 2 33-33-40-84-71-143-71C75-10 10 83 10 201c0 156 102 294 251 294 81 0 129-37 150-75z"/><glyph glyph-name="aring" unicode="å" horiz-adv-x="567" d="M321 750c58 0 103-45 103-100 0-61-55-119-120-119-58 0-105 43-105 98 0 72 61 121 122 121zm-58-113c0-26 17-42 43-42 28 0 52 20 52 50 0 24-18 42-44 42-25 0-51-20-51-50zm3-223c-105 0-161-115-161-212 0-76 37-131 114-131 92 0 159 95 159 219 0 69-34 124-112 124zm158 67h93l-75-356c-11-50-11-89-11-109 0-3 0-8 1-16h-89c-1 5-2 15-2 28 0 7 0 18 2 33-33-40-84-71-143-71C75-10 10 83 10 201c0 156 102 294 251 294 81 0 129-37 150-75z"/><glyph glyph-name="ae" unicode="æ" horiz-adv-x="853" d="M313 284c28 1 47 18 47 50 0 42-34 83-109 83-58 0-105-34-120-84l-81 26c27 87 117 137 212 137 78 0 132-31 160-74 48 48 111 74 177 74 130 0 199-80 199-194 0-39-9-72-14-88H430c-1-7-1-11-1-17 0-79 55-129 122-129 75 0 120 41 142 80l71-46C730 39 653-15 553-15c-82 0-153 36-188 106-35-52-94-106-195-106C61-15-2 45-2 124c0 92 79 152 175 155zM95 129c0-43 38-66 83-66 61 0 141 40 159 153l-158-7c-42-2-84-26-84-80zm499 284c-81 0-134-60-151-123h256c1 4 2 12 2 20 0 48-27 103-107 103z"/><glyph glyph-name="ccedilla" unicode="ç" horiz-adv-x="498" d="M116-52l50 44C65 16 5 100 5 207c0 171 118 289 263 289 131 0 183-84 200-152l-87-30c-12 51-48 98-119 98-82 0-162-68-162-204 0-85 52-139 131-139 74 0 112 47 134 91l80-35C409 56 344-9 241-15l-44-37c45-6 68-37 68-72 0-52-47-92-115-92-70 0-112 44-124 71l52 32c6-14 25-48 71-48 23 0 46 11 46 35 0 20-19 33-43 33-3 0-9 0-14-1z"/><glyph glyph-name="egrave" unicode="è" horiz-adv-x="528" d="M281 543l-94 146h112l56-146h-74zM118 290h256c1 4 2 12 2 20 0 48-27 103-107 103-81 0-134-60-151-123zm341-76H105c-1-7-1-11-1-17 0-79 55-129 122-129 75 0 120 41 142 80l71-46C405 39 328-15 228-15 109-15 10 60 10 204c0 182 130 292 264 292 130 0 199-80 199-194 0-39-9-72-14-88z"/><glyph glyph-name="eacute" unicode="é" horiz-adv-x="528" d="M469 689L314 543h-84l115 146h124zM118 290h256c1 4 2 12 2 20 0 48-27 103-107 103-81 0-134-60-151-123zm341-76H105c-1-7-1-11-1-17 0-79 55-129 122-129 75 0 120 41 142 80l71-46C405 39 328-15 228-15 109-15 10 60 10 204c0 182 130 292 264 292 130 0 199-80 199-194 0-39-9-72-14-88z"/><glyph glyph-name="ecircumflex" unicode="ê" horiz-adv-x="528" d="M230 545h-90l131 139h113l71-139h-85l-52 81zM118 290h256c1 4 2 12 2 20 0 48-27 103-107 103-81 0-134-60-151-123zm341-76H105c-1-7-1-11-1-17 0-79 55-129 122-129 75 0 120 41 142 80l71-46C405 39 328-15 228-15 109-15 10 60 10 204c0 182 130 292 264 292 130 0 199-80 199-194 0-39-9-72-14-88z"/><glyph glyph-name="edieresis" unicode="ë" horiz-adv-x="528" d="M152 614c0 35 29 65 64 65 32 0 53-25 53-53 0-37-33-63-66-63-29 0-51 23-51 51zm195 0c0 35 29 65 64 65 32 0 53-25 53-53 0-37-33-63-66-63-29 0-51 23-51 51zM118 290h256c1 4 2 12 2 20 0 48-27 103-107 103-81 0-134-60-151-123zm341-76H105c-1-7-1-11-1-17 0-79 55-129 122-129 75 0 120 41 142 80l71-46C405 39 328-15 228-15 109-15 10 60 10 204c0 182 130 292 264 292 130 0 199-80 199-194 0-39-9-72-14-88z"/><glyph glyph-name="igrave" unicode="ì" horiz-adv-x="257" d="M99 0H5l103 481h94zm31 543L36 689h112l56-146h-74z"/><glyph glyph-name="iacute" unicode="í" horiz-adv-x="257" d="M358 689L203 543h-84l115 146h124zM99 0H5l103 481h94z"/><glyph glyph-name="icircumflex" unicode="î" horiz-adv-x="257" d="M99 0H5l103 481h94zm-1 545H8l131 139h113l71-139h-85l-52 81z"/><glyph glyph-name="idieresis" unicode="ï" horiz-adv-x="257" d="M99 0H5l103 481h94zM59 615c0 31 24 60 58 60 29 0 49-21 49-48 0-34-28-58-59-58-30 0-48 20-48 46zm141 0c0 31 24 60 58 60 29 0 49-21 49-48 0-34-28-58-59-58-30 0-48 20-48 46z"/><glyph glyph-name="eth" unicode="ð" horiz-adv-x="541" d="M529 612l-102-38c38-58 65-135 65-233 0-200-100-357-269-357C88-16 10 79 10 199c0 138 97 269 248 269 67 0 122-29 146-69-9 57-30 106-59 145l-123-46-25 65 96 36c-31 27-67 46-101 58l38 72c36-12 97-42 150-97l122 46zM390 257c0 83-57 130-129 130-78 0-157-63-157-188 0-68 44-132 123-132 75 0 163 62 163 190z"/><glyph glyph-name="ntilde" unicode="ñ" horiz-adv-x="555" d="M228 554h-70c10 91 59 126 114 126 28 0 51-12 68-24l12-8c12-8 21-14 36-14 19 0 33 12 39 44h69c-16-95-58-126-113-126-28 0-51 12-68 24l-12 8c-12 8-21 14-36 14-19 0-33-12-39-44zM409 0h-94l62 291c2 10 4 22 4 37 0 53-30 84-88 84-76 0-120-67-134-132L99 0H5l84 396c10 45 12 83 12 85h92c0-4-2-31-6-53 37 50 91 67 149 67 84 0 143-56 143-144 0-14-2-30-5-46z"/><glyph glyph-name="ograve" unicode="ò" horiz-adv-x="541" d="M270 543l-94 146h112l56-146h-74zm-3-131c-82 0-161-72-161-203 0-85 48-140 122-140 83 0 162 73 162 204 0 83-46 139-123 139zm219-137c0-162-112-290-262-290C88-15 10 86 10 207c0 165 113 289 263 289 139 0 213-100 213-221z"/><glyph glyph-name="oacute" unicode="ó" horiz-adv-x="541" d="M487 689L332 543h-84l115 146h124zM267 412c-82 0-161-72-161-203 0-85 48-140 122-140 83 0 162 73 162 204 0 83-46 139-123 139zm219-137c0-162-112-290-262-290C88-15 10 86 10 207c0 165 113 289 263 289 139 0 213-100 213-221z"/><glyph glyph-name="ocircumflex" unicode="ô" horiz-adv-x="541" d="M235 545h-90l131 139h113l71-139h-85l-52 81zm32-133c-82 0-161-72-161-203 0-85 48-140 122-140 83 0 162 73 162 204 0 83-46 139-123 139zm219-137c0-162-112-290-262-290C88-15 10 86 10 207c0 165 113 289 263 289 139 0 213-100 213-221z"/><glyph glyph-name="otilde" unicode="õ" horiz-adv-x="541" d="M201 554h-70c10 91 59 126 114 126 28 0 51-12 68-24l12-8c12-8 21-14 36-14 19 0 33 12 39 44h69c-16-95-58-126-113-126-28 0-51 12-68 24l-12 8c-12 8-21 14-36 14-19 0-33-12-39-44zm66-142c-82 0-161-72-161-203 0-85 48-140 122-140 83 0 162 73 162 204 0 83-46 139-123 139zm219-137c0-162-112-290-262-290C88-15 10 86 10 207c0 165 113 289 263 289 139 0 213-100 213-221z"/><glyph glyph-name="odieresis" unicode="ö" horiz-adv-x="541" d="M161 614c0 35 29 65 64 65 32 0 53-25 53-53 0-37-33-63-66-63-29 0-51 23-51 51zm195 0c0 35 29 65 64 65 32 0 53-25 53-53 0-37-33-63-66-63-29 0-51 23-51 51zm-89-202c-82 0-161-72-161-203 0-85 48-140 122-140 83 0 162 73 162 204 0 83-46 139-123 139zm219-137c0-162-112-290-262-290C88-15 10 86 10 207c0 165 113 289 263 289 139 0 213-100 213-221z"/><glyph glyph-name="divide" unicode="÷" horiz-adv-x="567" d="M198 465c0 35 30 64 65 64s64-29 64-64-29-65-64-65-65 30-65 65zm0-355c0 35 30 64 65 64s64-29 64-64-29-65-64-65-65 30-65 65zM35 246v83h457v-83H35z"/><glyph glyph-name="oslash" unicode="ø" horiz-adv-x="541" d="M20-28l-52 54 69 66c-18 34-27 73-27 115 0 165 113 289 263 289 57 0 103-16 138-45l61 58 52-54-66-63c19-34 28-74 28-117 0-162-112-290-262-290-58 0-105 18-140 48zm370 301c0 17-2 33-6 48L150 96c20-17 47-27 78-27 83 0 162 73 162 204zM267 412c-82 0-161-72-161-203 0-17 2-33 5-46l233 223c-20 17-46 26-77 26z"/><glyph glyph-name="ugrave" unicode="ù" horiz-adv-x="544" d="M318 56c-32-45-86-66-131-66C88-10 32 52 32 145c0 17 2 36 6 55l60 281h94l-59-279c-3-16-5-31-5-46 0-49 22-86 85-86 72 0 115 62 129 130l59 281h93l-75-356c-11-50-11-89-11-109 0-3 0-8 1-16h-90c-1 5-2 15-2 28 0 5 0 15 1 28zm-46 487l-94 146h112l56-146h-74z"/><glyph glyph-name="uacute" unicode="ú" horiz-adv-x="544" d="M318 56c-32-45-86-66-131-66C88-10 32 52 32 145c0 17 2 36 6 55l60 281h94l-59-279c-3-16-5-31-5-46 0-49 22-86 85-86 72 0 115 62 129 130l59 281h93l-75-356c-11-50-11-89-11-109 0-3 0-8 1-16h-90c-1 5-2 15-2 28 0 5 0 15 1 28zm169 633L332 543h-84l115 146h124z"/><glyph glyph-name="ucircumflex" unicode="û" horiz-adv-x="544" d="M318 56c-32-45-86-66-131-66C88-10 32 52 32 145c0 17 2 36 6 55l60 281h94l-59-279c-3-16-5-31-5-46 0-49 22-86 85-86 72 0 115 62 129 130l59 281h93l-75-356c-11-50-11-89-11-109 0-3 0-8 1-16h-90c-1 5-2 15-2 28 0 5 0 15 1 28zm-83 489h-90l131 139h113l71-139h-85l-52 81z"/><glyph glyph-name="udieresis" unicode="ü" horiz-adv-x="544" d="M318 56c-32-45-86-66-131-66C88-10 32 52 32 145c0 17 2 36 6 55l60 281h94l-59-279c-3-16-5-31-5-46 0-49 22-86 85-86 72 0 115 62 129 130l59 281h93l-75-356c-11-50-11-89-11-109 0-3 0-8 1-16h-90c-1 5-2 15-2 28 0 5 0 15 1 28zM166 614c0 35 29 65 64 65 32 0 53-25 53-53 0-37-33-63-66-63-29 0-51 23-51 51zm195 0c0 35 29 65 64 65 32 0 53-25 53-53 0-37-33-63-66-63-29 0-51 23-51 51z"/><glyph glyph-name="yacute" unicode="ý" horiz-adv-x="504" d="M448 689L293 543h-84l115 146h124zM78-190H-30L151 83 33 481h102l85-302 188 302h111z"/><glyph glyph-name="thorn" unicode="þ" horiz-adv-x="580" d="M-35-190l194 914h94l-62-294c37 42 93 64 150 64 125 0 183-92 183-206 0-170-100-301-252-301-66 0-130 32-158 86L58-190h-93zm341 599c-82 0-160-73-160-204 0-85 46-134 120-134 81 0 162 75 162 206 0 85-44 132-122 132z"/><glyph glyph-name="ydieresis" unicode="ÿ" horiz-adv-x="504" d="M133 614c0 35 29 65 64 65 32 0 53-25 53-53 0-37-33-63-66-63-29 0-51 23-51 51zm195 0c0 35 29 65 64 65 32 0 53-25 53-53 0-37-33-63-66-63-29 0-51 23-51 51zM78-190H-30L151 83 33 481h102l85-302 188 302h111z"/><glyph glyph-name="dotlessi" unicode="ı" horiz-adv-x="257" d="M99 0H5l103 481h94z"/><glyph glyph-name="Lslash" unicode="Ł" horiz-adv-x="538" d="M438 0H15l62 296-96-39 18 87 97 39 69 326h98l-60-283 180 73-18-87-181-73-52-247h325z"/><glyph glyph-name="lslash" unicode="ł" horiz-adv-x="289" d="M99 0H5l66 308-99-40 19 87 98 40 70 329h94l-61-288 103 42-19-87-103-42z"/><glyph glyph-name="OE" unicode="Œ" horiz-adv-x="1103" d="M618 404c0 148-90 230-212 230-174 0-271-161-271-330 0-148 90-229 212-229 174 0 271 160 271 329zM968 0H542l13 60c-62-49-137-75-213-75C157-15 35 109 35 294c0 283 193 430 377 430 120 0 207-52 253-141l27 126h426l-19-91H771l-46-218h297l-20-92H705L659 91h328z"/><glyph glyph-name="oe" unicode="œ" horiz-adv-x="905" d="M605-15c-78 0-147 32-185 94-48-58-116-94-196-94C88-15 10 86 10 207c0 165 113 289 263 289 85 0 146-38 180-95 51 61 124 95 198 95 130 0 199-80 199-194 0-39-9-72-14-88H482c-1-7-1-11-1-17 0-79 55-129 122-129 75 0 120 41 142 80l71-46C782 39 705-15 605-15zM495 290h256c1 4 2 12 2 20 0 48-27 103-107 103-81 0-134-60-151-123zm-105-17c0 83-46 139-123 139-82 0-161-72-161-203 0-85 48-140 122-140 83 0 162 73 162 204z"/><glyph glyph-name="Scaron" unicode="Š" horiz-adv-x="581" d="M264 73c81 1 136 45 136 111 0 41-22 79-76 103l-94 42c-79 35-129 94-129 183 0 118 102 212 238 212 173 0 232-122 232-201l-93-18c0 37-18 132-147 132-73 0-130-49-130-112 0-47 25-79 66-98l97-45c94-44 138-109 138-187 0-111-96-210-238-210C79-15 5 111 5 221c0 2 0 8 1 15l99 17c-1-9-1-16-1-20 0-80 46-160 160-160zm213 805h93L430 759H310l-85 119h82l69-64z"/><glyph glyph-name="scaron" unicode="š" horiz-adv-x="441" d="M360 687h91L321 545H206l-70 142h84l52-81zM-10 150l83 19c1-57 40-104 105-104 53 0 77 32 77 64 0 24-15 43-45 57l-70 32c-55 25-86 67-86 122 0 81 66 156 176 156 126 0 166-88 171-139l-84-23c-6 37-27 83-96 83-48 0-76-30-76-63 0-27 14-43 38-54l66-30c64-29 100-77 100-134 0-62-48-151-176-151C41-15-10 81-10 150z"/><glyph glyph-name="Ydieresis" unicode="Ÿ" horiz-adv-x="611" d="M226 813c0 38 29 65 66 65 31 0 52-23 52-52 0-39-31-66-65-66-30 0-53 22-53 53zm190 0c0 38 29 65 66 65 31 0 52-23 52-52 0-39-31-66-65-66-30 0-53 22-53 53zM257 305L95 709h103l123-311 228 311h117L353 299 291 0h-98z"/><glyph glyph-name="Zcaron" unicode="Ž" horiz-adv-x="614" d="M499 0H-30l20 96 510 523H111l19 90h514l-20-93L112 91h406zm0 878h93L452 759H332l-85 119h82l69-64z"/><glyph glyph-name="zcaron" unicode="ž" horiz-adv-x="473" d="M365 687h91L326 545H211l-70 142h84l52-81zM359 0H-30l18 84 327 312H63l18 85h372l-18-85L108 85h269z"/><glyph glyph-name="florin" unicode="ƒ" horiz-adv-x="481" d="M106 20l76 378H71v83h127l23 113c20 102 92 145 165 145 44 0 62-6 74-10v-83c-6 2-22 7-52 7-35 0-81-13-97-92l-16-80h129v-83H278L196-13c-20-102-92-145-165-145-41 0-58 4-77 10v83c14-4 32-7 56-7 35 0 80 10 96 92z"/><glyph glyph-name="circumflex" unicode="ˆ" horiz-adv-x="355" d="M155 545H65l131 139h113l71-139h-85l-52 81z"/><glyph glyph-name="caron" unicode="ˇ" horiz-adv-x="355" d="M289 687h91L250 545H135L65 687h84l52-81z"/><glyph glyph-name="uni02C9" unicode="ˉ" horiz-adv-x="330" d="M338 577H65l17 81h273z"/><glyph glyph-name="breve" unicode="˘" horiz-adv-x="335" d="M187 544c-80 0-122 56-122 117 0 9 1 18 3 27h69c-1-4-1-8-1-9 0-26 15-55 61-55 51 0 77 36 86 64h77c-16-71-71-144-173-144z"/><glyph glyph-name="dotaccent" unicode="˙" horiz-adv-x="169" d="M65 608c0 36 31 72 71 72 34 0 58-26 58-57 0-39-33-72-71-72-34 0-58 25-58 57z"/><glyph glyph-name="ring" unicode="˚" horiz-adv-x="265" d="M187 750c58 0 103-45 103-100 0-61-55-119-120-119-58 0-105 43-105 98 0 72 61 121 122 121zm-58-113c0-26 17-42 43-42 28 0 52 20 52 50 0 24-18 42-44 42-25 0-51-20-51-50z"/><glyph glyph-name="ogonek" unicode="˛" horiz-adv-x="233" d="M27-216c-56 0-93 33-93 84C-66-48 11-4 61 16l62-16C79-19 15-54 15-109c0-26 20-38 44-38 7 0 15 0 33 3l-14-64c-14-5-26-8-51-8z"/><glyph glyph-name="tilde" unicode="˜" horiz-adv-x="378" d="M135 554H65c10 91 59 126 114 126 28 0 51-12 68-24l12-8c12-8 21-14 36-14 19 0 33 12 39 44h69c-16-95-58-126-113-126-28 0-51 12-68 24l-12 8c-12 8-21 14-36 14-19 0-33-12-39-44z"/><glyph glyph-name="hungarumlaut" unicode="˝" horiz-adv-x="374" d="M255 689L134 543H65l82 146h108zm144 0L268 543h-69l92 146h108z"/><glyph glyph-name="uni0394" unicode="Δ" horiz-adv-x="657" d="M497 90L304 597 114 90h383zM-25 0l278 709h105L637 0H-25z"/><glyph glyph-name="uni03A9" unicode="Ω" horiz-adv-x="816" d="M408 636c-123 0-253-86-253-248 0-145 111-235 210-256V0H60v88h199C157 125 55 233 55 387c0 212 169 337 353 337s353-125 353-337c0-154-102-262-205-299h200V0H451v132c99 21 210 111 210 256 0 162-130 248-253 248z"/><glyph glyph-name="uni03BC" unicode="μ" horiz-adv-x="577" d="M65-190v671h95V192c0-66 30-124 109-124 76 0 114 50 114 123v290h94V89c0-47 4-81 5-89h-90c-2 11-4 38-4 58-26-50-86-73-142-73-33 0-62 7-87 20v-195H65z"/><glyph glyph-name="pi" unicode="π" horiz-adv-x="625" d="M480 399V122c0-36 24-49 54-49 10 0 21 1 31 4V5c-12-5-31-12-61-12-82 0-118 58-118 119v287H221V0h-94v399H45v82h518v-82h-83z"/><glyph glyph-name="uni2007" horiz-adv-x="604"/><glyph glyph-name="uni2008" horiz-adv-x="262"/><glyph glyph-name="uni200B" unicode="​" horiz-adv-x="0"/><glyph glyph-name="endash" unicode="–" horiz-adv-x="639" d="M552 246H40l17 82h512z"/><glyph glyph-name="emdash" unicode="—" horiz-adv-x="1100" d="M1003 246H50l17 82h953z"/><glyph glyph-name="quoteleft" unicode="‘" horiz-adv-x="234" d="M226 518c0-40-33-71-75-71-39 0-71 27-71 76 0 97 79 190 184 195l-10-50c-52-9-97-51-107-97 3 2 13 4 21 4 32 0 58-22 58-57z"/><glyph glyph-name="quoteright" unicode="’" horiz-adv-x="219" d="M103 647c0 40 33 71 75 71 39 0 71-27 71-76 0-97-79-190-184-195l10 50c52 9 97 51 107 97-3-2-13-4-21-4-32 0-58 22-58 57z"/><glyph glyph-name="quotesinglbase" unicode="‚" horiz-adv-x="224" d="M-17 52c0 40 33 71 75 71 39 0 71-27 71-76 0-97-79-190-184-195l10 50C7-89 52-47 62-1c-3-2-13-4-21-4C9-5-17 17-17 52z"/><glyph glyph-name="quotedblleft" unicode="“" horiz-adv-x="408" d="M401 526c0-39-29-68-72-68-37 0-68 26-68 73 0 93 75 180 177 187l-10-48c-48-9-93-51-103-93 3 2 12 3 20 3 31 0 56-20 56-54zm-181 0c0-39-29-68-72-68-37 0-68 26-68 73 0 93 75 180 177 187l-10-48c-48-9-93-51-103-93 3 2 12 3 20 3 31 0 56-20 56-54z"/><glyph glyph-name="quotedblright" unicode="”" horiz-adv-x="393" d="M102 647c0 39 31 68 72 68 37 0 68-26 68-73 0-93-75-182-177-187l10 48c49 9 93 49 103 93-3-2-12-3-20-3-31 0-56 20-56 54zm181 0c0 39 31 68 72 68 37 0 68-26 68-73 0-93-75-182-177-187l10 48c49 9 93 49 103 93-3-2-12-3-20-3-31 0-56 20-56 54z"/><glyph glyph-name="quotedblbase" unicode="„" horiz-adv-x="388" d="M-18 50c0 39 31 68 72 68 37 0 68-26 68-73 0-93-75-182-177-187l10 48C4-85 48-45 58-1c-3-2-12-3-20-3C7-4-18 16-18 50zm171 0c0 39 31 68 72 68 37 0 68-26 68-73 0-93-75-182-177-187l10 48c49 9 93 49 103 93-3-2-12-3-20-3-31 0-56 20-56 54z"/><glyph glyph-name="dagger" unicode="†" horiz-adv-x="414" d="M236 709h82l-32-149h128l-18-81H269l-67-317h-82l67 317H60l18 81h126z"/><glyph glyph-name="daggerdbl" unicode="‡" horiz-adv-x="434" d="M178 0H96l31 149H0l17 81h127l53 249H70l18 81h126l32 149h82l-32-149h128l-18-81H279l-53-249h127l-17-81H209z"/><glyph glyph-name="bullet" unicode="•" horiz-adv-x="559" d="M60 289c0 115 93 208 207 208s207-93 207-208c0-113-93-207-207-207S60 176 60 289z"/><glyph glyph-name="ellipsis" unicode="…" horiz-adv-x="871" d="M76-5C39-5 15 21 15 52c0 39 33 73 73 73 37 0 60-26 60-58 0-41-34-72-72-72zm291 0c-37 0-61 26-61 57 0 39 33 73 73 73 37 0 60-26 60-58 0-41-34-72-72-72zm292 0c-37 0-61 26-61 57 0 39 33 73 73 73 37 0 60-26 60-58 0-41-34-72-72-72z"/><glyph glyph-name="perthousand" unicode="‰" horiz-adv-x="1011" d="M208 422c44 0 85 36 85 91 0 40-27 67-70 67s-83-38-83-89c0-40 26-69 68-69zm-8-78c-83 0-143 62-143 141 0 94 79 174 175 174 82 0 144-63 144-143 0-98-88-172-176-172zM549 74c44 0 85 36 85 91 0 40-27 67-70 67s-83-38-83-89c0-40 26-69 68-69zm183 574L128 0H31l606 648h95zm52-574c44 0 85 36 85 91 0 40-27 67-70 67s-83-38-83-89c0-40 26-69 68-69zm-8-78c-47 0-87 19-112 51-33-32-78-51-123-51-83 0-143 62-143 141 0 94 79 174 175 174 46 0 85-20 111-52 32 32 76 52 124 52 82 0 144-63 144-143C952 70 864-4 776-4z"/><glyph glyph-name="guilsinglleft" unicode="‹" horiz-adv-x="284" d="M206 99h-93L15 293l171 188h103L113 284z"/><glyph glyph-name="guilsinglright" unicode="›" horiz-adv-x="284" d="M48 481h93l98-194L68 99H-35l176 197z"/><glyph glyph-name="uni2042" unicode="⁂" horiz-adv-x="814" d="M512 709l-23-121 117 38 8-65-119-38 56-93-59-42-56 99-92-98-50 42 93 95-105 37 32 63 103-38 19 121h76zM235 311l-23-121 117 38 8-65-119-38 56-93-59-42-56 99L67-9 17 33l93 95L5 165l32 63 103-38 19 121h76zm412 0l-23-121 117 38 8-65-119-38 56-93-59-42-56 99-92-98-50 42 93 95-105 37 32 63 103-38 19 121h76z"/><glyph glyph-name="fraction" unicode="⁄" horiz-adv-x="541" d="M621 648L17 0h-97l606 648h95z"/><glyph glyph-name="uni2051" unicode="⁑" horiz-adv-x="441" d="M333 709l-23-121 117 38 8-65-119-38 56-93-59-42-56 99-92-98-50 42 93 95-105 37 32 63 103-38 19 121h76zm-98-398l-23-121 117 38 8-65-119-38 56-93-59-42-56 99L67-9 17 33l93 95L5 165l32 63 103-38 19 121h76z"/><glyph glyph-name="uni2070" unicode="⁰" horiz-adv-x="411" d="M60 473c0 107 52 243 182 243 88 0 134-61 134-137 0-124-59-242-181-242-77 0-135 50-135 136zm70 2c0-39 23-71 69-71 76 0 106 105 106 173 0 36-16 72-68 72-87 0-107-131-107-174z"/><glyph glyph-name="uni2074" unicode="⁴" horiz-adv-x="427" d="M60 420l16 85 206 204h88l-48-224h65l-14-65h-64c0-1-1-4-16-76h-76l16 76H60zm186 65l31 137-138-137h107z"/><glyph glyph-name="uni2075" unicode="⁵" horiz-adv-x="407" d="M55 456l76 7c0-32 19-60 60-60 33 0 68 19 68 64 0 38-27 56-59 56-18 0-36-6-49-16l-64 36 72 166h213l-13-66H201l-31-72c15 9 41 12 55 12 66 0 112-37 112-107 0-77-63-139-148-139-76 0-134 49-134 119z"/><glyph glyph-name="uni2076" unicode="⁶" horiz-adv-x="390" d="M376 693l-27-56c-18 10-41 16-72 16-49 0-103-29-124-85 19 19 52 24 75 24 72 0 117-44 117-111 0-91-77-144-154-144-69 0-136 48-136 146 0 125 88 234 222 234 37 0 76-6 99-24zM207 528c-39 0-73-27-73-68 0-37 27-58 62-58 33 0 70 22 70 71 0 33-23 55-59 55z"/><glyph glyph-name="uni2077" unicode="⁷" horiz-adv-x="368" d="M393 709l-14-64c-57-39-170-122-224-301H75c41 176 185 285 207 299H92l13 66h288z"/><glyph glyph-name="uni2078" unicode="⁸" horiz-adv-x="396" d="M187 603c0-24 19-41 45-41 30 0 63 15 63 52 0 21-15 39-48 41-36 0-60-20-60-52zm-45-160c0-29 28-45 60-45 41 0 68 21 68 57 0 25-21 45-58 45-40 0-70-24-70-57zm56-106c-87 0-133 44-133 99 0 43 34 83 94 98-28 11-47 42-47 67 0 66 54 115 142 115 69 0 117-38 117-92 0-39-25-78-76-96 29-11 52-43 52-72 0-71-66-119-149-119z"/><glyph glyph-name="uni2079" unicode="⁹" horiz-adv-x="407" d="M50 373l30 57c24-17 54-25 84-25 47 0 101 28 114 88-18-21-49-31-72-31-70 0-125 45-125 115 0 87 73 140 153 140 70 0 133-43 133-139 0-137-69-240-207-240-39 0-85 14-110 35zm167 152c39 0 69 30 69 72 0 34-27 56-57 56-35 0-69-25-69-71 0-35 24-57 57-57z"/><glyph glyph-name="uni2080" unicode="₀" horiz-adv-x="411" d="M25 57c0 107 52 243 182 243 88 0 134-61 134-137 0-124-59-242-181-242C83-79 25-29 25 57zm70 2c0-39 23-71 69-71 76 0 106 105 106 173 0 36-16 72-68 72-87 0-107-131-107-174z"/><glyph glyph-name="uni2081" unicode="₁" horiz-adv-x="290" d="M136-72H59l56 250H35l10 51c49 2 87 28 102 64h68z"/><glyph glyph-name="uni2082" unicode="₂" horiz-adv-x="381" d="M115 94l63 28c39 17 57 37 57 65 0 23-17 48-51 48-39 0-66-24-66-77H43c0 91 60 141 143 141 84 0 127-51 127-108 0-58-38-100-96-125l-76-33C116 22 105 7 99-7h184l-14-65H-5C3 6 41 61 115 94z"/><glyph glyph-name="uni2083" unicode="₃" horiz-adv-x="425" d="M138 100l-26 60 114 69H66l14 65h260l-14-74-114-67c48-9 85-50 85-99 0-68-54-132-147-132C77-78 15-35 15 37c0 6 1 14 2 19l69 5c-1-4-1-7-1-11 0-33 26-62 64-62 40 0 72 22 72 64 0 33-28 52-59 52-8 0-19-2-24-4z"/><glyph glyph-name="uni2084" unicode="₄" horiz-adv-x="427" d="M5 4l16 85 206 204h88L267 69h65L318 4h-64c0-1-1-4-16-76h-76l16 76H5zm186 65l31 137L84 69h107z"/><glyph glyph-name="uni2085" unicode="₅" horiz-adv-x="407" d="M5 40l76 7c0-32 19-60 60-60 33 0 68 19 68 64 0 38-27 56-59 56-18 0-36-6-49-16l-64 36 72 166h213l-13-66H151l-31-72c15 9 41 12 55 12 66 0 112-37 112-107 0-77-63-139-148-139C63-79 5-30 5 40z"/><glyph glyph-name="uni2086" unicode="₆" horiz-adv-x="390" d="M326 277l-27-56c-18 10-41 16-72 16-49 0-103-29-124-85 19 19 52 24 75 24 72 0 117-44 117-111 0-91-77-144-154-144C72-79 5-31 5 67c0 125 88 234 222 234 37 0 76-6 99-24zM157 112c-39 0-73-27-73-68 0-37 27-58 62-58 33 0 70 22 70 71 0 33-23 55-59 55z"/><glyph glyph-name="uni2087" unicode="₇" horiz-adv-x="368" d="M343 293l-14-64c-57-39-170-122-224-301H25c41 176 185 285 207 299H42l13 66h288z"/><glyph glyph-name="uni2088" unicode="₈" horiz-adv-x="396" d="M137 187c0-24 19-41 45-41 30 0 63 15 63 52 0 21-15 39-48 41-36 0-60-20-60-52zM92 27c0-29 28-45 60-45 41 0 68 21 68 57 0 25-21 45-58 45-40 0-70-24-70-57zm56-106C61-79 15-35 15 20c0 43 34 83 94 98-28 11-47 42-47 67 0 66 54 115 142 115 69 0 117-38 117-92 0-39-25-78-76-96 29-11 52-43 52-72 0-71-66-119-149-119z"/><glyph glyph-name="uni2089" unicode="₉" horiz-adv-x="407" d="M15-43l30 57c24-17 54-25 84-25 47 0 101 28 114 88-18-21-49-31-72-31-70 0-125 45-125 115 0 87 73 140 153 140 70 0 133-43 133-139 0-137-69-240-207-240-39 0-85 14-110 35zm167 152c39 0 69 30 69 72 0 34-27 56-57 56-35 0-69-25-69-71 0-35 24-57 57-57z"/><glyph glyph-name="Euro" unicode="€" horiz-adv-x="689" d="M50 365l17 78h87c65 149 215 220 341 220 82 0 155-25 199-67l-57-71c-35 33-91 52-150 52-84 0-176-43-227-134h316l-54-78H230c-6-26-10-53-10-83h255l-54-80H231c28-86 107-132 201-132 50 0 96 11 134 38l33-74C550 2 489-15 422-15c-130 0-257 78-291 217H15l17 80h90c0 29 3 57 8 83H50z"/><glyph glyph-name="uni2113" unicode="ℓ" horiz-adv-x="470" d="M96 127c0 32 14 91 19 112-23-5-46-8-70-10l18 87c23 4 48 10 73 19l48 230c19 91 77 144 150 144 78 0 121-47 121-118 0-114-94-248-238-317l-20-95c-2-10-5-29-5-37 0-45 30-60 71-60 43 0 67 15 76 21l-18-85c-8-9-38-23-75-23C141-5 96 52 96 127zm181 429l-35-165c67 47 119 114 119 195 0 22-10 36-32 36s-42-17-52-66z"/><glyph glyph-name="trademark" unicode="™" horiz-adv-x="874" d="M364 641H252l-63-297h-76l63 297H64l14 68h300zm406-297h-72l49 233-147-233h-59l-52 230-49-230h-76l77 365h91l56-254 158 254h101z"/><glyph glyph-name="Omega" unicode="Ω" horiz-adv-x="816" d="M408 636c-123 0-253-86-253-248 0-145 111-235 210-256V0H60v88h199C157 125 55 233 55 387c0 212 169 337 353 337s353-125 353-337c0-154-102-262-205-299h200V0H451v132c99 21 210 111 210 256 0 162-130 248-253 248z"/><glyph glyph-name="uni2160" unicode="Ⅰ" horiz-adv-x="493" d="M112 648h396l-18-88H339L239 88h150L371 0H-25l18 88h150l100 472H94z"/><glyph glyph-name="uni2161" unicode="Ⅱ" horiz-adv-x="757" d="M112 648h660l-18-88H613L513 88h140L635 0H-25l18 88h140l100 472H94zM229 88h188l100 472H329z"/><glyph glyph-name="uni2162" unicode="Ⅲ" horiz-adv-x="1031" d="M692 88l99 472H608L509 88h183zm-279 0l99 472H329L230 88h183zM-25 0l18 88h141l99 472H94l18 88h934l-18-88H887L788 88h139L909 0H-25z"/><glyph glyph-name="uni2163" unicode="Ⅳ" horiz-adv-x="982" d="M94 560l18 88h895l-18-88H874L610 88h279L871 0H-25l18 88h130l100 472H94zm225 0L219 88h241l-61 472h-80zm183 0l46-419 226 419H502z"/><glyph glyph-name="uni2164" unicode="Ⅴ" horiz-adv-x="765" d="M-17 88h265l-61 472H79l18 88h693l-18-88H662L398 88h269L649 0H-35zm307 472l46-419 226 419H290z"/><glyph glyph-name="uni2165" unicode="Ⅵ" horiz-adv-x="982" d="M84 560l18 88h895l-18-88H849L749 88h130L861 0H-35l18 88h275l-61 472H84zm588 0L408 88h245l100 472h-81zm-372 0l46-419 226 419H300z"/><glyph glyph-name="uni2166" unicode="Ⅶ" horiz-adv-x="1270" d="M345 141l227 419H300zm308-53l99 472h-81L408 88h245zm278 0l99 472H848L749 88h182zm217-88H-35l18 88h274l-59 472H83l18 88h1183l-18-88h-140l-99-472h139z"/><glyph glyph-name="uni2167" unicode="Ⅷ" horiz-adv-x="1529" d="M94 560l18 88h1432l-18-88h-136L1290 88h135l-18-88H-25l18 88h270l-56 472H94zm758 0L752 88h173l100 472H852zm269 0L1021 88h173l100 472h-173zm-449 0L413 88h243l100 472h-84zm-363 0l42-419 222 419H309z"/><glyph glyph-name="uni2168" unicode="Ⅸ" horiz-adv-x="952" d="M94 560l18 88h865l-18-88H854L632 317 744 88h115L841 0H-25l18 88h130l100 472H94zm431-243L405 560h-86L219 88h93zm-10 243l79-168 150 168H515zm46-317L419 88h216z"/><glyph glyph-name="uni2169" unicode="Ⅹ" horiz-adv-x="733" d="M306 317L186 560H84l18 88h656l-18-88H635L413 317 525 88h115L622 0H-35l18 88H93zm-10 243l79-168 150 168H296zm46-317L200 88h216z"/><glyph glyph-name="uni216C" unicode="Ⅼ" horiz-adv-x="623" d="M112 648h366l-18-88H319L219 88h212l41 193h96L509 0H-25l18 88h130l100 472H94z"/><glyph glyph-name="uni216D" unicode="Ⅽ" horiz-adv-x="711" d="M621 648h95l-48-224h-95c-4 89-90 150-186 150-118 0-246-93-246-300 0-127 88-202 198-202 119 0 178 73 192 140l4 19h95L581 0h-93l10 52c-42-43-96-67-168-67C178-15 45 100 45 274c0 255 191 389 354 389 105 0 169-37 204-98z"/><glyph glyph-name="uni216E" unicode="Ⅾ" horiz-adv-x="737" d="M325 560L224 88h82c135 0 270 102 270 304 0 111-70 168-167 168h-84zM-25 0l18 88h136l99 472H94l16 88h312c137 0 250-83 250-253C672 129 478 0 316 0H-25z"/><glyph glyph-name="uni216F" unicode="Ⅿ" horiz-adv-x="1036" d="M308 88L290 0H-25l18 88h118l99 472H94l18 88h252l100-515 321 515h266l-18-88H910L811 88h121L914 0H599l18 88h100l90 428L479 0h-76L295 518 205 88h103z"/><glyph glyph-name="arrowleft" unicode="←" horiz-adv-x="1026" d="M221 102L0 287l221 186V329h735v-83H221V102z"/><glyph glyph-name="arrowup" unicode="↑" horiz-adv-x="449" d="M240 800l199-245H281v-703h-83v703H40z"/><glyph glyph-name="arrowright" unicode="→" horiz-adv-x="1026" d="M982 287L730 76v169H34v83h696v171z"/><glyph glyph-name="arrowdown" unicode="↓" horiz-adv-x="449" d="M422 90L210-162-1 90h169v696h83V90h171z"/><glyph glyph-name="uni2196" unicode="↖" horiz-adv-x="874" d="M55 709h292L231 592 774 50 715-8 172 533 55 415v294z"/><glyph glyph-name="uni2197" unicode="↗" horiz-adv-x="773" d="M381 709h292V415L555 533 13-8l-59 58 543 542z"/><glyph glyph-name="uni2198" unicode="↘" horiz-adv-x="874" d="M774 0H482l116 117L55 659l59 58 542-542 118 119V0z"/><glyph glyph-name="uni2199" unicode="↙" horiz-adv-x="764" d="M337 0H45v294l117-119 543 542 59-58-543-542z"/><glyph glyph-name="uni21A9" unicode="↩" horiz-adv-x="833" d="M398 581v83h189c119 0 220-85 220-209 0-122-101-209-220-209H219V102L-2 287l221 186V329h363c75 0 143 45 143 126 0 80-66 126-147 126H398z"/><glyph glyph-name="uni21B0" unicode="↰" horiz-adv-x="775" d="M271 353L50 538l221 186V580h414V0h-83v497H271V353z"/><glyph glyph-name="uni21B1" unicode="↱" horiz-adv-x="720" d="M118 0H35v580h464v144l221-186-221-185v144H118V0z"/><glyph glyph-name="uni21B2" unicode="↲" horiz-adv-x="760" d="M592 709h83V129H211V-15L-10 171l221 185V212h381v497z"/><glyph glyph-name="uni21B3" unicode="↳" horiz-adv-x="840" d="M549 356l221-185L549-15v144H85v580h83V212h381v144z"/><glyph glyph-name="uni21B4" unicode="↴" horiz-adv-x="814" d="M55 626v83h580V205h144L593-16 408 205h144v421H55z"/><glyph glyph-name="uni21C6" unicode="⇆" horiz-adv-x="1106" d="M276 355L55 540l221 186V582h755v-83H276V355zm775-185L830-15v144H75v83h755v144z"/><glyph glyph-name="partialdiff" unicode="∂" horiz-adv-x="653" d="M272 638c-32 0-88-6-140-31l-32 74c55 32 125 43 180 43 120 0 307-65 307-376 0-223-95-363-275-363C190-15 71 63 71 221c0 143 113 231 246 231 80 0 141-26 171-57-14 172-97 243-216 243zm59-269c-109 0-164-70-164-154 0-92 73-143 150-143 126 0 165 123 170 185 1 13 2 27 2 40-33 45-95 72-158 72z"/><glyph glyph-name="Delta" unicode="∆" horiz-adv-x="657" d="M497 90L304 597 114 90h383zM-25 0l278 709h105L637 0H-25z"/><glyph glyph-name="product" unicode="∏" horiz-adv-x="687" d="M594 0h-95v622H185V0H87v709h507V0z"/><glyph glyph-name="summation" unicode="∑" horiz-adv-x="567" d="M40 0v86l273 271L40 623v86h497v-90H172l269-262L163 90h374V0H40z"/><glyph glyph-name="minus" unicode="−" horiz-adv-x="533" d="M42 248v79h423v-79H42z"/><glyph glyph-name="uni2215" unicode="∕" horiz-adv-x="386" d="M371 648h95L20 0h-95z"/><glyph glyph-name="uni2219" unicode="∙" horiz-adv-x="272" d="M55 276c0 42 35 78 78 78 39 0 64-28 64-62 0-44-36-77-77-77-39 0-65 28-65 61z"/><glyph glyph-name="radical" unicode="√" horiz-adv-x="665" d="M712 780H593L327 0h-91L47 529h108l127-374 235 713h195v-88z"/><glyph glyph-name="infinity" unicode="∞" horiz-adv-x="811" d="M45 290c0 96 73 169 174 169 66 0 127-37 184-108 58 71 114 108 179 108 101 0 174-73 174-169s-73-168-174-168c-78 0-139 49-183 106-59-69-114-106-180-106-101 0-174 72-174 168zm176 89c-57 0-93-39-93-90s36-89 93-89c50 0 88 37 129 87-43 52-77 92-129 92zm359-179c57 0 93 38 93 89s-36 90-93 90c-52 0-86-39-129-88 42-52 79-91 129-91z"/><glyph glyph-name="integral" unicode="∫" horiz-adv-x="310" d="M91-33v584c0 98 60 158 159 158h37v-86h-30c-44 0-72-26-72-79V-41c0-98-57-159-155-159h-43v86h31c42 0 73 28 73 81z"/><glyph glyph-name="approxequal" unicode="≈" horiz-adv-x="654" d="M513 429l51-45c-37-53-88-83-146-83-33 0-65 10-100 30l-47 26c-21 11-42 17-62 17-33 0-65-15-91-45l-53 47c38 55 87 85 143 85 34 0 66-11 103-31l46-25c23-13 47-20 70-20 32 0 61 14 86 44zm0-194l51-45c-37-53-88-83-146-83-33 0-65 10-100 30l-47 26c-21 11-42 17-62 17-33 0-65-15-91-45l-53 47c38 55 87 85 143 85 34 0 66-11 103-31l46-25c23-13 47-20 70-20 32 0 61 14 86 44z"/><glyph glyph-name="notequal" unicode="≠" horiz-adv-x="619" d="M65 346v77h295l73 99h96l-73-99h72v-77H399l-85-116h214v-79H255L182 51H86l73 100H65v79h152l86 116H65z"/><glyph glyph-name="lessequal" unicode="≤" horiz-adv-x="567" d="M65 51v79h412V51H65zm0 253v85l412 146v-84L170 347l307-104v-84z"/><glyph glyph-name="greaterequal" unicode="≥" horiz-adv-x="567" d="M477 130V51H65v79h412zm0 259v-85L65 159v84l307 104L65 451v84z"/><glyph glyph-name="dotmath" unicode="⋅" horiz-adv-x="272" d="M55 276c0 42 35 78 78 78 39 0 64-28 64-62 0-44-36-77-77-77-39 0-65 28-65 61z"/><glyph glyph-name="uni24C5" unicode="Ⓟ" horiz-adv-x="826" d="M40 355c0 203 162 369 364 369 203 0 367-166 367-369S607-15 404-15C202-15 40 152 40 355zm78 0c0-168 126-297 286-297s286 129 286 297-126 296-286 296-286-128-286-296zm256 12h52c53 0 89 25 89 76 0 33-21 51-63 51h-50zm69-64h-83l-30-146h-73l85 401h132c70 0 115-54 115-112 0-81-63-143-146-143z"/><glyph glyph-name="filledbox" unicode="■" horiz-adv-x="879" d="M85 0v709h709V0H85z"/><glyph glyph-name="H22073" unicode="□" horiz-adv-x="879" d="M794 0H85v709h709V0zM167 633V75h545v558H167z"/><glyph glyph-name="triagup" unicode="▲" horiz-adv-x="847" d="M360 724L777 0H-60z"/><glyph glyph-name="uni25B3" unicode="△" horiz-adv-x="847" d="M-60 0l420 724L777 0H-60zm419 561L76 75h564z"/><glyph glyph-name="lozenge" unicode="◊" horiz-adv-x="556" d="M278 112l140 242-140 243-141-243zM319 0h-82L35 354l202 355h82l202-355z"/><glyph glyph-name="circle" unicode="○" horiz-adv-x="846" d="M791 354c0-205-166-370-371-370S50 149 50 354s165 371 370 371 371-166 371-371zm-83 0c0 162-128 291-288 291S132 516 132 354 260 63 420 63s288 129 288 291z"/><glyph glyph-name="H18533" unicode="●" horiz-adv-x="846" d="M50 354c0 205 165 371 370 371s371-166 371-371S625-16 420-16 50 149 50 354z"/><glyph glyph-name="uni262E" unicode="☮" horiz-adv-x="826" d="M771 355c0-203-164-370-367-370C202-15 40 152 40 355s162 369 364 369c203 0 367-166 367-369zm-81 0c0 153-106 273-246 293V408l206-207c25 45 40 97 40 154zm-572 0c0-56 14-108 39-152l205 205v240c-140-20-244-140-244-293zM444 61c60 8 114 35 156 75L444 292V61zm-237 76c41-41 95-68 155-76v231z"/><glyph glyph-name="uni2713" unicode="✓" horiz-adv-x="780" d="M870 670L232-17-50 298l60 57 226-247 574 621z"/><glyph glyph-name="uni2715" unicode="✕" horiz-adv-x="774" d="M93-5L35 53l294 301L35 655l59 58 293-300 293 300 59-58-295-301L739 53 681-5 387 295z"/><glyph glyph-name="uni2780" unicode="➀" horiz-adv-x="826" d="M40 355c0 203 162 369 364 369 203 0 367-166 367-369S607-15 404-15C202-15 40 152 40 355zm78 0c0-168 126-297 286-297s286 129 286 297-126 296-286 296-286-128-286-296zm333-182h-77v245h-86v52c49 1 85 31 92 68h71V173z"/><glyph glyph-name="uni2781" unicode="➁" horiz-adv-x="826" d="M404 724c203 0 367-166 367-369S607-15 404-15C202-15 40 152 40 355s162 369 364 369zM118 355c0-168 126-297 286-297s286 129 286 297-126 296-286 296-286-128-286-296zm235-19l60 37c28 17 43 39 43 63 0 26-19 50-54 50-34 0-57-23-57-58 0-4 1-17 3-26h-74c-2 10-3 23-3 31 0 63 50 117 132 117s131-54 131-115c0-47-27-83-70-110l-72-45c-15-10-28-23-31-37h175v-65H268v10c0 60 25 111 85 148z"/><glyph glyph-name="uni2782" unicode="➂" horiz-adv-x="826" d="M40 355c0 203 162 369 364 369 203 0 367-166 367-369S607-15 404-15C202-15 40 152 40 355zm78 0c0-168 126-297 286-297s286 129 286 297-126 296-286 296-286-128-286-296zm251-16l-29 56 93 77H264v65h271v-63l-100-78c57-5 108-43 108-111 0-66-58-121-145-121s-135 51-147 103l67 27c6-38 38-64 79-64s68 24 68 55c0 42-35 58-68 58-10 0-21-2-28-4z"/><glyph glyph-name="uni2783" unicode="➃" horiz-adv-x="826" d="M40 355c0 203 162 369 364 369 203 0 367-166 367-369S607-15 404-15C202-15 40 152 40 355zm78 0c0-168 126-297 286-297s286 129 286 297-126 296-286 296-286-128-286-296zm112-105v73l177 220h85V315h64v-65h-64v-72h-77v72H230zm185 65v139L304 315h111z"/><glyph glyph-name="uni2784" unicode="➄" horiz-adv-x="826" d="M40 355c0 203 162 369 364 369 203 0 367-166 367-369S607-15 404-15C202-15 40 152 40 355zm78 0c0-168 126-297 286-297s286 129 286 297-126 296-286 296-286-128-286-296zm134-100l66 30c9-35 37-57 73-57 39 0 67 22 67 61 0 41-29 62-67 62-27 0-48-11-64-27l-64 24 49 187h204v-66H362l-23-86c18 20 46 28 73 28 74 0 124-46 124-119 0-71-52-129-145-129-72 0-126 45-139 92z"/><glyph glyph-name="uni2785" unicode="➅" horiz-adv-x="826" d="M40 355c0 203 162 369 364 369 203 0 367-166 367-369S607-15 404-15C202-15 40 152 40 355zm78 0c0-168 126-297 286-297s286 129 286 297-126 296-286 296-286-128-286-296zm405 172l-18-57c-20 9-41 13-62 13-64 0-112-36-123-105 17 25 54 43 91 43 77 0 130-46 130-126 0-77-64-129-147-129-74 0-151 52-151 167 0 130 83 213 194 213 33 0 66-7 86-19zM326 294c0-41 35-63 69-63s68 22 68 63-34 63-68 63-69-22-69-63z"/><glyph glyph-name="uni2786" unicode="➆" horiz-adv-x="826" d="M40 355c0 203 162 369 364 369 203 0 367-166 367-369S607-15 404-15C202-15 40 152 40 355zm78 0c0-168 126-297 286-297s286 129 286 297-126 296-286 296-286-128-286-296zm436 178v-69c-35-24-136-107-154-296h-82c18 198 136 299 136 299H257v66h297z"/><glyph glyph-name="uni2787" unicode="➇" horiz-adv-x="826" d="M40 355c0 203 162 369 364 369 203 0 367-166 367-369S607-15 404-15C202-15 40 152 40 355zm78 0c0-168 126-297 286-297s286 129 286 297-126 296-286 296-286-128-286-296zm285 35c35 0 57 19 57 48 0 26-21 45-57 45s-57-19-57-45c0-29 22-48 57-48zm0-160c44 0 67 20 67 50 0 29-24 50-67 50s-67-21-67-50c0-30 23-50 67-50zm0-64c-93 0-145 47-145 108 0 36 25 70 68 86-36 15-56 47-56 80 0 62 56 105 133 105s133-43 133-105c0-33-20-65-56-80 43-16 68-50 68-86 0-61-52-108-145-108z"/><glyph glyph-name="uni2788" unicode="➈" horiz-adv-x="826" d="M40 355c0 203 162 369 364 369 203 0 367-166 367-369S607-15 404-15C202-15 40 152 40 355zm78 0c0-168 126-297 286-297s286 129 286 297-126 296-286 296-286-128-286-296zm158-172l18 59c20-9 41-13 62-13 64 0 115 31 123 103-17-25-54-43-91-43-75 0-130 48-130 126 0 76 64 129 147 129 74 0 149-52 149-167 0-138-81-213-192-213-33 0-66 7-86 19zm195 232c0 41-33 64-69 64s-68-23-68-64 32-64 68-64 69 23 69 64z"/><glyph glyph-name="uniE000" unicode="" horiz-adv-x="814" d="M221-16L35 205h144v504h580v-83H262V205h144z"/><glyph glyph-name="uni21B5" unicode="" horiz-adv-x="1080" d="M224 145L45 355h131c1 204 166 369 369 369 66 0 128-17 182-47l-37-74c-43 24-92 38-144 38-160 0-286-127-286-286h143zm690 209C913 149 748-15 545-15c-66 0-128 17-182 47l37 74c43-24 92-38 144-38 160 0 286 127 286 286H692l179 210 179-210H914z"/><glyph glyph-name="uniE002" unicode="" horiz-adv-x="949" d="M561 354l179 210 179-210H789c0-204-165-369-370-369C215-15 50 150 50 354c0 205 165 370 369 370 66 0 128-17 182-47l-37-74c-43 24-92 38-144 38-160 0-286-127-286-287S260 66 420 66s285 128 285 288H561z"/><glyph glyph-name="uniFB00" unicode="ﬀ" horiz-adv-x="618" d="M617 643c-40 0-71-18-84-77l-18-85h109l-18-83H497L413 0h-97l84 398H211L127 0H30l84 398H33l18 83h81l21 100c27 130 113 148 172 148 38 0 61-12 64-14l-18-80c-5 2-20 8-40 8-40 0-71-18-84-77l-18-85h189l21 100c27 130 113 148 172 148 38 0 61-12 64-14l-18-80c-5 2-20 8-40 8z"/><glyph glyph-name="fi" unicode="ﬁ" horiz-adv-x="591" d="M211 398L127 0H30l84 398H33l18 83h81l21 100c27 130 113 148 172 148 38 0 61-12 64-14l-18-80c-5 2-20 8-40 8-40 0-71-18-84-77l-18-85h307L433 0h-94l85 398H211zm248 261c0 42 38 74 74 74s61-27 61-60c0-41-38-74-74-74s-61 27-61 60z"/><glyph glyph-name="fl" unicode="ﬂ" horiz-adv-x="590" d="M331 643c-40 0-71-18-84-77l-18-85h213l52 243h94L434 0h-94l85 398H211L127 0H30l84 398H33l18 83h81l21 100c27 130 113 148 172 148 38 0 61-12 64-14l-18-80c-5 2-20 8-40 8z"/><glyph glyph-name="uniFB03" unicode="ﬃ" horiz-adv-x="870" d="M738 659c0 42 38 74 74 74s61-27 61-60c0-41-38-74-74-74s-61 27-61 60zm-121-16c-40 0-71-18-84-77l-18-85h300L712 0h-94l85 398H497L413 0h-97l84 398H211L127 0H30l84 398H33l18 83h81l21 100c27 130 113 148 172 148 38 0 61-12 64-14l-18-80c-5 2-20 8-40 8-40 0-71-18-84-77l-18-85h189l21 100c27 130 113 148 172 148 38 0 61-12 64-14l-18-80c-5 2-20 8-40 8z"/><glyph glyph-name="uniFB04" unicode="ﬄ" horiz-adv-x="875" d="M617 643c-40 0-71-18-84-77l-18-85h212l52 243h94L719 0h-94l85 398H497L413 0h-97l84 398H211L127 0H30l84 398H33l18 83h81l21 100c27 130 113 148 172 148 38 0 61-12 64-14l-18-80c-5 2-20 8-40 8-40 0-71-18-84-77l-18-85h189l21 100c27 130 113 148 172 148 38 0 61-12 64-14l-18-80c-5 2-20 8-40 8z"/><glyph glyph-name="uniFEFF" horiz-adv-x="0"/><glyph glyph-name="zero.numr" horiz-adv-x="411" d="M55 412c0 107 52 243 182 243 88 0 134-61 134-137 0-124-59-242-181-242-77 0-135 50-135 136zm70 2c0-39 23-71 69-71 76 0 106 105 106 173 0 36-16 72-68 72-87 0-107-131-107-174z"/><glyph glyph-name="one.numr" horiz-adv-x="290" d="M166 283H89l56 250H65l10 51c49 2 87 28 102 64h68z"/><glyph glyph-name="two.numr" horiz-adv-x="388" d="M165 449l63 28c39 17 57 37 57 65 0 23-17 48-51 48-39 0-66-24-66-77H93c0 91 60 141 143 141 84 0 127-51 127-108 0-58-38-100-96-125l-76-33c-25-11-36-26-42-40h184l-14-65H45c8 78 46 133 120 166z"/><glyph glyph-name="three.numr" horiz-adv-x="425" d="M188 454l-26 60 114 69H116l14 65h260l-14-74-114-67c48-9 85-50 85-99 0-68-54-132-147-132-73 0-135 43-135 115 0 6 1 14 2 19l69 5c-1-4-1-7-1-11 0-33 26-62 64-62 40 0 72 22 72 64 0 33-28 52-59 52-8 0-19-2-24-4z"/><glyph glyph-name="four.numr" horiz-adv-x="427" d="M55 359l16 85 206 204h88l-48-224h65l-14-65h-64c0-1-1-4-16-76h-76l16 76H55zm186 65l31 137-138-137h107z"/><glyph glyph-name="five.numr" horiz-adv-x="407" d="M55 395l76 7c0-32 19-60 60-60 33 0 68 19 68 64 0 38-27 56-59 56-18 0-36-6-49-16l-64 36 72 166h213l-13-66H201l-31-72c15 9 41 12 55 12 66 0 112-37 112-107 0-77-63-139-148-139-76 0-134 49-134 119z"/><glyph glyph-name="six.numr" horiz-adv-x="390" d="M376 632l-27-56c-18 10-41 16-72 16-49 0-103-29-124-85 19 19 52 24 75 24 72 0 117-44 117-111 0-91-77-144-154-144-69 0-136 48-136 146 0 125 88 234 222 234 37 0 76-6 99-24zM207 467c-39 0-73-27-73-68 0-37 27-58 62-58 33 0 70 22 70 71 0 33-23 55-59 55z"/><glyph glyph-name="seven.numr" horiz-adv-x="368" d="M383 648l-14-64c-57-39-170-122-224-301H65c41 176 185 285 207 299H82l13 66h288z"/><glyph glyph-name="eight.numr" horiz-adv-x="396" d="M177 542c0-24 19-41 45-41 30 0 63 15 63 52 0 21-15 39-48 41-36 0-60-20-60-52zm-45-160c0-29 28-45 60-45 41 0 68 21 68 57 0 25-21 45-58 45-40 0-70-24-70-57zm56-106c-87 0-133 44-133 99 0 43 34 83 94 98-28 11-47 42-47 67 0 66 54 115 142 115 69 0 117-38 117-92 0-39-25-78-76-96 29-11 52-43 52-72 0-71-66-119-149-119z"/><glyph glyph-name="nine.numr" horiz-adv-x="407" d="M50 310l30 57c24-17 54-25 84-25 47 0 101 28 114 88-18-21-49-31-72-31-70 0-125 45-125 115 0 87 73 140 153 140 70 0 133-43 133-139 0-137-69-240-207-240-39 0-85 14-110 35zm167 152c39 0 69 30 69 72 0 34-27 56-57 56-35 0-69-25-69-71 0-35 24-57 57-57z"/><glyph glyph-name="zero.dnom" horiz-adv-x="411" d="M35 129c0 107 52 243 182 243 88 0 134-61 134-137C351 111 292-7 170-7 93-7 35 43 35 129zm70 2c0-39 23-71 69-71 76 0 106 105 106 173 0 36-16 72-68 72-87 0-107-131-107-174z"/><glyph glyph-name="one.dnom" horiz-adv-x="290" d="M136 0H59l56 250H35l10 51c49 2 87 28 102 64h68z"/><glyph glyph-name="two.dnom" horiz-adv-x="381" d="M125 166l63 28c39 17 57 37 57 65 0 23-17 48-51 48-39 0-66-24-66-77H53c0 91 60 141 143 141 84 0 127-51 127-108 0-58-38-100-96-125l-76-33c-25-11-36-26-42-40h184L279 0H5c8 78 46 133 120 166z"/><glyph glyph-name="three.dnom" horiz-adv-x="425" d="M148 172l-26 60 114 69H76l14 65h260l-14-74-114-67c48-9 85-50 85-99C307 58 253-6 160-6 87-6 25 37 25 109c0 6 1 14 2 19l69 5c-1-4-1-7-1-11 0-33 26-62 64-62 40 0 72 22 72 64 0 33-28 52-59 52-8 0-19-2-24-4z"/><glyph glyph-name="four.dnom" horiz-adv-x="427" d="M5 76l16 85 206 204h88l-48-224h65l-14-65h-64c0-1-1-4-16-76h-76l16 76H5zm186 65l31 137L84 141h107z"/><glyph glyph-name="five.dnom" horiz-adv-x="407" d="M15 112l76 7c0-32 19-60 60-60 33 0 68 19 68 64 0 38-27 56-59 56-18 0-36-6-49-16l-64 36 72 166h213l-13-66H161l-31-72c15 9 41 12 55 12 66 0 112-37 112-107C297 55 234-7 149-7 73-7 15 42 15 112z"/><glyph glyph-name="six.dnom" horiz-adv-x="390" d="M336 349l-27-56c-18 10-41 16-72 16-49 0-103-29-124-85 19 19 52 24 75 24 72 0 117-44 117-111C305 46 228-7 151-7 82-7 15 41 15 139c0 125 88 234 222 234 37 0 76-6 99-24zM167 184c-39 0-73-27-73-68 0-37 27-58 62-58 33 0 70 22 70 71 0 33-23 55-59 55z"/><glyph glyph-name="seven.dnom" horiz-adv-x="368" d="M343 365l-14-64C272 262 159 179 105 0H25c41 176 185 285 207 299H42l13 66h288z"/><glyph glyph-name="eight.dnom" horiz-adv-x="396" d="M137 259c0-24 19-41 45-41 30 0 63 15 63 52 0 21-15 39-48 41-36 0-60-20-60-52zM92 99c0-29 28-45 60-45 41 0 68 21 68 57 0 25-21 45-58 45-40 0-70-24-70-57zM148-7C61-7 15 37 15 92c0 43 34 83 94 98-28 11-47 42-47 67 0 66 54 115 142 115 69 0 117-38 117-92 0-39-25-78-76-96 29-11 52-43 52-72C297 41 231-7 148-7z"/><glyph glyph-name="nine.dnom" horiz-adv-x="407" d="M15 29l30 57c24-17 54-25 84-25 47 0 101 28 114 88-18-21-49-31-72-31-70 0-125 45-125 115 0 87 73 140 153 140 70 0 133-43 133-139C332 97 263-6 125-6 86-6 40 8 15 29zm167 152c39 0 69 30 69 72 0 34-27 56-57 56-35 0-69-25-69-71 0-35 24-57 57-57z"/><glyph glyph-name="space.frac" horiz-adv-x="52"/><glyph glyph-name="a.ordn" horiz-adv-x="463" d="M242 592c-69 0-106-74-106-139 0-51 26-86 76-86 59 0 104 60 104 143 0 47-24 82-74 82zm107 56h73l-53-256c-4-18-7-41-7-61v-22h-70c-1 7-1 16-1 21 0 3 0 11 1 22-21-27-54-50-97-50-87 0-134 67-134 150 0 112 73 206 176 206 59 0 90-28 104-52z"/><glyph glyph-name="b.ordn" horiz-adv-x="485" d="M160 309H87l107 507h73l-41-196c23 24 59 38 99 38 88 0 132-67 132-148 0-120-76-210-180-210-50 0-91 26-106 62zm137 282c-55 0-104-52-104-135 0-52 30-89 78-89 52 0 110 48 110 136 0 57-33 88-84 88z"/><glyph glyph-name="c.ordn" horiz-adv-x="433" d="M392 549l-69-22c-7 33-31 64-79 64-54 0-108-45-108-134 0-56 35-91 87-91 48 0 74 30 88 59l63-26c-25-52-75-100-154-100-98 0-159 67-159 157 0 121 86 203 188 203 92 0 132-60 143-110z"/><glyph glyph-name="d.ordn" horiz-adv-x="464" d="M242 592c-69 0-106-74-106-139 0-51 26-86 76-86 59 0 104 60 104 143 0 47-24 82-74 82zm50-240c-21-27-54-50-97-50-87 0-134 67-134 150 0 112 73 206 176 206 57 0 89-26 103-50l43 208h75l-89-424c-4-18-7-41-7-61v-22h-70c-1 7-1 16-1 21 0 3 0 11 1 22z"/><glyph glyph-name="e.ordn" horiz-adv-x="436" d="M142 515h170c0 2 1 7 1 12 0 31-19 68-72 68s-87-38-99-80zm236-57H133c-1-4-1-6-1-10 0-51 36-85 83-85s77 26 91 52l58-33c-24-44-77-83-150-83-85 0-155 55-155 155 0 127 92 205 185 205 92 0 144-58 144-139 0-25-6-49-10-62z"/><glyph glyph-name="f.ordn" horiz-adv-x="341" d="M309 583h-76l-57-274H99l58 274H99l14 65h58l14 66c19 88 77 106 125 106 27 0 45-9 48-11l-13-63c-4 2-14 6-29 6-28 0-49-13-58-52l-11-52h76z"/><glyph glyph-name="g.ordn" horiz-adv-x="461" d="M346 513c0 37-25 77-78 77-57 0-101-44-101-116 0-48 25-85 79-85 58 0 100 47 100 124zM50 292l70 15c0-39 19-76 77-76 62 0 97 38 113 108l6 26c-14-20-45-39-87-39-86 0-137 62-137 142 0 105 71 187 172 187 50 0 86-20 103-50l9 43h75l-64-308c-18-88-69-174-191-174-99 0-146 63-146 126z"/><glyph glyph-name="h.ordn" horiz-adv-x="460" d="M360 308h-75l43 202c2 8 2 16 2 24 0 35-19 57-58 57-48 0-78-43-87-86l-42-197H68l108 507h75l-42-196c24 27 57 38 95 38 65 0 105-41 105-103 0-14-2-25-4-34z"/><glyph glyph-name="i.ordn" horiz-adv-x="269" d="M167 767c0 32 27 56 55 56s46-20 46-45c0-31-28-55-55-55s-46 20-46 44zm-10-458H82l73 339h74z"/><glyph glyph-name="j.ordn" horiz-adv-x="279" d="M103 275l81 373h74l-83-390c-13-60-53-92-107-92-31 0-50 10-52 11l13 59c2 0 15-5 30-5 26 1 38 15 44 44zm93 492c0 32 27 56 55 56 27 0 46-20 46-45 0-31-28-55-56-55-26 0-45 20-45 44z"/><glyph glyph-name="k.ordn" horiz-adv-x="423" d="M292 309l-73 152-63-52-21-100H61l108 507h74l-64-300 157 132h109L277 509l98-200h-83z"/><glyph glyph-name="l.ordn" horiz-adv-x="246" d="M143 309H68l108 507h75z"/><glyph glyph-name="m.ordn" horiz-adv-x="657" d="M350 309h-74l44 209c1 7 2 14 2 20 0 31-16 54-56 54-46 0-70-35-79-79l-44-204H69l60 280c7 33 7 57 7 59h73c0-5-1-24-3-35 24 30 56 45 96 45 42 0 73-21 87-54 36 46 80 54 118 54 55 0 98-40 98-102 0-10-1-20-3-31l-46-216h-75l44 209c2 8 3 15 3 22 0 30-18 52-56 52-43 0-70-35-79-79z"/><glyph glyph-name="n.ordn" horiz-adv-x="460" d="M371 309h-75l43 202c2 8 3 16 3 24 0 35-20 57-59 57-48 0-78-43-87-86l-42-197H79l60 280c7 33 7 57 7 59h73c0-4-1-25-3-36 25 34 63 46 102 46 62 0 102-41 102-103 0-14-2-22-4-34z"/><glyph glyph-name="o.ordn" horiz-adv-x="455" d="M243 591c-56 0-106-50-106-133 0-57 32-92 80-92 54 0 107 47 107 134 0 55-30 91-81 91zm157-89c0-113-79-203-186-203-96 0-153 70-153 156 0 118 82 204 187 204 98 0 152-71 152-157z"/><glyph glyph-name="p.ordn" horiz-adv-x="481" d="M288 590c-56 0-106-51-106-134 0-57 31-89 80-89 51 0 107 48 107 136 0 56-31 87-81 87zm-77 21c24 29 63 46 104 46 88 0 130-65 130-147 0-120-74-210-178-210-47 0-90 23-108 57l-39-181H46l88 413c7 33 8 57 8 59h73c0-3 0-22-4-37z"/><glyph glyph-name="q.ordn" horiz-adv-x="480" d="M426 648L326 176h-75l35 163c-22-22-51-37-87-37-87 1-137 68-137 150 0 112 74 205 177 205 57 0 91-26 105-49l8 40h74zm-182-57c-69 0-107-73-107-138 0-50 28-86 80-86 59 0 103 59 103 140 0 50-24 84-76 84z"/><glyph glyph-name="r.ordn" horiz-adv-x="282" d="M300 571c-9 2-18 3-27 3-50 0-93-28-110-105l-35-160H54l60 280c7 33 7 57 7 59h74c0-11-2-37-6-49 27 43 74 53 108 53 7 0 14 0 20-1z"/><glyph glyph-name="s.ordn" horiz-adv-x="387" d="M64 414l65 14c0-38 24-69 67-69 34 0 50 21 50 42 0 15-9 27-30 37l-45 21c-43 20-65 48-65 89 0 58 49 111 126 111 93 0 120-64 123-100l-66-16c0 24-18 56-62 56-30 0-49-19-49-41 0-17 9-28 25-35l45-20c48-22 72-57 72-97 0-46-37-107-126-107-100 0-130 70-130 115z"/><glyph glyph-name="t.ordn" horiz-adv-x="314" d="M221 581l-34-166c-1-6-2-11-2-16 0-20 12-29 37-29 10 0 21 2 23 3l-13-62c-6-2-19-5-38-5-53 0-87 29-87 78 0 8 1 17 3 26l37 171H85l14 67h11c40 0 61 21 69 55l11 50h68l-22-105h67l-14-67h-68z"/><glyph glyph-name="u.ordn" horiz-adv-x="422" d="M254 347c-21-30-57-46-89-46-71 0-110 45-110 110 0 13 1 25 4 39l42 198h75l-41-196c-2-10-3-20-3-29 0-32 15-57 56-57 47 0 75 40 84 84l42 198h74l-54-256c-4-18-7-41-7-61v-22h-73c-1 7-1 12-1 17 0 3 0 12 1 21z"/><glyph glyph-name="v.ordn" horiz-adv-x="384" d="M409 648L209 309h-73L76 648h77l35-248 137 248h84z"/><glyph glyph-name="w.ordn" horiz-adv-x="584" d="M285 648h79l30-241 120 241h80L417 309h-77l-32 248-129-248h-78L67 648h72l21-240z"/><glyph glyph-name="x.ordn" horiz-adv-x="413" d="M239 424L134 309H40l164 174-88 165h82l57-111 100 111h93L289 479l92-170h-82z"/><glyph glyph-name="y.ordn" horiz-adv-x="403" d="M140 176H55l124 190-80 282h80l55-205 127 205h87z"/><glyph glyph-name="z.ordn" horiz-adv-x="410" d="M334 309H57l14 66 219 207H121l14 66h266l-14-65-221-208h182z"/><glyph glyph-name="space.tf"/><glyph glyph-name="numbersign.tf" d="M43 405v76h104l36 167h84l-36-167h112l36 167h84l-36-167h95v-76H411l-34-160h96v-76H360L324 0h-84l36 169H164L128 0H44l36 169H-6v76H97l34 160H43zm172 0l-34-160h112l34 160H215z"/><glyph glyph-name="dollar.tf" d="M149-104L172 3C59 29 13 123 13 206c0 2 0 4 1 13l86 14c-1-9-1-13-1-16 0-58 27-115 89-135l46 211-23 12c-68 36-112 83-112 161 0 105 89 185 210 186l22 100h73l-23-110c100-27 136-111 136-168l-82-17c0 26-10 83-71 106l-45-214 15-7c79-42 122-93 122-163C456 80 370-6 243-6l-20-98h-74zm38 581c0-41 21-70 62-92l3-2 41 191c-61-4-106-45-106-97zm178-305c0 34-23 63-65 87L261 75c63 6 103 43 104 97z"/><glyph glyph-name="percent.tf" d="M244 532c0 33-22 55-57 55-36 0-70-31-70-73 0-33 22-57 57-57 36 0 70 30 70 75zm-50 125c70 0 123-54 123-122 0-83-75-146-150-146-70 0-121 52-121 120 0 80 67 148 148 148zm349-110l-20-98L34 128l20 96zM428 139c0 33-22 55-57 55-36 0-70-31-70-73 0-33 22-57 57-57 36 0 70 30 70 75zm73 3C501 59 426-4 351-4c-70 0-121 52-121 120 0 80 67 148 148 148 70 0 123-54 123-122z"/><glyph glyph-name="plus.tf" d="M296 248V51h-82v197H27v79h187v195h82V327h188v-79H296z"/><glyph glyph-name="comma.tf" d="M149 63c0 50 40 88 92 88 48 0 87-34 87-95 0-119-97-233-226-240l12 62c63 12 120 63 132 120-4-3-16-5-26-5-39 0-71 27-71 70z"/><glyph glyph-name="period.tf" d="M209-6c-44 0-74 32-74 70 0 49 40 90 89 90 45 0 74-32 74-71 0-51-41-89-89-89z"/><glyph glyph-name="zero.tf" d="M104 222c0-75 24-148 124-148 147 0 194 243 194 358 0 75-25 144-125 144-170 0-193-290-193-354zM221-15C78-15 7 82 7 216c0 178 81 447 300 447 141 0 213-101 213-231 0-204-96-447-299-447z"/><glyph glyph-name="one.tf" d="M25 88h169l81 380H123l13 63c80 6 157 50 187 117h86L290 88h188L460 0H7z"/><glyph glyph-name="two.tf" d="M-28 0c13 121 81 221 209 282l121 58c77 37 119 77 119 138 0 52-32 101-110 101-84 0-141-59-141-158v-8l-95 8v7c0 127 89 235 240 235 140 0 205-79 205-175 0-106-65-175-166-223l-144-68c-38-18-86-53-106-106h354L439 0H-28z"/><glyph glyph-name="three.tf" d="M209 312l-37 91 231 156H87l18 89h437l-23-113-218-146c82-7 157-71 157-174 0-119-94-230-245-230C67-15-10 85-10 186c0 9 0 19 2 29l96 11c-2-9-2-18-2-27 0-65 41-128 125-128 83 0 146 55 146 137 0 79-63 108-117 108-11 0-24-2-31-4z"/><glyph glyph-name="four.tf" d="M-14 146l24 116 361 386h127l-90-411h106l-19-91H389L361 0h-95l28 146H-14zm327 91l67 305L98 237h215z"/><glyph glyph-name="five.tf" d="M5 191c0 2 0 7 1 10l95 18c-1-6-1-11-1-16 0-66 37-132 127-132 74 0 144 52 144 149 0 71-46 117-119 117-46 0-78-14-105-36l-88 56 139 291h347l-19-90H249l-78-162c29 17 60 24 100 24 116 0 200-69 200-189C471 96 369-15 225-15 93-15 5 70 5 191z"/><glyph glyph-name="six.tf" d="M560 631l-36-77c-35 16-73 24-115 24-135 0-230-82-264-207 31 32 83 58 152 58 125 0 203-77 203-191C500 79 375-15 243-15 127-15 23 69 23 226c0 226 144 437 384 437 54 0 114-8 153-32zM273 345c-85 0-148-62-148-148 0-74 54-126 126-126 74 0 148 54 148 153 0 74-48 121-126 121z"/><glyph glyph-name="seven.tf" d="M39 558l19 90h503l-20-94C471 506 252 347 150 0H48c102 396 386 558 386 558H39z"/><glyph glyph-name="eight.tf" d="M290 370c76 0 135 47 135 119 0 50-38 94-105 94-87 0-139-50-139-120 0-49 40-93 109-93zM105 167c0-62 50-101 126-101 79 0 144 48 144 122 0 57-40 103-122 103-84 0-148-48-148-124zm368 20C473 63 364-15 223-15 76-15 6 66 6 160c0 82 58 153 161 175-42 17-82 72-82 128 0 123 107 200 234 200 132 0 203-73 203-162 0-81-53-149-146-173 62-21 97-78 97-141z"/><glyph glyph-name="nine.tf" d="M129 429c0-73 49-121 124-121 85 0 143 61 143 146 0 75-54 123-122 123-72 0-145-51-145-148zM-38 38l40 76c43-30 93-41 140-41 137 0 230 92 243 222-26-39-76-71-155-71-108 0-201 74-201 195 0 153 123 244 253 244 123 0 220-75 220-240 0-248-123-438-360-438C78-15 5 2-38 38z"/><glyph glyph-name="colon.tf" d="M199-11c-43 0-71 31-71 68 0 46 38 85 85 85 43 0 71-30 71-68 0-48-40-85-85-85zm74 347c-43 0-71 31-71 68 0 46 38 85 85 85 43 0 71-30 71-68 0-48-40-85-85-85z"/><glyph glyph-name="semicolon.tf" d="M283 336c-43 0-71 31-71 68 0 46 38 85 85 85 43 0 71-30 71-68 0-48-40-85-85-85zM141 60c0 46 37 81 84 81 45 0 81-31 81-87 0-110-89-215-209-222l12 58c58 10 110 58 122 110-4-2-15-4-25-4-36 0-65 24-65 64z"/><glyph glyph-name="less.tf" d="M61 244v85l412 206v-95L163 287l310-153V39z"/><glyph glyph-name="equal.tf" d="M28 346v77h463v-77H28zm0-195v79h463v-79H28z"/><glyph glyph-name="greater.tf" d="M473 329v-85L61 39v95l312 153L61 440v95z"/><glyph glyph-name="cent.tf" d="M171 0l21 100C104 125 51 202 51 297c0 154 106 261 239 268l18 84h76l-19-91c81-21 117-83 130-134l-83-28c-9 33-29 66-64 81l-65-308c62 6 93 46 113 84l77-33C438 153 372 91 266 90L247 0h-76zm-30 297c0-56 26-98 68-117l65 305c-69-11-133-74-133-188z"/><glyph glyph-name="sterling.tf" horiz-adv-x="597" d="M43 273l18 86h74c-6 32-11 59-11 88 0 120 84 216 211 216 111 0 180-60 180-159 0-13-2-26-4-33l-93-14c2 11 3 21 3 32 0 47-30 88-90 88-65 0-111-43-111-124 0-31 7-62 13-94h193l-18-86H241c-4-81-53-151-134-186h210c68 0 109 50 119 110l88-18C504 66 425 0 321 0H-21l20 104c98 28 142 97 146 169H43z"/><glyph glyph-name="currency.tf" d="M62 239c0 45 14 86 37 120l-75 78 60 59 75-78c34 22 74 35 116 35 40 0 78-11 111-31l72 74 60-59-70-73c25-35 41-78 41-125 0-46-14-88-39-123l68-71-59-59-70 72c-33-21-73-33-114-33-44 0-85 14-119 37L83-14 24 45l73 76c-22 34-35 74-35 118zm83 0c0-78 58-132 130-132s128 54 128 132c0 77-56 131-128 131s-130-54-130-131z"/><glyph glyph-name="yen.tf" d="M29 306l15 71h122L60 648h110l92-262 194 262h113L356 377h122l-15-71H294l-17-80h169l-16-72H262L230 0h-97l32 154H-4l16 72h168l17 80H29z"/><glyph glyph-name="section.tf" d="M5 0l91 8c-3-14-5-27-5-39 0-56 31-96 101-96 55 0 109 35 109 102 0 30-15 56-40 75l-90 64c-55 39-104 84-104 152 0 82 69 128 114 143-41 33-61 78-61 126 0 116 105 189 213 189 123 0 184-74 184-161 0-13-1-27-4-42l-92-9c3 14 5 28 5 40 0 55-33 94-99 94-58 0-113-39-113-101 0-29 15-55 43-74l89-65c54-39 104-80 104-148 0-81-66-134-112-148 38-33 60-80 60-125 0-119-106-189-214-189C63-204 1-132 1-44 1-31 2-16 5 0zm308 311l-86 64c-29-8-68-45-68-92 0-28 13-52 44-74l86-64c29 7 70 45 70 91 0 29-14 52-46 75z"/><glyph glyph-name="logicalnot.tf" d="M476 149h-84v195H43v82h433V149z"/><glyph glyph-name="plusminus.tf" d="M298 309V175h-82v134H39v77h177v136h82V386h178v-77H298zM39 51v79h437V51H39z"/><glyph glyph-name="multiply.tf" d="M105 56l-56 56 169 175L50 462l57 57 167-174 167 174 57-56-169-175 170-176-56-57-170 175z"/><glyph glyph-name="divide.tf" d="M21 246v83h457v-83H21zm163-136c0 35 30 64 65 64s64-29 64-64-29-65-64-65-65 30-65 65zm0 355c0 35 30 64 65 64s64-29 64-64-29-65-64-65-65 30-65 65z"/><glyph glyph-name="florin.tf" d="M151 20l76 378H116v83h127l23 113c20 102 92 145 165 145 44 0 62-6 74-10v-83c-6 2-22 7-52 7-35 0-81-13-97-92l-16-80h129v-83H323L241-13c-20-102-92-145-165-145-41 0-58 4-77 10v83c14-4 32-7 56-7 35 0 80 10 96 92z"/><glyph glyph-name="uni2007.tf"/><glyph glyph-name="uni2008.tf"/><glyph glyph-name="perthousand.tf" d="M155 103c0-26 18-46 45-46 29 0 56 24 56 61 0 26-18 44-46 44-29 0-55-26-55-59zM39 529c0 70 57 128 129 128 62 0 108-47 108-107 0-73-61-129-129-129-63 0-108 47-108 108zM193-8C131-8 86 38 86 98c0 70 59 130 131 130 35 0 62-15 78-39 21 24 52 39 88 39 62 0 108-47 108-107C491 48 429-8 363-8c-37 0-65 15-82 39-23-24-54-39-88-39zm327 586l-21-98L19 179l21 96zm-98-460c0 26-18 44-46 44-29 0-55-26-55-59 0-26 18-46 45-46 29 0 56 24 56 61zM161 591c-29 0-55-26-55-59 0-26 18-46 45-46 29 0 56 24 56 61 0 26-18 44-46 44z"/><glyph glyph-name="Euro.tf" d="M41 365l17 78h76c56 127 175 222 330 222 77 0 116-19 139-30l-42-77c-16 7-47 20-106 20-81 0-172-43-221-135h267l-41-78H205c-6-25-9-53-9-83h229l-41-80H208c29-86 109-127 200-127 18 0 36 2 55 5l5-84c-10-3-40-8-66-8-129 0-258 73-293 214H6l17 80h77c0 28 3 56 9 83H41z"/><glyph glyph-name="minus.tf" d="M45 248v79h423v-79H45z"/><glyph glyph-name="approxequal.tf" d="M403 235l51-45c-37-53-88-83-146-83-33 0-65 10-100 30l-47 26c-21 11-42 17-62 17-33 0-65-15-91-45l-53 47c38 55 87 85 143 85 34 0 66-11 103-31l46-25c23-13 47-20 70-20 32 0 61 14 86 44zm0 194l51-45c-37-53-88-83-146-83-33 0-65 10-100 30l-47 26c-21 11-42 17-62 17-33 0-65-15-91-45l-53 47c38 55 87 85 143 85 34 0 66-11 103-31l46-25c23-13 47-20 70-20 32 0 61 14 86 44z"/><glyph glyph-name="notequal.tf" d="M33 346v77h295l73 99h96l-73-99h72v-77H367l-85-116h214v-79H224L150 51H54l74 100H33v79h153l85 116H33z"/><glyph glyph-name="lessequal.tf" d="M60 51v79h412V51H60zm0 253v85l412 146v-84L165 347l307-104v-84z"/><glyph glyph-name="greaterequal.tf" d="M458 130V51H46v79h412zm0 259v-85L46 159v84l307 104L46 451v84z"/><glyph glyph-name="parenleft.case" horiz-adv-x="283" d="M31 248c0 217 90 415 288 540l43-54C204 620 110 469 110 245c0-107 32-204 88-293l-62-43C81-12 31 112 31 248z"/><glyph glyph-name="parenright.case" horiz-adv-x="283" d="M252 449c0-217-98-410-288-540l-43 54C70 83 173 228 173 452c0 107-32 204-88 293l62 43c55-79 105-203 105-339z"/><glyph glyph-name="hyphen.case" horiz-adv-x="358" d="M301 296H30l17 82h271z"/><glyph glyph-name="bracketleft.case" horiz-adv-x="288" d="M188-90H-5l189 891h193l-16-76H250L93-15h111z"/><glyph glyph-name="bracketright.case" horiz-adv-x="288" d="M103-90H-89l15 75H37l157 740H83l16 76h193z"/><glyph glyph-name="braceleft.case" horiz-adv-x="353" d="M36 313l18 86c57 0 117 25 133 99l24 115c30 146 102 186 219 186h13l-16-75h-13c-67 0-104-32-120-105l-31-142c-15-67-60-116-130-126 51-10 78-52 78-105 0-11-2-23-4-35L182 90c-3-14-4-27-4-38 0-46 25-67 79-67h13l-16-75h-13C149-90 95-40 95 45c0 16 2 33 6 51l24 114c2 10 3 19 3 27 0 54-42 76-92 76z"/><glyph glyph-name="braceright.case" horiz-adv-x="354" d="M317 396l-18-86c-58 0-118-25-133-99L142 96C111-50 40-90-77-90h-13l16 75h13C6-15 42 14 59 90l31 142c14 67 59 118 130 126-49 12-78 53-78 106 0 10 1 21 4 34l25 121c3 14 4 26 4 37 0 47-26 68-79 68H83l16 75h13c92 0 145-51 145-136 0-15-1-32-5-50l-24-114c-2-10-3-19-3-28 0-53 42-75 92-75z"/><glyph glyph-name="exclamdown.case" horiz-adv-x="304" d="M214 506L135 0H15l132 506h67zm60 150c0-39-31-73-72-73-36 0-60 25-60 58 0 41 34 73 71 73 36 0 61-25 61-58z"/><glyph glyph-name="guillemotleft.case" horiz-adv-x="477" d="M206 149h-93L15 343l171 188h103L113 334zm193 0h-93l-98 194 171 188h103L306 334z"/><glyph glyph-name="uni00AD.case" horiz-adv-x="358" d="M305 313H34l17 82h271z"/><glyph glyph-name="guillemotright.case" horiz-adv-x="492" d="M53 531h93l98-194L73 149H-30l176 197zm208 0h93l98-194-171-188H178l176 197z"/><glyph glyph-name="questiondown.case" horiz-adv-x="502" d="M256 509h86c-6-79-40-144-120-191l-51-30c-50-29-75-68-75-117s32-95 107-95c98 0 144 76 144 157l95-13C437 84 341-12 193-12 64-12-5 68-5 156c0 101 60 163 138 207l54 31c46 26 66 70 69 115zm125 150c0-39-31-73-72-73-36 0-60 25-60 58 0 41 34 73 71 73 36 0 61-25 61-58z"/><glyph glyph-name="endash.case" horiz-adv-x="639" d="M552 296H40l17 82h512z"/><glyph glyph-name="emdash.case" horiz-adv-x="1100" d="M1003 296H50l17 82h953z"/><glyph glyph-name="guilsinglleft.case" horiz-adv-x="284" d="M206 149h-93L15 343l171 188h103L113 334z"/><glyph glyph-name="guilsinglright.case" horiz-adv-x="284" d="M53 531h93l98-194L73 149H-30l176 197z"/><glyph glyph-name="G.ss01" horiz-adv-x="740" d="M418 725c166 0 262-101 287-225l-93-27c-19 91-88 161-204 161-174 0-274-157-274-326 0-144 84-233 214-233 117 0 205 71 231 176H311l19 88h363C682 143 555-15 345-15 164-15 35 117 35 302c0 277 195 423 383 423z"/><glyph glyph-name="r.ss03" horiz-adv-x="347" d="M201 481l-14-61c11 43 45 66 80 66 39 0 65-29 65-63 0-45-37-79-79-79-39 0-66 28-66 62v13L99 0H5l102 481h94z"/><glyph glyph-name="ampersand.ss04" horiz-adv-x="681" d="M638 212h-99C512 88 412-15 268-15 120-15 25 74 25 185c0 146 116 213 204 224-43 24-74 68-74 124 0 109 97 191 204 191 109 0 188-70 188-165 0-10 0-19-2-29l-98-12c1 9 2 17 2 25 0 53-31 91-94 91-50 0-101-37-101-101 0-53 45-86 104-86l-19-88h-33c-62 0-179-33-179-158 0-60 46-123 148-123 78 0 143 52 166 134H340l18 89h298z"/><glyph glyph-name="one.ss05" horiz-adv-x="426" d="M-27 88h141l81 380H53l13 63c80 6 147 50 177 117h86L210 88h161L353 0H-45z"/><glyph glyph-name="registered.ss06" horiz-adv-x="429" d="M60 526c0 104 85 189 189 189s190-85 190-189-86-189-190-189S60 422 60 526zm49 0c0-80 61-143 140-143s141 63 141 143-62 143-141 143-140-63-140-143zm130 13h16c19 0 33 9 33 25 0 12-8 20-28 20h-11zm-9-42l-14-66h-51l41 196h70c41 0 62-26 62-55 0-34-22-60-48-67l25-74h-52l-18 66h-15z"/><glyph glyph-name="caron.alt" horiz-adv-x="214" d="M239 724L137 545H65l66 179h108z"/><glyph glyph-name="commaaccent" horiz-adv-x="177" d="M65 547l8 40c29 0 61 9 75 41-4-2-12-4-19-4-29 0-47 20-47 45 0 36 28 57 61 57 28 0 59-16 59-60 0-68-57-120-126-120-2 0-6 0-11 1z"/><glyph glyph-name="commaturn" horiz-adv-x="177" d="M185 596c0-33-26-59-61-59-27 0-59 23-59 60 0 91 81 120 130 120h7l-8-40h-5c-30 0-62-16-69-41 5 2 13 4 19 4 29 0 46-20 46-44z"/><glyph glyph-name="dieresis.narrow" horiz-adv-x="288" d="M65 615c0 31 24 60 58 60 29 0 49-21 49-48 0-34-28-58-59-58-30 0-48 20-48 46zm141 0c0 31 24 60 58 60 29 0 49-21 49-48 0-34-28-58-59-58-30 0-48 20-48 46z"/><glyph glyph-name="dieresis.uc.narrow" horiz-adv-x="301" d="M65 813c0 34 26 59 60 59 27 0 46-21 46-46 0-35-27-60-59-60-26 0-47 20-47 47zm155 0c0 34 26 59 60 59 27 0 46-21 46-46 0-35-27-60-59-60-26 0-47 20-47 47z"/><glyph glyph-name="grave.uc" horiz-adv-x="233" d="M172 759L65 878h118l75-119h-86z"/><glyph glyph-name="dieresis.uc" horiz-adv-x="388" d="M65 813c0 38 29 65 66 65 31 0 52-23 52-52 0-39-31-66-65-66-30 0-53 22-53 53zm230 0c0 38 29 65 66 65 31 0 52-23 52-52 0-39-31-66-65-66-30 0-53 22-53 53z"/><glyph glyph-name="macron.uc" horiz-adv-x="351" d="M358 779H65l18 83h293z"/><glyph glyph-name="acute.uc" horiz-adv-x="290" d="M315 878L162 759H65l119 119h131z"/><glyph glyph-name="circumflex.uc" horiz-adv-x="385" d="M152 759H65l135 119h120l90-119h-83l-74 64z"/><glyph glyph-name="caron.uc" horiz-adv-x="385" d="M317 878h93L270 759H150L65 878h82l69-64z"/><glyph glyph-name="breve.uc" horiz-adv-x="352" d="M204 755c-90 0-139 51-139 113 0 5 1 11 2 16h78c-1-4-1-6-1-8 0-22 16-46 66-46 57 0 82 30 88 54h79c-19-64-75-129-173-129z"/><glyph glyph-name="dotaccent.uc" horiz-adv-x="169" d="M65 814c0 38 32 70 70 70 35 0 59-26 59-57 0-39-33-72-71-72-35 0-58 26-58 59z"/><glyph glyph-name="ring.uc" horiz-adv-x="265" d="M180 895c-25 0-51-20-51-50 0-26 17-42 43-42 28 0 52 20 52 50 0 24-18 42-44 42zM65 837c0 72 61 121 122 121 58 0 103-45 103-100 0-61-55-119-120-119-58 0-105 43-105 98z"/><glyph glyph-name="tilde.uc" horiz-adv-x="382" d="M407 881c-16-95-58-126-113-126-28 0-53 12-70 24l-12 8c-12 8-23 14-38 14-19 0-33-12-39-44H65c10 91 59 126 114 126 28 0 53-12 70-24l12-8c12-8 23-14 38-14 19 0 33 12 39 44h69z"/><glyph glyph-name="hungarumlaut.uc" horiz-adv-x="382" d="M256 878L138 759H65l81 119h110zm151 0L279 759h-73l91 119h110z"/><glyph glyph-name="caron.alt.uc" horiz-adv-x="221" d="M246 760L141 570H65l65 190h116z"/><glyph glyph-name="undercommaaccent" horiz-adv-x="224" d="M-14-92c0 33 28 56 64 56 28 0 59-19 59-61 0-84-74-117-125-117-4 0-8 0-14 1l9 39c28 0 63 9 74 41-3-2-10-4-18-4-29 0-49 19-49 45z"/></font>
</defs>
</svg>
