<svg xmlns="http://www.w3.org/2000/svg"><defs><font id="CircularStd-BlackItalic" horiz-adv-x="587"><font-face font-family="CircularStd" font-weight="900" font-style="italic" panose-1="2 11 10 4 2 1 1 1 1 2" ascent="809" descent="-191" x-height="497" cap-height="709" bbox="-139 -268 1633 1016" underline-thickness="80" underline-position="-195" slope="-12" stemh="131" stemv="159" unicode-range="U+000D-FEFF"/><glyph glyph-name="f_f" unicode="ff" horiz-adv-x="711" d="M175 0H22l79 369H17l27 128h84l13 62c27 124 105 174 206 174 30 0 69-8 89-19l-26-124c0-1-13 9-45 9-33 0-67-15-76-55l-10-47h182l13 62c27 124 105 174 205 174 31 0 70-8 90-19l-26-124c0-1-13 9-45 9-34 0-67-15-76-55l-10-47h103l-28-128H585L508 0H355l78 369H252z"/><glyph glyph-name="f_f_i" unicode="ffi" horiz-adv-x="976" d="M805 642c0 54 42 96 97 96 48 0 80-33 80-77 0-58-47-96-98-96-46 0-79 33-79 77zM175 0H22l79 369H17l27 128h84l13 62c27 124 105 174 206 174 30 0 69-8 89-19l-26-124c0-1-13 9-45 9-33 0-67-15-76-55l-10-47h182l13 62c27 124 105 174 205 174 31 0 70-8 90-19l-26-124c0-1-13 9-45 9-34 0-67-15-76-55l-10-47h326L833 0H681l79 369H585L508 0H355l78 369H252z"/><glyph glyph-name="f_f_l" unicode="ffl" horiz-adv-x="983" d="M175 0H22l79 369H17l27 128h84l13 62c27 124 105 174 206 174 30 0 69-8 89-19l-26-124c0-1-13 9-45 9-33 0-67-15-76-55l-10-47h182l13 62c27 124 105 174 205 174 31 0 70-8 90-19l-26-124c0-1-13 9-45 9-34 0-67-15-76-55l-10-47h182l47 227h153L840 0H688l78 369H585L508 0H355l78 369H252z"/><glyph glyph-name="f_i" unicode="fi" horiz-adv-x="646" d="M252 369L175 0H22l79 369H17l27 128h84l16 71c26 115 102 165 203 165 30 0 69-8 89-19l-26-124c0-1-15 9-47 9-40 0-65-21-75-63l-9-39h330L503 0H351l78 369H252zm223 273c0 54 43 96 98 96 47 0 79-33 79-77 0-58-47-96-98-96-46 0-79 33-79 77z"/><glyph glyph-name="f_l" unicode="fl" horiz-adv-x="645" d="M252 369L175 0H22l79 369H17l27 128h84l16 71c26 115 102 165 203 165 30 0 69-8 89-19l-26-124c0-1-15 9-47 9-41 0-66-24-75-64l-9-38h176l49 227h152L502 0H350l78 369H252z"/><glyph glyph-name=".notdef" horiz-adv-x="593" d="M-4 0v709h601V0H-4zm124 124h353v461H120V124z"/><glyph glyph-name=".null" horiz-adv-x="0"/><glyph glyph-name=".null" horiz-adv-x="0"/><glyph glyph-name="uni000D" horiz-adv-x="261"/><glyph glyph-name="space" horiz-adv-x="261"/><glyph glyph-name="exclam" unicode="!" horiz-adv-x="324" d="M72 222l68 487h182L184 222H72zM16 67c0 53 44 96 95 96 48 0 78-36 78-77 0-54-46-96-94-96-47 0-79 35-79 77z"/><glyph glyph-name="quotedbl" unicode="&quot;" horiz-adv-x="435" d="M132 366H80L69 539c0 2-1 13-1 35 0 50 39 86 88 86 46 0 78-31 78-72 0-15-7-33-14-47zm196 0h-52l-11 173c0 2-1 13-1 35 0 50 39 86 88 86 46 0 78-31 78-72 0-15-7-33-14-47z"/><glyph glyph-name="numbersign" unicode="#" horiz-adv-x="733" d="M80 392v105h144l33 151h114l-33-151h126l33 151h115l-33-151h123V392H557l-28-130h122V156H506L473 0H358l33 156H265L232 0H118l33 156H31v106h143l28 130H80zm236 0l-28-130h126l28 130H316z"/><glyph glyph-name="dollar" unicode="$" horiz-adv-x="579" d="M138-116L162 0C67 31 11 107 11 196c0 7 0 15 1 25l143 24c-1-7-2-14-2-21 0-54 30-107 110-108 53 0 80 26 80 64 0 26-11 46-43 60l-75 32C135 310 92 373 92 451c0 119 96 199 211 210l21 105h126l-25-116c107-34 138-125 138-179l-145-24c0 19-8 86-92 86-48 0-77-34-77-69 0-30 18-49 42-60l69-29c103-43 143-106 143-185 0-98-78-195-218-204l-21-102H138z"/><glyph glyph-name="percent" unicode="%" horiz-adv-x="802" d="M191 430c32 0 67 26 67 75 0 31-19 55-51 55-33 0-67-27-67-75 0-32 19-54 51-55zm-8-101c-88 0-150 66-150 150 0 108 89 182 182 182 87 0 150-67 150-150 0-109-91-182-182-182zM596 88c32 0 67 26 67 75 0 31-19 55-51 55-33 0-67-27-67-75 0-32 19-54 51-55zm-8-101c-88 0-150 66-150 150 0 108 89 182 182 182 87 0 150-67 150-150 0-109-91-182-182-182zm174 662L175 0H41l587 649h134z"/><glyph glyph-name="ampersand" unicode="&amp;" horiz-adv-x="679" d="M612 0H444l-47 67-14-12C333 13 277-9 211-9 77-9 6 83 6 174c0 105 66 161 159 212l8 4-6 9c-23 33-48 80-48 131 0 129 108 194 214 194 114 0 190-74 190-166-1-92-73-151-141-188l-20-11 71-103 220 183-41-192-109-91zM154 190c0-36 31-69 74-69 31 0 58 12 89 38l10 8-87 126-16-9c-43-23-70-49-70-94zm140 266l29 16c40 21 58 49 58 75 0 31-23 54-60 54-28 0-63-18-63-66 0-22 12-43 23-59z"/><glyph glyph-name="quotesingle" unicode="'" horiz-adv-x="239" d="M132 366H80L69 539c0 2-1 13-1 35 0 50 39 86 88 86 46 0 78-31 78-72 0-15-7-33-14-47z"/><glyph glyph-name="parenleft" unicode="(" horiz-adv-x="340" d="M24 209c0 284 116 477 337 623l68-90C270 629 151 467 151 218c0-120 41-236 103-324l-100-71C87-85 24 56 24 209z"/><glyph glyph-name="parenright" unicode=")" horiz-adv-x="344" d="M313 443c0-267-124-468-340-620l-69 90C59 33 185 194 185 443c0 116-38 230-102 316l102 70c71-99 128-231 128-386z"/><glyph glyph-name="asterisk" unicode="*" horiz-adv-x="464" d="M356 709l-25-124 120 37 18-114-122-35 55-95-103-66-57 101-94-104-83 69 95 103-108 35 51 107 107-36 22 122h124z"/><glyph glyph-name="plus" unicode="+" horiz-adv-x="590" d="M354 236V41H226v195H36v124h190v195h128V360h190V236H354z"/><glyph glyph-name="comma" unicode="," horiz-adv-x="292" d="M-8 77c0 61 49 103 108 103 62 0 99-47 99-106C199-65 90-166-44-174l16 73C17-97 84-59 97 2c-4-2-15-4-23-4C23-2-8 33-8 77z"/><glyph glyph-name="hyphen" unicode="-" horiz-adv-x="368" d="M306 233H7l29 137h300z"/><glyph glyph-name="period" unicode="." horiz-adv-x="290" d="M84-7C27-7-9 36-9 85c0 59 51 110 115 110 56 0 91-41 91-91C197 45 147-7 84-7z"/><glyph glyph-name="slash" unicode="/" horiz-adv-x="475" d="M569 724L53-15H-89l515 739h143z"/><glyph glyph-name="zero" unicode="0" horiz-adv-x="613" d="M182 238c0-67 27-114 93-114 115 0 154 187 154 287 0 63-24 114-94 114-114 0-153-185-153-287zm86-253C91-15 26 112 26 234c0 149 70 430 318 430 175 0 242-126 242-250 0-149-72-429-318-429z"/><glyph glyph-name="one" unicode="1" horiz-adv-x="382" d="M224 0H67l90 428H22l22 104c88 1 156 51 182 117h135z"/><glyph glyph-name="two" unicode="2" horiz-adv-x="552" d="M-35 0c1 1 4 27 4 28 21 120 75 210 210 269l117 51c60 26 93 55 93 103 0 37-21 74-83 74-69 0-98-53-98-128L63 412c0 144 97 252 254 252 155 0 228-92 228-195 0-109-67-182-176-230l-135-59c-22-10-42-25-57-48h297L446 0H-35z"/><glyph glyph-name="three" unicode="3" horiz-adv-x="545" d="M200 293l-51 109 188 115H66l26 132h471l-29-145-180-113c81-11 141-77 141-167 0-123-107-239-265-239S-14 91-14 201c0 3 0 7 1 13l154 17c-1-7-1-12-1-15 0-56 37-95 93-95 62 0 103 40 103 99 0 54-42 83-89 83-16 0-35-4-47-10z"/><glyph glyph-name="four" unicode="4" horiz-adv-x="599" d="M-19 135l34 160 346 354h187l-81-382h105l-28-132H439L411 0H254l28 135H-19zm329 132l45 213-208-213h163z"/><glyph glyph-name="five" unicode="5" horiz-adv-x="543" d="M-5 197l146 27c-1-5-1-10-1-11 0-49 37-95 96-95 55 0 107 36 107 106 0 55-45 84-95 84-36 0-65-14-84-32L36 334l132 315h375l-28-132H254l-47-114c26 18 64 24 94 24 131 0 201-74 201-187 0-139-102-256-267-256C86-16-5 89-5 197z"/><glyph glyph-name="six" unicode="6" horiz-adv-x="579" d="M597 614l-66-120c-33 18-80 28-126 28-85 0-178-47-214-149 31 42 89 59 136 59 128 0 198-75 198-186C525 97 413-14 261-14 119-14 16 88 16 240c0 231 165 416 405 416 83 0 147-20 176-42zM277 308c-57 0-106-42-106-103 0-50 35-86 91-86s105 40 105 104c0 50-36 85-90 85z"/><glyph glyph-name="seven" unicode="7" horiz-adv-x="545" d="M569 649l-27-126C489 489 272 316 178 0H12c75 278 269 471 333 518H40l28 131h501z"/><glyph glyph-name="eight" unicode="8" horiz-adv-x="559" d="M296 387c55 0 87 39 87 80 0 32-23 67-77 67-60 0-86-43-86-80 0-31 19-67 76-67zM149 190c0-46 39-77 91-77 63 0 99 46 99 89 0 37-26 76-92 76-64 0-98-48-98-88zm341-5C490 57 363-15 233-15 112-15-4 41-4 167c0 88 68 151 160 171-46 21-86 72-86 132 0 114 105 194 245 194 147 0 227-79 227-177 0-76-53-139-135-165 52-21 83-82 83-137z"/><glyph glyph-name="nine" unicode="9" horiz-adv-x="566" d="M196 427c0-49 35-83 89-83 58 0 105 40 105 101 0 51-35 86-91 86s-103-40-103-104zM-25 37l62 120c40-23 82-33 125-33 95 0 179 55 210 151-33-37-81-55-128-55-125 0-205 85-205 198 0 150 118 246 265 246 142 0 245-101 245-254 0-266-176-425-389-425C94-15 29 0-25 37z"/><glyph glyph-name="colon" unicode=":" horiz-adv-x="301" d="M87-7C31-7-4 35-4 83c0 57 50 107 112 107 55 0 89-40 89-89C197 44 148-7 87-7zm66 315c-56 0-91 42-91 90 0 57 50 107 112 107 55 0 89-40 89-89 0-57-49-108-110-108z"/><glyph glyph-name="semicolon" unicode=";" horiz-adv-x="301" d="M-7 71c0 58 47 98 103 98 59 0 94-45 94-101C190-64 87-160-41-167l15 69C17-94 81-58 93 0c-4-2-14-4-22-4C23-4-7 29-7 71zm160 236c-56 0-91 42-91 90 0 57 50 107 112 107 55 0 89-40 89-89 0-57-49-108-110-108z"/><glyph glyph-name="less" unicode="&lt;" horiz-adv-x="501" d="M21 244v108l439 224V438L171 301l289-139V22z"/><glyph glyph-name="equal" unicode="=" horiz-adv-x="619" d="M56 339v122h495V339H56zm0-201v122h495V138H56z"/><glyph glyph-name="greater" unicode="&gt;" horiz-adv-x="501" d="M478 353V245L39 22v137l288 138L39 436v140z"/><glyph glyph-name="question" unicode="?" horiz-adv-x="509" d="M267 220H151v7c0 57 13 130 103 181l58 32c36 20 51 51 51 81 0 34-23 69-78 69-67 0-100-55-100-115L47 488c0 131 100 236 247 236 153 0 225-93 225-181 0-100-56-163-136-209l-43-25c-46-26-67-47-73-89zM109 67c0 53 44 96 95 96 48 0 78-36 78-77 0-54-46-96-94-96-47 0-79 35-79 77z"/><glyph glyph-name="at" unicode="@" horiz-adv-x="799" d="M425-48C191-48 22 103 22 330c0 234 178 395 396 395 207 0 359-141 359-329 0-153-105-253-208-255h-4c-55 0-84 31-93 58-23-40-68-60-114-60-85 0-151 71-151 172 0 130 91 223 195 223 36 0 77-17 92-53l8 40h102l-51-244c-1-5-1-11-1-14 0-9 6-26 27-26 46 0 94 63 94 158 0 138-106 231-254 231-164 0-287-117-287-293 0-162 109-284 293-284 57 0 119 14 174 52l51-73c-52-46-150-76-225-76zm47 413c0 42-21 70-60 70-55 0-92-51-92-115 0-49 20-83 63-83 50 0 88 53 89 128z"/><glyph glyph-name="A" unicode="A" horiz-adv-x="693" d="M463 0l-19 144H181L102 0H-75l412 709h183L627 0H463zm-69 532L261 288h164z"/><glyph glyph-name="B" unicode="B" horiz-adv-x="615" d="M152 709h245c129 0 191-72 191-170 0-81-58-159-134-180 41-14 93-64 93-139C547 90 444 0 298 0H2zm94-284h80c61 0 103 34 103 89 0 40-25 64-81 64h-70zm-63-296h94c67 0 115 37 115 96 0 42-28 70-85 70h-88z"/><glyph glyph-name="C" unicode="C" horiz-adv-x="718" d="M415 723l4 1c202 0 286-132 302-230l-155-48c-10 52-49 126-158 126-103 0-215-89-215-255 0-101 64-178 170-178 102 0 147 72 168 119l141-57C638 110 542-16 349-16 158-16 31 122 31 308c0 261 189 415 384 415z"/><glyph glyph-name="D" unicode="D" horiz-adv-x="713" d="M189 152h120c136 0 211 129 211 247 0 94-48 162-160 162h-85zM302 0H2l148 709h219c198 0 313-122 313-299C682 146 499 0 302 0z"/><glyph glyph-name="E" unicode="E" horiz-adv-x="581" d="M451 0H2l150 709h449l-32-149H278l-29-135h264l-29-139H220l-29-136h292z"/><glyph glyph-name="F" unicode="F" horiz-adv-x="565" d="M160 0H2l150 709h456l-32-150H277l-31-150h263l-31-144H217z"/><glyph glyph-name="G" unicode="G" horiz-adv-x="763" d="M407 574c-102 0-214-85-214-257 0-108 59-186 169-186 100 0 154 52 176 114H331l29 134h352L632 0H513v69c-36-48-100-80-181-80C148-11 31 121 31 308c0 261 185 415 383 415l4 1c202 0 290-123 306-221l-155-48c-10 52-51 119-162 119z"/><glyph glyph-name="H" unicode="H" horiz-adv-x="732" d="M580 0H421l60 284H220L159 0H2l150 709h158l-59-276h262l59 276h159z"/><glyph glyph-name="I" unicode="I" horiz-adv-x="313" d="M161 0H2l150 709h160z"/><glyph glyph-name="J" unicode="J" horiz-adv-x="558" d="M407 709h160L459 198C432 69 333-15 208-15 73-15-7 68-7 184c0 20 2 44 7 66l5 22 153 23-9-47c-2-9-4-31-4-39 0-37 21-74 72-74 45 0 76 36 86 84z"/><glyph glyph-name="K" unicode="K" horiz-adv-x="703" d="M429 0L292 277l-92-84L159 0H2l150 709h158l-59-276 302 276h218L415 387 617 0H429z"/><glyph glyph-name="L" unicode="L" horiz-adv-x="559" d="M460 0H2l150 709h158L191 151h301z"/><glyph glyph-name="M" unicode="M" horiz-adv-x="955" d="M802 0H647l100 469L467 0H341l-91 463L151 0H2l150 709h196l97-478 278 478h230z"/><glyph glyph-name="N" unicode="N" horiz-adv-x="753" d="M601 0H445L257 465 158 0H2l150 709h180l170-432 92 432h158z"/><glyph glyph-name="O" unicode="O" horiz-adv-x="760" d="M31 307c0 261 185 417 382 417 192 0 317-130 317-321 0-261-186-418-383-418C158-15 31 116 31 307zm537 90c0 104-58 175-163 175-103 0-212-90-212-256 0-106 60-177 162-177 103 0 213 92 213 258z"/><glyph glyph-name="P" unicode="P" horiz-adv-x="593" d="M152 709h234c129 0 220-82 220-203 0-155-113-249-280-250H214L159 0H2zm194-136h-64l-39-181h81c87 0 119 51 119 100s-27 81-97 81z"/><glyph glyph-name="Q" unicode="Q" horiz-adv-x="761" d="M31 307c0 261 185 417 382 417 192 0 317-130 317-321 0-135-50-241-124-313l68-99-121-76-67 97c-44-18-91-27-139-27C158-15 31 116 31 307zm272-28l120 77 91-132c32 43 54 101 54 173 0 104-58 175-163 175-103 0-212-90-212-256 0-106 60-177 162-177 13 0 27 1 41 5z"/><glyph glyph-name="R" unicode="R" horiz-adv-x="635" d="M381 0l-91 264h-74L160 0H2l150 709h255c136 0 207-79 207-184 0-118-72-203-172-237L548 0H381zM244 400h90c73 0 117 43 117 102 0 43-25 71-83 71h-87z"/><glyph glyph-name="S" unicode="S" horiz-adv-x="586" d="M264 122c61 0 96 29 96 74 0 28-11 51-51 68l-83 34C130 337 86 408 86 493c0 140 121 230 258 230 195 0 245-134 245-207l-147-24c0 20-9 94-105 94-58 0-92-40-92-79 0-36 22-55 50-67l75-32c110-47 154-113 154-200 0-111-93-223-257-223C66-15-4 120-4 212c0 13 1 21 2 27l145 25c-1-5-2-14-2-23 0-59 36-117 123-119z"/><glyph glyph-name="T" unicode="T" horiz-adv-x="607" d="M630 558H432L313 0H155l118 558H65l33 151h565z"/><glyph glyph-name="U" unicode="U" horiz-adv-x="680" d="M529 709h160L587 228C552 66 437-15 299-15 145-15 43 79 43 219c0 32 5 56 12 91l83 399h160l-86-407c-5-24-8-47-8-60 0-59 31-101 109-101 62 0 106 38 122 116z"/><glyph glyph-name="V" unicode="V" horiz-adv-x="688" d="M240 709l63-502 271 502h180L346 0H183L75 709h165z"/><glyph glyph-name="W" unicode="W" horiz-adv-x="1019" d="M497 709h162l51-458 207 458h171L746 0H587l-51 470L292 0H123L81 709h159l21-457z"/><glyph glyph-name="X" unicode="X" horiz-adv-x="676" d="M309 218L132 0H-69l312 359L81 709h183l93-219 178 219h200L424 350 587 0H402z"/><glyph glyph-name="Y" unicode="Y" horiz-adv-x="634" d="M227 296L73 709h167l90-262 182 262h190L385 295 323 0H164z"/><glyph glyph-name="Z" unicode="Z" horiz-adv-x="643" d="M522 0H-30L3 152l416 406H98l32 151h538l-30-146-427-412h343z"/><glyph glyph-name="bracketleft" unicode="[" horiz-adv-x="336" d="M218-171H-31l211 994h250l-24-114H282L119-55h124z"/><glyph glyph-name="backslash" unicode="\" horiz-adv-x="454" d="M266-15L52 724h128L394-15H266z"/><glyph glyph-name="bracketright" unicode="]" horiz-adv-x="344" d="M142-171h-248l25 116H42l162 764H80l24 114h250z"/><glyph glyph-name="asciicircum" unicode="^" horiz-adv-x="570" d="M241 709h112l200-359H415L299 567 182 350H42z"/><glyph glyph-name="underscore" unicode="_" horiz-adv-x="503" d="M-74-124V0h511v-124H-74z"/><glyph glyph-name="grave" unicode="`" horiz-adv-x="281" d="M124 556L16 707h166l59-151H124z"/><glyph glyph-name="a" unicode="a" d="M271 371c-75 0-115-77-115-149 0-64 37-99 87-99 55 0 113 50 113 153 0 62-35 95-85 95zm137 126h147l-85-397c-6-26-9-56-9-81 0-3 0-10 1-19H324c-1 6-1 14-1 18 0 14 1 28 3 41-19-30-57-67-125-67C81-8 6 89 6 215c0 173 111 294 251 294 95 0 131-46 141-65z"/><glyph glyph-name="b" unicode="b" horiz-adv-x="612" d="M142 0H-6l153 724h149l-55-266c23 26 71 49 125 49 129 0 195-93 195-209 0-182-116-310-259-310-81 0-132 44-147 76zm173 373c-72 0-122-71-122-147 0-67 42-102 93-102 54 0 121 49 122 151 0 68-41 98-93 98z"/><glyph glyph-name="c" unicode="c" horiz-adv-x="534" d="M509 340l-137-38c-7 36-35 70-93 70s-124-49-124-148c0-63 41-99 99-99 49 0 82 29 99 63l124-47C444 61 364-15 243-15 109-15 5 81 5 221c0 179 137 291 285 291 135 0 205-86 219-172z"/><glyph glyph-name="d" unicode="d" horiz-adv-x="590" d="M602 724L470 100c-5-21-9-51-9-77 0-8 0-17 1-23H324c-1 6-1 12-1 22 0 15 2 27 3 37-19-30-57-67-125-67C81-8 6 89 6 215c0 173 111 294 251 294 84 0 121-37 135-58l58 273h152zM271 371c-75 0-115-77-115-149 0-64 37-99 87-99 55 0 113 50 113 153 0 62-35 95-85 95z"/><glyph glyph-name="e" unicode="e" horiz-adv-x="544" d="M159 308h195v7c0 32-21 76-85 76-60 0-94-34-110-83zm321-98l-335-1c0-53 34-99 104-99 43 0 77 24 93 56l118-53C428 48 358-15 236-15 111-15 6 79 6 216c0 183 132 296 264 296 140 0 224-90 224-213 0-23-4-59-14-89z"/><glyph glyph-name="f" unicode="f" horiz-adv-x="378" d="M354 369H252L175 0H22l79 369H17l27 128h84l16 71c26 115 102 165 203 165 30 0 69-8 89-19l-26-124c0-1-15 9-47 9-41 0-66-24-75-64l-9-38h103z"/><glyph glyph-name="g" unicode="g" d="M359 285c0 54-37 88-85 88-66 0-114-53-114-127 0-55 36-89 89-89 56 0 110 49 110 128zM-52-13L81 13c0-48 34-87 100-87 64 0 112 41 130 118l7 31c-17-21-55-45-109-45C86 30 8 117 8 235c0 152 106 273 249 273 83 0 129-35 145-63l10 52h147L463 42C434-97 339-205 183-205 18-205-52-102-52-13z"/><glyph glyph-name="h" unicode="h" horiz-adv-x="593" d="M457 0H305l57 264c5 22 6 33 6 42 0 41-25 69-70 69-47 0-77-37-88-87L148 0H-4l153 724h153l-57-267c31 37 80 53 125 53 104 0 156-70 156-160 0-18-2-38-8-65z"/><glyph glyph-name="i" unicode="i" horiz-adv-x="287" d="M115 642c0 54 43 96 98 96 47 0 79-33 79-77 0-58-47-96-98-96-46 0-79 33-79 77zM143 0H-9L97 497h152z"/><glyph glyph-name="j" unicode="j" horiz-adv-x="285" d="M-9-20l111 517h151L136-54C115-155 48-205-40-205c-49 0-86 17-99 27l25 118c0 1 19-11 49-11 29 0 50 15 56 51zm129 662c0 54 42 96 97 96 48 0 80-33 80-77 0-58-47-96-98-96-46 0-79 33-79 77z"/><glyph glyph-name="k" unicode="k" horiz-adv-x="577" d="M322 0l-82 184-65-57L148 0H-4l153 724h153l-82-383 174 156h207L353 282 491 0H322z"/><glyph glyph-name="l" unicode="l" horiz-adv-x="286" d="M143 0H-9l154 724h152z"/><glyph glyph-name="m" unicode="m" horiz-adv-x="896" d="M455 0H303l59 274c3 13 4 24 4 31 0 40-23 70-69 70s-76-35-87-86L148 0H-4l87 414c8 40 9 67 9 83h148c0-21 0-35-2-47 30 41 84 60 131 60 66 0 111-29 135-72 51 64 123 72 164 72 99 0 161-71 161-165 0-16-2-32-5-49L761 0H610l58 273c3 12 4 25 4 32 0 40-23 70-68 70-48 0-76-36-87-86z"/><glyph glyph-name="n" unicode="n" horiz-adv-x="593" d="M457 0H305l56 263c5 21 6 35 6 43 0 41-22 69-69 69s-77-37-88-87L148 0H-4l87 414c8 38 9 61 9 83h148c0-6 0-29-3-47 31 42 86 60 133 60 104 0 156-70 156-160 0-18-2-36-6-55z"/><glyph glyph-name="o" unicode="o" horiz-adv-x="568" d="M276 373c-73 0-120-72-120-148 0-64 39-101 91-101s120 46 120 149c0 66-37 99-91 100zm242-93c0-158-115-295-281-295C99-15 6 86 6 218c0 177 130 294 281 294 141 0 231-101 231-232z"/><glyph glyph-name="p" unicode="p" horiz-adv-x="608" d="M312 375c-72 0-121-73-121-149 0-68 41-102 92-102 54 0 121 49 121 151 0 66-40 100-92 100zm-80 74c25 31 75 58 131 58 129 0 195-90 195-209 0-182-117-310-260-310-76 0-126 33-146 64l-50-242H-50L78 414c8 40 9 67 9 83h148c0-18 0-39-3-48z"/><glyph glyph-name="q" unicode="q" horiz-adv-x="590" d="M555 497L408-191H256l47 222C280 8 246-8 198-8 80-7 5 91 5 215c0 173 112 293 251 293 95 0 132-44 142-63l10 52h147zM270 371c-74 0-114-77-114-149 0-64 37-99 88-99 55 0 112 50 112 152 0 63-35 96-86 96z"/><glyph glyph-name="r" unicode="r" horiz-adv-x="417" d="M381 344c-20 6-33 9-60 9-51 0-103-29-124-126L148 0H-4l88 414c8 40 9 67 9 83h148c0-2 0-32-4-54 32 44 77 58 124 58 23 0 43-5 52-9z"/><glyph glyph-name="s" unicode="s" horiz-adv-x="446" d="M-18 150l128 21c-1-5-1-8-1-9 0-42 26-66 65-66 36 0 53 19 53 41 0 15-5 31-34 43l-48 20C61 235 32 286 32 345c0 90 79 167 194 167 156 0 188-99 189-156l-130-15c0 26-8 63-60 63-29 0-51-18-51-43 0-17 11-30 27-36l62-25c84-34 113-88 113-149 0-81-69-166-197-166C13-15-18 97-18 144v6z"/><glyph glyph-name="t" unicode="t" horiz-adv-x="393" d="M250 364l-39-182c-1-6-2-12-2-17 0-31 21-43 51-43 12 0 25 2 37 5L271 7c-6-3-30-14-69-14C109-7 53 46 53 127c0 14 2 28 5 43l40 194H12l28 133h24c56 0 82 30 94 81l15 64h136l-31-145h96l-29-133h-95z"/><glyph glyph-name="u" unicode="u" horiz-adv-x="578" d="M85 497h152l-60-281c-2-10-3-19-3-28 0-40 23-66 68-66 47 0 75 37 86 87l62 288h152L456 87c-4-18-9-47-9-87H300c-1 6-1 14-1 17 0 10 1 21 2 31-23-39-74-61-120-61C74-13 17 60 17 152c0 17 2 35 6 53z"/><glyph glyph-name="v" unicode="v" horiz-adv-x="531" d="M555 497L269 0H117L29 497h157l38-310 162 310h169z"/><glyph glyph-name="w" unicode="w" horiz-adv-x="822" d="M354 497h162l34-293 136 293h155L590 0H440l-39 321L237 0H81L34 497h149l21-292z"/><glyph glyph-name="x" unicode="x" horiz-adv-x="527" d="M218 135L101 0H-79l233 255L24 497h167l64-131 112 131h183L319 245 450 0H284z"/><glyph glyph-name="y" unicode="y" horiz-adv-x="534" d="M125-190H-42L123 76 20 497h159l56-265 155 265h168z"/><glyph glyph-name="z" unicode="z" horiz-adv-x="500" d="M382 0H-35l28 134 263 234H50l28 129h407l-27-125-274-242h226z"/><glyph glyph-name="braceleft" unicode="{" horiz-adv-x="377" d="M17 269l26 124c57 0 103 24 117 88l31 145c32 149 110 197 231 197h50l-24-114h-37c-43 0-81-17-94-81l-36-170c-14-64-55-116-126-129 48-16 73-53 73-101 0-11-2-22-4-33L191 37c-2-9-3-18-3-25 0-46 32-61 68-61h31l-24-113h-36C127-162 62-106 62-7c0 18 2 37 6 57l28 130c2 9 3 18 3 25 0 46-34 64-82 64z"/><glyph glyph-name="bar" unicode="|" horiz-adv-x="290" d="M95-162H-31l209 985h126z"/><glyph glyph-name="braceright" unicode="}" horiz-adv-x="380" d="M351 392l-26-124c-55 0-103-24-116-88L178 34C148-108 61-162-59-162h-45l24 113h38c41 0 80 19 94 83l36 169c14 64 55 115 126 129-48 15-73 53-73 100 0 10 2 21 4 32l33 160c2 9 3 18 3 26 0 45-31 59-67 59H82l24 114h37c99 0 164-55 164-154 0-17-2-37-6-57l-29-132c-2-9-3-17-3-24 0-46 34-64 82-64z"/><glyph glyph-name="asciitilde" unicode="~" horiz-adv-x="659" d="M507 375l80-65c-36-70-99-110-170-110-35 0-75 9-112 30l-47 26c-17 9-34 13-50 13-32 0-62-18-84-50l-82 65c36 69 99 110 169 110 36 0 74-9 112-29l48-26c17-9 35-14 52-14 32 0 63 19 84 50z"/><glyph glyph-name="uni00A0" horiz-adv-x="261"/><glyph glyph-name="exclamdown" unicode="¡" horiz-adv-x="256" d="M174 281l-68-487H-77L62 281h112zm55 154c0-52-43-95-95-95-48 0-77 36-77 77 0 53 46 95 93 95s79-34 79-77z"/><glyph glyph-name="cent" unicode="¢" horiz-adv-x="552" d="M143 0l19 91C79 122 27 198 27 293c0 151 108 252 234 268l19 88h115l-21-97c79-25 122-87 132-148l-130-35c-5 33-33 65-88 65s-118-46-118-137c0-59 39-92 93-92 48 0 79 25 95 57l119-42c-30-71-99-137-203-145L258 0H143z"/><glyph glyph-name="sterling" unicode="£" horiz-adv-x="596" d="M46 273l23 110h65c-3 17-5 34-5 54 0 118 78 225 229 225 150 0 199-92 199-174 0-14-2-25-2-26l-134-13c0 1 1 9 1 18 0 40-20 71-69 71-43 0-85-28-85-105 0-16 3-33 6-50h169l-24-110H285c-5-61-36-120-93-143h137c53 0 79 34 85 75l127-22C525 76 446 0 336 0H-14l28 127c78 12 124 78 132 146H46z"/><glyph glyph-name="currency" unicode="¤" horiz-adv-x="634" d="M76 248c0 37 9 71 26 101l-71 72 90 90 74-74c30 14 63 23 99 23 35 0 69-8 98-23l74 74 91-90-71-72c16-30 26-64 26-101 0-38-9-72-26-102l71-70-91-91-73 73c-30-14-64-22-99-22-36 0-69 8-99 23l-74-74-90 91 70 70c-16 30-25 64-25 102zm125 0c0-53 38-91 93-91s93 38 93 91-38 91-93 91-93-38-93-91z"/><glyph glyph-name="yen" unicode="¥" horiz-adv-x="637" d="M57 294l22 106h101L88 649h161l78-236 176 236h169L472 400h110l-22-106H376l-13-63h184l-23-106H341L315 0H168l26 125H20l23 106h173l14 63H57z"/><glyph glyph-name="brokenbar" unicode="¦" horiz-adv-x="290" d="M220 425H93l85 398h126zM95-163H-31l85 398h126z"/><glyph glyph-name="section" unicode="§" horiz-adv-x="575" d="M-10 3l147 9c-2-13-2-17-2-23 0-44 27-66 71-66 35 0 66 26 66 62 0 18-10 36-29 49l-87 60C97 135 48 181 48 253c0 81 51 125 103 147-31 34-44 76-44 116 0 129 123 208 233 208 132 0 205-78 205-176 0-13-1-25-2-33l-146-9c1 10 2 15 2 25 0 44-32 64-71 64-35 0-66-27-66-62 0-18 10-36 26-47l90-61c59-40 108-88 108-159 0-83-51-127-103-148 30-34 43-77 43-116 0-129-122-208-232-208C62-206-12-128-12-30c0 10 0 17 2 33zm329 274l-92 64c-22-14-35-33-35-58 0-16 7-31 23-42l92-64c22 13 34 33 34 59 0 15-6 30-22 41z"/><glyph glyph-name="dieresis" unicode="¨" horiz-adv-x="391" d="M1 624c0 43 39 85 86 85 41 0 69-32 69-70 0-48-43-83-86-83-40 0-69 31-69 68zm218 0c0 43 39 85 85 85 41 0 70-32 70-70 0-48-43-83-86-83-41 0-69 31-69 68z"/><glyph glyph-name="copyright" unicode="©" horiz-adv-x="804" d="M27 354c0 204 165 371 370 371 204 0 370-167 370-371S601-16 397-16C192-16 27 150 27 354zm88 0c0-161 123-288 282-288 158 0 281 127 281 288S555 643 397 643c-159 0-282-128-282-289zm463 66l-100-27c-5 25-26 51-68 51s-91-36-91-109c0-46 30-73 72-73 37 0 60 21 74 46l90-34c-24-58-83-114-171-114-102 0-174 72-174 173 0 131 100 212 207 212 99 0 150-62 161-125z"/><glyph glyph-name="ordfeminine" unicode="ª" horiz-adv-x="451" d="M230 549c-46 0-71-47-71-92 0-43 26-63 56-63 31 0 69 27 69 94 0 43-24 61-54 61zm92 100h114l-59-274c-6-27-9-53-9-77H263c0 12 0 24 2 41-10-19-35-46-84-46-83 0-138 68-138 158 0 124 80 206 176 206 69 0 91-34 95-43z"/><glyph glyph-name="guillemotleft" unicode="«" horiz-adv-x="542" d="M237 102H102L2 301l179 196h147L139 293zm233 0H335L235 301l179 196h147L372 293z"/><glyph glyph-name="logicalnot" unicode="¬" horiz-adv-x="631" d="M549 129H419v195H47v125h502V129z"/><glyph glyph-name="uni00AD" unicode="­" horiz-adv-x="368" d="M306 233H7l29 137h300z"/><glyph glyph-name="registered" unicode="®" horiz-adv-x="804" d="M27 354c0 204 165 371 370 371 204 0 370-167 370-371S601-16 397-16C192-16 27 150 27 354zm88 0c0-161 123-288 282-288 158 0 281 127 281 288S555 643 397 643c-159 0-282-128-282-289zm309-197l-35 130-26 1-28-134H231l85 399h152c71 0 120-52 120-115 0-64-40-118-101-138l46-143H424zm-42 215h37c34 0 64 23 64 59 0 24-16 38-43 38h-38z"/><glyph glyph-name="macron" unicode="¯" horiz-adv-x="303" d="M275 577H-10l22 105h286z"/><glyph glyph-name="degree" unicode="°" horiz-adv-x="386" d="M200 433c32 0 67 26 67 75 0 31-19 55-51 55-33 0-67-27-67-75 0-32 19-54 51-55zm-8-101c-88 0-150 66-150 150 0 108 89 182 182 182 87 0 150-67 150-150 0-109-91-182-182-182z"/><glyph glyph-name="plusminus" unicode="±" horiz-adv-x="625" d="M371 314V198H243v116H65v124h178v117h128V438h178V314H371zM65 40v124h484V40H65z"/><glyph glyph-name="twosuperior" unicode="²" horiz-adv-x="385" d="M166 521l66 28c27 11 42 25 42 45 0 14-9 34-36 34-33 0-48-24-48-56l-99 8c0 74 59 138 152 138 96 0 144-52 144-114 0-61-41-103-111-132l-76-32c-3-1-5-4-6-5h151l-21-95H40c0 83 45 146 126 181z"/><glyph glyph-name="threesuperior" unicode="³" horiz-adv-x="430" d="M197 499l-27 70 105 49H108l19 91h291l-22-105-96-46c45-10 76-44 76-92 0-72-65-134-163-134S62 394 62 457c0 4 1 10 1 14l104 6c-1-4-1-7-1-8 0-26 18-45 49-45 30 0 48 19 48 43s-20 36-43 36c-11 0-20-3-23-4z"/><glyph glyph-name="acute" unicode="´" horiz-adv-x="279" d="M286 707L112 556H-17l122 151h181z"/><glyph glyph-name="mu" unicode="µ" horiz-adv-x="610" d="M47-190v687h153V215c0-48 26-86 80-86 51 0 82 35 82 85v283h153V89c0-38 3-69 5-89H374c-2 9-4 32-4 50-26-43-83-61-133-61-13 0-26 1-37 3v-182H47z"/><glyph glyph-name="paragraph" unicode="¶" horiz-adv-x="690" d="M413 597L246-191H130l103 482h-9c-101 0-177 76-177 175 0 162 149 243 289 243h412l-24-112h-97L460-191H343l167 788h-97z"/><glyph glyph-name="periodcentered" unicode="·" horiz-adv-x="289" d="M42 313c0 52 44 100 102 100 49 0 84-37 84-80 0-60-47-104-102-104-50 0-84 38-84 84z"/><glyph glyph-name="cedilla" unicode="¸" horiz-adv-x="272" d="M126 12h96l-64-65c48-5 80-39 80-79 0-45-37-103-130-103-81 0-127 52-135 67l56 51c10-13 34-42 75-42 22 0 38 9 38 26 0 19-18 26-36 26-9 0-15-1-21-1L61-56z"/><glyph glyph-name="onesuperior" unicode="¹" horiz-adv-x="312" d="M214 341H99l46 217H52l15 73c66 2 111 43 125 78h100z"/><glyph glyph-name="ordmasculine" unicode="º" horiz-adv-x="416" d="M235 552c-50 0-76-50-76-93 0-41 25-63 57-63 31 0 76 27 76 93 0 43-24 62-57 63zm173-57c0-110-81-207-200-207-97 0-165 71-165 165 0 127 94 207 201 207 98 0 164-71 164-165z"/><glyph glyph-name="guillemotright" unicode="»" horiz-adv-x="531" d="M43 497h133l102-199L99 102H-49l189 204zm231 0h133l102-199-179-196H182l189 204z"/><glyph glyph-name="onequarter" unicode="¼" horiz-adv-x="820" d="M199 281H84l46 217H37l15 73c66 2 111 43 125 78h100zM390 71l24 114 201 184h121l-44-212h60l-19-86h-59L659 0H546l15 71H390zm189 86l21 97-106-97h85zm152 492L144 0H10l587 649h134z"/><glyph glyph-name="onehalf" unicode="½" horiz-adv-x="854" d="M200 281H85l46 217H38l15 73c66 2 111 43 125 78h100zm531 368L144 0H10l587 649h134zM566 181l66 28c27 11 42 25 42 45 0 14-9 34-36 34-33 0-48-24-48-56l-99 8c0 74 59 138 152 138 96 0 144-52 144-114 0-61-41-103-111-132l-76-32c-3-1-5-4-6-5h151L724 0H440c0 83 45 146 126 181z"/><glyph glyph-name="threequarters" unicode="¾" horiz-adv-x="934" d="M177 439l-27 70 105 49H88l19 91h291l-22-105-96-46c45-10 76-44 76-92 0-72-65-134-163-134S42 334 42 397c0 4 1 10 1 14l104 6c-1-4-1-7-1-8 0-26 18-45 49-45 30 0 48 19 48 43s-20 36-43 36c-11 0-20-3-23-4zM503 71l24 114 201 184h121l-44-212h60l-19-86h-59L772 0H659l15 71H503zm189 86l21 97-106-97h85zm152 492L257 0H123l587 649h134z"/><glyph glyph-name="questiondown" unicode="¿" horiz-adv-x="442" d="M169 283h116c-1-58-8-136-103-188l-58-32C89 43 73 11 73-19c0-33 23-68 79-68 66 0 100 55 100 115l138-14c-1-130-100-235-247-235-154 0-226 93-226 181 0 99 56 163 136 209l43 25c46 26 67 45 73 89zm158 152c0-52-44-95-95-95-48 0-78 36-78 77 0 53 46 95 94 95 47 0 79-34 79-77z"/><glyph glyph-name="Agrave" unicode="À" horiz-adv-x="693" d="M463 0l-19 144H181L102 0H-75l412 709h183L627 0H463zm-69 532L261 288h164zm-28 227L246 891h174l76-132H366z"/><glyph glyph-name="Aacute" unicode="Á" horiz-adv-x="693" d="M463 0l-19 144H181L102 0H-75l412 709h183L627 0H463zm-69 532L261 288h164zm289 359L506 759H363l132 132h188z"/><glyph glyph-name="Acircumflex" unicode="Â" horiz-adv-x="693" d="M463 0l-19 144H181L102 0H-75l412 709h183L627 0H463zm-69 532L261 288h164zm-23 227H232l150 132h146l95-132H488l-44 65z"/><glyph glyph-name="Atilde" unicode="Ã" horiz-adv-x="693" d="M463 0l-19 144H181L102 0H-75l412 709h183L627 0H463zm-69 532L261 288h164zm235 363c-14-104-66-144-128-144-30 0-54 12-76 25-19 12-36 23-51 23-17 0-31-13-35-42h-93c11 105 72 140 133 140 32 0 54-11 74-23 18-11 32-23 47-23 18 0 31 13 36 44h93z"/><glyph glyph-name="Adieresis" unicode="Ä" horiz-adv-x="693" d="M193 817c0 42 38 87 87 87 43 0 72-33 72-71 0-50-42-86-86-86s-73 30-73 70zm333 0c0 42 38 87 88 87 42 0 71-33 71-71 0-50-41-86-86-86-44 0-73 30-73 70zM463 0l-19 144H181L102 0H-75l412 709h183L627 0H463zm-69 532L261 288h164z"/><glyph glyph-name="Aring" unicode="Å" horiz-adv-x="693" d="M394 533L261 288h164zm42 271c-28 0-53-22-53-53 0-25 19-42 45-42s54 21 54 54c0 26-20 41-46 41zm-146-59c0 80 71 149 154 149 73 0 132-52 132-123 0-45-20-83-49-109L627 0H463l-19 144H181L102 0H-75l389 670c-15 20-24 46-24 75z"/><glyph glyph-name="AE" unicode="Æ" horiz-adv-x="1075" d="M684 150h292L944 0H494l32 152H255L126 0H-75l618 709h551l-31-149H772l-29-135h263l-29-143H714zM366 282h188l63 295z"/><glyph glyph-name="Ccedilla" unicode="Ç" horiz-adv-x="718" d="M415 723l4 1c202 0 286-132 302-230l-155-48c-10 52-49 126-158 126-103 0-215-89-215-255 0-101 64-178 170-178 102 0 147 72 168 119l141-57C640 115 554 0 384-14l-38-39c48-5 80-39 80-79 0-45-37-103-130-103-81 0-127 52-135 67l56 51c10-13 34-42 75-42 22 0 38 9 38 26 0 19-18 26-36 26-5 0-10 0-21-1l-24 52 43 44C134 12 31 141 31 308c0 261 189 415 384 415z"/><glyph glyph-name="Egrave" unicode="È" horiz-adv-x="581" d="M339 759L219 891h174l76-132H339zM451 0H2l150 709h449l-32-149H278l-29-135h264l-29-139H220l-29-136h292z"/><glyph glyph-name="Eacute" unicode="É" horiz-adv-x="581" d="M614 891L437 759H294l132 132h188zM451 0H2l150 709h449l-32-149H278l-29-135h264l-29-139H220l-29-136h292z"/><glyph glyph-name="Ecircumflex" unicode="Ê" horiz-adv-x="581" d="M325 759H186l150 132h146l95-132H442l-44 65zM451 0H2l150 709h449l-32-149H278l-29-135h264l-29-139H220l-29-136h292z"/><glyph glyph-name="Edieresis" unicode="Ë" horiz-adv-x="581" d="M211 817c0 43 39 85 86 85 42 0 70-31 70-69 0-50-40-85-85-85-42 0-71 29-71 69zm208 0c0 43 39 85 85 85 42 0 70-31 70-69 0-50-40-85-84-85-43 0-71 29-71 69zM451 0H2l150 709h449l-32-149H278l-29-135h264l-29-139H220l-29-136h292z"/><glyph glyph-name="Igrave" unicode="Ì" horiz-adv-x="313" d="M161 0H2l150 709h160zm18 759L59 891h174l76-132H179z"/><glyph glyph-name="Iacute" unicode="Í" horiz-adv-x="313" d="M161 0H2l150 709h160zm324 891L308 759H165l132 132h188z"/><glyph glyph-name="Icircumflex" unicode="Î" horiz-adv-x="313" d="M161 0H2l150 709h160zm21 759H43l150 132h146l95-132H299l-44 65z"/><glyph glyph-name="Idieresis" unicode="Ï" horiz-adv-x="313" d="M161 0H2l150 709h160zM71 817c0 43 38 85 85 85 41 0 69-31 69-69 0-49-39-84-84-84-42 0-70 28-70 68zm200 0c0 43 38 85 85 85 41 0 69-31 69-69 0-49-39-84-84-84-42 0-70 28-70 68z"/><glyph glyph-name="Eth" unicode="Ð" horiz-adv-x="745" d="M6 309l23 112h93l60 288h219c198 0 313-122 313-299C714 146 531 0 334 0H34l64 309H6zm215-157h120c136 0 211 129 211 247 0 94-48 162-160 162h-85l-30-140h150l-23-112H254z"/><glyph glyph-name="Ntilde" unicode="Ñ" horiz-adv-x="753" d="M664 895c-14-104-66-144-128-144-30 0-54 12-76 25-19 12-36 23-51 23-17 0-31-13-35-42h-93c11 105 72 140 133 140 32 0 54-11 74-23 18-11 32-23 47-23 18 0 31 13 36 44h93zM601 0H445L257 465 158 0H2l150 709h180l170-432 92 432h158z"/><glyph glyph-name="Ograve" unicode="Ò" horiz-adv-x="760" d="M384 759L264 891h174l76-132H384zM31 307c0 261 185 417 382 417 192 0 317-130 317-321 0-261-186-418-383-418C158-15 31 116 31 307zm537 90c0 104-58 175-163 175-103 0-212-90-212-256 0-106 60-177 162-177 103 0 213 92 213 258z"/><glyph glyph-name="Oacute" unicode="Ó" horiz-adv-x="760" d="M679 891L502 759H359l132 132h188zM31 307c0 261 185 417 382 417 192 0 317-130 317-321 0-261-186-418-383-418C158-15 31 116 31 307zm537 90c0 104-58 175-163 175-103 0-212-90-212-256 0-106 60-177 162-177 103 0 213 92 213 258z"/><glyph glyph-name="Ocircumflex" unicode="Ô" horiz-adv-x="760" d="M387 759H248l150 132h146l95-132H504l-44 65zM31 307c0 261 185 417 382 417 192 0 317-130 317-321 0-261-186-418-383-418C158-15 31 116 31 307zm537 90c0 104-58 175-163 175-103 0-212-90-212-256 0-106 60-177 162-177 103 0 213 92 213 258z"/><glyph glyph-name="Otilde" unicode="Õ" horiz-adv-x="760" d="M655 895c-14-104-66-144-128-144-30 0-54 12-76 25-19 12-36 23-51 23-17 0-31-13-35-42h-93c11 105 72 140 133 140 32 0 54-11 74-23 18-11 32-23 47-23 18 0 31 13 36 44h93zM31 307c0 261 185 417 382 417 192 0 317-130 317-321 0-261-186-418-383-418C158-15 31 116 31 307zm537 90c0 104-58 175-163 175-103 0-212-90-212-256 0-106 60-177 162-177 103 0 213 92 213 258z"/><glyph glyph-name="Odieresis" unicode="Ö" horiz-adv-x="760" d="M202 817c0 42 38 87 87 87 43 0 72-33 72-71 0-50-42-86-86-86s-73 30-73 70zm330 0c0 42 38 87 88 87 42 0 71-33 71-71 0-50-41-86-86-86-44 0-73 30-73 70zM31 307c0 261 185 417 382 417 192 0 317-130 317-321 0-261-186-418-383-418C158-15 31 116 31 307zm537 90c0 104-58 175-163 175-103 0-212-90-212-256 0-106 60-177 162-177 103 0 213 92 213 258z"/><glyph glyph-name="multiply" unicode="×" horiz-adv-x="590" d="M131 43l-90 92 163 164L41 464l90 90 164-165 164 165 90-90-164-165 164-164-90-92-164 165z"/><glyph glyph-name="Oslash" unicode="Ø" horiz-adv-x="760" d="M31 307c0 261 185 417 382 417 64 0 121-15 168-41l74 89 92-77-77-92c38-53 60-122 60-200 0-261-186-418-383-418-62 0-117 14-163 39l-72-86-93 76 75 89c-40 54-63 123-63 204zm162 9c0-30 4-56 13-79l270 322c-20 8-44 13-71 13-103 0-212-90-212-256zm375 81c0 26-4 50-11 71L290 150c19-7 41-11 65-11 103 0 209 92 213 258z"/><glyph glyph-name="Ugrave" unicode="Ù" horiz-adv-x="680" d="M374 759L254 891h174l76-132H374zm155-50h160L587 228C552 66 437-15 299-15 145-15 43 79 43 219c0 32 5 56 12 91l83 399h160l-86-407c-5-24-8-47-8-60 0-59 31-101 109-101 62 0 106 38 122 116z"/><glyph glyph-name="Uacute" unicode="Ú" horiz-adv-x="680" d="M648 891L471 759H328l132 132h188zM529 709h160L587 228C552 66 437-15 299-15 145-15 43 79 43 219c0 32 5 56 12 91l83 399h160l-86-407c-5-24-8-47-8-60 0-59 31-101 109-101 62 0 106 38 122 116z"/><glyph glyph-name="Ucircumflex" unicode="Û" horiz-adv-x="680" d="M361 759H222l150 132h146l95-132H478l-44 65zm168-50h160L587 228C552 66 437-15 299-15 145-15 43 79 43 219c0 32 5 56 12 91l83 399h160l-86-407c-5-24-8-47-8-60 0-59 31-101 109-101 62 0 106 38 122 116z"/><glyph glyph-name="Udieresis" unicode="Ü" horiz-adv-x="680" d="M232 817c0 42 38 87 87 87 43 0 72-33 72-71 0-50-42-86-86-86s-73 30-73 70zm233 0c0 42 38 87 88 87 42 0 71-33 71-71 0-50-41-86-86-86-44 0-73 30-73 70zm64-108h160L587 228C552 66 437-15 299-15 145-15 43 79 43 219c0 32 5 56 12 91l83 399h160l-86-407c-5-24-8-47-8-60 0-59 31-101 109-101 62 0 106 38 122 116z"/><glyph glyph-name="Yacute" unicode="Ý" horiz-adv-x="634" d="M227 296L73 709h167l90-262 182 262h190L385 295 323 0H164zm380 595L430 759H287l132 132h188z"/><glyph glyph-name="Thorn" unicode="Þ" horiz-adv-x="581" d="M322 449h-65l-39-181h82c99 0 119 64 119 101 0 48-27 80-97 80zM161 0H2l150 709h160l-27-124h76c129 0 221-82 221-203 0-155-113-249-280-249H189z"/><glyph glyph-name="germandbls" unicode="ß" horiz-adv-x="613" d="M412 332c0-11 5-19 25-30l24-15c54-32 84-80 84-136 0-63-52-168-190-168-119 0-163 77-163 141 0 8 1 16 2 22l120 8c-1-4-1-7-1-11 0-21 9-47 46-47 27 0 45 18 45 41 0 14-9 29-34 43l-25 14c-44 24-85 63-85 121 0 78 54 117 95 136l17 8c41 21 58 40 58 72 0 25-23 60-85 60-44 0-91-24-108-107L137 0H-13L94 512c32 152 144 212 258 212 147 0 227-88 227-177 0-101-62-148-121-177l-16-8c-18-8-30-17-30-30z"/><glyph glyph-name="agrave" unicode="à" d="M271 371c-75 0-115-77-115-149 0-64 37-99 87-99 55 0 113 50 113 153 0 62-35 95-85 95zm137 126h147l-85-397c-6-26-9-56-9-81 0-3 0-10 1-19H324c-1 6-1 14-1 18 0 14 1 28 3 41-19-30-57-67-125-67C81-8 6 89 6 215c0 173 111 294 251 294 95 0 131-46 141-65zm-163 59L137 707h166l59-151H245z"/><glyph glyph-name="aacute" unicode="á" d="M271 371c-75 0-115-77-115-149 0-64 37-99 87-99 55 0 113 50 113 153 0 62-35 95-85 95zm137 126h147l-85-397c-6-26-9-56-9-81 0-3 0-10 1-19H324c-1 6-1 14-1 18 0 14 1 28 3 41-19-30-57-67-125-67C81-8 6 89 6 215c0 173 111 294 251 294 95 0 131-46 141-65zm121 210L355 556H226l122 151h181z"/><glyph glyph-name="acircumflex" unicode="â" d="M250 556H126l150 151h141l84-151H387l-53 71zm21-185c-75 0-115-77-115-149 0-64 37-99 87-99 55 0 113 50 113 153 0 62-35 95-85 95zm137 126h147l-85-397c-6-26-9-56-9-81 0-3 0-10 1-19H324c-1 6-1 14-1 18 0 14 1 28 3 41-19-30-57-67-125-67C81-8 6 89 6 215c0 173 111 294 251 294 95 0 131-46 141-65z"/><glyph glyph-name="atilde" unicode="ã" d="M271 371c-75 0-115-77-115-149 0-64 37-99 87-99 55 0 113 50 113 153 0 62-35 95-85 95zm137 126h147l-85-397c-6-26-9-56-9-81 0-3 0-10 1-19H324c-1 6-1 14-1 18 0 14 1 28 3 41-19-30-57-67-125-67C81-8 6 89 6 215c0 173 111 294 251 294 95 0 131-46 141-65zm-189 60h-94c12 110 76 150 140 150 34 0 56-11 75-23 17-12 33-22 50-22 25 0 37 18 42 44h94c-15-106-73-150-135-150-32 0-55 11-76 23-18 10-34 21-53 21-21 0-37-13-43-43z"/><glyph glyph-name="adieresis" unicode="ä" d="M141 624c0 43 39 85 86 85 41 0 69-32 69-70 0-48-43-83-86-83-40 0-69 31-69 68zm218 0c0 43 39 85 85 85 41 0 70-32 70-70 0-48-43-83-86-83-41 0-69 31-69 68zm-88-253c-75 0-115-77-115-149 0-64 37-99 87-99 55 0 113 50 113 153 0 62-35 95-85 95zm137 126h147l-85-397c-6-26-9-56-9-81 0-3 0-10 1-19H324c-1 6-1 14-1 18 0 14 1 28 3 41-19-30-57-67-125-67C81-8 6 89 6 215c0 173 111 294 251 294 95 0 131-46 141-65z"/><glyph glyph-name="aring" unicode="å" d="M271 371c-75 0-115-77-115-149 0-64 37-99 87-99 55 0 113 50 113 153 0 62-35 95-85 95zm137 126h147l-85-397c-6-26-9-56-9-81 0-3 0-10 1-19H324c-1 6-1 14-1 18 0 14 1 28 3 41-19-30-57-67-125-67C81-8 6 89 6 215c0 173 111 294 251 294 95 0 131-46 141-65zm-72 275c59 0 108-39 108-100 0-73-63-122-127-122-59 0-106 42-106 101 0 72 62 121 125 121zm-48-116c0-20 15-34 36-34 22 0 40 17 40 41 0 19-13 34-34 34-20 0-42-16-42-41z"/><glyph glyph-name="ae" unicode="æ" horiz-adv-x="839" d="M282 299c31 1 43 18 43 41 0 26-24 52-76 52-47 0-77-31-86-63L38 369c19 64 92 143 219 143 79 0 129-22 159-53 42 34 95 53 148 53 141 0 224-90 224-213 0-23-3-59-14-89H442c0-53 34-100 103-100 43 0 77 24 93 56l116-53C723 48 652-15 531-15c-73 0-135 31-176 84-35-43-96-81-177-81C48-12-13 61-13 134c0 108 84 156 170 160zM136 144c0-30 24-48 57-48 39 0 93 30 104 95l3 18-98-4c-34-2-66-23-66-61zm427 247c-60 0-93-34-108-83h194v6c0 32-21 77-86 77z"/><glyph glyph-name="ccedilla" unicode="ç" horiz-adv-x="534" d="M509 340l-137-38c-7 36-35 70-93 70s-124-49-124-148c0-63 41-100 99-100 49 0 82 29 99 63l124-47C446 65 374-6 266-15l-37-38c48-5 80-39 80-79 0-45-37-103-130-103-81 0-127 52-135 67l56 51c10-13 34-42 75-42 22 0 38 9 38 26 0 19-18 26-36 26-5 0-11 0-21-1l-24 52 46 48C74 17 5 106 5 221c0 179 137 291 285 291 135 0 205-86 219-172z"/><glyph glyph-name="egrave" unicode="è" horiz-adv-x="544" d="M159 308h195v7c0 32-21 76-85 76-60 0-94-34-110-83zm321-98l-335-1c0-53 34-99 104-99 43 0 77 24 93 56l118-53C428 48 358-15 236-15 111-15 6 79 6 216c0 183 132 296 264 296 140 0 224-90 224-213 0-23-4-59-14-89zM243 556L135 707h166l59-151H243z"/><glyph glyph-name="eacute" unicode="é" horiz-adv-x="544" d="M528 707L354 556H225l122 151h181zM159 308h195v7c0 32-21 76-85 76-60 0-94-34-110-83zm321-98l-335-1c0-53 34-99 104-99 43 0 77 24 93 56l118-53C428 48 358-15 236-15 111-15 6 79 6 216c0 183 132 296 264 296 140 0 224-90 224-213 0-23-4-59-14-89z"/><glyph glyph-name="ecircumflex" unicode="ê" horiz-adv-x="544" d="M230 556H106l150 151h141l84-151H367l-53 71zm-71-248h195v7c0 32-21 76-85 76-60 0-94-34-110-83zm321-98l-335-1c0-53 34-99 104-99 43 0 77 24 93 56l118-53C428 48 358-15 236-15 111-15 6 79 6 216c0 183 132 296 264 296 140 0 224-90 224-213 0-23-4-59-14-89z"/><glyph glyph-name="edieresis" unicode="ë" horiz-adv-x="544" d="M123 624c0 43 39 85 86 85 41 0 69-32 69-70 0-48-43-83-86-83-40 0-69 31-69 68zm218 0c0 43 39 85 85 85 41 0 70-32 70-70 0-48-43-83-86-83-41 0-69 31-69 68zM159 308h195v7c0 32-21 76-85 76-60 0-94-34-110-83zm321-98l-335-1c0-53 34-99 104-99 43 0 77 24 93 56l118-53C428 48 358-15 236-15 111-15 6 79 6 216c0 183 132 296 264 296 140 0 224-90 224-213 0-23-4-59-14-89z"/><glyph glyph-name="igrave" unicode="ì" horiz-adv-x="287" d="M144 0H-9L98 497h153zm-18 556L18 707h166l59-151H126z"/><glyph glyph-name="iacute" unicode="í" horiz-adv-x="287" d="M420 707L246 556H117l122 151h181zM144 0H-9L98 497h153z"/><glyph glyph-name="icircumflex" unicode="î" horiz-adv-x="287" d="M115 556H-9l150 151h141l84-151H252l-53 71zM144 0H-9L98 497h153z"/><glyph glyph-name="idieresis" unicode="ï" horiz-adv-x="287" d="M144 0H-9L98 497h153zM28 624c0 43 39 82 85 82 39 0 66-31 66-67 0-48-43-82-83-82-41 0-68 30-68 67zm182 0c0 43 38 82 84 82 39 0 66-31 66-67 0-48-42-82-82-82-42 0-68 30-68 67z"/><glyph glyph-name="eth" unicode="ð" horiz-adv-x="564" d="M525 626l-73-34c49-58 78-135 78-228 0-242-133-379-298-379C78-15-5 92-5 206c0 150 113 244 249 244 66 0 115-24 139-55-4 54-28 100-65 135l-139-65-36 84 78 37c-32 11-68 16-106 17l38 122c80-1 159-24 224-67l113 53zM350 237c0 54-34 90-92 90-61 0-112-44-112-118 0-48 33-92 93-92 61 0 111 48 111 120z"/><glyph glyph-name="ntilde" unicode="ñ" horiz-adv-x="593" d="M231 557h-94c12 110 76 150 140 150 34 0 56-11 75-23 17-12 33-22 50-22 25 0 37 18 42 44h94c-15-106-73-150-135-150-32 0-55 11-76 23-18 10-34 21-53 21-21 0-37-13-43-43zM457 0H305l56 263c5 21 6 35 6 43 0 41-22 69-69 69s-77-37-88-87L148 0H-4l87 414c8 38 9 61 9 83h148c0-6 0-29-3-47 31 42 86 60 133 60 104 0 156-70 156-160 0-18-2-36-6-55z"/><glyph glyph-name="ograve" unicode="ò" horiz-adv-x="568" d="M251 556L143 707h166l59-151H251zm25-183c-73 0-120-72-120-148 0-64 39-101 91-101s120 46 120 149c0 66-37 99-91 100zm242-93c0-158-115-295-281-295C99-15 6 86 6 218c0 177 130 294 281 294 141 0 231-101 231-232z"/><glyph glyph-name="oacute" unicode="ó" horiz-adv-x="568" d="M535 707L361 556H232l122 151h181zM276 373c-73 0-120-72-120-148 0-64 39-101 91-101s120 46 120 149c0 66-37 99-91 100zm242-93c0-158-115-295-281-295C99-15 6 86 6 218c0 177 130 294 281 294 141 0 231-101 231-232z"/><glyph glyph-name="ocircumflex" unicode="ô" horiz-adv-x="568" d="M238 556H114l150 151h141l84-151H375l-53 71zm38-183c-73 0-120-72-120-148 0-64 39-101 91-101s120 46 120 149c0 66-37 99-91 100zm242-93c0-158-115-295-281-295C99-15 6 86 6 218c0 177 130 294 281 294 141 0 231-101 231-232z"/><glyph glyph-name="otilde" unicode="õ" horiz-adv-x="568" d="M276 373c-73 0-120-72-120-148 0-64 39-101 91-101s120 46 120 149c0 66-37 99-91 100zm242-93c0-158-115-295-281-295C99-15 6 86 6 218c0 177 130 294 281 294 141 0 231-101 231-232zM204 557h-94c12 110 76 150 140 150 34 0 56-11 75-23 17-12 33-22 50-22 25 0 37 18 42 44h94c-15-106-73-150-135-150-32 0-55 11-76 23-18 10-34 21-53 21-21 0-37-13-43-43z"/><glyph glyph-name="odieresis" unicode="ö" horiz-adv-x="568" d="M132 624c0 43 39 85 86 85 41 0 69-32 69-70 0-48-43-83-86-83-40 0-69 31-69 68zm218 0c0 43 39 85 85 85 41 0 70-32 70-70 0-48-43-83-86-83-41 0-69 31-69 68zm-74-251c-73 0-120-72-120-148 0-64 39-101 91-101s120 46 120 149c0 66-37 99-91 100zm242-93c0-158-115-295-281-295C99-15 6 86 6 218c0 177 130 294 281 294 141 0 231-101 231-232z"/><glyph glyph-name="divide" unicode="÷" horiz-adv-x="588" d="M199 486c0 46 38 84 85 84 46 0 84-38 84-84s-38-85-84-85c-47 0-85 39-85 85zm0-372c0 45 38 83 85 83 46 0 84-38 84-83 0-46-38-85-84-85-47 0-85 39-85 85zM35 237v124h505V237H35z"/><glyph glyph-name="oslash" unicode="ø" horiz-adv-x="568" d="M22-37l-58 58 75 71C17 128 6 171 6 218c0 177 130 294 281 294 57 0 106-17 144-46l74 71 56-58-76-73c21-36 33-79 33-126 0-158-115-295-281-295-57 0-106 17-144 46zm345 310c0 10 0 11-1 19L202 135c13-8 28-11 45-11 52 0 120 46 120 149zm-91 100c-73 0-120-72-120-148 0-7 0-14 1-20l164 157c-13 7-25 11-45 11z"/><glyph glyph-name="ugrave" unicode="ù" horiz-adv-x="578" d="M85 497h152l-60-281c-2-10-3-19-3-28 0-40 23-66 68-66 47 0 75 37 86 87l62 288h152L456 87c-4-18-9-47-9-87H300c-1 6-1 14-1 17 0 10 1 21 2 31-23-39-74-61-120-61C74-13 17 60 17 152c0 17 2 35 6 53zm186 59L163 707h166l59-151H271z"/><glyph glyph-name="uacute" unicode="ú" horiz-adv-x="578" d="M532 707L358 556H229l122 151h181zM85 497h152l-60-281c-2-10-3-19-3-28 0-40 23-66 68-66 47 0 75 37 86 87l62 288h152L456 87c-4-18-9-47-9-87H300c-1 6-1 14-1 17 0 10 1 21 2 31-23-39-74-61-120-61C74-13 17 60 17 152c0 17 2 35 6 53z"/><glyph glyph-name="ucircumflex" unicode="û" horiz-adv-x="578" d="M259 556H135l150 151h141l84-151H396l-53 71zM85 497h152l-60-281c-2-10-3-19-3-28 0-40 23-66 68-66 47 0 75 37 86 87l62 288h152L456 87c-4-18-9-47-9-87H300c-1 6-1 14-1 17 0 10 1 21 2 31-23-39-74-61-120-61C74-13 17 60 17 152c0 17 2 35 6 53z"/><glyph glyph-name="udieresis" unicode="ü" horiz-adv-x="578" d="M144 624c0 43 39 85 86 85 41 0 69-32 69-70 0-48-43-83-86-83-40 0-69 31-69 68zm218 0c0 43 39 85 85 85 41 0 70-32 70-70 0-48-43-83-86-83-41 0-69 31-69 68zM85 497h152l-60-281c-2-10-3-19-3-28 0-40 23-66 68-66 47 0 75 37 86 87l62 288h152L456 87c-4-18-9-47-9-87H300c-1 6-1 14-1 17 0 10 1 21 2 31-23-39-74-61-120-61C74-13 17 60 17 152c0 17 2 35 6 53z"/><glyph glyph-name="yacute" unicode="ý" horiz-adv-x="534" d="M125-190H-42L123 76 20 497h159l56-265 155 265h168zm383 897L334 556H205l122 151h181z"/><glyph glyph-name="thorn" unicode="þ" horiz-adv-x="614" d="M-44-190l194 914h153l-57-267c27 31 72 50 123 50 129 0 195-90 195-209-1-182-116-310-260-310-76 0-126 33-146 63l-50-241H-44zm362 565c-72 0-121-73-121-149 0-68 41-102 92-102 54 0 121 49 121 151 0 66-40 100-92 100z"/><glyph glyph-name="ydieresis" unicode="ÿ" horiz-adv-x="534" d="M114 624c0 43 39 85 86 85 41 0 69-32 69-70 0-48-43-83-86-83-40 0-69 31-69 68zm218 0c0 43 39 85 85 85 41 0 70-32 70-70 0-48-43-83-86-83-41 0-69 31-69 68zM125-190H-42L123 76 20 497h159l56-265 155 265h168z"/><glyph glyph-name="dotlessi" unicode="ı" horiz-adv-x="287" d="M144 0H-9L98 497h153z"/><glyph glyph-name="Lslash" unicode="Ł" horiz-adv-x="586" d="M487 0H29l58 277-104-43L9 357l104 43 66 309h158l-51-238 138 57-26-122-138-57-42-198h301z"/><glyph glyph-name="lslash" unicode="ł" horiz-adv-x="330" d="M158 0H6l59 277-90-37L1 363l90 37 69 324h152l-55-256 103 42-26-123-103-42z"/><glyph glyph-name="OE" unicode="Œ" horiz-adv-x="1070" d="M568 397c0 104-58 175-163 175-103 0-212-90-212-256 0-106 60-177 162-177 103 0 209 92 213 258zM939 0H490l11 50C456 9 399-15 332-15 153-15 31 120 31 307c0 261 185 417 382 417 100 0 172-38 208-103l19 88h449l-32-149H766l-29-135h264l-29-139H708l-29-136h292z"/><glyph glyph-name="oe" unicode="œ" horiz-adv-x="902" d="M594-15c-69 0-131 28-173 76-45-46-108-76-184-76C99-15 6 86 6 218c0 177 130 294 281 294 77 0 132-27 167-72 48 46 111 72 174 72 140 0 224-90 224-213 0-23-4-59-14-89H503c0-53 35-100 104-100 43 0 77 24 93 56l118-53C787 48 716-15 594-15zm-77 323h195c1 4 1 7 1 8 0 32-23 75-86 75-60 0-94-34-110-83zm-150-35c0 65-37 100-91 100-73 0-120-72-120-148 0-64 39-101 91-101s120 46 120 149z"/><glyph glyph-name="Scaron" unicode="Š" horiz-adv-x="586" d="M457 891h145L450 759H304l-95 132h132l43-65zM264 122c61 0 96 29 96 74 0 28-11 51-51 68l-83 34C130 337 86 408 86 493c0 140 121 230 258 230 195 0 245-134 245-207l-147-24c0 20-9 94-105 94-58 0-92-40-92-79 0-36 22-55 50-67l75-32c110-47 154-113 154-200 0-111-93-223-257-223C66-15-4 120-4 212c0 13 1 21 2 27l145 25c-1-5-2-14-2-23 0-59 36-117 123-119z"/><glyph glyph-name="scaron" unicode="š" horiz-adv-x="446" d="M347 707h126L326 556H184l-83 151h112l55-72zM-18 150l128 21c-1-5-1-8-1-9 0-42 26-66 65-66 36 0 53 19 53 41 0 15-5 31-34 43l-48 20C61 235 32 286 32 345c0 90 79 167 194 167 156 0 188-99 189-156l-130-15c0 26-8 63-60 63-29 0-51-18-51-43 0-17 11-30 27-36l62-25c84-34 113-88 113-149 0-81-69-166-197-166C13-15-18 97-18 144v6z"/><glyph glyph-name="Ydieresis" unicode="Ÿ" horiz-adv-x="634" d="M198 817c0 42 38 87 87 87 43 0 72-33 72-71 0-50-42-86-86-86s-73 30-73 70zm233 0c0 42 38 87 88 87 42 0 71-33 71-71 0-50-41-86-86-86-44 0-73 30-73 70zM227 296L73 709h167l90-262 182 262h190L385 295 323 0H164z"/><glyph glyph-name="Zcaron" unicode="Ž" horiz-adv-x="643" d="M487 891h145L480 759H334l-95 132h132l43-65zM522 0H-30L3 152l416 406H98l32 151h538l-30-146-427-412h343z"/><glyph glyph-name="zcaron" unicode="ž" horiz-adv-x="500" d="M376 707h126L355 556H213l-83 151h112l55-72zm6-707H-35l28 134 263 234H50l28 129h407l-27-125-274-242h226z"/><glyph glyph-name="florin" unicode="ƒ" horiz-adv-x="502" d="M88 30l69 341H65v126h118l16 81c23 114 116 163 199 163 50 0 65-5 96-16V595c-20 5-39 8-65 8-24 0-68-11-79-68l-8-38h110V371H316L238-13C214-128 124-176 40-176c-50 0-68 5-100 15v131c21-5 44-8 70-8 23 0 66 11 78 68z"/><glyph glyph-name="circumflex" unicode="ˆ" horiz-adv-x="387" d="M104 556H-20l150 151h141l84-151H241l-53 71z"/><glyph glyph-name="caron" unicode="ˇ" horiz-adv-x="387" d="M262 707h126L241 556H99L16 707h112l55-72z"/><glyph glyph-name="uni02C9" unicode="ˉ" horiz-adv-x="303" d="M275 577H-10l22 105h286z"/><glyph glyph-name="breve" unicode="˘" horiz-adv-x="409" d="M172 551c-98 0-147 63-147 132 0 10 1 17 2 24h96c-1-3-1-6-1-7 0-24 14-51 58-51 48 0 69 33 76 58h108c-19-82-81-156-192-156z"/><glyph glyph-name="dotaccent" unicode="˙" horiz-adv-x="177" d="M-9 625c0 49 43 96 98 96 46 0 79-35 79-77 0-56-45-98-96-98-48 0-81 35-81 79z"/><glyph glyph-name="ring" unicode="˚" horiz-adv-x="249" d="M126 764c59 0 108-39 108-100 0-73-63-122-127-122C48 542 1 584 1 643c0 72 62 121 125 121zM78 648c0-20 15-34 36-34 22 0 40 17 40 41 0 19-13 34-34 34-20 0-42-16-42-41z"/><glyph glyph-name="ogonek" unicode="˛" horiz-adv-x="193" d="M106-226c-62 0-118 38-118 104 0 90 81 135 132 152l71-30c-44-15-95-50-95-95 0-27 21-39 49-41 7 0 14 0 19 1l-18-87c-10-3-23-4-40-4z"/><glyph glyph-name="tilde" unicode="˜" horiz-adv-x="371" d="M192 557H98c12 110 76 150 140 150 34 0 56-11 75-23 17-12 33-22 50-22 25 0 37 18 42 44h94c-15-106-73-150-135-150-32 0-55 11-76 23-18 10-34 21-53 21-21 0-37-13-43-43z"/><glyph glyph-name="hungarumlaut" unicode="˝" horiz-adv-x="383" d="M210 707L76 556h-98l86 151h146zm179 0L239 556H139l102 151h148z"/><glyph glyph-name="uni0394" unicode="Δ" horiz-adv-x="673" d="M450 148L314 539 178 148h272zM-39 0l267 709h172L667 0H-39z"/><glyph glyph-name="uni03A9" unicode="Ω" horiz-adv-x="776" d="M384 575c-94 0-179-65-179-178 0-97 67-162 146-178V0H50v145h162C117 184 42 278 42 411c0 191 160 314 342 314s342-123 342-314c0-133-76-227-171-266h162V0H417v219c78 16 145 81 145 178 0 113-85 178-178 178z"/><glyph glyph-name="uni03BC" unicode="μ" horiz-adv-x="610" d="M47-190v687h153V215c0-48 26-86 80-86 51 0 82 35 82 85v283h153V89c0-38 3-69 5-89H374c-2 9-4 32-4 50-26-43-83-61-133-61-13 0-26 1-37 3v-182H47z"/><glyph glyph-name="pi" unicode="π" horiz-adv-x="659" d="M536 368V168c0-36 24-45 46-45 20 0 22 1 31 3V5c-1 0-28-14-75-14-102 0-154 60-154 156v221H268V0H115v368H32v129h579V368h-75z"/><glyph glyph-name="uni2007" horiz-adv-x="613"/><glyph glyph-name="uni2008" horiz-adv-x="290"/><glyph glyph-name="uni200B" unicode="​" horiz-adv-x="0"/><glyph glyph-name="endash" unicode="–" horiz-adv-x="624" d="M544 236H27l27 132h518z"/><glyph glyph-name="emdash" unicode="—" horiz-adv-x="1060" d="M970 236H37l27 132h934z"/><glyph glyph-name="quoteleft" unicode="‘" horiz-adv-x="209" d="M221 510c0-49-40-88-93-88-57 0-84 44-84 89 0 109 98 199 208 203l-15-66c-42-3-92-34-106-78 2 1 13 4 21 4 46 0 69-33 69-64z"/><glyph glyph-name="quoteright" unicode="’" horiz-adv-x="207" d="M74 625c0 49 40 89 92 89 57 0 85-44 85-89 0-109-99-200-208-204l14 67c38 2 93 32 106 77-2-1-11-4-21-4-45 0-68 33-68 64z"/><glyph glyph-name="quotesinglbase" unicode="‚" horiz-adv-x="221" d="M-37 61c0 49 40 89 92 89 57 0 85-44 85-89 0-109-99-200-209-205l15 68c38 1 93 32 106 77-2-1-11-4-21-4-45 0-68 33-68 64z"/><glyph glyph-name="quotedblleft" unicode="“" horiz-adv-x="415" d="M220 511c0-49-39-89-92-89-57 0-84 44-84 89 0 109 98 199 208 203l-15-66c-42-3-92-34-106-78 2 1 13 4 21 4 46 0 68-32 68-63zm207 0c0-49-39-89-92-89-57 0-84 44-84 89 0 109 98 199 208 203l-15-66c-42-3-92-34-106-78 2 1 13 4 21 4 46 0 68-32 68-63z"/><glyph glyph-name="quotedblright" unicode="”" horiz-adv-x="416" d="M74 625c0 49 39 89 92 89 57 0 84-44 84-89 0-108-98-199-207-203l14 67c37 1 93 32 106 76-1 0-10-3-21-3-46 0-68 32-68 63zm210 0c0 49 39 89 92 89 57 0 84-44 84-89 0-108-98-199-208-203l15 67c37 1 93 32 106 76-1 0-10-3-21-3-46 0-68 32-68 63z"/><glyph glyph-name="quotedblbase" unicode="„" horiz-adv-x="429" d="M-37 61c0 49 39 89 92 89 57 0 84-44 84-90 0-108-98-199-208-203l15 67c37 2 93 32 106 77-1 0-10-4-21-4-46 0-68 33-68 64zm208 0c0 49 39 89 92 89 57 0 84-44 84-90 0-108-98-199-208-203l15 67c37 2 93 32 106 77-1 0-10-4-21-4-46 0-68 33-68 64z"/><glyph glyph-name="dagger" unicode="†" horiz-adv-x="425" d="M222 709h126l-30-139h120l-24-114H293l-62-293H105l62 293H47l24 114h120z"/><glyph glyph-name="daggerdbl" unicode="‡" horiz-adv-x="440" d="M202 0H76l30 141H-14l24 114h121l42 199H52l24 114h121l30 141h126l-30-141h121l-24-114H299l-42-199h120l-24-114H232z"/><glyph glyph-name="bullet" unicode="•" horiz-adv-x="536" d="M47 303c0 116 93 210 208 210s209-94 209-210c0-113-94-208-209-208S47 190 47 303z"/><glyph glyph-name="ellipsis" unicode="…" horiz-adv-x="868" d="M73-14C25-14-8 23-8 66c0 52 45 98 101 98 49 0 81-37 81-80 0-53-45-98-101-98zm299 0c-48 0-80 37-80 80 0 52 44 98 100 98 49 0 81-37 81-80 0-53-45-98-101-98zm301 0c-49 0-81 37-81 80 0 52 44 98 100 98 49 0 81-37 81-80 0-53-44-98-100-98z"/><glyph glyph-name="perthousand" unicode="‰" horiz-adv-x="1028" d="M191 430c32 0 67 26 67 75 0 31-19 55-51 55-33 0-67-27-67-75 0-32 19-54 51-55zm-8-101c-88 0-150 66-150 150 0 108 89 182 182 182 87 0 150-67 150-150 0-109-91-182-182-182zM597 92c32 0 67 26 67 75 0 31-19 55-51 55-33 0-67-27-67-75 0-32 19-54 51-55zm224 0c32 0 67 26 67 75 0 31-19 55-51 55-33 0-67-27-67-75 0-32 19-54 51-55zm-60 557L174 0H40l587 649h134zM813-9c-44 0-81 16-108 43C672 6 631-9 589-9c-88 0-150 66-150 150 0 108 89 182 182 182 43 0 80-17 106-43 33 27 75 43 118 43 87 0 150-67 150-150C995 64 904-9 813-9z"/><glyph glyph-name="guilsinglleft" unicode="‹" horiz-adv-x="309" d="M237 102H102L2 301l179 196h147L139 293z"/><glyph glyph-name="guilsinglright" unicode="›" horiz-adv-x="300" d="M43 497h133l102-199L99 102H-49l189 204z"/><glyph glyph-name="uni2042" unicode="⁂" horiz-adv-x="812" d="M519 708l-21-106 103 32 15-98-104-30 47-81-88-56-49 86-80-89-71 59 81 88-93 30 44 92 92-31 18 104h106zM251 327l-21-106 103 32 15-98-104-30 47-81-88-56-49 86-80-89L3 44l81 88-93 30 44 92 92-31 18 104h106zm409 0l-21-106 103 32 15-98-104-30 47-81-88-56-49 86-80-89-71 59 81 88-93 30 44 92 92-31 18 104h106z"/><glyph glyph-name="fraction" unicode="⁄" horiz-adv-x="534" d="M627 649L40 0H-94l587 649h134z"/><glyph glyph-name="uni2051" unicode="⁑" horiz-adv-x="422" d="M336 708l-21-106 103 32 15-98-104-30 47-81-88-56-49 86-80-89-71 59 81 88-93 30 44 92 92-31 18 104h106zm-82-377l-21-106 103 32 15-98-104-30 47-81-88-56-49 86-80-89L6 48l81 88-93 30 44 92 92-31 18 104h106z"/><glyph glyph-name="uni2070" unicode="⁰" horiz-adv-x="422" d="M47 482c0 98 53 236 193 236 113 0 160-69 160-149 0-101-53-237-193-237-105 0-160 63-160 150zm115 2c0-33 9-58 47-58 56 0 77 90 77 142 0 31-11 56-49 56-55 0-75-91-75-140z"/><glyph glyph-name="uni2074" unicode="⁴" horiz-adv-x="444" d="M51 411l24 114 201 184h121l-44-212h60l-19-86h-59l-15-71H207l15 71H51zm189 86l21 97-106-97h85z"/><glyph glyph-name="uni2075" unicode="⁵" horiz-adv-x="393" d="M47 463l100 10c0-29 20-46 47-46 25 0 48 18 48 49 0 24-19 39-41 39-21 0-34-9-43-18l-87 40 78 172h227l-19-90H205l-21-47c12 9 37 14 56 14 72 0 112-43 112-106 0-80-64-146-159-146-94 0-146 58-146 129z"/><glyph glyph-name="uni2076" unicode="⁶" horiz-adv-x="392" d="M397 689l-37-84c-17 8-41 18-79 18-44 0-91-21-109-60 17 12 44 20 69 20 74 0 115-45 115-106 0-87-70-147-160-147-87 0-148 63-148 155 0 145 114 229 235 229 49 0 82-8 114-25zM208 506c-24 0-48-17-48-46 0-23 16-39 38-39 27 0 49 18 49 48 0 21-16 37-39 37z"/><glyph glyph-name="uni2077" unicode="⁷" horiz-adv-x="357" d="M395 709l-19-92c-42-30-146-113-195-277H61c47 173 181 275 183 276H65l19 93h311z"/><glyph glyph-name="uni2078" unicode="⁸" horiz-adv-x="401" d="M202 595c0-16 14-30 34-30 26 0 41 17 41 35 0 14-8 30-35 30s-40-20-40-35zm-38-144c0-22 20-35 43-35 32 0 49 21 49 41 0 15-9 34-44 34-32 0-48-23-48-40zm46-120c-108 0-159 45-159 105 0 51 43 88 95 97-29 12-48 44-48 75 0 60 60 109 146 109 100 0 145-45 145-103 0-42-35-76-82-89 32-10 58-43 58-78 0-68-65-116-155-116z"/><glyph glyph-name="uni2079" unicode="⁹" horiz-adv-x="412" d="M42 357l36 83c18-10 44-18 81-18 40 0 92 20 108 64-17-13-44-22-69-22-73 0-115 46-115 105 0 87 70 146 160 146 87 0 148-62 148-153 0-147-112-231-234-231-49 0-83 9-115 26zm189 182c24 0 47 18 47 47 0 22-16 40-38 40-27 0-48-20-48-50 0-20 16-37 39-37z"/><glyph glyph-name="uni2080" unicode="₀" horiz-adv-x="422" d="M12 67c0 98 53 236 193 236 113 0 160-69 160-149 0-101-53-237-193-237C67-83 12-20 12 67zm115 2c0-33 9-58 47-58 56 0 77 90 77 142 0 31-11 56-49 56-55 0-75-91-75-140z"/><glyph glyph-name="uni2081" unicode="₁" horiz-adv-x="312" d="M154-120H39L85 97H-8l15 73c66 2 111 43 125 78h100z"/><glyph glyph-name="uni2082" unicode="₂" horiz-adv-x="385" d="M99 61l66 28c27 11 42 25 42 45 0 14-9 34-36 34-33 0-48-24-48-56l-99 8c0 74 59 138 152 138 96 0 144-52 144-114 0-61-41-103-111-132l-76-32c-3-1-5-4-6-5h151l-21-95H-27C-27-37 18 26 99 61z"/><glyph glyph-name="uni2083" unicode="₃" horiz-adv-x="430" d="M137 40l-27 70 105 49H48l19 91h291l-22-105-96-46c45-10 76-44 76-92 0-72-65-134-163-134S2-65 2-2C2 2 3 8 3 12l104 6c-1-4-1-7-1-8 0-26 18-45 49-45 30 0 48 19 48 43s-20 36-43 36c-11 0-20-3-23-4z"/><glyph glyph-name="uni2084" unicode="₄" horiz-adv-x="435" d="M-26-49L-2 65l201 184h121L276 37h60l-19-86h-59l-15-71H130l15 71H-26zm189 86l21 97L78 37h85z"/><glyph glyph-name="uni2085" unicode="₅" horiz-adv-x="393" d="M-26 3L74 13c0-29 20-46 47-46 25 0 48 18 48 49 0 24-19 39-41 39-21 0-34-9-43-18L-2 77l78 172h227l-19-90H132l-21-47c12 9 37 14 56 14 72 0 112-43 112-106 0-80-64-146-159-146C26-126-26-68-26 3z"/><glyph glyph-name="uni2086" unicode="₆" horiz-adv-x="392" d="M323 231l-37-84c-17 8-41 18-79 18-44 0-91-21-109-60 17 12 44 20 69 20 74 0 115-45 115-106 0-87-70-147-160-147C35-128-26-65-26 27c0 145 114 229 235 229 49 0 82-8 114-25zM134 48c-24 0-48-17-48-46 0-23 16-39 38-39 27 0 49 18 49 48 0 21-16 37-39 37z"/><glyph glyph-name="uni2087" unicode="₇" horiz-adv-x="357" d="M327 248l-19-92c-42-30-146-113-195-277H-7C40 52 174 154 176 155H-3l19 93h311z"/><glyph glyph-name="uni2088" unicode="₈" horiz-adv-x="401" d="M134 135c0-16 14-30 34-30 26 0 41 17 41 35 0 14-8 30-35 30s-40-20-40-35zM96-9c0-22 20-35 43-35 32 0 49 21 49 41 0 15-9 34-44 34-32 0-48-23-48-40zm46-120C34-129-17-84-17-24c0 51 43 88 95 97-29 12-48 44-48 75 0 60 60 109 146 109 100 0 145-45 145-103 0-42-35-76-82-89 32-10 58-43 58-78 0-68-65-116-155-116z"/><glyph glyph-name="uni2089" unicode="₉" horiz-adv-x="412" d="M-16-101l36 83c18-10 44-18 81-18 40 0 92 20 108 64-17-13-44-22-69-22C67 6 25 52 25 111c0 87 70 146 160 146 87 0 148-62 148-153 0-147-112-231-234-231-49 0-83 9-115 26zM173 81c24 0 47 18 47 47 0 22-16 40-38 40-27 0-48-20-48-50 0-20 16-37 39-37z"/><glyph glyph-name="Euro" unicode="€" horiz-adv-x="665" d="M48 351l22 97h78c61 137 196 216 338 216 96 0 155-29 197-65l-79-111c-27 25-76 42-130 42s-119-24-162-82h268l-63-97H272c-3-18-5-37-5-58h215l-61-98H289c30-52 85-75 151-75 39 0 73 11 101 27l44-117C541 4 482-15 418-15c-151 0-259 84-292 210H15l22 98h78c1 20 2 39 5 58H48z"/><glyph glyph-name="uni2113" unicode="ℓ" horiz-adv-x="493" d="M102 142c0 8 3 29 4 39-24-4-49-7-74-9l27 131c22 2 47 6 73 13l42 197c22 103 93 156 174 156 94 0 144-56 144-138 0-110-96-233-243-303l-5-24c-2-8-2-15-2-21 0-62 54-65 75-65 37 0 57 7 74 15L364 9c-12-7-40-19-86-19-111 0-176 60-176 152zm207 365l-25-116c39 31 74 80 74 128 0 15-9 22-20 22s-23-6-29-34z"/><glyph glyph-name="trademark" unicode="™" horiz-adv-x="877" d="M355 618h-97l-57-274H99l57 274H56l19 91h299zm430-274H685l46 220-126-220h-71l-44 222-46-222h-99l77 365h137l39-194 114 194h150z"/><glyph glyph-name="Omega" unicode="Ω" horiz-adv-x="776" d="M384 575c-94 0-179-65-179-178 0-97 67-162 146-178V0H50v145h162C117 184 42 278 42 411c0 191 160 314 342 314s342-123 342-314c0-133-76-227-171-266h162V0H417v219c78 16 145 81 145 178 0 113-85 178-178 178z"/><glyph glyph-name="uni2160" unicode="Ⅰ" horiz-adv-x="480" d="M98 649h410l-27-131H354l-82-387h126L371 0H-39l27 131h127l82 387H71z"/><glyph glyph-name="uni2161" unicode="Ⅱ" horiz-adv-x="780" d="M98 649h710l-27-131H646l-82-387h134L671 0H-39l27 131h135l82 387H71zm264-131l-82-387h127l82 387H362z"/><glyph glyph-name="uni2162" unicode="Ⅲ" horiz-adv-x="1054" d="M682 131l81 387H641l-81-387h122zm-279 0l81 387H362l-81-387h122zM-39 0l27 131h136l81 387H71l27 131h984l-27-131H920l-81-387h133L945 0H-39z"/><glyph glyph-name="uni2163" unicode="Ⅳ" horiz-adv-x="1053" d="M71 518l27 131h994l-27-131H960L758 131h224L955 0H-39l27 131h132l82 387H71zm289 0l-82-387h200l-42 387h-76zm233 0l29-339 171 339H593z"/><glyph glyph-name="uni2164" unicode="Ⅴ" horiz-adv-x="785" d="M-13 131h223l-42 387H69l27 131h727l-27-131H693L491 131h222L686 0H-40zm338 387l29-339 171 339H325z"/><glyph glyph-name="uni2165" unicode="Ⅵ" horiz-adv-x="1058" d="M70 518l27 131h989l-27-131H926l-82-387h132L949 0H-40l27 131h224l-42 387H70zm624 0L492 131h194l82 387h-74zm-368 0l29-339 171 339H326z"/><glyph glyph-name="uni2166" unicode="Ⅶ" horiz-adv-x="1333" d="M355 179l172 339H326zm332-48l81 387h-74L492 131h195zm275 0l81 387H925l-81-387h118zM1225 0H-40l27 131h224l-42 387H70l27 131h1264l-27-131h-134l-81-387h133z"/><glyph glyph-name="uni2167" unicode="Ⅷ" horiz-adv-x="1605" d="M71 518l27 131h1535l-27-131h-133l-82-387h133L1497 0H-39l27 131h224l-42 387H71zm623 0L492 131h195l82 387h-75zm505 0l-82-387h117l82 387h-117zm-273 0l-82-387h116l82 387H926zm-599 0l29-339 171 339H327z"/><glyph glyph-name="uni2168" unicode="Ⅸ" horiz-adv-x="1028" d="M71 518l27 131h968l-27-131H936L749 321l103-190h104L929 0H-39l27 131h132l82 387H71zm471-196L438 518h-78l-82-387h79zm76 196l44-89 82 89H618zm11-302l-80-85h123z"/><glyph glyph-name="uni2169" unicode="Ⅹ" horiz-adv-x="762" d="M276 322L172 518H70l27 131h703l-27-131H670L483 321l103-190h104L663 0H-40l27 131H92zm76 196l45-89 82 89H352zm11-302l-80-85h123z"/><glyph glyph-name="uni216C" unicode="Ⅼ" horiz-adv-x="646" d="M98 649h389l-27-131H338l-82-387h160l35 166h149L537 0H-39l27 131H99l82 387H71z"/><glyph glyph-name="uni216D" unicode="Ⅽ" horiz-adv-x="730" d="M587 649h152l-54-263H532c-2 43-24 139-152 139-87 0-198-70-198-236 0-103 66-165 161-165 96 0 145 66 161 107l1 5h154L609 0H456l11 52c-35-38-87-68-162-68C151-16 32 105 32 278c0 235 165 386 351 386 107 0 162-38 189-85z"/><glyph glyph-name="uni216E" unicode="Ⅾ" horiz-adv-x="750" d="M-39 0l27 131h119l81 387H72l26 131h314c184 0 286-100 286-261C698 146 536 0 322 0H-39zm385 518l-82-387h51c110 0 223 80 223 241 0 97-60 146-150 146h-42z"/><glyph glyph-name="uni216F" unicode="Ⅿ" horiz-adv-x="1026" d="M319 131L292 0H-39l27 131H99l81 387H71l27 131h316l73-391 224 391h344l-27-131H918l-81-387h108L918 0H576l27 131h75l62 290L494 9H384l-74 402-58-280h67z"/><glyph glyph-name="arrowleft" unicode="←" horiz-adv-x="1080" d="M271 57L-14 301l285 246V367h753V236H271V57z"/><glyph glyph-name="arrowup" unicode="↑" horiz-adv-x="504" d="M273 800l243-277H339v-669H208v669H27z"/><glyph glyph-name="arrowright" unicode="→" horiz-adv-x="1114" d="M1084 301L770 54v182H21v131h749v182z"/><glyph glyph-name="arrowdown" unicode="↓" horiz-adv-x="492" d="M479 131L234-148-14 131h183v668h131V131h179z"/><glyph glyph-name="uni2196" unicode="↖" horiz-adv-x="877" d="M69 708h352L291 577 790 79l-92-92-499 498L69 354v354z"/><glyph glyph-name="uni2197" unicode="↗" horiz-adv-x="749" d="M310 708h352V354L532 485 33-13l-93 92 499 499z"/><glyph glyph-name="uni2198" unicode="↘" horiz-adv-x="850" d="M763 1H411l129 130L42 630l92 92 499-498 130 131V1z"/><glyph glyph-name="uni2199" unicode="↙" horiz-adv-x="740" d="M384 1H32v354l130-131 499 498 92-92-499-498z"/><glyph glyph-name="uni21A9" unicode="↩" horiz-adv-x="874" d="M252 24L-32 268l284 246V332h359c72 0 115 43 115 92 0 53-43 91-115 91H407v131h210c146 0 246-95 246-222 0-129-97-224-246-224H252V24z"/><glyph glyph-name="uni21B0" unicode="↰" horiz-adv-x="819" d="M316 235L32 480l284 245V545h427V0H612v414H316V235z"/><glyph glyph-name="uni21B1" unicode="↱" horiz-adv-x="764" d="M166 0H35v545h432v180l284-245-284-245v179H166V0z"/><glyph glyph-name="uni21B2" unicode="↲" horiz-adv-x="777" d="M570 709h131V164H270V-16L-15 230l285 244V295h300v414z"/><glyph glyph-name="uni21B3" unicode="↳" horiz-adv-x="857" d="M499 474l284-244L499-16v180H67v545h131V295h301v179z"/><glyph glyph-name="uni21B4" unicode="↴" horiz-adv-x="792" d="M64 578v131h558V260h180L560-15 314 260h177v318H64z"/><glyph glyph-name="uni21C6" unicode="⇆" horiz-adv-x="1197" d="M1142 158L858-86V93H101v131h757v180zM353 320L69 564l284 246V627h756V496H353V320z"/><glyph glyph-name="partialdiff" unicode="∂" horiz-adv-x="667" d="M281 580c-28 0-82-3-148-35L79 668c76 41 152 52 210 52 130 0 327-61 327-372 0-199-91-364-297-364C184-16 58 68 58 232c0 150 129 230 242 230 99 0 138-34 156-55-12 131-87 173-175 173zm56-245c-85 0-125-48-125-109 0-64 58-102 112-102 97 0 130 83 136 163-28 28-66 48-123 48z"/><glyph glyph-name="Delta" unicode="∆" horiz-adv-x="673" d="M450 148L314 539 178 148h272zM-39 0l267 709h172L667 0H-39z"/><glyph glyph-name="product" unicode="∏" horiz-adv-x="685" d="M606 0H447v563H232V0H74v709h532V0z"/><glyph glyph-name="summation" unicode="∑" horiz-adv-x="566" d="M27 0v145l246 208L27 565v144h523V562H244l243-209-252-206h315V0H27z"/><glyph glyph-name="minus" unicode="−" horiz-adv-x="584" d="M36 237v124h501V237H36z"/><glyph glyph-name="uni2215" unicode="∕" horiz-adv-x="431" d="M385 662h140L49-14H-89z"/><glyph glyph-name="uni2219" unicode="∙" horiz-adv-x="289" d="M42 313c0 52 44 100 102 100 49 0 84-37 84-80 0-60-47-104-102-104-50 0-84 38-84 84z"/><glyph glyph-name="radical" unicode="√" horiz-adv-x="687" d="M747 762H609L356 0H224L34 542h140l117-346 225 689h231V762z"/><glyph glyph-name="infinity" unicode="∞" horiz-adv-x="838" d="M32 290c0 111 84 195 201 195 66 0 128-34 183-95 56 58 116 95 180 95 116 0 201-84 201-195S712 96 596 96c-69 0-125 31-183 93-57-61-114-93-180-93-117 0-201 83-201 194zm203 63c-40 0-66-28-66-64s26-63 66-63c33 0 66 25 96 61-32 38-62 66-96 66zm359-127c39 0 66 27 66 63s-27 64-66 64c-34 0-65-27-97-64 31-36 63-63 97-63z"/><glyph glyph-name="integral" unicode="∫" horiz-adv-x="343" d="M78-9v520c0 122 75 199 197 199h59V577h-54c-29 0-50-21-50-58V-1c0-122-75-199-197-199h-60v133h54c29 0 51 21 51 58z"/><glyph glyph-name="approxequal" unicode="≈" horiz-adv-x="669" d="M522 479l80-65c-37-70-100-109-171-109-36 0-74 10-111 31l-48 26c-16 9-33 13-49 13-32 0-62-17-85-49l-82 65c37 70 101 109 172 109 35 0 72-9 109-29l48-26c17-10 35-14 53-14 32 0 62 16 84 48zm0-204l80-66c-37-70-100-109-171-109-36 0-74 10-111 31l-48 26c-17 9-34 13-50 13-32 0-62-16-84-48l-82 65c37 70 100 108 171 108 36 0 73-9 110-29l48-26c17-9 35-14 52-14 32 0 63 16 85 49z"/><glyph glyph-name="notequal" unicode="≠" horiz-adv-x="619" d="M56 339v122h287l54 88h132l-54-88h76V339H400l-48-79h199V138H277l-59-96H86l59 96H56v122h164l48 79H56z"/><glyph glyph-name="lessequal" unicode="≤" horiz-adv-x="581" d="M65 40v124h439V40H65zm0 282v120l439 130V449l-266-65 266-66V192z"/><glyph glyph-name="greaterequal" unicode="≥" horiz-adv-x="581" d="M504 164V40H65v124h439zm0 278V322L65 192v123l266 65-266 67v125z"/><glyph glyph-name="dotmath" unicode="⋅" horiz-adv-x="289" d="M42 313c0 52 44 100 102 100 49 0 84-37 84-80 0-60-47-104-102-104-50 0-84 38-84 84z"/><glyph glyph-name="uni24C5" unicode="Ⓟ" horiz-adv-x="804" d="M27 354c0 204 165 371 370 371 204 0 370-167 370-371S601-16 397-16C192-16 27 150 27 354zm88 0c0-161 123-288 282-288 158 0 281 127 281 288S555 643 397 643c-159 0-282-128-282-289zm275 18h38c34 0 64 23 64 59 0 24-16 38-44 38h-37zm50-84h-68l-28-134H240l85 399h152c71 0 119-52 119-115 0-81-65-150-156-150z"/><glyph glyph-name="filledbox" unicode="■" horiz-adv-x="888" d="M90 0v709h709V0H90z"/><glyph glyph-name="H22073" unicode="□" horiz-adv-x="888" d="M799 0H90v709h709V0zM220 579V129h444v450H220z"/><glyph glyph-name="triagup" unicode="▲" horiz-adv-x="813" d="M347 725L765 0H-74z"/><glyph glyph-name="uni25B3" unicode="△" horiz-adv-x="812" d="M-74 0l420 725L764 0H-74zm420 463L153 130h384z"/><glyph glyph-name="lozenge" unicode="◊" horiz-adv-x="639" d="M319 142l123 212-123 213-123-213zM407 0H232L22 354l210 355h175l210-355z"/><glyph glyph-name="circle" unicode="○" horiz-adv-x="806" d="M773 354c0-205-165-370-370-370S32 149 32 354s166 371 371 371 370-166 370-371zm-132 0c0 132-107 242-238 242-132 0-240-110-240-242s108-241 240-241c131 0 238 109 238 241z"/><glyph glyph-name="H18533" unicode="●" horiz-adv-x="806" d="M32 354c0 205 165 371 370 371s371-166 371-371S607-16 402-16 32 149 32 354z"/><glyph glyph-name="uni262E" unicode="☮" horiz-adv-x="804" d="M771 354c0-205-165-370-370-370C197-16 31 149 31 354s166 371 370 371c205 0 370-166 370-371zm-130 0c0 112-77 209-179 237V420l170-131c6 21 9 43 9 65zm-482 0c0-22 2-43 8-63l168 129v170c-101-30-176-125-176-236zm303-237c40 11 77 33 106 62l-106 86V117zm-232 64c29-29 65-52 105-63v146z"/><glyph glyph-name="uni2713" unicode="✓" horiz-adv-x="877" d="M913 633L307-16 9 313l95 89 207-226 510 549z"/><glyph glyph-name="uni2715" unicode="✕" horiz-adv-x="793" d="M125-5L35 86l268 269L35 621l91 90 268-265 264 265 91-90-264-265L758 86 668-5 394 265z"/><glyph glyph-name="uni2780" unicode="➀" horiz-adv-x="804" d="M31 354c0 204 166 371 370 371s371-167 371-371S605-16 401-16 31 150 31 354zm89 0c0-161 122-288 281-288s282 127 282 288-123 289-282 289-281-128-281-289zm358-182H363v212h-94v73c70 1 101 48 108 83h101V172z"/><glyph glyph-name="uni2781" unicode="➁" horiz-adv-x="804" d="M401 725c204 0 371-167 371-371S605-16 401-16 31 150 31 354s166 371 370 371zM120 354c0-161 122-288 281-288s282 127 282 288-123 289-282 289-281-128-281-289zm219 5l60 34c23 13 35 28 35 45 0 13-9 34-38 34-31 0-46-21-46-46 0-6 1-13 3-19H253c-2 9-4 15-4 27 0 68 50 128 150 128 94 0 148-57 148-125 0-48-31-83-84-114l-69-40c-2-1-3-3-3-4h159v-95H247v13c0 68 23 123 92 162z"/><glyph glyph-name="uni2782" unicode="➂" horiz-adv-x="804" d="M31 354c0 204 166 371 370 371s371-167 371-371S605-16 401-16 31 150 31 354zm89 0c0-161 122-288 281-288s282 127 282 288-123 289-282 289-281-128-281-289zm124-76l103 18c1-25 21-47 52-47 29 0 47 17 47 38 0 28-22 40-46 40-10 0-20-2-29-6l-35 74 80 47H258v92h290v-92l-85-52c61-9 98-45 98-105 0-69-60-128-162-128-93 0-150 59-155 121z"/><glyph glyph-name="uni2783" unicode="➃" horiz-adv-x="804" d="M31 354c0 204 166 371 370 371s371-167 371-371S605-16 401-16 31 150 31 354zm89 0c0-161 122-288 281-288s282 127 282 288-123 289-282 289-281-128-281-289zm100-106v104l165 195h121V334h59v-86h-59v-70H393v70H220zm173 86v89l-76-89h76z"/><glyph glyph-name="uni2784" unicode="➄" horiz-adv-x="804" d="M31 354c0 204 166 371 370 371s371-167 371-371S605-16 401-16 31 150 31 354zm89 0c0-161 122-288 281-288s282 127 282 288-123 289-282 289-281-128-281-289zm119-77l100 18c2-28 26-45 55-45 27 0 46 14 46 40 0 32-21 46-50 46-19 0-36-9-47-20l-92 26 44 189h231v-90H361l-12-52c17 13 45 20 71 20 80 0 130-44 130-119 0-73-55-133-156-133-86 0-148 53-155 120z"/><glyph glyph-name="uni2785" unicode="➅" horiz-adv-x="804" d="M31 354c0 204 166 371 370 371s371-167 371-371S605-16 401-16 31 150 31 354zm89 0c0-161 122-288 281-288s282 127 282 288-123 289-282 289-281-128-281-289zm419 179l-19-87c-17 6-41 11-66 11-46 0-97-17-114-71 20 18 50 28 82 28 71 0 130-39 130-116 0-79-66-136-162-136-92 0-164 67-164 171 0 135 98 215 222 215 30 0 60-5 91-15zM344 294c0-24 21-42 47-42 25 0 46 18 46 42 0 26-21 43-46 43-26 0-47-17-47-43z"/><glyph glyph-name="uni2786" unicode="➆" horiz-adv-x="804" d="M31 354c0 204 166 371 370 371s371-167 371-371S605-16 401-16 31 150 31 354zm89 0c0-161 122-288 281-288s282 127 282 288-123 289-282 289-281-128-281-289zm434 175v-92c-34-28-121-111-136-276H298c11 174 124 275 124 275H242v93h312z"/><glyph glyph-name="uni2787" unicode="➇" horiz-adv-x="804" d="M31 354c0 204 166 371 370 371s371-167 371-371S605-16 401-16 31 150 31 354zm89 0c0-161 122-288 281-288s282 127 282 288-123 289-282 289-281-128-281-289zm282 41c27 1 40 19 40 35 0 13-12 31-40 31s-40-18-40-31c0-16 13-34 40-35zm0-144c36 0 49 21 49 39 0 16-14 36-49 36s-49-20-49-36c0-18 13-39 49-39zm0-87c-101 0-161 45-161 111 0 42 33 76 76 88-42 12-65 47-65 82 0 59 52 105 150 105 99 0 150-46 150-105 0-35-22-70-65-82 41-11 76-44 76-84 0-69-57-115-161-115z"/><glyph glyph-name="uni2788" unicode="➈" horiz-adv-x="804" d="M31 354c0 204 166 371 370 371s371-167 371-371S605-16 401-16 31 150 31 354zm89 0c0-161 122-288 281-288s282 127 282 288-123 289-282 289-281-128-281-289zm147-176l16 87c18-6 41-11 67-11 48 0 99 18 114 73-21-19-52-28-85-28-65 0-132 40-132 116 0 79 62 135 162 135 92 0 163-67 163-169 0-139-91-218-213-218-29 0-61 4-92 15zm185 241c0 24-20 42-46 42s-47-18-47-42c0-26 21-44 47-44s46 18 46 44z"/><glyph glyph-name="uniE000" unicode="" horiz-adv-x="711" d="M223-15L-19 260h180v449h558V578H292V260h176z"/><glyph glyph-name="uni21B5" unicode="" horiz-adv-x="1125" d="M265 83L32 354h164c0 205 166 371 371 371 60 0 119-14 169-41l-60-116c-33 18-70 27-109 27-132 0-240-109-240-241h170zm667 271c0-205-165-370-370-370-60 0-118 15-169 41l60 115c33-17 70-27 109-27 131 0 237 109 237 241H630l232 271 233-271H932z"/><glyph glyph-name="uniE002" unicode="" horiz-adv-x="960" d="M478 354l232 271 233-271H782c0-205-165-370-370-370S41 149 41 354s166 371 371 371c51 0 100-10 145-29l-51-121c-28 13-60 20-94 20-132 0-240-109-240-241s108-241 240-241c131 0 237 109 237 241H478z"/><glyph glyph-name="uniFB00" unicode="ﬀ" horiz-adv-x="711" d="M175 0H22l79 369H17l27 128h84l13 62c27 124 105 174 206 174 30 0 69-8 89-19l-26-124c0-1-13 9-45 9-33 0-67-15-76-55l-10-47h182l13 62c27 124 105 174 205 174 31 0 70-8 90-19l-26-124c0-1-13 9-45 9-34 0-67-15-76-55l-10-47h103l-28-128H585L508 0H355l78 369H252z"/><glyph glyph-name="fi" unicode="ﬁ" horiz-adv-x="646" d="M252 369L175 0H22l79 369H17l27 128h84l16 71c26 115 102 165 203 165 30 0 69-8 89-19l-26-124c0-1-15 9-47 9-40 0-65-21-75-63l-9-39h330L503 0H351l78 369H252zm223 273c0 54 43 96 98 96 47 0 79-33 79-77 0-58-47-96-98-96-46 0-79 33-79 77z"/><glyph glyph-name="fl" unicode="ﬂ" horiz-adv-x="645" d="M252 369L175 0H22l79 369H17l27 128h84l16 71c26 115 102 165 203 165 30 0 69-8 89-19l-26-124c0-1-15 9-47 9-41 0-66-24-75-64l-9-38h176l49 227h152L502 0H350l78 369H252z"/><glyph glyph-name="uniFB03" unicode="ﬃ" horiz-adv-x="976" d="M805 642c0 54 42 96 97 96 48 0 80-33 80-77 0-58-47-96-98-96-46 0-79 33-79 77zM175 0H22l79 369H17l27 128h84l13 62c27 124 105 174 206 174 30 0 69-8 89-19l-26-124c0-1-13 9-45 9-33 0-67-15-76-55l-10-47h182l13 62c27 124 105 174 205 174 31 0 70-8 90-19l-26-124c0-1-13 9-45 9-34 0-67-15-76-55l-10-47h326L833 0H681l79 369H585L508 0H355l78 369H252z"/><glyph glyph-name="uniFB04" unicode="ﬄ" horiz-adv-x="983" d="M175 0H22l79 369H17l27 128h84l13 62c27 124 105 174 206 174 30 0 69-8 89-19l-26-124c0-1-13 9-45 9-33 0-67-15-76-55l-10-47h182l13 62c27 124 105 174 205 174 31 0 70-8 90-19l-26-124c0-1-13 9-45 9-34 0-67-15-76-55l-10-47h182l47 227h153L840 0H688l78 369H585L508 0H355l78 369H252z"/><glyph glyph-name="uniFEFF" horiz-adv-x="0"/><glyph glyph-name="zero.numr" horiz-adv-x="422" d="M42 422c0 98 53 236 193 236 113 0 160-69 160-149 0-101-53-237-193-237-105 0-160 63-160 150zm115 2c0-33 9-58 47-58 56 0 77 90 77 142 0 31-11 56-49 56-55 0-75-91-75-140z"/><glyph glyph-name="one.numr" horiz-adv-x="312" d="M202 281H87l46 217H40l15 73c66 2 111 43 125 78h100z"/><glyph glyph-name="two.numr" horiz-adv-x="392" d="M158 461l66 28c27 11 42 25 42 45 0 14-9 34-36 34-33 0-48-24-48-56l-99 8c0 74 59 138 152 138 96 0 144-52 144-114 0-61-41-103-111-132l-76-32c-3-1-5-4-6-5h151l-21-95H32c0 83 45 146 126 181z"/><glyph glyph-name="three.numr" horiz-adv-x="430" d="M187 439l-27 70 105 49H98l19 91h291l-22-105-96-46c45-10 76-44 76-92 0-72-65-134-163-134S52 334 52 397c0 4 1 10 1 14l104 6c-1-4-1-7-1-8 0-26 18-45 49-45 30 0 48 19 48 43s-20 36-43 36c-11 0-20-3-23-4z"/><glyph glyph-name="four.numr" horiz-adv-x="435" d="M42 351l24 114 201 184h121l-44-212h60l-19-86h-59l-15-71H198l15 71H42zm189 86l21 97-106-97h85z"/><glyph glyph-name="five.numr" horiz-adv-x="393" d="M42 403l100 10c0-29 20-46 47-46 25 0 48 18 48 49 0 24-19 39-41 39-21 0-34-9-43-18l-87 40 78 172h227l-19-90H200l-21-47c12 9 37 14 56 14 72 0 112-43 112-106 0-80-64-146-159-146-94 0-146 58-146 129z"/><glyph glyph-name="six.numr" horiz-adv-x="393" d="M391 629l-37-84c-17 8-41 18-79 18-44 0-91-21-109-60 17 12 44 20 69 20 74 0 115-45 115-106 0-87-70-147-160-147-87 0-148 63-148 155 0 145 114 229 235 229 49 0 82-8 114-25zM202 446c-24 0-48-17-48-46 0-23 16-39 38-39 27 0 49 18 49 48 0 21-16 37-39 37z"/><glyph glyph-name="seven.numr" horiz-adv-x="357" d="M388 649l-19-92c-42-30-146-113-195-277H54c47 173 181 275 183 276H58l19 93h311z"/><glyph glyph-name="eight.numr" horiz-adv-x="401" d="M193 535c0-16 14-30 34-30 26 0 41 17 41 35 0 14-8 30-35 30s-40-20-40-35zm-38-144c0-22 20-35 43-35 32 0 49 21 49 41 0 15-9 34-44 34-32 0-48-23-48-40zm46-120C93 271 42 316 42 376c0 51 43 88 95 97-29 12-48 44-48 75 0 60 60 109 146 109 100 0 145-45 145-103 0-42-35-76-82-89 32-10 58-43 58-78 0-68-65-116-155-116z"/><glyph glyph-name="nine.numr" horiz-adv-x="412" d="M37 297l36 83c18-10 44-18 81-18 40 0 92 20 108 64-17-13-44-22-69-22-73 0-115 46-115 105 0 87 70 146 160 146 87 0 148-62 148-153 0-147-112-231-234-231-49 0-83 9-115 26zm189 182c24 0 47 18 47 47 0 22-16 40-38 40-27 0-48-20-48-50 0-20 16-37 39-37z"/><glyph glyph-name="zero.dnom" horiz-adv-x="422" d="M22 141c0 98 53 236 193 236 113 0 160-69 160-149C375 127 322-9 182-9 77-9 22 54 22 141zm115 2c0-33 9-58 47-58 56 0 77 90 77 142 0 31-11 56-49 56-55 0-75-91-75-140z"/><glyph glyph-name="one.dnom" horiz-adv-x="312" d="M172 0H57l46 217H10l15 73c66 2 111 43 125 78h100z"/><glyph glyph-name="two.dnom" horiz-adv-x="385" d="M118 181l66 28c27 11 42 25 42 45 0 14-9 34-36 34-33 0-48-24-48-56l-99 8c0 74 59 138 152 138 96 0 144-52 144-114 0-61-41-103-111-132l-76-32c-3-1-5-4-6-5h151L276 0H-8c0 83 45 146 126 181z"/><glyph glyph-name="three.dnom" horiz-adv-x="430" d="M147 159l-27 70 105 49H58l19 91h291l-22-105-96-46c45-10 76-44 76-92C326 54 261-8 163-8S12 54 12 117c0 4 1 10 1 14l104 6c-1-4-1-7-1-8 0-26 18-45 49-45 30 0 48 19 48 43s-20 36-43 36c-11 0-20-3-23-4z"/><glyph glyph-name="four.dnom" horiz-adv-x="435" d="M5 71l24 114 201 184h121l-44-212h60l-19-86h-59L274 0H161l15 71H5zm189 86l21 97-106-97h85z"/><glyph glyph-name="five.dnom" horiz-adv-x="393" d="M2 122l100 10c0-29 20-46 47-46 25 0 48 18 48 49 0 24-19 39-41 39-21 0-34-9-43-18l-87 40 78 172h227l-19-90H160l-21-47c12 9 37 14 56 14 72 0 112-43 112-106C307 59 243-7 148-7 54-7 2 51 2 122z"/><glyph glyph-name="six.dnom" horiz-adv-x="392" d="M351 350l-37-84c-17 8-41 18-79 18-44 0-91-21-109-60 17 12 44 20 69 20 74 0 115-45 115-106C310 51 240-9 150-9 63-9 2 54 2 146c0 145 114 229 235 229 49 0 82-8 114-25zM162 167c-24 0-48-17-48-46 0-23 16-39 38-39 27 0 49 18 49 48 0 21-16 37-39 37z"/><glyph glyph-name="seven.dnom" horiz-adv-x="357" d="M343 369l-19-92C282 247 178 164 129 0H9c47 173 181 275 183 276H13l19 93h311z"/><glyph glyph-name="eight.dnom" horiz-adv-x="401" d="M152 255c0-16 14-30 34-30 26 0 41 17 41 35 0 14-8 30-35 30s-40-20-40-35zm-38-144c0-22 20-35 43-35 32 0 49 21 49 41 0 15-9 34-44 34-32 0-48-23-48-40zM160-9C52-9 1 36 1 96c0 51 43 88 95 97-29 12-48 44-48 75 0 60 60 109 146 109 100 0 145-45 145-103 0-42-35-76-82-89 32-10 58-43 58-78C315 39 250-9 160-9z"/><glyph glyph-name="nine.dnom" horiz-adv-x="412" d="M2 17l36 83c18-10 44-18 81-18 40 0 92 20 108 64-17-13-44-22-69-22-73 0-115 46-115 105 0 87 70 146 160 146 87 0 148-62 148-153C351 75 239-9 117-9 68-9 34 0 2 17zm189 182c24 0 47 18 47 47 0 22-16 40-38 40-27 0-48-20-48-50 0-20 16-37 39-37z"/><glyph glyph-name="space.frac" horiz-adv-x="52"/><glyph glyph-name="a.ordn" horiz-adv-x="451" d="M230 549c-46 0-71-47-71-92 0-43 26-63 56-63 31 0 69 27 69 94 0 43-24 61-54 61zm92 100h114l-59-274c-6-27-9-53-9-77H263c0 12 0 24 2 41-10-19-35-46-84-46-83 0-138 68-138 158 0 124 80 206 176 206 69 0 91-34 95-43z"/><glyph glyph-name="b.ordn" horiz-adv-x="491" d="M184 298H71l106 507h116l-38-183c14 17 47 33 84 33 90 0 138-63 138-144 0-131-82-221-182-221-59 0-93 32-102 50zm116 254c-49 0-79-49-79-92 0-45 30-64 61-64 32 0 76 28 76 93 0 45-26 63-58 63z"/><glyph glyph-name="c.ordn" horiz-adv-x="413" d="M403 536l-105-28c-4 22-23 43-60 43-36 0-80-30-80-93 0-40 27-62 63-62 30 0 52 17 63 38l95-34c-22-58-80-113-167-113-8 0-16 1-24 2-85 10-146 77-146 166 0 127 100 205 204 205 96 0 148-60 157-124z"/><glyph glyph-name="d.ordn" horiz-adv-x="440" d="M468 805l-94-442c-4-19-5-42-5-58v-7H263c-1 6-1 11-1 13 0 10 1 19 3 28-11-19-35-46-84-46-84 0-138 69-138 158 0 125 80 206 175 206 60 0 84-25 92-37l40 185h118zM230 550c-46 0-71-47-71-93 0-42 26-62 56-62 31 0 69 26 69 93 0 43-25 62-54 62z"/><glyph glyph-name="e.ordn" horiz-adv-x="386" d="M147 517h125v4c0 19-15 47-56 47-35 0-61-21-69-51zm221-74H137c1-31 22-59 69-59 25 0 47 13 56 34l92-39c-21-45-70-91-159-91S31 357 31 452c0 128 93 208 185 208 101 0 162-65 162-153 0-13-2-40-10-64z"/><glyph glyph-name="f.ordn" horiz-adv-x="324" d="M323 551h-70l-53-253H82l54 253H77l21 99h60l9 43c18 78 70 119 148 119 19 0 50-4 68-14l-20-95c0-1-11 6-35 6-28 0-45-17-51-42l-3-17h70z"/><glyph glyph-name="g.ordn" horiz-adv-x="468" d="M322 496c0 38-26 56-53 56-42 0-72-33-72-78 0-35 24-55 56-55 33 0 69 29 69 77zM37 293l102 18c0-30 24-54 65-54s72 21 85 72l5 20c-12-12-37-28-73-28-86 0-142 61-142 144 0 106 75 192 175 192 62 0 91-26 99-42l8 35h113l-68-323c-21-100-93-172-198-172-121 0-171 75-171 138z"/><glyph glyph-name="h.ordn" horiz-adv-x="449" d="M381 299H263l42 195c1 5 1 10 1 15 0 26-15 45-44 45-28 0-46-20-53-52l-44-203H47l107 506h118l-38-183c20 25 55 37 84 37 77 0 111-52 111-117 0-12-1-26-4-39z"/><glyph glyph-name="i.ordn" horiz-adv-x="248" d="M133 744c0 40 31 72 73 72 36 0 60-24 60-57 0-44-35-72-74-72-34 0-59 25-59 57zm31-446H46l75 352h117z"/><glyph glyph-name="j.ordn" horiz-adv-x="258" d="M72 291l76 359h117l-81-384c-16-76-65-111-129-111-36 0-64 12-76 21l19 91c0 1 13-8 36-8 19 0 34 9 38 32zm89 453c0 40 30 72 72 72 36 0 60-24 60-57 0-44-35-72-73-72-35 0-59 25-59 57z"/><glyph glyph-name="k.ordn" horiz-adv-x="448" d="M275 298l-55 118-36-32-18-86H49l107 507h118l-55-256 110 101h157L310 496l97-198H275z"/><glyph glyph-name="l.ordn" horiz-adv-x="246" d="M164 298H46l107 507h119z"/><glyph glyph-name="m.ordn" horiz-adv-x="681" d="M386 298H269l41 195c1 5 1 10 1 15 0 27-16 46-45 46-28 0-47-22-54-53l-44-203H51l61 294c5 25 6 41 6 51v7h114v-4c0-8 0-13-1-29 20 29 60 42 91 42 48 0 79-21 97-50 35 43 89 50 114 50 73 0 118-54 118-122 0-11-2-23-4-35l-44-204H486l42 195c1 5 1 9 1 14 0 27-16 47-45 47s-48-22-55-54z"/><glyph glyph-name="n.ordn" horiz-adv-x="449" d="M379 298H261l42 196c1 4 1 9 1 13 0 26-15 47-44 47s-46-21-53-52l-45-204H45l61 294c5 25 6 41 6 51v7h115v-9c0-7 0-17-1-24 20 28 58 42 89 42 77 0 112-52 112-117 0-12-1-26-4-39z"/><glyph glyph-name="o.ordn" horiz-adv-x="416" d="M235 552c-50 0-76-50-76-93 0-41 25-63 57-63 31 0 76 27 76 93 0 43-24 62-57 63zm173-57c0-110-81-207-200-207-97 0-165 71-165 165 0 127 94 207 201 207 98 0 164-71 164-165z"/><glyph glyph-name="p.ordn" horiz-adv-x="476" d="M289 554c-49 0-77-51-77-94 0-44 28-64 59-64 32 0 77 29 77 95 0 42-28 63-59 63zm-48 63c15 19 48 38 87 38 89 0 139-61 139-144 0-131-84-221-183-221-56 0-88 23-100 40l-35-165H32l90 427c5 25 6 41 6 51v7h114v-11c0-7 0-15-1-22z"/><glyph glyph-name="q.ordn" horiz-adv-x="448" d="M441 650L337 165H219l33 152c-15-13-36-24-69-24-82 1-135 70-135 158 0 125 80 206 176 206 70 0 91-33 95-43l8 36h114zM235 550c-46 0-70-47-70-93 0-42 25-62 55-62 31 0 69 26 69 94 0 42-24 61-54 61z"/><glyph glyph-name="r.ordn" horiz-adv-x="302" d="M328 531c-14 5-28 8-41 8-33 0-71-11-86-82l-34-159H50l62 294c5 25 6 36 6 51v7h114v-9c0-7 0-17-1-25 19 27 49 37 77 37 23 0 36-5 44-9z"/><glyph glyph-name="s.ordn" horiz-adv-x="356" d="M41 405l98 15v-10c0-24 13-39 37-39 22 0 33 11 33 25 0 9-2 19-22 27l-29 12c-65 27-85 63-85 106 0 65 58 119 139 119 89 0 136-43 136-113l-100-10v6c0 16-7 35-35 35-16 0-30-10-30-25 0-10 7-18 16-22l43-17c61-25 82-63 82-107 0-61-52-119-142-119-124 0-141 77-141 111v6z"/><glyph glyph-name="t.ordn" horiz-adv-x="302" d="M235 547l-24-114c-1-4-1-8-1-12 0-20 14-29 35-29 6 0 14 1 26 4l-20-92c-8-4-26-11-52-11-69 0-110 40-110 100 0 10 1 20 3 31l26 123H58l21 103h19c38 0 56 21 65 57l10 42h105l-22-99h68l-23-103h-66z"/><glyph glyph-name="u.ordn" horiz-adv-x="439" d="M116 649h118l-42-196c-1-4-1-9-1-13 0-26 15-47 44-47s46 21 53 52l45 204h117l-61-294c-5-25-6-41-6-51v-7H268v9c0 7 0 17 1 24-20-28-58-42-89-42-77 0-112 52-112 117 0 12 1 26 4 39z"/><glyph glyph-name="v.ordn" horiz-adv-x="371" d="M413 650L213 298H95L33 650h122l24-205 104 205h130z"/><glyph glyph-name="w.ordn" horiz-adv-x="592" d="M274 650h125l21-193 87 193h119L450 298H336l-26 217-110-217H80L47 650h116l13-192z"/><glyph glyph-name="x.ordn" horiz-adv-x="417" d="M217 383l-73-85H7l162 181c4-9-96 179-92 171h130c-3 5 43-89 40-84l71 84h140c8 8-171-188-163-180-5 9 97-180 93-172H258z"/><glyph glyph-name="y.ordn" horiz-adv-x="392" d="M153 165H25l112 185-69 300h123l33-177 102 177h129z"/><glyph glyph-name="z.ordn" horiz-adv-x="408" d="M332 298H35l21 104 174 149H93l21 99h291l-20-96-185-156h154z"/><glyph glyph-name="space.tf"/><glyph glyph-name="numbersign.tf" d="M52 392v105h103l33 152h115l-33-152h100l33 152h115l-33-152h83V392H463l-28-130h82V156H412L379 0H264l33 156H197L164 0H49l33 156H2v106h103l28 130H52zm196 0l-28-130h100l28 130H248z"/><glyph glyph-name="dollar.tf" d="M148-115L172 1C77 32 21 108 21 196c0 7 0 15 1 25l143 24c-1-7-2-14-2-21 0-54 29-106 109-107 53 0 80 26 80 63 0 26-11 46-43 60l-75 32c-89 38-132 101-132 179 0 118 95 198 210 209l21 105h126l-25-116c106-34 137-125 137-178l-144-24c0 19-8 85-92 85-48 0-77-33-77-68 0-30 18-49 42-60l69-29c103-43 142-106 142-185 0-97-77-194-217-203l-21-102H148z"/><glyph glyph-name="percent.tf" d="M227 527c0 25-16 47-43 47-28 0-56-23-56-64 0-26 16-47 42-47 28 0 57 22 57 64zm-36 132c74 0 128-57 128-128 0-92-77-154-156-154-73 0-127 56-127 128 0 91 76 154 155 154zm357-123l-21-101L8 107l21 101zM445 143c0 25-16 47-42 47-28 0-57-23-57-64 0-26 16-47 43-47 28 0 56 22 56 64zm92 4C537 55 460-7 382-7c-74 0-128 56-128 128 0 91 76 154 156 154 73 0 127-57 127-128z"/><glyph glyph-name="plus.tf" d="M341 236V41H213v195H23v124h190v195h128V360h190V236H341z"/><glyph glyph-name="comma.tf" d="M162 85c0 67 54 114 120 114 68 0 109-52 109-117 0-154-121-265-269-274l18 80c50 5 124 47 138 114-4-2-16-4-25-4-57 0-91 38-91 87z"/><glyph glyph-name="period.tf" d="M255-8C192-8 152 40 152 94c0 65 56 121 127 121 62 0 101-45 101-100C380 50 324-8 255-8z"/><glyph glyph-name="zero.tf" d="M173 238c0-65 19-114 83-114 101 0 139 189 139 286 0 62-15 115-83 115-102 0-139-191-139-287zm76-253C77-12 19 111 19 233c0 148 63 431 298 431 173 0 234-125 234-250 0-152-67-429-302-429z"/><glyph glyph-name="one.tf" d="M31 131h159l63 297H107l23 104c87 1 166 51 191 117h136L347 131h165L484 0H3z"/><glyph glyph-name="two.tf" d="M-32 0c1 1 4 27 4 28 21 120 75 210 210 269l117 51c60 26 93 55 93 103 0 37-21 74-83 74-69 0-98-53-98-128L66 412c0 144 97 252 254 252 155 0 228-92 228-195 0-109-67-182-176-230l-135-59c-22-10-42-25-57-48h297L449 0H-32z"/><glyph glyph-name="three.tf" d="M208 293l-51 109 188 115H74l26 132h471l-29-145-180-113c81-11 141-77 141-167 0-123-107-239-265-239S-6 91-6 201c0 3 0 7 1 13l154 17c-1-7-1-12-1-15 0-56 37-95 93-95 62 0 103 40 103 99 0 54-42 83-89 83-16 0-35-4-47-10z"/><glyph glyph-name="four.tf" d="M-14 135l33 160 337 354h186l-81-382h86l-28-132h-86L405 0H248l28 135H-14zm318 132l45 213-198-213h153z"/><glyph glyph-name="five.tf" d="M14 197l146 27c-1-5-1-10-1-11 0-49 37-95 96-95 55 0 107 36 107 106 0 55-45 84-95 84-36 0-65-14-84-32L55 334l132 315h375l-28-132H273l-47-114c26 18 64 24 94 24 131 0 201-74 201-187 0-139-102-256-267-256C105-16 14 89 14 197z"/><glyph glyph-name="six.tf" d="M599 614l-66-120c-33 18-80 28-126 28-85 0-178-47-214-149 31 42 89 59 136 59 128 0 198-75 198-186C527 97 415-14 263-14 121-14 18 88 18 240c0 231 165 416 405 416 83 0 147-20 176-42zM279 308c-57 0-106-42-106-103 0-50 35-86 91-86s105 40 105 104c0 50-36 85-90 85z"/><glyph glyph-name="seven.tf" d="M51 518l27 131h519l-26-126C518 489 301 316 207 0H40c76 278 269 471 334 518H51z"/><glyph glyph-name="eight.tf" d="M311 387c55 0 87 39 87 80 0 32-23 67-77 67-60 0-86-43-86-80 0-31 19-67 76-67zM164 190c0-46 39-77 91-77 63 0 99 46 99 89 0 37-26 76-92 76-64 0-98-48-98-88zm341-5C505 57 378-15 248-15 127-15 11 41 11 167c0 88 68 151 160 171-46 21-86 72-86 132 0 114 105 194 245 194 147 0 227-79 227-177 0-76-53-139-135-165 52-21 83-82 83-137z"/><glyph glyph-name="nine.tf" d="M191 427c0-49 35-83 89-83 58 0 105 40 105 101 0 51-35 86-91 86s-103-40-103-104zM-30 37l62 120c40-23 82-33 125-33 95 0 179 55 210 151-33-37-81-55-128-55-125 0-205 85-205 198 0 150 118 246 265 246 142 0 245-101 245-254 0-266-176-425-389-425C89-15 24 0-30 37z"/><glyph glyph-name="colon.tf" d="M228-7c-57 0-93 42-93 92 0 59 51 111 115 111 56 0 93-42 93-91C343 45 292-7 228-7zm66 310c-57 0-93 42-93 92 0 60 51 111 115 111 56 0 92-42 92-91 0-60-50-112-114-112z"/><glyph glyph-name="semicolon.tf" d="M139 75c0 62 49 104 109 104 62 0 99-47 99-107 0-139-109-241-244-249l16 73c45 4 113 43 126 104-4-2-16-4-24-4-51 0-82 35-82 79zm161 227c-58 0-94 43-94 93 0 59 51 111 116 111 57 0 92-41 92-92 0-60-51-112-114-112z"/><glyph glyph-name="less.tf" d="M62 244v108l439 224V438L212 301l289-139V22z"/><glyph glyph-name="equal.tf" d="M31 339v122h495V339H31zm0-201v122h495V138H31z"/><glyph glyph-name="greater.tf" d="M501 353V245L62 22v137l288 138L62 436v140z"/><glyph glyph-name="cent.tf" d="M171 0l20 93C109 124 56 200 56 295c0 149 108 249 233 265l19 89h115l-21-97c79-24 123-87 133-148l-130-35c-7 33-34 65-89 65s-118-46-118-137c0-58 39-92 95-92 46 0 78 27 94 58l118-43c-30-70-99-136-203-144L286 0H171z"/><glyph glyph-name="sterling.tf" horiz-adv-x="591" d="M47 273l23 110h65c-3 17-5 34-5 54 0 118 78 225 229 225 150 0 199-92 199-174 0-14-2-25-2-26l-134-13c0 1 1 9 1 18 0 40-20 71-69 71-43 0-85-28-85-105 0-16 3-33 6-50h169l-24-110H286c-5-61-36-120-93-143h137c53 0 79 34 85 75l127-22C526 76 447 0 337 0H-13l28 127c78 12 124 78 132 146H47z"/><glyph glyph-name="currency.tf" d="M48 248c0 37 9 71 26 101L3 421l90 90 74-74c30 14 63 23 99 23 35 0 69-8 98-23l74 74 91-90-71-72c16-30 26-64 26-101 0-38-9-72-26-102l71-70-91-91-73 73c-30-14-64-22-99-22-36 0-69 8-99 23L93-15 3 76l70 70c-16 30-25 64-25 102zm125 0c0-53 38-91 93-91s93 38 93 91-38 91-93 91-93-38-93-91z"/><glyph glyph-name="yen.tf" d="M49 294l22 106h86L75 649h161l64-236 164 236h172L447 400h95l-22-106H351l-13-63h168l-23-106H316L290 0H144l26 125H12l23 106h157l14 63H49z"/><glyph glyph-name="section.tf" d="M9 4l147 9c-2-13-2-17-2-23 0-44 27-66 71-66 35 0 66 26 66 62 0 18-10 36-29 49l-87 60c-59 41-108 87-108 159 0 81 51 125 103 147-31 33-44 75-44 115 0 129 123 208 233 208 131 0 204-78 204-176 0-13-1-25-2-33l-145-9c1 10 2 15 2 25 0 44-32 64-71 64-35 0-66-27-66-62 0-18 10-36 26-47l90-60c58-40 107-88 107-159 0-83-51-127-102-148 29-34 42-77 42-116 0-129-121-208-231-208C81-205 7-127 7-29 7-19 7-12 9 4zm329 274l-92 64c-22-14-35-33-35-58 0-16 7-31 23-42l92-64c22 13 34 33 34 59 0 15-6 30-22 41z"/><glyph glyph-name="logicalnot.tf" d="M528 129H398v195H29v125h499V129z"/><glyph glyph-name="plusminus.tf" d="M350 314V198H222v116H44v124h178v117h128V438h178V314H350zM44 40v124h484V40H44z"/><glyph glyph-name="multiply.tf" d="M121 43l-90 92 163 164L31 464l90 90 164-165 164 165 90-90-164-165 164-164-90-92-164 165z"/><glyph glyph-name="divide.tf" d="M26 237v124h505V237H26zm164-123c0 45 38 83 85 83s85-38 85-83c0-46-38-85-85-85s-85 39-85 85zm0 372c0 46 38 84 85 84s85-38 85-84-38-85-85-85-85 39-85 85z"/><glyph glyph-name="florin.tf" d="M141 30l69 341h-92v126h118l16 81c23 114 116 163 199 163 50 0 65-5 96-16V595c-20 5-39 8-65 8-24 0-68-11-79-68l-8-38h110V371H369L291-13C267-128 177-176 93-176c-50 0-68 5-100 15v131c21-5 44-8 70-8 23 0 66 11 78 68z"/><glyph glyph-name="uni2007.tf"/><glyph glyph-name="uni2008.tf"/><glyph glyph-name="perthousand.tf" d="M41 525c0 80 67 136 136 136 66 0 113-50 113-113 0-82-68-136-137-136-65 0-112 50-112 113zM239-9c-66 0-112 51-112 113 0 81 67 137 136 137 32 0 60-13 80-32 23 20 54 32 86 32 66 0 113-50 113-113C542 46 474-9 405-9c-32 0-59 12-79 32-25-20-56-32-87-32zm325 610l-23-107L13 169l23 105zm-393-16c-24 0-49-21-49-57 0-23 14-39 37-39 25 0 50 18 50 54 0 25-14 41-38 42zm86-420c-24 0-49-21-49-57 0-23 14-39 37-39 25 0 50 18 50 54 0 25-14 41-38 42zm166 0c-24 0-49-21-49-57 0-23 14-39 37-39 25 0 50 18 50 54 0 25-14 41-38 42z"/><glyph glyph-name="Euro.tf" d="M53 349l21 101h66c61 131 193 213 337 213 78 0 123-17 159-37l-64-125c-24 15-63 27-106 27-51 0-114-23-157-78h237l-50-101H266c-3-15-6-35-6-54h211l-49-102H284c31-49 87-71 154-71 21 0 40 3 57 8l9-131c-22-10-60-16-97-16-147 0-255 85-290 210H20l21 102h64c0 18 1 37 5 54H53z"/><glyph glyph-name="minus.tf" d="M27 237v124h501V237H27z"/><glyph glyph-name="approxequal.tf" d="M465 275l80-66c-37-70-100-109-171-109-36 0-74 10-111 31l-48 26c-17 9-34 13-50 13-32 0-62-16-84-48l-82 65c37 70 100 108 171 108 36 0 73-9 110-29l48-26c17-9 35-14 52-14 32 0 63 16 85 49zm0 204l80-65c-37-70-100-109-171-109-36 0-74 10-111 31l-48 26c-16 9-33 13-49 13-32 0-62-17-85-49l-82 65c37 70 101 109 172 109 35 0 72-9 109-29l48-26c17-10 35-14 53-14 32 0 62 16 84 48z"/><glyph glyph-name="notequal.tf" d="M30 339v122h286l54 88h132l-54-88h77V339H373l-48-79h200V138H250l-59-96H59l59 96H30v122h163l48 79H30z"/><glyph glyph-name="lessequal.tf" d="M66 40v124h439V40H66zm0 282v120l439 130V449l-266-65 266-66V192z"/><glyph glyph-name="greaterequal.tf" d="M497 164V40H58v124h439zm0 278V322L58 192v123l266 65-266 67v125z"/><glyph glyph-name="parenleft.case" horiz-adv-x="340" d="M26 245c0 255 124 452 337 584l69-91C273 624 151 493 151 250c0-115 45-232 105-317l-99-70C89-48 26 90 26 245z"/><glyph glyph-name="parenright.case" horiz-adv-x="342" d="M314 446C314 192 189-5-23-137l-70 91C66 69 188 198 188 441c0 115-44 233-104 318l99 70c68-89 131-227 131-383z"/><glyph glyph-name="hyphen.case" horiz-adv-x="368" d="M316 283H17l29 137h300z"/><glyph glyph-name="bracketleft.case" horiz-adv-x="336" d="M230-118H-19l199 942h250l-24-113H282L131-2h123z"/><glyph glyph-name="bracketright.case" horiz-adv-x="344" d="M154-118H-94L-70-2H52l152 713H80l24 113h250z"/><glyph glyph-name="braceleft.case" horiz-adv-x="378" d="M23 293l26 124c56 0 102 24 116 88l26 122c31 145 117 197 237 197h45l-24-113h-38c-41 0-81-18-94-82l-31-147c-14-64-55-116-125-129 48-15 72-54 72-102 0-11-1-22-3-33L202 84c-2-9-3-18-3-25 0-46 32-61 67-61h31l-24-113h-36C138-115 72-59 72 40c0 17 2 36 7 57l23 108c2 9 3 17 3 24 0 46-34 64-82 64z"/><glyph glyph-name="braceright.case" horiz-adv-x="379" d="M356 416l-26-124c-57 0-103-24-117-88L187 82C156-63 71-115-50-115h-45L-70-2h37C7-2 47 16 61 80l31 147c13 64 54 116 125 129-48 15-72 53-72 101 0 11 1 22 4 34l27 134c2 10 3 18 3 26 0 45-32 60-67 60H81l24 113h36c99 0 165-57 165-156 0-17-2-36-6-56l-23-108c-2-9-3-18-3-25 0-46 34-63 82-63z"/><glyph glyph-name="exclamdown.case" horiz-adv-x="311" d="M239 487L171 0H-12l139 487h112zm55 154c0-52-43-95-95-95-48 0-77 36-77 77 0 53 46 95 93 95s79-34 79-77z"/><glyph glyph-name="guillemotleft.case" horiz-adv-x="542" d="M237 152H102L2 351l179 196h147L139 343zm233 0H335L235 351l179 196h147L372 343z"/><glyph glyph-name="uni00AD.case" horiz-adv-x="368" d="M317 285H18l29 137h300z"/><glyph glyph-name="guillemotright.case" horiz-adv-x="531" d="M44 547h133l102-199-179-196H-48l189 204zm230 0h133l102-199-179-196H182l189 204z"/><glyph glyph-name="questiondown.case" horiz-adv-x="506" d="M234 489h116c-1-58-8-136-103-188l-58-32c-35-20-51-52-51-82 0-33 23-68 79-68 66 0 100 55 100 115l138-14C454 90 355-15 208-15 54-15-18 78-18 166c0 99 56 163 136 209l43 25c46 26 67 45 73 89zm158 152c0-52-44-95-95-95-48 0-78 36-78 77 0 53 46 95 94 95 47 0 79-34 79-77z"/><glyph glyph-name="endash.case" horiz-adv-x="624" d="M553 286H36l27 132h518z"/><glyph glyph-name="emdash.case" horiz-adv-x="1060" d="M979 286H46l27 132h934z"/><glyph glyph-name="guilsinglleft.case" horiz-adv-x="309" d="M237 152H102L2 351l179 196h147L139 343z"/><glyph glyph-name="guilsinglright.case" horiz-adv-x="300" d="M44 547h133l102-199-179-196H-48l189 204z"/><glyph glyph-name="G.ss01" horiz-adv-x="754" d="M417 724c200 0 291-121 307-220l-155-48c-11 54-54 116-163 116-103 0-213-89-213-255 0-103 62-182 174-182 103 0 156 61 172 109H313l29 135h378c0-216-126-395-366-395C169-16 31 124 31 308c0 261 187 415 386 416z"/><glyph glyph-name="r.ss03" horiz-adv-x="437" d="M326 309c-55 0-90 41-90 89 0 58 49 108 111 108 55 0 90-41 90-88 0-58-49-109-111-109zm-82 141L148 0H-4l89 423c9 41 9 64 9 74h154c0-6 0-27-4-47z"/><glyph glyph-name="ampersand.ss04" horiz-adv-x="682" d="M639 225h-61C553 88 441-15 282-15 102-15 16 84 16 192c0 130 105 196 185 207-49 21-83 73-83 130 0 123 121 196 232 196 165 0 228-95 228-186 0-15-2-30-3-37H426c1 5 3 13 3 22 0 40-19 75-79 75-39 0-85-29-85-79 0-48 37-68 76-68l-27-127h-8c-52 0-129-24-129-116 0-46 36-93 113-93 64 0 120 39 134 109h-78l26 126h293z"/><glyph glyph-name="one.ss05" horiz-adv-x="467" d="M5 131h129l63 297H62l22 104c88 1 156 51 182 117h135L291 131h153L416 0H-23z"/><glyph glyph-name="registered.ss06" horiz-adv-x="394" d="M33 526c0 106 86 192 192 192s192-86 192-192-86-192-192-192S33 420 33 526zm54 0c0-78 61-139 138-139s137 61 137 139-60 139-137 139S87 604 87 526zm146-95l-13 65h-12l-14-65h-57l42 196h82c35 0 59-23 59-56 0-31-19-57-48-67l20-73h-59zm-15 112h16c19 0 27 9 27 22 0 12-8 15-18 15h-16z"/><glyph glyph-name="caron.alt" horiz-adv-x="190" d="M202 709L82 502H-21l73 207h150z"/><glyph glyph-name="commaaccent" horiz-adv-x="186" d="M-9 548l12 52c7-1 14-2 22-2 29 0 62 9 74 38-3-1-12-4-23-4-45 0-67 29-67 60 0 41 35 75 83 75 55 0 82-37 82-81 0-92-68-141-148-141-11 0-23 1-35 3z"/><glyph glyph-name="commaturn" horiz-adv-x="166" d="M156 622c0-41-35-76-82-76-53 0-83 40-83 84 0 88 74 141 151 141 17 0 27-2 32-3l-11-53c-5 1-12 3-24 3-40 0-67-21-75-40 5 2 15 6 27 6 47 0 65-31 65-62z"/><glyph glyph-name="dieresis.narrow" horiz-adv-x="325" d="M-12 624c0 43 39 82 85 82 39 0 66-31 66-67 0-48-43-82-83-82-41 0-68 30-68 67zm182 0c0 43 38 82 84 82 39 0 66-31 66-67 0-48-42-82-82-82-42 0-68 30-68 67z"/><glyph glyph-name="dieresis.uc.narrow" horiz-adv-x="348" d="M-11 817c0 43 38 85 85 85 41 0 69-31 69-69 0-49-39-84-84-84-42 0-70 28-70 68zm200 0c0 43 38 85 85 85 41 0 69-31 69-69 0-49-39-84-84-84-42 0-70 28-70 68z"/><glyph glyph-name="grave.uc" horiz-adv-x="274" d="M118 759L-2 891h174l76-132H118z"/><glyph glyph-name="dieresis.uc" horiz-adv-x="436" d="M-6 817c0 42 38 87 87 87 43 0 72-33 72-71 0-50-42-86-86-86s-73 30-73 70zm273 0c0 42 38 87 88 87 42 0 71-33 71-71 0-50-41-86-86-86-44 0-73 30-73 70z"/><glyph glyph-name="macron.uc" horiz-adv-x="307" d="M290 771H-20L2 880h311z"/><glyph glyph-name="acute.uc" horiz-adv-x="274" d="M294 891L117 759H-26l132 132h188z"/><glyph glyph-name="circumflex.uc" horiz-adv-x="389" d="M114 759H-25l150 132h146l95-132H231l-44 65z"/><glyph glyph-name="caron.uc" horiz-adv-x="389" d="M259 891h145L252 759H106L11 891h132l43-65z"/><glyph glyph-name="breve.uc" horiz-adv-x="340" d="M160 753c-83 0-148 40-148 119 0 3 0 10 2 19h104c-1-5-1-7-1-9 0-24 17-40 49-40 34 0 58 22 65 49h116c-16-65-80-138-187-138z"/><glyph glyph-name="dotaccent.uc" horiz-adv-x="175" d="M-10 834c0 47 44 94 98 94 46 0 80-35 80-77 0-56-45-98-97-98-47 0-81 37-81 81z"/><glyph glyph-name="ring.uc" horiz-adv-x="278" d="M135 927c-28 0-53-22-53-53 0-24 19-41 45-41 25 0 53 20 53 53 0 26-20 41-45 41zm-145-59c0 80 70 148 153 148 72 0 130-52 130-122 0-89-78-149-154-149-73 0-129 52-129 123z"/><glyph glyph-name="tilde.uc" horiz-adv-x="344" d="M370 895c-14-104-66-144-128-144-30 0-54 12-76 25-19 12-36 23-51 23-17 0-31-13-35-42h-93c11 105 72 140 133 140 32 0 54-11 74-23 18-11 32-23 47-23 18 0 31 13 36 44h93z"/><glyph glyph-name="hungarumlaut.uc" horiz-adv-x="364" d="M189 891L68 759h-96l76 132h141zm186 0L237 759h-98l92 132h144z"/><glyph glyph-name="caron.alt.uc" horiz-adv-x="190" d="M209 709L84 492H-23l77 217h155z"/><glyph glyph-name="undercommaaccent" horiz-adv-x="166" d="M-8-120c0 41 36 75 83 75 55 0 83-38 83-82 0-92-71-141-148-141-11 0-25 2-35 4l11 51c7-1 14-1 21-1 30 0 63 8 76 38-5-2-13-4-24-4-45 0-67 29-67 60z"/></font>
</defs>
</svg>
