<svg xmlns="http://www.w3.org/2000/svg" viewBox="0 0 11.95 13.8"><defs><style>.cls-1{fill:#23b548;}</style></defs><g id="Layer_2" data-name="Layer 2"><g id="Layer_1-2" data-name="Layer 1"><path class="cls-1" d="M12,7.3v4.78a1.73,1.73,0,0,1-1.73,1.72H1.73A1.72,1.72,0,0,1,0,12.08V7.3A1.74,1.74,0,0,1,1.59,5.58V4.38a4.38,4.38,0,0,1,8.76,0v1.2A1.74,1.74,0,0,1,12,7.3Zm-1.33,0a.4.4,0,0,0-.4-.4H4V5.57H9V4.38a3.06,3.06,0,0,0-6.11,0V6.9H1.73a.4.4,0,0,0-.4.4v4.78a.41.41,0,0,0,.4.4h8.49a.41.41,0,0,0,.4-.4ZM7.17,9.42a1.2,1.2,0,0,1-.53,1v1H5.31v-1a1.2,1.2,0,1,1,1.86-1Z"/></g></g></svg>