<svg xmlns="http://www.w3.org/2000/svg" viewBox="0 0 116.58 32.1"><defs><style>.cls-1,.cls-2{fill:#404c55;fill-rule:evenodd}.cls-2{fill:#fff;opacity:.5}</style></defs><g id="Layer_2" data-name="Layer 2"><g id="Layer_1-2" data-name="Layer 1"><path class="cls-1" d="M27.64 18.21v-.72a13.05 13.05 0 10-26.1 0v.72L0 18.35v-.86a14.55 14.55 0 013.91-9.95l-.76-.76-.36.36a.23.23 0 01-.31 0L2 6.62a.23.23 0 010-.31l1.43-1.47a.23.23 0 01.31 0l.52.52a.23.23 0 010 .31L3.9 6l.76.76a14.53 14.53 0 019.12-3.88v-1h-.68a.49.49 0 01-.49-.48V.49A.49.49 0 0113.1 0h3a.49.49 0 01.49.49v.89a.49.49 0 01-.49.48h-.68v1.05a14.48 14.48 0 019.11 3.88l.79-.79-.32-.33a.21.21 0 010-.31l.52-.52a.23.23 0 01.31 0l1.46 1.47a.21.21 0 010 .31l-.52.52a.22.22 0 01-.3 0l-.36-.36-.77.76a14.55 14.55 0 013.91 10v.86z"/><path class="cls-1" d="M14.61 7.7a11 11 0 00-2.38 3.7 15.11 15.11 0 00-1.06 5.67 15.07 15.07 0 001.06 5.67 17.65 17.65 0 001.49 2.78c.1.16.2.34.3.52a12.26 12.26 0 01.59 1.21A10.37 10.37 0 0115.2 26l.29-.52A24.88 24.88 0 0017 22.74a14.31 14.31 0 001-3.76 12.33 12.33 0 011.63-1.83 17.32 17.32 0 01-.63 4.6 27.4 27.4 0 013.71-2 10.46 10.46 0 00-.31-5.21 10 10 0 00-3.4 2.03c-2.92 2.67-3.52 5.08-4.43 8.71-.23-.28-1.2-4.64-2.58-6.59a14.43 14.43 0 010-2.18A15.79 15.79 0 0114.61 20 15.2 15.2 0 0118 15.46a14.5 14.5 0 00-1-4.06 11 11 0 00-2.37-3.7zm9 19.22a7.34 7.34 0 01-.6.51 12.33 12.33 0 01-2.25 1.46 11.39 11.39 0 01-1.91.77c-.22.07-.45.13-.67.18a13 13 0 001.25-1 14.6 14.6 0 001.27-1.33 14.61 14.61 0 001.43-2 15.35 15.35 0 00.75-1.39 17.36 17.36 0 00.91-2.34 10.6 10.6 0 00-1.95.86q-.17.41-.36.81a14.25 14.25 0 01-1.2 2.06 13.33 13.33 0 01-1.71 2 1.54 1.54 0 01-.19.17 10.23 10.23 0 01-2.86 1.89 5.15 5.15 0 01.16-.73 11.19 11.19 0 01.86-2.05 12 12 0 01.83-1.27 13.17 13.17 0 012.24-2.31A12.52 12.52 0 0123.78 21a9 9 0 013.43-.39 7.37 7.37 0 01-.14.77 13 13 0 01-3.24 5.36l-.21.2zm.69-7.68a9.81 9.81 0 013.88-.09l.93.21a17.15 17.15 0 01-1.67 5.24 14 14 0 01-2.63 3.4 14.6 14.6 0 01-20.39 0 13.62 13.62 0 01-2.66-3.4 15.34 15.34 0 01-1.61-5v-.27h.27l.58-.18a9.84 9.84 0 013.85.08q0-.37-.06-.75a11.19 11.19 0 01.86-5.25l.35-.61.63.17a10.27 10.27 0 012.53 1.07c.24.14.48.29.71.45a16.09 16.09 0 011-3.5 12.25 12.25 0 013.23-4.76l.51-.42.5.42a12.38 12.38 0 013.32 4.76 14 14 0 011 3.49 10.35 10.35 0 013.22-1.51l.64-.17.27.61a11.23 11.23 0 01.77 6zM5.6 26.93l.59.5a12.25 12.25 0 004.16 2.23c.23.07.45.13.68.18a14.52 14.52 0 01-1.26-1 15.58 15.58 0 01-3.45-4.71 15.91 15.91 0 01-1.14-3.22A8.84 8.84 0 002 20.59a12.21 12.21 0 003.6 6.34zm4.65-5.18a14.15 14.15 0 00-2.87-1.7A13.07 13.07 0 008 22.1a12.75 12.75 0 011.6 1.11 12.48 12.48 0 013.07 3.58 9.43 9.43 0 011 2.79 10.14 10.14 0 01-2.87-1.89 13.84 13.84 0 01-3.1-4.22 14 14 0 01-1.35-5.07 10 10 0 01.47-3.89 9.48 9.48 0 012.05 1.05c.25.17.5.36.74.56v1a16.85 16.85 0 00.64 4.63zM36.9 12.18v9.75h6.83v-1.7h-5v-8zM52.23 12a4.93 4.93 0 00-5 5.13 5 5 0 1010 0 4.85 4.85 0 00-5-5.12zM49 17.16a3.2 3.2 0 116.38 0 3.19 3.19 0 11-6.38 0zm14.68 4.77h1.82v-8.08h3.09v-1.67h-8v1.67h3.09v8.08zm15.7-9.72v5.57c0 1.67-.86 2.69-2.38 2.69a2.39 2.39 0 01-2.51-2.69v-5.57h-1.83v5.57A4.06 4.06 0 0077 22.13c2.45 0 4.21-1.47 4.21-4.35v-5.57zm14.07 1.58a3.94 3.94 0 00-3.82-1.93c-1.8 0-3.77.84-3.77 2.84 0 2.18 1.83 2.71 3.82 2.94 1.29.14 2.25.52 2.25 1.44s-1.08 1.46-2.24 1.46A2.77 2.77 0 0187 19l-1.53.79c.72 1.78 2.25 2.4 4.24 2.4 2.17 0 4.08-.94 4.08-3.1 0-2.33-1.89-2.85-3.92-3.1-1.16-.14-2.17-.38-2.17-1.23s.66-1.29 2-1.29a2.81 2.81 0 012.3 1.07z"/><path class="cls-2" d="M108.75 21.93h2l-4.37-9.75h-2L100 21.93h2l.84-1.84h5.08l.82 1.84zm-1.55-3.55h-3.62l1.81-4.15 1.81 4.15zm9.38 3.55v-9.75h-1.82v9.75z"/></g></g></svg>