<svg xmlns="http://www.w3.org/2000/svg" viewBox="0 0 27.76 30.71"><defs><style>.cls-1{fill:#ffb600}</style></defs><g id="Layer_2" data-name="Layer 2"><path class="cls-1" d="M26.55 18.73a2.47 2.47 0 000 1 7.39 7.39 0 01-.26 2.92 6.07 6.07 0 01-1.5 2.45 6.35 6.35 0 00-.7.87 2.91 2.91 0 00-.31.7 5 5 0 01-2.88 3.19 10.94 10.94 0 01-4.28.83h-.19a15.5 15.5 0 01-7.83-2.13c-1.44-.86-5.41-.84-8-.82H0v-2.92h.55c3.31 0 7.41-.09 9.55 1.17a12.48 12.48 0 006.35 1.75 8.06 8.06 0 003.15-.53 2.2 2.2 0 001.4-1.53 5.5 5.5 0 01.63-1.35 10.77 10.77 0 011-1.18 4.2 4.2 0 001-1.31 4.26 4.26 0 00.05-1.84 5.36 5.36 0 01.1-2 5.23 5.23 0 01.49-1.38 3.33 3.33 0 00.54-1.62c0-.5 0-1.44-1.92-1.44h-3.25C17 13.55 15 12 14.84 9.78a7.57 7.57 0 011.05-4.25 3.87 3.87 0 00.65-1.64.88.88 0 00-.48-.78 1.53 1.53 0 00-1.5.08 31.31 31.31 0 00-4.06 4.43l-.18.22C7.7 11.11 5 14.49 0 14.8v-3C3.58 11.52 5.65 9 8 6l.17-.23C9 4.74 11.81 1.34 13.12.6a4.48 4.48 0 014.36-.07 3.78 3.78 0 012 3.18 6 6 0 01-1 3.21 4.6 4.6 0 00-.7 2.6c.05.8 1 1.15 1.84 1.15h3.25c3 0 4.87 1.6 4.87 4.32a6.09 6.09 0 01-.9 3.08 3 3 0 00-.29.66z" id="Layer_1-2" data-name="Layer 1"/></g></svg>