<svg xmlns="http://www.w3.org/2000/svg" viewBox="0 0 13.48 14.91"><defs><style>.cls-1{fill:#222f38}</style></defs><g id="Layer_2" data-name="Layer 2"><path class="cls-1" d="M12.89 9.09a1.19 1.19 0 000 .5 3.64 3.64 0 01-.14 1.41 2.88 2.88 0 01-.75 1.19 2.3 2.3 0 00-.34.43 1.2 1.2 0 00-.16.34 2.43 2.43 0 01-1.4 1.55 5.4 5.4 0 01-2.07.4H8a7.5 7.5 0 01-3.79-1.05c-.7-.41-2.63-.4-3.9-.39H0v-1.42h.27c1.6 0 3.59 0 4.63.57a6.11 6.11 0 003.1.85 4 4 0 001.54-.26 1.09 1.09 0 00.67-.75 2.63 2.63 0 01.3-.65 6.23 6.23 0 01.47-.57 2.35 2.35 0 00.47-.64 2.35 2.35 0 00.07-.88 2.52 2.52 0 010-1 2.8 2.8 0 01.24-.67 1.56 1.56 0 00.24-.78c0-.24 0-.69-.93-.69H9.53A2.15 2.15 0 017.2 4.75a3.64 3.64 0 01.52-2.06 1.9 1.9 0 00.28-.8.43.43 0 00-.23-.38.74.74 0 00-.73 0 14.91 14.91 0 00-2 2.15L5 3.81C3.74 5.39 2.42 7 0 7.19V5.75c1.74-.16 2.74-1.41 3.9-2.84l.1-.12A15.62 15.62 0 016.37.29a2.19 2.19 0 012.12 0 1.81 1.81 0 011 1.54A2.9 2.9 0 019 3.36a2.24 2.24 0 00-.34 1.26c0 .39.5.56.89.56h1.58c1.46 0 2.37.78 2.37 2.09a2.93 2.93 0 01-.5 1.5 1.41 1.41 0 00-.11.32z" id="Layer_1-2" data-name="Layer 1"/></g></svg>