<?xml version="1.0" encoding="utf-8"?>
<!-- Generator: Adobe Illustrator 24.1.2, SVG Export Plug-In . SVG Version: 6.00 Build 0)  -->
<svg version="1.1" id="Layer_1" xmlns="http://www.w3.org/2000/svg" xmlns:xlink="http://www.w3.org/1999/xlink" x="0px" y="0px"
	 viewBox="0 0 197.1 47.2" style="enable-background:new 0 0 197.1 47.2;" xml:space="preserve">
<style type="text/css">
	.st0{fill-rule:evenodd;clip-rule:evenodd;fill:#E8B95A;}
	.st1{fill-rule:evenodd;clip-rule:evenodd;fill:#FFFFFF;}
</style>
<g id="Group_11852" transform="translate(-291.924 -127.787)">
	<g id="Group_11852-2" transform="translate(160.668 -10.761)">
		<path id="Path_15244" class="st0" d="M171.9,165.4c0-0.4,0-0.7,0-1.1c0-10.6-8.6-19.2-19.2-19.2s-19.2,8.6-19.2,19.2
			c0,0.4,0,0.7,0,1.1l-2.3,0.2c0-0.4,0-0.8,0-1.3c0-5.4,2-10.7,5.8-14.6l-1.1-1.1l-0.5,0.5c-0.1,0.1-0.3,0.1-0.5,0l-0.8-0.8
			c-0.1-0.1-0.1-0.3,0-0.5l2.2-2.2c0.1-0.1,0.3-0.1,0.5,0l0.8,0.8c0.1,0.1,0.1,0.3,0,0.5l-0.5,0.5l1.1,1.1c3.7-3.4,8.4-5.4,13.4-5.7
			v-1.5h-1c-0.4,0-0.7-0.3-0.7-0.7v-1.3c0-0.4,0.3-0.7,0.7-0.7h4.4c0.4,0,0.7,0.3,0.7,0.7v1.3c0,0.4-0.3,0.7-0.7,0.7h-1v1.5
			c5,0.3,9.8,2.3,13.4,5.7l1.1-1.1l-0.5-0.5c-0.1-0.1-0.1-0.3,0-0.5l0.8-0.8c0.1-0.1,0.3-0.1,0.5,0l2.2,2.2c0.1,0.1,0.1,0.3,0,0.5
			l-0.8,0.8c-0.1,0.1-0.3,0.1-0.5,0l-0.5-0.5l-1.1,1.1c3.7,4,5.8,9.2,5.8,14.6c0,0.4,0,0.9,0,1.3L171.9,165.4z"/>
		<g id="Group_11852-3" transform="translate(131.412 146.827)">
			<path id="Path_15245" class="st0" d="M21.3,3.1c-1.5,1.6-2.7,3.4-3.5,5.4c-2.1,5.4-2.1,11.3,0,16.7c0.6,1.4,1.4,2.8,2.2,4.1
				c0.1,0.2,0.3,0.5,0.4,0.8c0.3,0.6,0.6,1.2,0.9,1.8c0.3-0.6,0.5-1.2,0.9-1.8c0.1-0.2,0.3-0.5,0.4-0.8c0.8-1.3,1.5-2.7,2.2-4.1
				c0.7-1.8,1.2-3.6,1.4-5.5c0.7-1,1.5-1.9,2.4-2.7l0.1,0c0,2.3-0.3,4.6-0.9,6.8c1.7-1.1,3.6-2.1,5.5-3c0.5-2.6,0.3-5.2-0.5-7.7
				c-1.8,0.7-3.5,1.7-4.9,3c-4.3,3.9-5.2,7.5-6.5,12.8c-0.3-0.4-1.8-6.8-3.8-9.7l0,0v0l0,0v0l0,0v0l0,0v0l0,0v0l0,0v0l0,0v0l0,0v0
				l0,0v0l0,0c-0.1-1.1-0.1-2.1-0.1-3.2l0,0v0l0,0v0l0,0v0l0,0v0l0,0v0l0,0v0l0,0v0l0,0v0c1.6,1.7,2.9,3.6,3.9,5.6
				c1.2-2.5,2.9-4.8,4.9-6.7c-0.2-2.1-0.7-4.1-1.4-6C24.1,6.5,22.9,4.6,21.3,3.1L21.3,3.1z M34.6,31.3c-0.3,0.3-0.6,0.5-0.9,0.8
				c-1,0.8-2.1,1.5-3.3,2.1c-0.9,0.5-1.8,0.8-2.8,1.1c-0.3,0.1-0.7,0.2-1,0.3c0.6-0.5,1.3-1,1.8-1.5c0.7-0.6,1.3-1.3,1.9-1.9l0,0
				c0.8-0.9,1.5-1.9,2.1-2.9c0.4-0.7,0.8-1.3,1.1-2.1c0.5-1.1,1-2.3,1.3-3.4c-1,0.3-2,0.7-2.9,1.3c-0.2,0.4-0.3,0.8-0.5,1.2
				c-0.5,1.1-1.1,2.1-1.8,3c-0.7,1.1-1.6,2-2.5,2.9c-0.1,0.1-0.2,0.2-0.3,0.3c-1.2,1.2-2.7,2.1-4.2,2.8c0.1-0.4,0.1-0.7,0.2-1.1
				c0.3-1,0.7-2.1,1.3-3c0.4-0.7,0.8-1.3,1.2-1.9c1-1.3,2.1-2.4,3.3-3.4c1.8-1.5,3.9-2.6,6.1-3.3c1.6-0.5,3.3-0.7,5-0.6
				c0,0.4-0.1,0.8-0.2,1.1c-0.9,3-2.6,5.7-4.8,7.9C34.8,31.1,34.7,31.2,34.6,31.3L34.6,31.3z M35.6,20c1.9-0.4,3.8-0.5,5.7-0.1
				l1.4,0.3c-0.6,2.9-1,5.1-2.4,7.7c-1,1.8-2.3,3.5-3.9,4.9c-8.3,8.1-21.7,8.1-30,0c-1.5-1.4-2.9-3.1-3.9-4.9
				c-1.2-2.3-2-4.8-2.4-7.4L0,20.2l0.4-0.1l1-0.2C3.2,19.6,5.2,19.6,7,20c0-0.4-0.1-0.7-0.1-1.1c-0.2-2.6,0.2-5.3,1.3-7.7l0.4-0.9
				l0.9,0.2c1.3,0.4,2.6,0.9,3.7,1.6c0.4,0.2,0.7,0.4,1.1,0.7c0.3-1.8,0.8-3.5,1.4-5.1c1-2.7,2.7-5.1,4.9-7L21.3,0l0.7,0.6
				c2.2,1.9,3.8,4.3,4.9,7c0.7,1.6,1.2,3.4,1.4,5.1l0,0c1.4-1,3-1.8,4.7-2.2l0.9-0.2l0.4,0.9C35.7,14,36.1,17,35.6,20L35.6,20z
				 M8.1,31.4c0.3,0.3,0.6,0.5,0.9,0.7c1.8,1.5,3.9,2.6,6.1,3.3c0.3,0.1,0.7,0.2,1,0.3c-0.6-0.5-1.3-1-1.8-1.5
				c-2.1-2-3.8-4.3-5.1-6.9c-0.7-1.5-1.3-3.1-1.7-4.7c-1.5-0.4-3.1-0.6-4.7-0.5C3.2,25.3,5.7,29.1,8.1,31.4L8.1,31.4z M14.9,23.7
				c-1.3-1-2.7-1.8-4.2-2.5c0.2,1,0.5,2,0.9,3c0.8,0.5,1.6,1,2.4,1.6c1.8,1.5,3.4,3.2,4.5,5.3c0.7,1.3,1.2,2.7,1.5,4.1l0,0
				c-1.6-0.7-3-1.6-4.2-2.8c-3.8-3.6-6.2-8.5-6.6-13.7c-0.1-1.9,0.1-3.9,0.7-5.7c1.1,0.4,2.1,0.9,3,1.6c0.4,0.3,0.7,0.5,1.1,0.8
				c0,0.5,0,0.9,0,1.4C14,19.2,14.3,21.5,14.9,23.7L14.9,23.7z"/>
		</g>
	</g>
	<path id="Path_15246" class="st1" d="M346.6,142.7v17.4h12.2v-3h-8.9v-14.4H346.6z M374,142.4c-4.9-0.1-8.9,3.7-9,8.6
		c0,0.2,0,0.4,0,0.6c0,4.6,2.8,9,9,9s8.9-4.5,8.9-9C382.9,147,379.9,142.4,374,142.4L374,142.4z M368.2,151.6
		c-0.1-3.5,2.1-6.2,5.8-6.2c4,0.1,5.7,3.3,5.6,6.2c0,2.9-1.6,5.9-5.7,5.9S368.3,154.4,368.2,151.6L368.2,151.6z M394.4,160.1h3.3
		v-14.4h5.5v-3h-14.3v3h5.5L394.4,160.1L394.4,160.1z M422.5,142.7v10c0,3-1.5,4.8-4.3,4.8c-2.7,0-4.5-1.7-4.5-4.8v-10h-3.3v10
		c0,5.2,3.6,7.8,7.7,7.8c4.4,0,7.5-2.6,7.5-7.8v-10H422.5z M447.7,145.6c-1.3-2.7-4.1-3.5-6.8-3.5c-3.2,0-6.7,1.5-6.7,5.1
		c0,3.9,3.3,4.8,6.8,5.3c2.3,0.2,4,0.9,4,2.6c0,1.9-1.9,2.6-4,2.6c-2.1,0-4.1-0.8-4.9-2.8l-2.7,1.4c1.3,3.2,4,4.3,7.6,4.3
		c3.9,0,7.3-1.7,7.3-5.5c0-4.2-3.4-5.1-7-5.5c-2.1-0.2-3.9-0.7-3.9-2.2c0-1.3,1.2-2.3,3.6-2.3c1.6-0.1,3.1,0.7,4.1,1.9L447.7,145.6z
		"/>
	<path id="Path_15247" class="st0" d="M475.1,160.1h3.6l-7.8-17.4h-3.6l-7.8,17.4h3.6l1.5-3.3h9.1L475.1,160.1L475.1,160.1z
		 M472.3,153.8h-6.5l3.2-7.4L472.3,153.8L472.3,153.8z M489.1,160.1v-17.4h-3.3v17.4H489.1z"/>
</g>
</svg>
